<svg width="911" height="1297" viewBox="0 0 911 1297" fill="none" xmlns="http://www.w3.org/2000/svg">
<g clip-path="url(#clip0_1452_673)">
<path d="M1331.61 550.629C1263.84 650.185 1137.27 763.189 1023.77 803.833C925.703 845.383 666.307 822.835 545.787 676.78C491.189 601.782 499.614 518.97 544.67 460.04C572.648 432.835 616.974 422.9 652.33 450.973C706.346 493.86 702.59 591.503 682.059 649.469C617.978 830.376 437.011 985.072 246.147 1011.91" stroke="#FF9ECB" stroke-width="15.2477" stroke-linecap="round"/>
<path d="M382.412 1058.55C349.55 1051.17 275.068 1032 240.036 1014.39" stroke="#FF9ECB" stroke-width="15.2477" stroke-linecap="round"/>
<path d="M240.039 1014.38C262.02 988.847 310.385 929.022 328.003 893.979" stroke="#FF9ECB" stroke-width="15.2477" stroke-linecap="round"/>
</g>
<defs>
<clipPath id="clip0_1452_673">
<rect width="1174.03" height="1062.57" fill="white" transform="matrix(-0.975058 -0.221952 -0.221952 0.975058 1380.66 260.693)"/>
</clipPath>
</defs>
</svg>
