<svg width="1440" height="872" viewBox="0 0 1440 872" fill="none" xmlns="http://www.w3.org/2000/svg">
<g clip-path="url(#clip0_863_1286)">
<rect width="1440" height="872" fill="#E0E4E0"/>
<rect width="1440" height="1024" transform="translate(1 -158)" fill="#E0E4E0"/>
<path d="M1136.37 -106.887C1104.82 -95.5333 1077.5 -72.7946 1060.59 -43.8227C1043.68 -14.8506 1037.32 20.1323 1042.93 53.2062" stroke="#020100" stroke-width="4.39471" stroke-miterlimit="10"/>
<path d="M207.206 -190.363C229.791 -178.079 255.909 -159.364 268.154 -136.752C283.753 -107.957 283.786 -73.2078 270.537 -43.2609C259.312 -17.9193 234.394 0.729849 210.889 15.4147C173.89 38.5372 137.794 65.0469 113.205 101.094C88.6158 137.143 77.0444 184.422 92.2483 225.338" stroke="#020100" stroke-width="4.54493" stroke-miterlimit="10"/>
<path d="M1284.77 -53.2969C1349.81 -23.1091 1395.76 42.0251 1408.75 112.556C1421.75 183.103 1403.52 257.641 1364.93 318.098" stroke="#FD7B41" stroke-width="5.64933" stroke-miterlimit="10"/>
<path d="M651.694 99.5953C671.475 115.807 691.159 124.001 716.735 125.654C738.846 127.079 757.251 116.973 770.347 99.8057C783.442 82.6395 785.918 59.0593 799.775 42.4749C811.98 27.8505 828.345 19.5586 847.025 18.5221C864.103 17.5666 885.373 23.0567 902.466 22.9271C925.436 22.7652 940.021 9.97097 946.577 -2.92041C953.505 -16.573 958.377 -40.6554 956.661 -55.8789" stroke="#FD7B41" stroke-width="5.59488" stroke-miterlimit="10"/>
<path d="M511.654 -202.98C513.69 -179.109 513.52 -154.355 504.594 -132.131C495.667 -109.907 476.44 -90.5518 452.732 -87.292C429.007 -84.0325 402.686 -101.265 401.074 -125.17C400.565 -132.81 402.924 -141.265 409.305 -145.493C418.146 -151.367 430.484 -146.63 437.934 -139.075C457.636 -119.058 450.017 -76.4264 432.435 -54.5241C415.244 -33.0981 393.93 -31.5696 372.733 -17.2231C352.657 -3.64136 337.316 17.1066 330.901 40.5526" stroke="#BB98F2" stroke-width="5.86536" stroke-miterlimit="10"/>
<path d="M665.771 333.861C653.327 328.92 642.043 321.908 633.56 313.403C613.776 293.559 603.602 265.045 606.303 237.16L616.195 238.122C613.759 263.088 622.889 288.619 640.585 306.391C657.552 323.417 688.455 334.027 714.054 331.606L714.982 341.503C698.943 343.012 681.429 340.094 665.754 333.877L665.771 333.861Z" fill="#9D882F"/>
<path d="M461.27 216.138L581.619 90.7227C581.619 90.7227 578.761 193.774 461.27 216.138Z" fill="#0C5752"/>
<path d="M761.119 285.013L926.959 226.789C926.959 226.789 877.352 318.494 761.119 285.013Z" fill="#9D882F"/>
<path d="M655.324 129.063C654.297 142.716 653.51 160.081 653.51 160.081C653.51 160.081 631.851 148.481 624.683 188.412C617.07 230.857 645.606 231.678 645.606 231.678C645.606 231.678 642.492 254.569 650.379 269.607C660.165 288.323 682.064 297.168 682.064 297.168L680.387 363.582C680.387 363.582 707.845 386.797 744.919 387.756C781.992 386.797 809.451 363.582 809.451 363.582L807.774 297.168C807.774 297.168 829.672 288.323 839.458 269.607C847.328 254.569 844.231 231.678 844.231 231.678C844.231 231.678 872.768 230.857 865.155 188.412C857.986 148.481 836.327 160.081 836.327 160.081C836.327 160.081 835.54 142.716 834.514 129.063C834.514 129.063 828.235 67.2007 744.867 67.2007C661.5 67.2007 655.306 129.063 655.306 129.063H655.324Z" fill="#9C563B"/>
<path d="M665.998 159.772C668.77 155.17 672.089 151.954 676.024 149.114C679.907 146.291 684.321 144.358 688.872 143.023C693.457 141.963 698.196 141.381 702.815 141.757C705.159 141.826 707.383 142.39 709.675 142.715C711.882 143.297 714.072 143.964 716.228 144.717C719.803 145.966 721.754 150.14 720.608 154.041C719.513 157.736 716.04 159.858 712.652 159.053L712.105 158.917C708.529 158.044 705.039 157.052 701.515 156.641C697.991 156.06 694.501 156.077 691.01 156.368C687.503 156.642 684.082 157.617 680.677 158.917C677.358 160.2 673.885 162.27 671.165 164.357L670.686 164.733C669.181 165.897 667.093 165.503 666.05 163.861C665.246 162.612 665.28 160.987 665.998 159.772Z" fill="#191333"/>
<path d="M823.855 159.756C821.118 155.154 817.833 151.937 813.933 149.097C810.083 146.292 805.721 144.341 801.204 143.007C796.671 141.946 791.983 141.364 787.398 141.741C785.088 141.809 782.881 142.391 780.606 142.699C778.416 143.281 776.243 143.948 774.105 144.7C770.563 145.949 768.63 150.124 769.76 154.024C770.837 157.72 774.276 159.841 777.629 159.037L778.159 158.9C781.701 158.028 785.157 157.018 788.647 156.625C792.137 156.043 795.593 156.043 799.066 156.351C802.539 156.625 805.926 157.6 809.296 158.9C812.581 160.183 816.02 162.253 818.706 164.341L819.185 164.717C820.673 165.88 822.743 165.487 823.787 163.844C824.574 162.595 824.557 160.97 823.838 159.756H823.855Z" fill="#191333"/>
<path d="M690.687 300.555C690.687 300.555 744.886 323.839 799.067 300.555C799.067 300.555 788.015 330.084 744.868 330.084C701.722 330.084 690.67 300.555 690.67 300.555H690.687Z" fill="#191333"/>
<path d="M844.008 215.562C844.008 215.562 851.348 210.617 848.97 204.321C846.609 198.043 841.083 199.959 840.86 193.184" stroke="#191333" stroke-width="1.28311" stroke-linecap="round" stroke-linejoin="round"/>
<path d="M842.041 171.543C842.041 171.543 854.273 165.897 856.839 188.942" stroke="#191333" stroke-width="1.28311" stroke-linecap="round" stroke-linejoin="round"/>
<path d="M645.845 215.562C645.845 215.562 638.505 210.617 640.883 204.321C643.244 198.043 648.77 199.959 648.993 193.184" stroke="#191333" stroke-width="1.28311" stroke-linecap="round" stroke-linejoin="round"/>
<path d="M647.795 171.543C647.795 171.543 635.562 165.897 632.996 188.942" stroke="#191333" stroke-width="1.28311" stroke-linecap="round" stroke-linejoin="round"/>
<path d="M727.315 217.496C727.315 217.496 715.852 225.845 726.579 233.458" stroke="#191333" stroke-width="1.28311" stroke-linecap="round" stroke-linejoin="round"/>
<path d="M763.071 233.475C773.798 225.861 762.335 217.513 762.335 217.513C762.335 217.513 754.739 212.551 755.971 196.829" stroke="#191333" stroke-width="1.28311" stroke-linecap="round" stroke-linejoin="round"/>
<path d="M733.969 231.045C733.969 231.045 736.655 227.555 740.846 231.267" stroke="#191333" stroke-width="1.28311" stroke-linecap="round" stroke-linejoin="round"/>
<path d="M749.094 231.045C749.094 231.045 751.78 227.555 755.971 231.267" stroke="#191333" stroke-width="1.28311" stroke-linecap="round" stroke-linejoin="round"/>
<path d="M829.278 189.454C829.278 189.454 793.898 153.511 763.788 193.92C763.788 193.92 774.652 212.551 796.533 213.474C818.414 214.398 829.278 189.454 829.278 189.454Z" fill="white"/>
<mask id="mask0_863_1286" style="mask-type:luminance" maskUnits="userSpaceOnUse" x="763" y="174" width="67" height="40">
<path d="M829.278 189.454C829.278 189.454 793.898 153.511 763.788 193.92C763.788 193.92 774.652 212.551 796.533 213.474C818.414 214.398 829.278 189.454 829.278 189.454Z" fill="white"/>
</mask>
<g mask="url(#mask0_863_1286)">
<path d="M796.533 222.404C808.079 222.404 817.439 213.044 817.439 201.498C817.439 189.952 808.079 180.592 796.533 180.592C784.987 180.592 775.627 189.952 775.627 201.498C775.627 213.044 784.987 222.404 796.533 222.404Z" fill="#191333"/>
</g>
<path d="M763.241 192.91C772.069 173.151 795.678 164.408 814.805 175.529C820.69 178.762 825.72 183.142 829.689 188.291C829.911 188.582 829.86 188.993 829.569 189.215C829.364 189.386 829.073 189.386 828.85 189.267C823.239 186.17 817.816 183.21 812.204 181.157C794.087 173.784 777.714 180.37 764.319 193.595C763.874 194.142 762.916 193.561 763.241 192.91Z" fill="#191333"/>
<path d="M660.575 189.454C660.575 189.454 695.955 153.511 726.065 193.92C726.065 193.92 715.201 212.551 693.32 213.474C671.439 214.398 660.575 189.454 660.575 189.454Z" fill="white"/>
<mask id="mask1_863_1286" style="mask-type:luminance" maskUnits="userSpaceOnUse" x="660" y="174" width="67" height="40">
<path d="M660.574 189.454C660.574 189.454 695.954 153.51 726.064 193.919C726.064 193.919 715.2 212.55 693.319 213.474C671.438 214.398 660.574 189.454 660.574 189.454Z" fill="white"/>
</mask>
<g mask="url(#mask1_863_1286)">
<path d="M693.32 222.404C704.866 222.404 714.226 213.044 714.226 201.498C714.226 189.952 704.866 180.592 693.32 180.592C681.774 180.592 672.414 189.952 672.414 201.498C672.414 213.044 681.774 222.404 693.32 222.404Z" fill="#191333"/>
</g>
<path d="M725.518 193.596C712.122 180.371 695.75 173.784 677.632 181.158C672.021 183.211 666.598 186.171 660.986 189.267C660.678 189.438 660.268 189.335 660.096 189.01C659.96 188.771 659.994 188.497 660.148 188.292C664.1 183.142 669.13 178.763 675.032 175.529C686.939 168.481 703.226 169.079 714.141 177.582C719.564 181.671 723.944 186.838 726.596 192.911C726.887 193.561 725.98 194.143 725.518 193.596Z" fill="#191333"/>
<path d="M779.836 250.839C779.836 250.839 744.816 274.516 710.001 250.839" stroke="#191333" stroke-width="1.28311" stroke-linecap="round" stroke-linejoin="round"/>
<path d="M646.804 86.0368C646.804 86.0368 623.845 105.54 630.124 122.032C636.402 138.525 669.883 116.541 669.883 116.541C669.883 116.541 696.127 139.534 711.969 114.539C711.969 114.539 740.71 141.536 766.15 115.531C766.15 115.531 788.818 135.206 815.986 114.026C815.986 114.026 849.518 128.653 858.568 111.1C867.618 93.53 845.446 82.0334 845.446 82.0334C845.446 82.0334 860.792 66.8928 856.053 54.7118C851.314 42.5308 823.719 52.0261 823.719 52.0261C823.719 52.0261 834.121 30.521 813.762 24.0371C793.403 17.536 780.606 38.5276 780.606 38.5276C780.606 38.5276 779.169 15.0383 752.806 16.0306C726.442 17.0228 727.999 41.5215 727.999 41.5215C727.999 41.5215 717.392 13.0195 693.406 22.0184C669.421 31.0173 677.564 60.5117 677.564 60.5117C677.564 60.5117 658.112 37.5181 644.528 47.0131C630.962 56.5081 646.787 86.0026 646.787 86.0026L646.804 86.0368Z" fill="#191333"/>
<path d="M865.583 215.904C869.244 219.942 871.741 227.983 871.741 237.255C871.741 250.565 866.592 261.361 860.245 261.361C853.898 261.361 848.748 250.565 848.748 237.255C848.748 229.078 850.698 221.858 853.658 217.496" stroke="#191333" stroke-width="1.28311" stroke-linecap="round" stroke-linejoin="round"/>
<path d="M624.666 215.904C621.005 219.942 618.507 227.983 618.507 237.255C618.507 250.565 623.656 261.361 630.003 261.361C636.351 261.361 641.5 250.565 641.5 237.255C641.5 229.078 639.55 221.858 636.59 217.496" stroke="#191333" stroke-width="1.28311" stroke-linecap="round" stroke-linejoin="round"/>
<path d="M509.699 426.129C509.699 426.129 323.341 483.938 168.563 640.853L245.037 693.272C245.037 693.272 410.079 602.086 609.132 545.972C609.132 545.972 614.093 394.394 509.699 426.129Z" fill="#9C563B"/>
<path d="M1030.32 449.464C1030.32 449.464 1172.18 473.228 1328.1 640.853L1251.63 693.272C1251.63 693.272 1086.59 602.086 887.532 545.971C887.532 545.971 925.906 417.729 1030.32 449.464Z" fill="#9C563B"/>
<path d="M896.992 1131.77C910.713 1011.04 926.623 797.529 883.801 693.272C883.801 693.272 773.677 723.451 615.683 693.272C615.683 693.272 568.585 793.218 604.785 1130.44L897.009 1131.77H896.992Z" fill="#191333"/>
<path d="M433.021 426.13C517.466 395.198 653.613 366.371 653.613 366.371C661.688 348.339 681.225 330.102 681.225 330.102C710.001 366.405 744.884 376.311 744.884 376.311C779.836 362.675 808.612 330.102 808.612 330.102C808.612 330.102 829.809 344.78 837.388 362.675L1063.97 422.913L969.668 620.888L883.785 587.014V693.29C769.178 724.871 615.667 693.29 615.667 693.29C613.751 666.755 616.984 588.366 616.984 588.366L537.517 620.888L433.021 426.147V426.13Z" fill="#80CD75"/>
<path d="M653.613 366.354C653.613 366.354 713.851 401.75 744.885 422.879C744.885 422.879 790.82 391.4 837.388 362.641" stroke="#191333" stroke-width="1.28311" stroke-linecap="round" stroke-linejoin="round"/>
<path d="M744.885 376.293V702.426" stroke="#191333" stroke-width="1.28311" stroke-linecap="round" stroke-linejoin="round"/>
<path d="M616.316 606.467V544.707" stroke="#191333" stroke-width="1.28311" stroke-linecap="round" stroke-linejoin="round"/>
<path d="M883.784 606.467V544.707" stroke="#191333" stroke-width="1.28311" stroke-linecap="round" stroke-linejoin="round"/>
<path d="M908.3 596.663L883.784 586.997V555.775L908.3 596.663Z" fill="#191333"/>
<path d="M616.984 588.331L587.045 600.598L616.317 560.428L616.984 588.331Z" fill="#191333"/>
<path d="M1338.64 652.195C1338.64 652.195 1226.43 624.052 1064.51 665.728C1064.51 665.728 1039.16 726.513 1190.5 719.413C1341.84 712.33 1338.64 652.195 1338.64 652.195Z" fill="#854228"/>
<path d="M1338.64 652.195C1371.78 664.376 1380.74 668.175 1400.71 682.751C1441.42 712.502 1519.4 861.787 1553.6 951.673C1528.21 965.428 1542.07 1002 1541.83 1013.11C1540 1099.49 1428.69 1130.42 1297.59 1130.42H1006.59C1013.63 1097.52 1016.83 1027.94 1016.83 1027.94L1010.23 1040.5C986.809 1089.43 915.827 1087.24 896.29 1036.63C896.153 1036.27 896.016 1035.9 895.879 1035.54C878.155 987.891 881.218 931.195 881.218 931.195C951.481 914.394 957.229 832.498 957.229 832.498C965.886 778.642 971.326 768.24 971.326 768.24C984.414 702.288 1035.94 675.6 1064.5 665.694C1064.5 665.694 1055.31 695.12 1192.55 695.12C1329.79 695.12 1338.64 652.161 1338.64 652.161V652.195Z" fill="#008560"/>
<path d="M833.88 660.767C833.88 660.767 858.652 875.953 886.744 1000.93C951.772 1007.46 993.379 875.953 993.379 875.953C967.101 765.417 925.75 645.455 925.75 645.455L833.88 660.767Z" fill="#854228"/>
<path d="M1326.23 832.532C1326.23 832.532 1352.22 920.861 1377.05 982.707" stroke="#191333" stroke-width="1.28311" stroke-linecap="round" stroke-linejoin="round"/>
<path d="M1006.65 1126.95C1006.65 1126.95 1023.42 1020.74 1014.28 942.417C1014.28 942.417 961.164 819.667 1073.63 719.413" stroke="#191333" stroke-width="1.28311" stroke-linecap="round" stroke-linejoin="round"/>
<path d="M993.379 875.935C993.379 875.935 963.337 764.903 939.078 686.206" stroke="#191333" stroke-width="1.28311" stroke-linecap="round" stroke-linejoin="round"/>
<path d="M889.858 678.251C896.342 676.335 938.548 655.207 937.128 631.94C935.725 608.673 925.7 603.591 925.7 603.591C925.7 603.591 922.603 578.938 918.976 552.181C914.716 520.583 919.404 490.301 899.593 492.303C899.593 492.303 887.908 493.193 889.362 511.002C889.687 515.074 889.756 537.058 890.046 555.774C890.046 555.774 878.978 538.512 866.01 557.177C866.01 557.177 849.363 553.379 845.771 574.439C845.771 574.439 822.315 568.845 824.026 593.224C824.026 593.224 819.219 618.937 829.946 651.494C829.946 651.494 839.201 693.272 889.841 678.251H889.858Z" fill="#AB5F41"/>
<path d="M896.17 591.787C892.612 573.738 890.08 555.774 890.08 555.774C890.08 555.774 886.042 547.973 876.445 548.742C871.432 548.691 866.043 557.159 866.043 557.159C866.043 557.159 860.431 591.016 869.892 603.386C869.892 603.386 872.116 606.465 876.427 606.465" fill="#854228"/>
<path d="M869.209 602.41C874.325 609.681 850.151 619.296 845.207 609.39C840.262 599.502 845.805 574.421 845.805 574.421C845.805 574.421 847.995 554.336 866.044 557.159C866.044 557.159 860.056 589.391 869.209 602.41Z" fill="#854228"/>
<path d="M843.701 605.029C843.701 605.029 839.972 610.469 832.615 609.613C825.259 608.758 824.608 600.58 824.044 593.224C824.044 593.224 822.881 579.161 831.914 575.585C840.947 572.01 845.788 574.439 845.788 574.439C845.788 574.439 841.46 594.644 843.684 605.046L843.701 605.029Z" fill="#854228"/>
<path d="M924.708 603.215C935.76 609.306 936.41 625.114 937.146 631.94C937.881 638.766 932.236 654.129 920.192 663.23C908.147 672.332 889.859 680.544 886.283 679.227C870.937 673.461 871.433 656.216 871.433 656.216V654.967C871.485 650.913 873.264 645.9 873.264 645.9C883.358 625.439 906.642 630.383 906.642 630.383C861.169 617.671 875.847 579.931 888.815 587.818C901.783 595.705 925.735 603.54 925.735 603.54" fill="#854228"/>
<path d="M1207.45 362.658C1207.45 362.658 1307.4 286.065 1361.99 392.768C1416.58 499.471 1340.35 569.101 1351.64 606.465C1351.64 606.465 1351.76 625.216 1332.51 599.845C1313.27 574.456 1289.43 536.134 1289.43 499.677C1289.43 463.219 1207.43 362.658 1207.43 362.658H1207.45Z" fill="#191333"/>
<path d="M1036.9 553.464C1043.15 594.694 1079.84 625.626 1131.54 607.56L1136.59 605.712L1126.15 654.847C1126.15 654.847 1142.77 681.621 1185.33 679.038C1247.91 675.257 1268.32 642.649 1268.32 642.649L1251.37 530.454C1251.37 530.454 1279.99 538.015 1277.46 496.734C1274.77 452.903 1244.83 463.509 1244.83 463.509L1244.44 460.789C1240.59 402.228 1199.43 372.169 1150.74 370.39L1139.5 369.86C1139.5 369.86 1006.5 352.905 1036.88 553.447L1036.9 553.464Z" fill="#854228"/>
<path d="M1246.36 488.129C1246.36 488.129 1241.29 493.757 1246.8 496.05C1258.54 500.96 1243.45 505.117 1247.35 509.206" stroke="#191333" stroke-width="1.28311" stroke-linecap="round" stroke-linejoin="round"/>
<path d="M1244.03 475.502C1244.03 475.502 1263.33 463.835 1262.28 493.312" stroke="#191333" stroke-width="1.28311" stroke-linecap="round" stroke-linejoin="round"/>
<path d="M1114.16 460.977C1116.86 460.618 1120.73 460.054 1124.1 459.968C1127.59 459.78 1131.15 459.78 1134.71 460.139C1138.27 460.481 1141.84 461.08 1145.52 461.696C1149.23 462.192 1152.95 463.064 1157.14 463.218H1157.24C1158.27 463.253 1159.14 462.021 1159.21 460.464C1159.24 459.711 1159.07 459.01 1158.78 458.497C1156.04 453.621 1152.69 449.755 1149.05 446.761C1145.42 443.578 1141.41 441.696 1137.34 440.037C1133.25 438.446 1128.99 437.642 1124.7 437.453C1120.27 437.419 1116.27 437.745 1111.27 439.952C1107.47 441.628 1105.15 447.616 1106.07 453.364C1106.87 458.394 1109.92 461.559 1113.22 461.114L1114.14 460.994L1114.16 460.977Z" fill="#191333"/>
<mask id="mask2_863_1286" style="mask-type:luminance" maskUnits="userSpaceOnUse" x="1034" y="432" width="42" height="37">
<path d="M1042.89 432.048C1042.89 432.048 1037.07 445.324 1034.13 468.609C1034.13 468.609 1071.27 469.943 1075.41 455.675C1075.41 455.675 1078.49 434.632 1042.87 432.048H1042.89Z" fill="white"/>
</mask>
<g mask="url(#mask2_863_1286)">
<path d="M1062 440.585C1058.46 438.805 1055.65 438.498 1052.4 438.48C1049.25 438.566 1046.07 439.285 1042.96 440.602C1039.86 441.919 1036.8 443.664 1034.04 446.47C1031.29 449.122 1028.84 452.68 1027.1 457.009C1026.52 458.463 1026.79 460.225 1027.71 460.977C1027.97 461.183 1028.26 461.286 1028.55 461.303H1028.74C1031.85 461.388 1034.37 460.892 1036.88 460.79C1039.35 460.601 1041.67 460.242 1043.98 460.259C1046.29 460.208 1048.57 460.293 1050.83 460.55C1052.98 460.67 1055.55 461.166 1057.17 461.183H1058.54C1062.44 461.217 1065.88 456.512 1066.26 450.678C1066.55 445.974 1064.74 441.97 1061.98 440.585H1062Z" fill="#191333"/>
</g>
<mask id="mask3_863_1286" style="mask-type:luminance" maskUnits="userSpaceOnUse" x="1032" y="462" width="47" height="59">
<path d="M1035.07 462.159C1035.07 462.159 1030.78 483.886 1033.1 517.657C1033.1 517.657 1052.28 525.493 1065.76 514.561C1071.99 509.514 1075.07 499.232 1078.76 483.048C1078.76 483.048 1060.56 464.588 1035.07 462.159Z" fill="white"/>
</mask>
<g mask="url(#mask3_863_1286)">
<path d="M1079.74 492.405C1079.74 492.405 1044.67 450.455 1008.57 491.464C1008.57 491.464 1018.66 512.558 1042.22 515.483C1065.78 518.409 1079.72 492.405 1079.72 492.405H1079.74Z" fill="white"/>
<mask id="mask4_863_1286" style="mask-type:luminance" maskUnits="userSpaceOnUse" x="1008" y="473" width="72" height="43">
<path d="M1079.74 492.405C1079.74 492.405 1044.67 450.455 1008.57 491.464C1008.57 491.464 1018.66 512.558 1042.22 515.483C1065.78 518.409 1079.72 492.405 1079.72 492.405H1079.74Z" fill="white"/>
</mask>
<g mask="url(#mask4_863_1286)">
<path d="M1015.91 493.227C1014.9 505.716 1023.21 516.579 1034.49 517.486C1045.76 518.41 1055.74 509.035 1056.76 496.563C1057.77 484.074 1049.46 473.21 1038.18 472.304C1026.91 471.38 1016.93 480.755 1015.91 493.244V493.227Z" fill="#191333"/>
</g>
<path d="M1008.64 490.729C1008.64 490.729 1039.57 445.307 1079.81 491.687" stroke="#191333" stroke-width="5.13243" stroke-linecap="round" stroke-linejoin="round"/>
</g>
<path d="M1172.17 497.504C1172.17 497.504 1137.1 455.538 1101 496.563C1101 496.563 1111.1 517.657 1134.66 520.583C1158.21 523.508 1172.16 497.504 1172.16 497.504H1172.17Z" fill="white"/>
<mask id="mask5_863_1286" style="mask-type:luminance" maskUnits="userSpaceOnUse" x="1101" y="478" width="72" height="43">
<path d="M1172.17 497.504C1172.17 497.504 1137.1 455.538 1101 496.563C1101 496.563 1111.1 517.657 1134.66 520.583C1158.21 523.508 1172.16 497.504 1172.16 497.504H1172.17Z" fill="white"/>
</mask>
<g mask="url(#mask5_863_1286)">
<path d="M1100.61 492.388C1096.3 508.059 1108.89 522.875 1125.06 521.147C1134.09 520.189 1141.84 513.585 1144.25 504.843C1148.57 489.172 1135.97 474.356 1119.81 476.084C1110.77 477.042 1103.02 483.646 1100.61 492.388Z" fill="#191333"/>
</g>
<path d="M1100.29 495.262C1112.91 475.331 1137.46 465.546 1157.91 480.533C1163.98 484.775 1168.94 490.216 1172.96 496.169C1173.25 496.614 1173.15 497.196 1172.7 497.504C1172.33 497.76 1171.82 497.709 1171.49 497.384C1166.48 492.44 1161.24 487.821 1155.44 484.313C1136.01 471.79 1116.15 480.652 1101.84 496.375C1101.12 497.299 1099.64 496.272 1100.29 495.28V495.262Z" fill="#191333"/>
<path d="M1136.59 605.73L1165.86 597.347L1130.43 634.677L1136.59 605.73Z" fill="#191333"/>
<path d="M1251.37 530.488L1238.83 526.998" stroke="#191333" stroke-width="1.28311" stroke-linecap="round" stroke-linejoin="round"/>
<path d="M1078.58 482.432C1074.61 504.621 1065.42 511.345 1065.42 511.345C1065.42 511.345 1060.13 515.639 1062.29 520.994C1064.45 526.366 1067.76 523.748 1072.3 526.999" stroke="#191333" stroke-width="1.28311" stroke-linecap="round" stroke-linejoin="round"/>
<path d="M1084.03 523.595C1084.03 523.595 1084.86 523.287 1086.29 523.544C1087.73 523.783 1088.76 525.22 1088.76 525.22" stroke="#191333" stroke-width="1.28311" stroke-linecap="round" stroke-linejoin="round"/>
<path d="M1094.37 512.628C1094.37 512.628 1101.89 517.555 1095.68 526.469" stroke="#191333" stroke-width="1.28311" stroke-linecap="round" stroke-linejoin="round"/>
<path d="M1105.88 543.525C1105.88 543.525 1082.92 568.674 1061.26 547.717" stroke="#191333" stroke-width="1.28311" stroke-linecap="round" stroke-linejoin="round"/>
<path d="M1109.51 533.653C1109.51 533.653 1117.41 537.502 1116.06 545.269" stroke="#191333" stroke-width="1.28311" stroke-linecap="round" stroke-linejoin="round"/>
<path d="M1244.85 463.544C1244.85 463.544 1238.88 492.834 1229.25 499.677C1224.82 502.825 1215.89 474.545 1209.68 473.228C1173.77 465.546 1154.21 480.978 1112.88 396.293C1112.88 396.293 1070.78 382.863 1042.91 432.066C1042.91 432.066 1028.19 420.518 1045.68 393.521C1063.18 366.524 1207.91 294.02 1262.34 376.31C1316.74 458.583 1313.35 556.151 1253.18 567.921L1251.39 530.506C1251.39 530.506 1279.6 537.589 1277.48 496.786C1275.29 454.546 1244.85 463.562 1244.85 463.562V463.544Z" fill="#191333"/>
<path d="M1232.45 346.354C1232.45 346.354 1268.66 365.43 1289.01 429.345C1309.35 493.261 1294.67 531.207 1294.67 531.207" stroke="#F4F4F4" stroke-width="1.28311" stroke-linecap="round" stroke-linejoin="round"/>
<path d="M702.25 747.454C702.25 747.454 649.301 785.793 610.637 780.079C571.955 774.382 594.897 706.874 635.768 669.698C676.64 632.522 694.004 633.052 702.764 643.061C702.764 643.061 705.279 646.072 705.775 651.204C705.775 651.204 759.477 615.585 774.036 637.073C774.036 637.073 777.235 642.855 774.686 647.919C774.686 647.919 797.868 645.319 801.649 658.783C801.649 658.783 802.367 664.856 799.767 668.295C799.767 668.295 810.801 670.725 810.682 679.895C810.579 689.064 805.156 690.758 796.14 695.138C796.14 695.138 803.582 710.432 759.032 726.411C759.032 726.411 717.374 739.961 702.268 747.454H702.25Z" fill="#AB5F41"/>
<path d="M704.149 716.711C704.149 716.711 783.856 672.863 796.14 695.138" stroke="#191333" stroke-width="1.28311" stroke-linecap="round" stroke-linejoin="round"/>
<path d="M799.766 668.312C799.766 668.312 774.788 655.019 700.744 688.842" stroke="#191333" stroke-width="1.28311" stroke-linecap="round" stroke-linejoin="round"/>
<path d="M692.653 677.277C692.653 677.277 735.407 647.389 774.67 647.919" stroke="#191333" stroke-width="1.28311" stroke-linecap="round" stroke-linejoin="round"/>
<path d="M712.019 647.919C712.019 647.919 671.798 668.483 649.66 686.344" stroke="#191333" stroke-width="1.28311" stroke-linecap="round" stroke-linejoin="round"/>
<path d="M507.03 768.258C507.03 768.258 517.551 807.778 526.208 861.634C526.208 861.634 539.107 793.988 602.784 711.271C602.784 711.271 699.907 722.494 693.85 765.178C652.107 1059.39 542.238 1130.42 542.238 1130.42H60.9013C-70.1981 1130.42 -90.1632 1099.18 -91.9937 1012.82C-92.986 965.873 24.3071 721.724 77.6502 682.751C97.6154 668.175 106.58 664.377 139.719 652.196C207.467 627.287 306.83 649.545 394.544 660.477C394.544 660.477 488.655 675.686 507.03 768.275V768.258Z" fill="#E2F99C"/>
<path d="M268.832 1006.68L101.31 982.708C101.31 982.708 154.533 901.153 170.888 808.273" stroke="#191333" stroke-width="1.28311" stroke-linecap="round" stroke-linejoin="round"/>
<path d="M471.907 1131.77C471.907 1131.77 454.953 1020.74 464.072 942.417C464.072 942.417 517.192 819.667 404.724 719.413" stroke="#191333" stroke-width="1.28311" stroke-linecap="round" stroke-linejoin="round"/>
<path d="M512.487 919.938C512.487 919.938 525.182 845.347 562.529 772.244" stroke="#191333" stroke-width="1.28311" stroke-linecap="round" stroke-linejoin="round"/>
<path d="M441.453 553.464C435.209 594.694 398.512 625.626 346.811 607.56L341.764 605.712L352.2 654.847C352.2 654.847 335.588 681.621 293.023 679.038C230.442 675.257 220.04 642.649 220.04 642.649L226.986 530.454C226.986 530.454 198.364 538.015 200.896 496.734C203.582 452.903 233.521 463.509 233.521 463.509L233.914 460.789C237.764 402.228 278.926 372.169 327.616 370.39L338.856 369.86C338.856 369.86 471.854 352.905 441.47 553.447L441.453 553.464Z" fill="#AB5F41"/>
<path d="M231.982 488.129C231.982 488.129 237.046 493.757 231.537 496.05C219.801 500.96 234.891 505.117 230.99 509.206" stroke="#191333" stroke-width="1.28311" stroke-linecap="round" stroke-linejoin="round"/>
<path d="M234.324 475.502C234.324 475.502 215.027 463.835 216.07 493.312" stroke="#191333" stroke-width="1.28311" stroke-linecap="round" stroke-linejoin="round"/>
<path d="M359.985 456.838C357.282 456.65 353.449 456.359 350.062 456.359C346.572 456.307 343.031 456.359 339.472 456.649C335.914 456.94 332.321 457.385 328.643 457.864C324.913 458.258 321.201 458.891 317.009 459.062H316.907C315.897 459.113 315.025 458.309 314.99 457.3C314.973 456.804 315.144 456.359 315.452 456.017C318.275 452.783 321.68 450.2 325.392 448.181C329.071 446.042 333.108 444.742 337.214 443.579C341.337 442.467 345.597 441.868 349.891 441.663C354.305 441.56 358.308 441.697 363.269 443.049C367.033 444.075 369.257 447.942 368.231 451.705C367.341 455.007 364.228 457.129 360.943 456.889L360.019 456.821L359.985 456.838Z" fill="#191333"/>
<mask id="mask6_863_1286" style="mask-type:luminance" maskUnits="userSpaceOnUse" x="402" y="432" width="43" height="37">
<path d="M435.449 432.048C435.449 432.048 441.266 445.324 444.208 468.608C444.208 468.608 407.066 469.942 402.926 455.674C402.926 455.674 399.847 434.631 435.466 432.048H435.449Z" fill="white"/>
</mask>
<g mask="url(#mask6_863_1286)">
<path d="M416.749 444.4C420.342 443.1 423.147 442.792 426.381 442.655C429.511 442.604 432.659 442.963 435.705 443.733C438.75 444.503 441.744 445.564 444.361 447.343C447.013 449.019 449.323 451.295 450.897 454.135C451.427 455.076 451.085 456.273 450.144 456.804C449.87 456.958 449.596 457.026 449.306 457.043H449.117C446.004 457.214 443.523 456.975 441.025 456.992C438.579 456.958 436.286 456.804 433.977 456.889C431.684 456.941 429.409 457.077 427.151 457.317C424.995 457.471 422.429 457.898 420.803 457.967L419.452 458.018C415.568 458.172 412.301 455.161 412.147 451.278C412.027 448.147 413.977 445.41 416.766 444.383L416.749 444.4Z" fill="#191333"/>
</g>
<mask id="mask7_863_1286" style="mask-type:luminance" maskUnits="userSpaceOnUse" x="399" y="462" width="47" height="59">
<path d="M443.285 462.159C443.285 462.159 447.579 483.886 445.252 517.657C445.252 517.657 426.074 525.493 412.593 514.561C406.366 509.514 403.286 499.232 399.591 483.048C399.591 483.048 417.794 464.588 443.285 462.159Z" fill="white"/>
</mask>
<g mask="url(#mask7_863_1286)">
<path d="M398.615 492.405C398.615 492.405 433.687 450.455 469.785 491.464C469.785 491.464 459.691 512.558 436.133 515.483C412.576 518.409 398.632 492.405 398.632 492.405H398.615Z" fill="white"/>
<mask id="mask8_863_1286" style="mask-type:luminance" maskUnits="userSpaceOnUse" x="398" y="473" width="72" height="43">
<path d="M398.615 492.405C398.615 492.405 433.687 450.455 469.785 491.464C469.785 491.464 459.691 512.558 436.133 515.483C412.576 518.409 398.632 492.405 398.632 492.405H398.615Z" fill="white"/>
</mask>
<g mask="url(#mask8_863_1286)">
<path d="M462.446 493.227C463.455 505.716 455.141 516.579 443.867 517.486C432.592 518.41 422.618 509.035 421.592 496.563C420.582 484.074 428.897 473.21 440.171 472.304C451.445 471.38 461.419 480.755 462.446 493.244V493.227Z" fill="#191333"/>
</g>
<path d="M469.717 490.729C469.717 490.729 438.785 445.307 398.547 491.687" stroke="#191333" stroke-width="5.13243" stroke-linecap="round" stroke-linejoin="round"/>
</g>
<path d="M306.18 497.503C306.18 497.503 341.251 455.537 377.35 496.562C377.35 496.562 367.256 517.656 343.698 520.582C320.14 523.507 306.197 497.503 306.197 497.503H306.18Z" fill="white"/>
<mask id="mask9_863_1286" style="mask-type:luminance" maskUnits="userSpaceOnUse" x="306" y="478" width="72" height="43">
<path d="M306.18 497.503C306.18 497.503 341.251 455.537 377.35 496.562C377.35 496.562 367.256 517.656 343.698 520.582C320.14 523.507 306.197 497.503 306.197 497.503H306.18Z" fill="white"/>
</mask>
<g mask="url(#mask9_863_1286)">
<path d="M377.743 492.388C382.054 508.059 369.462 522.875 353.295 521.147C344.262 520.189 336.512 513.585 334.1 504.843C329.789 489.172 342.38 474.356 358.547 476.084C367.58 477.042 375.33 483.646 377.743 492.388Z" fill="#191333"/>
</g>
<path d="M376.512 496.357C353.433 471.225 329.738 472.936 307.549 497.931C306.745 499.026 304.948 498.804 304.469 497.538C302.724 493.295 300.996 489.018 299.422 484.689C299.046 483.612 300.569 482.893 301.15 483.885C303.477 487.872 305.667 491.909 307.805 495.964L304.726 495.57C318.635 476.46 341.183 465.443 362.757 479.813C368.916 483.902 374.082 489.137 378.085 495.245C378.718 496.254 377.281 497.298 376.529 496.34L376.512 496.357Z" fill="#191333"/>
<path d="M341.765 605.73L312.493 597.347L347.907 634.677L341.765 605.73Z" fill="#191333"/>
<path d="M413.943 541.284C413.943 541.284 392.455 543.491 360.343 539.932C360.343 539.932 357.777 573.413 387.391 574.473C409.632 575.277 413.943 541.284 413.943 541.284Z" fill="#191333"/>
<path d="M362.464 555.842C362.464 555.842 379.949 555.158 392.985 565.525C396.801 568.571 394.936 574.251 389.974 574.678C386.433 574.986 381.728 574.524 375.689 572.283C375.689 572.283 365.441 567.613 362.447 555.859L362.464 555.842Z" fill="#FF5D2C"/>
<path d="M413.943 541.284C413.943 541.284 392.882 560.222 360.343 539.932L413.943 541.284Z" fill="white"/>
<path d="M226.97 530.488L239.527 526.998" stroke="#191333" stroke-width="1.28311" stroke-linecap="round" stroke-linejoin="round"/>
<path d="M399.778 482.432C403.747 504.621 412.934 511.345 412.934 511.345C412.934 511.345 418.221 515.639 416.065 520.994C413.91 526.366 410.591 523.748 406.057 526.999" stroke="#191333" stroke-width="1.28311" stroke-linecap="round" stroke-linejoin="round"/>
<path d="M394.32 523.595C394.32 523.595 393.499 523.287 392.062 523.544C390.625 523.783 389.599 525.22 389.599 525.22" stroke="#191333" stroke-width="1.28311" stroke-linecap="round" stroke-linejoin="round"/>
<path d="M383.97 512.628C383.97 512.628 376.443 517.555 382.653 526.469" stroke="#191333" stroke-width="1.28311" stroke-linecap="round" stroke-linejoin="round"/>
<path d="M233.504 463.544C233.504 463.544 244.437 477.522 243.684 493.313C242.931 509.086 269.466 510.318 270.971 478.429C272.494 446.539 326.453 461.338 323.356 405.223C323.356 405.223 352.902 436.531 406.793 421.749C438.015 413.178 440.222 447.052 440.222 447.052C440.222 447.052 447.715 345.55 323.356 344.489C198.997 343.428 163.378 430.235 153.627 462.142C143.875 494.048 224.831 565.269 224.831 565.269L226.986 530.471C226.986 530.471 198.176 539.453 200.896 496.751C203.069 462.569 222.059 460.67 233.522 463.527L233.504 463.544Z" fill="#191333"/>
<path d="M256.053 384.864C270.647 387.875 290.338 402.691 290.56 414.735C290.8 426.779 274.804 440.209 266.25 422.844C257.679 405.48 242.624 395.745 242.624 395.745C230.117 388.799 241.46 381.853 256.053 384.864ZM281.579 414.376C281.356 409.26 273.161 398.448 264.334 394C255.523 389.552 243.479 389.073 255.061 397.746C266.643 406.42 271.741 414.119 271.741 414.119C275.146 420.09 281.784 419.491 281.579 414.376Z" fill="#FFC85A"/>
<path d="M982.994 845.277H582.322C575.701 845.277 569.816 849.451 567.609 855.696L478.459 1109.68C474.9 1119.81 482.428 1130.44 493.172 1130.44H893.844C900.464 1130.44 906.35 1126.26 908.557 1120.02L997.707 866.029C1001.27 855.901 993.738 845.277 982.994 845.277Z" fill="#BB98F2"/>
<path d="M582.323 845.277C575.702 845.277 569.817 849.451 567.61 855.696L513.771 1009.07" stroke="#191333" stroke-width="1.28311" stroke-linecap="round" stroke-linejoin="round"/>
<path d="M908.54 1120.02L997.69 866.029C1001.25 855.901 993.721 845.277 982.977 845.277H670.617" stroke="#191333" stroke-width="1.28311" stroke-linecap="round" stroke-linejoin="round"/>
<path d="M101.584 662.46C101.584 662.46 130.343 708.669 149.829 685.06C149.829 685.06 160.675 698.507 171.47 694.641C182.266 690.774 181.445 684.256 181.445 684.256C181.445 684.256 193.42 696.027 204.027 690.757C214.617 685.505 212.017 670.125 212.017 670.125C212.017 670.125 229.809 679.859 232.632 662.478C235.472 645.096 222.915 633.24 216.037 624.566C209.16 615.892 174.96 588.485 170.803 607.612C170.803 607.612 146.869 596.44 144.919 619.844C144.919 619.844 110.189 607.869 112.584 634.42C112.584 634.42 104.253 632.504 97.3411 639.57C90.4294 646.636 99.1374 659.193 101.584 662.426V662.46Z" fill="#9C563B"/>
<path d="M101.584 662.46C101.584 662.46 130.343 708.669 149.829 685.059C149.829 685.059 160.675 698.507 171.471 694.64C182.266 690.774 181.445 684.255 181.445 684.255C181.445 684.255 193.42 696.026 204.027 690.757C214.617 685.504 212.017 670.124 212.017 670.124C212.017 670.124 229.809 679.859 232.632 662.477C235.472 645.095 222.915 633.239 216.037 624.565" stroke="#191333" stroke-width="1.28311" stroke-linecap="round" stroke-linejoin="round"/>
<path d="M149.829 685.059L119.018 641.399" stroke="#191333" stroke-width="1.28311" stroke-linecap="round" stroke-linejoin="round"/>
<path d="M181.445 684.273L148.905 632.641" stroke="#191333" stroke-width="1.28311" stroke-linecap="round" stroke-linejoin="round"/>
<path d="M212.018 670.141L176.621 622.513" stroke="#191333" stroke-width="1.28311" stroke-linecap="round" stroke-linejoin="round"/>
<path d="M1385.21 662.46C1385.21 662.46 1356.45 708.669 1336.96 685.06C1336.96 685.06 1326.11 698.507 1315.32 694.641C1304.52 690.774 1305.35 684.256 1305.35 684.256C1305.35 684.256 1293.37 696.027 1282.76 690.757C1272.17 685.505 1274.77 670.125 1274.77 670.125C1274.77 670.125 1256.98 679.859 1254.16 662.478C1251.32 645.096 1263.88 633.24 1270.75 624.566C1277.63 615.892 1311.83 588.485 1315.99 607.612C1315.99 607.612 1339.92 596.44 1341.87 619.844C1341.87 619.844 1376.6 607.869 1374.21 634.42C1374.21 634.42 1382.54 632.504 1389.45 639.57C1396.36 646.636 1387.65 659.193 1385.21 662.426V662.46Z" fill="#9C563B"/>
<path d="M1385.21 662.461C1385.21 662.461 1356.45 708.67 1336.96 685.06C1336.96 685.06 1326.11 698.508 1315.32 694.641C1304.52 690.775 1305.35 684.256 1305.35 684.256C1305.35 684.256 1293.37 696.027 1282.76 690.758C1272.17 685.505 1274.77 670.125 1274.77 670.125C1274.77 670.125 1256.98 679.86 1254.16 662.478C1251.32 645.096 1263.88 633.24 1270.75 624.566" stroke="#191333" stroke-width="1.28311" stroke-linecap="round" stroke-linejoin="round"/>
<path d="M1336.96 685.06L1367.77 641.4" stroke="#191333" stroke-width="1.28311" stroke-linecap="round" stroke-linejoin="round"/>
<path d="M1305.35 684.273L1337.89 632.641" stroke="#191333" stroke-width="1.28311" stroke-linecap="round" stroke-linejoin="round"/>
<path d="M1274.77 670.141L1310.15 622.513" stroke="#191333" stroke-width="1.28311" stroke-linecap="round" stroke-linejoin="round"/>
</g>
<defs>
<clipPath id="clip0_863_1286">
<rect width="1440" height="872" fill="white"/>
</clipPath>
</defs>
</svg>
