<svg width="588" height="603" viewBox="0 0 588 603" fill="none" xmlns="http://www.w3.org/2000/svg">
<path d="M63.4052 519.331C150.738 496.987 227.254 452.4 304.013 401.473C296.206 395.832 291.554 392.218 286.664 388.956C182.85 319.942 156.369 163.411 225.913 58.6697C265.123 -0.390233 329.39 -15.5145 391.295 18.9491C440.338 46.2466 465.865 89.7261 473.577 143.98C485.413 227.322 457.362 298.61 405.149 362.085C399.173 369.336 393.027 376.434 384.086 387.021C396.119 388.825 404.875 390.614 413.729 391.385C471.638 396.426 527.303 385.082 581.559 366.407C643.575 345.041 699.192 312.512 746.042 266.142C785.049 227.53 814.428 183.721 817.291 126.57C817.831 115.804 821.819 107.649 833.571 107.088C846.074 106.511 850.443 116.282 850.249 125.946C849.95 141.333 848.752 157.087 844.98 171.927C831.776 223.779 802.378 266.319 763.403 301.764C670.708 386.062 560.648 427.965 435.83 430.315C411.939 430.766 387.781 426.002 364.025 421.929C352.33 419.914 343.429 420.062 332.904 427.441C260.448 478.11 183.93 521.323 99.5464 549.26C98.2078 549.695 97.3188 551.489 93.2451 555.797C123.305 559.59 150.912 563.025 178.542 566.535C186.237 567.523 194.095 567.967 201.486 570.026C209.608 572.297 216.475 578.547 213.14 587.061C210.802 593.033 203.813 598.777 197.588 601.138C191.65 603.387 183.998 601.391 177.117 600.861C128.956 597.116 80.7713 593.297 32.6128 589.428C0.956112 586.865 -5.93673 574.924 5.28125 544.701C26.616 487.207 47.4133 429.516 68.4418 371.935C69.9227 367.888 70.9473 363.585 73.0319 359.871C77.149 352.539 83.8284 346.618 91.9313 350.704C97.9168 353.704 104.159 360.491 105.768 366.733C107.507 373.584 105.048 382.085 102.665 389.279C92.2754 420.408 81.2793 451.328 70.4508 482.311C66.7843 492.802 63.005 503.22 59.2894 513.685C60.672 515.539 62.0893 517.399 63.4718 519.253L63.4052 519.331ZM339.131 373.724C371.66 346.843 395.977 316.107 413.791 280.145C432.148 243.061 440.919 204.049 437.621 162.586C434.573 124.213 422.011 90.2693 391.472 64.9873C339.956 22.3548 282.215 32.3698 250.893 91.2728C213.036 162.467 216.71 233.888 256.639 303.312C275.214 335.626 302.503 358.705 339.11 373.739L339.131 373.724Z" fill="#FF9ECB"/>
</svg>
