<svg width="175" height="50" viewBox="0 0 175 50" fill="none" xmlns="http://www.w3.org/2000/svg">
<path d="M38.7609 49.999H11.8925C10.8198 50.0056 9.77495 49.6642 8.91994 49.0278C8.06492 48.3914 7.44756 47.4956 7.16364 46.4792L0.159935 6.00132C-0.0263634 5.30466 -0.050245 4.57568 0.0900673 3.86869C0.23038 3.16171 0.53127 2.49495 0.970315 1.9181C1.40936 1.34125 1.97524 0.869186 2.62579 0.537083C3.27633 0.20498 3.99477 0.0214024 4.72757 2.85379e-05H31.7751C32.847 -0.00360016 33.8905 0.338915 34.7449 0.97488C35.5993 1.61085 36.2174 2.50503 36.504 3.51985L43.5077 43.9978C43.6937 44.7084 43.7116 45.4515 43.56 46.17C43.4083 46.8885 43.0912 47.5633 42.633 48.1427C42.1747 48.7221 41.5874 49.1906 40.9162 49.5124C40.245 49.8342 39.5078 50.0007 38.7609 49.999Z" fill="#30CB43"/>
<path d="M82.5919 49.9991H55.5623C54.4904 50.0027 53.4469 49.6602 52.5925 49.0242C51.7381 48.3882 51.12 47.4941 50.8334 46.4792L43.8297 6.00132C43.6619 5.29343 43.6566 4.55769 43.8144 3.84756C43.9722 3.13744 44.2891 2.47078 44.7419 1.89605C45.1948 1.32131 45.7723 0.852936 46.4325 0.524966C47.0927 0.196996 47.819 0.0176725 48.5586 2.85379e-05H75.5882C76.6601 -0.00360016 77.7036 0.338915 78.558 0.974881C79.4124 1.61085 80.0304 2.50503 80.3171 3.51985L87.3208 43.9978C87.5101 44.7072 87.5311 45.4499 87.3819 46.1686C87.2327 46.8873 86.9175 47.5626 86.4605 48.1426C86.0035 48.7225 85.417 49.1916 84.7463 49.5134C84.0755 49.8353 83.3384 50.0015 82.5919 49.9991Z" fill="#F7C906"/>
<path d="M126.351 49.9991H99.3215C98.2496 50.0027 97.2062 49.6602 96.3518 49.0243C95.4973 48.3883 94.8793 47.4941 94.5926 46.4793L87.5889 6.00138C87.3996 5.29193 87.3787 4.54921 87.5278 3.83055C87.677 3.1119 87.9922 2.43653 88.4492 1.85658C88.9062 1.27662 89.4927 0.807599 90.1635 0.485709C90.8342 0.16382 91.5713 -0.0023271 92.3178 9.36684e-05H119.365C120.438 -0.00649717 121.483 0.334895 122.338 0.97131C123.193 1.60772 123.81 2.50359 124.094 3.51991L131.098 43.9978C131.287 44.7073 131.308 45.45 131.159 46.1687C131.01 46.8873 130.695 47.5627 130.238 48.1426C129.781 48.7226 129.194 49.1916 128.523 49.5135C127.853 49.8354 127.116 50.0015 126.369 49.9991" fill="#3F82FF"/>
<path d="M170.112 49.9991H143.083C142.011 50.0027 140.967 49.6602 140.113 49.0243C139.258 48.3883 138.64 47.4941 138.354 46.4793L131.35 6.00138C131.161 5.29193 131.14 4.54921 131.289 3.83055C131.438 3.1119 131.753 2.43653 132.21 1.85658C132.667 1.27662 133.254 0.807599 133.925 0.485709C134.595 0.16382 135.332 -0.0023271 136.079 9.36684e-05H163.109C164.181 -0.00649717 165.226 0.334895 166.081 0.97131C166.936 1.60772 167.553 2.50359 167.837 3.51991L174.841 43.9978C175.03 44.7073 175.051 45.45 174.902 46.1687C174.753 46.8873 174.438 47.5627 173.981 48.1426C173.524 48.7226 172.937 49.1916 172.267 49.5135C171.596 49.8354 170.859 50.0015 170.112 49.9991Z" fill="#C93030"/>
<path d="M24.4658 37.4089C22.545 37.4089 20.763 37.108 19.1198 36.5063C17.4998 35.8814 16.0881 35.002 14.8847 33.868C13.7044 32.734 12.7787 31.4033 12.1075 29.8759C11.4364 28.3253 11.1008 26.6243 11.1008 24.7729C11.1008 22.9214 11.4364 21.232 12.1075 19.7046C12.7787 18.154 13.7044 16.8117 14.8847 15.6777C16.0881 14.5437 17.4998 13.6759 19.1198 13.0741C20.763 12.4493 22.545 12.1369 24.4658 12.1369C26.7107 12.1369 28.7125 12.5303 30.4714 13.3171C32.2534 14.104 33.7345 15.238 34.9148 16.7191L30.5408 20.6766C29.754 19.7509 28.8861 19.045 27.9372 18.559C27.0115 18.073 25.9701 17.83 24.813 17.83C23.8178 17.83 22.9037 17.992 22.0705 18.316C21.2374 18.64 20.52 19.1144 19.9182 19.7393C19.3397 20.341 18.8768 21.07 18.5297 21.9263C18.2057 22.7826 18.0437 23.7314 18.0437 24.7729C18.0437 25.8143 18.2057 26.7631 18.5297 27.6194C18.8768 28.4757 19.3397 29.2163 19.9182 29.8411C20.52 30.4429 21.2374 30.9057 22.0705 31.2297C22.9037 31.5537 23.8178 31.7157 24.813 31.7157C25.9701 31.7157 27.0115 31.4727 27.9372 30.9867C28.8861 30.5007 29.754 29.7949 30.5408 28.8691L34.9148 32.8266C33.7345 34.2846 32.2534 35.4186 30.4714 36.2286C28.7125 37.0154 26.7107 37.4089 24.4658 37.4089Z" fill="white"/>
<path d="M53.2138 36.9229L63.9405 12.6229H70.7098L81.4713 36.9229H74.3201L65.9193 15.9901H68.627L60.2261 36.9229H53.2138ZM59.0805 32.2017L60.851 27.1334H72.7233L74.4937 32.2017H59.0805Z" fill="white"/>
<path d="M108.895 37.4089C106.905 37.4089 104.984 37.1659 103.133 36.6799C101.304 36.1707 99.8117 35.5227 98.6545 34.7359L100.911 29.6676C101.999 30.3619 103.248 30.9404 104.66 31.4033C106.095 31.843 107.518 32.0629 108.93 32.0629C109.879 32.0629 110.643 31.9819 111.221 31.8199C111.8 31.6347 112.216 31.4033 112.471 31.1256C112.749 30.8247 112.887 30.4776 112.887 30.0841C112.887 29.5287 112.633 29.089 112.124 28.765C111.615 28.441 110.955 28.1749 110.145 27.9666C109.335 27.7583 108.432 27.55 107.437 27.3417C106.465 27.1334 105.482 26.8673 104.487 26.5433C103.515 26.2193 102.624 25.8027 101.814 25.2936C101.004 24.7613 100.344 24.0786 99.8348 23.2454C99.3257 22.3891 99.0711 21.313 99.0711 20.017C99.0711 18.559 99.4645 17.2399 100.251 16.0596C101.061 14.8793 102.265 13.9304 103.862 13.213C105.459 12.4956 107.449 12.1369 109.833 12.1369C111.429 12.1369 112.992 12.322 114.519 12.6923C116.07 13.0394 117.447 13.5601 118.65 14.2544L116.532 19.3574C115.375 18.7326 114.23 18.2697 113.096 17.9689C111.962 17.6449 110.862 17.4829 109.798 17.4829C108.849 17.4829 108.085 17.587 107.507 17.7953C106.928 17.9804 106.512 18.235 106.257 18.559C106.002 18.883 105.875 19.2533 105.875 19.6699C105.875 20.2021 106.118 20.6303 106.604 20.9543C107.113 21.2551 107.773 21.5097 108.583 21.718C109.416 21.9031 110.319 22.0999 111.291 22.3081C112.286 22.5164 113.269 22.7826 114.241 23.1066C115.236 23.4074 116.139 23.824 116.949 24.3563C117.759 24.8654 118.407 25.5481 118.893 26.4044C119.402 27.2376 119.657 28.2906 119.657 29.5634C119.657 30.9751 119.252 32.2827 118.442 33.4861C117.655 34.6664 116.463 35.6153 114.866 36.3327C113.292 37.0501 111.302 37.4089 108.895 37.4089Z" fill="white"/>
<path d="M148.84 36.9229V18.073H141.376V12.6229H163.142V18.073H155.713V36.9229H148.84Z" fill="white"/>
</svg>
