<svg width="313" height="52" viewBox="0 0 313 52" fill="none" xmlns="http://www.w3.org/2000/svg">
<path d="M47.5244 12.995C47.3966 12.7938 47.2283 12.6213 47.0303 12.4885C46.8323 12.3556 46.6088 12.2653 46.374 12.2232C46.1392 12.1812 45.8982 12.1883 45.6663 12.2441C45.4344 12.3 45.2167 12.4033 45.0269 12.5477L42.4777 14.2683C42.1323 14.5024 41.8933 14.8633 41.8126 15.2724C41.732 15.6816 41.8163 16.106 42.0471 16.4535C43.9934 19.4194 44.9926 22.9056 44.9126 26.4511C44.8327 29.9965 43.6773 33.4342 41.5993 36.3095L32.9872 28.2742C33.278 27.4981 33.4296 26.6768 33.4351 25.8481C33.3045 23.9017 32.4384 22.0775 31.0121 20.7449C29.5858 19.4124 27.706 18.6711 25.7531 18.6711C23.8003 18.6711 21.9204 19.4124 20.4941 20.7449C19.0678 22.0775 18.2017 23.9017 18.0712 25.8481C18.0862 26.6991 18.2615 27.5397 18.5879 28.3258L9.97586 36.4988C7.78004 33.5309 6.58077 29.945 6.54983 26.2546C6.51889 22.5642 7.65786 18.9587 9.80362 15.9545L10.217 15.4211C10.3487 15.2468 10.4428 15.0471 10.4935 14.8346C10.5442 14.6221 10.5503 14.4015 10.5115 14.1865C10.4727 13.9716 10.3897 13.767 10.2679 13.5856C10.1461 13.4043 9.98801 13.2501 9.80362 13.1327L7.23723 11.412C7.05419 11.2783 6.8465 11.1819 6.62609 11.1285C6.40568 11.0751 6.17688 11.0658 5.95283 11.1009C5.72878 11.1361 5.51389 11.2151 5.3205 11.3335C5.1271 11.4518 4.959 11.6072 4.82586 11.7906L4.39526 12.3584C1.29717 16.6849 -0.241369 21.9327 0.0307874 27.2452C0.302944 32.5577 2.36972 37.6212 5.89375 41.6091L6.06599 41.8156L8.25345 44.1556C8.78967 44.4984 9.4303 44.6398 10.0612 44.5548C10.6921 44.4697 11.2722 44.1636 11.6983 43.691L23.1523 32.7651C23.9691 33.0357 24.8237 33.1751 25.6842 33.178C26.552 33.1779 27.4137 33.0325 28.2334 32.7478L40.4108 44.0524C40.8089 44.4212 41.3319 44.6262 41.8749 44.6262C42.4178 44.6262 42.9408 44.4212 43.3389 44.0524L43.9762 43.433C48.6179 39.0059 51.3228 32.9276 51.5031 26.5192C51.601 21.7096 50.2116 16.9869 47.5244 12.995Z" fill="black"/>
<path opacity="0.4" d="M12.2504 8.67728C11.9307 8.35263 11.6879 7.96048 11.54 7.52971C11.392 7.09893 11.3427 6.64049 11.3956 6.18814C11.4485 5.73579 11.6022 5.30104 11.8456 4.91591C12.0889 4.53078 12.4156 4.20507 12.8016 3.96276C16.6184 1.1927 21.2654 -0.196926 25.978 0.0225188C30.6896 -0.188689 35.334 1.20014 39.1544 3.96276C39.5417 4.20362 39.8699 4.52822 40.1148 4.91264C40.3598 5.29706 40.5153 5.73149 40.5698 6.18392C40.6244 6.63635 40.5766 7.09524 40.43 7.52677C40.2834 7.9583 40.0418 8.35146 39.7228 8.67728C39.1655 9.23937 38.4313 9.59245 37.6439 9.67706C36.8564 9.76168 36.0638 9.57267 35.3996 9.14185C32.7006 7.09918 29.3575 6.0918 25.978 6.30282C22.5978 6.08559 19.2526 7.09362 16.5564 9.14185C15.8938 9.56821 15.1048 9.75468 14.3212 9.67013C13.5376 9.58559 12.8067 9.23515 12.2504 8.67728Z" fill="black"/>
<path opacity="0.4" d="M25.976 51.9512C23.1551 52.1226 20.3302 51.6884 17.6913 50.6779C17.2623 50.5256 16.8724 50.2803 16.5496 49.9596C16.2268 49.6389 15.9791 49.2507 15.8243 48.823C15.6695 48.3953 15.6115 47.9387 15.6543 47.4859C15.6972 47.0331 15.8399 46.5955 16.0722 46.2043C16.4946 45.5455 17.1292 45.0501 17.8712 44.7999C18.6133 44.5497 19.4186 44.5595 20.1543 44.8278C22.0027 45.5579 23.9962 45.8466 25.976 45.6709C27.8702 45.8736 29.7852 45.6138 31.5566 44.9138C32.2923 44.6455 33.0976 44.6357 33.8397 44.8859C34.5818 45.1361 35.2163 45.6315 35.6387 46.2903C35.8707 46.6826 36.0127 47.1214 36.0544 47.575C36.0961 48.0287 36.0366 48.486 35.8801 48.9139C35.7236 49.3418 35.474 49.7297 35.1493 50.0496C34.8246 50.3695 34.4329 50.6135 34.0025 50.764C31.4473 51.746 28.7064 52.1514 25.976 51.9512Z" fill="black"/>
<path d="M59.9668 47.746V8.71296H77.717C81.6142 8.62792 85.4768 9.4593 88.9931 11.14C92.1056 12.6505 94.7339 14.9992 96.582 17.9215C98.4558 21.0278 99.4028 24.6039 99.3117 28.2295C99.3969 31.8498 98.4502 35.4197 96.582 38.5231C94.7359 41.4507 92.1074 43.8046 88.9931 45.3189C85.4964 46.9975 81.6528 47.829 77.7742 47.746H59.9668ZM68.9848 40.3077H77.2454C79.5901 40.3822 81.9183 39.8926 84.0339 38.88C85.9161 37.9255 87.4728 36.435 88.5072 34.597C89.6116 32.6442 90.1649 30.4287 90.1079 28.1866C90.1708 25.9348 89.6174 23.7086 88.5072 21.7478C87.4559 19.9529 85.9074 18.5001 84.0482 17.5646C81.9326 16.5521 79.6044 16.0624 77.2597 16.1369H68.9848V40.3077Z" fill="black" stroke="black" stroke-width="0.18622" stroke-miterlimit="10"/>
<path d="M102.028 47.7422V17.7608H110.346V26.2412L109.174 23.7856C110.008 21.734 111.521 20.0305 113.462 18.96C115.665 17.8141 118.124 17.2489 120.607 17.3182V25.3418L119.593 25.2561H118.65C116.552 25.1784 114.505 25.9094 112.933 27.2977C112.142 28.1388 111.538 29.1365 111.159 30.2261C110.78 31.3158 110.634 32.4729 110.732 33.6224V47.7851L102.028 47.7422Z" fill="black" stroke="black" stroke-width="0.18622" stroke-miterlimit="10"/>
<path d="M127.681 13.5652C126.244 13.6154 124.844 13.1032 123.779 12.1375C123.301 11.6976 122.92 11.1634 122.658 10.5688C122.397 9.97408 122.263 9.3318 122.263 8.68247C122.263 8.03313 122.397 7.39085 122.658 6.79618C122.92 6.2015 123.301 5.66735 123.779 5.22746C124.844 4.26177 126.244 3.74949 127.681 3.79977C129.103 3.74156 130.498 4.20919 131.597 5.11324C132.069 5.53454 132.443 6.05519 132.69 6.63777C132.937 7.22035 133.052 7.85039 133.026 8.48259C133.054 9.14887 132.941 9.81351 132.695 10.4333C132.448 11.0532 132.074 11.6143 131.597 12.0804C131.075 12.5751 130.461 12.9613 129.788 13.2162C129.116 13.4711 128.4 13.5897 127.681 13.5652ZM123.393 47.744V17.7626H132.097V47.744H123.393Z" fill="black" stroke="black" stroke-width="0.18622" stroke-miterlimit="10"/>
<path d="M134.797 47.7428V17.7613H143.643V43.5597H138.713L161.308 17.7471H170.183L143.643 47.7285L134.797 47.7428Z" fill="black" stroke="black" stroke-width="0.18622" stroke-miterlimit="10"/>
<path d="M183.318 48.2002C180.193 48.2676 177.099 47.5769 174.3 46.1871C171.801 44.9578 169.707 43.0392 168.266 40.6583C166.825 38.2775 166.097 35.534 166.168 32.7526C166.117 29.9424 166.839 27.1721 168.254 24.7433C169.634 22.4411 171.609 20.5523 173.971 19.2752C176.495 17.9365 179.317 17.2586 182.174 17.305C184.942 17.2594 187.678 17.9022 190.135 19.1753C192.487 20.4116 194.436 22.294 195.752 24.6005C197.184 27.1363 197.9 30.0132 197.824 32.9239C197.824 33.2666 197.824 33.652 197.824 34.0803C197.824 34.5086 197.752 34.9084 197.709 35.2796H173.314V30.1256H193.136L189.778 31.639C189.813 30.2202 189.489 28.8155 188.834 27.5558C188.213 26.4298 187.293 25.4963 186.176 24.8575C184.988 24.1866 183.639 23.8511 182.275 23.8866C180.901 23.853 179.544 24.1883 178.344 24.8575C177.216 25.4943 176.293 26.4405 175.686 27.5844C175.03 28.8692 174.706 30.2972 174.743 31.7389V33.081C174.716 34.5799 175.091 36.0588 175.829 37.364C176.544 38.6016 177.614 39.5963 178.902 40.2194C180.358 40.9013 181.953 41.2337 183.561 41.1902C184.998 41.2159 186.428 40.9738 187.777 40.4764C189.014 39.9703 190.14 39.2283 191.092 38.292L195.723 43.3175C194.284 44.9279 192.481 46.1713 190.464 46.9438C188.182 47.808 185.758 48.2342 183.318 48.2002Z" fill="black" stroke="black" stroke-width="0.18622" stroke-miterlimit="10"/>
<path d="M200.541 47.745V17.3066H209.388V43.2906H203.557L227.081 17.3066H235.927V43.2906H229.553L253.62 17.3066H262.467L235.927 47.745H227.081V26.0298H230.025L209.388 47.745H200.541Z" fill="black" stroke="black" stroke-width="0.18622" stroke-miterlimit="10"/>
<path d="M275.157 48.2002C272.056 48.2561 268.987 47.5656 266.21 46.1871C263.739 44.9498 261.665 43.0457 260.222 40.6905C258.784 38.2953 258.046 35.5454 258.093 32.7526C258.039 29.9403 258.766 27.1681 260.193 24.7433C261.568 22.4366 263.544 20.5465 265.91 19.2752C268.434 17.9365 271.256 17.2586 274.114 17.305C276.881 17.2594 279.617 17.9022 282.074 19.1753C284.41 20.4182 286.343 22.3 287.648 24.6005C289.087 27.1336 289.804 30.0124 289.72 32.9239C289.739 33.3091 289.739 33.6951 289.72 34.0803C289.72 34.4944 289.72 34.9084 289.606 35.2796H265.11V30.1256H284.932L281.574 31.639C281.609 30.2202 281.285 28.8155 280.63 27.5558C280.021 26.4305 279.111 25.4964 278.001 24.8575C276.812 24.1866 275.464 23.8511 274.099 23.8866C272.726 23.853 271.368 24.1883 270.169 24.8575C269.041 25.4943 268.118 26.4405 267.511 27.5844C266.855 28.8692 266.531 30.2972 266.568 31.7389V33.081C266.54 34.5799 266.915 36.0588 267.654 37.364C268.369 38.6016 269.439 39.5963 270.726 40.2194C272.182 40.9013 273.778 41.2337 275.385 41.1902C276.847 41.2249 278.302 40.9826 279.673 40.4764C280.91 39.9703 282.036 39.2283 282.989 38.292L287.619 43.3175C286.198 44.9083 284.42 46.141 282.431 46.9153C280.111 47.8052 277.642 48.2414 275.157 48.2002Z" fill="black" stroke="black" stroke-width="0.18622" stroke-miterlimit="10"/>
<path d="M292.393 47.7436V3.85645H301.096V47.7436H292.393Z" fill="black" stroke="black" stroke-width="0.18622" stroke-miterlimit="10"/>
<path d="M303.91 47.7436V3.85645H312.628V47.7436H303.91Z" fill="black" stroke="black" stroke-width="0.18622" stroke-miterlimit="10"/>
</svg>
