<svg width="254" height="56" viewBox="0 0 254 56" fill="none" xmlns="http://www.w3.org/2000/svg">
<g clip-path="url(#clip0_863_2881)">
<path d="M35.4422 18.1782C35.3469 18.0261 35.2215 17.8958 35.0738 17.7955C34.9261 17.6951 34.7594 17.6269 34.5843 17.5951C34.4092 17.5633 34.2295 17.5687 34.0566 17.6109C33.8836 17.6531 33.7212 17.7312 33.5797 17.8402L31.6786 19.1401C31.421 19.317 31.2427 19.5896 31.1826 19.8987C31.1225 20.2078 31.1853 20.5285 31.3575 20.791C32.8089 23.0316 33.5541 25.6654 33.4945 28.3439C33.4349 31.0225 32.5732 33.6196 31.0235 35.7918L24.6009 29.7213C24.8177 29.1349 24.9308 28.5145 24.9349 27.8884C24.8375 26.4179 24.1916 25.0398 23.1279 24.0331C22.0642 23.0264 20.6623 22.4663 19.2059 22.4663C17.7495 22.4663 16.3476 23.0264 15.2839 24.0331C14.2202 25.0398 13.5743 26.4179 13.4769 27.8884C13.4881 28.5313 13.6189 29.1663 13.8623 29.7603L7.43969 35.9348C5.80212 33.6927 4.90774 30.9835 4.88467 28.1955C4.86159 25.4075 5.711 22.6836 7.31124 20.414L7.61953 20.011C7.71774 19.8793 7.78795 19.7284 7.82575 19.5679C7.86355 19.4074 7.86811 19.2407 7.83915 19.0783C7.8102 18.9159 7.74835 18.7614 7.6575 18.6244C7.56664 18.4873 7.44875 18.3708 7.31124 18.2821L5.39731 16.9822C5.2608 16.8812 5.10592 16.8084 4.94154 16.7681C4.77716 16.7277 4.60653 16.7206 4.43944 16.7472C4.27235 16.7738 4.1121 16.8335 3.96787 16.9229C3.82364 17.0123 3.69828 17.1297 3.59898 17.2682L3.27785 17.6972C0.967388 20.9658 -0.180006 24.9304 0.0229603 28.9439C0.225927 32.9574 1.76726 36.7827 4.39538 39.7955L4.52383 39.9515L6.15517 41.7194C6.55507 41.9784 7.03284 42.0852 7.50333 42.0209C7.97383 41.9567 8.40649 41.7254 8.72421 41.3684L17.2663 33.114C17.8754 33.3185 18.5128 33.4238 19.1545 33.426C19.8017 33.4259 20.4443 33.3161 21.0556 33.101L30.1372 41.6414C30.4341 41.9201 30.8241 42.0749 31.229 42.0749C31.6339 42.0749 32.0239 41.9201 32.3208 41.6414L32.7961 41.1734C36.2578 37.8289 38.275 33.2368 38.4095 28.3954C38.4825 24.7618 37.4463 21.1939 35.4422 18.1782Z" fill="#FAFAFA"/>
<path opacity="0.4" d="M9.13492 14.9129C8.89648 14.6677 8.71543 14.3714 8.6051 14.046C8.49477 13.7205 8.45797 13.3742 8.4974 13.0324C8.53684 12.6907 8.65152 12.3623 8.83298 12.0713C9.01445 11.7803 9.25809 11.5343 9.54596 11.3512C12.3924 9.25849 15.858 8.20865 19.3725 8.37443C22.8863 8.21487 26.3499 9.26411 29.1991 11.3512C29.4879 11.5332 29.7327 11.7784 29.9154 12.0688C30.098 12.3593 30.214 12.6875 30.2547 13.0293C30.2954 13.3711 30.2597 13.7177 30.1504 14.0438C30.0411 14.3698 29.8609 14.6668 29.623 14.9129C29.2074 15.3376 28.6598 15.6043 28.0726 15.6683C27.4853 15.7322 26.8943 15.5894 26.3989 15.2639C24.3861 13.7207 21.8929 12.9597 19.3725 13.1191C16.8517 12.955 14.3569 13.7165 12.3462 15.2639C11.852 15.586 11.2637 15.7269 10.6792 15.663C10.0948 15.5992 9.54974 15.3344 9.13492 14.9129Z" fill="#FAFAFA"/>
<path opacity="0.4" d="M19.3726 47.6057C17.2689 47.7351 15.1621 47.4071 13.1941 46.6437C12.8742 46.5287 12.5834 46.3433 12.3427 46.101C12.1019 45.8587 11.9172 45.5655 11.8018 45.2424C11.6863 44.9192 11.643 44.5743 11.675 44.2322C11.707 43.8901 11.8134 43.5595 11.9866 43.264C12.3017 42.7662 12.7749 42.392 13.3283 42.203C13.8817 42.0139 14.4823 42.0214 15.031 42.2241C16.4094 42.7756 17.8961 42.9937 19.3726 42.861C20.7852 43.0142 22.2134 42.8179 23.5345 42.289C24.0831 42.0863 24.6837 42.0789 25.2371 42.268C25.7905 42.457 26.2638 42.8312 26.5788 43.329C26.7518 43.6253 26.8576 43.9568 26.8888 44.2995C26.9199 44.6423 26.8755 44.9877 26.7588 45.311C26.642 45.6343 26.4559 45.9273 26.2138 46.169C25.9716 46.4107 25.6795 46.595 25.3585 46.7087C23.4529 47.4506 21.4089 47.7569 19.3726 47.6057Z" fill="#FAFAFA"/>
<path d="M55.8735 45.0963V14.4041H69.7347C72.778 14.3372 75.7943 14.9909 78.5402 16.3125C80.9706 17.5002 83.0231 19.347 84.4663 21.6449C85.9295 24.0874 86.6691 26.8994 86.5979 29.7502C86.6644 32.5969 85.9252 35.404 84.4663 37.8442C83.0247 40.1463 80.9721 41.9971 78.5402 43.1879C75.8096 44.5078 72.8081 45.1616 69.7793 45.0963H55.8735ZM62.9157 39.2475H69.3664C71.1973 39.3061 73.0155 38.9211 74.6675 38.1249C76.1373 37.3743 77.3529 36.2024 78.1607 34.7571C79.0231 33.2216 79.4551 31.4795 79.4107 29.7165C79.4598 27.9459 79.0276 26.1953 78.1607 24.6535C77.3398 23.2422 76.1305 22.0999 74.6787 21.3643C73.0266 20.5681 71.2085 20.1831 69.3775 20.2417H62.9157V39.2475Z" fill="white"/>
<path d="M88.7177 45.0992V21.5243H95.213V28.1927L94.2978 26.2618C94.9488 24.6485 96.1307 23.3091 97.6459 22.4673C99.3664 21.5663 101.287 21.1219 103.226 21.1763V27.4854L102.434 27.4181H101.697C100.059 27.3569 98.461 27.9317 97.233 29.0234C96.6157 29.6847 96.1437 30.4693 95.8476 31.3261C95.5515 32.1829 95.438 33.0928 95.5143 33.9966V45.1329L88.7177 45.0992Z" fill="white"/>
<path d="M108.752 18.2216C107.63 18.2611 106.536 17.8583 105.705 17.0989C105.332 16.753 105.034 16.333 104.83 15.8654C104.626 15.3978 104.521 14.8928 104.521 14.3822C104.521 13.8716 104.626 13.3666 104.83 12.899C105.034 12.4314 105.332 12.0114 105.705 11.6655C106.536 10.9061 107.63 10.5033 108.752 10.5429C109.863 10.4971 110.951 10.8648 111.81 11.5757C112.179 11.9069 112.47 12.3163 112.663 12.7744C112.856 13.2325 112.946 13.7279 112.926 14.225C112.947 14.749 112.859 15.2716 112.667 15.759C112.475 16.2463 112.183 16.6876 111.81 17.054C111.403 17.4431 110.923 17.7467 110.398 17.9471C109.872 18.1476 109.313 18.2409 108.752 18.2216ZM105.404 45.0969V21.522H112.2V45.0969H105.404Z" fill="white"/>
<path d="M114.309 45.0959V21.521H121.217V41.8066H117.367L135.011 21.5098H141.942L121.217 45.0847L114.309 45.0959Z" fill="white"/>
<path d="M152.198 45.4573C149.758 45.5103 147.342 44.9671 145.156 43.8744C143.205 42.9077 141.57 41.3991 140.445 39.527C139.319 37.6549 138.751 35.4976 138.806 33.3106C138.766 31.1009 139.33 28.9225 140.435 27.0127C141.513 25.2024 143.055 23.7173 144.9 22.7131C146.87 21.6604 149.074 21.1274 151.306 21.1639C153.467 21.1281 155.603 21.6334 157.522 22.6345C159.358 23.6067 160.88 25.0868 161.908 26.9004C163.027 28.8944 163.586 31.1565 163.526 33.4453C163.526 33.7147 163.526 34.0178 163.526 34.3546C163.526 34.6914 163.47 35.0057 163.437 35.2976H144.386V31.245H159.866L157.243 32.4349C157.271 31.3193 157.017 30.2148 156.506 29.2243C156.021 28.3389 155.303 27.6049 154.431 27.1025C153.502 26.575 152.449 26.3112 151.384 26.3391C150.311 26.3127 149.251 26.5763 148.315 27.1025C147.433 27.6033 146.713 28.3473 146.239 29.2467C145.727 30.257 145.474 31.3799 145.502 32.5135V33.5688C145.481 34.7474 145.774 35.9103 146.35 36.9366C146.909 37.9097 147.745 38.6919 148.75 39.1818C149.887 39.718 151.133 39.9794 152.388 39.9452C153.511 39.9654 154.627 39.775 155.68 39.3839C156.646 38.9859 157.526 38.4025 158.27 37.6663L161.886 41.6179C160.762 42.8842 159.354 43.8619 157.779 44.4694C155.997 45.1488 154.104 45.484 152.198 45.4573Z" fill="white"/>
<path d="M165.646 45.0962V21.1621H172.554V41.5937H168.001L186.371 21.1621H193.279V41.5937H188.302L207.096 21.1621H214.004L193.279 45.0962H186.371V28.0213H188.67L172.554 45.0962H165.646Z" fill="white"/>
<path d="M223.915 45.4573C221.494 45.5012 219.097 44.9583 216.928 43.8744C214.999 42.9014 213.379 41.4042 212.252 39.5523C211.129 37.6689 210.553 35.5066 210.589 33.3106C210.548 31.0992 211.116 28.9194 212.23 27.0127C213.303 25.1989 214.846 23.7127 216.694 22.7131C218.665 21.6604 220.869 21.1274 223.1 21.1639C225.261 21.1281 227.398 21.6334 229.316 22.6345C231.141 23.6118 232.65 25.0915 233.669 26.9004C234.793 28.8923 235.353 31.1559 235.287 33.4453C235.302 33.7482 235.302 34.0517 235.287 34.3546C235.287 34.6802 235.287 35.0057 235.198 35.2976H216.069V31.245H231.549L228.926 32.4349C228.954 31.3193 228.7 30.2148 228.189 29.2243C227.713 28.3394 227.002 27.6049 226.136 27.1025C225.208 26.575 224.155 26.3112 223.089 26.3391C222.016 26.3127 220.957 26.5763 220.02 27.1025C219.139 27.6033 218.418 28.3473 217.944 29.2467C217.432 30.257 217.179 31.3799 217.207 32.5135V33.5688C217.186 34.7474 217.479 35.9103 218.056 36.9366C218.614 37.9097 219.45 38.6919 220.455 39.1818C221.592 39.718 222.838 39.9794 224.093 39.9452C225.235 39.9724 226.371 39.782 227.441 39.3839C228.407 38.9859 229.287 38.4025 230.031 37.6663L233.647 41.6179C232.537 42.8688 231.149 43.8381 229.595 44.4469C227.784 45.1467 225.855 45.4897 223.915 45.4573Z" fill="white"/>
<path d="M237.374 45.099V10.5898H244.171V45.099H237.374Z" fill="white"/>
<path d="M246.369 45.099V10.5898H253.177V45.099H246.369Z" fill="white"/>
</g>
<defs>
<clipPath id="clip0_863_2881">
<rect width="253.177" height="55" fill="white" transform="translate(0 0.5)"/>
</clipPath>
</defs>
</svg>
