<svg width="288" height="76" viewBox="0 0 288 76" fill="none" xmlns="http://www.w3.org/2000/svg">
<rect width="287.214" height="76" rx="8" fill="white"/>
<g clip-path="url(#clip0_2040_1050)">
<path d="M42.3121 16.0254C30.0914 15.4485 20.001 25.1846 20.001 37.2775V58.0724C20.001 58.9788 20.7385 59.7163 21.645 59.7163H26.6799C27.3886 59.7163 28.019 59.2631 28.2414 58.5874L33.9933 41.1959L26.4739 35.7324C25.1307 34.7559 25.8229 32.6299 27.4833 32.6299H36.7786L39.6504 23.792C40.1654 22.2139 42.3986 22.2139 42.9136 23.792L45.7854 32.6299H55.0807C56.7411 32.6299 57.4333 34.7559 56.0901 35.7324L48.5707 41.1959L51.4425 50.0338C51.9575 51.6118 50.1487 52.9262 48.8055 51.9497L41.2902 46.4863L37.4172 58.2001C39.4361 58.575 46.2139 59.5474 53.0329 55.0193C53.0453 55.0193 53.0535 55.011 53.0617 54.9987C59.0567 51.0144 62.9091 44.0759 62.5465 36.264C62.0315 25.3783 53.206 16.5404 42.3121 16.0254Z" fill="black"/>
<path d="M95.5582 27.3272C93.8277 26.3384 91.8624 25.8398 89.658 25.8398C86.3536 25.8398 83.729 27.1295 81.776 29.7087L81.1621 26.1241H76.7246V59.7205H81.8213V46.886C82.6083 48.0191 83.6631 48.9132 84.9816 49.5765C86.3042 50.2358 87.8575 50.5654 89.6539 50.5654C91.8541 50.5654 93.8236 50.0545 95.5541 49.0327C97.2846 48.0108 98.636 46.5646 99.6125 44.6899C100.589 42.8193 101.075 40.6562 101.075 38.2006C101.075 35.7449 100.589 33.4911 99.6125 31.6164C98.636 29.7458 97.2846 28.312 95.5541 27.3231L95.5582 27.3272ZM93.9307 44.006C92.6246 45.514 90.9188 46.2721 88.8093 46.2721C86.6997 46.2721 85.0022 45.5181 83.7125 44.006C82.4229 42.498 81.776 40.5285 81.776 38.1099C81.776 35.6913 82.4229 33.8413 83.7125 32.3787C85.0022 30.916 86.6997 30.1826 88.8093 30.1826C90.9188 30.1826 92.6246 30.9201 93.9307 32.3993C95.2368 33.8784 95.8878 35.8108 95.8878 38.2047C95.8878 40.5985 95.2368 42.498 93.9307 44.0101V44.006Z" fill="black"/>
<path d="M123.963 44.1461V34.6159C123.963 31.7853 123.081 29.614 121.321 28.106C119.562 26.598 117.057 25.8398 113.819 25.8398C110.765 25.8398 108.297 26.5073 106.41 27.8464C104.523 29.1855 103.452 31.0643 103.201 33.487H108.203C108.392 32.4157 108.965 31.5587 109.925 30.916C110.885 30.2732 112.104 29.9477 113.58 29.9477C115.248 29.9477 116.55 30.335 117.498 31.1055C118.441 31.876 118.915 32.939 118.915 34.2904V35.7531H112.83C109.463 35.7531 106.901 36.4206 105.137 37.7597C103.374 39.0988 102.496 41.0064 102.496 43.4951C102.496 45.6953 103.316 47.4258 104.952 48.6866C106.587 49.9432 108.759 50.5736 111.462 50.5736C114.952 50.5736 117.613 49.1892 119.434 46.4204C119.434 47.6771 119.78 48.6371 120.473 49.3005C121.165 49.9597 122.298 50.2893 123.872 50.2893H126.562V45.8518H125.574C124.502 45.8518 123.971 45.2874 123.971 44.1543L123.963 44.1461ZM118.915 40.3719C118.882 42.259 118.277 43.7711 117.098 44.9001C115.92 46.0331 114.276 46.5976 112.166 46.5976C110.782 46.5976 109.69 46.2845 108.887 45.6541C108.083 45.0237 107.683 44.1914 107.683 43.1531C107.683 41.9582 108.108 41.0518 108.957 40.442C109.805 39.828 111.017 39.5231 112.591 39.5231H118.915V40.3719Z" fill="black"/>
<path d="M137.044 27.0884C135.944 27.7352 135.046 28.6211 134.353 29.7542L133.789 26.1201H129.261V50.2812H134.357V38.1553C134.357 36.0458 134.831 34.3111 135.775 32.9432C136.718 31.5753 138.243 30.8914 140.352 30.8914H142.619V26.1242H141.485C139.631 26.1242 138.152 26.4456 137.048 27.0925L137.044 27.0884Z" fill="black"/>
<path d="M150.787 45.2079C150.408 44.8165 150.223 44.1449 150.223 43.2013V30.6017H156.073V26.1188H150.223V19.374H145.126V43.7205C145.126 45.9537 145.645 47.6059 146.683 48.673C147.722 49.7402 149.386 50.2758 151.685 50.2758H156.593V45.793H152.724C151.809 45.793 151.166 45.5952 150.787 45.2038V45.2079Z" fill="black"/>
<path d="M175.383 38.1059C175.383 40.5615 174.839 42.4775 173.756 43.8619C172.672 45.2463 171.168 45.9385 169.248 45.9385C167.328 45.9385 165.993 45.3575 165.05 44.1915C164.106 43.0296 163.632 41.2991 163.632 39V26.1201H158.49V39.5191C158.49 43.3262 159.38 46.0868 161.156 47.8008C162.936 49.5148 165.256 50.3718 168.115 50.3718C169.845 50.3718 171.283 50.0422 172.433 49.383C173.583 48.7237 174.58 47.7926 175.428 46.5977V49.8527C175.428 51.7727 174.901 53.2519 173.846 54.2902C172.791 55.3285 171.321 55.8476 169.433 55.8476C166.195 55.8476 164.258 54.5085 163.628 51.8386H158.437C158.655 54.4797 159.701 56.5027 161.576 57.9036C163.447 59.3045 165.927 60.0049 169.009 60.0049C172.878 60.0049 175.758 59.0861 177.645 57.2444C179.532 55.4026 180.476 52.9429 180.476 49.8609V26.1201H175.379V38.1059H175.383Z" fill="black"/>
<path d="M194.834 44.8095L188.18 26.1201H182.708L191.624 50.2812H197.854L206.77 26.1201H201.393L194.834 44.8095Z" fill="black"/>
<path d="M224.772 27.2562C222.992 26.3127 220.94 25.8389 218.612 25.8389C216.284 25.8389 214.278 26.3498 212.502 27.3716C210.722 28.3934 209.342 29.8396 208.349 31.7143C207.36 33.5849 206.861 35.7645 206.861 38.249C206.861 40.7335 207.372 42.8554 208.394 44.7137C209.416 46.5678 210.862 48.0099 212.737 49.0317C214.607 50.0535 216.803 50.5644 219.321 50.5644C222.213 50.5644 224.628 49.7774 226.564 48.2035C228.497 46.6296 229.687 44.6189 230.124 42.1632H225.027C224.681 43.5147 223.973 44.5612 222.906 45.2987C221.838 46.0363 220.516 46.4071 218.942 46.4071C216.96 46.4071 215.37 45.7932 214.175 44.5653C212.98 43.3375 212.321 41.6729 212.193 39.5634V39.2791H230.404C230.499 38.6198 230.544 37.973 230.544 37.3426C230.516 35.0146 229.988 32.9875 228.962 31.257C227.936 29.5265 226.54 28.1915 224.764 27.248L224.772 27.2562ZM212.387 35.5626C212.576 33.8651 213.277 32.5054 214.488 31.4795C215.699 30.4577 217.137 29.9467 218.806 29.9467C220.598 29.9467 222.086 30.4412 223.264 31.4341C224.442 32.423 225.143 33.8033 225.365 35.5626H212.391H212.387Z" fill="black"/>
<path d="M248.39 36.8093C246.972 36.3519 245.23 36.0141 243.153 35.7957C241.612 35.6062 240.495 35.4414 239.803 35.3013C239.111 35.1612 238.538 34.9099 238.081 34.5473C237.624 34.1847 237.397 33.6449 237.397 32.9198C237.397 31.9433 237.854 31.1728 238.765 30.6083C239.68 30.0439 240.875 29.7596 242.35 29.7596C243.825 29.7596 245.057 30.1139 246.029 30.8226C247.005 31.5313 247.553 32.4336 247.681 33.5337H252.634C252.477 31.0822 251.447 29.1786 249.543 27.8231C247.64 26.4716 245.164 25.7959 242.111 25.7959C240.256 25.7959 238.596 26.109 237.133 26.7394C235.671 27.3698 234.521 28.2557 233.689 29.4052C232.857 30.5548 232.436 31.865 232.436 33.3442C232.436 34.9181 232.852 36.1665 233.689 37.0936C234.521 38.0206 235.621 38.6964 236.993 39.1207C238.361 39.5451 240.1 39.883 242.209 40.1343C243.75 40.3239 244.892 40.5051 245.629 40.6782C246.371 40.8512 246.96 41.1438 247.401 41.5517C247.842 41.9596 248.06 42.5735 248.06 43.3934C248.06 44.3699 247.582 45.1486 246.622 45.7296C245.662 46.3106 244.414 46.6031 242.873 46.6031C241.142 46.6031 239.733 46.2034 238.65 45.4C237.566 44.5965 236.973 43.5665 236.878 42.3098H231.971C232.033 44.8891 233.063 46.9121 235.061 48.3748C237.059 49.8375 239.676 50.5709 242.918 50.5709C244.838 50.5709 246.569 50.266 248.11 49.6521C249.651 49.0381 250.862 48.1564 251.744 47.011C252.625 45.8614 253.066 44.5347 253.066 43.0226C253.066 41.3251 252.642 39.9778 251.793 38.9889C250.944 38 249.811 37.2749 248.394 36.8175L248.39 36.8093Z" fill="black"/>
<path d="M263.347 45.7971C262.432 45.7971 261.789 45.5993 261.41 45.2079C261.031 44.8165 260.846 44.1449 260.846 43.2013V30.6017H266.696V26.1188H260.846V19.374H255.749V43.7205C255.749 45.9537 256.268 47.6059 257.306 48.673C258.345 49.7402 260.009 50.2758 262.308 50.2758H267.216V45.793H263.347V45.7971Z" fill="black"/>
</g>
<defs>
<clipPath id="clip0_2040_1050">
<rect width="247.214" height="44" fill="white" transform="translate(20 16)"/>
</clipPath>
</defs>
</svg>
