<svg width="319" height="415" viewBox="0 0 319 415" fill="none" xmlns="http://www.w3.org/2000/svg">
<g opacity="0.7">
<path d="M241.822 177.827C241.822 162.523 247.687 148.237 258.398 137.524C269.108 126.81 283.389 120.943 298.69 120.943C313.992 120.943 328.272 126.81 338.983 137.524L422.629 221.193V245.936C422.629 284.455 410.133 319.912 389.476 348.992L258.653 218.132C247.687 207.419 241.822 193.133 241.822 177.827Z" fill="#1F6460"/>
<path d="M137.523 258.93C159.709 236.737 195.922 236.737 218.108 258.93L348.933 389.79C319.861 410.707 284.413 422.952 245.906 422.952H221.169L137.523 339.283C115.337 317.09 115.337 281.122 137.523 258.93Z" fill="#1F6460"/>
<path d="M96.7232 379.841L139.821 422.951H0.0718087C-0.694082 407.391 4.66129 391.83 16.3928 380.097C38.579 357.649 74.537 357.649 96.7232 379.841Z" fill="#1F6460"/>
</g>
</svg>
