<svg width="319" height="415" viewBox="0 0 319 415" fill="none" xmlns="http://www.w3.org/2000/svg">
<g opacity="0.7">
<path d="M241.822 237.173C241.822 252.477 247.687 266.763 258.398 277.476C269.108 288.19 283.389 294.057 298.69 294.057C313.992 294.057 328.272 288.19 338.983 277.476L422.629 193.807V169.064C422.629 130.545 410.133 95.0882 389.476 66.0081L258.653 196.868C247.687 207.581 241.822 221.867 241.822 237.173Z" fill="#1F6460"/>
<path d="M137.523 156.07C159.709 178.263 195.922 178.263 218.108 156.07L348.933 25.2102C319.861 4.29286 284.413 -7.95175 245.906 -7.95175H221.169L137.523 75.7175C115.337 97.9097 115.337 133.878 137.523 156.07Z" fill="#1F6460"/>
<path d="M96.7232 35.1592L139.821 -7.95149H0.0718087C-0.694082 7.60902 4.66129 23.1695 16.3928 34.9031C38.579 57.3514 74.537 57.3514 96.7232 35.1592Z" fill="#1F6460"/>
</g>
</svg>
