<svg width="226" height="48" viewBox="0 0 226 48" fill="none" xmlns="http://www.w3.org/2000/svg">
<path fill-rule="evenodd" clip-rule="evenodd" d="M143.495 9.06416C144.668 6.53058 145.792 5.53803 148.578 4.57429C145.736 3.49372 144.665 2.51198 143.589 0C142.424 2.52518 141.308 3.51133 138.506 4.48987C141.334 5.55843 142.426 6.55938 143.495 9.06416ZM138.596 46.7258H148.631V11.1605H138.596V46.7258ZM185.212 3.09834L185.272 28.7542L185.285 35.1592C185.499 37.0042 186.932 38.4641 188.908 37.8728C189.323 37.7483 189.722 37.5843 190.097 37.3671C190.157 37.3319 190.221 37.2915 190.249 37.2275C190.329 37.0458 189.786 36.3965 189.688 36.2257C189.483 35.8705 189.291 35.5088 189.11 35.1408C188.752 34.4066 188.443 33.6481 188.191 32.8708C187.687 31.3146 187.416 29.6827 187.422 28.0461C187.438 23.9175 189.937 19.7448 194.925 15.5322C200.034 11.2196 204.602 9.4513 208.63 10.2314C212.657 11.0115 216.192 13.1358 219.792 17.3925C220.508 18.2406 221.097 19.0407 221.553 19.7969L202.02 36.2953C204.13 38.3596 206.015 39.4798 207.673 39.6638C209.839 39.9159 211.897 39.2158 213.85 37.5635C214.987 36.6034 215.8 35.6552 216.289 34.7271C216.773 33.7949 216.941 32.7868 216.785 31.6946C216.629 30.6065 216.301 29.4423 215.8 28.2021L224.28 24.3535C225.445 26.4098 225.929 28.4501 225.737 30.4825C225.549 32.5148 224.888 34.455 223.759 36.3033C222.634 38.1516 220.721 40.2159 218.022 42.4923C212.929 46.7969 208.321 48.5772 204.198 47.8371C200.498 47.173 197.011 45.0966 193.744 41.6081L193.706 41.5605C191.856 43.1107 189.825 44.6146 187.643 45.6683C185.456 46.7241 182.982 46.8353 180.604 46.5849C178.506 46.364 176.252 45.6663 175.504 43.4724C175.368 43.5884 175.215 43.7004 175.059 43.7964C171.96 45.7407 168.301 46.7129 164.073 46.7129C159.289 46.7129 155.814 45.1166 153.648 41.9242C151.486 38.7317 150.405 34.347 150.405 28.7742C150.405 23.1814 151.486 18.8047 153.648 15.6522C155.814 12.4998 159.289 11.1556 164.073 11.1556C168.301 11.1556 171.96 12.1277 175.059 14.072C175.119 14.112 175.179 14.152 175.235 14.192V3.09834H185.212ZM167.584 17.7645C165.342 17.7645 163.605 18.5047 162.376 19.9809C161.143 21.4571 160.53 24.4015 160.53 28.8022C160.53 33.2469 161.143 36.2033 162.376 37.6675C163.605 39.1358 165.342 39.8719 167.584 39.8719C169.65 39.8719 171.444 39.2078 172.973 37.8796C174.323 36.6874 175.079 35.2392 175.235 33.5349V24.0735C175.079 22.4052 174.323 20.977 172.973 19.7888C171.444 18.4406 169.65 17.7645 167.584 17.7645ZM204.85 18.3726C202.896 18.1806 200.975 18.8767 199.097 20.4649C197.247 22.0252 196.238 23.8775 196.074 26.0178C195.938 27.638 196.435 29.2623 198.12 31.6826L210.215 21.4651C208.229 19.3008 206.628 18.5327 204.85 18.3726ZM220.937 0.00188028C221.822 0.00188028 222.571 0.0978947 223.192 0.297925C223.808 0.497955 224.309 0.773996 224.685 1.12605C225.065 1.4821 225.341 1.89016 225.522 2.35823C225.698 2.8263 225.782 3.33038 225.778 3.87046V5.19466C225.778 5.73474 225.69 6.23882 225.514 6.70689C225.341 7.17496 225.065 7.58302 224.681 7.93507C224.301 8.29112 223.8 8.56717 223.188 8.7632C222.571 8.96322 221.818 9.06324 220.929 9.06324C220.217 9.06324 219.592 8.99523 219.052 8.85921C218.515 8.72319 218.055 8.53116 217.679 8.28712C217.302 8.04309 216.998 7.75904 216.762 7.43099C216.526 7.10695 216.353 6.75489 216.245 6.37484C216.137 5.99078 216.081 5.59872 216.081 5.19466L216.089 3.87046C216.089 3.4664 216.145 3.07434 216.253 2.69028C216.361 2.31023 216.53 1.95417 216.766 1.62612C216.998 1.30208 217.306 1.01403 217.683 0.773996C218.063 0.529959 218.519 0.341931 219.056 0.205911C219.592 0.0698905 220.221 0.00188028 220.937 0.00188028ZM220.937 1.09404C220.401 1.09404 219.937 1.13405 219.54 1.21406C219.144 1.29407 218.808 1.41009 218.535 1.56612C218.263 1.72614 218.043 1.91817 217.875 2.1542C217.711 2.38624 217.59 2.65428 217.514 2.95432C217.434 3.25837 217.398 3.59442 217.398 3.96247L217.39 5.13465C217.39 5.51071 217.426 5.85076 217.506 6.1508C217.582 6.45485 217.703 6.71889 217.867 6.94692C218.035 7.17496 218.255 7.36298 218.531 7.51101C218.808 7.65903 219.144 7.77105 219.54 7.84706C219.937 7.92307 220.397 7.96307 220.929 7.96307C221.47 7.96307 221.938 7.92307 222.331 7.84706C222.723 7.77105 223.059 7.65503 223.336 7.499C223.612 7.34698 223.832 7.15495 223.996 6.92692C224.164 6.69888 224.285 6.43885 224.357 6.1428C224.433 5.84676 224.469 5.51471 224.469 5.15065V3.97448C224.473 3.59842 224.437 3.25837 224.361 2.95032C224.285 2.64628 224.164 2.37824 223.996 2.1502C223.832 1.91817 223.612 1.72614 223.34 1.56612C223.067 1.41009 222.731 1.29407 222.335 1.21406C221.938 1.13405 221.474 1.09404 220.937 1.09404ZM221.578 2.41424C221.862 2.41424 222.087 2.45825 222.247 2.54626L222.19 2.52089L222.206 2.528L222.247 2.54626C222.287 2.56827 222.324 2.59252 222.358 2.61902L222.382 2.64178L222.434 2.68978L222.451 2.70529L222.469 2.72889L222.473 2.73422L222.528 2.80505L222.587 2.91832L222.594 2.93689L222.597 2.94933L222.599 2.95289L222.608 2.97956L222.643 3.08338L222.652 3.13778V3.14311L222.656 3.15911L222.661 3.18578L222.667 3.21956L222.67 3.23911L222.676 3.26533L222.676 3.27111L222.679 3.32089L222.684 3.42222L222.687 3.4624V3.92247L222.684 3.93778L222.683 3.96089V3.97333L222.677 4.03378L222.672 4.11022L222.671 4.1302L222.661 4.16533L222.651 4.21511L222.644 4.24356L222.642 4.25422L222.624 4.32816L222.547 4.51456C222.451 4.69458 222.307 4.8106 222.115 4.85461L222.142 4.93689L222.228 5.19289L222.299 5.40978L222.327 5.49511L222.331 5.50222L222.334 5.51289L222.386 5.67111L222.427 5.792L222.441 5.83467L222.468 5.91822L222.542 6.14222L222.546 6.14933L222.615 6.35733L222.619 6.36978L222.62 6.37333L222.688 6.576L222.711 6.64288H221.726L221.707 6.576L221.703 6.56L221.666 6.42133L221.653 6.37333L221.652 6.36978L221.648 6.35733L221.593 6.14933L221.591 6.14222L221.588 6.12622L221.575 6.08356L221.531 5.91822L221.509 5.83467L221.506 5.824L221.497 5.792L221.465 5.67111L221.422 5.51289L221.42 5.50222L221.419 5.49511L221.396 5.40978L221.337 5.19289L221.326 5.15022L221.323 5.13422L221.27 4.93862H220.261V6.64288H219.312V2.41424H221.578ZM221.322 3.13835H220.261V4.25452H221.362L221.481 4.24504C221.552 4.23229 221.607 4.20651 221.65 4.16651L221.675 4.12978L221.689 4.11106C221.7 4.08912 221.709 4.06374 221.717 4.03499L221.726 3.97333L221.728 3.96089L221.733 3.93866L221.732 3.92178L221.735 3.87022L221.738 3.82245V3.54641L221.733 3.46133L221.732 3.42239L221.714 3.32238L221.691 3.27111L221.689 3.26756L221.687 3.264L221.666 3.23911L221.651 3.22073L221.598 3.18636C221.538 3.15435 221.446 3.13835 221.322 3.13835ZM133.195 28.602C130.545 27.1838 127.245 26.1872 123.295 25.6116C120.218 25.1355 118.126 24.8991 116.161 24.4526C114.195 24.0057 113.213 23.0296 113.213 21.5217C113.213 20.3716 113.724 19.469 114.747 18.8145C115.769 18.1596 116.933 17.608 119.096 17.608C121.399 17.608 123.325 18.1336 124.872 19.1846C126.422 20.2368 127.423 21.6646 127.881 23.47L136.664 20.3156C135.81 16.9639 133.875 14.5987 130.858 13.2197C127.84 11.8415 123.96 11.1514 119.215 11.1514C114.352 11.1514 110.851 12.1992 107.853 13.845C104.856 15.4916 103.357 18.0608 103.357 21.5514C103.357 25.1223 104.574 27.7059 107.005 29.3025C109.436 30.8992 112.667 31.5781 116.696 32.193C119.912 32.709 122.123 32.9607 124.189 33.3967C126.252 33.8328 127.285 34.8349 127.285 36.4012C127.285 37.5526 126.709 38.4499 125.557 39.0944C124.406 39.7393 122.789 40.0617 120.705 40.0617C118.183 40.0617 116.119 39.5557 114.511 38.5435C114.495 38.5335 114.479 38.5231 114.463 38.5135C111.381 36.6284 107.676 35.8115 104.1 36.7372C102.583 37.1297 101.247 37.8022 100.008 38.7483C98.8552 39.6289 97.7794 40.0313 96.3029 40.0313C94.8332 40.0313 93.6977 39.7393 92.8934 39.1536C92.0899 38.5687 91.6879 37.3141 91.6879 35.3898V17.8952H102.526V11.1602H91.6879V3.09698H81.6529V11.1602H78.0636V17.8952H81.6529V22.9084C81.6529 24.9135 81.6909 26.9226 81.6473 28.9269C81.5884 31.6465 81.184 35.1282 78.9364 36.9901C78.0528 37.7222 76.9362 38.0202 75.8 37.9334C72.9402 37.7142 72.8201 35.6787 72.8201 33.3127V26.6581V18.6121V12.508V11.1598H62.845V32.0181C62.6657 34.2181 61.9318 36.0119 60.6399 37.4029C59.1341 39.028 57.3457 39.8409 55.2818 39.8409C53.2968 39.8409 51.8427 39.1488 50.9195 37.7578C49.9958 36.37 49.5342 33.7224 49.5342 29.8146V11.1286H39.5588V30.2895C39.5588 35.289 40.4136 39.276 42.1191 42.2509C43.8282 45.2257 46.9843 46.7131 51.5881 46.7131C56.6703 46.7131 60.6226 45.2257 63.4412 42.2509C63.4412 42.2509 63.4444 42.2545 63.448 42.2645C64.842 46.3527 70.2165 47.366 73.8906 46.1414C76.9634 45.1173 79.6699 42.9582 81.9639 40.4806C82.4276 42.4125 83.4104 43.8355 84.9138 44.7476C87.0874 46.0666 89.7418 46.7255 92.8782 46.7255C95.6195 46.7255 98.864 46.6691 101.414 45.573C102.26 45.2093 103.109 44.8184 103.921 44.3832C104.654 43.9895 105.339 43.365 106.219 43.3678C107.191 43.371 108.083 44.1183 108.936 44.5044C109.963 44.9689 111.027 45.3481 112.112 45.6522C114.291 46.2627 116.548 46.5723 118.805 46.6751C119.388 46.7015 119.972 46.7143 120.556 46.7143C125.875 46.7143 129.974 45.7338 132.852 44.0483C135.731 42.3625 137.17 39.5653 137.17 35.6575C137.17 32.0869 135.845 30.0202 133.195 28.602ZM18.9307 8.73695L19.9017 8.76089C21.5185 8.82861 23.134 9.03486 24.7427 9.37225C30.791 10.648 34.8683 14.1174 36.6675 19.8418C37.4843 22.4402 37.8706 25.0814 37.8612 27.7314C37.8706 30.3818 37.4843 33.0226 36.6675 35.621C34.8683 41.3454 30.791 44.8148 24.7427 46.0906C22.8122 46.4954 20.872 46.7118 18.9315 46.7262C16.9889 46.7118 15.0488 46.4954 13.1182 46.0906C7.06997 44.8148 2.99228 41.3454 1.19345 35.621C0.376712 33.0226 -0.00963708 30.3818 0.000182478 27.7314C-0.00963708 25.0814 0.376712 22.4402 1.19345 19.8418C2.99228 14.1174 7.06997 10.648 13.1182 9.37225C15.0488 8.96739 16.9901 8.75135 18.9307 8.73695ZM18.9307 15.8204C16.2859 15.8164 14.4627 16.8158 13.6463 19.3445C13.5434 19.667 13.4457 19.993 13.3528 20.3195C12.6878 22.7547 12.3704 25.243 12.3996 27.7314C12.3704 30.2198 12.6878 32.7081 13.3528 35.1433C13.4457 35.4698 13.5434 35.7958 13.6463 36.1183C14.4627 38.647 16.2859 39.6464 18.9307 39.6428C21.5751 39.6464 23.3983 38.647 24.2147 36.1183C24.3172 35.7958 24.4153 35.4698 24.5081 35.1433C25.1731 32.7081 25.491 30.2198 25.4614 27.7314C25.491 25.243 25.1731 22.7547 24.5081 20.3195C24.4153 19.993 24.3172 19.667 24.2147 19.3445C23.3983 16.8158 21.5751 15.8164 18.9307 15.8204ZM21.1611 25.4049C22.4295 25.4049 23.4576 26.4322 23.4576 27.6996C23.4576 28.967 22.4295 29.9944 21.1611 29.9944C19.8928 29.9944 18.8647 28.967 18.8647 27.6996C18.8647 26.4322 19.8928 25.4049 21.1611 25.4049Z" fill="#F172A8"/>
</svg>
