<svg width="248" height="44" viewBox="0 0 248 44" fill="none" xmlns="http://www.w3.org/2000/svg">
<g clip-path="url(#clip0_2040_1051)">
<path d="M22.3121 0.0253514C10.0914 -0.551482 0.000976562 9.18464 0.000976562 21.2775V42.0724C0.000976562 42.9788 0.738499 43.7163 1.64495 43.7163H6.67988C7.38856 43.7163 8.01896 43.2631 8.24145 42.5874L13.9933 25.1959L6.47387 19.7324C5.13067 18.7559 5.82287 16.6299 7.48332 16.6299H16.7786L19.6504 7.792C20.1654 6.21395 22.3986 6.21395 22.9136 7.792L25.7854 16.6299H35.0807C36.7411 16.6299 37.4333 18.7559 36.0901 19.7324L28.5707 25.1959L31.4425 34.0338C31.9575 35.6118 30.1487 36.9262 28.8055 35.9497L21.2902 30.4863L17.4172 42.2001C19.4361 42.575 26.2139 43.5474 33.0329 39.0193C33.0453 39.0193 33.0535 39.011 33.0617 38.9987C39.0567 35.0144 42.9091 28.0759 42.5465 20.264C42.0315 9.37829 33.206 0.540381 22.3121 0.0253514Z" fill="black"/>
<path d="M75.5582 11.3272C73.8277 10.3384 71.8624 9.83984 69.658 9.83984C66.3536 9.83984 63.729 11.1295 61.776 13.7087L61.1621 10.1241H56.7246V43.7205H61.8213V30.886C62.6083 32.0191 63.6631 32.9132 64.9816 33.5765C66.3042 34.2358 67.8575 34.5654 69.6539 34.5654C71.8541 34.5654 73.8236 34.0545 75.5541 33.0327C77.2846 32.0108 78.636 30.5646 79.6125 28.6899C80.589 26.8193 81.0752 24.6562 81.0752 22.2006C81.0752 19.7449 80.589 17.4911 79.6125 15.6164C78.636 13.7458 77.2846 12.312 75.5541 11.3231L75.5582 11.3272ZM73.9307 28.006C72.6246 29.514 70.9188 30.2721 68.8093 30.2721C66.6997 30.2721 65.0022 29.5181 63.7125 28.006C62.4229 26.498 61.776 24.5285 61.776 22.1099C61.776 19.6913 62.4229 17.8413 63.7125 16.3787C65.0022 14.916 66.6997 14.1826 68.8093 14.1826C70.9188 14.1826 72.6246 14.9201 73.9307 16.3993C75.2368 17.8784 75.8878 19.8108 75.8878 22.2047C75.8878 24.5985 75.2368 26.498 73.9307 28.0101V28.006Z" fill="black"/>
<path d="M103.963 28.1461V18.6159C103.963 15.7853 103.081 13.614 101.321 12.106C99.5621 10.598 97.057 9.83984 93.8185 9.83984C90.7654 9.83984 88.2974 10.5073 86.4103 11.8464C84.5232 13.1855 83.452 15.0643 83.2007 17.487H88.2026C88.3922 16.4157 88.9649 15.5587 89.9249 14.916C90.8849 14.2732 92.1045 13.9477 93.5795 13.9477C95.2482 13.9477 96.5502 14.335 97.4979 15.1055C98.4414 15.876 98.9152 16.939 98.9152 18.2904V19.7531H92.8296C89.4634 19.7531 86.9006 20.4206 85.1372 21.7597C83.3737 23.0988 82.4961 25.0064 82.4961 27.4951C82.4961 29.6953 83.316 31.4258 84.9518 32.6866C86.5875 33.9432 88.7589 34.5736 91.4617 34.5736C94.9516 34.5736 97.6132 33.1892 99.4344 30.4204C99.4344 31.6771 99.7805 32.6371 100.473 33.3005C101.165 33.9597 102.298 34.2893 103.872 34.2893H106.562V29.8518H105.574C104.502 29.8518 103.971 29.2874 103.971 28.1543L103.963 28.1461ZM98.9152 24.3719C98.8823 26.259 98.2766 27.7711 97.0982 28.9001C95.9198 30.0331 94.2758 30.5976 92.1663 30.5976C90.7819 30.5976 89.69 30.2845 88.8866 29.6541C88.0831 29.0237 87.6835 28.1914 87.6835 27.1531C87.6835 25.9582 88.1079 25.0518 88.9566 24.442C89.8054 23.828 91.0167 23.5231 92.5907 23.5231H98.9152V24.3719Z" fill="black"/>
<path d="M117.044 11.0884C115.944 11.7352 115.046 12.6211 114.353 13.7542L113.789 10.1201H109.261V34.2812H114.357V22.1553C114.357 20.0458 114.831 18.3111 115.775 16.9432C116.718 15.5753 118.243 14.8914 120.352 14.8914H122.619V10.1242H121.485C119.631 10.1242 118.152 10.4456 117.048 11.0925L117.044 11.0884Z" fill="black"/>
<path d="M130.787 29.2079C130.408 28.8165 130.223 28.1449 130.223 27.2013V14.6017H136.073V10.1188H130.223V3.37402H125.126V27.7205C125.126 29.9537 125.645 31.6059 126.683 32.673C127.722 33.7402 129.386 34.2758 131.685 34.2758H136.593V29.793H132.724C131.809 29.793 131.166 29.5952 130.787 29.2038V29.2079Z" fill="black"/>
<path d="M155.383 22.1059C155.383 24.5615 154.839 26.4775 153.756 27.8619C152.672 29.2463 151.168 29.9385 149.248 29.9385C147.328 29.9385 145.993 29.3575 145.05 28.1915C144.106 27.0296 143.632 25.2991 143.632 23V10.1201H138.49V23.5191C138.49 27.3262 139.38 30.0868 141.156 31.8008C142.936 33.5148 145.256 34.3718 148.115 34.3718C149.845 34.3718 151.283 34.0422 152.433 33.383C153.583 32.7237 154.58 31.7926 155.428 30.5977V33.8527C155.428 35.7727 154.901 37.2519 153.846 38.2902C152.791 39.3285 151.321 39.8476 149.433 39.8476C146.195 39.8476 144.258 38.5085 143.628 35.8386H138.437C138.655 38.4797 139.701 40.5027 141.576 41.9036C143.447 43.3045 145.927 44.0049 149.009 44.0049C152.878 44.0049 155.758 43.0861 157.645 41.2444C159.532 39.4026 160.476 36.9429 160.476 33.8609V10.1201H155.379V22.1059H155.383Z" fill="black"/>
<path d="M174.834 28.8095L168.18 10.1201H162.708L171.624 34.2812H177.854L186.77 10.1201H181.393L174.834 28.8095Z" fill="black"/>
<path d="M204.772 11.2562C202.992 10.3127 200.94 9.83887 198.612 9.83887C196.284 9.83887 194.278 10.3498 192.502 11.3716C190.722 12.3934 189.342 13.8396 188.349 15.7143C187.36 17.5849 186.861 19.7645 186.861 22.249C186.861 24.7335 187.372 26.8554 188.394 28.7137C189.416 30.5678 190.862 32.0099 192.737 33.0317C194.607 34.0535 196.803 34.5644 199.321 34.5644C202.213 34.5644 204.628 33.7774 206.564 32.2035C208.497 30.6296 209.687 28.6189 210.124 26.1632H205.027C204.681 27.5147 203.973 28.5612 202.906 29.2987C201.838 30.0363 200.516 30.4071 198.942 30.4071C196.96 30.4071 195.37 29.7932 194.175 28.5653C192.98 27.3375 192.321 25.6729 192.193 23.5634V23.2791H210.404C210.499 22.6198 210.544 21.973 210.544 21.3426C210.516 19.0146 209.988 16.9875 208.962 15.257C207.936 13.5265 206.54 12.1915 204.764 11.248L204.772 11.2562ZM192.387 19.5626C192.576 17.8651 193.277 16.5054 194.488 15.4795C195.699 14.4577 197.137 13.9467 198.806 13.9467C200.598 13.9467 202.086 14.4412 203.264 15.4341C204.442 16.423 205.143 17.8033 205.365 19.5626H192.391H192.387Z" fill="black"/>
<path d="M228.39 20.8093C226.972 20.3519 225.23 20.0141 223.153 19.7957C221.612 19.6062 220.495 19.4414 219.803 19.3013C219.111 19.1612 218.538 18.9099 218.081 18.5473C217.624 18.1847 217.397 17.6449 217.397 16.9198C217.397 15.9433 217.854 15.1728 218.765 14.6083C219.68 14.0439 220.875 13.7596 222.35 13.7596C223.825 13.7596 225.057 14.1139 226.029 14.8226C227.005 15.5313 227.553 16.4336 227.681 17.5337H232.634C232.477 15.0822 231.447 13.1786 229.543 11.8231C227.64 10.4716 225.164 9.7959 222.111 9.7959C220.256 9.7959 218.596 10.109 217.133 10.7394C215.671 11.3698 214.521 12.2557 213.689 13.4052C212.857 14.5548 212.436 15.865 212.436 17.3442C212.436 18.9181 212.852 20.1665 213.689 21.0936C214.521 22.0206 215.621 22.6964 216.993 23.1207C218.361 23.5451 220.1 23.883 222.209 24.1343C223.75 24.3239 224.892 24.5051 225.629 24.6782C226.371 24.8512 226.96 25.1438 227.401 25.5517C227.842 25.9596 228.06 26.5735 228.06 27.3934C228.06 28.3699 227.582 29.1486 226.622 29.7296C225.662 30.3106 224.414 30.6031 222.873 30.6031C221.142 30.6031 219.733 30.2034 218.65 29.4C217.566 28.5965 216.973 27.5665 216.878 26.3098H211.971C212.033 28.8891 213.063 30.9121 215.061 32.3748C217.059 33.8375 219.676 34.5709 222.918 34.5709C224.838 34.5709 226.569 34.266 228.11 33.6521C229.651 33.0381 230.862 32.1564 231.744 31.011C232.625 29.8614 233.066 28.5347 233.066 27.0226C233.066 25.3251 232.642 23.9778 231.793 22.9889C230.944 22 229.811 21.2749 228.394 20.8175L228.39 20.8093Z" fill="black"/>
<path d="M243.347 29.7971C242.432 29.7971 241.789 29.5993 241.41 29.2079C241.031 28.8165 240.846 28.1449 240.846 27.2013V14.6017H246.696V10.1188H240.846V3.37402H235.749V27.7205C235.749 29.9537 236.268 31.6059 237.306 32.673C238.345 33.7402 240.009 34.2758 242.308 34.2758H247.216V29.793H243.347V29.7971Z" fill="black"/>
</g>
<defs>
<clipPath id="clip0_2040_1051">
<rect width="247.214" height="44" fill="white"/>
</clipPath>
</defs>
</svg>
