<svg width="89" height="64" viewBox="0 0 89 64" fill="none" xmlns="http://www.w3.org/2000/svg">
<path d="M52.469 8.43645L52.4233 6.62128C52.3855 5.10071 52.8941 3.64355 53.893 2.41362C54.8685 1.21144 56.1517 0.420105 57.6071 0.118898L57.7466 0.0937971C58.0935 0.0317061 58.4456 0 58.7912 0C59.4706 0 60.1318 0.12154 60.7565 0.361978C61.3003 0.57203 61.7958 0.866632 62.2327 1.23125L66.3197 4.54321C66.4358 4.63437 66.5492 4.72949 66.6575 4.82989C66.6927 4.77837 66.7279 4.7242 66.7644 4.674L66.7814 4.65286C68.3084 2.57876 70.2698 1.28013 72.6145 0.792652C73.221 0.661864 73.8221 0.59581 74.4077 0.59581C76.163 0.59581 77.8179 1.19822 79.2054 2.33832L83.6028 5.90525L83.6393 5.93564C84.6487 6.83662 85.4872 8.07448 86.1327 9.62147C86.6857 10.9478 87.0808 12.2967 87.3025 13.6336C87.5033 14.8384 87.6468 16.1661 87.7316 17.5797C87.8124 18.9853 87.8476 20.0435 87.8372 20.8164C87.8268 21.5548 87.8007 22.2577 87.7589 22.9103C87.7172 23.6884 87.5346 24.4401 87.2243 25.1389C88.025 25.9276 88.5479 26.9594 88.7383 28.1444C88.9743 29.6161 88.6692 31.1089 87.8541 32.4591L82.3874 41.0633L82.1866 47.1231C82.1448 48.6133 81.5828 50.0123 80.5656 51.1723C79.5706 52.3057 78.2939 53.039 76.8711 53.2966L76.7446 53.3203L76.7068 53.327C76.4003 53.3745 76.0926 53.397 75.7952 53.397C74.5668 53.397 73.4348 52.9967 72.4946 52.2423L68.4076 48.9304C68.2693 48.8273 68.135 48.7164 68.0059 48.5988C67.3825 48.0334 66.917 47.3464 66.621 46.5802V48.9898C66.621 50.5144 66.0824 51.9543 65.0626 53.1526C64.0636 54.327 62.77 55.0866 61.3185 55.3469C60.9612 55.4129 60.6026 55.4446 60.2544 55.4446C59.009 55.4446 57.8405 55.0298 56.8781 54.2451L55.8557 53.4115C55.8361 53.3956 55.814 53.3824 55.7944 53.3653C55.6718 53.6136 55.5375 53.858 55.3797 54.0971C54.3625 55.6666 52.8967 56.664 51.1362 56.9824C50.7893 57.0445 50.4411 57.0762 50.0994 57.0762C49.1266 57.0762 48.2098 56.8265 47.3739 56.3337L46.5236 55.8331C46.3867 56.0405 46.2367 56.2399 46.0724 56.4341C45.0722 57.6297 43.7733 58.3999 42.314 58.6628C41.9593 58.7275 41.6046 58.7593 41.2577 58.7593C40.1297 58.7593 39.0681 58.4197 38.1618 57.7684C38.1318 57.8028 38.1005 57.8371 38.0692 57.8715C37.0116 59.0023 35.6775 59.6999 34.2078 59.8901L34.127 59.898C33.9183 59.9192 33.7083 59.9297 33.5036 59.9297C32.5307 59.9297 31.6205 59.6906 30.8185 59.2256C29.9904 60.3564 28.8715 61.1702 27.5622 61.5864C27.3092 61.6722 27.0497 61.7383 26.7915 61.7859C26.4446 61.848 26.0925 61.8797 25.7508 61.8797C24.6254 61.8797 23.5482 61.5335 22.6366 60.877L18.6409 57.6482C18.6318 57.6416 18.6213 57.6337 18.6122 57.6271C18.5861 59.1001 18.0554 60.4965 17.0708 61.6722C16.0705 62.8652 14.7651 63.638 13.298 63.9036C12.9394 63.9683 12.5808 64 12.2313 64C10.965 64 9.78482 63.5746 8.81458 62.7661L4.59194 59.3445C3.3374 58.3008 2.64493 56.7816 2.64493 55.0708V46.1085C2.64493 46.1085 2.63319 46.098 2.62667 46.094C2.57973 46.0583 2.53539 46.0213 2.48974 45.983C2.4428 45.9474 2.39846 45.9104 2.35282 45.8721C2.30717 45.8364 2.26153 45.7994 2.21719 45.7624C2.17415 45.7294 2.13242 45.695 2.092 45.6607C0.978305 44.802 0.278009 43.5892 0.0602258 42.144L0.0524013 42.0819C-0.141908 40.5824 0.206284 39.0936 1.06177 37.7725C1.8364 36.5769 2.91749 35.6984 4.20984 35.2122C3.82513 34.446 3.623 33.5754 3.623 32.652V23.691C3.61257 23.6831 3.60344 23.6752 3.593 23.6659C3.54606 23.6303 3.50172 23.5933 3.45607 23.555C3.40913 23.5193 3.36479 23.4823 3.31915 23.444C3.2735 23.4083 3.22786 23.3713 3.18352 23.3343C3.13527 23.296 3.08702 23.2577 3.04007 23.2181C1.94464 22.3607 1.25347 21.1585 1.03699 19.7238L1.02916 19.6591C0.834855 18.1623 1.18565 16.6708 2.03853 15.351C2.87836 14.0524 4.08204 13.129 5.52175 12.6758C8.21991 11.8026 10.7668 11.36 13.0907 11.36H13.1963C15.1681 11.3706 16.9143 11.689 18.4088 12.3112C18.5001 12.1831 18.5966 12.0562 18.6983 11.932C19.7011 10.7193 21.0104 9.93589 22.4867 9.67167L22.5232 9.66506C22.8701 9.60033 23.2248 9.56862 23.573 9.56862C23.989 9.56862 24.4024 9.61618 24.804 9.70337C25.6047 9.88568 26.3155 10.2305 26.9258 10.7285C26.974 10.7655 27.0197 10.8038 27.0666 10.8422C27.1136 10.8778 27.1579 10.9161 27.2035 10.9531C27.2492 10.9888 27.2948 11.0258 27.3392 11.0641C27.3548 11.076 27.3692 11.0879 27.3848 11.0998C27.6926 10.6162 28.0251 10.1552 28.3877 9.71923L28.402 9.69941C30.0947 7.67815 32.1643 6.43501 34.5508 6.00301L34.599 5.99509L34.6499 5.98848C35.1102 5.91979 35.5732 5.88544 36.0218 5.88544C38.0131 5.88544 39.8715 6.57108 41.4351 7.86971C41.4807 7.9067 41.5264 7.94237 41.5707 7.97936C41.6124 8.01239 41.6542 8.04541 41.6959 8.07976C42.2188 7.34788 42.8748 6.74414 43.6559 6.28044C44.6379 5.69652 45.6916 5.40192 46.7871 5.40192C46.8444 5.40192 46.9005 5.40456 46.9605 5.40456C48.1446 5.44023 49.2322 5.83259 50.1294 6.5407C50.2038 6.59618 50.2742 6.65695 50.3459 6.7164C50.3498 6.72036 50.355 6.72301 50.359 6.72697L52.469 8.43645Z" fill="#23272B"/>
<path d="M5.05927 20.7408C5.55874 21.0975 6.13384 21.2177 6.78589 21.0988V32.6464C6.78589 33.4047 7.04931 34.0032 7.57747 34.4431C8.10563 34.883 8.74332 35.0349 9.49187 34.8989C10.2404 34.7641 10.8781 34.381 11.4063 33.7508C11.9331 33.1207 12.1979 32.4271 12.1979 31.6688V29.2195C13.828 28.4387 15.2351 27.5972 16.4153 26.6936C17.5955 25.7913 18.4823 24.8916 19.0782 23.9959C19.6729 23.1016 20.0811 22.2402 20.3015 21.4132C20.3249 21.3221 20.3471 21.2322 20.3667 21.1437L20.4228 30.3002C20.4228 31.0585 20.7005 31.6596 21.2574 32.1034C21.7947 32.5117 22.4271 32.6504 23.1574 32.5183L23.2435 32.5024L34.0661 30.2262C34.8147 30.0716 35.4472 29.67 35.9662 29.0227C36.4839 28.3753 36.733 27.6738 36.7147 26.9195C36.6952 26.1652 36.407 25.576 35.8514 25.1506C35.2946 24.7265 34.6425 24.5917 33.894 24.7463L25.8634 26.4598L25.7773 15.0733C25.7773 14.6849 25.7056 14.3388 25.5609 14.0336C25.4174 13.7298 25.2244 13.4722 24.9858 13.2634C24.7458 13.0547 24.4576 12.912 24.1225 12.8367C23.786 12.7614 23.4365 12.7575 23.0714 12.8222L23.0427 12.8275C22.2941 12.9622 21.6564 13.3506 21.1283 13.99C20.6001 14.6294 20.3367 15.3283 20.3367 16.0866L20.3523 18.7116C20.0315 17.4447 19.2947 16.4525 18.1289 15.7418C16.8626 14.9703 15.2116 14.5779 13.1772 14.566C11.1428 14.5541 8.90764 14.9439 6.4703 15.7339C5.72175 15.9664 5.12708 16.4248 4.685 17.1065C4.24422 17.7895 4.07077 18.5002 4.16727 19.2413C4.26378 19.8847 4.55981 20.3841 5.05927 20.7408ZM12.1992 20.1212C12.7743 20.1331 13.2933 20.1859 13.7536 20.2784C14.214 20.3696 14.5452 20.4752 14.7474 20.5941C14.9495 20.713 15.0682 20.8187 15.1073 20.9086C15.0877 21.0288 15.0017 21.1952 14.8478 21.4079C14.6939 21.6206 14.3822 21.9192 13.9127 22.3063C13.442 22.6933 12.8721 23.0831 12.2005 23.4754V20.1225L12.1992 20.1212Z" fill="white"/>
<path d="M28.3375 23.5776C28.5866 23.9514 28.927 24.2143 29.36 24.3702C29.7916 24.5261 30.2467 24.5499 30.7266 24.4442C31.3017 24.3213 31.8208 24.0426 32.2811 23.6093L37.4049 22.5669C37.4049 23.8312 37.3475 25.1246 37.2314 26.447C37.1545 27.2185 37.3514 27.8592 37.8209 28.3665C38.2904 28.8751 38.9007 29.0997 39.6492 29.0429C39.7457 29.0257 39.8409 29.0085 39.9374 28.9914C40.6286 28.8672 41.2324 28.5197 41.7514 27.949C42.2691 27.3796 42.5665 26.7376 42.6434 26.0242C43.0073 22.3238 42.9407 19.1519 42.4426 16.5111C41.9431 13.8702 41.042 11.9097 39.7366 10.6283C38.4312 9.38646 36.8872 8.89765 35.1019 9.16187C33.4509 9.46044 32.0216 10.331 30.8127 11.7737C28.7588 14.2639 27.8003 17.7621 27.9346 22.267C27.9528 22.7691 28.0885 23.205 28.3375 23.5776ZM34.6989 14.9495C34.8332 14.7897 34.9193 14.7051 34.9584 14.6985C35.1697 14.6602 35.3992 14.7646 35.6496 15.0116C36.0904 15.437 36.4646 16.157 36.7724 17.1703L33.5774 17.8348C33.8265 16.5071 34.1994 15.5454 34.6989 14.9495Z" fill="white"/>
<path d="M45.0374 28.2156C45.5656 28.6265 46.1837 28.7665 46.8945 28.6384C46.9518 28.6278 46.9897 28.6212 47.0092 28.6172C47.3731 28.5313 47.7186 28.3821 48.046 28.1681C48.372 27.954 48.6497 27.6991 48.8806 27.4045C49.1114 27.1099 49.2927 26.7809 49.427 26.4163C49.5613 26.053 49.6187 25.687 49.5991 25.3211L49.3109 18.0247L56.7377 24.6738C57.1211 25.012 57.5867 25.1916 58.1344 25.2088C58.6808 25.2273 59.2142 25.082 59.7319 24.7742C60.0775 24.576 60.3748 24.3224 60.6239 24.0159C60.873 23.7081 61.0647 23.3672 61.199 22.9934C61.3333 22.6195 61.4011 22.2469 61.4011 21.8784L60.9982 5.41763C60.9786 4.93543 60.8495 4.51136 60.6096 4.14674C60.3696 3.78212 60.0436 3.52055 59.6315 3.3607C59.2181 3.20217 58.7721 3.1665 58.2935 3.25237L58.2361 3.26294C57.4876 3.4175 56.8551 3.81383 56.3361 4.45191C55.8183 5.09 55.568 5.78621 55.5875 6.54055L55.8183 15.8886L48.2768 9.14441C47.8921 8.80489 47.4226 8.62787 46.8658 8.61201C46.3089 8.59616 45.7716 8.74148 45.2539 9.04929C44.7362 9.35711 44.328 9.78117 44.0307 10.3202C43.7333 10.8605 43.5938 11.4101 43.6134 11.9702L44.2172 26.4995C44.2367 27.2354 44.5093 27.8061 45.0374 28.2156Z" fill="white"/>
<path d="M67.0583 20.4595C67.1248 21.157 67.1965 21.8004 67.2748 22.3883C67.3713 23.0515 67.6725 23.5654 68.1811 23.93C68.6897 24.2946 69.2791 24.4162 69.9507 24.2959C70.0655 24.2748 70.1816 24.2444 70.2963 24.2048C71.0449 23.9723 71.6448 23.5139 72.096 22.8295C72.5472 22.1452 72.7245 21.4437 72.628 20.7211C72.5511 20.1913 72.4937 19.6074 72.4559 18.9733L75.0471 18.3009C75.0276 18.9072 75.008 19.4449 74.9897 19.9152C74.9506 20.6801 75.1775 21.301 75.6666 21.7753C76.1556 22.2509 76.775 22.4504 77.5236 22.3738C78.2721 22.2773 78.9242 21.9312 79.481 21.3341C80.0379 20.7383 80.3339 20.0579 80.373 19.2917C80.4109 18.6826 80.4356 18.0314 80.4448 17.3391C80.4539 16.6469 80.42 15.6481 80.3443 14.3389C80.2674 13.031 80.1383 11.8302 79.9557 10.735C79.7732 9.64114 79.4523 8.54199 78.992 7.43889C78.5317 6.3371 77.9748 5.49425 77.3228 4.91165C76.1713 3.91423 74.8189 3.58528 73.2644 3.9248C71.6904 4.24846 70.3759 5.12699 69.3209 6.56169C68.7066 7.41247 68.2072 8.49311 67.8238 9.80627C67.4391 11.1208 67.19 12.3705 67.0752 13.5568C66.9605 14.7445 66.9122 16.0167 66.9318 17.3735C66.95 18.7315 66.9944 19.758 67.0609 20.4555L67.0583 20.4595ZM73.3479 9.33597C73.8852 9.5698 74.3273 10.7627 74.6715 12.9174L72.3972 13.5027C72.5707 11.1974 72.8876 9.80891 73.3479 9.33597Z" fill="white"/>
<path d="M32.0142 41.6433C31.8316 40.5495 31.5108 39.4503 31.0505 38.3472C30.5901 37.2454 30.0333 36.4026 29.3812 35.82C28.2297 34.8226 26.8774 34.4936 25.3229 34.8331C23.7489 35.1568 22.4343 36.0353 21.3793 37.47C20.7651 38.3208 20.2656 39.4014 19.8822 40.7146C19.7453 41.1836 19.6253 41.6447 19.5223 42.0991C19.5119 41.8851 19.4897 41.6724 19.4532 41.4637C19.1846 40.0356 18.4164 38.9351 17.1502 38.1623C15.8839 37.3908 14.2329 36.9984 12.1985 36.9865C10.1642 36.9746 7.92896 37.3643 5.49161 38.1543C4.74307 38.3869 4.1484 38.8453 3.70632 39.527C3.26553 40.21 3.09209 40.9207 3.18859 41.6618C3.28509 42.3052 3.58112 42.8059 4.08059 43.1626C4.58005 43.5193 5.15516 43.6395 5.8072 43.5206V55.0682C5.8072 55.8265 6.07063 56.425 6.59879 56.8649C7.12694 57.3048 7.76464 57.4567 8.51319 57.3207C9.26174 57.1859 9.89944 56.8028 10.4276 56.1726C10.9544 55.5425 11.2192 54.8489 11.2192 54.0906V51.6413C12.8493 50.8605 14.2564 50.019 15.4366 49.1154C16.6168 48.2131 17.5036 47.3134 18.0996 46.4177C18.556 45.7308 18.9016 45.0623 19.1389 44.415C19.1376 44.4321 19.135 44.4493 19.1337 44.4665C19.0189 45.6541 18.9707 46.9264 18.9902 48.2831C19.0085 49.6412 19.0528 50.6677 19.1194 51.3652C19.1859 52.0627 19.2576 52.7061 19.3358 53.294C19.4323 53.9572 19.7336 54.4711 20.2422 54.8357C20.7508 55.2003 21.3402 55.3218 22.0118 55.2016C22.1266 55.1805 22.2426 55.1501 22.3574 55.1105C23.106 54.878 23.7058 54.4195 24.157 53.7352C24.6083 53.0509 24.7856 52.3494 24.6891 51.6268C24.6122 51.097 24.5548 50.5131 24.517 49.879L27.1082 49.2065C27.0886 49.8129 27.0691 50.3506 27.0508 50.8209C27.0117 51.5858 27.2386 52.2067 27.7276 52.681C28.2167 53.1566 28.8361 53.3561 29.5847 53.2795C30.3332 53.183 30.9853 52.8369 31.5421 52.2398C32.099 51.644 32.395 50.9636 32.4341 50.1974C32.4719 49.5883 32.4967 48.937 32.5058 48.2448C32.515 47.5525 32.4811 46.5538 32.4054 45.2446C32.3285 43.9367 32.1994 42.7359 32.0168 41.6407L32.0142 41.6433ZM13.8678 43.8284C13.7139 44.0411 13.4022 44.3397 12.9327 44.7267C12.462 45.1138 11.8921 45.5035 11.2205 45.8959V42.543C11.7956 42.5549 12.3146 42.6077 12.775 42.7002C13.2353 42.7914 13.5665 42.897 13.7687 43.0159C13.9708 43.1348 14.0895 43.2405 14.1286 43.3304C14.109 43.4506 14.023 43.617 13.8691 43.8297L13.8678 43.8284ZM24.457 44.4084C24.6304 42.1031 24.946 40.7146 25.4064 40.2417C25.9437 40.4755 26.3857 41.6684 26.73 43.8231L24.457 44.4084Z" fill="white"/>
<path d="M81.3856 25.2295C81.2708 24.5122 80.9109 23.9837 80.3058 23.6455C79.702 23.3073 79.0291 23.269 78.291 23.528C77.5516 23.7882 76.9712 24.2572 76.55 24.9362L72.4043 31.4875L69.0072 26.2692C68.642 25.6932 68.0956 25.3788 67.3666 25.326C66.6376 25.2731 65.9569 25.4937 65.3231 25.9865C64.6893 26.4806 64.2772 27.1081 64.0855 27.8717C64.0138 28.1584 63.9825 28.4318 63.9916 28.6934C63.4687 28.2812 62.8414 28.1399 62.1059 28.272L62.0772 28.2773L50.7069 30.4478C49.9583 30.6024 49.3245 30.9987 48.8068 31.6368C48.2891 32.2749 48.0296 32.9632 48.0296 33.7016C48.0296 33.9183 48.053 34.1204 48.0961 34.3093C47.8744 33.736 47.534 33.2221 47.0711 32.7663C45.9 31.5972 44.1447 30.9868 41.8038 30.9326C39.4617 30.8798 36.8627 31.3937 34.0028 32.473C33.2738 32.7412 32.6974 33.2247 32.2762 33.9223C31.8536 34.6211 31.7193 35.3253 31.8732 36.036C32.0075 36.7309 32.357 37.2369 32.9243 37.5526C33.4903 37.8683 34.128 37.9133 34.8387 37.6887V49.8189C34.8387 50.5772 35.1021 51.1756 35.6303 51.6156C36.1584 52.0555 36.7909 52.2074 37.5303 52.074C38.2685 51.9406 38.9023 51.5588 39.4304 50.9286C39.9573 50.2984 40.222 49.6049 40.222 48.8466V47.4766L44.7407 50.1307C45.2206 50.4134 45.7578 50.5006 46.3525 50.3936C47.2536 50.2311 47.9735 49.7317 48.5108 48.8955C48.9516 48.2323 49.125 47.5361 49.0285 46.8042C48.932 46.0736 48.5864 45.528 47.9918 45.1687L43.9047 42.7867C46.0917 41.3032 47.4936 39.6307 48.1078 37.7706C48.4143 36.8207 48.4821 35.9092 48.31 35.0373C48.2904 34.9355 48.2656 34.8365 48.2395 34.7374C48.3712 35.0254 48.5643 35.2751 48.8225 35.4838C49.3506 35.9131 49.9883 36.0611 50.7369 35.925L50.7655 35.9198L53.8458 35.3345V46.532C53.8458 47.2903 54.1092 47.8835 54.6374 48.3142C55.1656 48.7435 55.798 48.8915 56.5375 48.7581C57.2756 48.6246 57.9094 48.2481 58.4375 47.6272C58.9657 47.0063 59.2291 46.318 59.2291 45.5597V34.275L62.1359 33.7201C62.8845 33.5854 63.5222 33.1983 64.0503 32.5576C64.5537 31.9486 64.8041 31.2854 64.8106 30.572L69.6136 37.9384L69.4114 44.3615C69.3723 45.1264 69.6083 45.7407 70.1169 46.2018C70.6255 46.6641 71.2541 46.8372 72.0026 46.7209L72.0887 46.7051C72.8177 46.573 73.4463 46.207 73.9744 45.6059C74.5026 45.0049 74.7751 44.3337 74.7947 43.5913L75.0255 36.6384L80.9265 27.3499C81.3491 26.6523 81.5016 25.9442 81.3869 25.2256L81.3856 25.2295ZM40.2207 39.052V36.4865C41.5639 36.4574 42.4663 36.6345 42.9267 37.0189C42.5237 37.6358 41.6213 38.3136 40.2207 39.052Z" fill="white"/>
</svg>
