<svg width="98" height="103" viewBox="0 0 98 103" fill="none" xmlns="http://www.w3.org/2000/svg">
<path d="M54.7101 1.54297C58.0166 6.3813 57.4581 12.9089 55.6789 18.4957C53.8996 24.0825 51.0301 29.3404 50.0097 35.1183C48.4295 44.0848 51.4571 52.8499 48.317 61.5457C46.8779 65.5421 45.0257 69.4768 44.6411 73.7066C44.3285 77.072 44.9645 80.4706 44.7351 83.8459C44.2992 90.0996 40.9305 95.8005 39.9577 101.996M11.2095 90.046C11.8809 86.7154 13.3733 83.482 15.8597 81.1656C19.626 77.6455 25.2208 76.5547 28.891 72.9353C33.5728 68.3349 34.2091 60.6006 39.2044 56.342C41.9734 53.9785 45.6671 53.0657 48.883 51.3252C51.5967 49.8552 53.9698 47.7784 55.792 45.284C59.304 40.4684 60.9905 33.8993 66.2407 31.0714C68.4347 29.8918 71.012 29.5267 73.1253 28.1905C78.9768 24.4927 79.2214 14.7387 85.6466 12.152M23.213 6.99746C26.3062 6.9057 29.1057 9.05512 30.7324 11.6881C32.359 14.3211 33.0549 17.4043 33.8242 20.3967C34.5935 23.3891 35.5139 26.4589 37.493 28.8303C39.4605 31.1987 42.3646 32.7747 43.8086 35.4937C45.7875 39.2399 44.3887 44.094 46.3821 47.8317C48.2811 51.3723 52.6928 52.9104 54.8096 56.3253C56.5681 59.1531 56.4438 62.7776 57.7874 65.8257C59.5826 69.8909 63.6793 72.3756 66.6432 75.6983C68.7093 78.0194 70.238 80.8348 70.9637 83.8524C71.4364 85.8448 71.5599 87.9031 72.1396 89.8628C73.2417 93.5827 75.9027 96.6155 78.4768 99.5147M1 37.7215C3.99512 36.6216 7.44924 36.7861 10.3276 38.1833C12.4358 39.2023 14.1973 40.8281 16.2518 41.9556C20.5778 44.3176 25.7635 44.2955 30.6959 44.1197C33.1995 44.0295 35.8268 43.9357 38.083 45.0435C39.8088 45.8864 41.1443 47.3612 42.7071 48.4919C49.3953 53.3526 58.9534 50.7093 66.8711 53.0886C70.5426 54.1828 73.7028 56.7726 77.4019 57.7638C83.8525 59.4799 90.709 57.0702 96.7898 60.2584" stroke="#FFD743" stroke-width="4" stroke-miterlimit="10"/>
</svg>
