<svg width="699" height="867" viewBox="0 0 699 867" fill="none" xmlns="http://www.w3.org/2000/svg">
<g opacity="0.6">
<rect width="699" height="867" fill="#0C5752"/>
<path d="M55.7279 -45H404.338L573.669 124.378C603.252 154.223 603.252 202.435 573.669 232.281C559.389 246.565 540.263 254.728 519.861 254.728C499.459 254.728 480.333 246.82 466.052 232.281L276.318 42.4951C263.312 29.4857 242.401 29.4857 229.396 42.4951L-121 392.986V131.776C-121 34.0772 -41.944 -45 55.7279 -45Z" fill="#1F6460"/>
<path d="M637.93 649.872C637.93 634.568 643.796 620.282 654.506 609.569C665.217 598.855 679.498 592.988 694.799 592.988C710.1 592.988 724.381 598.855 735.092 609.569L818.738 693.238V717.981C818.738 756.5 806.242 791.957 785.585 821.037L654.761 690.177C643.796 679.464 637.93 665.178 637.93 649.872Z" fill="#1F6460"/>
<path d="M533.631 730.975C555.817 708.782 592.03 708.782 614.217 730.975L745.042 861.835C715.97 882.752 680.521 894.997 642.014 894.997H617.278L533.631 811.327C511.445 789.135 511.445 753.167 533.631 730.975Z" fill="#1F6460"/>
<path d="M492.832 851.886L535.93 894.996H396.18C395.415 879.436 400.77 863.875 412.501 852.142C434.688 829.694 470.646 829.693 492.832 851.886Z" fill="#1F6460"/>
<path d="M419.129 278.961C445.905 305.745 481.609 320.796 519.861 320.796C557.859 320.796 593.816 306 620.593 278.961C676.187 223.352 676.187 132.796 620.593 77.4419L498.185 -45H642.015C739.687 -45 818.743 34.0772 818.743 131.776V414.413C817.723 414.413 816.957 414.158 815.937 414.158C785.335 414.158 756.774 426.148 735.096 447.575C711.124 471.553 700.159 503.949 701.944 535.58C699.649 535.325 697.354 535.325 694.803 535.325C664.202 535.325 635.64 547.313 613.963 568.741C592.287 590.424 580.555 618.993 580.555 649.604C580.555 651.9 580.81 654.451 580.81 656.747C549.188 654.706 517.056 665.675 492.829 689.908C468.858 714.141 457.892 746.282 459.677 777.913C428.055 775.872 395.667 786.842 371.695 811.075C348.744 834.032 337.779 864.388 338.288 894.743H153.145L370.166 677.663C383.172 664.655 383.172 643.737 370.166 630.728C357.16 617.718 336.248 617.718 323.242 630.728L59.8086 894.998H55.9827C19.2599 894.998 -14.9121 883.774 -43.4741 864.388L256.682 564.15C269.688 551.14 269.688 530.223 256.682 517.214C243.676 504.204 222.765 504.204 209.759 517.214L-90.3974 817.452C-109.779 789.137 -121 754.956 -121 717.968V714.141L142.944 450.126C155.95 437.116 155.95 416.199 142.944 403.189C129.938 390.18 109.026 390.18 96.0204 403.189L-121 620.269V486.347L252.858 112.644L419.129 278.961Z" fill="#0A4642"/>
</g>
</svg>
