<svg width="448" height="733" viewBox="0 0 448 733" fill="none" xmlns="http://www.w3.org/2000/svg">
<path d="M203.32 101.68C204.47 118.87 192.41 134.61 169.95 131.93L167.75 131.64L175.41 165.49C175.41 165.49 171.09 177.77 153.69 180.51C128.1 184.55 116.97 173.21 116.97 173.21L114.75 111.49C114.75 111.49 103.88 117.09 101.22 100.21C98.3999 82.2899 111.43 83.9098 111.43 83.9098L111.35 82.7799C107.7 58.8099 121.63 43.0199 141.11 37.9699L145.6 36.7599C145.6 36.7599 197.75 18.0899 203.33 101.7L203.32 101.68Z" fill="#AB5F41"/>
<path d="M113 93.9502C113 93.9502 115.54 95.7702 113.52 97.1902C109.22 100.21 115.68 100.55 114.47 102.54" stroke="#191333" stroke-width="0.75" stroke-linecap="round" stroke-linejoin="round"/>
<path d="M112.82 88.6507C112.82 88.6507 104 85.6608 107.04 97.4608" stroke="#191333" stroke-width="0.75" stroke-linecap="round" stroke-linejoin="round"/>
<path d="M162.99 71.0004C161.88 71.1604 160.3 71.3604 158.94 71.6604C157.52 71.9404 156.1 72.2804 154.69 72.7204C153.28 73.1604 151.87 73.6604 150.43 74.1904C148.96 74.6804 147.52 75.2804 145.84 75.7304H145.8C145.39 75.8504 144.97 75.5804 144.85 75.1504C144.8 74.9404 144.82 74.7305 144.91 74.5605C145.74 72.9205 146.87 71.5205 148.17 70.3205C149.45 69.0805 150.96 68.1605 152.5 67.3105C154.06 66.4705 155.72 65.8403 157.44 65.3803C159.22 64.9503 160.84 64.6605 162.98 64.8105C164.6 64.9205 165.87 66.3905 165.82 68.1005C165.78 69.6005 164.73 70.7804 163.38 70.9704L163 71.0205L162.99 71.0004Z" fill="#191333"/>
<mask id="mask0_1320_4753" style="mask-type:luminance" maskUnits="userSpaceOnUse" x="178" y="53" width="19" height="16">
<path d="M190.1 53.2307C190.1 53.2307 193.63 58.0707 196.88 67.2007C196.88 67.2007 182.01 71.0406 179.07 65.6506C179.07 65.6506 175.96 57.4307 190.09 53.2207L190.1 53.2307Z" fill="white"/>
</mask>
<g mask="url(#mask0_1320_4753)">
<path d="M183.63 59.8208C184.95 58.9508 186.06 58.5707 187.35 58.2407C188.61 57.9507 189.92 57.8406 191.23 57.9006C192.53 57.9706 193.85 58.1706 195.09 58.7106C196.33 59.2006 197.48 59.9908 198.4 61.0708C198.71 61.4308 198.69 61.9807 198.36 62.2907C198.27 62.3807 198.16 62.4407 198.04 62.4707L197.96 62.4907C196.72 62.8307 195.69 62.9406 194.68 63.1606C193.68 63.3506 192.74 63.4807 191.82 63.7207C190.9 63.9407 189.99 64.1907 189.1 64.4907C188.25 64.7407 187.25 65.1407 186.59 65.3107L186.05 65.4506C184.5 65.8506 182.88 64.8306 182.43 63.1706C182.07 61.8306 182.59 60.4907 183.62 59.8007L183.63 59.8208Z" fill="#191333"/>
</g>
<mask id="mask1_1320_4753" style="mask-type:luminance" maskUnits="userSpaceOnUse" x="180" y="64" width="22" height="26">
<path d="M195.94 64.6797C195.94 64.6797 199.61 73.0597 201.67 86.8997C201.67 86.8997 194.63 91.7598 188.22 88.5598C185.26 87.0798 183.1 83.1998 180.17 76.9998C180.17 76.9998 185.87 67.9297 195.94 64.6797Z" fill="white"/>
</mask>
<g mask="url(#mask1_1320_4753)">
<path d="M180.61 80.8599C180.61 80.8599 191.03 60.8097 209.24 74.1497C209.24 74.1497 207.04 83.5598 197.8 86.8398C188.55 90.1098 180.62 80.8699 180.62 80.8699L180.61 80.8599Z" fill="white"/>
<mask id="mask2_1320_4753" style="mask-type:luminance" maskUnits="userSpaceOnUse" x="180" y="69" width="30" height="19">
<path d="M180.61 80.8599C180.61 80.8599 191.03 60.8097 209.24 74.1497C209.24 74.1497 207.04 83.5598 197.8 86.8398C188.55 90.1098 180.62 80.8699 180.62 80.8699L180.61 80.8599Z" fill="white"/>
</mask>
<g mask="url(#mask2_1320_4753)">
<path d="M203.35 77.4194C204.87 82.3694 202.48 87.4895 198.01 88.8595C193.54 90.2295 188.68 87.3393 187.16 82.3993C185.64 77.4493 188.03 72.3294 192.5 70.9594C196.97 69.5894 201.83 72.4794 203.35 77.4194Z" fill="#191333"/>
</g>
<path d="M209.14 73.8497C209.14 73.8497 192.62 58.2697 180.51 80.5597" stroke="#191333" stroke-width="3" stroke-linecap="round" stroke-linejoin="round"/>
</g>
<path d="M143.76 91.1292C143.76 91.1292 154.18 71.0792 172.39 84.4192C172.39 84.4192 170.19 93.8294 160.95 97.1094C151.7 100.379 143.77 91.1392 143.77 91.1392L143.76 91.1292Z" fill="white"/>
<mask id="mask3_1320_4753" style="mask-type:luminance" maskUnits="userSpaceOnUse" x="143" y="79" width="30" height="19">
<path d="M143.76 91.1292C143.76 91.1292 154.18 71.0792 172.39 84.4192C172.39 84.4192 170.19 93.8294 160.95 97.1094C151.7 100.379 143.77 91.1392 143.77 91.1392L143.76 91.1292Z" fill="white"/>
</mask>
<g mask="url(#mask3_1320_4753)">
<path d="M169.1 84.6193C172.23 90.5593 168.47 97.6591 161.8 98.3991C158.07 98.8091 154.35 96.8492 152.6 93.5292C149.47 87.5892 153.23 80.4892 159.9 79.7492C163.63 79.3392 167.35 81.2993 169.1 84.6193Z" fill="#191333"/>
</g>
<path d="M171.93 84.5399C160.06 76.9799 151.76 79.72 144.17 91.1C143.82 91.63 142.95 91.1799 143.18 90.5899C146.3 81.2199 155.22 74.4899 165.15 78.5899C168.05 79.7499 170.6 81.4698 172.68 83.7198C173.13 84.2098 172.47 84.9499 171.93 84.5399Z" fill="#191333"/>
<path d="M114.74 111.49L119.5 108.96" stroke="#191333" stroke-width="0.75" stroke-linecap="round" stroke-linejoin="round"/>
<path d="M180.19 76.7305C183.76 85.3305 188.07 87.2205 188.07 87.2205C188.07 87.2205 190.58 88.4806 190.19 90.8306C189.8 93.1906 188.23 92.4304 186.69 94.1404" stroke="#191333" stroke-width="0.75" stroke-linecap="round" stroke-linejoin="round"/>
<path d="M181.65 93.821C181.65 93.821 181.29 93.7709 180.74 94.0009C180.18 94.2309 179.9 94.9008 179.9 94.9008" stroke="#191333" stroke-width="0.75" stroke-linecap="round" stroke-linejoin="round"/>
<path d="M176.5 90.3203C176.5 90.3203 173.9 92.9803 177.2 96.0203" stroke="#191333" stroke-width="0.75" stroke-linecap="round" stroke-linejoin="round"/>
<path d="M174.6 103.801C174.6 103.801 186.1 111.911 192.98 101.521" stroke="#191333" stroke-width="0.75" stroke-linecap="round" stroke-linejoin="round"/>
<path d="M111.42 83.9C111.42 83.9 98.3401 82.9701 101.21 100.2C103.99 116.85 114.74 111.48 114.74 111.48L115.58 124.02C115.58 124.02 96.6701 110.52 92.2101 90.3102C92.2101 90.3102 87.6702 71.9801 96.8702 51.4901C96.8702 51.4901 86.9902 54.0701 85.0502 44.1801C83.1102 34.2801 88.3602 35.4601 88.3602 35.4601C88.3602 35.4601 77.8101 25.4601 83.2101 18.9401C88.6101 12.4201 94.7101 20.7301 94.7101 20.7301C94.7101 20.7301 90.5301 3.00005 102.28 0.410052C114.03 -2.17995 112.91 12.39 112.91 12.39C112.91 12.39 125.8 -2.77986 130.55 6.50014C135.3 15.7801 128.2 20.6701 128.2 20.6701C128.2 20.6701 145.96 14.0901 144.84 27.9901C144.84 27.9901 182.29 20.4602 189.25 52.0302C189.25 52.0302 181.81 40.1402 166.27 44.1102C168.13 65.9802 133.03 71.9601 134.06 79.6901C135.1 87.4201 130.43 104.01 125.73 94.7702C121.03 85.5202 118.13 82.62 111.38 83.88L111.42 83.9Z" fill="#191333"/>
<path d="M103.73 44.67C103.73 44.67 109.48 35.9402 123.66 32.6002C123.66 32.6002 127.31 23.7901 115.74 26.0101C104.17 28.2301 92.83 43.45 103.73 44.67Z" fill="#FFC85A"/>
<path d="M167.75 131.63C167.75 131.63 148.42 127.77 134.76 117.7C134.76 117.7 145.47 138.02 169.81 140.73L167.75 131.63Z" fill="#191333"/>
<path d="M46.99 686.74L0.850098 723.34L17.71 802.75C17.71 802.75 44.9701 848.01 58.1001 848.01L107.92 846.05L106.76 829.33C106.76 829.33 106.48 798.3 79.03 798.3C79.03 798.3 60.9999 771.98 91.1799 740.18L47 686.75L46.99 686.74Z" fill="#FFC85A"/>
<path d="M12.4299 714.76L35.53 801C35.53 801 43.5301 836.85 107.1 834.32" stroke="#191333" stroke-width="0.75" stroke-linecap="round" stroke-linejoin="round"/>
<path d="M0.850098 723.34L17.7 802.75" stroke="#191333" stroke-width="0.75" stroke-linecap="round" stroke-linejoin="round"/>
<path d="M31.51 699.02L46.99 776.139C46.99 776.139 47.64 794.37 59.76 797.5" stroke="#191333" stroke-width="0.75" stroke-linecap="round" stroke-linejoin="round"/>
<path d="M91.1699 740.17L129.52 703.38L88.3501 655.84L46.98 686.74C46.98 686.74 57.7099 743.15 91.1599 740.17H91.1699Z" fill="#AB5F41"/>
<path d="M140.35 728.48L232.88 612.11C261.54 577.07 276.66 532.9 275.5 487.65L273.45 407.54L163.71 361.86L159.39 491.85C158.86 507.71 152.98 522.91 142.71 535L46.8899 649.98C46.8899 649.98 86.3901 722.01 140.35 728.48Z" fill="#191333"/>
<path d="M96.49 335.2L238.7 797.18L358.61 756.41L217.04 351.68L96.49 335.2Z" fill="#191333"/>
<path d="M111.5 383.95L207.18 694.78" stroke="#191333" stroke-width="0.75" stroke-linecap="round" stroke-linejoin="round"/>
<path d="M289.68 779.84L159.34 343.79" stroke="#191333" stroke-width="0.75" stroke-linecap="round" stroke-linejoin="round"/>
<path d="M86.8201 700.58C86.8201 700.58 143.73 641.08 175.15 590.75" stroke="#191333" stroke-width="0.75" stroke-linecap="round" stroke-linejoin="round"/>
<path d="M249.65 442.44L288.09 554.791" stroke="#191333" stroke-width="0.75" stroke-linecap="round" stroke-linejoin="round"/>
<path d="M196.21 659.14L186.08 670.96L188.26 633.34L196.21 659.14Z" fill="#191333"/>
<path d="M78.27 188.72C78.27 188.72 185.81 135.21 231.16 166.13C276.52 197.06 304.07 352.17 284.29 378.71C264.51 405.26 150.87 474.91 78.27 188.71V188.72Z" fill="#008560"/>
<path d="M233.49 365.39C233.49 365.39 223.48 346.89 212.25 334.8C201.02 322.71 133.58 292.35 119.53 224.41C103.96 149.08 176.54 112.75 204.93 105.08C233.32 97.4098 314.32 92.2496 338.79 165.18C360.86 230.95 317.88 291.13 314.26 307.24C310.65 323.34 311.32 344.36 311.32 344.36L233.48 365.39H233.49Z" fill="#FFC85A"/>
<path d="M293.17 112.1C312.49 121.47 329.62 137.839 338.8 165.189C360.87 230.959 317.89 291.14 314.27 307.25C310.66 323.35 311.33 344.37 311.33 344.37L233.49 365.399C233.49 365.399 223.48 346.9 212.25 334.81" stroke="#120400" stroke-width="0.75" stroke-linecap="round" stroke-linejoin="round"/>
<path d="M119.54 224.41C103.97 149.08 176.55 112.75 204.94 105.08" stroke="#120400" stroke-width="0.75" stroke-linecap="round" stroke-linejoin="round"/>
<path d="M287.45 348.83C285.49 349.36 283.4 348.33 282.66 346.39C281.86 344.29 269.97 313 262.88 278.95C259.76 280.08 256.39 281.14 252.76 282.12C249.13 283.1 245.68 283.88 242.42 284.47C253.44 317.45 258.92 350.48 259.28 352.69C259.64 354.88 258.16 356.93 255.96 357.3C253.77 357.66 251.71 356.17 251.35 353.98C251.26 353.44 245.54 318.99 234.27 285.62C201.49 288.85 189.86 271.87 186.15 263.44C179.77 248.95 183.08 230.6 193.21 224.17C202.93 218 211.75 226.27 215.09 230.11C225.02 241.53 233.21 258.78 239.73 276.76C243.23 276.18 246.87 275.38 250.66 274.36C254.45 273.34 258 272.19 261.31 270.93C257.89 252.11 256.28 233.09 259.11 218.22C260.06 213.22 263.52 201.64 275.03 202.07C287.03 202.52 299.12 216.71 300.91 232.44C301.95 241.59 300.45 262.12 270.49 275.83C277.56 310.34 289.96 342.98 290.16 343.49C290.95 345.56 289.92 347.88 287.85 348.68C287.72 348.73 287.59 348.77 287.46 348.81L287.45 348.83ZM273.01 210.3C269.39 211.28 267.75 215.82 267.01 219.74C264.48 233.03 265.86 250.28 268.93 267.65C285.93 259.27 294.51 247.28 292.93 233.36C291.5 220.8 281.81 210.37 274.73 210.11C274.11 210.09 273.54 210.15 273.01 210.3ZM199.09 230.26C198.56 230.4 198.03 230.63 197.51 230.96C191.53 234.75 188.41 248.65 193.5 260.21C199.14 273.03 212.59 279.07 231.5 277.75C225.4 261.19 217.91 245.59 209.04 235.39C206.42 232.38 202.72 229.28 199.1 230.26H199.09Z" fill="#F4F4F4"/>
<path d="M215.32 370.44C215.06 377.95 218.33 386.589 231.28 392.899C231.28 392.899 225.88 416.879 253.89 421.129C253.89 421.129 284.12 424.79 321.76 402.8C343.82 385.02 327.08 367.02 327.08 367.02C334.36 356.14 333.77 347.619 330.59 341.389C326.28 332.919 316.78 328.06 306.77 328.67C291.4 329.6 260.28 333.529 229.22 349.629C221.1 353.839 215.61 361.75 215.31 370.45L215.32 370.44Z" fill="#191333"/>
<path d="M327.09 367.01C327.09 367.01 276.72 368.56 231.29 392.89" stroke="#F4F4F4" stroke-width="0.75" stroke-linecap="round" stroke-linejoin="round"/>
<path d="M137.11 266.699C137.11 266.699 148.36 284.289 162.05 296.079" stroke="#120400" stroke-width="0.75" stroke-linecap="round" stroke-linejoin="round"/>
<path d="M269.1 140.76C269.1 140.76 289.67 147.02 301.1 168.74C301.1 168.74 309.61 168.13 317.12 159.46C317.12 159.46 301.75 133.7 279.37 127.63C279.37 127.63 272.02 132.83 269.1 140.77V140.76Z" fill="#F4F4F4"/>
<path d="M137.24 268.32L144.25 288.99L156.47 290.85C156.47 290.85 143.45 277.25 137.24 268.32Z" fill="#191333"/>
<path d="M159.82 338.39L156.46 327.26L175.8 342.13C175.8 342.13 165.07 338.54 159.81 338.39H159.82Z" fill="#191333"/>
<path d="M236.25 419.179C236.25 419.179 250.18 427.579 256.79 430.299C263.4 433.019 274.36 437.56 307.21 436.57C307.21 436.57 322.55 436.17 324.03 429.83C324.03 429.83 324.3 427.07 321.2 426.08C321.2 426.08 332.21 423.819 332.82 419.449C333.43 415.079 329.23 414.669 329.23 414.669C329.23 414.669 339.89 412.189 339.36 407.979C338.74 403.059 333.12 401.659 321.66 403.239C321.66 403.239 334.47 401.32 334.55 396.62C334.63 391.92 327.83 390.659 318.24 392.529C308.65 394.399 290.21 394.25 286.99 393.81C279.15 392.74 274.4 389.989 284.35 390.139C291.03 390.239 300.58 390.009 300.58 385.209C300.58 378.369 292.14 379.699 284.29 378.709C276.17 377.689 262.17 381.479 252.23 383.979C247.84 385.079 243.79 386.519 239.4 389.299C233.47 393.059 225.97 412.089 236.25 419.179Z" fill="#DE633D"/>
<path d="M326.12 402.279C326.12 402.279 311.08 407.569 280.15 406.039" stroke="#120400" stroke-width="0.75" stroke-linecap="round" stroke-linejoin="round"/>
<path d="M329.23 414.67C329.23 414.67 311.94 419.86 279.44 417.74" stroke="#120400" stroke-width="0.75" stroke-linecap="round" stroke-linejoin="round"/>
<path d="M321.2 426.08C321.2 426.08 310.67 429.74 281.18 427.88" stroke="#120400" stroke-width="0.75" stroke-linecap="round" stroke-linejoin="round"/>
<path d="M55.87 226.68C55.87 226.68 47.7098 301.31 84.1798 370.1C120.65 438.89 170.74 421.35 256.79 430.29C256.79 430.29 271.31 418.72 260.55 381.89C260.55 381.89 201.79 347.6 159.82 338.38C159.82 338.38 139.53 269.11 116.09 211.76C100.01 172.4 63.79 180.24 55.86 226.67L55.87 226.68Z" fill="#008560"/>
<path d="M84.1799 370.1C120.65 438.89 170.74 421.35 256.79 430.29C256.79 430.29 271.31 418.72 260.55 381.89C260.55 381.89 201.79 347.6 159.82 338.38C159.82 338.38 139.53 269.11 116.09 211.76" stroke="#120400" stroke-width="0.75" stroke-linecap="round" stroke-linejoin="round"/>
<path d="M334.56 366.46C334.56 366.46 309.6 362.85 315.99 350.19C315.99 350.19 308.26 348.09 307.89 342.79C307.52 337.49 310.44 336.62 310.44 336.62C310.44 336.62 303.22 333.73 303.48 328.25C303.74 322.78 310.75 321.02 310.75 321.02C310.75 321.02 303.31 315.28 310.16 310.85C317.01 306.41 324.37 309.53 329.33 310.84C334.29 312.15 352.29 321.56 344.95 326.88C344.95 326.88 354.14 334.96 344.57 340.14C344.57 340.14 356.12 352.65 344.4 356.58C344.4 356.58 346.76 359.76 345.05 364.01C343.34 368.26 336.38 366.9 334.56 366.47V366.46Z" fill="#AB5F41"/>
<path d="M334.56 366.46C334.56 366.46 309.6 362.85 315.99 350.19C315.99 350.19 308.26 348.09 307.89 342.79C307.52 337.49 310.44 336.62 310.44 336.62C310.44 336.62 303.22 333.73 303.48 328.25C303.74 322.78 310.75 321.02 310.75 321.02C310.75 321.02 303.31 315.28 310.16 310.85C317.01 306.41 324.37 309.53 329.33 310.84" stroke="#191333" stroke-width="0.75" stroke-linecap="round" stroke-linejoin="round"/>
<path d="M315.99 350.189L340.25 355.139" stroke="#191333" stroke-width="0.75" stroke-linecap="round" stroke-linejoin="round"/>
<path d="M310.44 336.63L338.41 340.83" stroke="#191333" stroke-width="0.75" stroke-linecap="round" stroke-linejoin="round"/>
<path d="M310.75 321.02L337.55 327.169" stroke="#191333" stroke-width="0.75" stroke-linecap="round" stroke-linejoin="round"/>
</svg>
