<svg width="1440" height="982" viewBox="0 0 1440 982" fill="none" xmlns="http://www.w3.org/2000/svg">
<g clip-path="url(#clip0_1019_1625)">
<path d="M1114.1 512.484L1344.76 732.143L1491.9 600.65L1253.95 374.921L1114.1 512.484Z" fill="#CBE4E8"/>
<path d="M1540.28 66.5183L1240.22 364.32L1505.32 614.402L1778.25 357.268L1729.37 123.003L1540.28 66.5183Z" fill="#008560"/>
<path d="M-92.2848 990.342C-93.4358 995.447 -70.8217 1124.87 -43.6901 1187.7C-1.51348 1285.32 185.676 1316.86 182.303 1322.81L559.056 1170.81L446.033 824.3L-92.2848 990.342Z" fill="#80CD75"/>
<path d="M674.495 865.149C674.495 865.149 948.08 715.926 986.117 724.17C1024.15 732.414 1133.36 789.235 1133.36 789.235L1061.1 1122.42L710.3 1090.38L674.483 865.145L674.495 865.149Z" fill="#AB5F41"/>
<path d="M1148.31 544.273C1148.31 544.273 869.737 683.983 854.82 719.927C839.904 755.871 824.317 878.005 824.317 878.005L1143.7 988.732L1312.91 702.103L1148.3 544.258L1148.31 544.273Z" fill="#914223"/>
<path d="M845.525 1087.52L912.272 794.855C916.883 774.609 904.108 754.268 883.855 749.642C863.611 745.031 843.271 757.809 838.644 778.063L771.897 1070.73C767.286 1090.97 780.062 1111.31 800.314 1115.94C820.558 1120.55 840.898 1107.77 845.525 1087.52Z" fill="#914223"/>
<path d="M938.172 1106.13L1004.92 813.471C1009.53 793.226 996.754 772.884 976.502 768.258C956.258 763.647 935.918 776.425 931.291 796.68L864.544 1089.34C859.933 1109.59 872.708 1129.93 892.961 1134.56C913.205 1139.17 933.545 1126.39 938.172 1106.13Z" fill="#914223"/>
<path d="M1030.83 1124.76L1097.58 832.081C1102.19 811.835 1089.42 791.494 1069.16 786.867C1048.92 782.257 1028.58 795.035 1023.95 815.289L957.206 1107.95C952.594 1128.2 965.37 1148.54 985.623 1153.16C1005.87 1157.78 1026.21 1145 1030.83 1124.74L1030.83 1124.76Z" fill="#914223"/>
<path d="M1123.48 1143.37L1190.22 850.709C1194.84 830.463 1182.06 810.122 1161.81 805.496C1141.56 800.885 1121.22 813.663 1116.6 833.917L1049.85 1126.59C1045.23 1146.84 1058.01 1167.18 1078.26 1171.81C1098.51 1176.42 1118.85 1163.64 1123.47 1143.38L1123.48 1143.37Z" fill="#914223"/>
<path d="M672.495 867.205L661.586 785.605C661.586 785.605 776.82 655.51 885.82 626.01C896.043 623.243 929.65 599.266 946.82 594.01C1024.82 589.51 1087.94 551.95 1078.32 599.51C1066.63 657.317 892.053 701.197 877.828 714.598C863.603 728 811.912 838.883 811.912 838.883L672.48 867.214L672.495 867.205Z" fill="#AB5F41"/>
<path d="M1204.76 971.49L1139.61 937.394C1121.22 927.771 1098.28 934.947 1088.66 953.346C1079.03 971.745 1086.21 994.683 1104.6 1004.31L1169.75 1038.4C1188.15 1048.03 1211.08 1040.85 1220.71 1022.45C1230.33 1004.05 1223.16 981.114 1204.76 971.49Z" fill="#AB5F41"/>
<path d="M1247.31 887.107L1157.25 839.98C1138.85 830.356 1115.92 837.532 1106.29 855.931C1096.67 874.33 1103.84 897.269 1122.24 906.892L1212.3 954.019C1230.69 963.643 1253.63 956.467 1263.25 938.068C1272.88 919.669 1265.7 896.731 1247.31 887.107Z" fill="#AB5F41"/>
<path d="M1289.86 802.74L1163.42 736.564C1145.02 726.941 1122.08 734.116 1112.46 752.516C1102.83 770.915 1110.01 793.853 1128.41 803.477L1254.85 869.652C1273.25 879.276 1296.18 872.1 1305.81 853.701C1315.43 835.301 1308.26 812.363 1289.86 802.74Z" fill="#AB5F41"/>
<path d="M1332.4 718.369L1253.19 676.914C1234.72 667.242 1211.9 674.39 1202.23 692.866C1192.56 711.341 1199.71 734.154 1218.18 743.827L1297.39 785.282C1315.86 794.954 1338.68 787.806 1348.35 769.33C1358.02 750.855 1350.87 728.042 1332.4 718.369Z" fill="#AB5F41"/>
<path d="M661 773L715 1085.5L554.662 1155.15L452.083 843.601L661 773Z" fill="#CBE4E8"/>
</g>
<defs>
<clipPath id="clip0_1019_1625">
<rect width="1584.23" height="1549.32" fill="white" transform="translate(320.537 -297.841) rotate(16.6318)"/>
</clipPath>
</defs>
</svg>
