<svg width="900" height="606" viewBox="0 0 900 606" fill="none" xmlns="http://www.w3.org/2000/svg">
<path d="M404.951 62.055C404.394 69.4528 403.968 78.8623 403.968 78.8623C403.968 78.8623 392.231 72.577 388.347 94.2141C384.222 117.214 399.685 117.659 399.685 117.659C399.685 117.659 397.998 130.063 402.271 138.212C407.574 148.353 419.44 153.146 419.44 153.146L418.532 189.134C418.532 189.134 433.411 201.714 453.5 202.233C473.589 201.714 488.468 189.134 488.468 189.134L487.559 153.146C487.559 153.146 499.425 148.353 504.728 138.212C508.992 130.063 507.314 117.659 507.314 117.659C507.314 117.659 522.777 117.214 518.652 94.2141C514.768 72.577 503.032 78.8623 503.032 78.8623C503.032 78.8623 502.605 69.4528 502.049 62.055C502.049 62.055 498.647 28.5332 453.472 28.5332C408.297 28.5332 404.941 62.055 404.941 62.055H404.951Z" fill="#9C563B"/>
<path d="M410.735 78.697C412.237 76.2033 414.036 74.4604 416.168 72.9215C418.272 71.3919 420.664 70.3444 423.13 69.6213C425.614 69.0465 428.182 68.7313 430.685 68.9353C431.955 68.9723 433.16 69.2783 434.403 69.4544C435.599 69.7696 436.785 70.1312 437.953 70.5391C439.891 71.2158 440.948 73.4778 440.327 75.5914C439.733 77.5938 437.851 78.7434 436.016 78.3077L435.719 78.2335C433.782 77.7607 431.89 77.223 429.981 77.0005C428.071 76.6853 426.18 76.6946 424.289 76.8522C422.388 77.0005 420.534 77.5289 418.689 78.2335C416.891 78.9288 415.009 80.0505 413.535 81.1815L413.275 81.3854C412.46 82.0158 411.329 81.8026 410.763 80.9127C410.327 80.2359 410.346 79.3552 410.735 78.697Z" fill="#191333"/>
<path d="M496.273 78.697C494.79 76.2033 493.01 74.4604 490.897 72.9215C488.811 71.4012 486.447 70.3444 483.999 69.6213C481.543 69.0465 479.003 68.7313 476.518 68.9353C475.267 68.9723 474.071 69.2875 472.838 69.4544C471.651 69.7696 470.474 70.1312 469.315 70.5391C467.396 71.2158 466.349 73.4778 466.96 75.5914C467.544 77.5938 469.408 78.7434 471.225 78.3077L471.512 78.2335C473.431 77.7607 475.304 77.2138 477.195 77.0005C479.086 76.6853 480.959 76.6853 482.841 76.8522C484.723 77.0005 486.558 77.5289 488.384 78.2335C490.164 78.9288 492.028 80.0505 493.483 81.1815L493.743 81.3854C494.549 82.0158 495.671 81.8026 496.236 80.9127C496.663 80.2359 496.654 79.3552 496.264 78.697H496.273Z" fill="#191333"/>
<path d="M424.122 154.99C424.122 154.99 453.49 167.607 482.85 154.99C482.85 154.99 476.861 170.991 453.481 170.991C430.101 170.991 424.112 154.99 424.112 154.99H424.122Z" fill="#191333"/>
<path d="M507.203 108.926C507.203 108.926 511.18 106.247 509.892 102.836C508.603 99.4243 505.618 100.472 505.497 96.8008" stroke="#191333" stroke-width="0.695281" stroke-linecap="round" stroke-linejoin="round"/>
<path d="M506.137 85.0828C506.137 85.0828 512.765 82.0235 514.156 94.5108" stroke="#191333" stroke-width="0.695281" stroke-linecap="round" stroke-linejoin="round"/>
<path d="M399.815 108.926C399.815 108.926 395.838 106.247 397.126 102.836C398.406 99.4336 401.4 100.472 401.521 96.8008" stroke="#191333" stroke-width="0.695281" stroke-linecap="round" stroke-linejoin="round"/>
<path d="M400.881 85.0828C400.881 85.0828 394.252 82.0235 392.862 94.5108" stroke="#191333" stroke-width="0.695281" stroke-linecap="round" stroke-linejoin="round"/>
<path d="M443.96 109.982C443.96 109.982 437.749 114.506 443.562 118.632" stroke="#191333" stroke-width="0.695281" stroke-linecap="round" stroke-linejoin="round"/>
<path d="M463.336 118.633C469.148 114.507 462.937 109.983 462.937 109.983C462.937 109.983 458.821 107.295 459.488 98.7754" stroke="#191333" stroke-width="0.695281" stroke-linecap="round" stroke-linejoin="round"/>
<path d="M447.576 117.316C447.576 117.316 449.031 115.425 451.303 117.436" stroke="#191333" stroke-width="0.695281" stroke-linecap="round" stroke-linejoin="round"/>
<path d="M455.762 117.316C455.762 117.316 457.217 115.425 459.488 117.436" stroke="#191333" stroke-width="0.695281" stroke-linecap="round" stroke-linejoin="round"/>
<path d="M499.212 94.7884C499.212 94.7884 480.041 75.3113 463.725 97.208C463.725 97.208 469.611 107.303 481.468 107.804C493.325 108.305 499.212 94.7884 499.212 94.7884Z" fill="white"/>
<mask id="mask0_1019_938" style="mask-type:luminance" maskUnits="userSpaceOnUse" x="463" y="86" width="37" height="22">
<path d="M499.212 94.7865C499.212 94.7865 480.041 75.3093 463.725 97.2061C463.725 97.2061 469.612 107.302 481.468 107.802C493.325 108.303 499.212 94.7865 499.212 94.7865Z" fill="white"/>
</mask>
<g mask="url(#mask0_1019_938)">
<path d="M481.468 112.643C487.725 112.643 492.797 107.571 492.797 101.315C492.797 95.0582 487.725 89.9863 481.468 89.9863C475.212 89.9863 470.14 95.0582 470.14 101.315C470.14 107.571 475.212 112.643 481.468 112.643Z" fill="#191333"/>
</g>
<path d="M463.437 96.6513C468.221 85.9439 481.014 81.2068 491.379 87.2325C494.568 88.9846 497.293 91.3579 499.444 94.1483C499.564 94.3059 499.536 94.5284 499.379 94.6489C499.268 94.7416 499.11 94.7416 498.99 94.6767C495.949 92.9987 493.01 91.395 489.969 90.2825C480.152 86.287 471.28 89.8561 464.022 97.0221C463.781 97.3188 463.261 97.0036 463.437 96.6513Z" fill="#191333"/>
<path d="M407.797 94.7884C407.797 94.7884 426.968 75.3113 443.284 97.208C443.284 97.208 437.397 107.303 425.54 107.804C413.683 108.305 407.797 94.7884 407.797 94.7884Z" fill="white"/>
<mask id="mask1_1019_938" style="mask-type:luminance" maskUnits="userSpaceOnUse" x="407" y="86" width="37" height="22">
<path d="M407.797 94.7865C407.797 94.7865 426.968 75.3093 443.284 97.2061C443.284 97.2061 437.397 107.302 425.54 107.802C413.683 108.303 407.797 94.7865 407.797 94.7865Z" fill="white"/>
</mask>
<g mask="url(#mask1_1019_938)">
<path d="M425.54 112.643C431.797 112.643 436.869 107.571 436.869 101.315C436.869 95.0582 431.797 89.9863 425.54 89.9863C419.284 89.9863 414.212 95.0582 414.212 101.315C414.212 107.571 419.284 112.643 425.54 112.643Z" fill="#191333"/>
</g>
<path d="M442.987 97.0238C435.728 89.8578 426.856 86.2886 417.039 90.2842C413.998 91.3966 411.06 93.0004 408.019 94.6784C407.852 94.7711 407.63 94.7155 407.537 94.5393C407.463 94.4095 407.481 94.2612 407.565 94.15C409.706 91.3596 412.432 88.9863 415.63 87.2342C422.082 83.4148 430.908 83.7393 436.822 88.3467C439.761 90.5623 442.134 93.362 443.571 96.653C443.729 97.0052 443.237 97.3204 442.987 97.0238Z" fill="#191333"/>
<path d="M472.43 128.041C472.43 128.041 453.453 140.871 434.588 128.041" stroke="#191333" stroke-width="0.695281" stroke-linecap="round" stroke-linejoin="round"/>
<path d="M400.343 38.75C400.343 38.75 387.902 49.3182 391.304 58.2549C394.707 67.1916 412.849 55.2791 412.849 55.2791C412.849 55.2791 427.07 67.7385 435.654 54.1945C435.654 54.1945 451.228 68.8232 465.013 54.7321C465.013 54.7321 477.297 65.3931 492.018 53.9164C492.018 53.9164 510.188 61.8426 515.092 52.3311C519.996 42.8104 507.982 36.5807 507.982 36.5807C507.982 36.5807 516.297 28.3764 513.729 21.7758C511.162 15.1753 496.208 20.3204 496.208 20.3204C496.208 20.3204 501.845 8.66744 490.813 5.15395C479.781 1.63119 472.847 13.006 472.847 13.006C472.847 13.006 472.068 0.277712 457.783 0.815396C443.497 1.35308 444.34 14.6283 444.34 14.6283C444.34 14.6283 438.593 -0.816198 425.596 4.06004C412.598 8.93628 417.011 24.9185 417.011 24.9185C417.011 24.9185 406.471 12.459 399.11 17.6041C391.759 22.7492 400.334 38.7314 400.334 38.7314L400.343 38.75Z" fill="#191333"/>
<path d="M518.884 109.121C520.868 111.309 522.221 115.666 522.221 120.691C522.221 127.903 519.431 133.753 515.992 133.753C512.552 133.753 509.762 127.903 509.762 120.691C509.762 116.259 510.819 112.347 512.422 109.983" stroke="#191333" stroke-width="0.695281" stroke-linecap="round" stroke-linejoin="round"/>
<path d="M388.338 109.121C386.354 111.309 385 115.666 385 120.691C385 127.903 387.791 133.753 391.23 133.753C394.67 133.753 397.46 127.903 397.46 120.691C397.46 116.259 396.403 112.347 394.799 109.983" stroke="#191333" stroke-width="0.695281" stroke-linecap="round" stroke-linejoin="round"/>
<path d="M326.041 223.027C326.041 223.027 225.058 254.352 141.188 339.38L182.627 367.785C182.627 367.785 272.059 318.374 379.92 287.967C379.92 287.967 382.609 205.831 326.041 223.027Z" fill="#9C563B"/>
<path d="M608.149 235.673C608.149 235.673 685.019 248.55 769.51 339.382L728.071 367.786C728.071 367.786 638.639 318.375 530.778 287.968C530.778 287.968 551.571 218.477 608.149 235.673Z" fill="#9C563B"/>
<path d="M535.904 605.395C543.339 539.974 551.961 424.279 528.757 367.785C528.757 367.785 469.083 384.138 383.471 367.785C383.471 367.785 357.949 421.943 377.566 604.672L535.914 605.395H535.904Z" fill="#191333"/>
<path d="M284.5 223.029C330.259 206.268 404.033 190.647 404.033 190.647C408.408 180.876 418.995 170.994 418.995 170.994C434.588 190.666 453.49 196.034 453.49 196.034C472.43 188.645 488.022 170.994 488.022 170.994C488.022 170.994 499.509 178.948 503.615 188.645L626.393 221.286L575.294 328.563L528.757 310.208V367.796C466.654 384.909 383.471 367.796 383.471 367.796C382.432 353.417 384.185 310.94 384.185 310.94L341.123 328.563L284.5 223.038V223.029Z" fill="#80CD75"/>
<path d="M404.032 190.646C404.032 190.646 436.674 209.827 453.49 221.276C453.49 221.276 478.381 204.218 503.615 188.635" stroke="#191333" stroke-width="0.695281" stroke-linecap="round" stroke-linejoin="round"/>
<path d="M453.481 196.023V372.745" stroke="#191333" stroke-width="0.695281" stroke-linecap="round" stroke-linejoin="round"/>
<path d="M383.823 320.757V287.281" stroke="#191333" stroke-width="0.695281" stroke-linecap="round" stroke-linejoin="round"/>
<path d="M528.757 320.757V287.281" stroke="#191333" stroke-width="0.695281" stroke-linecap="round" stroke-linejoin="round"/>
<path d="M542.041 315.436L528.757 310.198V293.289L542.041 315.436Z" fill="#191333"/>
<path d="M384.175 310.932L367.952 317.57L383.823 295.803L384.175 310.932Z" fill="#191333"/>
<path d="M775.22 345.527C775.22 345.527 714.416 330.277 626.68 352.86C626.68 352.86 612.942 385.797 694.948 381.95C776.954 378.112 775.22 345.527 775.22 345.527Z" fill="#854228"/>
<path d="M775.22 345.526C793.177 352.127 798.035 354.185 808.853 362.083C830.917 378.205 873.171 459.098 891.703 507.805C877.946 515.258 885.455 535.079 885.325 541.095C884.333 587.901 824.02 604.662 752.98 604.662H595.291C599.11 586.835 600.844 549.133 600.844 549.133L597.265 555.937C584.574 582.45 546.111 581.264 535.524 553.842C535.45 553.647 535.376 553.443 535.302 553.249C525.698 527.43 527.357 496.708 527.357 496.708C565.431 487.605 568.545 443.227 568.545 443.227C573.236 414.044 576.184 408.408 576.184 408.408C583.276 372.67 611.199 358.208 626.671 352.841C626.671 352.841 621.693 368.786 696.06 368.786C770.427 368.786 775.22 345.508 775.22 345.508V345.526Z" fill="#008560"/>
<path d="M501.706 350.17C501.706 350.17 515.129 466.773 530.351 534.494C565.588 538.035 588.134 466.773 588.134 466.773C573.895 406.877 551.488 341.873 551.488 341.873L501.706 350.17Z" fill="#854228"/>
<path d="M768.499 443.246C768.499 443.246 782.581 491.109 796.032 524.622" stroke="#191333" stroke-width="0.695281" stroke-linecap="round" stroke-linejoin="round"/>
<path d="M785.742 496.727L779.503 533.678L798.313 527.551C798.313 527.551 788.783 505.83 785.742 496.727Z" fill="#191333"/>
<path d="M595.328 602.79C595.328 602.79 604.413 545.239 599.462 502.799C599.462 502.799 570.678 436.284 631.621 381.959" stroke="#191333" stroke-width="0.695281" stroke-linecap="round" stroke-linejoin="round"/>
<path d="M588.143 466.774C588.143 466.774 571.864 406.609 558.719 363.965" stroke="#191333" stroke-width="0.695281" stroke-linecap="round" stroke-linejoin="round"/>
<path d="M532.048 359.645C535.561 358.607 558.431 347.158 557.662 334.55C556.902 321.942 551.469 319.189 551.469 319.189C551.469 319.189 549.791 305.83 547.826 291.331C545.518 274.209 548.058 257.8 537.323 258.885C537.323 258.885 530.991 259.367 531.779 269.017C531.955 271.224 531.992 283.136 532.15 293.278C532.15 293.278 526.152 283.924 519.125 294.038C519.125 294.038 510.105 291.98 508.158 303.392C508.158 303.392 495.448 300.361 496.375 313.571C496.375 313.571 493.77 327.505 499.583 345.146C499.583 345.146 504.598 367.785 532.038 359.645H532.048Z" fill="#AB5F41"/>
<path d="M535.459 312.801C533.531 303.02 532.159 293.286 532.159 293.286C532.159 293.286 529.971 289.059 524.771 289.476C522.054 289.448 519.134 294.037 519.134 294.037C519.134 294.037 516.093 312.383 521.22 319.086C521.22 319.086 522.425 320.755 524.761 320.755" fill="#854228"/>
<path d="M520.849 318.558C523.621 322.498 510.522 327.708 507.843 322.341C505.164 316.982 508.167 303.392 508.167 303.392C508.167 303.392 509.354 292.508 519.134 294.038C519.134 294.038 515.89 311.503 520.849 318.558Z" fill="#854228"/>
<path d="M507.027 319.977C507.027 319.977 505.006 322.925 501.02 322.462C497.034 321.998 496.681 317.567 496.375 313.581C496.375 313.581 495.745 305.96 500.64 304.023C505.534 302.085 508.158 303.402 508.158 303.402C508.158 303.402 505.813 314.35 507.018 319.986L507.027 319.977Z" fill="#854228"/>
<path d="M550.922 318.986C556.911 322.286 557.263 330.852 557.662 334.551C558.06 338.249 555.001 346.574 548.475 351.506C541.949 356.438 532.038 360.888 530.101 360.174C521.785 357.05 522.054 347.705 522.054 347.705V347.029C522.082 344.831 523.046 342.115 523.046 342.115C528.516 331.028 541.133 333.707 541.133 333.707C516.492 326.819 524.446 306.369 531.473 310.642C538.5 314.916 551.479 319.162 551.479 319.162" fill="#854228"/>
<path d="M704.135 188.636C704.135 188.636 758.292 147.133 787.874 204.952C817.456 262.772 776.147 300.502 782.266 320.749C782.266 320.749 782.331 330.909 771.901 317.161C761.472 303.404 748.558 282.638 748.558 262.883C748.558 243.128 704.125 188.636 704.125 188.636H704.135Z" fill="#191333"/>
<path d="M611.718 292.038C615.102 314.379 634.987 331.14 663.002 321.351L665.737 320.35L660.082 346.974C660.082 346.974 669.083 361.482 692.148 360.083C726.059 358.034 737.119 340.364 737.119 340.364L727.932 279.569C727.932 279.569 743.441 283.667 742.069 261.297C740.614 237.546 724.391 243.294 724.391 243.294L724.177 241.82C722.092 210.087 699.787 193.799 673.403 192.835L667.313 192.548C667.313 192.548 595.244 183.361 611.709 292.029L611.718 292.038Z" fill="#854228"/>
<path d="M725.225 256.625C725.225 256.625 722.481 259.675 725.466 260.917C731.825 263.578 723.649 265.831 725.763 268.046" stroke="#191333" stroke-width="0.695281" stroke-linecap="round" stroke-linejoin="round"/>
<path d="M723.955 249.793C723.955 249.793 734.412 243.471 733.846 259.443" stroke="#191333" stroke-width="0.695281" stroke-linecap="round" stroke-linejoin="round"/>
<path d="M653.592 241.914C655.057 241.719 657.152 241.413 658.979 241.367C660.87 241.265 662.798 241.265 664.726 241.46C666.654 241.645 668.592 241.97 670.585 242.303C672.597 242.572 674.609 243.045 676.88 243.129H676.935C677.492 243.147 677.964 242.48 678.001 241.636C678.02 241.228 677.927 240.848 677.77 240.57C676.286 237.928 674.469 235.833 672.495 234.21C670.53 232.486 668.36 231.466 666.154 230.567C663.938 229.705 661.63 229.269 659.303 229.167C656.902 229.149 654.733 229.325 652.026 230.521C649.968 231.429 648.707 234.674 649.208 237.789C649.643 240.514 651.293 242.229 653.083 241.988L653.583 241.923L653.592 241.914Z" fill="#191333"/>
<mask id="mask2_1019_938" style="mask-type:luminance" maskUnits="userSpaceOnUse" x="610" y="226" width="23" height="21">
<path d="M614.972 226.246C614.972 226.246 611.82 233.44 610.225 246.057C610.225 246.057 630.352 246.78 632.595 239.049C632.595 239.049 634.264 227.646 614.963 226.246H614.972Z" fill="white"/>
</mask>
<g mask="url(#mask2_1019_938)">
<path d="M625.327 230.863C623.408 229.899 621.888 229.732 620.126 229.723C618.42 229.769 616.696 230.158 615.009 230.872C613.331 231.586 611.672 232.532 610.179 234.052C608.687 235.489 607.361 237.417 606.415 239.763C606.1 240.551 606.248 241.505 606.749 241.913C606.888 242.024 607.046 242.08 607.203 242.089H607.305C608.992 242.136 610.355 241.867 611.718 241.811C613.053 241.709 614.314 241.515 615.565 241.524C616.817 241.496 618.05 241.542 619.273 241.681C620.441 241.746 621.832 242.015 622.713 242.025H623.454C625.568 242.043 627.431 239.494 627.635 236.332C627.793 233.783 626.81 231.614 625.318 230.863H625.327Z" fill="#191333"/>
</g>
<mask id="mask3_1019_938" style="mask-type:luminance" maskUnits="userSpaceOnUse" x="609" y="242" width="26" height="33">
<path d="M610.726 242.564C610.726 242.564 608.399 254.338 609.66 272.638C609.66 272.638 620.052 276.884 627.357 270.96C630.732 268.225 632.4 262.653 634.403 253.884C634.403 253.884 624.539 243.881 610.726 242.564Z" fill="white"/>
</mask>
<g mask="url(#mask3_1019_938)">
<path d="M634.931 258.953C634.931 258.953 615.927 236.222 596.366 258.443C596.366 258.443 601.836 269.873 614.601 271.459C627.366 273.044 634.922 258.953 634.922 258.953H634.931Z" fill="white"/>
<mask id="mask4_1019_938" style="mask-type:luminance" maskUnits="userSpaceOnUse" x="596" y="248" width="39" height="24">
<path d="M634.931 258.955C634.931 258.955 615.927 236.224 596.366 258.445C596.366 258.445 601.836 269.875 614.601 271.461C627.367 273.046 634.922 258.955 634.922 258.955H634.931Z" fill="white"/>
</mask>
<g mask="url(#mask4_1019_938)">
<path d="M600.343 259.389C599.796 266.157 604.302 272.043 610.411 272.535C616.52 273.035 621.925 267.955 622.481 261.197C623.028 254.43 618.523 248.543 612.413 248.052C606.304 247.551 600.9 252.631 600.343 259.399V259.389Z" fill="#191333"/>
</g>
<path d="M596.403 258.035C596.403 258.035 613.164 233.422 634.968 258.554" stroke="#191333" stroke-width="2.78113" stroke-linecap="round" stroke-linejoin="round"/>
</g>
<path d="M685.019 261.707C685.019 261.707 666.015 238.967 646.454 261.197C646.454 261.197 651.924 272.627 664.689 274.213C677.454 275.798 685.01 261.707 685.01 261.707H685.019Z" fill="white"/>
<mask id="mask5_1019_938" style="mask-type:luminance" maskUnits="userSpaceOnUse" x="646" y="251" width="40" height="24">
<path d="M685.019 261.705C685.019 261.705 666.015 238.965 646.454 261.195C646.454 261.195 651.924 272.625 664.689 274.211C677.454 275.796 685.01 261.705 685.01 261.705H685.019Z" fill="white"/>
</mask>
<g mask="url(#mask5_1019_938)">
<path d="M646.25 258.944C643.914 267.436 650.737 275.464 659.498 274.528C664.392 274.009 668.592 270.431 669.899 265.693C672.235 257.202 665.412 249.173 656.652 250.11C651.757 250.629 647.557 254.207 646.25 258.944Z" fill="#191333"/>
</g>
<path d="M646.065 260.492C652.906 249.692 666.21 244.39 677.288 252.51C680.579 254.809 683.267 257.757 685.446 260.984C685.603 261.225 685.548 261.54 685.307 261.707C685.103 261.846 684.825 261.818 684.648 261.642C681.932 258.963 679.095 256.46 675.953 254.559C665.422 247.773 654.659 252.575 646.908 261.095C646.519 261.595 645.713 261.039 646.065 260.502V260.492Z" fill="#191333"/>
<path d="M665.737 320.351L681.598 315.809L662.409 336.046L665.737 320.351Z" fill="#191333"/>
<path d="M727.941 279.579L721.137 277.688" stroke="#191333" stroke-width="0.695281" stroke-linecap="round" stroke-linejoin="round"/>
<path d="M634.301 253.539C632.15 265.563 627.172 269.206 627.172 269.206C627.172 269.206 624.307 271.533 625.475 274.435C626.643 277.346 628.442 275.927 630.898 277.689" stroke="#191333" stroke-width="0.695281" stroke-linecap="round" stroke-linejoin="round"/>
<path d="M637.258 275.845C637.258 275.845 637.703 275.678 638.482 275.817C639.26 275.947 639.817 276.726 639.817 276.726" stroke="#191333" stroke-width="0.695281" stroke-linecap="round" stroke-linejoin="round"/>
<path d="M642.867 269.91C642.867 269.91 646.946 272.58 643.58 277.41" stroke="#191333" stroke-width="0.695281" stroke-linecap="round" stroke-linejoin="round"/>
<path d="M649.096 286.643C649.096 286.643 636.655 300.27 624.919 288.914" stroke="#191333" stroke-width="0.695281" stroke-linecap="round" stroke-linejoin="round"/>
<path d="M651.062 281.293C651.062 281.293 655.344 283.379 654.612 287.588" stroke="#191333" stroke-width="0.695281" stroke-linecap="round" stroke-linejoin="round"/>
<path d="M724.4 243.302C724.4 243.302 721.164 259.173 715.945 262.882C713.544 264.587 708.705 249.263 705.34 248.549C685.881 244.387 675.285 252.749 652.888 206.86C652.888 206.86 630.073 199.583 614.972 226.245C614.972 226.245 606.999 219.987 616.474 205.359C625.957 190.73 704.385 151.442 733.874 196.033C763.354 240.614 761.519 293.483 728.915 299.861L727.941 279.587C727.941 279.587 743.228 283.425 742.079 261.315C740.892 238.426 724.4 243.312 724.4 243.312V243.302Z" fill="#191333"/>
<path d="M717.688 179.812C717.688 179.812 737.314 190.149 748.336 224.783C759.359 259.418 751.405 279.979 751.405 279.979" stroke="#F4F4F4" stroke-width="0.695281" stroke-linecap="round" stroke-linejoin="round"/>
<path d="M715.649 604.674L708.455 556.82L798.313 527.553L890.822 508.947C890.822 508.947 905.34 535.822 897.868 568.816C890.396 601.809 835.617 604.683 715.649 604.683V604.674Z" fill="#854228"/>
<path d="M892.046 508.742L798.313 527.552" stroke="#191333" stroke-width="0.695281" stroke-linecap="round" stroke-linejoin="round"/>
<path d="M672.078 582.721H558.719V604.747H672.078V582.721Z" fill="#FFC85A"/>
<path d="M606.378 582.721H558.719V593.734" stroke="#191333" stroke-width="0.695281" stroke-linecap="round" stroke-linejoin="round"/>
<path d="M732.734 548.91L715.639 604.671C715.639 604.671 675.127 601.436 668.24 589.245C668.24 589.245 648.772 604.504 640.567 596.819C640.567 596.819 631.427 601.946 623.334 596.56C623.334 596.56 615.713 602.196 607.75 595.531C607.75 595.531 594.855 601.167 592.046 590.404C589.237 579.641 628.377 562.472 642.913 554.018C657.449 545.563 672.319 551.246 681.042 550.708C688.774 550.226 719.69 549.141 732.725 548.9L732.734 548.91Z" fill="#854228"/>
<path d="M697.747 594.651C697.747 594.651 686.79 599.935 671.957 586.725C671.957 586.725 659.794 596.894 650.487 598.507" stroke="#191333" stroke-width="0.695281" stroke-linecap="round" stroke-linejoin="round"/>
<path d="M640.577 596.818C640.577 596.818 632.789 590.421 669.38 572.094" stroke="#191333" stroke-width="0.695281" stroke-linecap="round" stroke-linejoin="round"/>
<path d="M623.343 596.57C623.343 596.57 612.96 586.725 656.475 566.107" stroke="#191333" stroke-width="0.695281" stroke-linecap="round" stroke-linejoin="round"/>
<path d="M607.759 595.539C607.759 595.539 597.979 582.839 645.842 562.055" stroke="#191333" stroke-width="0.695281" stroke-linecap="round" stroke-linejoin="round"/>
<path d="M732.734 548.91C732.734 548.91 765.459 552.248 752.981 604.672" stroke="#F4F4F4" stroke-width="0.695281" stroke-linecap="round" stroke-linejoin="round"/>
<path d="M430.388 397.145C430.388 397.145 401.696 417.92 380.745 414.824C359.785 411.737 372.216 375.156 394.363 355.011C416.51 334.866 425.92 335.154 430.666 340.577C430.666 340.577 432.029 342.209 432.298 344.99C432.298 344.99 461.398 325.689 469.287 337.332C469.287 337.332 471.021 340.466 469.639 343.21C469.639 343.21 482.201 341.801 484.249 349.097C484.249 349.097 484.639 352.388 483.23 354.251C483.23 354.251 489.209 355.567 489.144 360.536C489.089 365.505 486.15 366.423 481.264 368.796C481.264 368.796 485.297 377.084 461.157 385.742C461.157 385.742 438.583 393.085 430.398 397.145H430.388Z" fill="#AB5F41"/>
<path d="M431.408 380.494C431.408 380.494 474.599 356.734 481.255 368.804" stroke="#191333" stroke-width="0.695281" stroke-linecap="round" stroke-linejoin="round"/>
<path d="M483.22 354.26C483.22 354.26 469.686 347.057 429.563 365.385" stroke="#191333" stroke-width="0.695281" stroke-linecap="round" stroke-linejoin="round"/>
<path d="M425.178 359.127C425.178 359.127 448.345 342.931 469.621 343.219" stroke="#191333" stroke-width="0.695281" stroke-linecap="round" stroke-linejoin="round"/>
<path d="M435.672 343.219C435.672 343.219 413.878 354.362 401.882 364.04" stroke="#191333" stroke-width="0.695281" stroke-linecap="round" stroke-linejoin="round"/>
<path d="M324.594 408.427C324.594 408.427 330.296 429.842 334.987 459.025C334.987 459.025 341.976 422.37 376.481 377.548C376.481 377.548 429.109 383.629 425.827 406.759C403.208 566.182 343.673 604.673 343.673 604.673H82.859C11.8105 604.673 0.991907 587.754 -2.7762e-05 540.948C-0.537712 515.51 63.0203 383.212 91.9254 362.094C102.744 354.195 107.602 352.137 125.559 345.537C162.269 332.039 216.112 344.1 263.641 350.024C263.641 350.024 314.638 358.265 324.594 408.437V408.427Z" fill="#E2F99C"/>
<path d="M195.522 537.62L104.746 524.633C104.746 524.633 133.587 480.44 142.449 430.111" stroke="#191333" stroke-width="0.695281" stroke-linecap="round" stroke-linejoin="round"/>
<path d="M305.562 605.394C305.562 605.394 296.375 545.229 301.316 502.789C301.316 502.789 330.101 436.274 269.157 381.949" stroke="#191333" stroke-width="0.695281" stroke-linecap="round" stroke-linejoin="round"/>
<path d="M327.561 490.61C327.561 490.61 334.44 450.191 354.677 410.578" stroke="#191333" stroke-width="0.695281" stroke-linecap="round" stroke-linejoin="round"/>
<path d="M289.061 292.038C285.677 314.379 265.792 331.14 237.777 321.351L235.042 320.35L240.697 346.974C240.697 346.974 231.696 361.482 208.631 360.083C174.72 358.034 169.083 340.364 169.083 340.364L172.847 279.569C172.847 279.569 157.338 283.667 158.71 261.297C160.165 237.546 176.388 243.294 176.388 243.294L176.602 241.82C178.687 210.087 200.992 193.799 227.376 192.835L233.466 192.548C233.466 192.548 305.535 183.361 289.07 292.029L289.061 292.038Z" fill="#AB5F41"/>
<path d="M175.563 256.625C175.563 256.625 178.307 259.675 175.322 260.917C168.963 263.578 177.139 265.831 175.026 268.046" stroke="#191333" stroke-width="0.695281" stroke-linecap="round" stroke-linejoin="round"/>
<path d="M176.824 249.793C176.824 249.793 166.367 243.471 166.932 259.443" stroke="#191333" stroke-width="0.695281" stroke-linecap="round" stroke-linejoin="round"/>
<path d="M244.915 239.669C243.45 239.567 241.374 239.41 239.538 239.41C237.647 239.382 235.728 239.409 233.8 239.567C231.872 239.725 229.925 239.966 227.932 240.225C225.911 240.439 223.899 240.782 221.628 240.874H221.572C221.025 240.902 220.553 240.466 220.534 239.919C220.525 239.651 220.617 239.409 220.784 239.224C222.314 237.472 224.159 236.072 226.17 234.978C228.164 233.819 230.351 233.115 232.576 232.485C234.81 231.882 237.119 231.557 239.446 231.446C241.837 231.391 244.007 231.465 246.695 232.197C248.735 232.753 249.94 234.848 249.384 236.888C248.901 238.677 247.214 239.827 245.434 239.697L244.934 239.66L244.915 239.669Z" fill="#191333"/>
<mask id="mask6_1019_938" style="mask-type:luminance" maskUnits="userSpaceOnUse" x="268" y="226" width="23" height="21">
<path d="M285.816 226.246C285.816 226.246 288.968 233.44 290.563 246.057C290.563 246.057 270.437 246.78 268.193 239.049C268.193 239.049 266.525 227.646 285.826 226.246H285.816Z" fill="white"/>
</mask>
<g mask="url(#mask6_1019_938)">
<path d="M275.684 232.94C277.631 232.236 279.151 232.069 280.903 231.995C282.6 231.967 284.305 232.162 285.955 232.579C287.606 232.996 289.228 233.571 290.646 234.535C292.083 235.443 293.335 236.676 294.188 238.215C294.475 238.725 294.29 239.374 293.78 239.661C293.631 239.745 293.483 239.782 293.325 239.791H293.223C291.536 239.884 290.192 239.754 288.839 239.763C287.513 239.745 286.271 239.661 285.019 239.708C283.777 239.736 282.544 239.81 281.32 239.94C280.152 240.023 278.762 240.255 277.881 240.292L277.149 240.32C275.044 240.403 273.274 238.771 273.19 236.667C273.125 234.971 274.182 233.487 275.693 232.931L275.684 232.94Z" fill="#191333"/>
</g>
<mask id="mask7_1019_938" style="mask-type:luminance" maskUnits="userSpaceOnUse" x="266" y="242" width="26" height="33">
<path d="M290.053 242.559C290.053 242.559 292.38 254.332 291.119 272.632C291.119 272.632 280.727 276.878 273.422 270.954C270.047 268.219 268.379 262.648 266.376 253.878C266.376 253.878 276.24 243.875 290.053 242.559Z" fill="white"/>
</mask>
<g mask="url(#mask7_1019_938)">
<path d="M265.848 258.949C265.848 258.949 284.852 236.218 304.413 258.439C304.413 258.439 298.943 269.869 286.178 271.455C273.412 273.04 265.857 258.949 265.857 258.949H265.848Z" fill="white"/>
<mask id="mask8_1019_938" style="mask-type:luminance" maskUnits="userSpaceOnUse" x="265" y="248" width="40" height="24">
<path d="M265.848 258.951C265.848 258.951 284.852 236.22 304.413 258.441C304.413 258.441 298.943 269.871 286.178 271.457C273.412 273.042 265.857 258.951 265.857 258.951H265.848Z" fill="white"/>
</mask>
<g mask="url(#mask8_1019_938)">
<path d="M300.436 259.385C300.983 266.153 296.477 272.04 290.368 272.531C284.259 273.031 278.854 267.951 278.298 261.193C277.751 254.426 282.256 248.539 288.366 248.048C294.475 247.547 299.879 252.627 300.436 259.395V259.385Z" fill="#191333"/>
</g>
<path d="M304.385 258.031C304.385 258.031 287.624 233.418 265.82 258.55" stroke="#191333" stroke-width="2.78113" stroke-linecap="round" stroke-linejoin="round"/>
</g>
<path d="M215.769 261.705C215.769 261.705 234.773 238.965 254.334 261.195C254.334 261.195 248.864 272.625 236.099 274.211C223.334 275.796 215.778 261.705 215.778 261.705H215.769Z" fill="white"/>
<mask id="mask9_1019_938" style="mask-type:luminance" maskUnits="userSpaceOnUse" x="215" y="251" width="40" height="24">
<path d="M215.769 261.703C215.769 261.703 234.773 238.963 254.334 261.193C254.334 261.193 248.864 272.624 236.099 274.209C223.334 275.794 215.778 261.703 215.778 261.703H215.769Z" fill="white"/>
</mask>
<g mask="url(#mask9_1019_938)">
<path d="M254.538 258.943C256.874 267.434 250.051 275.462 241.29 274.526C236.396 274.007 232.196 270.429 230.889 265.691C228.553 257.2 235.376 249.171 244.136 250.108C249.031 250.627 253.231 254.205 254.538 258.943Z" fill="#191333"/>
</g>
<path d="M253.87 261.094C241.365 247.475 228.525 248.402 216.501 261.946C216.066 262.54 215.092 262.419 214.833 261.733C213.887 259.434 212.951 257.117 212.098 254.771C211.894 254.187 212.719 253.798 213.034 254.335C214.295 256.495 215.482 258.683 216.64 260.88L214.972 260.667C222.509 250.312 234.727 244.342 246.417 252.129C249.754 254.345 252.554 257.181 254.723 260.491C255.066 261.038 254.288 261.603 253.88 261.084L253.87 261.094Z" fill="#191333"/>
<path d="M235.042 320.349L219.18 315.807L238.379 336.044L235.042 320.349Z" fill="#191333"/>
<path d="M274.154 285.428C274.154 285.428 262.511 286.624 245.11 284.695C245.11 284.695 243.719 302.838 259.766 303.412C271.818 303.848 274.154 285.428 274.154 285.428Z" fill="#191333"/>
<path d="M246.259 293.318C246.259 293.318 255.734 292.947 262.798 298.565C264.865 300.215 263.855 303.293 261.166 303.524C259.247 303.691 256.698 303.441 253.425 302.226C253.425 302.226 247.872 299.696 246.25 293.327L246.259 293.318Z" fill="#FF5D2C"/>
<path d="M274.154 285.428C274.154 285.428 262.742 295.69 245.11 284.695L274.154 285.428Z" fill="white"/>
<path d="M172.847 279.579L179.651 277.688" stroke="#191333" stroke-width="0.695281" stroke-linecap="round" stroke-linejoin="round"/>
<path d="M266.487 253.537C268.638 265.561 273.616 269.204 273.616 269.204C273.616 269.204 276.481 271.531 275.313 274.433C274.145 277.344 272.346 275.925 269.89 277.687" stroke="#191333" stroke-width="0.695281" stroke-linecap="round" stroke-linejoin="round"/>
<path d="M263.521 275.843C263.521 275.843 263.076 275.676 262.297 275.815C261.519 275.945 260.962 276.724 260.962 276.724" stroke="#191333" stroke-width="0.695281" stroke-linecap="round" stroke-linejoin="round"/>
<path d="M257.922 269.908C257.922 269.908 253.843 272.578 257.208 277.408" stroke="#191333" stroke-width="0.695281" stroke-linecap="round" stroke-linejoin="round"/>
<path d="M176.379 243.303C176.379 243.303 182.303 250.877 181.895 259.434C181.487 267.981 195.865 268.649 196.681 251.368C197.506 234.088 226.745 242.107 225.067 211.7C225.067 211.7 241.077 228.665 270.279 220.656C287.198 216.011 288.393 234.367 288.393 234.367C288.393 234.367 292.454 179.365 225.067 178.79C157.681 178.216 138.38 225.254 133.095 242.543C127.811 259.832 171.679 298.425 171.679 298.425L172.847 279.569C172.847 279.569 157.236 284.436 158.71 261.297C159.887 242.775 170.177 241.746 176.388 243.294L176.379 243.303Z" fill="#191333"/>
<path d="M188.597 200.678C196.505 202.31 207.175 210.338 207.296 216.864C207.426 223.391 198.758 230.668 194.123 221.259C189.478 211.849 181.32 206.574 181.32 206.574C174.543 202.811 180.69 199.047 188.597 200.678ZM202.438 216.67C202.318 213.898 197.877 208.039 193.094 205.629C188.319 203.218 181.793 202.959 188.069 207.659C194.345 212.359 197.108 216.531 197.108 216.531C198.952 219.766 202.549 219.442 202.438 216.67Z" fill="#FFC85A"/>
<path d="M379.902 587.754H245.861V604.682H379.902V587.754Z" fill="#BB98F2"/>
<path d="M192.148 559.099L185.14 604.766C185.14 604.766 220.488 610.615 232.539 586.651C232.539 586.651 252.007 601.91 260.211 594.225C260.211 594.225 269.352 599.352 277.445 593.966C277.445 593.966 285.065 599.602 293.029 592.937C293.029 592.937 305.924 598.573 308.733 587.81C311.542 577.047 272.402 559.878 257.866 551.424C243.33 542.969 228.099 550.144 220.126 553.732C212.154 557.32 205.191 559.322 192.148 559.09V559.099Z" fill="#AB5F41"/>
<path d="M203.041 592.057C203.041 592.057 213.998 597.341 228.831 584.131C228.831 584.131 240.994 594.301 250.301 595.914" stroke="#191333" stroke-width="0.695281" stroke-linecap="round" stroke-linejoin="round"/>
<path d="M260.211 594.236C260.211 594.236 267.999 587.839 231.408 569.512" stroke="#191333" stroke-width="0.695281" stroke-linecap="round" stroke-linejoin="round"/>
<path d="M277.436 593.974C277.436 593.974 287.819 584.129 244.303 563.512" stroke="#191333" stroke-width="0.695281" stroke-linecap="round" stroke-linejoin="round"/>
<path d="M293.019 592.946C293.019 592.946 302.8 580.245 254.937 559.461" stroke="#191333" stroke-width="0.695281" stroke-linecap="round" stroke-linejoin="round"/>
<path d="M582.507 450.154H365.394C361.806 450.154 358.617 452.416 357.421 455.8L309.113 593.429C307.185 598.917 311.264 604.674 317.085 604.674H534.199C537.786 604.674 540.975 602.412 542.171 599.028L590.479 461.399C592.408 455.911 588.329 450.154 582.507 450.154Z" fill="#BB98F2"/>
<path d="M365.394 450.154C361.806 450.154 358.617 452.416 357.421 455.8L328.247 538.909" stroke="#191333" stroke-width="0.695281" stroke-linecap="round" stroke-linejoin="round"/>
<path d="M542.171 599.028L590.479 461.399C592.408 455.911 588.329 450.154 582.507 450.154H413.247" stroke="#191333" stroke-width="0.695281" stroke-linecap="round" stroke-linejoin="round"/>
<path d="M463.539 535.349C458.459 543.498 449.096 546.826 442.616 542.784C436.136 538.742 435.005 528.869 440.085 520.721C445.165 512.572 454.529 509.244 461.009 513.286C467.489 517.328 468.62 527.201 463.539 535.349Z" fill="#F4F4F4"/>
<path d="M307.324 587.754H534.551" stroke="#191333" stroke-width="0.695281" stroke-linecap="round" stroke-linejoin="round"/>
<path d="M195.522 537.621L186.4 592.622" stroke="#191333" stroke-width="0.695281" stroke-linecap="round" stroke-linejoin="round"/>
<path d="M104.895 351.088C104.895 351.088 120.478 376.128 131.037 363.335C131.037 363.335 136.915 370.621 142.764 368.526C148.614 366.431 148.169 362.899 148.169 362.899C148.169 362.899 154.658 369.277 160.406 366.422C166.144 363.576 164.735 355.242 164.735 355.242C164.735 355.242 174.376 360.516 175.906 351.098C177.445 341.679 170.641 335.255 166.914 330.555C163.187 325.854 144.656 311.003 142.403 321.368C142.403 321.368 129.433 315.314 128.377 327.996C128.377 327.996 109.558 321.507 110.856 335.894C110.856 335.894 106.341 334.856 102.596 338.685C98.8504 342.513 103.569 349.318 104.895 351.07V351.088Z" fill="#9C563B"/>
<path d="M104.895 351.089C104.895 351.089 120.478 376.128 131.037 363.335C131.037 363.335 136.915 370.621 142.764 368.526C148.614 366.431 148.169 362.899 148.169 362.899C148.169 362.899 154.658 369.277 160.406 366.422C166.144 363.576 164.735 355.242 164.735 355.242C164.735 355.242 174.377 360.517 175.906 351.098C177.445 341.679 170.641 335.255 166.914 330.555" stroke="#191333" stroke-width="0.695281" stroke-linecap="round" stroke-linejoin="round"/>
<path d="M131.037 363.334L114.341 339.686" stroke="#191333" stroke-width="0.695281" stroke-linecap="round" stroke-linejoin="round"/>
<path d="M148.178 362.908L130.537 334.939" stroke="#191333" stroke-width="0.695281" stroke-linecap="round" stroke-linejoin="round"/>
<path d="M164.735 355.252L145.564 329.443" stroke="#191333" stroke-width="0.695281" stroke-linecap="round" stroke-linejoin="round"/>
<path d="M800.463 351.088C800.463 351.088 784.88 376.128 774.321 363.335C774.321 363.335 768.443 370.621 762.594 368.526C756.744 366.431 757.189 362.899 757.189 362.899C757.189 362.899 750.7 369.277 744.952 366.422C739.214 363.576 740.623 355.242 740.623 355.242C740.623 355.242 730.982 360.516 729.452 351.098C727.913 341.679 734.718 335.255 738.444 330.555C742.171 325.854 760.703 311.003 762.955 321.368C762.955 321.368 775.925 315.314 776.982 327.996C776.982 327.996 795.8 321.507 794.503 335.894C794.503 335.894 799.017 334.856 802.763 338.685C806.508 342.513 801.789 349.318 800.463 351.07V351.088Z" fill="#9C563B"/>
<path d="M800.463 351.089C800.463 351.089 784.88 376.128 774.321 363.335C774.321 363.335 768.443 370.621 762.594 368.526C756.744 366.431 757.189 362.899 757.189 362.899C757.189 362.899 750.7 369.277 744.952 366.422C739.214 363.576 740.623 355.242 740.623 355.242C740.623 355.242 730.982 360.517 729.452 351.098C727.913 341.679 734.718 335.255 738.444 330.555" stroke="#191333" stroke-width="0.695281" stroke-linecap="round" stroke-linejoin="round"/>
<path d="M774.312 363.334L791.017 339.686" stroke="#191333" stroke-width="0.695281" stroke-linecap="round" stroke-linejoin="round"/>
<path d="M757.18 362.908L774.812 334.939" stroke="#191333" stroke-width="0.695281" stroke-linecap="round" stroke-linejoin="round"/>
<path d="M740.614 355.252L759.794 329.443" stroke="#191333" stroke-width="0.695281" stroke-linecap="round" stroke-linejoin="round"/>
</svg>
