<svg width="130" height="24" viewBox="0 0 130 24" fill="none" xmlns="http://www.w3.org/2000/svg">
<path d="M12.396 18.8758H0V0.261439H2.97827V16.4967H12.396V18.8758Z" fill="#041402"/>
<path d="M17.0414 18.8758H14.1973V5.38562H17.0414V18.8758ZM15.6194 3.03268C14.5193 3.03268 13.929 2.40523 13.929 1.56863C13.929 0.732028 14.5193 0.0784319 15.6194 0.0784319C16.6926 0.0784319 17.3097 0.732028 17.3097 1.56863C17.3097 2.40523 16.6926 3.03268 15.6194 3.03268Z" fill="#041402"/>
<path d="M27.3461 18.8758H23.9117L18.6528 5.38562H21.6042L25.6289 16.4183L29.6267 5.38562H32.605L27.3461 18.8758Z" fill="#041402"/>
<path d="M39.709 19.1373C35.3087 19.1373 32.867 16.4183 32.867 12.1307C32.867 7.97386 35.1745 5.12418 39.548 5.12418C43.9215 5.12418 46.229 8.02614 46.229 11.8954C46.229 12.1569 46.2022 12.3922 46.1754 12.6536H35.7112C35.7916 15.8431 37.3479 17.2288 39.709 17.2288C41.6677 17.2288 42.9019 16.2353 43.3312 14.6928H45.9339C45.3168 17.4379 43.3044 19.1373 39.709 19.1373ZM39.548 7.03268C37.4015 7.03268 36.0063 8.28758 35.7112 10.8235H43.3849C43.0898 8.28758 41.6945 7.03268 39.548 7.03268Z" fill="#041402"/>
<path d="M57.1122 19.1373C51.0752 19.1373 47.8286 15.2418 47.8286 9.56863C47.8286 3.89543 51.0752 0 57.1122 0C62.3175 0 65.6982 3.03268 65.6982 6.90196H62.9078C62.559 4.31373 60.6808 2.37909 57.1122 2.37909C52.9534 2.37909 50.8069 4.96732 50.8069 9.56863C50.8069 14.1699 52.9534 16.7582 57.1122 16.7582C60.6271 16.7582 62.559 14.9281 62.9078 12.0784H65.6982C65.6982 16.0261 62.4248 19.1373 57.1122 19.1373Z" fill="#041402"/>
<path d="M72.2608 19.1373C69.041 19.1373 67.297 17.5686 67.297 15.0588C67.297 13.0458 68.5581 11.451 71.9925 11.1634L74.6756 10.9542C76.3123 10.7974 76.7953 10.4314 76.7953 9.56863C76.7953 8.02614 75.883 7.11111 73.8707 7.11111C71.9925 7.11111 70.9729 7.89543 70.8387 9.56863H68.0483C68.0483 6.84967 69.7655 5.12418 73.8438 5.12418C77.8954 5.12418 79.6394 6.84967 79.6394 9.56863V15.4248C79.6394 17.2549 79.8004 18.4314 80.0687 18.8758H77.5197C77.0904 18.3529 76.9294 17.8039 76.9294 16.549C76.1782 18.2745 74.6488 19.1373 72.2608 19.1373ZM73.0389 17.2288C75.4805 17.2288 76.7953 15.3725 76.7953 13.1503V12C76.5001 12.366 75.7489 12.5752 74.6756 12.6536L72.9047 12.8105C70.9192 12.9673 70.1411 13.7778 70.1411 14.8758C70.1411 16.2614 70.9997 17.2288 73.0389 17.2288Z" fill="#041402"/>
<path d="M89.6753 19.1373C87.4483 19.1373 85.9458 18.2484 85.1677 16.5752V24H82.3236V5.38562H85.0335V7.89543C85.7848 6.14379 87.2873 5.12418 89.6753 5.12418C93.4049 5.12418 95.7392 7.71242 95.7392 12.1307C95.7392 16.549 93.4049 19.1373 89.6753 19.1373ZM89.0314 17.0196C91.312 17.0196 92.8951 15.5294 92.8951 12.1307C92.8951 8.75817 91.312 7.24183 89.0314 7.24183C86.7239 7.24183 85.1677 8.75817 85.1677 12.1307C85.1677 15.5294 86.7239 17.0196 89.0314 17.0196Z" fill="#041402"/>
<path d="M100.732 18.8758H97.8878V5.38562H100.732V18.8758ZM99.3098 3.03268C98.2098 3.03268 97.6195 2.40523 97.6195 1.56863C97.6195 0.732028 98.2098 0.0784319 99.3098 0.0784319C100.383 0.0784319 101 0.732028 101 1.56863C101 2.40523 100.383 3.03268 99.3098 3.03268Z" fill="#041402"/>
<path d="M108.514 19.0065C105.617 19.0065 104.597 18.1699 104.597 15.4248V7.37255H102.343V5.38562H104.597V1.30719H107.441V5.38562H110.634V7.37255H107.441V15.5033C107.441 16.6797 107.897 17.0196 109.158 17.0196L110.634 16.9935V18.8758C110.071 18.9281 109.078 19.0065 108.514 19.0065Z" fill="#041402"/>
<path d="M117.093 19.1373C113.873 19.1373 112.129 17.5686 112.129 15.0588C112.129 13.0458 113.39 11.451 116.825 11.1634L119.508 10.9542C121.145 10.7974 121.628 10.4314 121.628 9.56863C121.628 8.02614 120.715 7.11111 118.703 7.11111C116.825 7.11111 115.805 7.89543 115.671 9.56863H112.881C112.881 6.84967 114.598 5.12418 118.676 5.12418C122.728 5.12418 124.472 6.84967 124.472 9.56863V15.4248C124.472 17.2549 124.633 18.4314 124.901 18.8758H122.352C121.923 18.3529 121.762 17.8039 121.762 16.549C121.01 18.2745 119.481 19.1373 117.093 19.1373ZM117.871 17.2288C120.313 17.2288 121.628 15.3725 121.628 13.1503V12C121.332 12.366 120.581 12.5752 119.508 12.6536L117.737 12.8105C115.752 12.9673 114.973 13.7778 114.973 14.8758C114.973 16.2614 115.832 17.2288 117.871 17.2288Z" fill="#041402"/>
<path d="M130 18.8758H127.156V0.261439H130V18.8758Z" fill="#041402"/>
</svg>
