<svg width="32" height="32" viewBox="0 0 32 32" fill="none" xmlns="http://www.w3.org/2000/svg">
<g clip-path="url(#clip0_1019_1654)">
<path d="M6.01626 0H17.8839L23.6483 5.76608C24.6554 6.78208 24.6554 8.42332 23.6483 9.43936C23.1622 9.92564 22.5111 10.2035 21.8165 10.2035C21.122 10.2035 20.4709 9.93432 19.9848 9.43936L13.5257 2.97856C13.083 2.53568 12.3711 2.53568 11.9284 2.97856L0 14.9102V6.01792C0 2.69199 2.69126 0 6.01626 0Z" fill="#80CD75"/>
<path d="M25.8359 23.6552C25.8359 23.1342 26.0356 22.6479 26.4002 22.2832C26.7648 21.9185 27.251 21.7188 27.7719 21.7188C28.2928 21.7188 28.7789 21.9185 29.1436 22.2832L31.9911 25.1315V25.9738C31.9911 27.2851 31.5657 28.4922 30.8625 29.4821L26.4089 25.0273C26.0356 24.6626 25.8359 24.1763 25.8359 23.6552Z" fill="#80CD75"/>
<path d="M22.2853 26.4162C23.0406 25.6607 24.2734 25.6607 25.0287 26.4162L29.4823 30.871C28.4926 31.5831 27.2858 32 25.975 32H25.1329L22.2853 29.1516C21.5301 28.3962 21.5301 27.1717 22.2853 26.4162Z" fill="#80CD75"/>
<path d="M20.8965 30.5323L22.3636 31.9999H17.6062C17.5801 31.4702 17.7624 30.9405 18.1618 30.541C18.9171 29.7768 20.1412 29.7768 20.8965 30.5323Z" fill="#80CD75"/>
<path d="M30.5328 18.166C30.8976 17.8013 31.3838 17.6016 31.9049 17.6016C31.9396 17.6016 31.9656 17.6102 32.0004 17.6102V22.369L30.5415 20.9101C29.7773 20.1459 29.7773 18.9215 30.5328 18.166Z" fill="#80CD75"/>
<path d="M18.3874 11.0285C19.2989 11.9403 20.5143 12.4526 21.8165 12.4526C23.1101 12.4526 24.3342 11.949 25.2457 11.0285C27.1383 9.1354 27.1383 6.05264 25.2457 4.16824L21.0786 0H25.975C29.3 0 31.9912 2.69199 31.9912 6.01792V15.6396C31.9565 15.6396 31.9305 15.6309 31.8958 15.6309C30.854 15.6309 29.8817 16.0391 29.1437 16.7685C28.3276 17.5848 27.9543 18.6876 28.0151 19.7644C27.937 19.7558 27.8589 19.7558 27.772 19.7558C26.7303 19.7558 25.7579 20.1639 25.02 20.8933C24.2821 21.6315 23.8827 22.604 23.8827 23.6461C23.8827 23.7243 23.8914 23.8111 23.8914 23.8893C22.8149 23.8198 21.7211 24.1932 20.8963 25.0182C20.0803 25.8431 19.707 26.9373 19.7677 28.0141C18.6912 27.9446 17.5887 28.318 16.7726 29.143C15.9913 29.9245 15.618 30.9579 15.6354 31.9913H9.33259L16.7205 24.6013C17.1633 24.1585 17.1633 23.4464 16.7205 23.0035C16.2778 22.5606 15.5659 22.5606 15.1231 23.0035L6.15518 32H6.02493C4.7748 32 3.61149 31.6179 2.63917 30.9579L12.8573 20.737C13.3 20.2942 13.3 19.5821 12.8573 19.1392C12.4145 18.6963 11.7026 18.6963 11.2599 19.1392L1.04178 29.3601C0.381986 28.3962 0 27.2326 0 25.9734V25.8431L8.98533 16.8554C9.42809 16.4125 9.42809 15.7004 8.98533 15.2575C8.54257 14.8146 7.83068 14.8146 7.38792 15.2575L0 22.6475V18.0884L12.7271 5.3666L18.3874 11.0285Z" fill="#008560"/>
</g>
<defs>
<clipPath id="clip0_1019_1654">
<rect width="32" height="32" fill="white"/>
</clipPath>
</defs>
</svg>
