<svg width="1440" height="1207" viewBox="0 0 1440 1207" fill="none" xmlns="http://www.w3.org/2000/svg">
<rect width="1440" height="1024" transform="translate(0 183)" fill="#E0E4E0"/>
<path d="M1135.37 234.113C1103.82 245.467 1076.5 268.205 1059.59 297.177C1042.68 326.149 1036.32 361.132 1041.94 394.206" stroke="#020100" stroke-width="4.39471" stroke-miterlimit="10"/>
<path d="M206.206 150.637C228.79 162.921 254.909 181.636 267.153 204.248C282.752 233.043 282.785 267.792 269.537 297.739C258.311 323.081 233.393 341.73 209.888 356.415C172.889 379.537 136.794 406.047 112.205 442.094C87.6156 478.143 76.0441 525.422 91.2481 566.338" stroke="#020100" stroke-width="4.54493" stroke-miterlimit="10"/>
<path d="M1283.77 287.703C1348.81 317.891 1394.76 383.025 1407.75 453.556C1420.74 524.103 1402.52 598.641 1363.93 659.098" stroke="#FD7B41" stroke-width="5.64933" stroke-miterlimit="10"/>
<path d="M650.694 440.595C670.475 456.807 690.159 465.001 715.735 466.654C737.846 468.079 756.251 457.973 769.347 440.806C782.442 423.64 784.918 400.059 798.775 383.475C810.98 368.851 827.345 360.559 846.025 359.522C863.103 358.567 884.373 364.057 901.466 363.927C924.436 363.765 939.021 350.971 945.577 338.08C952.505 324.427 957.377 300.345 955.661 285.121" stroke="#FD7B41" stroke-width="5.59488" stroke-miterlimit="10"/>
<path d="M510.653 138.02C512.69 161.891 512.52 186.645 503.593 208.869C494.666 231.093 475.439 250.448 451.732 253.708C428.007 256.968 401.686 239.735 400.073 215.83C399.564 208.19 401.923 199.735 408.304 195.507C417.146 189.633 429.483 194.37 436.933 201.925C456.635 221.942 449.016 264.574 431.435 286.476C414.244 307.902 392.929 309.43 371.733 323.777C351.657 337.359 336.316 358.107 329.901 381.553" stroke="#BB98F2" stroke-width="5.86536" stroke-miterlimit="10"/>
<path d="M704.695 186.833C703.352 172.983 704.472 159.22 708.311 147.317C717.265 119.602 738.754 96.6572 765.821 85.9258L769.627 95.5376C745.4 105.149 726.15 125.699 718.143 150.504C710.464 174.275 715.337 207.883 729.731 230.413L721.019 235.976C711.996 221.869 706.383 204.282 704.695 186.833Z" fill="#FD7B41"/>
<path d="M1281.79 91.0448C1273.55 101.961 1263.6 111.168 1252.91 117.209C1228.01 131.29 1197.2 133.592 1170.51 123.336L1174.15 113.859C1198.05 123.031 1225.62 120.984 1247.92 108.375C1269.27 96.2913 1288.1 68.7389 1292.66 42.8789L1302.66 44.6559C1299.8 60.8523 1292.17 77.3025 1281.79 91.0618V91.0448Z" fill="#FFC4C0"/>
<path d="M1126.03 284.456C1115.38 278.464 1106.03 270.732 1099.41 261.985C1083.96 241.603 1078.26 214.563 1084.15 189.672L1092.98 191.76C1087.7 214.049 1092.81 238.244 1106.64 256.508C1119.89 274 1146.54 287.391 1169.98 288.36L1169.61 297.438C1154.92 296.833 1139.43 292.037 1126.01 284.471L1126.03 284.456Z" fill="#BB98F2"/>
<path d="M664.771 674.861C652.328 669.92 641.044 662.908 632.56 654.403C612.776 634.559 602.602 606.045 605.303 578.16L615.195 579.122C612.76 604.088 621.889 629.619 639.586 647.391C656.553 664.417 687.455 675.027 713.055 672.606L713.983 682.503C697.944 684.012 680.43 681.094 664.755 674.877L664.771 674.861Z" fill="#9D882F"/>
<path d="M460.27 557.138L580.62 431.723C580.62 431.723 577.762 534.774 460.27 557.138Z" fill="#0C5752"/>
<path d="M293.115 0.878906L447.586 99.9071C447.586 99.9071 340.299 118.049 293.115 0.878906Z" fill="#9D882F"/>
<path d="M760.119 626.013L925.959 567.789C925.959 567.789 876.352 659.494 760.119 626.013Z" fill="#9D882F"/>
<g clip-path="url(#clip0_863_3076)">
<path d="M196.978 942.81L295.908 930.983L267.102 842.84L168.901 856.917C168.901 856.917 154.777 904.287 196.978 942.794V942.81Z" fill="#AB5F41"/>
<path d="M219.701 956.565L177.034 973.172C170.112 977.859 160.706 976.043 156.034 969.121L42.8095 801.527C36.9116 792.804 40.6987 780.884 50.5544 777.175C72.0974 769.057 117.015 776.321 158.409 837.582C158.409 837.582 186.284 819.857 206.71 850.092C227.135 880.326 198.825 900.503 198.825 900.503C198.825 900.503 201.355 927.246 219.809 937.536C227.337 941.727 227.321 952.545 219.701 956.565Z" fill="#E2F99C"/>
<path d="M50.5388 777.178L181.116 970.428" stroke="#191333" stroke-width="1.16406" stroke-linecap="round" stroke-linejoin="round"/>
<path d="M158.393 837.582C161.715 853.988 139.318 844.877 160.334 867.661C181.349 890.446 198.81 900.504 198.81 900.504C198.81 900.504 198.468 918.042 219.794 937.536" stroke="#191333" stroke-width="1.16406" stroke-linecap="round" stroke-linejoin="round"/>
<path d="M169.832 877.376C169.832 877.376 194.697 857.168 176.677 832.428" stroke="#191333" stroke-width="1.16406" stroke-linecap="round" stroke-linejoin="round"/>
<path d="M176.537 912.623C169.196 917.574 167.271 927.554 172.223 934.896C177.174 942.237 187.154 944.162 194.495 939.21C201.836 934.259 203.761 924.279 198.81 916.938C193.859 909.597 183.879 907.672 176.537 912.623Z" stroke="#191333" stroke-width="1.16406" stroke-linecap="round" stroke-linejoin="round"/>
<path d="M206.694 850.094C206.694 850.094 226.049 873.204 205.297 894.251" stroke="#191333" stroke-width="1.16406" stroke-linecap="round" stroke-linejoin="round"/>
<path d="M1007.26 594.62C993.695 622.061 999.872 663.439 1049.6 672.24L1041.73 705.035C1041.73 705.035 1049.65 724.157 1079.82 736.636C1112.17 750.015 1130.34 727.277 1130.34 727.277L1144.7 651.318C1146.9 653.118 1149.79 654.22 1149.79 654.22C1149.79 654.22 1169.31 662.12 1176.75 631.187C1183.75 602.086 1165.68 603.498 1165.68 603.498L1172.59 581.381C1172.59 581.381 1185.87 537.457 1121.46 509.209C1071.58 487.324 1045.1 525.956 1045.1 525.956C1045.1 525.956 1018.7 571.509 1007.28 594.62H1007.26Z" fill="#AB5F41"/>
<mask id="mask0_863_3076" style="mask-type:luminance" maskUnits="userSpaceOnUse" x="1033" y="525" width="32" height="27">
<path d="M1045.08 525.955L1033.91 545.496C1033.91 545.496 1058.03 556.857 1064.47 548.072C1064.47 548.072 1068.97 536.727 1045.07 525.971L1045.08 525.955Z" fill="white"/>
</mask>
<g mask="url(#mask0_863_3076)">
<path d="M1022.38 536.697C1025.09 534.012 1027.84 532.398 1030.9 531.172C1033.91 529.961 1037.06 529.465 1040.15 529.418C1043.21 529.573 1046.25 530.101 1049.01 531.28C1050.44 531.793 1051.68 532.631 1053.02 533.314C1054.26 534.167 1055.45 535.052 1056.62 536.014C1058.54 537.597 1058.84 540.919 1057.25 543.449C1055.76 545.824 1053.16 546.646 1051.25 545.404L1050.94 545.203C1048.92 543.883 1046.99 542.487 1044.91 541.509C1042.88 540.407 1040.72 539.724 1038.5 539.243C1036.28 538.746 1033.96 538.746 1031.58 539.01C1029.25 539.258 1026.66 540.034 1024.54 540.965L1024.15 541.136C1022.97 541.648 1021.77 540.965 1021.48 539.6C1021.26 538.56 1021.63 537.427 1022.35 536.713L1022.38 536.697Z" fill="#191333"/>
</g>
<mask id="mask1_863_3076" style="mask-type:luminance" maskUnits="userSpaceOnUse" x="1012" y="547" width="47" height="47">
<path d="M1032.79 547.484C1032.79 547.484 1024.36 561.857 1012.51 584.346C1012.51 584.346 1031.35 596.965 1043.39 592.836C1048.96 590.927 1053.37 584.409 1058.9 574.304C1058.9 574.304 1058.71 556.812 1032.81 547.484H1032.79Z" fill="white"/>
</mask>
<g mask="url(#mask1_863_3076)">
<path d="M1049.83 576.257C1049.83 576.257 1037.6 539.178 1004.26 559.867C1004.26 559.867 1006.08 575.683 1020.59 582.791C1035.1 589.9 1049.83 576.273 1049.83 576.273V576.257Z" fill="white"/>
<mask id="mask2_863_3076" style="mask-type:luminance" maskUnits="userSpaceOnUse" x="1004" y="553" width="46" height="32">
<path d="M1049.83 576.256C1049.83 576.256 1037.51 539.13 1004.26 559.866C1004.26 559.866 1006.08 575.682 1020.59 582.791C1035.1 589.899 1049.83 576.272 1049.83 576.272V576.256Z" fill="white"/>
</mask>
<g mask="url(#mask2_863_3076)">
<path d="M1039.54 568.465C1036.11 576.272 1027.02 579.811 1019.21 576.396C1011.4 572.966 1007.87 563.871 1011.28 556.064C1014.71 548.257 1023.81 544.718 1031.61 548.133C1039.42 551.563 1042.96 560.658 1039.54 568.465Z" fill="#191333"/>
</g>
<path d="M1003.85 559.463C1009.98 550.414 1022.97 546.456 1033.16 550.988C1043.16 554.822 1051.48 565.237 1050.41 576.225C1050.38 576.551 1050.08 576.784 1049.76 576.753C1049.49 576.722 1049.32 576.551 1049.24 576.319C1047.43 571.771 1044.79 567.798 1041.65 564.6C1030.99 554.062 1017.69 552.432 1004.68 560.285C1004.17 560.673 1003.47 559.975 1003.86 559.463H1003.85Z" fill="#191333"/>
</g>
<path d="M1113.47 604.214C1113.47 604.214 1101.24 567.135 1067.9 587.824C1067.9 587.824 1069.72 603.64 1084.23 610.748C1098.74 617.857 1113.47 604.23 1113.47 604.23V604.214Z" fill="white"/>
<mask id="mask3_863_3076" style="mask-type:luminance" maskUnits="userSpaceOnUse" x="1067" y="581" width="47" height="32">
<path d="M1113.47 604.217C1113.47 604.217 1101.15 567.091 1067.9 587.827C1067.9 587.827 1069.72 603.643 1084.23 610.751C1098.74 617.86 1113.47 604.233 1113.47 604.233V604.217Z" fill="white"/>
</mask>
<g mask="url(#mask3_863_3076)">
<path d="M1098.55 594.389C1095.12 602.196 1086.03 605.734 1078.22 602.32C1070.41 598.89 1066.88 589.794 1070.29 581.988C1073.72 574.181 1082.82 570.642 1090.62 574.056C1098.43 577.486 1101.97 586.582 1098.55 594.389Z" fill="#191333"/>
</g>
<path d="M1067.5 587.42C1073.63 578.371 1086.62 574.413 1096.82 578.945C1106.81 582.779 1115.13 593.194 1114.06 604.182C1114.03 604.508 1113.73 604.741 1113.41 604.71C1113.14 604.679 1112.97 604.508 1112.9 604.276C1111.08 599.728 1108.44 595.755 1105.31 592.557C1094.64 582.019 1081.34 580.389 1068.33 588.242C1067.82 588.63 1067.12 587.932 1067.5 587.42Z" fill="#191333"/>
<path d="M1122.32 577.267C1121.82 573.356 1120.56 570.205 1118.78 567.117C1117.01 564.075 1114.63 561.467 1111.99 559.232C1109.25 557.168 1106.25 555.383 1103.04 554.297C1101.46 553.66 1099.8 553.396 1098.17 552.931C1096.51 552.682 1094.86 552.481 1093.18 552.356C1090.42 552.155 1087.88 554.39 1087.49 557.37C1087.13 560.179 1088.81 562.647 1091.32 563.097L1091.72 563.159C1094.38 563.625 1097 563.966 1099.49 564.727C1102.02 565.363 1104.34 566.403 1106.61 567.629C1108.88 568.84 1110.88 570.5 1112.76 572.378C1114.6 574.225 1116.31 576.647 1117.5 578.851L1117.72 579.239C1118.39 580.465 1119.9 580.806 1121.09 580.015C1122.01 579.409 1122.46 578.292 1122.33 577.267H1122.32Z" fill="#191333"/>
<path d="M1046.98 683.214C1085.19 689.717 1101.77 669.928 1101.77 669.928C1101.77 669.928 1080.49 677.517 1049.59 672.24L1046.98 683.214Z" fill="#191333"/>
<path d="M1148.61 640.718C1148.61 640.718 1155.03 639.539 1155.3 634.603C1155.56 629.652 1151.26 629.311 1153.13 624.67" stroke="#191333" stroke-width="1.16406" stroke-linecap="round" stroke-linejoin="round"/>
<path d="M1163.8 611.93C1163.8 611.93 1173.74 611.744 1168.65 628.071" stroke="#191333" stroke-width="1.16406" stroke-linecap="round" stroke-linejoin="round"/>
<path d="M1140.26 646.242C1140.26 646.242 1142 649.548 1144.7 651.318" stroke="#191333" stroke-width="1.16406" stroke-linecap="round" stroke-linejoin="round"/>
<path d="M1025.67 613.568C1025.67 613.568 1026.65 644.626 1057 626.699C1057 626.699 1039.73 619.28 1025.67 613.568Z" fill="white"/>
<path d="M1052.16 497.942C1052.16 497.942 1036.58 506.308 1040.06 518.104C1043.53 529.9 1064.45 520.711 1064.45 520.711C1064.45 520.711 1058.4 533.857 1067.34 538.731C1080.55 545.933 1092.21 531.39 1092.21 531.39C1092.21 531.39 1085.03 545.979 1099.76 551.644C1111.62 556.223 1120.39 543.278 1120.39 543.278C1120.39 543.278 1113.78 558.411 1125.34 564.759C1137.06 571.201 1147.13 558.489 1147.13 558.489C1147.13 558.489 1140.6 575.314 1151.98 580.808C1163.35 586.318 1169.5 578.169 1169.5 578.169C1169.5 578.169 1170.12 592.806 1181.34 589.267C1194.66 585.061 1192.41 573.886 1188.78 569.4C1188.78 569.4 1199.24 568.143 1201.41 559.824C1203.58 551.52 1191.93 548.493 1191.93 548.493C1191.93 548.493 1198.73 542.828 1193.54 532.46C1188.36 522.093 1178.5 525.305 1178.5 525.305C1178.5 525.305 1188.09 514.254 1176.69 507.177C1165.28 500.099 1157.1 507.27 1157.1 507.27C1157.1 507.27 1165.45 494.419 1151.95 488.738C1138.46 483.058 1130.29 493.751 1130.29 493.751C1130.29 493.751 1132.4 480.14 1118.06 476.042C1103.72 471.945 1101.13 481.893 1101.13 481.893C1101.13 481.893 1095.43 468.949 1084.48 468.918C1072.57 468.887 1070.69 480.264 1070.69 480.264C1070.69 480.264 1058.18 467.94 1050.07 476.958C1039.57 488.614 1052.16 497.911 1052.16 497.911V497.942Z" fill="#191333"/>
<path d="M1106.46 619.139C1121.82 611.25 1127.87 592.406 1119.98 577.05C1112.09 561.694 1093.25 555.64 1077.89 563.529C1062.54 571.418 1056.48 590.261 1064.37 605.617C1072.26 620.973 1091.11 627.027 1106.46 619.139Z" stroke="#FFC85A" stroke-width="1.16406" stroke-linecap="round" stroke-linejoin="round"/>
<path d="M1054.12 572.645C1048.89 589.097 1032.93 598.72 1018.47 594.126C1004 589.532 996.504 572.474 1001.73 556.007C1006.97 539.554 1022.92 529.931 1037.39 534.526C1051.85 539.12 1059.35 556.177 1054.12 572.645Z" stroke="#FFC85A" stroke-width="1.16406" stroke-linecap="round" stroke-linejoin="round"/>
<path d="M1165.67 603.499L1122.56 598.951" stroke="#FFC85A" stroke-width="1.16406" stroke-linecap="round" stroke-linejoin="round"/>
<path d="M1023.28 562.697L1001.01 560.354" stroke="#FFC85A" stroke-width="1.16406" stroke-linecap="round" stroke-linejoin="round"/>
<path d="M1065.74 574.676C1065.74 574.676 1063.35 568.669 1054.57 571.122" stroke="#FFC85A" stroke-width="1.16406" stroke-linecap="round" stroke-linejoin="round"/>
<path d="M1053.87 579.211C1046.7 592.357 1040.85 592.512 1037.14 593.071C1037.14 593.071 1033.34 593.568 1032.92 597.789C1032.56 601.344 1034.48 605.767 1037.42 606.76" stroke="#191333" stroke-width="1.16406" stroke-linecap="round" stroke-linejoin="round"/>
<path d="M1045.29 607.721C1045.29 607.721 1048.14 606.153 1049.86 609.909" stroke="#191333" stroke-width="1.16406" stroke-linecap="round" stroke-linejoin="round"/>
<path d="M1052.84 613C1062.34 611.029 1057.08 601.996 1057.08 601.996" stroke="#191333" stroke-width="1.16406" stroke-linecap="round" stroke-linejoin="round"/>
<path d="M849.708 654.811C849.708 654.811 827.575 653.399 812.411 651.955C812.411 651.955 790.946 559.901 757.53 458.333C757.53 458.333 723.244 445.59 697.107 478.96C697.107 478.96 692.032 669.199 775.208 767.4C775.208 767.4 822.686 805.783 919.412 783.045C1016.14 760.307 924.425 670.658 849.692 654.811H849.708Z" fill="#AB5F41"/>
<path d="M1314.43 745.389C1314.43 745.389 1404.77 719.671 1393.3 648.384C1381.83 577.097 1289.83 446.97 1289.83 446.97C1231.41 445.387 1227.05 468.683 1227.05 468.683L1279.02 634.679L1314.43 745.389Z" fill="#AB5F41"/>
<path d="M1165.25 714.406C1165.25 714.406 1157.36 718.907 1143.49 721.934C1143.49 721.934 1149.07 700.081 1138.71 699.972C1129.39 699.879 1097.06 723.362 1085.69 720.553C1047.32 692.258 1039.75 669.908 1032.84 698.249C963.677 660.984 849.723 654.806 849.723 654.806C849.723 654.806 842.397 715.369 834.156 784.142C834.156 784.142 901.035 803.682 922.159 812.095L897.171 928.237C897.171 928.237 1006.24 954.545 1102.4 1020.6C1102.4 1020.6 1111.54 1002.41 1162.98 872.564C1162.98 872.564 1240.38 829.23 1306.67 793.765C1317.8 787.805 1323.23 774.891 1319.65 762.785C1310.88 733.264 1293.99 677.529 1279.01 634.66C1279.01 634.66 1228.15 678.181 1165.25 714.391V714.406Z" fill="#80CD75"/>
<path d="M1311.78 736.619L1260.33 574.984" stroke="#191333" stroke-width="1.16406" stroke-linecap="round" stroke-linejoin="round"/>
<path d="M1143.47 721.935L1139.37 744.673C1139.37 744.673 1127.58 753.597 1085.69 720.553C1085.69 720.553 1055.76 733.808 1035.21 727.274C1035.21 727.274 1032.34 718.815 1032.84 698.234" stroke="#191333" stroke-width="1.16406" stroke-linecap="round" stroke-linejoin="round"/>
<path d="M812.427 651.951C812.427 651.951 875.659 654.76 928.709 664.927" stroke="#191333" stroke-width="1.16406" stroke-linecap="round" stroke-linejoin="round"/>
<path d="M848.078 668.279L839.34 740.855" stroke="#191333" stroke-width="1.16406" stroke-linecap="round" stroke-linejoin="round"/>
<path d="M1203.52 850.031L1134.62 886.102" stroke="#191333" stroke-width="1.16406" stroke-linecap="round" stroke-linejoin="round"/>
<path d="M1163.57 870.936L1150.1 904.942L1142.9 881.769L1163.57 870.936Z" fill="#191333"/>
<path d="M931.674 1165.37C931.674 1165.37 691.799 946.756 613.139 890.617C613.139 890.617 560.399 933.517 267.039 941.789C267.039 941.789 229.898 878.387 225.987 827.928C225.987 827.928 444.691 767.149 584.984 753.118C725.277 739.102 708.965 770.392 983.902 952.421C983.902 952.421 994.983 1184.6 931.658 1165.37H931.674Z" fill="#BB98F2"/>
<path d="M246.909 822.281C246.909 822.281 270.516 901.22 299.199 940.721" stroke="#191333" stroke-width="1.16406" stroke-linecap="round" stroke-linejoin="round"/>
<path d="M1102.39 1020.6C1102.39 1020.6 1069.69 1223.8 963.554 1192.45C857.422 1161.1 765.445 949.643 765.445 949.643C765.445 949.643 706.715 1042.44 629.002 1116.68C629.002 1116.68 605.379 1038.25 520.914 1033.83C520.914 1033.83 703.331 806.184 751.616 759.916C799.902 713.648 879.415 691.112 991.771 959.809C991.771 959.809 1069.11 996.718 1102.39 1020.6Z" fill="#BB98F2"/>
<path d="M927.763 830.535C927.763 830.535 985.624 929.589 1013.52 1022.73" stroke="#191333" stroke-width="1.16406" stroke-linecap="round" stroke-linejoin="round"/>
<path d="M845.409 1089.87C845.409 1089.87 779.336 982.981 765.445 949.627C765.445 949.627 695.415 1054.05 655.511 1089.94" stroke="#191333" stroke-width="1.16406" stroke-linecap="round" stroke-linejoin="round"/>
<path d="M609.383 924.901C609.383 924.901 684.147 826.235 751.632 759.914" stroke="#191333" stroke-width="1.16406" stroke-linecap="round" stroke-linejoin="round"/>
<path d="M520.914 1033.83C520.914 1033.83 532.974 1121.23 629.002 1116.68C629.002 1116.68 618.059 1035.23 520.914 1033.83Z" fill="#191333"/>
<path d="M541.386 1008.4C541.386 1008.4 636.871 1002.92 646.804 1099.03" stroke="#191333" stroke-width="1.16406" stroke-linecap="round" stroke-linejoin="round"/>
<path d="M1224.71 470.62C1224.71 470.62 1241.62 473.771 1254.51 474.981C1267.39 476.192 1304.47 478.194 1292.46 430.064C1280.46 381.934 1280.26 373.615 1251.84 378.535C1223.42 383.439 1170 413.891 1224.69 470.62H1224.71Z" fill="#AB5F41"/>
<path d="M1399.41 433.203L1101.84 470.903L1217.89 193.592L1399.41 433.203Z" fill="#008560"/>
<path d="M1275.91 270.172L1399.41 433.203L1315.6 443.819" stroke="#191333" stroke-width="1.16406" stroke-linecap="round" stroke-linejoin="round"/>
<path d="M1101.84 470.903L1217.89 193.592" stroke="#191333" stroke-width="1.16406" stroke-linecap="round" stroke-linejoin="round"/>
<path d="M1249.51 459.026C1249.51 459.026 1247.9 456.635 1242.15 455.766C1234.94 454.68 1215.13 456.775 1208.19 448.89C1200.73 440.401 1187.64 433.928 1182.51 438.01C1177.49 441.984 1183.67 454.369 1189.48 460.997C1198.34 471.132 1199.55 478.551 1218.58 477.759C1237.61 476.952 1267.22 472.575 1249.51 459.041V459.026Z" fill="#AB5F41"/>
<path d="M1181.02 444.591C1181.02 444.591 1187.12 441.425 1189.99 448.177C1192.86 454.928 1192.73 456.247 1187.5 458.203" stroke="#191333" stroke-width="1.16406" stroke-linecap="round" stroke-linejoin="round"/>
<path d="M684.706 470.993C684.706 470.993 714.102 506.831 741.667 509.888C769.217 512.946 765.663 462.518 744.337 429.661C723.011 396.803 710.998 394.025 703.191 399.318C703.191 399.318 700.925 400.932 699.652 404.362C699.652 404.362 669.247 370.247 655.387 382.369C655.387 382.369 652.159 385.752 652.981 389.695C652.981 389.695 637.554 383.735 632.525 392.287C632.525 392.287 630.926 396.322 632.09 399.147C632.09 399.147 624.081 398.821 622.514 405.138C620.931 411.439 624.345 413.581 629.747 418.206C629.747 418.206 621.877 427.348 649.567 446.346C649.567 446.346 675.704 463.155 684.706 471.008V470.993Z" fill="#AB5F41"/>
<path d="M688.959 449.573C688.959 449.573 642.194 405.122 629.747 418.19" stroke="#191333" stroke-width="1.16406" stroke-linecap="round" stroke-linejoin="round"/>
<path d="M632.106 399.131C632.106 399.131 651.631 394.521 696.331 431.057" stroke="#191333" stroke-width="1.16406" stroke-linecap="round" stroke-linejoin="round"/>
<path d="M703.952 424.602C703.952 424.602 680.019 396.385 652.981 389.68" stroke="#191333" stroke-width="1.16406" stroke-linecap="round" stroke-linejoin="round"/>
<path d="M695.958 400.977C695.958 400.977 719.845 422.333 731.796 438.584" stroke="#191333" stroke-width="1.16406" stroke-linecap="round" stroke-linejoin="round"/>
<path d="M509.227 1104.42L559.344 1039.39C559.344 1039.39 604.463 1047.6 624.5 1100.37L581.539 1154.06C581.539 1154.06 548.06 1164.33 509.242 1104.44L509.227 1104.42Z" fill="#AB5F41"/>
<path d="M617.283 1126.85L601.747 1178.02C602.336 1186.35 596.035 1193.59 587.7 1194.16L406.665 1206.64C396.173 1207.37 387.745 1198.1 389.483 1187.74C393.27 1165.03 407.876 1130.79 461.267 1127.11C461.267 1127.11 473.731 1093.15 510.143 1090.64C546.555 1088.12 549.814 1122.73 549.814 1122.73C549.814 1122.73 582.734 1128.03 600.893 1117.22C608.297 1112.82 617.656 1118.25 617.299 1126.85H617.283Z" fill="#E2F99C"/>
<path d="M389.484 1187.72L601.405 1173.1" stroke="#191333" stroke-width="1.16406" stroke-linecap="round" stroke-linejoin="round"/>
<path d="M461.252 1127.1C461.252 1127.1 496.593 1128.39 510.236 1142.2C523.879 1156.01 549.783 1122.72 549.783 1122.72" stroke="#191333" stroke-width="1.16406" stroke-linecap="round" stroke-linejoin="round"/>
<path d="M467.383 1115.84C467.383 1115.84 495.258 1103.96 537.553 1135.6" stroke="#191333" stroke-width="1.16406" stroke-linecap="round" stroke-linejoin="round"/>
<path d="M586.63 1145.71C587.235 1154.52 582.873 1162 576.867 1162.42C570.876 1162.84 565.521 1156.03 564.9 1147.2C564.295 1138.38 568.656 1130.9 574.663 1130.48C580.654 1130.06 586.009 1136.87 586.63 1145.71Z" stroke="#191333" stroke-width="1.16406" stroke-linecap="round" stroke-linejoin="round"/>
<path d="M510.127 1090.62C510.127 1090.62 536.606 1086.26 548.169 1115.56" stroke="#191333" stroke-width="1.16406" stroke-linecap="round" stroke-linejoin="round"/>
<path d="M562.991 1123.92C562.991 1123.92 583.774 1125.92 600.878 1117.21" stroke="#191333" stroke-width="1.16406" stroke-linecap="round" stroke-linejoin="round"/>
</g>
<defs>
<clipPath id="clip0_863_3076">
<rect width="1360" height="1013.67" fill="white" transform="translate(40 193)"/>
</clipPath>
</defs>
</svg>
