<svg width="1261" height="223" viewBox="0 0 1261 223" fill="none" xmlns="http://www.w3.org/2000/svg">
<path opacity="0.8" d="M112.598 175H0.794001V2.696H27.656V152.978H112.598V175ZM154.496 175H128.844V50.128H154.496V175ZM141.67 28.348C131.748 28.348 126.424 22.54 126.424 14.796C126.424 7.052 131.748 1.00199 141.67 1.00199C151.35 1.00199 156.916 7.052 156.916 14.796C156.916 22.54 151.35 28.348 141.67 28.348ZM247.437 175H216.461L169.029 50.128H195.649L231.949 152.252L268.007 50.128H294.869L247.437 175ZM358.943 177.42C319.255 177.42 297.233 152.252 297.233 112.564C297.233 74.086 318.045 47.708 357.491 47.708C396.937 47.708 417.749 74.57 417.749 110.386C417.749 112.806 417.507 114.984 417.265 117.404H322.885C323.611 146.928 337.647 159.754 358.943 159.754C376.609 159.754 387.741 150.558 391.613 136.28H415.087C409.521 161.69 391.371 177.42 358.943 177.42ZM357.491 65.374C338.131 65.374 325.547 76.99 322.885 100.464H392.097C389.435 76.99 376.851 65.374 357.491 65.374ZM515.908 177.42C461.458 177.42 432.176 141.362 432.176 88.848C432.176 36.334 461.458 0.275985 515.908 0.275985C562.856 0.275985 593.348 28.348 593.348 64.164H568.18C565.034 40.206 548.094 22.298 515.908 22.298C478.398 22.298 459.038 46.256 459.038 88.848C459.038 131.44 478.398 155.398 515.908 155.398C547.61 155.398 565.034 138.458 568.18 112.08H593.348C593.348 148.622 563.824 177.42 515.908 177.42ZM652.538 177.42C623.498 177.42 607.768 162.9 607.768 139.668C607.768 121.034 619.142 106.272 650.118 103.61L674.318 101.674C689.08 100.222 693.436 96.834 693.436 88.848C693.436 74.57 685.208 66.1 667.058 66.1C650.118 66.1 640.922 73.36 639.712 88.848H614.544C614.544 63.68 630.032 47.708 666.816 47.708C703.358 47.708 719.088 63.68 719.088 88.848V143.056C719.088 159.996 720.54 170.886 722.96 175H699.97C696.098 170.16 694.646 165.078 694.646 153.462C687.87 169.434 674.076 177.42 652.538 177.42ZM659.556 159.754C681.578 159.754 693.436 142.572 693.436 122.002V111.354C690.774 114.742 683.998 116.678 674.318 117.404L658.346 118.856C640.438 120.308 633.42 127.81 633.42 137.974C633.42 150.8 641.164 159.754 659.556 159.754ZM809.605 177.42C789.519 177.42 775.967 169.192 768.949 153.704V222.432H743.297V50.128H767.739V73.36C774.515 57.146 788.067 47.708 809.605 47.708C843.243 47.708 864.297 71.666 864.297 112.564C864.297 153.462 843.243 177.42 809.605 177.42ZM803.797 157.818C824.367 157.818 838.645 144.024 838.645 112.564C838.645 81.346 824.367 67.31 803.797 67.31C782.985 67.31 768.949 81.346 768.949 112.564C768.949 144.024 782.985 157.818 803.797 157.818ZM909.328 175H883.676V50.128H909.328V175ZM896.502 28.348C886.58 28.348 881.256 22.54 881.256 14.796C881.256 7.052 886.58 1.00199 896.502 1.00199C906.182 1.00199 911.748 7.052 911.748 14.796C911.748 22.54 906.182 28.348 896.502 28.348ZM979.521 176.21C953.385 176.21 944.189 168.466 944.189 143.056V68.52H923.861V50.128H944.189V12.376H969.841V50.128H998.639V68.52H969.841V143.782C969.841 154.672 973.955 157.818 985.329 157.818L998.639 157.576V175C993.557 175.484 984.603 176.21 979.521 176.21ZM1056.9 177.42C1027.86 177.42 1012.13 162.9 1012.13 139.668C1012.13 121.034 1023.5 106.272 1054.48 103.61L1078.68 101.674C1093.44 100.222 1097.79 96.834 1097.79 88.848C1097.79 74.57 1089.57 66.1 1071.42 66.1C1054.48 66.1 1045.28 73.36 1044.07 88.848H1018.9C1018.9 63.68 1034.39 47.708 1071.17 47.708C1107.72 47.708 1123.45 63.68 1123.45 88.848V143.056C1123.45 159.996 1124.9 170.886 1127.32 175H1104.33C1100.46 170.16 1099 165.078 1099 153.462C1092.23 169.434 1078.43 177.42 1056.9 177.42ZM1063.91 159.754C1085.94 159.754 1097.79 142.572 1097.79 122.002V111.354C1095.13 114.742 1088.36 116.678 1078.68 117.404L1062.7 118.856C1044.8 120.308 1037.78 127.81 1037.78 137.974C1037.78 150.8 1045.52 159.754 1063.91 159.754ZM1173.31 175H1147.65V2.696H1173.31V175ZM1224.76 75.6C1203.11 75.6 1189.38 61.608 1189.38 41.148C1189.38 20.688 1203.11 6.69599 1224.76 6.69599C1246.4 6.69599 1260.26 20.688 1260.26 41.148C1260.26 61.608 1246.4 75.6 1224.76 75.6ZM1224.76 70.188C1242.84 70.188 1253.93 58.572 1253.93 41.148C1253.93 23.856 1242.84 12.24 1224.76 12.24C1206.8 12.24 1195.58 23.856 1195.58 41.148C1195.58 58.572 1206.8 70.188 1224.76 70.188ZM1238.88 33.756C1238.88 38.112 1236.77 41.016 1232.81 42.204C1236.5 43.128 1238.35 45.636 1238.35 49.332V54.876C1238.35 56.328 1238.62 57.516 1238.88 58.308H1232.28C1231.88 57.384 1231.62 56.328 1231.62 54.876V50.124C1231.62 45.768 1228.85 44.58 1225.15 44.58H1219.08V58.308H1212.35V23.988H1227.92C1234.92 23.988 1238.88 27.684 1238.88 33.756ZM1232.02 34.284C1232.02 30.72 1230.3 29.268 1225.81 29.268H1219.08V39.3H1225.81C1230.3 39.3 1232.02 37.848 1232.02 34.284Z" fill="white"/>
</svg>
