<svg width="1200" height="180" viewBox="0 0 1200 180" fill="none" xmlns="http://www.w3.org/2000/svg">
<g clip-path="url(#clip0_863_909)">
<rect width="1200" height="180" fill="#1A192B"/>
<g opacity="0.05" clip-path="url(#clip1_863_909)">
<path fill-rule="evenodd" clip-rule="evenodd" d="M589.496 -6.93633C590.669 -9.46991 591.793 -10.4625 594.579 -11.4262C591.737 -12.5068 590.666 -13.4885 589.59 -16.0005C588.425 -13.4753 587.309 -12.4892 584.507 -11.5106C587.335 -10.4421 588.427 -9.4411 589.496 -6.93633ZM584.597 30.7254H594.632V-4.83997H584.597V30.7254ZM631.213 -12.9021L631.273 12.7537L631.285 19.1587C631.5 21.0037 632.933 22.4636 634.909 21.8723C635.324 21.7479 635.723 21.5838 636.098 21.3666C636.158 21.3314 636.222 21.291 636.25 21.227C636.33 21.0453 635.787 20.3961 635.689 20.2252C635.484 19.87 635.291 19.5083 635.111 19.1403C634.753 18.4062 634.444 17.6476 634.192 16.8703C633.688 15.3141 633.417 13.6822 633.423 12.0456C633.439 7.91698 635.938 3.74435 640.926 -0.468279C646.035 -4.78093 650.603 -6.54919 654.631 -5.76907C658.658 -4.98896 662.193 -2.86464 665.793 1.392C666.509 2.24013 667.098 3.04025 667.554 3.79636L648.021 20.2948C650.131 22.3591 652.016 23.4793 653.674 23.6633C655.84 23.9154 657.898 23.2153 659.851 21.563C660.988 20.6029 661.801 19.6547 662.29 18.7266C662.774 17.7945 662.942 16.7863 662.786 15.6941C662.63 14.606 662.302 13.4418 661.801 12.2016L670.281 8.35304C671.446 10.4094 671.93 12.4497 671.738 14.482C671.55 16.5143 670.889 18.4546 669.76 20.3028C668.635 22.1511 666.722 24.2154 664.023 26.4918C658.93 30.7964 654.322 32.5767 650.199 31.8366C646.499 31.1725 643.012 29.0962 639.745 25.6076L639.707 25.56C637.857 27.1103 635.826 28.6141 633.644 29.6678C631.457 30.7236 628.983 30.8348 626.605 30.5844C624.507 30.3635 622.253 29.6658 621.505 27.4719C621.368 27.5879 621.216 27.6999 621.06 27.796C617.961 29.7402 614.302 30.7124 610.074 30.7124C605.29 30.7124 601.815 29.1162 599.649 25.9237C597.487 22.7312 596.406 18.3465 596.406 12.7737C596.406 7.18087 597.487 2.80421 599.649 -0.34826C601.815 -3.50073 605.29 -4.84494 610.074 -4.84494C614.302 -4.84494 617.961 -3.87279 621.06 -1.9285C621.12 -1.88849 621.18 -1.84848 621.236 -1.80848V-12.9021H631.213ZM613.585 1.76406C611.343 1.76406 609.606 2.50417 608.377 3.98039C607.144 5.45661 606.531 8.40105 606.531 12.8017C606.531 17.2464 607.144 20.2028 608.377 21.667C609.606 23.1353 611.343 23.8714 613.585 23.8714C615.651 23.8714 617.445 23.2073 618.974 21.8791C620.324 20.6869 621.08 19.2387 621.236 17.5344V8.073C621.08 6.40475 620.324 4.97654 618.974 3.78836C617.445 2.44016 615.651 1.76406 613.585 1.76406ZM650.851 2.37215C648.897 2.18012 646.976 2.87622 645.098 4.46446C643.248 6.02469 642.239 7.87697 642.075 10.0173C641.939 11.6375 642.436 13.2618 644.121 15.6821L656.216 5.46461C654.23 3.30029 652.629 2.53217 650.851 2.37215ZM666.938 -15.9986C667.823 -15.9986 668.572 -15.9026 669.193 -15.7026C669.809 -15.5025 670.31 -15.2265 670.686 -14.8744C671.066 -14.5184 671.342 -14.1103 671.523 -13.6423C671.699 -13.1742 671.783 -12.6701 671.779 -12.13V-10.8058C671.779 -10.2657 671.691 -9.76167 671.515 -9.2936C671.342 -8.82553 671.066 -8.41747 670.682 -8.06542C670.302 -7.70936 669.801 -7.43332 669.189 -7.23729C668.572 -7.03726 667.819 -6.93725 666.93 -6.93725C666.218 -6.93725 665.593 -7.00526 665.053 -7.14128C664.516 -7.2773 664.056 -7.46933 663.68 -7.71337C663.303 -7.9574 662.999 -8.24144 662.763 -8.56949C662.526 -8.89354 662.354 -9.24559 662.246 -9.62565C662.138 -10.0097 662.082 -10.4018 662.082 -10.8058L662.09 -12.13C662.09 -12.5341 662.146 -12.9261 662.254 -13.3102C662.362 -13.6903 662.53 -14.0463 662.767 -14.3744C662.999 -14.6984 663.307 -14.9865 663.684 -15.2265C664.064 -15.4705 664.52 -15.6586 665.057 -15.7946C665.593 -15.9306 666.222 -15.9986 666.938 -15.9986ZM666.938 -14.9064C666.402 -14.9064 665.938 -14.8664 665.541 -14.7864C665.145 -14.7064 664.809 -14.5904 664.536 -14.4344C664.264 -14.2743 664.044 -14.0823 663.876 -13.8463C663.712 -13.6143 663.591 -13.3462 663.515 -13.0462C663.435 -12.7421 663.399 -12.4061 663.399 -12.038L663.391 -10.8658C663.391 -10.4898 663.427 -10.1497 663.507 -9.84969C663.583 -9.54564 663.704 -9.2816 663.868 -9.05357C664.036 -8.82553 664.256 -8.6375 664.532 -8.48948C664.809 -8.34146 665.145 -8.22944 665.541 -8.15343C665.938 -8.07742 666.398 -8.03741 666.93 -8.03741C667.471 -8.03741 667.939 -8.07742 668.332 -8.15343C668.724 -8.22944 669.06 -8.34546 669.337 -8.50148C669.613 -8.65351 669.833 -8.84554 669.997 -9.07357C670.165 -9.3016 670.285 -9.56164 670.358 -9.85769C670.434 -10.1537 670.47 -10.4858 670.47 -10.8498V-12.026C670.474 -12.4021 670.438 -12.7421 670.362 -13.0502C670.285 -13.3542 670.165 -13.6223 669.997 -13.8503C669.833 -14.0823 669.613 -14.2743 669.341 -14.4344C669.068 -14.5904 668.732 -14.7064 668.336 -14.7864C667.939 -14.8664 667.475 -14.9064 666.938 -14.9064ZM667.579 -13.5862C667.863 -13.5862 668.088 -13.5422 668.248 -13.4542L668.191 -13.4796L668.207 -13.4725L668.248 -13.4542C668.288 -13.4322 668.325 -13.408 668.359 -13.3815L668.383 -13.3587L668.435 -13.3107L668.452 -13.2952L668.47 -13.2716L668.474 -13.2663L668.529 -13.1954L668.588 -13.0822L668.595 -13.0636L668.598 -13.0512L668.6 -13.0476L668.609 -13.0209L668.644 -12.9171L668.653 -12.8627V-12.8574L668.657 -12.8414L668.662 -12.8147L668.668 -12.7809L668.671 -12.7614L668.677 -12.7352L668.677 -12.7294L668.68 -12.6796L668.685 -12.5783L668.688 -12.5381V-12.078L668.685 -12.0627L668.684 -12.0396V-12.0272L668.678 -11.9667L668.673 -11.8903L668.672 -11.8703L668.662 -11.8352L668.652 -11.7854L668.645 -11.7569L668.643 -11.7463L668.625 -11.6723L668.548 -11.4859C668.452 -11.3059 668.308 -11.1899 668.116 -11.1459L668.143 -11.0636L668.229 -10.8076L668.3 -10.5907L668.328 -10.5054L668.332 -10.4983L668.335 -10.4876L668.387 -10.3294L668.428 -10.2085L668.442 -10.1658L668.469 -10.0823L668.543 -9.85827L668.547 -9.85115L668.616 -9.64316L668.62 -9.63071L668.621 -9.62715L668.689 -9.42449L668.712 -9.35761H667.727L667.708 -9.42449L667.704 -9.44049L667.667 -9.57915L667.654 -9.62715L667.653 -9.63071L667.649 -9.64316L667.594 -9.85115L667.592 -9.85827L667.589 -9.87427L667.576 -9.91693L667.532 -10.0823L667.51 -10.1658L667.507 -10.1765L667.498 -10.2085L667.466 -10.3294L667.423 -10.4876L667.421 -10.4983L667.42 -10.5054L667.397 -10.5907L667.338 -10.8076L667.327 -10.8503L667.324 -10.8663L667.271 -11.0619H666.262V-9.35761H665.313V-13.5862H667.579ZM667.323 -12.8621H666.262V-11.746H667.363L667.482 -11.7555C667.553 -11.7682 667.608 -11.794 667.651 -11.834L667.676 -11.8707L667.69 -11.8894C667.701 -11.9114 667.71 -11.9367 667.718 -11.9655L667.727 -12.0272L667.729 -12.0396L667.734 -12.0618L667.733 -12.0787L667.736 -12.1303L667.739 -12.178V-12.4541L667.734 -12.5392L667.733 -12.5781L667.715 -12.6781L667.692 -12.7294L667.69 -12.7329L667.688 -12.7365L667.667 -12.7614L667.652 -12.7798L667.599 -12.8141C667.539 -12.8461 667.447 -12.8621 667.323 -12.8621ZM579.196 12.6015C576.546 11.1833 573.246 10.1868 569.296 9.61107C566.219 9.135 564.127 8.89857 562.162 8.4521C560.196 8.00523 559.214 7.02909 559.214 5.52126C559.214 4.37109 559.725 3.46855 560.748 2.81405C561.769 2.15916 562.934 1.60747 565.097 1.60747C567.4 1.60747 569.326 2.13315 570.873 3.18411C572.423 4.23627 573.424 5.66408 573.882 7.46955L582.665 4.31508C581.811 0.963377 579.876 -1.40178 576.859 -2.78079C573.841 -4.15899 569.96 -4.8491 565.216 -4.8491C560.353 -4.8491 556.852 -3.80134 553.854 -2.15549C550.857 -0.508844 549.358 2.06034 549.358 5.55087C549.358 9.1218 550.575 11.7054 553.006 13.302C555.437 14.8987 558.668 15.5776 562.697 16.1925C565.913 16.7085 568.124 16.9602 570.189 17.3962C572.253 17.8323 573.286 18.8345 573.286 20.4007C573.286 21.5521 572.71 22.4494 571.558 23.0939C570.407 23.7388 568.79 24.0612 566.706 24.0612C564.184 24.0612 562.12 23.5552 560.512 22.543C560.496 22.533 560.48 22.5226 560.464 22.513C557.382 20.6279 553.677 19.811 550.101 20.7367C548.584 21.1292 547.248 21.8017 546.009 22.7478C544.856 23.6284 543.78 24.0308 542.304 24.0308C540.834 24.0308 539.699 23.7388 538.894 23.1531C538.091 22.5682 537.689 21.3136 537.689 19.3893V1.89472H548.527V-4.84029H537.689V-12.9035H527.654V-4.84029H524.065V1.89472H527.654V6.90787C527.654 8.91297 527.692 10.9221 527.648 12.9264C527.589 15.646 527.185 19.1277 524.937 20.9896C524.054 21.7217 522.937 22.0197 521.801 21.9329C518.941 21.7137 518.821 19.6782 518.821 17.3122V10.6576V2.61162V-3.49249V-4.84069H508.846V16.0176C508.667 18.2176 507.933 20.0114 506.641 21.4024C505.135 23.0275 503.347 23.8404 501.283 23.8404C499.298 23.8404 497.844 23.1483 496.92 21.7573C495.997 20.3695 495.535 17.7219 495.535 13.8141V-4.8719H485.56V14.289C485.56 19.2885 486.415 23.2755 488.12 26.2504C489.829 29.2252 492.985 30.7126 497.589 30.7126C502.671 30.7126 506.624 29.2252 509.442 26.2504C509.442 26.2504 509.445 26.254 509.449 26.264C510.843 30.3522 516.217 31.3655 519.892 30.141C522.964 29.1168 525.671 26.9577 527.965 24.4801C528.429 26.412 529.411 27.835 530.915 28.7471C533.088 30.0661 535.743 30.725 538.879 30.725C541.62 30.725 544.865 30.6686 547.415 29.5725C548.261 29.2088 549.11 28.818 549.922 28.3827C550.655 27.989 551.34 27.3645 552.22 27.3673C553.192 27.3705 554.084 28.1178 554.937 28.5039C555.964 28.9684 557.028 29.3476 558.113 29.6517C560.292 30.2622 562.549 30.5718 564.806 30.6746C565.389 30.701 565.973 30.7138 566.557 30.7138C571.876 30.7138 575.975 29.7333 578.853 28.0478C581.732 26.362 583.171 23.5648 583.171 19.657C583.171 16.0864 581.846 14.0197 579.196 12.6015ZM464.932 -7.26354L465.903 -7.23959C467.519 -7.17188 469.135 -6.96563 470.744 -6.62824C476.792 -5.35245 480.869 -1.88313 482.669 3.84133C483.485 6.43972 483.872 9.08091 483.862 11.7309C483.872 14.3813 483.485 17.0221 482.669 19.6205C480.869 25.345 476.792 28.8143 470.744 30.0901C468.813 30.4949 466.873 30.7114 464.932 30.7258C462.99 30.7114 461.05 30.4949 459.119 30.0901C453.071 28.8143 448.993 25.345 447.194 19.6205C446.378 17.0221 445.991 14.3813 446.001 11.7309C445.991 9.08091 446.378 6.43972 447.194 3.84133C448.993 -1.88313 453.071 -5.35245 459.119 -6.62824C461.05 -7.0331 462.991 -7.24914 464.932 -7.26354ZM464.932 -0.180087C462.287 -0.184076 460.464 0.815275 459.647 3.34405C459.544 3.6665 459.447 3.99255 459.354 4.319C458.689 6.75417 458.371 9.24254 458.401 11.7309C458.371 14.2193 458.689 16.7077 459.354 19.1428C459.447 19.4693 459.544 19.7953 459.647 20.1178C460.464 22.6465 462.287 23.6459 464.932 23.6423C467.576 23.6459 469.399 22.6465 470.216 20.1178C470.318 19.7953 470.416 19.4693 470.509 19.1428C471.174 16.7077 471.492 14.2193 471.462 11.7309C471.492 9.24254 471.174 6.75417 470.509 4.319C470.416 3.99255 470.318 3.6665 470.216 3.34405C469.399 0.815275 467.576 -0.184076 464.932 -0.180087ZM467.162 9.4044C468.43 9.4044 469.459 10.4318 469.459 11.6991C469.459 12.9665 468.43 13.9939 467.162 13.9939C465.894 13.9939 464.866 12.9665 464.866 11.6991C464.866 10.4318 465.894 9.4044 467.162 9.4044Z" fill="#F172A8"/>
</g>
<g opacity="0.05" clip-path="url(#clip2_863_909)">
<path fill-rule="evenodd" clip-rule="evenodd" d="M486.783 144.178C488.419 141.915 489.711 141.155 492.63 140.741C490.046 139.138 489.182 137.97 488.605 135.298C486.98 137.555 485.696 138.31 482.759 138.736C485.331 140.325 486.212 141.515 486.783 144.178ZM474.788 180.213L484.639 182.128L491.425 147.216L481.575 145.301L474.788 180.213ZM528.873 146.282L524.036 171.478L522.826 177.768C522.685 179.62 523.812 181.326 525.865 181.123C526.296 181.08 526.719 180.995 527.129 180.853C527.195 180.83 527.265 180.803 527.305 180.745C527.417 180.582 527.008 179.841 526.945 179.655C526.812 179.267 526.692 178.875 526.585 178.479C526.373 177.69 526.214 176.887 526.116 176.076C525.918 174.452 525.963 172.798 526.282 171.193C527.085 167.143 530.334 163.524 536.035 160.341C541.872 157.082 546.694 156.218 550.499 157.752C554.303 159.287 557.368 162.046 560.089 166.912C560.631 167.881 561.056 168.779 561.36 169.608L539.037 182.076C540.714 184.505 542.351 185.964 543.943 186.461C546.021 187.122 548.175 186.827 550.408 185.578C551.707 184.853 552.686 184.077 553.343 183.259C553.996 182.437 554.354 181.479 554.409 180.377C554.463 179.279 554.363 178.074 554.108 176.761L563.167 174.601C563.918 176.842 564.004 178.937 563.428 180.895C562.855 182.855 561.836 184.633 560.375 186.232C558.918 187.832 556.646 189.493 553.563 191.213C547.742 194.466 542.879 195.335 538.972 193.821C535.468 192.464 532.441 189.76 529.9 185.712L529.872 185.658C527.759 186.827 525.478 187.916 523.135 188.534C520.788 189.153 518.337 188.79 516.051 188.09C514.034 187.473 511.954 186.358 511.639 184.062C511.483 184.15 511.312 184.231 511.14 184.295C507.728 185.612 503.95 185.868 499.8 185.062C495.103 184.149 491.997 181.919 490.48 178.372C488.967 174.825 488.742 170.315 489.806 164.845C490.873 159.354 492.769 155.264 495.493 152.582C498.22 149.901 501.888 149.245 506.585 150.158C510.735 150.964 514.141 152.617 516.812 155.117C516.863 155.167 516.915 155.218 516.962 155.268L519.079 144.378L528.873 146.282ZM508.77 157.315C506.569 156.887 504.722 157.282 503.234 158.497C501.742 159.711 500.579 162.484 499.739 166.804C498.891 171.167 498.928 174.186 499.859 175.859C500.786 177.534 502.351 178.589 504.552 179.016C506.58 179.411 508.467 179.101 510.222 178.089C511.774 177.176 512.793 175.899 513.271 174.256L515.077 164.968C515.242 163.301 514.771 161.754 513.674 160.331C512.43 158.715 510.798 157.709 508.77 157.315ZM545.235 165.023C543.354 164.461 541.335 164.778 539.188 165.979C537.075 167.157 535.731 168.783 535.162 170.853C534.719 172.417 534.896 174.107 536.089 176.804L549.911 169.082C548.375 166.579 546.95 165.519 545.235 165.023ZM564.532 150.059C565.401 150.228 566.117 150.465 566.688 150.78C567.255 151.094 567.694 151.46 567.996 151.878C568.302 152.3 568.495 152.753 568.583 153.247C568.666 153.74 568.652 154.251 568.545 154.78L568.293 156.08C568.19 156.61 568.007 157.088 567.745 157.514C567.487 157.941 567.138 158.289 566.693 158.561C566.252 158.838 565.708 159.013 565.069 159.089C564.426 159.167 563.668 159.122 562.795 158.952C562.096 158.816 561.496 158.631 560.991 158.394C560.49 158.158 560.075 157.882 559.752 157.57C559.429 157.259 559.185 156.922 559.016 156.555C558.846 156.192 558.744 155.813 558.71 155.42C558.677 155.022 558.697 154.626 558.774 154.23L559.035 152.931C559.112 152.535 559.242 152.161 559.421 151.804C559.6 151.452 559.833 151.134 560.127 150.857C560.417 150.584 560.775 150.36 561.19 150.196C561.61 150.029 562.094 149.931 562.646 149.9C563.199 149.869 563.829 149.922 564.532 150.059ZM564.324 151.131C563.797 151.029 563.334 150.979 562.929 150.982C562.525 150.985 562.173 151.035 561.876 151.136C561.578 151.241 561.325 151.388 561.115 151.587C560.91 151.784 560.741 152.024 560.609 152.304C560.472 152.587 560.373 152.91 560.302 153.272L560.071 154.421C559.999 154.79 559.97 155.131 559.991 155.44C560.008 155.753 560.075 156.035 560.193 156.291C560.314 156.547 560.494 156.773 560.737 156.971C560.98 157.169 561.289 157.343 561.664 157.494C562.038 157.644 562.483 157.771 563.005 157.872C563.536 157.976 564.003 158.026 564.403 158.026C564.803 158.026 565.155 157.977 565.456 157.876C565.756 157.78 566.009 157.633 566.213 157.441C566.422 157.249 566.589 157.016 566.717 156.74C566.848 156.463 566.947 156.144 567.016 155.787L567.241 154.632C567.316 154.264 567.346 153.923 567.33 153.607C567.313 153.294 567.246 153.008 567.125 152.752C567.008 152.492 566.828 152.262 566.592 152.053C566.354 151.848 566.046 151.67 565.672 151.516C565.299 151.361 564.85 151.234 564.324 151.131ZM564.701 152.549C564.98 152.604 565.191 152.69 565.332 152.807L565.281 152.771L565.296 152.781L565.332 152.807C565.367 152.836 565.399 152.867 565.427 152.899L565.447 152.926L565.488 152.983L565.502 153.002L565.516 153.028L565.518 153.034L565.558 153.114L565.595 153.237L565.598 153.256L565.599 153.269L565.6 153.273L565.604 153.301L565.619 153.409L565.617 153.465L565.616 153.47L565.617 153.486L565.617 153.513L565.616 153.548L565.615 153.567L565.616 153.594L565.615 153.6L565.609 153.649L565.594 153.75L565.589 153.79L565.502 154.241L565.496 154.256L565.49 154.278L565.488 154.291L565.471 154.349L565.451 154.423L565.446 154.442L565.43 154.475L565.41 154.522L565.398 154.548L565.394 154.559L565.362 154.628L565.251 154.796C565.122 154.954 564.959 155.041 564.762 155.047L564.773 155.133L564.808 155.401L564.836 155.627L564.848 155.717L564.85 155.724L564.852 155.735L564.872 155.901L564.889 156.027L564.895 156.072L564.905 156.159L564.936 156.393L564.938 156.4L564.966 156.618L564.967 156.631L564.968 156.635L564.996 156.846L565.006 156.917L564.039 156.729L564.033 156.659L564.032 156.643L564.022 156.5L564.019 156.45L564.018 156.446L564.017 156.433L564.003 156.219L564.002 156.211L564.002 156.195L563.998 156.151L563.986 155.98L563.981 155.894L563.979 155.883L563.977 155.85L563.968 155.725L563.956 155.561L563.957 155.551L563.956 155.543L563.95 155.455L563.934 155.231L563.931 155.187L563.931 155.171L563.916 154.969L562.926 154.776L562.601 156.449L561.669 156.268L562.476 152.117L564.701 152.549ZM564.311 153.211L563.27 153.009L563.057 154.104L564.137 154.315L564.256 154.328C564.328 154.329 564.388 154.314 564.437 154.283L564.468 154.252L564.486 154.236C564.501 154.217 564.515 154.194 564.528 154.167L564.549 154.108L564.553 154.096L564.562 154.075L564.564 154.058L564.577 154.009L564.589 153.962L564.642 153.691L564.653 153.607L564.66 153.568L564.661 153.467L564.648 153.412L564.647 153.408L564.646 153.404L564.629 153.376L564.619 153.355L564.573 153.311C564.52 153.268 564.433 153.235 564.311 153.211ZM472.945 161.392C470.614 159.494 467.565 157.886 463.797 156.567C460.867 155.513 458.859 154.881 457.016 154.068C455.171 153.255 454.393 152.109 454.681 150.629C454.9 149.5 455.574 148.711 456.703 148.264C457.831 147.816 459.079 147.497 461.203 147.909C463.463 148.349 465.253 149.232 466.572 150.559C467.892 151.888 468.603 153.48 468.707 155.34L477.931 153.919C477.732 150.466 476.284 147.775 473.585 145.846C470.886 143.917 467.209 142.499 462.551 141.594C457.778 140.666 454.141 141.027 450.884 142.07C447.628 143.115 445.666 145.351 445 148.777C444.319 152.283 445.02 155.051 447.102 157.082C449.184 159.113 452.226 160.396 456.064 161.769C459.122 162.889 461.244 163.558 463.189 164.38C465.131 165.202 465.954 166.382 465.655 167.92C465.435 169.05 464.699 169.821 463.445 170.234C462.192 170.647 460.543 170.655 458.497 170.258C456.022 169.776 454.092 168.886 452.707 167.586C452.693 167.573 452.68 167.559 452.666 167.547C450 165.108 446.519 163.6 442.831 163.826C441.267 163.922 439.828 164.327 438.431 165.019C437.132 165.664 435.999 165.853 434.55 165.572C433.107 165.291 432.048 164.788 431.37 164.06C430.693 163.332 430.538 162.024 430.905 160.135L434.243 142.962L444.882 145.03L446.167 138.418L435.528 136.35L437.067 128.435L427.216 126.521L425.677 134.436L422.154 133.751L420.869 140.362L424.392 141.047L423.436 145.968C423.053 147.936 422.707 149.916 422.282 151.875C421.705 154.533 420.644 157.874 418.082 159.273C417.075 159.823 415.922 159.902 414.824 159.6C412.058 158.839 412.329 156.818 412.78 154.496L414.05 147.963L415.585 140.065L416.75 134.073L417.007 132.75L407.215 130.847L403.235 151.322C402.64 153.447 401.577 155.068 400.043 156.187C398.255 157.495 396.344 157.951 394.318 157.558C392.37 157.179 391.075 156.222 390.434 154.68C389.792 153.142 389.844 150.455 390.59 146.619L394.155 128.276L384.363 126.373L380.707 145.182C379.753 150.089 379.831 154.166 380.938 157.412C382.048 160.658 384.862 162.72 389.381 163.599C394.37 164.568 398.534 163.863 401.868 161.48C401.868 161.48 401.871 161.484 401.872 161.495C402.461 165.774 407.543 167.794 411.383 167.293C414.595 166.874 417.664 165.271 420.388 163.277C420.475 165.262 421.168 166.846 422.47 168.028C424.352 169.738 426.832 170.891 429.91 171.489C432.601 172.012 435.797 172.576 438.51 171.987C439.409 171.791 440.317 171.57 441.197 171.297C441.992 171.051 442.784 170.568 443.646 170.739C444.6 170.928 445.333 171.831 446.097 172.373C447.016 173.025 447.989 173.6 448.996 174.106C451.018 175.121 453.174 175.855 455.371 176.387C455.938 176.524 456.508 176.648 457.081 176.76C462.303 177.775 466.514 177.594 469.661 176.489C472.808 175.383 474.755 172.912 475.5 169.076C476.181 165.571 475.276 163.29 472.945 161.392ZM364.57 120.089L365.519 120.298C367.093 120.673 368.639 121.183 370.154 121.822C375.848 124.228 379.188 128.412 379.862 134.374C380.168 137.081 380.043 139.747 379.528 142.347C379.032 144.95 378.149 147.469 376.851 149.863C373.993 155.139 369.329 157.767 363.148 157.865C361.176 157.894 359.23 157.737 357.322 157.38C355.418 156.996 353.555 156.413 351.737 155.647C346.043 153.241 342.703 149.057 342.029 143.095C341.723 140.388 341.848 137.722 342.363 135.122C342.859 132.519 343.742 130 345.04 127.605C347.898 122.329 352.563 119.702 358.743 119.604C360.716 119.574 362.662 119.733 364.57 120.089ZM363.219 127.042C360.623 126.534 358.643 127.167 357.359 129.493C357.196 129.79 357.038 130.092 356.885 130.394C355.767 132.658 354.981 135.04 354.535 137.488C354.031 139.925 353.868 142.429 354.056 144.946C354.085 145.284 354.119 145.623 354.158 145.959C354.477 148.597 356.076 149.926 358.673 150.427C361.268 150.935 363.249 150.302 364.532 147.975C364.695 147.678 364.853 147.377 365.006 147.074C366.124 144.811 366.911 142.429 367.356 139.981C367.86 137.544 368.023 135.04 367.835 132.523C367.806 132.185 367.772 131.846 367.733 131.51C367.414 128.872 365.815 127.543 363.219 127.042ZM363.579 136.876C364.824 137.118 365.637 138.323 365.396 139.567C365.154 140.811 363.949 141.623 362.703 141.381C361.458 141.139 360.645 139.935 360.887 138.691C361.129 137.447 362.334 136.634 363.579 136.876Z" fill="#F172A8"/>
</g>
<g opacity="0.05" clip-path="url(#clip3_863_909)">
<path fill-rule="evenodd" clip-rule="evenodd" d="M1142.78 -6.82192C1144.42 -9.08497 1145.71 -9.84485 1148.63 -10.2593C1146.05 -11.8624 1145.18 -13.0303 1144.6 -15.7016C1142.98 -13.445 1141.7 -12.69 1138.76 -12.2641C1141.33 -10.6754 1142.21 -9.48457 1142.78 -6.82192ZM1130.79 29.2132L1140.64 31.1279L1147.42 -3.78404L1137.57 -5.69874L1130.79 29.2132ZM1184.87 -4.71799L1180.04 20.4779L1178.83 26.7675C1178.68 28.6197 1179.81 30.326 1181.86 30.1226C1182.3 30.0796 1182.72 29.9948 1183.13 29.8531C1183.19 29.8301 1183.26 29.8026 1183.3 29.7451C1183.42 29.582 1183.01 28.8411 1182.94 28.6547C1182.81 28.2669 1182.69 27.8751 1182.58 27.4795C1182.37 26.6904 1182.21 25.8868 1182.12 25.0758C1181.92 23.4521 1181.96 21.7984 1182.28 20.1931C1183.09 16.1434 1186.33 12.5241 1192.03 9.34072C1197.87 6.08207 1202.69 5.21794 1206.5 6.75223C1210.3 8.28652 1213.37 11.0464 1216.09 15.9116C1216.63 16.8809 1217.06 17.7786 1217.36 18.6079L1195.04 31.076C1196.71 33.505 1198.35 34.9644 1199.94 35.4613C1202.02 36.122 1204.18 35.8274 1206.41 34.5783C1207.71 33.8528 1208.69 33.0771 1209.34 32.2592C1210 31.4367 1210.35 30.4791 1210.41 29.3772C1210.46 28.2793 1210.36 27.0738 1210.11 25.761L1219.17 23.6011C1219.92 25.8419 1220 27.9372 1219.43 29.8955C1218.86 31.8545 1217.84 33.6331 1216.38 35.232C1214.92 36.8317 1212.65 38.4929 1209.56 40.2125C1203.74 43.4664 1198.88 44.3346 1194.97 42.8213C1191.47 41.4635 1188.44 38.76 1185.9 34.7122L1185.87 34.6583C1183.76 35.8269 1181.48 36.9155 1179.14 37.5336C1176.79 38.1527 1174.34 37.7897 1172.05 37.0902C1170.03 36.4732 1167.95 35.3581 1167.64 33.0618C1167.48 33.1497 1167.31 33.2306 1167.14 33.2951C1163.73 34.6123 1159.95 34.8684 1155.8 34.0617C1151.1 33.1488 1148 30.9188 1146.48 27.3717C1144.97 23.8254 1144.74 19.315 1145.81 13.8445C1146.87 8.35446 1148.77 4.26448 1151.49 1.58244C1154.22 -1.09883 1157.89 -1.75524 1162.58 -0.84235C1166.73 -0.0356448 1170.14 1.61687 1172.81 4.11672C1172.86 4.16745 1172.91 4.21818 1172.96 4.26815L1175.08 -6.6217L1184.87 -4.71799ZM1164.77 6.31518C1162.57 5.88738 1160.72 6.28235 1159.23 7.49692C1157.74 8.71073 1156.58 11.4842 1155.74 15.804C1154.89 20.167 1154.93 23.186 1155.86 24.8586C1156.79 26.5344 1158.35 27.5885 1160.55 28.0163C1162.58 28.4105 1164.47 28.1008 1166.22 27.0889C1167.77 26.176 1168.79 24.8988 1169.27 23.2557L1171.08 13.9681C1171.24 12.3007 1170.77 10.7543 1169.67 9.33054C1168.43 7.71529 1166.8 6.70937 1164.77 6.31518ZM1201.24 14.0227C1199.35 13.4614 1197.33 13.7781 1195.19 14.9788C1193.08 16.1575 1191.73 17.7832 1191.16 19.8529C1190.72 21.4174 1190.9 23.1065 1192.09 25.804L1205.91 18.082C1204.38 15.5786 1202.95 14.519 1201.24 14.0227ZM1220.53 -0.940904C1221.4 -0.772077 1222.12 -0.53497 1222.69 -0.220207C1223.26 0.0937936 1223.69 0.460255 1224 0.877649C1224.3 1.29973 1224.49 1.75301 1224.58 2.24685C1224.67 2.73994 1224.65 3.25079 1224.55 3.78019L1224.29 5.08006C1224.19 5.61022 1224.01 6.08822 1223.74 6.51408C1223.49 6.9407 1223.14 7.28856 1222.69 7.5608C1222.25 7.83774 1221.71 8.01322 1221.07 8.08877C1220.43 8.16748 1219.67 8.12204 1218.8 7.95245C1218.1 7.81647 1217.5 7.63053 1216.99 7.39388C1216.49 7.158 1216.08 6.88164 1215.75 6.57028C1215.43 6.25892 1215.18 5.92204 1215.02 5.55494C1214.85 5.19178 1214.74 4.81334 1214.71 4.41964C1214.68 4.02202 1214.7 3.62646 1214.77 3.22983L1215.03 1.93149C1215.11 1.53485 1215.24 1.16069 1215.42 0.804312C1215.6 0.451866 1215.83 0.134439 1216.13 -0.142513C1216.42 -0.4163 1216.77 -0.640227 1217.19 -0.804044C1217.61 -0.971024 1218.09 -1.06851 1218.65 -1.09967C1219.2 -1.13082 1219.83 -1.07765 1220.53 -0.940904ZM1220.32 0.131194C1219.8 0.028828 1219.33 -0.0205159 1218.93 -0.0176004C1218.52 -0.014688 1218.17 0.035028 1217.88 0.136238C1217.58 0.241374 1217.33 0.387859 1217.12 0.58747C1216.91 0.783923 1216.74 1.02412 1216.61 1.30414C1216.47 1.58732 1216.37 1.91032 1216.3 2.27161L1216.07 3.42073C1216 3.78987 1215.97 4.13055 1215.99 4.44036C1216.01 4.75334 1216.08 5.03544 1216.19 5.29061C1216.31 5.54654 1216.49 5.77313 1216.74 5.97114C1216.98 6.16916 1217.29 6.34328 1217.66 6.49353C1218.04 6.64377 1218.48 6.77089 1219.01 6.8725C1219.54 6.97562 1220 7.02573 1220.4 7.02599C1220.8 7.02623 1221.15 6.97652 1221.46 6.87607C1221.76 6.77955 1222.01 6.63307 1222.21 6.44054C1222.42 6.24878 1222.59 6.01644 1222.72 5.73959C1222.85 5.46349 1222.95 5.14442 1223.02 4.78706L1223.24 3.63249C1223.32 3.26411 1223.35 2.92343 1223.33 2.60652C1223.31 2.29355 1223.25 2.00752 1223.12 1.75159C1223.01 1.4925 1222.83 1.26198 1222.59 1.05295C1222.35 0.847847 1222.05 0.669792 1221.67 0.51562C1221.3 0.361449 1220.85 0.23356 1220.32 0.131194ZM1220.7 1.54937C1220.98 1.60361 1221.19 1.68958 1221.33 1.80654L1221.28 1.77086L1221.3 1.78089L1221.33 1.80654C1221.37 1.83577 1221.4 1.86665 1221.43 1.89917L1221.45 1.92616L1221.49 1.98312L1221.5 2.0017L1221.52 2.02829L1221.52 2.03421L1221.56 2.11418L1221.59 2.23669L1221.6 2.25622L1221.6 2.26911L1221.6 2.27294L1221.6 2.30081L1221.62 2.40944L1221.62 2.46461L1221.62 2.46984L1221.62 2.48623L1221.62 2.51342L1221.62 2.5476L1221.62 2.56747L1221.62 2.59436L1221.61 2.5999L1221.61 2.64945L1221.59 2.74993L1221.59 2.78988L1221.5 3.24149L1221.5 3.25602L1221.49 3.27837L1221.49 3.29058L1221.47 3.34889L1221.45 3.42292L1221.45 3.44238L1221.43 3.47498L1221.41 3.52181L1221.4 3.54837L1221.39 3.55851L1221.36 3.62773L1221.25 3.79596C1221.12 3.95435 1220.96 4.04073 1220.76 4.04726L1220.77 4.13331L1220.81 4.40089L1220.84 4.62736L1220.85 4.71655L1220.85 4.72421L1220.85 4.73536L1220.87 4.90052L1220.89 5.02698L1220.9 5.07158L1220.91 5.15869L1220.94 5.39282L1220.94 5.40048L1220.97 5.61789L1220.97 5.63078L1220.97 5.63461L1221 5.84645L1221.01 5.9165L1220.04 5.72858L1220.03 5.6592L1220.03 5.64281L1220.02 5.49957L1220.02 5.45008L1220.02 5.44625L1220.02 5.43336L1220 5.21866L1220 5.21134L1220 5.19496L1220 5.1507L1219.99 4.97992L1219.98 4.89383L1219.98 4.88268L1219.98 4.84958L1219.97 4.7248L1219.96 4.56135L1219.96 4.55054L1219.96 4.54321L1219.95 4.45504L1219.93 4.23094L1219.93 4.18703L1219.93 4.17064L1219.92 3.96854L1218.93 3.77603L1218.6 5.44898L1217.67 5.26793L1218.48 1.11698L1220.7 1.54937ZM1220.31 2.21128L1219.27 2.00884L1219.06 3.1045L1220.14 3.31458L1220.26 3.32802C1220.33 3.32909 1220.39 3.31431 1220.44 3.28318L1220.47 3.25181L1220.49 3.23622C1220.5 3.2168 1220.51 3.19362 1220.53 3.16678L1220.55 3.10808L1220.55 3.0962L1220.56 3.07532L1220.56 3.05849L1220.58 3.00856L1220.59 2.96226L1220.64 2.69129L1220.65 2.60685L1220.66 2.56841L1220.66 2.46679L1220.65 2.41197L1220.65 2.40815L1220.65 2.40432L1220.63 2.37581L1220.62 2.35502L1220.57 2.31112C1220.52 2.26824 1220.43 2.23496 1220.31 2.21128ZM1128.94 10.3917C1126.61 8.494 1123.56 6.88598 1119.8 5.56725C1116.87 4.5127 1114.86 3.88145 1113.02 3.06833C1111.17 2.25458 1110.39 1.10891 1110.68 -0.371217C1110.9 -1.50026 1111.57 -2.28866 1112.7 -2.73602C1113.83 -3.18393 1115.08 -3.50326 1117.2 -3.09051C1119.46 -2.6511 1121.25 -1.7677 1122.57 -0.44072C1123.89 0.887747 1124.6 2.48046 1124.71 4.34L1133.93 2.91946C1133.73 -0.533604 1132.28 -3.22459 1129.59 -5.15395C1126.89 -7.08261 1123.21 -8.50051 1118.55 -9.40576C1113.78 -10.3337 1110.14 -9.97325 1106.88 -8.92967C1103.63 -7.88508 1101.67 -5.64919 1101 -2.22279C1100.32 1.28253 1101.02 4.05081 1103.1 6.08197C1105.18 8.11321 1108.23 9.39613 1112.06 10.7685C1115.12 11.8888 1117.24 12.5577 1119.19 13.3798C1121.13 14.2017 1121.95 15.3824 1121.65 16.9199C1121.44 18.0501 1120.7 18.8211 1119.45 19.234C1118.19 19.6473 1116.54 19.6553 1114.5 19.2576C1112.02 18.7765 1110.09 17.8858 1108.71 16.5855C1108.69 16.5726 1108.68 16.5594 1108.67 16.5469C1106 14.1083 1102.52 12.5996 1098.83 12.8258C1097.27 12.9216 1095.83 13.3268 1094.43 14.0192C1093.13 14.6636 1092 14.8534 1090.55 14.5717C1089.11 14.2913 1088.05 13.7879 1087.37 13.0595C1086.69 12.3321 1086.54 11.0238 1086.9 9.13489L1090.24 -8.03831L1100.88 -5.97036L1102.17 -12.5816L1091.53 -14.6496L1093.07 -22.5646L1083.22 -24.4794L1081.68 -16.5644L1078.15 -17.2492L1076.87 -10.638L1080.39 -9.95309L1079.44 -5.03204C1079.05 -3.06378 1078.71 -1.08434 1078.28 0.874814C1077.71 3.53322 1076.64 6.87382 1074.08 8.27262C1073.08 8.82268 1071.92 8.9022 1070.82 8.60017C1068.06 7.83929 1068.33 5.81827 1068.78 3.49579L1070.05 -3.03655L1071.59 -10.9347L1072.75 -16.9267L1073.01 -18.2501L1063.22 -20.1535L1059.24 0.321653C1058.64 2.44694 1057.58 4.06782 1056.04 5.18676C1054.26 6.49463 1052.34 6.95137 1050.32 6.55757C1048.37 6.17881 1047.07 5.22196 1046.43 3.68035C1045.79 2.1418 1045.84 -0.545233 1046.59 -4.38122L1050.15 -22.7239L1040.36 -24.6273L1036.71 -5.81848C1035.75 -0.910781 1035.83 3.16606 1036.94 6.41169C1038.05 9.658 1040.86 11.7203 1045.38 12.5987C1050.37 13.5685 1054.53 12.8625 1057.87 10.4801C1057.87 10.4801 1057.87 10.4843 1057.87 10.4948C1058.46 14.7739 1063.54 16.7941 1067.38 16.2931C1070.59 15.8741 1073.66 14.271 1076.39 12.2767C1076.47 14.2616 1077.17 15.846 1078.47 17.0282C1080.35 18.7377 1082.83 19.891 1085.91 20.4894C1088.6 21.0125 1091.8 21.5762 1094.51 20.9868C1095.41 20.7913 1096.32 20.5695 1097.2 20.2972C1097.99 20.0506 1098.78 19.5684 1099.65 19.7389C1100.6 19.9275 1101.33 20.8313 1102.1 21.3731C1103.02 22.025 1103.99 22.6003 1105 23.1058C1107.02 24.1208 1109.17 24.8554 1111.37 25.3871C1111.94 25.5242 1112.51 25.6482 1113.08 25.7595C1118.3 26.7745 1122.51 26.5942 1125.66 25.4889C1128.81 24.3832 1130.75 21.912 1131.5 18.076C1132.18 14.571 1131.28 12.2896 1128.94 10.3917ZM1020.57 -30.911L1021.52 -30.7023C1023.09 -30.3273 1024.64 -29.8166 1026.15 -29.1784C1031.85 -26.772 1035.19 -22.5884 1035.86 -16.6258C1036.17 -13.9194 1036.04 -11.253 1035.53 -8.65346C1035.03 -6.04995 1034.15 -3.5314 1032.85 -1.13659C1029.99 4.13939 1025.33 6.76698 1019.15 6.86527C1017.18 6.89433 1015.23 6.73659 1013.32 6.38045C1011.42 5.99566 1009.55 5.413 1007.74 4.64721C1002.04 2.24079 998.703 -1.94285 998.029 -7.90536C997.723 -10.6119 997.848 -13.2778 998.363 -15.8777C998.859 -18.4809 999.742 -20.9998 1001.04 -23.3946C1003.9 -28.6707 1008.56 -31.2982 1014.74 -31.3965C1016.72 -31.4255 1018.66 -31.2672 1020.57 -30.911ZM1019.22 -23.9577C1016.62 -24.4663 1014.64 -23.8332 1013.36 -21.5066C1013.2 -21.2098 1013.04 -20.9083 1012.88 -20.6056C1011.77 -18.3421 1010.98 -15.96 1010.53 -13.5118C1010.03 -11.0747 1009.87 -8.57145 1010.06 -6.05414C1010.09 -5.71596 1010.12 -5.37726 1010.16 -5.0411C1010.48 -2.40302 1012.08 -1.07414 1014.67 -0.573016C1017.27 -0.0649184 1019.25 -0.698013 1020.53 -3.02457C1020.69 -3.32153 1020.85 -3.62288 1021.01 -3.92561C1022.12 -6.18914 1022.91 -8.57114 1023.36 -11.0194C1023.86 -13.4565 1024.02 -15.9598 1023.84 -18.4771C1023.81 -18.8152 1023.77 -19.154 1023.73 -19.4901C1023.41 -22.1282 1021.82 -23.4571 1019.22 -23.9577ZM1019.58 -14.1237C1020.82 -13.8817 1021.64 -12.6771 1021.4 -11.433C1021.15 -10.1889 1019.95 -9.37656 1018.7 -9.61857C1017.46 -9.86058 1016.65 -11.0652 1016.89 -12.3093C1017.13 -13.5534 1018.33 -14.3658 1019.58 -14.1237Z" fill="#F172A8"/>
</g>
<g opacity="0.05" clip-path="url(#clip4_863_909)">
<path fill-rule="evenodd" clip-rule="evenodd" d="M688.783 93.1781C690.419 90.915 691.711 90.1552 694.63 89.7407C692.046 88.1376 691.182 86.9697 690.605 84.2984C688.98 86.555 687.696 87.31 684.759 87.7359C687.331 89.3246 688.212 90.5154 688.783 93.1781ZM676.788 129.213L686.639 131.128L693.425 96.216L683.575 94.3013L676.788 129.213ZM730.873 95.282L726.036 120.478L724.826 126.768C724.685 128.62 725.812 130.326 727.865 130.123C728.296 130.08 728.719 129.995 729.129 129.853C729.195 129.83 729.265 129.803 729.305 129.745C729.417 129.582 729.008 128.841 728.945 128.655C728.812 128.267 728.692 127.875 728.585 127.479C728.373 126.69 728.214 125.887 728.116 125.076C727.918 123.452 727.963 121.798 728.282 120.193C729.085 116.143 732.334 112.524 738.035 109.341C743.872 106.082 748.694 105.218 752.499 106.752C756.303 108.287 759.368 111.046 762.089 115.912C762.631 116.881 763.056 117.779 763.36 118.608L741.037 131.076C742.714 133.505 744.351 134.964 745.943 135.461C748.021 136.122 750.175 135.827 752.408 134.578C753.707 133.853 754.686 133.077 755.343 132.259C755.996 131.437 756.354 130.479 756.409 129.377C756.463 128.279 756.363 127.074 756.108 125.761L765.167 123.601C765.918 125.842 766.004 127.937 765.428 129.895C764.855 131.855 763.836 133.633 762.375 135.232C760.918 136.832 758.646 138.493 755.563 140.213C749.742 143.466 744.879 144.335 740.972 142.821C737.468 141.464 734.441 138.76 731.9 134.712L731.872 134.658C729.759 135.827 727.478 136.916 725.135 137.534C722.788 138.153 720.337 137.79 718.051 137.09C716.034 136.473 713.954 135.358 713.639 133.062C713.483 133.15 713.312 133.231 713.14 133.295C709.728 134.612 705.95 134.868 701.8 134.062C697.103 133.149 693.997 130.919 692.48 127.372C690.967 123.825 690.742 119.315 691.806 113.845C692.873 108.354 694.769 104.264 697.493 101.582C700.22 98.9012 703.888 98.2448 708.585 99.1577C712.735 99.9644 716.141 101.617 718.812 104.117C718.863 104.167 718.915 104.218 718.962 104.268L721.079 93.3783L730.873 95.282ZM710.77 106.315C708.569 105.887 706.722 106.282 705.234 107.497C703.742 108.711 702.579 111.484 701.739 115.804C700.891 120.167 700.928 123.186 701.859 124.859C702.786 126.534 704.351 127.589 706.552 128.016C708.58 128.411 710.467 128.101 712.222 127.089C713.774 126.176 714.793 124.899 715.271 123.256L717.077 113.968C717.242 112.301 716.771 110.754 715.674 109.331C714.43 107.715 712.798 106.709 710.77 106.315ZM747.235 114.023C745.354 113.461 743.335 113.778 741.188 114.979C739.075 116.157 737.731 117.783 737.162 119.853C736.719 121.417 736.896 123.107 738.089 125.804L751.911 118.082C750.375 115.579 748.95 114.519 747.235 114.023ZM766.532 99.0591C767.401 99.2279 768.117 99.465 768.688 99.7798C769.255 100.094 769.694 100.46 769.996 100.878C770.302 101.3 770.495 101.753 770.583 102.247C770.666 102.74 770.652 103.251 770.545 103.78L770.293 105.08C770.19 105.61 770.007 106.088 769.745 106.514C769.487 106.941 769.138 107.289 768.693 107.561C768.252 107.838 767.708 108.013 767.069 108.089C766.426 108.167 765.668 108.122 764.795 107.952C764.096 107.816 763.496 107.631 762.991 107.394C762.49 107.158 762.075 106.882 761.752 106.57C761.429 106.259 761.185 105.922 761.016 105.555C760.846 105.192 760.744 104.813 760.71 104.42C760.677 104.022 760.697 103.626 760.774 103.23L761.035 101.931C761.112 101.535 761.242 101.161 761.421 100.804C761.6 100.452 761.833 100.134 762.127 99.8575C762.417 99.5837 762.775 99.3598 763.19 99.196C763.61 99.029 764.094 98.9315 764.646 98.9003C765.199 98.8692 765.829 98.9224 766.532 99.0591ZM766.324 100.131C765.797 100.029 765.334 99.9795 764.929 99.9824C764.525 99.9853 764.173 100.035 763.876 100.136C763.578 100.241 763.325 100.388 763.115 100.587C762.91 100.784 762.741 101.024 762.609 101.304C762.472 101.587 762.373 101.91 762.302 102.272L762.071 103.421C761.999 103.79 761.97 104.131 761.991 104.44C762.008 104.753 762.075 105.035 762.193 105.291C762.314 105.547 762.494 105.773 762.737 105.971C762.98 106.169 763.289 106.343 763.664 106.494C764.038 106.644 764.483 106.771 765.005 106.872C765.536 106.976 766.003 107.026 766.403 107.026C766.803 107.026 767.155 106.977 767.456 106.876C767.756 106.78 768.009 106.633 768.213 106.441C768.422 106.249 768.589 106.016 768.717 105.74C768.848 105.463 768.947 105.144 769.016 104.787L769.241 103.632C769.316 103.264 769.346 102.923 769.33 102.607C769.313 102.294 769.246 102.008 769.125 101.752C769.008 101.492 768.828 101.262 768.592 101.053C768.354 100.848 768.046 100.67 767.672 100.516C767.299 100.361 766.85 100.234 766.324 100.131ZM766.701 101.549C766.98 101.604 767.191 101.69 767.332 101.807L767.281 101.771L767.296 101.781L767.332 101.807C767.367 101.836 767.399 101.867 767.427 101.899L767.447 101.926L767.488 101.983L767.502 102.002L767.516 102.028L767.518 102.034L767.558 102.114L767.595 102.237L767.598 102.256L767.599 102.269L767.6 102.273L767.604 102.301L767.619 102.409L767.617 102.465L767.616 102.47L767.617 102.486L767.617 102.513L767.616 102.548L767.615 102.567L767.616 102.594L767.615 102.6L767.609 102.649L767.594 102.75L767.589 102.79L767.502 103.241L767.496 103.256L767.49 103.278L767.488 103.291L767.471 103.349L767.451 103.423L767.446 103.442L767.43 103.475L767.41 103.522L767.398 103.548L767.394 103.559L767.362 103.628L767.251 103.796C767.122 103.954 766.959 104.041 766.762 104.047L766.773 104.133L766.808 104.401L766.836 104.627L766.848 104.717L766.85 104.724L766.852 104.735L766.872 104.901L766.889 105.027L766.895 105.072L766.905 105.159L766.936 105.393L766.938 105.4L766.966 105.618L766.967 105.631L766.968 105.635L766.996 105.846L767.006 105.917L766.039 105.729L766.033 105.659L766.032 105.643L766.022 105.5L766.019 105.45L766.018 105.446L766.017 105.433L766.003 105.219L766.002 105.211L766.002 105.195L765.998 105.151L765.986 104.98L765.981 104.894L765.979 104.883L765.977 104.85L765.968 104.725L765.956 104.561L765.957 104.551L765.956 104.543L765.95 104.455L765.934 104.231L765.931 104.187L765.931 104.171L765.916 103.969L764.926 103.776L764.601 105.449L763.669 105.268L764.476 101.117L766.701 101.549ZM766.311 102.211L765.27 102.009L765.057 103.104L766.137 103.315L766.256 103.328C766.328 103.329 766.388 103.314 766.437 103.283L766.468 103.252L766.486 103.236C766.501 103.217 766.515 103.194 766.528 103.167L766.549 103.108L766.553 103.096L766.562 103.075L766.564 103.058L766.577 103.009L766.589 102.962L766.642 102.691L766.653 102.607L766.66 102.568L766.661 102.467L766.648 102.412L766.647 102.408L766.646 102.404L766.629 102.376L766.619 102.355L766.573 102.311C766.52 102.268 766.433 102.235 766.311 102.211ZM674.945 110.392C672.614 108.494 669.565 106.886 665.797 105.567C662.867 104.513 660.859 103.881 659.016 103.068C657.171 102.255 656.393 101.109 656.681 99.6288C656.9 98.4997 657.574 97.7113 658.703 97.264C659.831 96.8161 661.079 96.4967 663.203 96.9095C665.463 97.3489 667.253 98.2323 668.572 99.5593C669.892 100.888 670.603 102.48 670.707 104.34L679.931 102.919C679.732 99.4664 678.284 96.7754 675.585 94.846C672.886 92.9174 669.209 91.4995 664.551 90.5942C659.778 89.6663 656.141 90.0267 652.884 91.0703C649.628 92.1149 647.666 94.3508 647 97.7772C646.319 101.283 647.02 104.051 649.102 106.082C651.184 108.113 654.226 109.396 658.064 110.769C661.122 111.889 663.244 112.558 665.189 113.38C667.131 114.202 667.954 115.382 667.655 116.92C667.435 118.05 666.699 118.821 665.445 119.234C664.192 119.647 662.543 119.655 660.497 119.258C658.022 118.776 656.092 117.886 654.707 116.586C654.693 116.573 654.68 116.559 654.666 116.547C652 114.108 648.519 112.6 644.831 112.826C643.267 112.922 641.828 113.327 640.431 114.019C639.132 114.664 637.999 114.853 636.55 114.572C635.107 114.291 634.048 113.788 633.37 113.06C632.693 112.332 632.538 111.024 632.905 109.135L636.243 91.9617L646.882 94.0296L648.167 87.4184L637.528 85.3504L639.067 77.4354L629.216 75.5206L627.677 83.4356L624.154 82.7508L622.869 89.362L626.392 90.0469L625.436 94.968C625.053 96.9362 624.707 98.9157 624.282 100.875C623.705 103.533 622.644 106.874 620.082 108.273C619.075 108.823 617.922 108.902 616.824 108.6C614.058 107.839 614.329 105.818 614.78 103.496L616.05 96.9635L617.585 89.0653L618.75 83.0733L619.007 81.7499L609.215 79.8465L605.235 100.322C604.64 102.447 603.577 104.068 602.043 105.187C600.255 106.495 598.344 106.951 596.318 106.558C594.37 106.179 593.075 105.222 592.434 103.68C591.792 102.142 591.844 99.4548 592.59 95.6188L596.155 77.2761L586.363 75.3727L582.707 94.1815C581.753 99.0892 581.831 103.166 582.938 106.412C584.048 109.658 586.862 111.72 591.381 112.599C596.37 113.568 600.534 112.863 603.868 110.48C603.868 110.48 603.871 110.484 603.872 110.495C604.461 114.774 609.543 116.794 613.383 116.293C616.595 115.874 619.664 114.271 622.388 112.277C622.475 114.262 623.168 115.846 624.47 117.028C626.352 118.738 628.832 119.891 631.91 120.489C634.601 121.012 637.797 121.576 640.51 120.987C641.409 120.791 642.317 120.57 643.197 120.297C643.992 120.051 644.784 119.568 645.646 119.739C646.6 119.928 647.333 120.831 648.097 121.373C649.016 122.025 649.989 122.6 650.996 123.106C653.018 124.121 655.174 124.855 657.371 125.387C657.938 125.524 658.508 125.648 659.081 125.76C664.303 126.775 668.514 126.594 671.661 125.489C674.808 124.383 676.755 121.912 677.5 118.076C678.181 114.571 677.276 112.29 674.945 110.392ZM566.57 69.089L567.519 69.2977C569.093 69.6727 570.639 70.1834 572.154 70.8216C577.848 73.228 581.188 77.4116 581.862 83.3742C582.168 86.0806 582.043 88.747 581.528 91.3465C581.032 93.95 580.149 96.4686 578.851 98.8634C575.993 104.139 571.329 106.767 565.148 106.865C563.176 106.894 561.23 106.737 559.322 106.38C557.418 105.996 555.555 105.413 553.737 104.647C548.043 102.241 544.703 98.0572 544.029 92.0946C543.723 89.3881 543.848 86.7222 544.363 84.1223C544.859 81.5191 545.742 79.0002 547.04 76.6054C549.898 71.3293 554.563 68.7018 560.743 68.6035C562.716 68.5745 564.662 68.7328 566.57 69.089ZM565.219 76.0423C562.623 75.5337 560.643 76.1668 559.359 78.4934C559.196 78.7902 559.038 79.0917 558.885 79.3944C557.767 81.6579 556.981 84.04 556.535 86.4882C556.031 88.9253 555.868 91.4286 556.056 93.9459C556.085 94.284 556.119 94.6227 556.158 94.9589C556.477 97.597 558.076 98.9259 560.673 99.427C563.268 99.9351 565.249 99.302 566.532 96.9754C566.695 96.6785 566.853 96.3771 567.006 96.0744C568.124 93.8109 568.911 91.4289 569.356 88.9806C569.86 86.5435 570.023 84.0402 569.835 81.5229C569.806 81.1848 569.772 80.846 569.733 80.5099C569.414 77.8718 567.815 76.5429 565.219 76.0423ZM565.579 85.8763C566.824 86.1183 567.637 87.3229 567.396 88.567C567.154 89.8111 565.949 90.6234 564.703 90.3814C563.458 90.1394 562.645 88.9348 562.887 87.6907C563.129 86.4466 564.334 85.6342 565.579 85.8763Z" fill="#F172A8"/>
</g>
<g opacity="0.05" clip-path="url(#clip5_863_909)">
<path fill-rule="evenodd" clip-rule="evenodd" d="M885.18 1.59134C886.22 -0.999901 887.291 -2.0496 890.023 -3.15702C887.128 -4.08819 886.008 -5.01289 884.802 -7.46543C883.771 -4.88308 882.707 -3.84015 879.96 -2.71709C882.84 -1.7972 883.983 -0.854427 885.18 1.59134ZM882.248 39.4569L892.27 38.9347L890.418 3.41753L880.397 3.9398L882.248 39.4569ZM926.531 -6.53764L927.926 19.0803L928.271 25.476C928.582 27.3074 930.088 28.6907 932.031 27.9973C932.439 27.8515 932.829 27.6669 933.192 27.4304C933.251 27.3921 933.312 27.3485 933.337 27.2831C933.407 27.0976 932.831 26.4774 932.724 26.3119C932.501 25.9678 932.29 25.6166 932.091 25.2585C931.695 24.544 931.347 23.8026 931.055 23.0394C930.471 21.5115 930.115 19.896 930.036 18.2613C929.837 14.1374 932.115 9.84041 936.878 5.37386C941.755 0.80117 946.225 -1.20245 950.288 -0.633015C954.35 -0.0635789 957.991 1.87387 961.807 5.93741C962.567 6.74709 963.196 7.51549 963.692 8.24683L945.043 25.7396C947.258 27.6913 949.199 28.7118 950.864 28.8093C953.04 28.9483 955.059 28.142 956.924 26.3903C958.009 25.3723 958.772 24.3831 959.211 23.4308C959.646 22.4748 959.762 21.4592 959.549 20.3767C959.336 19.2981 958.948 18.1526 958.384 16.9401L966.652 12.6554C967.922 14.6483 968.512 16.6606 968.426 18.7002C968.344 20.7395 967.785 22.7116 966.754 24.6161C965.726 26.5204 963.923 28.6816 961.346 31.0953C956.485 35.6591 951.975 37.6768 947.819 37.1523C944.09 36.6817 940.499 34.7897 937.055 31.4759L937.015 31.4303C935.248 33.0748 933.298 34.6823 931.173 35.8482C929.045 37.0163 926.579 37.2561 924.192 37.1298C922.086 37.0184 919.798 36.439 918.937 34.287C918.807 34.4099 918.661 34.5297 918.51 34.6337C915.516 36.7367 911.912 37.898 907.69 38.118C902.913 38.367 899.359 36.9538 897.03 33.8784C894.705 30.8027 893.397 26.4803 893.107 20.915C892.816 15.3297 893.668 10.9028 895.662 7.64204C897.661 4.38111 901.062 2.85786 905.84 2.60886C910.062 2.38881 913.767 3.16919 916.963 4.94956C917.025 4.98639 917.087 5.02322 917.145 5.06025L916.567 -6.01838L926.531 -6.53764ZM909.69 9.02615C907.451 9.14284 905.754 9.97238 904.604 11.5106C903.449 13.049 902.991 16.0213 903.22 20.416C903.451 24.8546 904.217 27.7752 905.524 29.1733C906.828 30.5755 908.602 31.2202 910.841 31.1035C912.904 30.996 914.66 30.2394 916.119 28.8334C917.404 27.5726 918.084 26.087 918.151 24.3769L917.659 14.9283C917.416 13.2705 916.586 11.8836 915.177 10.7672C913.58 9.50046 911.753 8.91863 909.69 9.02615ZM946.937 7.69388C944.976 7.6038 943.093 8.39897 941.3 10.0828C939.535 11.7372 938.623 13.6395 938.571 15.7854C938.519 17.4105 939.1 19.0067 940.909 21.3361L952.456 10.5029C950.36 8.44489 948.721 7.76117 946.937 7.69388ZM962.046 -11.4893C962.93 -11.5353 963.683 -11.4784 964.313 -11.3109C964.939 -11.1433 965.453 -10.8936 965.847 -10.5617C966.246 -10.2259 966.543 -9.83275 966.747 -9.37469C966.947 -8.91642 967.057 -8.41741 967.082 -7.87785L967.15 -6.55545C967.179 -6.0161 967.117 -5.50812 966.965 -5.03152C966.818 -4.55512 966.563 -4.13323 966.198 -3.76166C965.836 -3.38629 965.351 -3.08457 964.749 -2.85693C964.144 -2.62508 963.398 -2.48603 962.51 -2.43977C961.798 -2.40268 961.171 -2.43809 960.624 -2.5458C960.081 -2.65371 959.612 -2.82152 959.223 -3.04564C958.835 -3.26975 958.516 -3.53758 958.263 -3.85289C958.01 -4.1642 957.82 -4.50682 957.692 -4.88073C957.564 -5.25864 957.488 -5.64725 957.467 -6.05077L957.406 -7.37359C957.385 -7.7771 957.42 -8.17155 957.508 -8.56071C957.597 -8.94588 957.746 -9.3102 957.965 -9.6501C958.18 -9.98579 958.473 -10.2895 958.836 -10.5488C959.203 -10.8123 959.649 -11.0238 960.178 -11.1876C960.706 -11.3513 961.331 -11.452 962.046 -11.4893ZM962.103 -10.3986C961.567 -10.3707 961.106 -10.3065 960.714 -10.206C960.322 -10.1055 959.993 -9.97211 959.729 -9.80213C959.465 -9.62815 959.255 -9.42492 959.1 -9.18045C958.948 -8.94019 958.842 -8.66626 958.782 -8.36266C958.717 -8.05486 958.699 -7.71739 958.718 -7.34984L958.771 -6.17883C958.791 -5.80329 958.844 -5.46557 958.94 -5.1701C959.032 -4.87043 959.165 -4.61299 959.341 -4.39381C959.521 -4.17484 959.751 -3.99853 960.034 -3.86508C960.318 -3.73164 960.66 -3.63728 961.059 -3.582C961.459 -3.52672 961.921 -3.51073 962.453 -3.53844C962.992 -3.56657 963.458 -3.63091 963.846 -3.72724C964.234 -3.82356 964.564 -3.95693 964.831 -4.12712C965.099 -4.29331 965.309 -4.49654 965.461 -4.73281C965.617 -4.96929 965.724 -5.23522 965.78 -5.53462C965.841 -5.83422 965.86 -6.16769 965.841 -6.53126L965.78 -7.70584C965.764 -8.08159 965.71 -8.41931 965.618 -8.72298C965.526 -9.02265 965.393 -9.28408 965.213 -9.50305C965.037 -9.72623 964.807 -9.90654 964.527 -10.0522C964.247 -10.1938 963.905 -10.2922 963.505 -10.3514C963.105 -10.4107 962.639 -10.4265 962.103 -10.3986ZM962.812 -9.11351C963.096 -9.12831 963.322 -9.09603 963.486 -9.01647L963.429 -9.03887L963.445 -9.0326L963.486 -9.01647C963.527 -8.99658 963.566 -8.97429 963.601 -8.94959L963.627 -8.92814L963.681 -8.88289L963.699 -8.86831L963.718 -8.84568L963.722 -8.84054L963.78 -8.77265L963.845 -8.66263L963.853 -8.64444L963.857 -8.63219L963.859 -8.62874L963.87 -8.60257L963.91 -8.50072L963.922 -8.44687L963.922 -8.44155L963.927 -8.42575L963.934 -8.3994L963.941 -8.36595L963.945 -8.3466L963.953 -8.32073L963.952 -8.31492L963.958 -8.2654L963.969 -8.16448L963.974 -8.1245L963.998 -7.66505L963.996 -7.64962L963.995 -7.62645L963.996 -7.61402L963.994 -7.55338L963.992 -7.47676L963.993 -7.45677L963.985 -7.42117L963.976 -7.37091L963.971 -7.34213L963.97 -7.33139L963.956 -7.25664L963.889 -7.06647C963.802 -6.88169 963.664 -6.75832 963.474 -6.70438L963.506 -6.62365L963.605 -6.37243L963.687 -6.15954L963.72 -6.0758L963.724 -6.06889L963.728 -6.05842L963.788 -5.9031L963.835 -5.7845L963.851 -5.74263L963.882 -5.66058L963.968 -5.44076L963.972 -5.43385L964.052 -5.22974L964.057 -5.2175L964.059 -5.21404L964.137 -5.01516L964.163 -4.94958L963.18 -4.89832L963.157 -4.96409L963.152 -4.97988L963.108 -5.11642L963.093 -5.1637L963.091 -5.16716L963.087 -5.17941L963.021 -5.38425L963.019 -5.39126L963.014 -5.40706L963 -5.44902L962.947 -5.61181L962.921 -5.69415L962.917 -5.70461L962.906 -5.73611L962.868 -5.85517L962.817 -6.01095L962.815 -6.02151L962.813 -6.02852L962.785 -6.11254L962.715 -6.32608L962.703 -6.36813L962.698 -6.38393L962.635 -6.57651L961.628 -6.524L961.716 -4.82205L960.769 -4.77267L960.549 -8.99557L962.812 -9.11351ZM962.593 -8.37705L961.534 -8.32183L961.592 -7.20717L962.692 -7.26448L962.81 -7.28015C962.88 -7.29658 962.934 -7.3252 962.975 -7.36737L962.997 -7.40533L963.011 -7.42478C963.021 -7.44727 963.029 -7.47309 963.034 -7.50218L963.041 -7.56424L963.042 -7.57676L963.046 -7.59922L963.043 -7.61601L963.044 -7.66768L963.045 -7.71554L963.03 -7.99121L963.021 -8.07592L963.018 -8.11475L962.995 -8.21369L962.969 -8.26366L962.967 -8.26712L962.965 -8.27058L962.942 -8.29433L962.927 -8.31193L962.872 -8.34348C962.81 -8.37232 962.717 -8.38351 962.593 -8.37705ZM875.911 21.6388C873.192 20.3604 869.844 19.537 865.869 19.1676C862.771 18.8524 860.67 18.7251 858.685 18.3815C856.698 18.0376 855.666 17.1139 855.588 15.6081C855.528 14.4595 855.992 13.5316 856.979 12.8247C857.965 12.1175 859.099 11.506 861.26 11.3934C863.559 11.2735 865.509 11.6983 867.11 12.6673C868.712 13.6374 869.787 15.0111 870.337 16.7903L878.945 13.183C877.917 9.88028 875.861 7.61906 872.777 6.39895C869.691 5.17966 865.78 4.69247 861.042 4.93939C856.186 5.1925 852.744 6.42106 849.836 8.22071C846.929 10.0211 845.565 12.6648 845.747 16.1506C845.933 19.7167 847.282 22.2335 849.793 23.7014C852.304 25.1694 855.566 25.6792 859.622 26.0835C862.86 26.4315 865.081 26.5678 867.167 26.8957C869.25 27.2238 870.334 28.1709 870.415 29.735C870.475 30.8848 869.947 31.8109 868.83 32.5144C867.714 33.2184 866.116 33.6246 864.034 33.733C861.516 33.8643 859.428 33.4663 857.77 32.5392C857.754 32.5301 857.737 32.5205 857.721 32.5117C854.545 30.7896 850.803 30.1666 847.279 31.2773C845.784 31.7481 844.485 32.4893 843.297 33.4986C842.192 34.4379 841.139 34.8958 839.664 34.9727C838.196 35.0492 837.047 34.8166 836.214 34.2736C835.381 33.7313 834.914 32.4994 834.814 30.5777L833.903 13.1068L844.726 12.5427L844.376 5.81681L833.553 6.38087L833.133 -1.67141L823.112 -1.14912L823.531 6.90316L819.947 7.08997L820.297 13.8159L823.882 13.629L824.143 18.6354C824.247 20.6378 824.39 22.6422 824.45 24.646C824.533 27.365 824.31 30.8631 822.163 32.8394C821.319 33.6165 820.219 33.9723 819.08 33.9447C816.212 33.8746 815.987 31.8481 815.863 29.4854L815.517 22.8398L815.098 14.8047L814.781 8.70885L814.71 7.36248L804.749 7.88164L805.834 28.7117C805.77 30.918 805.13 32.7476 803.913 34.204C802.493 35.9052 800.75 36.8101 798.689 36.9175C796.706 37.0208 795.218 36.4053 794.224 35.0643C793.229 33.7264 792.63 31.1064 792.427 27.2039L791.454 8.54325L781.493 9.06244L782.49 28.1973C782.75 33.1901 783.811 37.1272 785.669 40.0093C787.531 42.8911 790.76 44.2123 795.358 43.9727C800.433 43.7082 804.303 42.017 806.962 38.8995C806.962 38.8995 806.966 38.903 806.97 38.9128C808.575 42.9229 813.995 43.6551 817.6 42.241C820.615 41.0583 823.206 38.7612 825.368 36.1676C825.931 38.0728 826.987 39.4427 828.536 40.2754C830.775 41.4794 833.46 41.9993 836.592 41.8361C839.33 41.6934 842.567 41.4682 845.057 40.2408C845.883 39.8336 846.71 39.3991 847.498 38.9221C848.21 38.4909 848.862 37.8315 849.74 37.7886C850.711 37.7412 851.641 38.4411 852.513 38.7822C853.562 39.1926 854.645 39.5159 855.744 39.7631C857.952 40.2594 860.222 40.4511 862.482 40.4363C863.065 40.4323 863.649 40.4147 864.232 40.3844C869.544 40.1075 873.586 38.915 876.373 37.082C879.16 35.2486 880.451 32.3803 880.248 28.4778C880.062 24.9121 878.632 22.9171 875.911 21.6388ZM760.768 7.74765L761.739 7.72103C763.357 7.7045 764.981 7.82639 766.605 8.07959C772.712 9.03886 776.964 12.2913 779.059 17.9143C780.01 20.4667 780.533 23.0842 780.661 25.7311C780.809 28.3774 780.56 31.0347 779.88 33.6721C778.381 39.4825 774.49 43.1593 768.516 44.7481C766.609 45.2529 764.683 45.57 762.746 45.6854C760.805 45.7721 758.856 45.657 756.907 45.3531C750.801 44.3939 746.548 41.1415 744.454 35.5184C743.503 32.966 742.98 30.3489 742.852 27.7016C742.704 25.0557 742.952 22.398 743.633 19.7606C745.131 13.9503 749.023 10.2735 754.996 8.6846C756.903 8.17981 758.831 7.86303 760.768 7.74765ZM761.137 14.8215C758.495 14.9552 756.726 16.0481 756.043 18.6159C755.957 18.9433 755.876 19.274 755.801 19.6048C755.263 22.0713 755.076 24.5728 755.234 27.0563C755.335 29.5428 755.781 32.0113 756.572 34.4085C756.682 34.7297 756.796 35.0502 756.916 35.3669C757.863 37.8497 759.735 38.7528 762.376 38.6116C765.017 38.4776 766.786 37.3847 767.47 34.8168C767.555 34.4895 767.636 34.1588 767.712 33.8279C768.25 31.3615 768.438 28.8599 768.278 26.3765C768.178 23.8899 767.732 21.4215 766.941 19.0242C766.831 18.703 766.716 18.3825 766.597 18.0659C765.65 15.583 763.777 14.6799 761.137 14.8215ZM763.863 24.2769C765.13 24.2109 766.21 25.1834 766.276 26.449C766.342 27.7147 765.368 28.7942 764.102 28.8602C762.835 28.9262 761.755 27.9537 761.689 26.6881C761.623 25.4224 762.596 24.3429 763.863 24.2769Z" fill="#F172A8"/>
</g>
<g opacity="0.05" clip-path="url(#clip6_863_909)">
<path fill-rule="evenodd" clip-rule="evenodd" d="M1004.43 123.025C1005.23 119.793 1006.32 118.376 1009.36 116.614C1005.79 115.996 1004.31 115.09 1002.48 112.395C1001.69 115.616 1000.61 117.024 997.555 118.807C1001.11 119.414 1002.61 120.337 1004.43 123.025ZM1007.27 168.22L1019.01 165.937L1010.92 124.311L999.178 126.593L1007.27 168.22ZM1051.9 106.552L1057.81 136.566L1059.28 144.06C1059.95 146.171 1061.96 147.553 1064.14 146.412C1064.6 146.172 1065.03 145.889 1065.42 145.549C1065.48 145.494 1065.55 145.433 1065.56 145.351C1065.62 145.121 1064.83 144.484 1064.68 144.307C1064.36 143.937 1064.05 143.558 1063.76 143.168C1063.17 142.39 1062.64 141.573 1062.16 140.72C1061.22 139.014 1060.53 137.165 1060.17 135.248C1059.25 130.413 1061.22 124.96 1066.1 118.895C1071.1 112.685 1076.04 109.576 1080.94 109.573C1085.83 109.57 1090.45 111.252 1095.63 115.415C1096.66 116.245 1097.53 117.047 1098.24 117.828L1079.13 141.582C1082.07 143.519 1084.53 144.401 1086.51 144.239C1089.1 144.041 1091.35 142.754 1093.26 140.375C1094.38 138.993 1095.11 137.698 1095.47 136.501C1095.83 135.3 1095.79 134.081 1095.36 132.839C1094.93 131.6 1094.28 130.313 1093.42 128.975L1102.47 122.541C1104.3 124.683 1105.33 126.961 1105.57 129.383C1105.81 131.805 1105.48 134.226 1104.57 136.646C1103.68 139.065 1101.91 141.917 1099.27 145.195C1094.29 151.392 1089.3 154.524 1084.3 154.596C1079.82 154.66 1075.27 153.023 1070.65 149.683L1070.6 149.636C1068.78 151.872 1066.75 154.094 1064.43 155.824C1062.11 157.557 1059.24 158.25 1056.4 158.498C1053.9 158.716 1051.1 158.413 1049.73 156.015C1049.59 156.182 1049.44 156.348 1049.28 156.496C1046.1 159.476 1042.03 161.447 1037.09 162.408C1031.49 163.497 1027.06 162.419 1023.79 159.175C1020.54 155.931 1018.27 151.045 1017.01 144.522C1015.73 137.976 1016 132.608 1017.82 128.426C1019.63 124.244 1023.4 121.88 1029 120.791C1033.94 119.83 1038.45 120.135 1042.52 121.706C1042.6 121.739 1042.68 121.772 1042.75 121.806L1040.23 108.822L1051.9 106.552ZM1034.61 127.728C1031.98 128.238 1030.12 129.5 1029.02 131.507C1027.91 133.515 1027.86 137.101 1028.86 142.252C1029.87 147.454 1031.26 150.775 1033.04 152.208C1034.81 153.647 1037.01 154.113 1039.64 153.603C1042.06 153.133 1044 151.947 1045.49 150.045C1046.8 148.343 1047.36 146.475 1047.15 144.445L1045 133.371C1044.44 131.454 1043.23 129.955 1041.38 128.871C1039.28 127.641 1037.03 127.258 1034.61 127.728ZM1078.36 119.962C1076.03 120.181 1073.94 121.433 1072.11 123.719C1070.3 125.966 1069.54 128.364 1069.83 130.906C1070.04 132.833 1070.99 134.622 1073.51 137.071L1085.35 122.36C1082.53 120.279 1080.48 119.744 1078.36 119.962ZM1093.01 94.8001C1094.05 94.5988 1094.95 94.5409 1095.72 94.6338C1096.49 94.7277 1097.13 94.9369 1097.65 95.2633C1098.18 95.5935 1098.6 96.0083 1098.91 96.5151C1099.23 97.0229 1099.44 97.5937 1099.56 98.2267L1099.86 99.7766C1099.98 100.409 1099.99 101.019 1099.89 101.607C1099.8 102.194 1099.57 102.734 1099.2 103.234C1098.84 103.737 1098.31 104.174 1097.64 104.543C1096.96 104.917 1096.11 105.205 1095.07 105.408C1094.23 105.57 1093.48 105.632 1092.82 105.596C1092.16 105.559 1091.58 105.439 1091.08 105.239C1090.59 105.039 1090.17 104.776 1089.82 104.445C1089.47 104.12 1089.18 103.747 1088.97 103.327C1088.76 102.902 1088.6 102.456 1088.51 101.983L1088.22 100.431C1088.13 99.9581 1088.1 99.4865 1088.14 99.0124C1088.18 98.5429 1088.3 98.088 1088.5 97.6503C1088.7 97.2182 1088.99 96.8109 1089.38 96.4443C1089.77 96.0722 1090.26 95.7483 1090.86 95.467C1091.45 95.1858 1092.17 94.9632 1093.01 94.8001ZM1093.26 96.0784C1092.63 96.2005 1092.1 96.3529 1091.65 96.5368C1091.21 96.7206 1090.84 96.9329 1090.56 97.1774C1090.28 97.4267 1090.06 97.7015 1089.92 98.016C1089.78 98.325 1089.7 98.666 1089.68 99.0345C1089.65 99.4086 1089.69 99.8101 1089.77 100.241L1090.03 101.615C1090.11 102.055 1090.23 102.445 1090.4 102.778C1090.55 103.116 1090.76 103.398 1091 103.627C1091.25 103.856 1091.55 104.026 1091.91 104.136C1092.26 104.247 1092.68 104.301 1093.16 104.3C1093.64 104.299 1094.19 104.241 1094.81 104.12C1095.45 103.997 1095.99 103.843 1096.43 103.665C1096.87 103.487 1097.24 103.275 1097.53 103.029C1097.81 102.788 1098.03 102.514 1098.17 102.209C1098.31 101.904 1098.39 101.573 1098.41 101.21C1098.43 100.846 1098.4 100.449 1098.32 100.023L1098.05 98.6463C1097.97 98.2053 1097.85 97.8155 1097.69 97.4722C1097.53 97.1337 1097.33 96.8473 1097.08 96.6187C1096.84 96.3844 1096.54 96.2098 1096.18 96.0844C1095.83 95.9637 1095.41 95.9045 1094.92 95.901C1094.44 95.8975 1093.89 95.9564 1093.26 96.0784ZM1094.31 97.4779C1094.64 97.4132 1094.92 97.4137 1095.12 97.4803L1095.05 97.4634L1095.07 97.4681L1095.12 97.4803C1095.18 97.4969 1095.23 97.5169 1095.27 97.5401L1095.3 97.5612L1095.38 97.6057L1095.4 97.6198L1095.43 97.6433L1095.43 97.6488L1095.51 97.7192L1095.61 97.8383L1095.62 97.8585L1095.63 97.8722L1095.63 97.876L1095.65 97.9052L1095.71 98.0187L1095.73 98.0803L1095.73 98.0865L1095.74 98.1044L1095.76 98.1344L1095.77 98.1727L1095.78 98.1948L1095.79 98.2241L1095.79 98.2311L1095.81 98.2885L1095.84 98.4059L1095.85 98.4523L1095.95 98.9908L1095.95 99.0093L1095.96 99.0368L1095.96 99.0513L1095.97 99.1233L1095.98 99.214L1095.98 99.2375L1095.98 99.2809L1095.98 99.3416L1095.97 99.3765L1095.98 99.3894L1095.97 99.4799L1095.92 99.7157C1095.85 99.9482 1095.71 100.117 1095.49 100.212L1095.55 100.302L1095.7 100.582L1095.84 100.82L1095.89 100.913L1095.9 100.921L1095.9 100.933L1096 101.106L1096.07 101.238L1096.1 101.285L1096.15 101.377L1096.29 101.622L1096.29 101.629L1096.42 101.857L1096.43 101.871L1096.43 101.874L1096.56 102.096L1096.6 102.169L1095.45 102.393L1095.41 102.32L1095.4 102.302L1095.33 102.148L1095.3 102.095L1095.3 102.091L1095.29 102.077L1095.18 101.846L1095.18 101.838L1095.17 101.82L1095.14 101.773L1095.05 101.59L1095.01 101.497L1095 101.485L1094.99 101.45L1094.92 101.315L1094.83 101.14L1094.83 101.128L1094.83 101.12L1094.78 101.025L1094.66 100.785L1094.64 100.737L1094.63 100.719L1094.53 100.503L1093.34 100.732L1093.73 102.727L1092.62 102.943L1091.66 97.9934L1094.31 97.4779ZM1094.18 98.3836L1092.93 98.625L1093.19 99.9314L1094.48 99.6809L1094.61 99.6427C1094.7 99.6116 1094.75 99.5689 1094.79 99.5123L1094.82 99.4638L1094.83 99.4385C1094.84 99.4103 1094.84 99.3786 1094.84 99.3433L1094.84 99.2689L1094.84 99.254L1094.84 99.2268L1094.83 99.2074L1094.83 99.1462L1094.82 99.0896L1094.76 98.7665L1094.73 98.6681L1094.72 98.6227L1094.68 98.5098L1094.64 98.4551L1094.64 98.4514L1094.63 98.4476L1094.6 98.4233L1094.58 98.4051L1094.51 98.377C1094.43 98.3532 1094.32 98.3554 1094.18 98.3836ZM996.825 148.236C993.401 147.179 989.311 146.764 984.557 146.988C980.847 147.131 978.345 147.33 975.944 147.255C973.542 147.179 972.17 146.26 971.827 144.495C971.565 143.149 971.958 141.976 973.006 140.978C974.053 139.979 975.29 139.068 977.822 138.576C980.517 138.052 982.89 138.229 984.941 139.107C986.994 139.986 988.491 141.429 989.437 143.439L999 137.748C997.238 134.02 994.434 131.692 990.589 130.764C986.744 129.838 982.045 129.913 976.492 130.992C970.8 132.099 966.941 134.121 963.807 136.73C960.674 139.339 959.503 142.687 960.297 146.772C961.11 150.952 963.122 153.699 966.33 155.014C969.539 156.33 973.475 156.39 978.331 156.193C982.213 156.065 984.857 155.856 987.374 155.897C989.889 155.938 991.325 156.876 991.682 158.709C991.944 160.057 991.474 161.238 990.272 162.254C989.071 163.271 987.252 164.016 984.813 164.49C981.862 165.064 979.33 164.941 977.219 164.122C977.197 164.114 977.177 164.106 977.156 164.098C973.119 162.593 968.597 162.48 964.622 164.377C962.935 165.182 961.525 166.273 960.29 167.662C959.141 168.955 957.974 169.67 956.246 170.006C954.526 170.341 953.13 170.257 952.055 169.755C950.982 169.253 950.226 167.876 949.788 165.624L945.808 145.148L958.493 142.682L956.961 134.799L944.276 137.265L942.441 127.828L930.696 130.111L932.531 139.548L928.33 140.365L929.862 148.247L934.063 147.431L935.203 153.298C935.66 155.645 936.161 157.988 936.566 160.344C937.116 163.54 937.435 167.707 935.228 170.398C934.36 171.456 933.121 172.059 931.771 172.215C928.374 172.609 927.771 170.254 927.232 167.485L925.719 159.697L923.888 150.279L922.499 143.135L922.193 141.557L910.518 143.826L915.263 168.239C915.554 170.855 915.103 173.122 913.907 175.044C912.514 177.288 910.606 178.646 908.191 179.116C905.867 179.568 904.008 179.088 902.611 177.67C901.214 176.256 900.072 173.262 899.182 168.689L894.931 146.818L883.256 149.088L887.615 171.514C888.753 177.365 890.66 181.837 893.333 184.931C896.01 188.024 900.043 189.047 905.431 188C911.379 186.843 915.667 184.203 918.289 180.08C918.289 180.08 918.293 180.084 918.3 180.095C920.862 184.562 927.382 184.526 931.404 182.257C934.768 180.359 937.444 177.216 939.565 173.794C940.547 175.95 942.022 177.392 943.989 178.117C946.833 179.167 950.089 179.334 953.76 178.62C956.969 177.997 960.753 177.193 963.489 175.329C964.396 174.711 965.301 174.061 966.152 173.367C966.921 172.739 967.581 171.852 968.61 171.656C969.749 171.438 970.963 172.11 972.05 172.368C973.357 172.678 974.689 172.879 976.028 172.988C978.717 173.207 981.429 173.056 984.094 172.663C984.783 172.561 985.469 172.443 986.152 172.311C992.378 171.1 996.952 169.02 999.938 166.393C1002.92 163.765 1003.97 160.163 1003.08 155.59C1002.27 151.411 1000.25 149.293 996.825 148.236ZM858.568 150.982L859.71 150.789C861.618 150.5 863.556 150.374 865.515 150.403C872.885 150.52 878.446 153.653 881.854 159.944C883.401 162.799 884.454 165.802 885.046 168.906C885.66 172.006 885.809 175.185 885.444 178.412C884.641 185.521 880.658 190.509 873.869 193.379C871.702 194.292 869.48 194.986 867.212 195.445C864.935 195.87 862.615 196.058 860.264 196.023C852.894 195.906 847.332 192.773 843.925 186.482C842.378 183.627 841.325 180.624 840.733 177.52C840.119 174.42 839.97 171.241 840.335 168.014C841.138 160.905 845.121 155.917 851.91 153.047C854.077 152.134 856.3 151.44 858.568 150.982ZM860.18 159.272C857.083 159.869 855.177 161.454 854.797 164.599C854.75 165 854.709 165.404 854.675 165.807C854.451 168.808 854.645 171.793 855.246 174.699C855.777 177.618 856.715 180.458 858.048 183.157C858.231 183.518 858.419 183.877 858.613 184.231C860.144 187.005 862.505 187.76 865.6 187.154C868.695 186.557 870.602 184.972 870.982 181.827C871.029 181.426 871.069 181.022 871.104 180.619C871.328 177.618 871.134 174.633 870.533 171.727C870.002 168.808 869.064 165.968 867.731 163.269C867.548 162.908 867.359 162.549 867.166 162.195C865.635 159.421 863.274 158.666 860.18 159.272ZM864.971 169.983C866.455 169.694 867.893 170.662 868.181 172.146C868.469 173.629 867.5 175.066 866.015 175.354C864.531 175.643 863.094 174.674 862.805 173.191C862.517 171.707 863.486 170.271 864.971 169.983Z" fill="#F172A8"/>
</g>
<g opacity="0.05" clip-path="url(#clip7_863_909)">
<path fill-rule="evenodd" clip-rule="evenodd" d="M266.782 6.17759C268.418 3.91454 269.71 3.15467 272.629 2.74017C270.045 1.13715 269.181 -0.0308352 268.604 -2.70208C266.979 -0.445446 265.695 0.309525 262.758 0.73542C265.33 2.32406 266.211 3.51494 266.782 6.17759ZM254.787 42.2127L264.638 44.1274L271.424 9.21547L261.574 7.30077L254.787 42.2127ZM308.872 8.28152L304.035 33.4775L302.825 39.767C302.684 41.6192 303.811 43.3255 305.864 43.1221C306.295 43.0791 306.718 42.9943 307.128 42.8526C307.194 42.8296 307.264 42.8021 307.304 42.7446C307.416 42.5815 307.007 41.8406 306.944 41.6542C306.811 41.2664 306.691 40.8746 306.584 40.479C306.372 39.6899 306.213 38.8864 306.115 38.0753C305.917 36.4516 305.962 34.7979 306.281 33.1926C307.084 29.1429 310.333 25.5236 316.034 22.3402C321.871 19.0816 326.693 18.2174 330.498 19.7517C334.302 21.286 337.367 24.0459 340.088 28.9111C340.63 29.8804 341.055 30.7781 341.359 31.6074L319.036 44.0755C320.713 46.5045 322.35 47.9639 323.942 48.4608C326.02 49.1215 328.174 48.8269 330.407 47.5778C331.707 46.8523 332.685 46.0766 333.342 45.2588C333.995 44.4362 334.353 43.4786 334.408 42.3767C334.462 41.2788 334.362 40.0734 334.107 38.7605L343.166 36.6006C343.917 38.8414 344.003 40.9367 343.427 42.895C342.854 44.854 341.835 46.6326 340.375 48.2315C338.918 49.8312 336.645 51.4924 333.562 53.212C327.741 56.4659 322.878 57.3342 318.971 55.8208C315.467 54.463 312.44 51.7595 309.899 47.7117L309.871 47.6578C307.758 48.8264 305.477 49.915 303.135 50.5331C300.787 51.1523 298.336 50.7893 296.05 50.0897C294.033 49.4727 291.953 48.3576 291.638 46.0613C291.482 46.1492 291.311 46.2301 291.139 46.2946C287.727 47.6119 283.949 47.8679 279.799 47.0612C275.102 46.1483 271.996 43.9183 270.479 40.3712C268.966 36.8249 268.741 32.3145 269.805 26.8441C270.872 21.354 272.768 17.264 275.492 14.582C278.219 11.9007 281.887 11.2443 286.584 12.1572C290.734 12.9639 294.14 14.6164 296.811 17.1162C296.862 17.167 296.914 17.2177 296.961 17.2677L299.078 6.37782L308.872 8.28152ZM288.769 19.3147C286.568 18.8869 284.721 19.2819 283.233 20.4964C281.741 21.7102 280.578 24.4837 279.738 28.8035C278.89 33.1665 278.927 36.1855 279.859 37.8581C280.785 39.5339 282.35 40.588 284.551 41.0158C286.579 41.41 288.466 41.1004 290.221 40.0884C291.773 39.1756 292.792 37.8983 293.27 36.2552L295.076 26.9676C295.241 25.3002 294.771 23.7538 293.673 22.33C292.429 20.7148 290.797 19.7089 288.769 19.3147ZM325.234 27.0222C323.353 26.4609 321.334 26.7776 319.187 27.9783C317.074 29.157 315.73 30.7827 315.161 32.8524C314.718 34.4169 314.895 36.106 316.088 38.8035L329.91 31.0815C328.374 28.5781 326.949 27.5185 325.234 27.0222ZM344.531 12.0586C345.4 12.2274 346.116 12.4645 346.687 12.7793C347.254 13.0933 347.693 13.4598 347.995 13.8772C348.301 14.2992 348.494 14.7525 348.582 15.2464C348.665 15.7394 348.651 16.2503 348.545 16.7797L348.292 18.0796C348.189 18.6097 348.006 19.0877 347.744 19.5136C347.486 19.9402 347.137 20.2881 346.692 20.5603C346.251 20.8373 345.707 21.0127 345.068 21.0883C344.425 21.167 343.667 21.1215 342.794 20.952C342.095 20.816 341.495 20.63 340.99 20.3934C340.489 20.1575 340.074 19.8812 339.751 19.5698C339.428 19.2584 339.184 18.9216 339.015 18.5545C338.845 18.1913 338.743 17.8129 338.709 17.4192C338.676 17.0215 338.696 16.626 338.773 16.2293L339.034 14.931C339.111 14.5344 339.241 14.1602 339.42 13.8038C339.599 13.4514 339.832 13.134 340.126 12.857C340.416 12.5832 340.774 12.3593 341.189 12.1955C341.609 12.0285 342.093 11.931 342.645 11.8998C343.198 11.8687 343.828 11.9219 344.531 12.0586ZM344.323 13.1307C343.796 13.0283 343.333 12.979 342.928 12.9819C342.524 12.9848 342.172 13.0345 341.875 13.1357C341.577 13.2409 341.324 13.3874 341.114 13.587C340.909 13.7834 340.74 14.0236 340.608 14.3036C340.471 14.5868 340.372 14.9098 340.301 15.2711L340.07 16.4202C339.998 16.7894 339.969 17.1301 339.99 17.4399C340.007 17.7528 340.074 18.035 340.192 18.2901C340.313 18.546 340.494 18.7726 340.736 18.9707C340.979 19.1687 341.288 19.3428 341.663 19.493C342.037 19.6433 342.482 19.7704 343.004 19.872C343.535 19.9751 344.002 20.0252 344.402 20.0255C344.802 20.0257 345.154 19.976 345.455 19.8756C345.755 19.7791 346.008 19.6326 346.212 19.4401C346.421 19.2483 346.589 19.016 346.716 18.7391C346.847 18.463 346.946 18.1439 347.015 17.7866L347.24 16.632C347.315 16.2636 347.345 15.9229 347.329 15.606C347.312 15.2931 347.245 15.007 347.124 14.7511C347.007 14.492 346.828 14.2615 346.591 14.0525C346.353 13.8474 346.045 13.6693 345.672 13.5151C345.298 13.361 344.849 13.2331 344.323 13.1307ZM344.7 14.5489C344.979 14.6031 345.19 14.6891 345.331 14.806L345.28 14.7704L345.295 14.7804L345.331 14.806C345.366 14.8353 345.398 14.8662 345.426 14.8987L345.446 14.9257L345.487 14.9826L345.501 15.0012L345.515 15.0278L345.517 15.0337L345.557 15.1137L345.594 15.2362L345.597 15.2557L345.598 15.2686L345.599 15.2725L345.603 15.3003L345.618 15.409L345.616 15.4641L345.615 15.4694L345.616 15.4857L345.616 15.5129L345.615 15.5471L345.614 15.567L345.615 15.5939L345.614 15.5994L345.608 15.649L345.593 15.7494L345.588 15.7894L345.501 16.241L345.495 16.2555L345.489 16.2779L345.487 16.2901L345.47 16.3484L345.45 16.4224L345.445 16.4419L345.429 16.4745L345.409 16.5213L345.397 16.5479L345.393 16.558L345.361 16.6272L345.25 16.7955C345.121 16.9539 344.958 17.0402 344.761 17.0468L344.772 17.1328L344.807 17.4004L344.836 17.6269L344.847 17.7161L344.849 17.7237L344.851 17.7349L344.871 17.9L344.888 18.0265L344.894 18.0711L344.904 18.1582L344.935 18.3923L344.937 18.4L344.965 18.6174L344.966 18.6303L344.968 18.6341L344.995 18.846L345.005 18.916L344.038 18.7281L344.032 18.6587L344.031 18.6423L344.021 18.4991L344.018 18.4496L344.017 18.4458L344.016 18.4329L344.002 18.2182L344.001 18.2109L344.001 18.1945L343.997 18.1502L343.985 17.9794L343.98 17.8933L343.978 17.8822L343.976 17.8491L343.967 17.7243L343.955 17.5609L343.956 17.55L343.955 17.5427L343.949 17.4546L343.933 17.2305L343.93 17.1865L343.93 17.1702L343.915 16.9681L342.925 16.7755L342.6 18.4485L341.668 18.2674L342.475 14.1165L344.7 14.5489ZM344.31 15.2108L343.269 15.0084L343.056 16.104L344.136 16.3141L344.255 16.3275C344.328 16.3286 344.387 16.3138 344.436 16.2827L344.467 16.2513L344.485 16.2357C344.5 16.2163 344.514 16.1931 344.527 16.1663L344.548 16.1076L344.552 16.0957L344.561 16.0748L344.563 16.058L344.576 16.0081L344.588 15.9618L344.641 15.6908L344.652 15.6064L344.659 15.5679L344.66 15.4663L344.647 15.4115L344.646 15.4077L344.645 15.4038L344.628 15.3753L344.618 15.3545L344.572 15.3106C344.519 15.2678 344.432 15.2345 344.31 15.2108ZM252.944 23.3912C250.613 21.4935 247.564 19.8855 243.796 18.5668C240.866 17.5122 238.858 16.881 237.015 16.0678C235.17 15.2541 234.392 14.1084 234.68 12.6283C234.899 11.4993 235.573 10.7109 236.702 10.2635C237.83 9.81558 239.078 9.49626 241.202 9.909C243.462 10.3484 245.252 11.2318 246.571 12.5588C247.891 13.8873 248.602 15.48 248.706 17.3395L257.93 15.919C257.731 12.4659 256.283 9.77492 253.584 7.84556C250.885 5.9169 247.208 4.499 242.55 3.59375C237.777 2.66581 234.14 3.02626 230.883 4.06984C227.627 5.11444 225.665 7.35033 224.999 10.7767C224.318 14.282 225.019 17.0503 227.101 19.0815C229.183 21.1127 232.225 22.3956 236.063 23.7681C239.121 24.8883 241.243 25.5572 243.188 26.3793C245.131 27.2012 245.953 28.3819 245.654 29.9194C245.434 31.0496 244.698 31.8206 243.444 32.2335C242.191 32.6468 240.542 32.6548 238.496 32.2571C236.021 31.776 234.091 30.8853 232.706 29.5851C232.692 29.5721 232.679 29.5589 232.665 29.5464C229.999 27.1078 226.518 25.5991 222.83 25.8253C221.266 25.9211 219.827 26.3263 218.43 27.0187C217.131 27.6631 215.998 27.8529 214.549 27.5712C213.106 27.2908 212.047 26.7874 211.369 26.059C210.692 25.3316 210.537 24.0233 210.904 22.1344L214.242 4.9612L224.881 7.02915L226.166 0.417885L215.527 -1.65007L217.066 -9.56513L207.215 -11.4799L205.677 -3.56485L202.153 -4.24971L200.868 2.36156L204.391 3.04642L203.435 7.96747C203.052 9.93573 202.706 11.9152 202.281 13.8743C201.704 16.5327 200.643 19.8733 198.081 21.2721C197.074 21.8222 195.921 21.9017 194.823 21.5997C192.057 20.8388 192.328 18.8178 192.779 16.4953L194.049 9.96296L195.584 2.06478L196.749 -3.92718L197.006 -5.25062L187.214 -7.15394L183.234 13.3212C182.639 15.4465 181.576 17.0673 180.042 18.1863C178.254 19.4941 176.343 19.9509 174.317 19.5571C172.369 19.1783 171.074 18.2215 170.433 16.6799C169.791 15.1413 169.843 12.4543 170.589 8.61829L174.154 -9.7244L164.362 -11.6278L160.706 7.18104C159.752 12.0887 159.83 16.1656 160.937 19.4112C162.047 22.6575 164.861 24.7198 169.38 25.5982C174.369 26.568 178.533 25.862 181.867 23.4796C181.867 23.4796 181.87 23.4838 181.871 23.4943C182.46 27.7734 187.542 29.7936 191.382 29.2926C194.594 28.8736 197.663 27.2705 200.387 25.2762C200.474 27.2611 201.167 28.8455 202.469 30.0277C204.351 31.7372 206.831 32.8905 209.909 33.489C212.6 34.012 215.796 34.5757 218.509 33.9863C219.408 33.7908 220.316 33.569 221.196 33.2967C221.991 33.0502 222.783 32.5679 223.645 32.7384C224.599 32.927 225.332 33.8308 226.096 34.3727C227.015 35.0245 227.988 35.5998 228.995 36.1053C231.017 37.1203 233.173 37.8549 235.37 38.3866C235.937 38.5237 236.507 38.6477 237.081 38.7591C242.302 39.774 246.513 39.5937 249.66 38.4884C252.807 37.3827 254.754 34.9115 255.499 31.0755C256.181 27.5706 255.275 25.2891 252.944 23.3912ZM144.569 -17.9115L145.518 -17.7027C147.092 -17.3278 148.638 -16.8171 150.153 -16.1789C155.847 -13.7725 159.187 -9.58893 159.861 -3.62634C160.167 -0.919846 160.042 1.74654 159.527 4.34605C159.031 6.94956 158.148 9.46811 156.85 11.8629C153.992 17.1389 149.328 19.7665 143.147 19.8648C141.175 19.8938 139.229 19.7361 137.321 19.38C135.417 18.9952 133.554 18.4125 131.736 17.6467C126.042 15.2403 122.702 11.0567 122.028 5.09415C121.722 2.38766 121.847 -0.278337 122.362 -2.87817C122.858 -5.48135 123.741 -8.0003 125.039 -10.3951C127.897 -15.6712 132.562 -18.2987 138.742 -18.397C140.715 -18.426 142.661 -18.2677 144.569 -17.9115ZM143.218 -10.9582C140.622 -11.4668 138.642 -10.8337 137.358 -8.50713C137.195 -8.21024 137.037 -7.90882 136.884 -7.60609C135.766 -5.34255 134.98 -2.96048 134.534 -0.512248C134.03 1.92483 133.867 4.42806 134.055 6.94538C134.084 7.28355 134.118 7.62225 134.157 7.95841C134.476 10.5965 136.075 11.9254 138.672 12.4265C141.267 12.9346 143.248 12.3015 144.531 9.97495C144.694 9.67798 144.852 9.37663 145.006 9.07391C146.123 6.81037 146.91 4.42837 147.356 1.98006C147.859 -0.456939 148.022 -2.96025 147.834 -5.47756C147.805 -5.81574 147.771 -6.15451 147.732 -6.49059C147.413 -9.12867 145.814 -10.4576 143.218 -10.9582ZM143.578 -1.12423C144.823 -0.882216 145.636 0.32244 145.395 1.56655C145.153 2.81065 143.948 3.62295 142.702 3.38094C141.457 3.13893 140.644 1.93427 140.886 0.690169C141.128 -0.553937 142.333 -1.36624 143.578 -1.12423Z" fill="#F172A8"/>
</g>
<g opacity="0.05" clip-path="url(#clip8_863_909)">
<path fill-rule="evenodd" clip-rule="evenodd" d="M156.276 101.469C157.791 99.1234 159.042 98.297 161.935 97.7303C159.271 96.2647 158.347 95.1435 157.631 92.5061C156.126 94.8447 154.883 95.6659 151.972 96.2449C154.625 97.6967 155.567 98.8399 156.276 101.469ZM146.184 138.082L156.121 139.479L161.071 104.26L151.134 102.863L146.184 138.082ZM198.418 101.367L194.907 126.782L194.028 133.126C193.984 134.983 195.199 136.628 197.238 136.318C197.666 136.252 198.084 136.145 198.486 135.982C198.551 135.956 198.619 135.925 198.656 135.865C198.76 135.696 198.313 134.978 198.239 134.795C198.086 134.415 197.946 134.03 197.819 133.64C197.566 132.863 197.365 132.069 197.224 131.265C196.942 129.653 196.901 128 197.135 126.38C197.725 122.294 200.78 118.509 206.306 115.032C211.965 111.472 216.735 110.357 220.615 111.69C224.495 113.023 227.7 115.619 230.672 120.335C231.263 121.274 231.735 122.149 232.081 122.961L210.442 136.58C212.244 138.918 213.955 140.29 215.571 140.703C217.681 141.254 219.816 140.847 221.981 139.483C223.24 138.69 224.177 137.864 224.79 137.013C225.399 136.157 225.706 135.183 225.704 134.079C225.7 132.98 225.537 131.781 225.214 130.484L234.147 127.853C235.015 130.051 235.21 132.139 234.737 134.125C234.268 136.111 233.344 137.941 231.969 139.614C230.597 141.287 228.415 143.065 225.426 144.944C219.784 148.498 214.973 149.62 210.992 148.313C207.421 147.14 204.257 144.599 201.507 140.69L201.477 140.637C199.428 141.915 197.208 143.121 194.9 143.861C192.588 144.602 190.122 144.368 187.802 143.789C185.756 143.279 183.62 142.274 183.185 139.997C183.034 140.093 182.868 140.183 182.7 140.256C179.361 141.75 175.602 142.204 171.415 141.615C166.677 140.949 163.458 138.885 161.757 135.422C160.061 131.96 159.6 127.468 160.376 121.949C161.154 116.411 162.834 112.227 165.414 109.406C167.997 106.586 171.626 105.738 176.363 106.404C180.55 106.992 184.039 108.464 186.837 110.821C186.89 110.869 186.944 110.917 186.994 110.964L188.538 99.9787L198.418 101.367ZM178.921 113.437C176.7 113.125 174.877 113.616 173.454 114.907C172.028 116.197 171.011 119.028 170.399 123.386C169.78 127.787 169.975 130.8 170.993 132.422C172.006 134.047 173.624 135.018 175.844 135.33C177.89 135.617 179.758 135.209 181.458 134.107C182.96 133.114 183.911 131.785 184.302 130.119L185.619 120.75C185.697 119.076 185.146 117.556 183.975 116.192C182.649 114.644 180.966 113.725 178.921 113.437ZM215.739 119.226C213.831 118.764 211.831 119.186 209.751 120.497C207.702 121.785 206.445 123.479 205.985 125.575C205.624 127.161 205.89 128.838 207.222 131.47L220.621 123.035C218.956 120.615 217.477 119.632 215.739 119.226ZM234.227 103.273C235.103 103.396 235.831 103.595 236.417 103.88C237 104.164 237.457 104.507 237.781 104.908C238.108 105.313 238.325 105.756 238.438 106.244C238.547 106.732 238.561 107.243 238.481 107.777L238.297 109.089C238.222 109.624 238.065 110.111 237.825 110.55C237.589 110.989 237.259 111.355 236.829 111.65C236.403 111.949 235.869 112.153 235.235 112.262C234.597 112.374 233.838 112.369 232.958 112.245C232.252 112.146 231.643 111.991 231.126 111.782C230.614 111.572 230.185 111.318 229.846 111.024C229.508 110.73 229.246 110.406 229.057 110.049C228.869 109.695 228.747 109.322 228.693 108.931C228.639 108.535 228.638 108.139 228.695 107.739L228.887 106.429C228.943 106.029 229.053 105.648 229.214 105.283C229.374 104.922 229.59 104.593 229.869 104.301C230.144 104.012 230.49 103.77 230.896 103.584C231.306 103.396 231.785 103.273 232.335 103.213C232.885 103.153 233.517 103.173 234.227 103.273ZM234.075 104.354C233.543 104.28 233.078 104.255 232.674 104.279C232.271 104.303 231.921 104.371 231.63 104.488C231.338 104.608 231.093 104.768 230.894 104.978C230.699 105.185 230.543 105.434 230.426 105.72C230.304 106.01 230.222 106.338 230.171 106.702L230 107.862C229.947 108.234 229.936 108.576 229.973 108.884C230.006 109.196 230.088 109.474 230.219 109.723C230.354 109.972 230.546 110.189 230.799 110.374C231.052 110.559 231.369 110.717 231.751 110.847C232.133 110.978 232.583 111.081 233.111 111.155C233.646 111.231 234.115 111.256 234.514 111.236C234.914 111.215 235.263 111.147 235.558 111.031C235.853 110.919 236.097 110.759 236.292 110.556C236.49 110.354 236.645 110.113 236.758 109.83C236.874 109.547 236.956 109.224 237.007 108.863L237.17 107.698C237.227 107.326 237.238 106.985 237.206 106.669C237.173 106.357 237.091 106.075 236.957 105.826C236.826 105.573 236.635 105.353 236.388 105.156C236.14 104.964 235.823 104.802 235.442 104.668C235.06 104.533 234.606 104.429 234.075 104.354ZM234.525 105.751C234.807 105.79 235.023 105.865 235.169 105.975L235.117 105.942L235.131 105.951L235.169 105.975C235.205 106.002 235.239 106.031 235.269 106.062L235.29 106.088L235.334 106.143L235.349 106.161L235.364 106.187L235.367 106.192L235.411 106.27L235.454 106.39L235.458 106.41L235.46 106.423L235.461 106.426L235.466 106.454L235.487 106.562L235.488 106.617L235.488 106.622L235.489 106.639L235.49 106.666L235.491 106.7L235.492 106.72L235.494 106.747L235.493 106.752L235.489 106.802L235.48 106.903L235.477 106.943L235.413 107.399L235.409 107.414L235.404 107.436L235.402 107.449L235.388 107.508L235.372 107.583L235.369 107.602L235.354 107.636L235.337 107.684L235.326 107.711L235.322 107.721L235.295 107.792L235.192 107.966C235.072 108.131 234.913 108.225 234.717 108.242L234.733 108.328L234.782 108.593L234.822 108.818L234.838 108.906L234.841 108.914L234.843 108.925L234.872 109.088L234.895 109.214L234.904 109.258L234.918 109.345L234.961 109.577L234.964 109.584L235.003 109.8L235.005 109.813L235.006 109.817L235.045 110.027L235.059 110.096L234.083 109.959L234.073 109.89L234.072 109.874L234.054 109.731L234.049 109.682L234.047 109.678L234.046 109.665L234.02 109.452L234.019 109.444L234.018 109.428L234.012 109.384L233.991 109.214L233.981 109.128L233.979 109.117L233.975 109.085L233.96 108.96L233.94 108.798L233.939 108.787L233.939 108.78L233.928 108.692L233.9 108.469L233.895 108.425L233.894 108.409L233.869 108.208L232.869 108.067L232.632 109.755L231.693 109.623L232.281 105.436L234.525 105.751ZM234.171 106.432L233.12 106.285L232.965 107.39L234.055 107.543L234.174 107.55C234.247 107.548 234.305 107.53 234.353 107.496L234.382 107.463L234.399 107.447C234.413 107.427 234.426 107.403 234.437 107.375L234.455 107.315L234.458 107.303L234.466 107.282L234.467 107.265L234.478 107.215L234.488 107.168L234.526 106.894L234.533 106.809L234.537 106.771L234.534 106.669L234.517 106.615L234.516 106.611L234.515 106.608L234.497 106.58L234.485 106.56L234.438 106.518C234.382 106.478 234.294 106.45 234.171 106.432ZM143.358 119.383C140.931 117.61 137.801 116.164 133.97 115.044C130.989 114.144 128.95 113.619 127.067 112.904C125.183 112.187 124.346 111.084 124.555 109.591C124.715 108.452 125.347 107.629 126.451 107.124C127.554 106.617 128.784 106.233 130.926 106.534C133.207 106.855 135.04 107.643 136.427 108.899C137.814 110.157 138.608 111.71 138.809 113.562L147.946 111.66C147.567 108.222 145.98 105.611 143.184 103.825C140.388 102.041 136.641 100.817 131.943 100.157C127.127 99.4801 123.514 100.03 120.316 101.243C117.119 102.457 115.277 104.792 114.791 108.249C114.294 111.785 115.139 114.513 117.325 116.432C119.51 118.351 122.615 119.473 126.52 120.643C129.633 121.602 131.787 122.159 133.771 122.878C135.755 123.597 136.638 124.733 136.42 126.284C136.259 127.424 135.564 128.233 134.334 128.711C133.104 129.189 131.458 129.283 129.394 128.993C126.897 128.642 124.923 127.854 123.472 126.628C123.457 126.616 123.443 126.603 123.429 126.591C120.639 124.296 117.084 122.971 113.413 123.39C111.856 123.568 110.44 124.048 109.081 124.812C107.817 125.524 106.696 125.772 105.234 125.567C103.778 125.362 102.695 124.915 101.98 124.223C101.265 123.532 101.042 122.234 101.31 120.328L103.745 103.004L114.477 104.512L115.414 97.8429L104.682 96.3345L105.804 88.3498L95.8666 86.9532L94.7445 94.9379L91.1901 94.4384L90.2528 101.108L93.8071 101.607L93.1094 106.572C92.8304 108.557 92.5884 110.552 92.2663 112.531C91.8295 115.216 90.9445 118.607 88.4596 120.138C87.4827 120.74 86.3355 120.88 85.2224 120.636C82.421 120.021 82.5853 117.989 82.9146 115.646L83.8407 109.056L84.9605 101.088L85.8101 95.0433L85.9977 93.7082L76.1198 92.32L73.2168 112.975C72.733 115.129 71.7567 116.803 70.2837 118.001C68.5664 119.4 66.6823 119.957 64.6385 119.669C62.6728 119.393 61.3292 118.505 60.6085 116.999C59.887 115.497 59.7983 112.81 60.3422 108.941L62.9428 90.4366L53.0645 89.0483L50.3978 108.023C49.702 112.974 49.9935 117.041 51.2685 120.224C52.547 123.408 55.4653 125.32 60.0243 125.961C65.057 126.668 69.1779 125.745 72.383 123.191C72.383 123.191 72.3857 123.195 72.3879 123.206C73.1994 127.448 78.3805 129.2 82.1893 128.498C85.3747 127.912 88.3554 126.15 90.9719 124.016C91.1621 125.994 91.9374 127.54 93.2992 128.652C95.2681 130.261 97.8049 131.283 100.911 131.719C103.625 132.101 106.846 132.497 109.524 131.766C110.413 131.524 111.308 131.255 112.172 130.937C112.953 130.649 113.719 130.126 114.589 130.251C115.551 130.389 116.33 131.254 117.122 131.755C118.074 132.358 119.075 132.881 120.107 133.333C122.179 134.241 124.371 134.862 126.593 135.278C127.166 135.385 127.742 135.479 128.32 135.56C133.588 136.301 137.784 135.9 140.869 134.632C143.953 133.363 145.768 130.793 146.312 126.923C146.809 123.387 145.785 121.157 143.358 119.383ZM32.97 83.809L33.9282 83.9679C35.5198 84.2599 37.0909 84.689 38.637 85.247C44.4489 87.3522 48.0037 91.3552 48.9887 97.2743C49.4359 99.9611 49.4509 102.63 49.0727 105.253C48.7132 107.879 47.9631 110.44 46.7927 112.9C44.2142 118.318 39.6938 121.186 33.5268 121.608C31.5587 121.74 29.6073 121.685 27.6837 121.429C25.762 121.144 23.8709 120.66 22.0155 119.99C16.2036 117.885 12.6484 113.882 11.6638 107.963C11.2166 105.276 11.2016 102.607 11.5802 99.984C11.9393 97.3584 12.6894 94.7967 13.8598 92.3373C16.4379 86.9189 20.9587 84.0508 27.1257 83.6292C29.0938 83.497 31.0463 83.5532 32.97 83.809ZM31.9841 90.8235C29.3656 90.4515 27.4211 91.1874 26.2607 93.5779C26.114 93.8829 25.9718 94.1922 25.8344 94.5026C24.837 96.8215 24.1763 99.2414 23.8589 101.71C23.4836 104.17 23.4517 106.678 23.7713 109.182C23.8179 109.518 23.8693 109.855 23.9263 110.188C24.3827 112.806 26.0491 114.05 28.6687 114.414C31.2869 114.786 33.2314 114.05 34.3918 111.659C34.5381 111.354 34.6807 111.045 34.8181 110.735C35.8155 108.416 36.4766 105.996 36.7936 103.528C37.1692 101.067 37.2008 98.5591 36.8812 96.0551C36.8346 95.7189 36.7828 95.3823 36.7262 95.0488C36.2698 92.431 34.6033 91.1876 31.9841 90.8235ZM32.859 100.625C34.115 100.802 34.9901 101.962 34.8137 103.217C34.6374 104.472 33.4763 105.347 32.2203 105.17C30.9642 104.993 30.0891 103.833 30.2655 102.578C30.4419 101.323 31.603 100.449 32.859 100.625Z" fill="#F172A8"/>
</g>
</g>
<defs>
<clipPath id="clip0_863_909">
<rect width="1200" height="180" fill="white"/>
</clipPath>
<clipPath id="clip1_863_909">
<rect width="225.778" height="48" fill="white" transform="translate(446.001 -16.0005)"/>
</clipPath>
<clipPath id="clip2_863_909">
<rect width="225.778" height="48" fill="white" transform="translate(347.654 107.9) rotate(11)"/>
</clipPath>
<clipPath id="clip3_863_909">
<rect width="225.778" height="48" fill="white" transform="translate(1003.65 -43.0996) rotate(11)"/>
</clipPath>
<clipPath id="clip4_863_909">
<rect width="225.778" height="48" fill="white" transform="translate(549.654 56.9004) rotate(11)"/>
</clipPath>
<clipPath id="clip5_863_909">
<rect width="225.778" height="48" fill="white" transform="translate(741.408 0.0078125) rotate(-2.98337)"/>
</clipPath>
<clipPath id="clip6_863_909">
<rect width="269.2" height="57.2315" fill="white" transform="translate(834.423 145.062) rotate(-11)"/>
</clipPath>
<clipPath id="clip7_863_909">
<rect width="225.778" height="48" fill="white" transform="translate(127.653 -30.1001) rotate(11)"/>
</clipPath>
<clipPath id="clip8_863_909">
<rect width="225.778" height="48" fill="white" transform="translate(15.4395 72.5225) rotate(8)"/>
</clipPath>
</defs>
</svg>
