<svg width="1200" height="213" viewBox="0 0 1200 213" fill="none" xmlns="http://www.w3.org/2000/svg">
<rect width="1200" height="180" fill="#272F3E"/>
<g opacity="0.03" clip-path="url(#clip0_604_22476)">
<path fill-rule="evenodd" clip-rule="evenodd" d="M421.676 119.603L442.609 115.913C443.191 115.811 443.741 115.579 444.22 115.233C444.697 114.887 445.09 114.438 445.366 113.918C445.643 113.399 445.796 112.824 445.815 112.237C445.833 111.65 445.717 111.067 445.472 110.532L434.392 79.6043C434.029 78.8439 433.423 78.2249 432.669 77.8405C432.097 77.5491 431.463 77.4068 430.826 77.4199C430.624 77.4241 430.421 77.4445 430.22 77.4807L409.149 81.1962C408.581 81.3138 408.046 81.5574 407.585 81.9081C407.124 82.2588 406.75 82.7088 406.488 83.2234C406.226 83.738 406.084 84.3047 406.072 84.8813C406.061 85.4578 406.182 86.0285 406.423 86.5521L417.503 117.48C417.866 118.241 418.471 118.863 419.225 119.247C419.98 119.63 420.841 119.756 421.676 119.603ZM417.644 100.322C418.657 106.064 423.796 109.353 429.819 108.292C433.318 107.675 435.916 105.91 437.357 103.294L433.396 100.824C432.455 102.463 431.128 103.503 429.31 103.824C426.191 104.374 423.64 102.6 423.069 99.3653C422.499 96.1311 424.29 93.592 427.409 93.042C429.227 92.7214 430.83 93.2444 432.274 94.4626L435.152 90.7875C432.903 88.8218 429.858 88.0518 426.359 88.6689C420.336 89.7307 416.632 94.5807 417.644 100.322Z" fill="#F3F2F8"/>
<path d="M464.199 94.0048L459.317 94.8658L460.693 88.3978L464.199 94.0048Z" fill="#F3F2F8"/>
<path fill-rule="evenodd" clip-rule="evenodd" d="M455.697 113.604L476.756 109.891C477.337 109.79 477.888 109.558 478.366 109.212C478.844 108.866 479.236 108.416 479.511 107.896C479.786 107.377 479.939 106.802 479.955 106.215C479.971 105.628 479.851 105.046 479.605 104.513L468.526 73.5848C468.161 72.8246 467.556 72.2053 466.803 71.821C466.458 71.6457 466.091 71.5241 465.716 71.4583C465.268 71.3796 464.807 71.3799 464.353 71.4612L443.296 75.1742C442.722 75.2901 442.181 75.5306 441.712 75.8801C441.243 76.2293 440.859 76.6776 440.586 77.1921C440.312 77.7072 440.158 78.2761 440.134 78.8569C440.109 79.4387 440.215 80.0175 440.445 80.5523L451.524 111.48C451.889 112.241 452.494 112.86 453.249 113.243C454.002 113.627 454.863 113.754 455.697 113.604ZM466.467 97.6596L468.605 101.063L474.193 100.077L462.457 82.6924L457.167 83.6252L452.111 103.971L457.591 103.005L458.437 99.0757L466.467 97.6596Z" fill="#F3F2F8"/>
<path fill-rule="evenodd" clip-rule="evenodd" d="M489.788 107.594L510.86 103.878C511.119 103.833 511.373 103.762 511.617 103.667C511.919 103.548 512.206 103.391 512.471 103.2C512.949 102.854 513.34 102.404 513.616 101.884C513.892 101.365 514.044 100.789 514.06 100.202C514.076 99.6159 513.956 99.0339 513.71 98.5006L502.631 67.5726C502.269 66.8106 501.663 66.1899 500.908 65.8058C500.154 65.4223 499.293 65.2963 498.458 65.449L477.386 69.1646C477.091 69.2152 476.804 69.3 476.531 69.4159C476.264 69.5293 476.011 69.6723 475.776 69.843C475.509 70.0359 475.269 70.2611 475.06 70.5129C474.896 70.7128 474.752 70.9289 474.63 71.1583C474.355 71.678 474.202 72.2536 474.187 72.8407C474.171 73.4271 474.29 74.0092 474.536 74.5425L485.615 105.47C485.98 106.231 486.585 106.85 487.34 107.233C488.093 107.617 488.954 107.744 489.788 107.594ZM487.215 96.0326C489.225 96.9564 492.464 97.2466 495.583 96.6966C501.227 95.7015 503.5 92.4106 502.92 89.1224C502.175 84.8924 498.038 84.7359 494.797 84.6127C492.711 84.534 490.995 84.4693 490.796 83.3394C490.629 82.3956 491.31 81.4979 493.561 81.1009C495.216 80.8092 497.092 80.9782 499.081 81.6285L500.037 77.3742C499.226 77.0801 498.325 76.8838 497.379 76.7797C495.919 76.6197 494.354 76.6806 492.857 76.9447C487.213 77.9397 484.932 81.1769 485.526 84.5464C486.273 88.7845 490.377 88.9649 493.621 89.107C495.741 89.2002 497.493 89.2773 497.701 90.4594C497.863 91.3754 497.104 92.1486 494.879 92.541C492.682 92.9284 490.161 92.5945 488.285 91.7862L487.215 96.0326Z" fill="#F3F2F8"/>
<path fill-rule="evenodd" clip-rule="evenodd" d="M523.88 101.582L544.937 97.8695C545.52 97.7687 546.071 97.536 546.549 97.1908C547.027 96.8447 547.419 96.3945 547.694 95.8747C547.85 95.5806 547.967 95.2673 548.041 94.9452C548.098 94.6992 548.13 94.447 548.138 94.1929C548.154 93.6066 548.034 93.0246 547.789 92.4912L536.709 61.5632C536.346 60.8013 535.742 60.1805 534.986 59.7965C534.231 59.413 533.371 59.2869 532.536 59.4397L511.477 63.1529C510.897 63.2533 510.345 63.486 509.867 63.8312C509.569 64.0464 509.307 64.3015 509.083 64.5887C508.947 64.7635 508.827 64.9502 508.722 65.1466C508.447 65.6663 508.294 66.2419 508.278 66.829C508.262 67.4154 508.382 67.9975 508.628 68.5307L519.707 99.4588C520.072 100.219 520.677 100.838 521.432 101.222C522.185 101.605 523.046 101.732 523.88 101.582ZM524.047 76.197L526.628 90.8334L531.999 89.8864L529.418 75.2499L535.224 74.2262L534.478 69.9948L517.469 72.994L518.215 77.2254L524.047 76.197Z" fill="#F3F2F8"/>
</g>
<g opacity="0.03" clip-path="url(#clip1_604_22476)">
<path fill-rule="evenodd" clip-rule="evenodd" d="M670.343 8.83427L691.447 11.362C692.034 11.4337 692.628 11.3705 693.186 11.1777C693.743 10.9855 694.249 10.6688 694.664 10.2512C695.079 9.83424 695.392 9.32819 695.58 8.77191C695.768 8.21554 695.825 7.62344 695.746 7.04131L694.095 -25.7699C693.968 -26.6029 693.567 -27.371 692.957 -27.9571C692.493 -28.4018 691.928 -28.7215 691.314 -28.8933C691.12 -28.9477 690.92 -28.9869 690.716 -29.0106L669.472 -31.5551C668.894 -31.607 668.312 -31.5286 667.769 -31.3263C667.227 -31.1241 666.738 -30.8018 666.338 -30.3851C665.938 -29.9684 665.639 -29.467 665.46 -28.9186C665.283 -28.37 665.233 -27.7888 665.312 -27.2178L666.963 5.59348C667.09 6.4271 667.49 7.1971 668.1 7.78324C668.711 8.36877 669.499 8.73808 670.343 8.83427ZM672.066 -10.7888C671.373 -4.99988 675.34 -0.362856 681.411 0.364361C684.94 0.786964 687.937 -0.149588 690.074 -2.23659L686.998 -5.74769C685.623 -4.45141 684.052 -3.83995 682.219 -4.05949C679.074 -4.43618 677.145 -6.87235 677.536 -10.1337C677.926 -13.3945 680.375 -15.3064 683.521 -14.9297C685.353 -14.7101 686.736 -13.7455 687.766 -12.1613L691.584 -14.8459C690 -17.3786 687.309 -18.997 683.781 -19.4197C677.709 -20.1469 672.759 -16.5773 672.066 -10.7888Z" fill="#F3F2F8"/>
<path fill-rule="evenodd" clip-rule="evenodd" d="M704.642 12.9426L725.874 15.4857C726.459 15.5579 727.055 15.4949 727.612 15.3027C728.17 15.1098 728.675 14.7923 729.089 14.3745C729.503 13.9567 729.815 13.4507 730.001 12.8933C730.186 12.3367 730.24 11.745 730.159 11.1633L728.509 -21.6479C728.38 -22.481 727.98 -23.249 727.37 -23.8351C727.091 -24.1025 726.775 -24.3253 726.435 -24.4969C726.029 -24.702 725.587 -24.8352 725.13 -24.8886L703.899 -27.4315C703.316 -27.4867 702.729 -27.4131 702.178 -27.2145C701.629 -27.0158 701.131 -26.6981 700.721 -26.2848C700.31 -25.8707 699.998 -25.3709 699.807 -24.8218C699.614 -24.2723 699.548 -23.6875 699.613 -23.1093L701.263 9.702C701.392 10.5351 701.792 11.3031 702.403 11.8887C703.014 12.474 703.801 12.8447 704.642 12.9426ZM719.568 0.799804L720.629 4.67598L726.263 5.35087L720.063 -14.6875L714.729 -15.3264L703.999 2.68423L709.524 3.34595L711.471 -0.169987L719.568 0.799804Z" fill="#F3F2F8"/>
<path fill-rule="evenodd" clip-rule="evenodd" d="M739.013 17.0608L760.259 19.6054C760.52 19.6374 760.782 19.6425 761.044 19.622C761.368 19.5956 761.688 19.5288 761.996 19.4223C762.555 19.2296 763.059 18.912 763.473 18.4942C763.888 18.0772 764.2 17.5704 764.385 17.013C764.57 16.4564 764.624 15.8646 764.544 15.2831L762.893 -17.5282C762.767 -18.3624 762.368 -19.1317 761.756 -19.718C761.145 -20.3035 760.357 -20.6735 759.514 -20.7689L738.269 -23.3136C737.972 -23.3505 737.673 -23.3524 737.377 -23.3206C737.089 -23.2893 736.806 -23.2257 736.531 -23.1305C736.22 -23.023 735.925 -22.877 735.652 -22.6963C735.437 -22.5525 735.236 -22.3875 735.054 -22.203C734.64 -21.7852 734.327 -21.2785 734.142 -20.7212C733.957 -20.1645 733.903 -19.5728 733.984 -18.9912L735.634 13.82C735.763 14.6531 736.163 15.4211 736.774 16.0067C737.384 16.5922 738.172 16.9628 739.013 17.0608ZM739.898 5.24962C741.554 6.7156 744.57 7.93131 747.715 8.308C753.405 8.98947 756.534 6.49779 756.931 3.18248C757.442 -1.08226 753.528 -2.42958 750.462 -3.48587C748.487 -4.16537 746.864 -4.72409 747 -5.86328C747.114 -6.81481 748.026 -7.47701 750.295 -7.20515C751.964 -7.00536 753.71 -6.3004 755.426 -5.10197L757.572 -8.89742C756.882 -9.41356 756.076 -9.8625 755.2 -10.236C753.849 -10.8118 752.334 -11.2065 750.824 -11.3874C745.135 -12.0689 742.013 -9.63096 741.607 -6.23379C741.095 -1.96078 744.971 -0.59997 748.035 0.475398C750.037 1.17837 751.691 1.75936 751.549 2.95117C751.438 3.87468 750.488 4.39517 748.244 4.12643C746.029 3.86115 743.713 2.81172 742.151 1.49472L739.898 5.24962Z" fill="#F3F2F8"/>
<path fill-rule="evenodd" clip-rule="evenodd" d="M773.386 21.178L794.616 23.7207C795.203 23.7931 795.799 23.7301 796.356 23.5379C796.914 23.3451 797.419 23.0276 797.833 22.6097C798.067 22.3734 798.27 22.1075 798.434 21.8205C798.56 21.6015 798.664 21.3696 798.745 21.1286C798.93 20.5719 798.984 19.9801 798.903 19.3987L797.253 -13.4126C797.126 -14.2469 796.727 -15.0161 796.115 -15.6025C795.504 -16.1881 794.717 -16.5579 793.873 -16.6533L772.642 -19.1964C772.056 -19.2685 771.461 -19.2056 770.904 -19.0133C770.557 -18.8936 770.231 -18.7255 769.934 -18.5153C769.753 -18.3875 769.584 -18.2436 769.427 -18.0859C769.013 -17.6681 768.7 -17.1613 768.515 -16.604C768.33 -16.0474 768.276 -15.4556 768.357 -14.874L770.007 17.9372C770.136 18.7703 770.536 19.5383 771.147 20.1239C771.757 20.7093 772.544 21.0799 773.386 21.178ZM780.896 -3.07169L779.129 11.6851L784.544 12.3337L786.311 -2.4231L792.165 -1.72197L792.676 -5.98812L775.527 -8.04215L775.016 -3.77601L780.896 -3.07169Z" fill="#F3F2F8"/>
</g>
<g opacity="0.03" clip-path="url(#clip2_604_22476)">
<path fill-rule="evenodd" clip-rule="evenodd" d="M-17.0965 40.2497L3.95172 37.2916C4.53706 37.2108 5.09534 36.9976 5.5857 36.6683C6.07471 36.34 6.48302 35.9042 6.77746 35.3943C7.072 34.885 7.24495 34.3157 7.28412 33.7299C7.3234 33.144 7.2269 32.557 7.00116 32.0146L-2.99227 0.718724C-3.32863 -0.0538725 -3.91328 -0.693687 -4.65293 -1.10415C-5.215 -1.41531 -5.84328 -1.5797 -6.48033 -1.58875C-6.68197 -1.59165 -6.88551 -1.57832 -7.08818 -1.54914L-28.2762 1.42864C-28.848 1.52635 -29.3907 1.75119 -29.8635 2.08561C-30.3363 2.42003 -30.7263 2.85666 -31.0061 3.36179C-31.2858 3.86693 -31.4473 4.42833 -31.4795 5.0042C-31.5104 5.57989 -31.4101 6.15449 -31.1873 6.68617L-21.1937 37.9821C-20.8573 38.7553 -20.2738 39.3974 -19.5342 39.8079C-18.7933 40.2174 -17.9372 40.3728 -17.0965 40.2497ZM-20.4533 20.8392C-19.6419 26.6128 -14.62 30.08 -8.56456 29.2289C-5.04559 28.7344 -2.38802 27.0619 -0.856337 24.4974L-4.72885 21.8907C-5.72595 23.4956 -7.08851 24.4889 -8.9166 24.7459C-12.0533 25.1867 -14.5409 23.3252 -14.9981 20.0725C-15.4551 16.8204 -13.5769 14.3453 -10.4402 13.9045C-8.61216 13.6476 -7.02869 14.2262 -5.62783 15.4941L-2.62376 11.9216C-4.80297 9.87866 -7.81867 9.00287 -11.3376 9.49743C-17.3931 10.3485 -21.2647 15.0662 -20.4533 20.8392Z" fill="#F3F2F8"/>
<path d="M26.2944 16.1506L21.3845 16.8406L22.9855 10.4246L26.2944 16.1506Z" fill="#F3F2F8"/>
<path fill-rule="evenodd" clip-rule="evenodd" d="M17.1112 35.4426L38.2868 32.4666C38.8709 32.3866 39.4306 32.1733 39.9196 31.845C40.41 31.5156 40.8168 31.0794 41.1099 30.5697C41.4029 30.0599 41.5758 29.4907 41.6122 28.9045C41.6488 28.319 41.5496 27.7331 41.3226 27.1915L31.3291 -4.10432C30.9914 -4.87673 30.4082 -5.51676 29.6685 -5.92722C29.3307 -6.11438 28.9679 -6.24875 28.595 -6.32755C28.1499 -6.42189 27.6893 -6.43769 27.2332 -6.37219L6.05896 -3.39635C5.48125 -3.30058 4.9325 -3.07906 4.45112 -2.74622C3.97107 -2.41356 3.57095 -1.97898 3.27994 -1.47434C2.98903 -0.969026 2.81522 -0.405888 2.77099 0.173752C2.72542 0.754277 2.81142 1.33644 3.02182 1.87891L13.0153 33.1748C13.353 33.9472 13.9363 34.5873 14.6771 34.9968C15.4167 35.4066 16.2729 35.5633 17.1112 35.4426ZM28.4317 19.884L30.449 23.3597L36.0687 22.5699L24.946 4.78597L19.6264 5.53359L13.8639 25.6906L19.3739 24.9162L20.3564 21.019L28.4317 19.884Z" fill="#F3F2F8"/>
<path fill-rule="evenodd" clip-rule="evenodd" d="M51.3921 30.6251L72.5813 27.6471C72.8418 27.6112 73.0971 27.5489 73.3449 27.4621C73.651 27.3537 73.9435 27.2072 74.2141 27.0254C74.7045 26.6962 75.1113 26.26 75.4044 25.7501C75.6989 25.2408 75.8703 24.6711 75.9067 24.0849C75.9433 23.4994 75.8441 22.9135 75.6171 22.3721L65.6236 -8.92387C65.2885 -9.69803 64.7051 -10.3394 63.9641 -10.7497C63.2232 -11.1593 62.367 -11.3152 61.5278 -11.1918L40.3384 -8.21378C40.0422 -8.17354 39.7523 -8.09878 39.4751 -7.99249C39.2047 -7.88853 38.9469 -7.75441 38.7056 -7.59207C38.4323 -7.40857 38.1848 -7.19189 37.9675 -6.94754C37.7964 -6.75341 37.6443 -6.54252 37.5152 -6.3175C37.2222 -5.80773 37.0494 -5.23778 37.013 -4.6516C36.9765 -4.0661 37.0756 -3.48024 37.3026 -2.93871L47.2961 28.3572C47.6338 29.1296 48.217 29.7696 48.9579 30.1792C49.6975 30.589 50.5537 30.7457 51.3921 30.6251ZM49.2245 18.9809C51.2003 19.9742 54.4276 20.3773 57.5643 19.9365C63.2388 19.139 65.6258 15.9294 65.1611 12.6229C64.5633 8.36951 60.4351 8.06879 57.2005 7.83256C55.118 7.68101 53.4055 7.55647 53.2458 6.42031C53.1124 5.4713 53.824 4.59788 56.0877 4.27973C57.7514 4.04592 59.6204 4.28031 61.5857 4.99968L62.6892 0.781269C61.8894 0.459118 60.9952 0.231462 60.0536 0.0944316C58.6001 -0.116429 57.0345 -0.110205 55.5285 0.101442C49.854 0.898944 47.4607 4.05452 47.9369 7.44267C48.5359 11.7043 52.6309 12.0278 55.8682 12.2831C57.9836 12.4502 59.7316 12.5884 59.8986 13.777C60.0281 14.6981 59.2429 15.4444 57.0052 15.7589C54.7961 16.0693 52.2887 15.6476 50.4416 14.7743L49.2245 18.9809Z" fill="#F3F2F8"/>
<path fill-rule="evenodd" clip-rule="evenodd" d="M85.6736 25.8067L106.847 22.831C107.433 22.7506 107.993 22.5373 108.482 22.2089C108.972 21.8797 109.379 21.4435 109.672 20.9336C109.838 20.6451 109.967 20.3362 110.052 20.0168C110.117 19.7729 110.158 19.522 110.175 19.2684C110.211 18.683 110.112 18.0971 109.885 17.5555L99.8914 -13.7403C99.5556 -14.5144 98.9731 -15.1559 98.2311 -15.566C97.4903 -15.9757 96.635 -16.1317 95.7952 -16.0082L74.6197 -13.0321C74.0356 -12.9521 73.4759 -12.7388 72.9869 -12.4104C72.6816 -12.2058 72.4101 -11.96 72.1768 -11.6808C72.0345 -11.5109 71.9078 -11.3285 71.7965 -11.1359C71.5034 -10.6261 71.3307 -10.0561 71.2943 -9.46997C71.2577 -8.88447 71.3568 -8.29858 71.5839 -7.75707L81.5774 23.5388C81.9151 24.3112 82.4983 24.9513 83.2392 25.3608C83.9788 25.7706 84.8345 25.9274 85.6736 25.8067ZM86.7265 0.442641L88.7949 15.1602L94.1957 14.4012L92.1272 -0.316389L97.9654 -1.13689L97.3675 -5.39171L80.2637 -2.98794L80.8617 1.26688L86.7265 0.442641Z" fill="#F3F2F8"/>
</g>
<g opacity="0.03" clip-path="url(#clip3_604_22476)">
<path fill-rule="evenodd" clip-rule="evenodd" d="M1121.19 122.496L1140.78 114.249C1141.33 114.021 1141.81 113.672 1142.2 113.229C1142.59 112.786 1142.87 112.26 1143.03 111.692C1143.18 111.124 1143.2 110.53 1143.09 109.953C1142.98 109.377 1142.74 108.834 1142.38 108.368L1124.71 80.6722C1124.18 80.0114 1123.46 79.5425 1122.64 79.3351C1122.01 79.1781 1121.36 79.18 1120.75 79.3343C1120.55 79.3831 1120.36 79.4481 1120.17 79.5282L1100.45 87.8299C1099.92 88.0707 1099.45 88.427 1099.08 88.8713C1098.71 89.3156 1098.44 89.8375 1098.3 90.3974C1098.16 90.9573 1098.15 91.5413 1098.27 92.1063C1098.38 92.6707 1098.63 93.2005 1098.98 93.6574L1116.65 121.353C1117.17 122.014 1117.9 122.486 1118.72 122.693C1119.54 122.899 1120.41 122.831 1121.19 122.496ZM1112.98 104.592C1115.24 109.965 1120.98 112.032 1126.62 109.659C1129.89 108.28 1132.03 105.983 1132.86 103.112L1128.45 101.583C1127.89 103.39 1126.83 104.699 1125.13 105.415C1122.21 106.644 1119.33 105.482 1118.06 102.454C1116.78 99.4273 1117.96 96.554 1120.88 95.325C1122.58 94.6088 1124.26 94.7628 1125.94 95.6299L1127.93 91.4075C1125.3 89.9904 1122.16 89.9157 1118.89 91.2945C1113.25 93.6671 1110.72 99.2185 1112.98 104.592Z" fill="#F3F2F8"/>
<path d="M1156.97 88.0939L1152.4 90.0177L1152.3 83.4056L1156.97 88.0939Z" fill="#F3F2F8"/>
<path fill-rule="evenodd" clip-rule="evenodd" d="M1153.03 109.094L1172.74 100.797C1173.28 100.57 1173.77 100.221 1174.16 99.7782C1174.55 99.3344 1174.83 98.8086 1174.98 98.2408C1175.13 97.673 1175.16 97.0785 1175.04 96.5024C1174.93 95.9272 1174.68 95.3862 1174.32 94.9207L1156.65 67.2252C1156.13 66.565 1155.4 66.0955 1154.58 65.8881C1154.21 65.7936 1153.82 65.7566 1153.44 65.7758C1152.99 65.7985 1152.54 65.9012 1152.11 66.0812L1132.4 74.3775C1131.87 74.618 1131.4 74.9726 1131.02 75.4175C1130.64 75.862 1130.36 76.3845 1130.21 76.9468C1130.06 77.5098 1130.03 78.0986 1130.14 78.6703C1130.24 79.2431 1130.48 79.7839 1130.82 80.2544L1148.49 107.95C1149.01 108.61 1149.74 109.08 1150.56 109.286C1151.38 109.493 1152.25 109.425 1153.03 109.094ZM1159.99 91.1561L1162.83 93.9996L1168.06 91.7978L1152.76 77.4531L1147.81 79.5374L1147.39 100.498L1152.52 98.339L1152.47 94.3201L1159.99 91.1561Z" fill="#F3F2F8"/>
<path fill-rule="evenodd" clip-rule="evenodd" d="M1184.94 95.6632L1204.66 87.361C1204.9 87.2596 1205.13 87.134 1205.35 86.9866C1205.62 86.8035 1205.86 86.587 1206.08 86.342C1206.47 85.8982 1206.75 85.3725 1206.9 84.8046C1207.05 84.2369 1207.07 83.6422 1206.96 83.0662C1206.85 82.4909 1206.6 81.9499 1206.24 81.4846L1188.57 53.789C1188.05 53.1264 1187.32 52.6557 1186.5 52.4488C1185.68 52.2424 1184.81 52.3108 1184.03 52.645L1164.31 60.9472C1164.03 61.062 1163.77 61.2084 1163.53 61.3821C1163.3 61.5518 1163.08 61.7475 1162.89 61.9662C1162.67 62.2135 1162.49 62.4863 1162.34 62.7781C1162.23 63.0096 1162.13 63.2524 1162.07 63.503C1161.91 64.0707 1161.89 64.6659 1162.01 65.2419C1162.12 65.8173 1162.37 66.3582 1162.72 66.8236L1180.4 94.5191C1180.92 95.1794 1181.65 95.6489 1182.47 95.8551C1183.29 96.062 1184.16 95.9943 1184.94 95.6632ZM1179.86 84.9616C1182.02 85.4162 1185.25 84.9798 1188.17 83.7508C1193.45 81.5275 1194.93 77.8139 1193.64 74.7365C1191.97 70.7777 1187.9 71.5436 1184.72 72.1432C1182.67 72.5297 1180.98 72.8476 1180.53 71.7902C1180.16 70.9069 1180.63 69.8805 1182.73 68.9935C1184.28 68.3417 1186.15 68.0899 1188.23 68.2823L1188.22 63.9219C1187.36 63.8152 1186.44 63.824 1185.49 63.9326C1184.04 64.1007 1182.52 64.5075 1181.12 65.0975C1175.84 67.3209 1174.33 70.9839 1175.66 74.1373C1177.33 78.1037 1181.37 77.3683 1184.57 76.7864C1186.66 76.4066 1188.38 76.0927 1188.85 77.199C1189.21 78.0563 1188.64 78.9787 1186.56 79.8555C1184.5 80.721 1181.97 80.9551 1179.96 80.5837L1179.86 84.9616Z" fill="#F3F2F8"/>
<path fill-rule="evenodd" clip-rule="evenodd" d="M1216.84 82.2314L1236.55 73.9354C1237.09 73.7077 1237.58 73.3584 1237.97 72.9157C1238.36 72.472 1238.64 71.9461 1238.79 71.3782C1238.88 71.0568 1238.93 70.7253 1238.93 70.3948C1238.93 70.1424 1238.9 69.8892 1238.85 69.6399C1238.74 69.0647 1238.49 68.5237 1238.14 68.0581L1220.46 40.3627C1219.94 39.7003 1219.21 39.2293 1218.39 39.0227C1217.57 38.8163 1216.7 38.8844 1215.92 39.2188L1196.22 47.5156C1195.67 47.7424 1195.19 48.0919 1194.8 48.5345C1194.55 48.8105 1194.35 49.1175 1194.2 49.4471C1194.11 49.6479 1194.03 49.8566 1193.97 50.0713C1193.82 50.6391 1193.8 51.2343 1193.91 51.8103C1194.03 52.3856 1194.27 52.9266 1194.63 53.392L1212.3 81.0875C1212.83 81.7477 1213.55 82.2172 1214.37 82.4235C1215.19 82.6304 1216.06 82.5629 1216.84 82.2314ZM1211.37 57.4428L1217.13 71.1407L1222.16 69.0246L1216.39 55.3267L1221.83 53.0392L1220.16 49.0792L1204.24 55.7806L1205.91 59.7407L1211.37 57.4428Z" fill="#F3F2F8"/>
</g>
<g opacity="0.03" clip-path="url(#clip4_604_22476)">
<path fill-rule="evenodd" clip-rule="evenodd" d="M879.922 211.968L901.08 209.937C901.668 209.882 902.235 209.693 902.74 209.386C903.243 209.079 903.67 208.662 903.986 208.166C904.303 207.67 904.501 207.109 904.566 206.525C904.63 205.941 904.56 205.351 904.358 204.799L895.749 173.094C895.447 172.308 894.891 171.643 894.17 171.2C893.622 170.865 893.001 170.673 892.365 170.636C892.164 170.624 891.96 170.629 891.756 170.649L870.458 172.693C869.882 172.766 869.33 172.967 868.843 173.28C868.356 173.593 867.947 174.012 867.646 174.505C867.344 174.997 867.158 175.551 867.101 176.125C867.045 176.699 867.12 177.277 867.319 177.818L875.928 209.523C876.231 210.31 876.785 210.977 877.506 211.419C878.228 211.861 879.077 212.054 879.922 211.968ZM877.421 192.429C877.978 198.232 882.843 201.917 888.93 201.332C892.467 200.993 895.196 199.439 896.838 196.944L893.084 194.17C892.017 195.729 890.613 196.662 888.775 196.838C885.622 197.141 883.218 195.172 882.905 191.902C882.591 188.633 884.576 186.243 887.729 185.94C889.566 185.764 891.123 186.412 892.467 187.74L895.625 184.303C893.537 182.166 890.563 181.159 887.026 181.498C880.939 182.083 876.864 186.626 877.421 192.429Z" fill="#F3F2F8"/>
<path d="M924.328 189.797L919.392 190.271L921.274 183.931L924.328 189.797Z" fill="#F3F2F8"/>
<path fill-rule="evenodd" clip-rule="evenodd" d="M914.309 208.668L935.595 206.624C936.182 206.57 936.751 206.382 937.254 206.075C937.758 205.767 938.184 205.35 938.499 204.853C938.814 204.357 939.012 203.796 939.074 203.212C939.136 202.628 939.063 202.039 938.86 201.488L930.25 169.783C929.947 168.997 929.392 168.332 928.671 167.889C928.342 167.687 927.985 167.537 927.616 167.442C927.176 167.328 926.716 167.292 926.258 167.338L904.973 169.381C904.392 169.451 903.834 169.648 903.338 169.96C902.844 170.271 902.425 170.687 902.113 171.179C901.8 171.671 901.601 172.226 901.532 172.803C901.461 173.381 901.521 173.966 901.707 174.518L910.317 206.222C910.621 207.009 911.175 207.674 911.897 208.115C912.618 208.557 913.467 208.751 914.309 208.668ZM926.302 193.621L928.165 197.182L933.814 196.64L923.483 178.385L918.136 178.898L911.493 198.782L917.032 198.251L918.185 194.4L926.302 193.621Z" fill="#F3F2F8"/>
<path fill-rule="evenodd" clip-rule="evenodd" d="M948.768 205.361L970.068 203.316C970.329 203.292 970.587 203.241 970.839 203.165C971.149 203.07 971.448 202.936 971.726 202.767C972.231 202.459 972.656 202.041 972.971 201.545C973.288 201.049 973.484 200.487 973.546 199.903C973.609 199.32 973.535 198.73 973.332 198.18L964.723 166.475C964.422 165.687 963.867 165.02 963.145 164.578C962.423 164.136 961.574 163.943 960.73 164.029L939.431 166.074C939.133 166.101 938.84 166.163 938.558 166.257C938.284 166.349 938.02 166.472 937.772 166.623C937.491 166.795 937.234 167 937.006 167.235C936.827 167.421 936.666 167.625 936.527 167.844C936.212 168.341 936.014 168.903 935.952 169.487C935.89 170.07 935.963 170.66 936.166 171.211L944.776 202.915C945.079 203.702 945.634 204.367 946.356 204.808C947.077 205.25 947.925 205.444 948.768 205.361ZM947.114 193.633C949.044 194.712 952.251 195.256 955.404 194.954C961.108 194.406 963.633 191.304 963.314 187.981C962.904 183.705 958.793 183.223 955.572 182.845C953.498 182.602 951.793 182.403 951.683 181.261C951.591 180.307 952.341 179.465 954.616 179.247C956.288 179.087 958.145 179.403 960.077 180.208L961.365 176.042C960.58 175.685 959.697 175.418 958.762 175.24C957.319 174.965 955.755 174.903 954.241 175.048C948.537 175.596 946.007 178.643 946.334 182.049C946.745 186.333 950.822 186.836 954.045 187.233C956.151 187.493 957.892 187.708 958.006 188.903C958.095 189.828 957.278 190.539 955.029 190.755C952.808 190.969 950.322 190.437 948.515 189.484L947.114 193.633Z" fill="#F3F2F8"/>
<path fill-rule="evenodd" clip-rule="evenodd" d="M983.227 202.052L1004.51 200.009C1005.1 199.955 1005.67 199.766 1006.17 199.459C1006.68 199.152 1007.1 198.734 1007.42 198.238C1007.6 197.957 1007.74 197.654 1007.84 197.338C1007.91 197.098 1007.96 196.849 1007.99 196.596C1008.05 196.013 1007.98 195.423 1007.78 194.872L999.168 163.168C998.867 162.38 998.313 161.713 997.59 161.271C996.867 160.829 996.02 160.636 995.175 160.722L973.89 162.765C973.303 162.82 972.734 163.008 972.231 163.315C971.917 163.506 971.635 163.739 971.39 164.008C971.24 164.172 971.106 164.348 970.986 164.536C970.671 165.032 970.473 165.594 970.411 166.178C970.349 166.761 970.422 167.351 970.625 167.902L979.235 199.607C979.538 200.393 980.093 201.058 980.815 201.5C981.536 201.942 982.384 202.136 983.227 202.052ZM985.393 176.759L986.813 191.553L992.242 191.032L990.822 176.238L996.69 175.674L996.28 171.397L979.087 173.048L979.498 177.325L985.393 176.759Z" fill="#F3F2F8"/>
</g>
<g opacity="0.03" clip-path="url(#clip5_604_22476)">
<path fill-rule="evenodd" clip-rule="evenodd" d="M972.198 -0.401241L992.946 4.77196C993.518 4.91663 994.117 4.92853 994.693 4.80726C995.271 4.68559 995.812 4.43355 996.274 4.07072C996.737 3.70786 997.111 3.24482 997.364 2.71493C997.617 2.18579 997.745 1.60541 997.737 1.01824L1000.2 -31.7424C1000.17 -32.5851 999.87 -33.397 999.338 -34.0546C999.095 -34.3547 998.809 -34.6152 998.493 -34.828C998.116 -35.0822 997.694 -35.2694 997.247 -35.3795L976.5 -40.5524C975.928 -40.68 975.336 -40.6801 974.765 -40.5519C974.196 -40.4233 973.662 -40.1702 973.203 -39.8113C972.744 -39.4518 972.372 -38.9948 972.114 -38.4739C971.854 -37.9527 971.716 -37.3807 971.708 -36.799L969.25 -4.03827C969.274 -3.19558 969.575 -2.38365 970.108 -1.72639C970.64 -1.06945 971.375 -0.603419 972.198 -0.401241ZM988.522 -10.5862L989.091 -6.60793L994.597 -5.23504L990.946 -25.8906L985.734 -27.1902L972.84 -10.6597L978.239 -9.31356L980.61 -12.559L988.522 -10.5862Z" fill="#F3F2F8"/>
<path fill-rule="evenodd" clip-rule="evenodd" d="M1005.79 7.97367L1026.55 13.1502C1026.8 13.2144 1027.06 13.2524 1027.33 13.2646C1027.65 13.2789 1027.98 13.2525 1028.3 13.1854C1028.87 13.0638 1029.41 12.8118 1029.88 12.4488C1030.34 12.087 1030.71 11.6229 1030.97 11.0931C1031.22 10.5639 1031.35 9.98353 1031.34 9.39647L1033.8 -23.3643C1033.78 -24.2076 1033.48 -25.0208 1032.94 -25.6788C1032.41 -26.3361 1031.67 -26.8015 1030.85 -27.0013L1010.09 -32.1779C1009.8 -32.2515 1009.5 -32.2908 1009.2 -32.2961C1008.91 -32.301 1008.63 -32.2732 1008.34 -32.2131C1008.02 -32.1453 1007.71 -32.0372 1007.41 -31.892C1007.18 -31.7761 1006.96 -31.6375 1006.76 -31.4772C1006.3 -31.1144 1005.92 -30.6507 1005.67 -30.1208C1005.42 -29.5916 1005.29 -29.0113 1005.3 -28.4241L1002.84 4.33653C1002.86 5.17919 1003.16 5.99113 1003.7 6.64838C1004.23 7.30543 1004.96 7.77146 1005.79 7.97367ZM1008.14 -3.63465C1009.6 -1.97348 1012.44 -0.390757 1015.51 0.375537C1021.07 1.76182 1024.49 -0.319839 1025.3 -3.55966C1026.34 -7.72729 1022.62 -9.55257 1019.71 -10.9833C1017.84 -11.9039 1016.3 -12.6609 1016.57 -13.7742C1016.8 -14.7041 1017.79 -15.2473 1020.01 -14.6943C1021.64 -14.2879 1023.28 -13.3704 1024.84 -11.9672L1027.44 -15.465C1026.82 -16.0634 1026.08 -16.6094 1025.25 -17.0892C1023.99 -17.8292 1022.53 -18.4099 1021.06 -18.7778C1015.5 -20.1641 1012.1 -18.1348 1011.27 -14.815C1010.23 -10.6393 1013.9 -8.80537 1016.81 -7.35596C1018.71 -6.40859 1020.28 -5.62566 1019.99 -4.46098C1019.76 -3.5585 1018.75 -3.16066 1016.56 -3.70734C1014.4 -4.247 1012.23 -5.57728 1010.84 -7.07896L1008.14 -3.63465Z" fill="#F3F2F8"/>
<path fill-rule="evenodd" clip-rule="evenodd" d="M1039.38 16.3487L1060.12 21.5214C1060.7 21.6664 1061.3 21.6783 1061.87 21.557C1062.45 21.4354 1062.99 21.1835 1063.45 20.8206C1063.72 20.6153 1063.95 20.3769 1064.15 20.1126C1064.3 19.9109 1064.43 19.6938 1064.54 19.4648C1064.8 18.9356 1064.92 18.3552 1064.92 17.7683L1067.37 -14.9925C1067.35 -15.836 1067.05 -16.649 1066.52 -17.3073C1065.99 -17.9646 1065.25 -18.4297 1064.43 -18.6297L1043.68 -23.8029C1043.11 -23.9475 1042.51 -23.9594 1041.93 -23.8381C1041.57 -23.7627 1041.23 -23.6366 1040.91 -23.465C1040.71 -23.3608 1040.52 -23.2392 1040.35 -23.1022C1039.89 -22.7394 1039.51 -22.2756 1039.26 -21.7458C1039.01 -21.2166 1038.88 -20.6363 1038.89 -20.0491L1036.43 12.7115C1036.45 13.5542 1036.75 14.3661 1037.29 15.0234C1037.82 15.6804 1038.55 16.1464 1039.38 16.3487ZM1049.85 -6.77398L1046.26 7.64677L1051.55 8.96618L1055.15 -5.45458L1060.87 -4.02831L1061.91 -8.19731L1045.15 -12.3757L1044.11 -8.20674L1049.85 -6.77398Z" fill="#F3F2F8"/>
</g>
<g opacity="0.03" clip-path="url(#clip6_604_22476)">
<path fill-rule="evenodd" clip-rule="evenodd" d="M594.387 192.085L615.561 193.937C616.149 193.99 616.741 193.908 617.293 193.698C617.844 193.488 618.339 193.155 618.741 192.724C619.143 192.295 619.439 191.779 619.609 191.217C619.779 190.655 619.817 190.061 619.719 189.482L617.022 156.74C616.868 155.911 616.442 155.157 615.814 154.59C615.336 154.161 614.761 153.859 614.142 153.707C613.947 153.659 613.745 153.626 613.541 153.609L592.226 151.744C591.647 151.711 591.068 151.808 590.532 152.027C589.996 152.247 589.518 152.584 589.132 153.014C588.745 153.443 588.462 153.953 588.301 154.507C588.141 155.061 588.11 155.644 588.207 156.212L590.905 188.954C591.059 189.783 591.483 190.54 592.111 191.106C592.741 191.672 593.54 192.016 594.387 192.085ZM595.482 172.417C594.974 178.225 599.087 182.733 605.179 183.266C608.719 183.576 611.685 182.544 613.754 180.39L610.567 176.979C609.235 178.318 607.684 178.979 605.845 178.819C602.689 178.543 600.684 176.169 600.97 172.897C601.257 169.625 603.643 167.636 606.799 167.912C608.638 168.073 610.051 168.993 611.13 170.544L614.861 167.739C613.197 165.258 610.456 163.726 606.916 163.416C600.824 162.883 595.99 166.609 595.482 172.417Z" fill="#F3F2F8"/>
<path d="M642.087 178.364L637.147 177.932L640.151 172.04L642.087 178.364Z" fill="#F3F2F8"/>
<path fill-rule="evenodd" clip-rule="evenodd" d="M628.799 195.096L650.102 196.96C650.689 197.014 651.282 196.932 651.833 196.722C652.384 196.511 652.879 196.178 653.279 195.747C653.679 195.316 653.976 194.8 654.143 194.237C654.311 193.675 654.346 193.082 654.246 192.503L651.549 159.761C651.394 158.933 650.969 158.178 650.341 157.612C650.054 157.353 649.731 157.141 649.385 156.98C648.973 156.788 648.527 156.669 648.068 156.63L626.767 154.767C626.183 154.73 625.598 154.822 625.054 155.039C624.512 155.255 624.024 155.588 623.627 156.014C623.23 156.441 622.934 156.951 622.76 157.506C622.586 158.061 622.538 158.648 622.621 159.224L625.319 191.965C625.474 192.794 625.898 193.549 626.528 194.115C627.156 194.68 627.955 195.025 628.799 195.096ZM643.33 182.483L644.513 186.324L650.167 186.818L643.33 166.988L637.978 166.52L627.829 184.864L633.372 185.349L635.206 181.772L643.33 182.483Z" fill="#F3F2F8"/>
<path fill-rule="evenodd" clip-rule="evenodd" d="M663.285 198.114L684.602 199.979C684.863 200.003 685.126 200 685.387 199.971C685.71 199.934 686.028 199.857 686.332 199.741C686.884 199.53 687.379 199.197 687.779 198.766C688.181 198.336 688.476 197.819 688.643 197.256C688.81 196.694 688.845 196.101 688.746 195.522L686.049 162.78C685.896 161.951 685.472 161.194 684.843 160.628C684.213 160.062 683.414 159.718 682.568 159.649L661.252 157.784C660.954 157.757 660.655 157.765 660.361 157.806C660.074 157.846 659.793 157.919 659.521 158.023C659.214 158.14 658.924 158.296 658.657 158.485C658.447 158.635 658.251 158.807 658.075 158.997C657.674 159.428 657.378 159.944 657.21 160.507C657.043 161.069 657.008 161.663 657.107 162.241L659.805 194.983C659.96 195.812 660.384 196.567 661.014 197.132C661.642 197.698 662.441 198.043 663.285 198.114ZM663.793 186.281C665.494 187.693 668.548 188.812 671.704 189.088C677.412 189.588 680.46 186.997 680.751 183.671C681.126 179.392 677.171 178.17 674.072 177.213C672.077 176.596 670.437 176.09 670.537 174.947C670.62 173.992 671.51 173.301 673.787 173.5C675.461 173.647 677.229 174.296 678.982 175.439L681.006 171.577C680.3 171.083 679.479 170.66 678.593 170.315C677.224 169.782 675.697 169.436 674.182 169.303C668.474 168.804 665.432 171.34 665.134 174.749C664.759 179.036 668.676 180.272 671.773 181.249C673.796 181.888 675.469 182.416 675.364 183.612C675.283 184.538 674.35 185.089 672.099 184.892C669.877 184.697 667.528 183.722 665.925 182.456L663.793 186.281Z" fill="#F3F2F8"/>
<path fill-rule="evenodd" clip-rule="evenodd" d="M697.772 201.132L719.072 202.995C719.661 203.049 720.254 202.967 720.805 202.757C721.357 202.547 721.852 202.213 722.252 201.782C722.479 201.539 722.673 201.266 722.828 200.974C722.946 200.751 723.043 200.516 723.116 200.273C723.283 199.71 723.318 199.117 723.219 198.539L720.522 165.797C720.369 164.967 719.945 164.211 719.315 163.644C718.685 163.079 717.887 162.734 717.041 162.666L695.738 160.802C695.151 160.748 694.558 160.83 694.007 161.04C693.664 161.171 693.344 161.349 693.054 161.569C692.877 161.703 692.713 161.852 692.561 162.015C692.161 162.445 691.864 162.962 691.697 163.525C691.529 164.087 691.494 164.68 691.594 165.259L694.291 198.001C694.446 198.829 694.871 199.584 695.5 200.15C696.129 200.716 696.927 201.061 697.772 201.132ZM704.504 176.655L703.208 191.46L708.641 191.936L709.937 177.13L715.81 177.644L716.184 173.364L698.978 171.858L698.604 176.139L704.504 176.655Z" fill="#F3F2F8"/>
</g>
<g opacity="0.03" clip-path="url(#clip7_604_22476)">
<path fill-rule="evenodd" clip-rule="evenodd" d="M870.373 93.667L891.547 95.5195C892.136 95.5725 892.728 95.4903 893.28 95.2798C893.83 95.0699 894.326 94.7372 894.727 94.3065C895.129 93.8766 895.426 93.3608 895.595 92.7988C895.766 92.2367 895.804 91.6431 895.706 91.0638L893.008 58.322C892.854 57.4935 892.429 56.7386 891.8 56.1722C891.323 55.7426 890.747 55.4411 890.129 55.289C889.933 55.2408 889.732 55.208 889.528 55.1908L868.213 53.326C867.634 53.2926 867.054 53.3896 866.518 53.6091C865.982 53.8286 865.504 54.1663 865.118 54.5956C864.732 55.0248 864.448 55.5355 864.287 56.0894C864.128 56.6434 864.096 57.2258 864.194 57.794L866.891 90.5358C867.045 91.365 867.469 92.1218 868.097 92.6882C868.727 93.2539 869.526 93.5978 870.373 93.667ZM871.469 73.9989C870.961 79.807 875.074 84.315 881.165 84.848C884.706 85.1577 887.671 84.1259 889.741 81.9717L886.554 78.5607C885.221 79.9002 883.67 80.5615 881.831 80.4006C878.675 80.1245 876.67 77.7512 876.957 74.479C877.243 71.2074 879.63 69.2183 882.785 69.4944C884.624 69.6553 886.037 70.5752 887.117 72.1258L890.847 69.3206C889.184 66.8398 886.442 65.3081 882.902 64.9984C876.81 64.4654 871.977 68.1913 871.469 73.9989Z" fill="#F3F2F8"/>
<path d="M918.073 79.9458L913.134 79.5137L916.137 73.6223L918.073 79.9458Z" fill="#F3F2F8"/>
<path fill-rule="evenodd" clip-rule="evenodd" d="M904.786 96.6785L926.088 98.5422C926.675 98.5957 927.269 98.5138 927.819 98.3038C928.371 98.0932 928.865 97.7597 929.265 97.329C929.666 96.8982 929.962 96.3824 930.13 95.8194C930.297 95.2572 930.332 94.664 930.233 94.0853L927.535 61.3435C927.38 60.5149 926.956 59.7601 926.327 59.1937C926.04 58.9354 925.717 58.7229 925.371 58.5622C924.959 58.3701 924.514 58.2511 924.055 58.2123L902.754 56.3488C902.169 56.3121 901.585 56.4045 901.041 56.6205C900.498 56.8367 900.011 57.1701 899.613 57.5964C899.216 58.0233 898.92 58.5329 898.747 59.0877C898.572 59.6431 898.525 60.2297 898.608 60.8056L901.305 93.5475C901.46 94.376 901.885 95.1309 902.514 95.6966C903.143 96.2622 903.942 96.6075 904.786 96.6785ZM919.316 84.0653L920.5 87.9056L926.153 88.4002L919.316 68.57L913.965 68.1018L903.815 86.4459L909.358 86.9308L911.192 83.3545L919.316 84.0653Z" fill="#F3F2F8"/>
<path fill-rule="evenodd" clip-rule="evenodd" d="M939.272 99.6963L960.588 101.561C960.85 101.585 961.113 101.582 961.373 101.553C961.696 101.516 962.014 101.439 962.319 101.323C962.871 101.112 963.365 100.779 963.765 100.348C964.167 99.9179 964.462 99.4013 964.629 98.8383C964.797 98.2761 964.832 97.6829 964.732 97.1043L962.035 64.3624C961.883 63.5327 961.459 62.7765 960.829 62.2101C960.199 61.6443 959.4 61.2997 958.554 61.2313L937.238 59.3663C936.941 59.3389 936.641 59.3466 936.347 59.3878C936.06 59.4282 935.779 59.5009 935.507 59.6048C935.2 59.7221 934.91 59.8776 934.643 60.0668C934.433 60.2175 934.237 60.3887 934.061 60.579C933.661 61.0097 933.364 61.5262 933.197 62.0892C933.029 62.6514 932.994 63.2446 933.094 63.8233L935.791 96.5651C935.946 97.3937 936.371 98.1486 937 98.7143C937.629 99.28 938.428 99.6252 939.272 99.6963ZM939.779 87.8629C941.481 89.2753 944.535 90.394 947.69 90.6701C953.399 91.1695 956.446 88.5792 956.738 85.2529C957.112 80.974 953.157 79.7524 950.058 78.7946C948.064 78.1784 946.423 77.6719 946.523 76.5289C946.606 75.5742 947.496 74.8832 949.773 75.0825C951.447 75.2289 953.215 75.8777 954.969 77.0207L956.993 73.1587C956.286 72.6649 955.466 72.2419 954.579 71.8966C953.21 71.3641 951.683 71.018 950.169 70.8855C944.46 70.3861 941.418 72.9224 941.12 76.3308C940.745 80.618 944.662 81.8543 947.759 82.8313C949.783 83.47 951.455 83.9978 951.35 85.1936C951.269 86.1202 950.336 86.6707 948.085 86.4738C945.863 86.2794 943.515 85.3044 941.911 84.038L939.779 87.8629Z" fill="#F3F2F8"/>
<path fill-rule="evenodd" clip-rule="evenodd" d="M973.758 102.714L995.058 104.577C995.648 104.631 996.241 104.549 996.791 104.339C997.343 104.129 997.838 103.795 998.238 103.364C998.465 103.121 998.659 102.848 998.814 102.556C998.932 102.333 999.029 102.098 999.102 101.855C999.269 101.292 999.304 100.699 999.206 100.121L996.508 67.3788C996.355 66.549 995.932 65.7929 995.301 65.2264C994.671 64.6606 993.873 64.3161 993.027 64.2476L971.725 62.3839C971.137 62.3305 970.544 62.4125 969.994 62.6224C969.65 62.7531 969.33 62.9315 969.04 63.1511C968.863 63.2847 968.699 63.4338 968.547 63.5965C968.147 64.0273 967.85 64.5438 967.683 65.1067C967.516 65.669 967.481 66.2622 967.58 66.8409L970.277 99.5827C970.433 100.411 970.857 101.166 971.487 101.732C972.115 102.298 972.914 102.643 973.758 102.714ZM980.49 78.2368L979.195 93.0425L984.628 93.5178L985.923 78.7121L991.796 79.226L992.171 74.9457L974.965 73.4403L974.59 77.7206L980.49 78.2368Z" fill="#F3F2F8"/>
</g>
<g opacity="0.03" clip-path="url(#clip8_604_22476)">
<path fill-rule="evenodd" clip-rule="evenodd" d="M12.176 147.544L33.3793 146.062C33.9689 146.022 34.5407 145.848 35.0528 145.554C35.5635 145.26 36.0012 144.854 36.3305 144.366C36.6599 143.879 36.8721 143.323 36.952 142.741C37.0321 142.159 36.9768 141.567 36.7894 141.01L29.0034 109.093C28.7218 108.299 28.1832 107.62 27.474 107.159C26.935 106.81 26.3197 106.602 25.6848 106.548C25.4839 106.531 25.2799 106.53 25.0757 106.545L3.73158 108.038C3.15439 108.096 2.5973 108.282 2.10229 108.583C1.60728 108.883 1.18778 109.292 0.873473 109.776C0.559166 110.26 0.358946 110.809 0.286598 111.381C0.215632 111.953 0.275623 112.534 0.460839 113.08L8.24692 144.996C8.52861 145.791 9.06591 146.472 9.7751 146.934C10.4856 147.394 11.3288 147.608 12.176 147.544ZM10.1814 127.947C10.5881 133.763 15.3558 137.572 21.4559 137.146C25.0008 136.898 27.7686 135.415 29.4754 132.963L25.7942 130.093C24.6876 131.624 23.259 132.52 21.4175 132.649C18.2577 132.87 15.906 130.839 15.6768 127.563C15.4477 124.287 17.494 121.949 20.6538 121.728C22.4954 121.599 24.0346 122.286 25.3436 123.649L28.5896 120.295C26.5582 118.105 23.6109 117.021 20.066 117.269C13.9659 117.695 9.77472 122.131 10.1814 127.947Z" fill="#F3F2F8"/>
<path d="M57.1413 126.53L52.1952 126.876L54.2399 120.587L57.1413 126.53Z" fill="#F3F2F8"/>
<path fill-rule="evenodd" clip-rule="evenodd" d="M46.6374 145.134L67.969 143.642C68.5573 143.603 69.1306 143.429 69.6413 143.136C70.1534 142.842 70.5896 142.435 70.9176 141.947C71.2454 141.459 71.4577 140.903 71.5349 140.321C71.6122 139.739 71.5541 139.148 71.3654 138.592L63.5793 106.675C63.2964 105.881 62.7592 105.202 62.05 104.741C61.726 104.531 61.3735 104.371 61.007 104.267C60.5696 104.141 60.1112 104.093 59.6516 104.127L38.3214 105.619C37.7384 105.674 37.1755 105.857 36.6721 106.155C36.17 106.453 35.7406 106.859 35.4151 107.342C35.0896 107.826 34.8769 108.375 34.7924 108.951C34.7064 109.527 34.7516 110.113 34.9237 110.669L42.7097 142.586C42.9927 143.38 43.5299 144.059 44.2404 144.519C44.9496 144.98 45.7928 145.196 46.6374 145.134ZM59.0157 130.403L60.7856 134.011L66.4467 133.615L56.5917 115.098L51.2329 115.473L44.0783 135.179L49.6289 134.791L50.8808 130.972L59.0157 130.403Z" fill="#F3F2F8"/>
<path fill-rule="evenodd" clip-rule="evenodd" d="M81.1684 142.72L102.514 141.228C102.776 141.21 103.035 141.166 103.288 141.096C103.601 141.01 103.903 140.884 104.186 140.721C104.698 140.427 105.134 140.02 105.462 139.532C105.792 139.045 106.002 138.488 106.08 137.906C106.157 137.325 106.099 136.733 105.91 136.177L98.1241 104.26C97.8438 103.465 97.3066 102.784 96.596 102.323C95.8855 101.863 95.0422 101.648 94.1965 101.712L72.851 103.205C72.5527 103.224 72.2583 103.279 71.9744 103.366C71.6974 103.45 71.4308 103.566 71.1788 103.711C70.8934 103.875 70.6313 104.074 70.3975 104.303C70.2133 104.484 70.0469 104.684 69.9024 104.9C69.5746 105.388 69.3624 105.944 69.2852 106.527C69.2079 107.108 69.2659 107.699 69.4546 108.255L77.2407 140.172C77.5237 140.966 78.0608 141.645 78.7713 142.106C79.4805 142.566 80.3237 142.782 81.1684 142.72ZM79.8184 130.953C81.7201 132.082 84.9114 132.709 88.0712 132.488C93.7876 132.089 96.3926 129.053 96.1597 125.722C95.8601 121.438 91.7629 120.85 88.5526 120.388C86.4858 120.092 84.7862 119.848 84.7061 118.704C84.6393 117.748 85.41 116.926 87.6904 116.767C89.3663 116.65 91.2144 117.014 93.1248 117.868L94.5199 113.737C93.7445 113.36 92.8683 113.071 91.9386 112.868C90.5034 112.556 88.9411 112.453 87.424 112.56C81.7077 112.959 79.1002 115.94 79.3389 119.353C79.6391 123.646 83.7015 124.255 86.9132 124.735C89.0117 125.049 90.7458 125.309 90.8296 126.507C90.8944 127.435 90.0591 128.124 87.8049 128.282C85.5796 128.437 83.1077 127.842 81.326 126.842L79.8184 130.953Z" fill="#F3F2F8"/>
<path fill-rule="evenodd" clip-rule="evenodd" d="M115.704 140.306L137.033 138.815C137.624 138.775 138.197 138.602 138.707 138.308C139.219 138.014 139.656 137.607 139.984 137.119C140.17 136.843 140.319 136.544 140.426 136.231C140.508 135.992 140.567 135.745 140.601 135.493C140.678 134.912 140.62 134.32 140.432 133.764L132.646 101.847C132.365 101.052 131.828 100.371 131.117 99.9102C130.406 99.45 129.564 99.2346 128.718 99.2993L107.386 100.791C106.798 100.83 106.225 101.004 105.714 101.297C105.395 101.48 105.107 101.706 104.855 101.969C104.701 102.128 104.562 102.301 104.438 102.486C104.11 102.974 103.898 103.53 103.82 104.112C103.743 104.694 103.801 105.285 103.99 105.841L111.776 137.758C112.059 138.552 112.596 139.231 113.307 139.692C114.016 140.152 114.858 140.368 115.704 140.306ZM118.524 115.077L119.56 129.903L125.001 129.523L123.964 114.697L129.845 114.286L129.546 110L112.316 111.204L112.616 115.491L118.524 115.077Z" fill="#F3F2F8"/>
</g>
<g opacity="0.03" clip-path="url(#clip9_604_22476)">
<path fill-rule="evenodd" clip-rule="evenodd" d="M188.865 71.9688L210.107 71.227C210.698 71.2078 211.276 71.0541 211.798 70.7779C212.318 70.5025 212.77 70.1118 213.116 69.6354C213.462 69.1597 213.694 68.6117 213.794 68.0331C213.894 67.4545 213.86 66.8607 213.692 66.2976L207.024 34.1286C206.771 33.3251 206.256 32.6277 205.563 32.1421C205.037 31.7739 204.429 31.5448 203.797 31.4692C203.596 31.4452 203.393 31.4372 203.188 31.445L181.805 32.1917C181.226 32.2292 180.663 32.396 180.158 32.6792C179.652 32.9624 179.219 33.3558 178.888 33.829C178.557 34.3021 178.338 34.8435 178.245 35.4129C178.154 35.9822 178.194 36.5641 178.36 37.1162L185.028 69.2853C185.281 70.0895 185.795 70.789 186.487 71.2746C187.181 71.7593 188.016 72.0033 188.865 71.9688ZM187.556 52.3137C187.759 58.1405 192.391 62.1136 198.503 61.9002C202.054 61.7762 204.872 60.3906 206.663 58.0003L203.084 55.0031C201.925 56.495 200.466 57.3404 198.621 57.4049C195.455 57.5154 193.176 55.4041 193.061 52.1214C192.947 48.8393 195.073 46.5742 198.239 46.4636C200.084 46.3992 201.598 47.1401 202.859 48.5476L206.22 45.3086C204.266 43.0491 201.359 41.8629 197.807 41.9869C191.696 42.2003 187.352 46.4875 187.556 52.3137Z" fill="#F3F2F8"/>
<path d="M234.536 52.536L229.581 52.7091L231.844 46.4955L234.536 52.536Z" fill="#F3F2F8"/>
<path fill-rule="evenodd" clip-rule="evenodd" d="M223.389 70.7626L244.76 70.0163C245.349 69.9978 245.928 69.8442 246.449 69.5688C246.971 69.2925 247.421 68.9012 247.766 68.4249C248.11 67.9486 248.342 67.4005 248.439 66.8213C248.537 66.2429 248.5 65.6498 248.33 65.0875L241.663 32.9184C241.408 32.115 240.895 31.4175 240.202 30.932C239.886 30.7105 239.539 30.5389 239.176 30.4216C238.744 30.2813 238.287 30.2174 237.827 30.2349L216.457 30.9811C215.873 31.0159 215.304 31.1789 214.79 31.4596C214.278 31.7402 213.835 32.1306 213.493 32.6021C213.15 33.0742 212.919 33.6161 212.814 34.1879C212.708 34.7605 212.733 35.3485 212.885 35.91L219.553 68.0791C219.808 68.8825 220.321 69.5801 221.015 70.0648C221.708 70.5496 222.543 70.7949 223.389 70.7626ZM236.274 56.4725L237.917 60.14L243.588 59.9419L234.386 41.0928L229.017 41.2803L221.179 60.7245L226.74 60.5303L228.124 56.7571L236.274 56.4725Z" fill="#F3F2F8"/>
<path fill-rule="evenodd" clip-rule="evenodd" d="M257.985 69.5568L279.369 68.8101C279.632 68.8016 279.892 68.7663 280.148 68.7058C280.464 68.6301 280.77 68.5149 281.058 68.3624C281.58 68.0862 282.03 67.695 282.375 67.2185C282.721 66.7428 282.951 66.1941 283.049 65.6149C283.146 65.0365 283.109 64.4435 282.94 63.8812L276.272 31.7121C276.02 30.9072 275.507 30.2083 274.813 29.7228C274.119 29.2381 273.283 28.9934 272.436 29.0285L251.051 29.7753C250.753 29.7844 250.457 29.8284 250.17 29.9052C249.89 29.9803 249.619 30.0867 249.363 30.2229C249.072 30.3769 248.803 30.5665 248.561 30.7868C248.371 30.962 248.197 31.1558 248.045 31.3661C247.701 31.8425 247.469 32.3912 247.372 32.9704C247.274 33.5488 247.312 34.1419 247.481 34.7042L254.148 66.8732C254.403 67.6767 254.917 68.3742 255.611 68.8589C256.303 69.3438 257.138 69.5892 257.985 69.5568ZM257.046 57.7498C258.907 58.9443 262.075 59.6825 265.24 59.572C270.967 59.372 273.677 56.4295 273.56 53.0926C273.41 48.8 269.336 48.0694 266.144 47.4963C264.089 47.1279 262.398 46.8251 262.358 45.6784C262.325 44.7207 263.124 43.9264 265.409 43.8466C267.087 43.788 268.922 44.2165 270.801 45.1373L272.34 41.0574C271.578 40.6534 270.712 40.3335 269.79 40.0988C268.367 39.7372 266.809 39.5797 265.289 39.6328C259.562 39.8328 256.852 42.7209 256.972 46.1402C257.122 50.4412 261.161 51.1909 264.354 51.7832C266.44 52.1705 268.164 52.4906 268.206 53.6902C268.238 54.6198 267.379 55.2799 265.121 55.3588C262.892 55.4366 260.442 54.7552 258.696 53.6936L257.046 57.7498Z" fill="#F3F2F8"/>
<path fill-rule="evenodd" clip-rule="evenodd" d="M292.583 68.3478L313.951 67.6016C314.542 67.583 315.121 67.4294 315.642 67.1539C316.164 66.8778 316.614 66.4865 316.959 66.01C317.155 65.7405 317.314 65.4466 317.432 65.1379C317.523 64.9021 317.59 64.657 317.633 64.4064C317.73 63.828 317.693 63.235 317.524 62.6727L310.856 30.5036C310.603 29.6987 310.091 28.9998 309.396 28.5144C308.702 28.0296 307.868 27.7849 307.02 27.82L285.649 28.5663C285.06 28.5848 284.481 28.7385 283.96 29.014C283.635 29.1856 283.34 29.4016 283.078 29.6549C282.919 29.809 282.774 29.9771 282.643 30.1571C282.298 30.6335 282.067 31.1822 281.97 31.7614C281.872 32.3399 281.909 32.9329 282.079 33.4952L288.746 65.6642C289.001 66.4677 289.514 67.1652 290.208 67.6499C290.901 68.1348 291.736 68.3802 292.583 68.3478ZM296.281 43.2328L296.8 58.086L302.25 57.8956L301.732 43.0425L307.624 42.8367L307.474 38.5427L290.212 39.1455L290.362 43.4395L296.281 43.2328Z" fill="#F3F2F8"/>
</g>
<g opacity="0.03" clip-path="url(#clip10_604_22476)">
<path fill-rule="evenodd" clip-rule="evenodd" d="M391.799 9.48634L413.041 8.74455C413.632 8.72536 414.209 8.57167 414.731 8.29551C415.252 8.02006 415.704 7.62939 416.05 7.15302C416.396 6.67732 416.627 6.12923 416.728 5.55072C416.828 4.97209 416.793 4.37827 416.625 3.81523L409.958 -28.3538C409.704 -29.1573 409.19 -29.8548 408.497 -30.3403C407.971 -30.7085 407.363 -30.9377 406.73 -31.0133C406.53 -31.0372 406.326 -31.0452 406.122 -31.0374L384.738 -30.2907C384.16 -30.2533 383.596 -30.0864 383.091 -29.8032C382.586 -29.5201 382.152 -29.1266 381.821 -28.6535C381.49 -28.1803 381.271 -27.6389 381.179 -27.0695C381.088 -26.5002 381.128 -25.9183 381.294 -25.3662L387.961 6.80286C388.215 7.60704 388.728 8.30656 389.421 8.79213C390.115 9.27687 390.95 9.52087 391.799 9.48634ZM390.489 -10.1687C390.693 -4.34194 395.325 -0.368835 401.436 -0.582245C404.988 -0.706262 407.805 -2.09178 409.597 -4.48209L406.018 -7.47935C404.858 -5.98742 403.4 -5.14199 401.555 -5.07757C398.389 -4.96702 396.11 -7.07831 395.995 -10.361C395.88 -13.6431 398.007 -15.9082 401.173 -16.0188C403.017 -16.0832 404.532 -15.3423 405.792 -13.9349L409.154 -17.1738C407.2 -19.4333 404.292 -20.6195 400.741 -20.4955C394.629 -20.2821 390.286 -15.995 390.489 -10.1687Z" fill="#F3F2F8"/>
<path fill-rule="evenodd" clip-rule="evenodd" d="M426.323 8.28017L447.694 7.53389C448.283 7.51543 448.862 7.36179 449.382 7.08634C449.904 6.81006 450.355 6.41878 450.699 5.94246C451.044 5.46614 451.276 4.91806 451.373 4.33886C451.471 3.76044 451.433 3.16738 451.264 2.60505L444.597 -29.564C444.342 -30.3675 443.828 -31.0649 443.136 -31.5505C442.819 -31.7719 442.473 -31.9435 442.11 -32.0608C441.677 -32.2012 441.221 -32.265 440.76 -32.2476L419.391 -31.5013C418.806 -31.4665 418.237 -31.3035 417.724 -31.0228C417.212 -30.7422 416.768 -30.3518 416.426 -29.8803C416.084 -29.4082 415.852 -28.8663 415.748 -28.2945C415.642 -27.7219 415.666 -27.1339 415.819 -26.5724L422.486 5.59665C422.742 6.40012 423.255 7.09763 423.949 7.58238C424.641 8.06716 425.477 8.31251 426.323 8.28017ZM439.208 -6.00988L440.851 -2.34243L446.522 -2.54048L437.319 -21.3896L431.951 -21.2021L424.113 -1.75792L429.673 -1.95211L431.058 -5.72528L439.208 -6.00988Z" fill="#F3F2F8"/>
<path fill-rule="evenodd" clip-rule="evenodd" d="M460.918 7.07441L482.303 6.32765C482.566 6.31914 482.826 6.28391 483.082 6.22341C483.397 6.14767 483.704 6.03247 483.992 5.87999C484.514 5.60382 484.964 5.21254 485.309 4.73611C485.655 4.2604 485.885 3.71171 485.982 3.13251C486.08 2.55409 486.043 1.96103 485.873 1.39881L479.206 -30.7703C478.954 -31.5752 478.44 -32.2741 477.746 -32.7596C477.052 -33.2444 476.217 -33.489 475.37 -33.4539L453.985 -32.7071C453.686 -32.6981 453.39 -32.654 453.103 -32.5773C452.824 -32.5022 452.553 -32.3957 452.296 -32.2595C452.005 -32.1056 451.736 -31.9159 451.495 -31.6956C451.304 -31.5205 451.131 -31.3266 450.979 -31.1163C450.634 -30.64 450.403 -30.0912 450.305 -29.5121C450.208 -28.9336 450.245 -28.3406 450.414 -27.7783L457.082 4.39078C457.337 5.19425 457.85 5.89177 458.544 6.37651C459.237 6.86141 460.072 7.10675 460.918 7.07441ZM459.98 -4.73259C461.841 -3.53814 465.008 -2.7999 468.174 -2.91045C473.901 -3.11043 476.61 -6.05289 476.494 -9.38986C476.344 -13.6825 472.27 -14.4131 469.077 -14.9861C467.022 -15.3545 465.332 -15.6574 465.292 -16.804C465.259 -17.7618 466.058 -18.556 468.342 -18.6358C470.021 -18.6944 471.855 -18.266 473.735 -17.3451L475.273 -21.425C474.511 -21.829 473.646 -22.1489 472.724 -22.3836C471.3 -22.7453 469.743 -22.9027 468.223 -22.8496C462.496 -22.6497 459.786 -19.7615 459.905 -16.3422C460.056 -12.0412 464.094 -11.2915 467.287 -10.6992C469.374 -10.3119 471.098 -9.99179 471.139 -8.79219C471.172 -7.86265 470.313 -7.20249 468.055 -7.12363C465.825 -7.04578 463.376 -7.72726 461.63 -8.78887L459.98 -4.73259Z" fill="#F3F2F8"/>
<path fill-rule="evenodd" clip-rule="evenodd" d="M495.516 5.86542L516.885 5.11922C517.476 5.10057 518.055 4.94694 518.576 4.67149C519.097 4.39533 519.548 4.00403 519.893 3.5276C520.088 3.25806 520.248 2.96419 520.366 2.65544C520.456 2.41971 520.524 2.17453 520.566 1.924C520.664 1.34558 520.626 0.752534 520.458 0.19029L513.79 -31.9788C513.537 -32.7837 513.025 -33.4826 512.33 -33.9681C511.636 -34.4529 510.801 -34.6975 509.953 -34.6624L488.583 -33.9161C487.993 -33.8976 487.414 -33.7439 486.894 -33.4685C486.569 -33.2968 486.273 -33.0808 486.012 -32.8275C485.853 -32.6734 485.708 -32.5053 485.577 -32.3253C485.232 -31.849 485.001 -31.3002 484.903 -30.721C484.806 -30.1426 484.843 -29.5495 485.012 -28.9873L491.68 3.18179C491.935 3.98527 492.448 4.68278 493.142 5.16753C493.834 5.65242 494.669 5.89778 495.516 5.86542ZM499.215 -19.2496L499.733 -4.39645L505.184 -4.58679L504.665 -19.44L510.557 -19.6457L510.407 -23.9397L493.146 -23.337L493.296 -19.0429L499.215 -19.2496Z" fill="#F3F2F8"/>
</g>
<g opacity="0.03" clip-path="url(#clip11_604_22476)">
<path fill-rule="evenodd" clip-rule="evenodd" d="M292.799 189.486L314.041 188.745C314.632 188.725 315.209 188.572 315.731 188.296C316.252 188.02 316.704 187.629 317.05 187.153C317.396 186.677 317.627 186.129 317.728 185.551C317.828 184.972 317.793 184.378 317.625 183.815L310.958 151.646C310.704 150.843 310.19 150.145 309.497 149.66C308.971 149.292 308.363 149.062 307.73 148.987C307.53 148.963 307.326 148.955 307.122 148.963L285.738 149.709C285.16 149.747 284.596 149.914 284.091 150.197C283.586 150.48 283.152 150.873 282.821 151.347C282.49 151.82 282.271 152.361 282.179 152.93C282.088 153.5 282.128 154.082 282.294 154.634L288.961 186.803C289.215 187.607 289.728 188.307 290.421 188.792C291.115 189.277 291.95 189.521 292.799 189.486ZM291.489 169.831C291.693 175.658 296.325 179.631 302.436 179.418C305.988 179.294 308.805 177.908 310.597 175.518L307.018 172.521C305.858 174.013 304.4 174.858 302.555 174.922C299.389 175.033 297.11 172.922 296.995 169.639C296.88 166.357 299.007 164.092 302.173 163.981C304.017 163.917 305.532 164.658 306.792 166.065L310.154 162.826C308.2 160.567 305.292 159.38 301.741 159.504C295.629 159.718 291.286 164.005 291.489 169.831Z" fill="#F3F2F8"/>
<path d="M338.47 170.054L333.515 170.227L335.778 164.013L338.47 170.054Z" fill="#F3F2F8"/>
<path fill-rule="evenodd" clip-rule="evenodd" d="M327.323 188.28L348.694 187.534C349.283 187.515 349.862 187.362 350.382 187.086C350.904 186.81 351.355 186.419 351.699 185.942C352.044 185.466 352.276 184.918 352.373 184.339C352.471 183.76 352.433 183.167 352.264 182.605L345.597 150.436C345.342 149.633 344.828 148.935 344.136 148.45C343.819 148.228 343.473 148.057 343.11 147.939C342.677 147.799 342.221 147.735 341.76 147.752L320.391 148.499C319.806 148.534 319.237 148.696 318.724 148.977C318.212 149.258 317.768 149.648 317.426 150.12C317.084 150.592 316.852 151.134 316.748 151.706C316.642 152.278 316.666 152.866 316.819 153.428L323.486 185.597C323.742 186.4 324.255 187.098 324.949 187.582C325.641 188.067 326.477 188.313 327.323 188.28ZM340.208 173.99L341.851 177.658L347.522 177.46L338.319 158.61L332.951 158.798L325.113 178.242L330.673 178.048L332.058 174.275L340.208 173.99Z" fill="#F3F2F8"/>
<path fill-rule="evenodd" clip-rule="evenodd" d="M361.918 187.074L383.303 186.328C383.566 186.319 383.826 186.284 384.082 186.223C384.397 186.148 384.704 186.032 384.992 185.88C385.514 185.604 385.964 185.213 386.309 184.736C386.655 184.26 386.885 183.712 386.982 183.133C387.08 182.554 387.043 181.961 386.873 181.399L380.206 149.23C379.954 148.425 379.44 147.726 378.746 147.24C378.052 146.756 377.217 146.511 376.37 146.546L354.985 147.293C354.686 147.302 354.39 147.346 354.103 147.423C353.824 147.498 353.553 147.604 353.296 147.741C353.005 147.894 352.736 148.084 352.495 148.304C352.304 148.48 352.131 148.673 351.979 148.884C351.634 149.36 351.403 149.909 351.305 150.488C351.208 151.066 351.245 151.659 351.414 152.222L358.082 184.391C358.337 185.194 358.85 185.892 359.544 186.377C360.237 186.861 361.072 187.107 361.918 187.074ZM360.98 175.267C362.841 176.462 366.008 177.2 369.174 177.09C374.901 176.89 377.61 173.947 377.494 170.61C377.344 166.318 373.27 165.587 370.077 165.014C368.022 164.645 366.332 164.343 366.292 163.196C366.259 162.238 367.058 161.444 369.342 161.364C371.021 161.306 372.855 161.734 374.735 162.655L376.273 158.575C375.511 158.171 374.646 157.851 373.724 157.616C372.3 157.255 370.743 157.097 369.223 157.15C363.496 157.35 360.786 160.238 360.905 163.658C361.056 167.959 365.094 168.708 368.287 169.301C370.374 169.688 372.098 170.008 372.139 171.208C372.172 172.137 371.313 172.798 369.055 172.876C366.825 172.954 364.376 172.273 362.63 171.211L360.98 175.267Z" fill="#F3F2F8"/>
<path fill-rule="evenodd" clip-rule="evenodd" d="M396.516 185.865L417.885 185.119C418.476 185.101 419.055 184.947 419.576 184.671C420.097 184.395 420.548 184.004 420.893 183.528C421.088 183.258 421.248 182.964 421.366 182.655C421.456 182.42 421.524 182.175 421.566 181.924C421.664 181.346 421.626 180.753 421.458 180.19L414.79 148.021C414.537 147.216 414.025 146.517 413.33 146.032C412.636 145.547 411.801 145.303 410.953 145.338L389.583 146.084C388.993 146.102 388.414 146.256 387.894 146.532C387.569 146.703 387.273 146.919 387.012 147.172C386.853 147.327 386.708 147.495 386.577 147.675C386.232 148.151 386.001 148.7 385.903 149.279C385.806 149.857 385.843 150.45 386.012 151.013L392.68 183.182C392.935 183.985 393.448 184.683 394.142 185.168C394.834 185.652 395.669 185.898 396.516 185.865ZM400.215 160.75L400.733 175.604L406.184 175.413L405.665 160.56L411.557 160.354L411.407 156.06L394.146 156.663L394.296 160.957L400.215 160.75Z" fill="#F3F2F8"/>
</g>
<g opacity="0.03" clip-path="url(#clip12_604_22476)">
<path fill-rule="evenodd" clip-rule="evenodd" d="M652.799 112.088L674.041 111.346C674.632 111.327 675.209 111.173 675.731 110.897C676.252 110.622 676.704 110.231 677.05 109.755C677.396 109.279 677.627 108.731 677.728 108.152C677.828 107.574 677.793 106.98 677.625 106.417L670.958 74.2477C670.704 73.4442 670.19 72.7468 669.497 72.2613C668.971 71.8931 668.363 71.6639 667.73 71.5883C667.53 71.5643 667.326 71.5563 667.122 71.5642L645.738 72.3109C645.16 72.3483 644.596 72.5152 644.091 72.7983C643.586 73.0815 643.152 73.475 642.821 73.9481C642.49 74.4212 642.271 74.9627 642.179 75.532C642.088 76.1013 642.128 76.6833 642.294 77.2353L648.961 109.404C649.215 110.209 649.728 110.908 650.421 111.394C651.115 111.878 651.95 112.122 652.799 112.088ZM651.489 92.4328C651.693 98.2596 656.325 102.233 662.436 102.019C665.988 101.895 668.805 100.51 670.597 98.1195L667.018 95.1222C665.858 96.6141 664.4 97.4596 662.555 97.524C659.389 97.6345 657.11 95.5232 656.995 92.2406C656.88 88.9585 659.007 86.6933 662.173 86.5828C664.017 86.5183 665.532 87.2593 666.792 88.6667L670.154 85.4278C668.2 83.1682 665.292 81.982 661.741 82.106C655.629 82.3194 651.286 86.6066 651.489 92.4328Z" fill="#F3F2F8"/>
<path d="M698.47 92.6552L693.515 92.8282L695.778 86.6147L698.47 92.6552Z" fill="#F3F2F8"/>
<path fill-rule="evenodd" clip-rule="evenodd" d="M687.323 110.882L708.694 110.135C709.283 110.117 709.862 109.963 710.382 109.688C710.904 109.412 711.355 109.02 711.699 108.544C712.044 108.068 712.276 107.52 712.373 106.94C712.471 106.362 712.433 105.769 712.264 105.207L705.597 73.0376C705.342 72.2341 704.828 71.5366 704.136 71.0511C703.819 70.8296 703.473 70.6581 703.11 70.5407C702.677 70.4004 702.221 70.3365 701.76 70.354L680.391 71.1002C679.806 71.1351 679.237 71.298 678.724 71.5787C678.212 71.8594 677.768 72.2498 677.426 72.7212C677.084 73.1934 676.852 73.7352 676.748 74.3071C676.642 74.8797 676.666 75.4676 676.819 76.0291L683.486 108.198C683.742 109.002 684.255 109.699 684.949 110.184C685.641 110.669 686.477 110.914 687.323 110.882ZM700.208 96.5917L701.851 100.259L707.522 100.061L698.319 81.212L692.951 81.3994L685.113 100.844L690.673 100.649L692.058 96.8763L700.208 96.5917Z" fill="#F3F2F8"/>
<path fill-rule="evenodd" clip-rule="evenodd" d="M721.918 109.676L743.303 108.929C743.566 108.921 743.826 108.885 744.082 108.825C744.397 108.749 744.704 108.634 744.992 108.482C745.514 108.205 745.964 107.814 746.309 107.338C746.655 106.862 746.885 106.313 746.982 105.734C747.08 105.156 747.043 104.563 746.873 104L740.206 71.8313C739.954 71.0263 739.44 70.3275 738.746 69.842C738.052 69.3572 737.217 69.1126 736.37 69.1477L714.985 69.8944C714.686 69.9035 714.39 69.9476 714.103 70.0243C713.824 70.0994 713.553 70.2058 713.296 70.3421C713.005 70.496 712.736 70.6856 712.495 70.9059C712.304 71.0811 712.131 71.2749 711.979 71.4852C711.634 71.9616 711.403 72.5104 711.305 73.0895C711.208 73.668 711.245 74.261 711.414 74.8233L718.082 106.992C718.337 107.796 718.85 108.493 719.544 108.978C720.237 109.463 721.072 109.708 721.918 109.676ZM720.98 97.869C722.841 99.0634 726.008 99.8017 729.174 99.6911C734.901 99.4911 737.61 96.5487 737.494 93.2117C737.344 88.9191 733.27 88.1885 730.077 87.6154C728.022 87.2471 726.332 86.9442 726.292 85.7976C726.259 84.8398 727.058 84.0456 729.342 83.9658C731.021 83.9071 732.855 84.3356 734.735 85.2565L736.273 81.1765C735.511 80.7725 734.646 80.4526 733.724 80.218C732.3 79.8563 730.743 79.6988 729.223 79.7519C723.496 79.9519 720.786 82.84 720.905 86.2594C721.056 90.5603 725.094 91.3101 728.287 91.9023C730.374 92.2896 732.098 92.6098 732.139 93.8094C732.172 94.7389 731.313 95.3991 729.055 95.4779C726.825 95.5558 724.376 94.8743 722.63 93.8127L720.98 97.869Z" fill="#F3F2F8"/>
<path fill-rule="evenodd" clip-rule="evenodd" d="M756.516 108.467L777.885 107.721C778.476 107.702 779.055 107.549 779.576 107.273C780.097 106.997 780.548 106.606 780.893 106.129C781.088 105.86 781.248 105.566 781.366 105.257C781.456 105.021 781.524 104.776 781.566 104.526C781.664 103.947 781.626 103.354 781.458 102.792L774.79 70.6228C774.537 69.8178 774.025 69.119 773.33 68.6335C772.636 68.1487 771.801 67.9041 770.953 67.9392L749.583 68.6855C748.993 68.704 748.414 68.8576 747.894 69.1331C747.569 69.3047 747.273 69.5207 747.012 69.774C746.853 69.9282 746.708 70.0963 746.577 70.2763C746.232 70.7526 746.001 71.3014 745.903 71.8805C745.806 72.459 745.843 73.052 746.012 73.6143L752.68 105.783C752.935 106.587 753.448 107.284 754.142 107.769C754.834 108.254 755.669 108.499 756.516 108.467ZM760.215 83.3519L760.733 98.2051L766.184 98.0148L765.665 83.1616L771.557 82.9558L771.407 78.6618L754.146 79.2646L754.296 83.5586L760.215 83.3519Z" fill="#F3F2F8"/>
</g>
<defs>
<clipPath id="clip0_604_22476">
<rect width="138.667" height="40" fill="white" transform="translate(405.465 81.8457) rotate(-10)"/>
</clipPath>
<clipPath id="clip1_604_22476">
<rect width="138.667" height="40" fill="white" transform="translate(665.758 -32) rotate(6.83)"/>
</clipPath>
<clipPath id="clip2_604_22476">
<rect width="138.667" height="40" fill="white" transform="translate(-31.9805 1.94922) rotate(-8)"/>
</clipPath>
<clipPath id="clip3_604_22476">
<rect width="138.667" height="40" fill="white" transform="translate(1097 89.2812) rotate(-22.83)"/>
</clipPath>
<clipPath id="clip4_604_22476">
<rect width="138.667" height="40" fill="white" transform="translate(866.734 173.051) rotate(-5.48317)"/>
</clipPath>
<clipPath id="clip5_604_22476">
<rect width="138.667" height="40" fill="white" transform="translate(939.227 -49.8457) rotate(14)"/>
</clipPath>
<clipPath id="clip6_604_22476">
<rect width="138.667" height="40" fill="white" transform="translate(588.5 151.418) rotate(5)"/>
</clipPath>
<clipPath id="clip7_604_22476">
<rect width="138.667" height="40" fill="white" transform="translate(864.486 53) rotate(5)"/>
</clipPath>
<clipPath id="clip8_604_22476">
<rect width="138.667" height="40" fill="white" transform="translate(0 108.299) rotate(-4)"/>
</clipPath>
<clipPath id="clip9_604_22476">
<rect width="138.667" height="40" fill="white" transform="translate(178.066 32.3223) rotate(-2)"/>
</clipPath>
<clipPath id="clip10_604_22476">
<rect width="138.667" height="40" fill="white" transform="translate(381 -30.1602) rotate(-2)"/>
</clipPath>
<clipPath id="clip11_604_22476">
<rect width="138.667" height="40" fill="white" transform="translate(282 149.84) rotate(-2)"/>
</clipPath>
<clipPath id="clip12_604_22476">
<rect width="138.667" height="40" fill="white" transform="translate(642 72.4414) rotate(-2)"/>
</clipPath>
</defs>
</svg>
