<svg width="1200" height="180" viewBox="0 0 1200 180" fill="none" xmlns="http://www.w3.org/2000/svg">
<g clip-path="url(#clip0_2043_1985)">
<rect width="1200" height="180" fill="url(#paint0_linear_2043_1985)"/>
<g opacity="0.05" clip-path="url(#clip1_2043_1985)">
<path d="M421.691 73.5207C412.803 73.1011 405.465 80.182 405.465 88.9768V104.1C405.465 104.76 406.001 105.296 406.66 105.296H410.322C410.838 105.296 411.296 104.966 411.458 104.475L415.641 91.8265L410.172 87.8531C409.196 87.1429 409.699 85.5967 410.907 85.5967H417.667L419.755 79.1691C420.13 78.0215 421.754 78.0215 422.129 79.1691L424.217 85.5967H430.977C432.185 85.5967 432.688 87.1429 431.711 87.8531L426.243 91.8265L428.331 98.2541C428.706 99.4017 427.39 100.358 426.414 99.6474L420.948 95.674L418.131 104.193C419.6 104.466 424.529 105.173 429.488 101.88C429.497 101.88 429.503 101.874 429.509 101.865C433.869 98.9672 436.671 93.9211 436.407 88.2396C436.033 80.3228 429.614 73.8952 421.691 73.5207Z" fill="white"/>
<path d="M460.416 81.74C459.157 81.0208 457.728 80.6582 456.125 80.6582C453.722 80.6582 451.813 81.5961 450.393 83.472L449.946 80.865H446.719V105.299H450.425V95.9645C450.998 96.7886 451.765 97.4388 452.724 97.9212C453.686 98.4007 454.815 98.6404 456.122 98.6404C457.722 98.6404 459.154 98.2688 460.413 97.5257C461.671 96.7826 462.654 95.7308 463.365 94.3674C464.075 93.0069 464.428 91.4337 464.428 89.6478C464.428 87.8619 464.075 86.2228 463.365 84.8593C462.654 83.4989 461.671 82.4561 460.413 81.737L460.416 81.74ZM459.232 93.8699C458.282 94.9667 457.042 95.518 455.508 95.518C453.973 95.518 452.739 94.9697 451.801 93.8699C450.863 92.7732 450.393 91.3409 450.393 89.5819C450.393 87.8229 450.863 86.4775 451.801 85.4137C452.739 84.3499 453.973 83.8166 455.508 83.8166C457.042 83.8166 458.282 84.3529 459.232 85.4287C460.182 86.5044 460.656 87.9098 460.656 89.6508C460.656 91.3918 460.182 92.7732 459.232 93.8729V93.8699Z" fill="white"/>
<path d="M481.074 93.9718V87.0408C481.074 84.9822 480.433 83.403 479.154 82.3063C477.874 81.2096 476.052 80.6582 473.697 80.6582C471.476 80.6582 469.682 81.1436 468.309 82.1175C466.937 83.0914 466.158 84.4578 465.975 86.2198H469.613C469.75 85.4407 470.167 84.8174 470.865 84.3499C471.563 83.8825 472.45 83.6457 473.523 83.6457C474.737 83.6457 475.684 83.9274 476.373 84.4878C477.059 85.0481 477.404 85.8212 477.404 86.8041V87.8679H472.978C470.53 87.8679 468.666 88.3533 467.383 89.3272C466.101 90.3011 465.462 91.6885 465.462 93.4984C465.462 95.0985 466.059 96.3571 467.248 97.274C468.438 98.1879 470.017 98.6464 471.983 98.6464C474.521 98.6464 476.457 97.6396 477.781 95.6259C477.781 96.5398 478.033 97.238 478.536 97.7205C479.04 98.1999 479.864 98.4396 481.008 98.4396H482.965V95.2124H482.246C481.467 95.2124 481.08 94.8019 481.08 93.9778L481.074 93.9718ZM477.404 91.227C477.38 92.5994 476.939 93.6991 476.082 94.5202C475.225 95.3442 474.029 95.7547 472.495 95.7547C471.488 95.7547 470.694 95.527 470.11 95.0685C469.526 94.6101 469.235 94.0048 469.235 93.2496C469.235 92.3807 469.544 91.7214 470.161 91.2779C470.778 90.8314 471.659 90.6097 472.804 90.6097H477.404V91.227Z" fill="white"/>
<path d="M490.588 81.5665C489.788 82.0369 489.134 82.6812 488.631 83.5052L488.22 80.8623H484.927V98.434H488.634V89.6152C488.634 88.081 488.979 86.8194 489.665 85.8246C490.351 84.8297 491.46 84.3323 492.994 84.3323H494.642V80.8653H493.818C492.47 80.8653 491.394 81.099 490.591 81.5695L490.588 81.5665Z" fill="white"/>
<path d="M500.582 94.7443C500.306 94.4597 500.172 93.9712 500.172 93.285V84.1216H504.427V80.8614H500.172V75.9561H496.465V93.6626C496.465 95.2867 496.842 96.4883 497.598 97.2644C498.353 98.0405 499.563 98.4301 501.235 98.4301H504.804V95.1698H501.99C501.325 95.1698 500.858 95.026 500.582 94.7413V94.7443Z" fill="white"/>
<path d="M518.471 89.5792C518.471 91.3652 518.075 92.7586 517.287 93.7654C516.499 94.7722 515.405 95.2756 514.009 95.2756C512.613 95.2756 511.642 94.8531 510.955 94.0051C510.269 93.1601 509.925 91.9015 509.925 90.2295V80.8623H506.185V90.607C506.185 93.3758 506.832 95.3835 508.124 96.6301C509.418 97.8766 511.105 98.4999 513.185 98.4999C514.443 98.4999 515.489 98.2602 516.325 97.7807C517.161 97.3013 517.886 96.6241 518.504 95.7551V98.1224C518.504 99.5187 518.12 100.594 517.353 101.35C516.586 102.105 515.516 102.482 514.144 102.482C511.788 102.482 510.38 101.508 509.922 99.5667H506.146C506.305 101.487 507.066 102.959 508.429 103.978C509.79 104.996 511.594 105.506 513.835 105.506C516.649 105.506 518.743 104.838 520.116 103.498C521.488 102.159 522.174 100.37 522.174 98.1283V80.8623H518.468V89.5792H518.471Z" fill="white"/>
<path d="M532.617 94.4546L527.778 80.8623H523.798L530.283 98.434H534.814L541.298 80.8623H537.388L532.617 94.4546Z" fill="white"/>
<path d="M554.389 81.688C553.095 81.0018 551.602 80.6572 549.909 80.6572C548.216 80.6572 546.757 81.0288 545.466 81.7719C544.171 82.5151 543.167 83.5669 542.445 84.9303C541.726 86.2907 541.363 87.8759 541.363 89.6828C541.363 91.4897 541.735 93.0329 542.478 94.3844C543.221 95.7328 544.273 96.7816 545.636 97.5247C546.997 98.2679 548.594 98.6394 550.425 98.6394C552.528 98.6394 554.284 98.0671 555.693 96.9224C557.098 95.7777 557.964 94.3154 558.282 92.5295H554.575C554.323 93.5124 553.808 94.2735 553.032 94.8099C552.256 95.3462 551.294 95.6159 550.149 95.6159C548.708 95.6159 547.551 95.1694 546.682 94.2765C545.813 93.3835 545.334 92.1729 545.241 90.6387V90.4319H558.485C558.554 89.9525 558.587 89.482 558.587 89.0236C558.566 87.3305 558.183 85.8562 557.437 84.5977C556.691 83.3391 555.675 82.3682 554.383 81.682L554.389 81.688ZM545.382 87.7291C545.519 86.4945 546.029 85.5056 546.91 84.7595C547.791 84.0163 548.837 83.6448 550.05 83.6448C551.354 83.6448 552.435 84.0044 553.292 84.7265C554.149 85.4457 554.659 86.4495 554.821 87.7291H545.385H545.382Z" fill="white"/>
<path d="M571.566 88.6357C570.535 88.3031 569.268 88.0574 567.758 87.8986C566.637 87.7607 565.825 87.6409 565.321 87.539C564.818 87.4371 564.401 87.2543 564.069 86.9906C563.736 86.7269 563.571 86.3344 563.571 85.807C563.571 85.0968 563.904 84.5365 564.566 84.1259C565.232 83.7154 566.101 83.5086 567.173 83.5086C568.246 83.5086 569.142 83.7663 569.849 84.2817C570.559 84.7972 570.958 85.4534 571.051 86.2535H574.653C574.539 84.4705 573.79 83.0861 572.405 82.1003C571.021 81.1174 569.22 80.626 566.999 80.626C565.651 80.626 564.443 80.8537 563.38 81.3122C562.316 81.7707 561.48 82.4149 560.875 83.2509C560.269 84.087 559.964 85.0399 559.964 86.1156C559.964 87.2603 560.266 88.1683 560.875 88.8425C561.48 89.5167 562.28 90.0081 563.278 90.3168C564.273 90.6254 565.537 90.8711 567.071 91.0539C568.192 91.1918 569.022 91.3236 569.559 91.4495C570.098 91.5753 570.526 91.7881 570.847 92.0847C571.168 92.3814 571.326 92.8279 571.326 93.4242C571.326 94.1344 570.979 94.7007 570.281 95.1232C569.582 95.5457 568.675 95.7585 567.554 95.7585C566.295 95.7585 565.27 95.4678 564.482 94.8835C563.694 94.2992 563.263 93.55 563.194 92.6361H559.625C559.67 94.5119 560.419 95.9832 561.872 97.047C563.326 98.1108 565.229 98.6441 567.587 98.6441C568.983 98.6441 570.242 98.4224 571.362 97.9759C572.483 97.5294 573.364 96.8882 574.005 96.0551C574.647 95.2191 574.967 94.2542 574.967 93.1545C574.967 91.9199 574.659 90.9401 574.041 90.2209C573.424 89.5017 572.6 88.9743 571.569 88.6417L571.566 88.6357Z" fill="white"/>
<path d="M582.444 95.1728C581.778 95.1728 581.311 95.029 581.035 94.7443C580.76 94.4597 580.625 93.9712 580.625 93.285V84.1216H584.88V80.8614H580.625V75.9561H576.918V93.6626C576.918 95.2867 577.296 96.4883 578.051 97.2644C578.806 98.0405 580.016 98.4301 581.688 98.4301H585.257V95.1698H582.444V95.1728Z" fill="white"/>
</g>
<g opacity="0.05" clip-path="url(#clip2_2043_1985)">
<path d="M677.227 -19.8778C668.339 -20.2973 661.001 -13.2165 661.001 -4.42165V10.7019C661.001 11.3611 661.537 11.8975 662.197 11.8975H665.858C666.374 11.8975 666.832 11.5679 666.994 11.0764L671.177 -1.57195L665.709 -5.54535C664.732 -6.25553 665.235 -7.80174 666.443 -7.80174H673.203L675.291 -14.2293C675.666 -15.377 677.29 -15.377 677.665 -14.2293L679.753 -7.80174H686.513C687.721 -7.80174 688.224 -6.25553 687.248 -5.54535L681.779 -1.57195L683.868 4.85562C684.242 6.00329 682.927 6.95919 681.95 6.24901L676.484 2.2756L673.667 10.7948C675.136 11.0674 680.065 11.7746 685.024 8.48143C685.033 8.48143 685.039 8.47544 685.045 8.46645C689.405 5.5688 692.207 0.522631 691.943 -5.1588C691.569 -13.0756 685.15 -19.5032 677.227 -19.8778Z" fill="white"/>
<path d="M715.952 -11.6585C714.694 -12.3777 713.264 -12.7402 711.661 -12.7402C709.258 -12.7402 707.349 -11.8023 705.929 -9.92649L705.482 -12.5335H702.255V11.9003H705.962V2.56607C706.534 3.39012 707.301 4.04036 708.26 4.52281C709.222 5.00225 710.352 5.24197 711.658 5.24197C713.258 5.24197 714.691 4.8704 715.949 4.12726C717.208 3.38412 718.19 2.33234 718.901 0.968915C719.611 -0.391512 719.964 -1.96469 719.964 -3.75063C719.964 -5.53656 719.611 -7.17567 718.901 -8.53909C718.19 -9.89952 717.208 -10.9423 715.949 -11.6615L715.952 -11.6585ZM714.768 0.471491C713.819 1.56822 712.578 2.11959 711.044 2.11959C709.509 2.11959 708.275 1.57122 707.337 0.471491C706.399 -0.625241 705.929 -2.05759 705.929 -3.81655C705.929 -5.57552 706.399 -6.92096 707.337 -7.98473C708.275 -9.0485 709.509 -9.58189 711.044 -9.58189C712.578 -9.58189 713.819 -9.04551 714.768 -7.96975C715.718 -6.89399 716.192 -5.48862 716.192 -3.74763C716.192 -2.00665 715.718 -0.62524 714.768 0.474488V0.471491Z" fill="white"/>
<path d="M736.61 0.573372V-6.35761C736.61 -8.41623 735.969 -9.99541 734.69 -11.0921C733.41 -12.1889 731.588 -12.7402 729.233 -12.7402C727.013 -12.7402 725.218 -12.2548 723.845 -11.2809C722.473 -10.307 721.694 -8.94063 721.511 -7.17867H725.149C725.287 -7.95776 725.703 -8.58104 726.401 -9.0485C727.099 -9.51596 727.986 -9.75269 729.059 -9.75269C730.273 -9.75269 731.22 -9.47101 731.909 -8.91066C732.595 -8.35031 732.94 -7.5772 732.94 -6.59434V-5.53057H728.514C726.066 -5.53057 724.202 -5.04513 722.919 -4.07126C721.637 -3.09738 720.999 -1.70999 720.999 0.0999212C720.999 1.70007 721.595 2.95862 722.784 3.87556C723.974 4.7895 725.553 5.24797 727.519 5.24797C730.057 5.24797 731.993 4.24113 733.317 2.22746C733.317 3.1414 733.569 3.8396 734.072 4.32204C734.576 4.80148 735.4 5.04121 736.545 5.04121H738.501V1.81394H737.782C737.003 1.81394 736.616 1.40341 736.616 0.579367L736.61 0.573372ZM732.94 -2.17145C732.916 -0.79904 732.475 0.300688 731.618 1.12174C730.761 1.94579 729.566 2.35631 728.031 2.35631C727.025 2.35631 726.23 2.12858 725.646 1.6701C725.062 1.21164 724.771 0.606335 724.771 -0.148791C724.771 -1.01779 725.08 -1.67702 725.697 -2.12051C726.314 -2.567 727.195 -2.78874 728.34 -2.78874H732.94V-2.17145Z" fill="white"/>
<path d="M746.124 -11.8319C745.324 -11.3615 744.671 -10.7172 744.167 -9.89319L743.757 -12.5361H740.463V5.03555H744.17V-3.78325C744.17 -5.31748 744.515 -6.57902 745.201 -7.57387C745.887 -8.56872 746.996 -9.06614 748.53 -9.06614H750.178V-12.5331H749.354C748.006 -12.5331 746.93 -12.2994 746.127 -11.829L746.124 -11.8319Z" fill="white"/>
<path d="M756.118 1.34589C755.843 1.06122 755.708 0.572786 755.708 -0.11342V-9.27682H759.963V-12.5371H755.708V-17.4424H752.001V0.264145C752.001 1.88827 752.379 3.08988 753.134 3.86598C753.889 4.64208 755.099 5.03163 756.771 5.03163H760.34V1.7714H757.527C756.861 1.7714 756.394 1.62757 756.118 1.3429V1.34589Z" fill="white"/>
<path d="M774.007 -3.81921C774.007 -2.03328 773.611 -0.639886 772.823 0.36695C772.035 1.37379 770.941 1.8772 769.545 1.8772C768.149 1.8772 767.178 1.45469 766.492 0.606671C765.805 -0.238352 765.461 -1.4969 765.461 -3.16896V-12.5361H761.721V-2.7914C761.721 -0.0226002 762.368 1.98508 763.66 3.23164C764.954 4.4782 766.641 5.10147 768.721 5.10147C769.98 5.10147 771.025 4.86175 771.861 4.38231C772.697 3.90286 773.423 3.22564 774.04 2.35665V4.72391C774.04 6.1203 773.656 7.19605 772.889 7.95118C772.122 8.70631 771.052 9.08387 769.68 9.08387C767.325 9.08387 765.916 8.11 765.458 6.16824H761.682C761.841 8.08902 762.602 9.56032 763.965 10.5791C765.326 11.598 767.13 12.1074 769.371 12.1074C772.185 12.1074 774.28 11.4391 775.652 10.0997C777.024 8.76024 777.711 6.97131 777.711 4.7299V-12.5361H774.004V-3.81921H774.007Z" fill="white"/>
<path d="M788.153 1.05615L783.314 -12.5361H779.334L785.819 5.03555H790.35L796.834 -12.5361H792.924L788.153 1.05615Z" fill="white"/>
<path d="M809.925 -11.7104C808.631 -12.3966 807.139 -12.7412 805.446 -12.7412C803.752 -12.7412 802.293 -12.3696 801.002 -11.6265C799.707 -10.8834 798.703 -9.83158 797.981 -8.46815C797.262 -7.10772 796.899 -5.52256 796.899 -3.71565C796.899 -1.90874 797.271 -0.36552 798.014 0.985916C798.757 2.33436 799.809 3.38315 801.172 4.12629C802.533 4.86943 804.13 5.241 805.961 5.241C808.065 5.241 809.82 4.66866 811.229 3.52398C812.634 2.37931 813.5 0.916998 813.818 -0.868937H810.111C809.859 0.113926 809.344 0.875044 808.568 1.41142C807.792 1.9478 806.83 2.21749 805.685 2.21749C804.244 2.21749 803.087 1.77101 802.218 0.878041C801.349 -0.014926 800.87 -1.22553 800.777 -2.75975V-2.96651H814.022C814.091 -3.44596 814.124 -3.91641 814.124 -4.37488C814.103 -6.06793 813.719 -7.54222 812.973 -8.80077C812.227 -10.0593 811.211 -11.0302 809.919 -11.7164L809.925 -11.7104ZM800.918 -5.66939C801.056 -6.90396 801.565 -7.89282 802.446 -8.63895C803.327 -9.38209 804.373 -9.75367 805.586 -9.75367C806.89 -9.75367 807.972 -9.39408 808.829 -8.67192C809.686 -7.95275 810.195 -6.94891 810.357 -5.66939H800.921H800.918Z" fill="white"/>
<path d="M827.102 -4.76272C826.072 -5.09534 824.804 -5.34105 823.294 -5.49987C822.173 -5.63771 821.361 -5.75757 820.858 -5.85945C820.354 -5.96134 819.938 -6.14413 819.605 -6.40782C819.272 -6.67152 819.108 -7.06406 819.108 -7.59145C819.108 -8.30163 819.44 -8.86198 820.102 -9.27251C820.768 -9.68303 821.637 -9.88979 822.709 -9.88979C823.782 -9.88979 824.678 -9.63209 825.385 -9.11669C826.095 -8.60128 826.494 -7.94504 826.587 -7.14497H830.189C830.075 -8.92791 829.326 -10.3123 827.941 -11.2982C826.557 -12.281 824.756 -12.7725 822.536 -12.7725C821.187 -12.7725 819.98 -12.5447 818.916 -12.0863C817.852 -11.6278 817.016 -10.9835 816.411 -10.1475C815.805 -9.31146 815.5 -8.35856 815.5 -7.28281C815.5 -6.13813 815.802 -5.23018 816.411 -4.55596C817.016 -3.88174 817.816 -3.39031 818.814 -3.08167C819.809 -2.77302 821.073 -2.52731 822.608 -2.34452C823.728 -2.20668 824.558 -2.07483 825.095 -1.94898C825.634 -1.82312 826.063 -1.61037 826.383 -1.31371C826.704 -1.01705 826.863 -0.570568 826.863 0.0257425C826.863 0.735921 826.515 1.30227 825.817 1.72478C825.119 2.14729 824.211 2.36004 823.09 2.36004C821.831 2.36004 820.807 2.06938 820.019 1.48505C819.23 0.900729 818.799 0.151595 818.73 -0.762348H815.161C815.206 1.11348 815.955 2.58478 817.409 3.64855C818.862 4.71232 820.765 5.24571 823.123 5.24571C824.519 5.24571 825.778 5.02396 826.899 4.57748C828.019 4.13099 828.9 3.48974 829.542 2.6567C830.183 1.82067 830.503 0.855783 830.503 -0.243946C830.503 -1.47852 830.195 -2.45839 829.577 -3.17756C828.96 -3.89672 828.136 -4.42411 827.105 -4.75673L827.102 -4.76272Z" fill="white"/>
<path d="M837.98 1.7744C837.314 1.7744 836.847 1.63056 836.571 1.34589C836.296 1.06122 836.161 0.572786 836.161 -0.11342V-9.27682H840.416V-12.5371H836.161V-17.4424H832.454V0.264145C832.454 1.88827 832.832 3.08988 833.587 3.86598C834.342 4.64208 835.553 5.03163 837.225 5.03163H840.793V1.7714H837.98V1.7744Z" fill="white"/>
</g>
<g opacity="0.05" clip-path="url(#clip3_2043_1985)">
<path d="M22.9706 -9.11161C21.7121 -9.83078 20.2827 -10.1934 18.6796 -10.1934C16.2763 -10.1934 14.3675 -9.25544 12.9472 -7.37961L12.5007 -9.9866H9.27344V14.4472H12.9801V5.11294C13.5525 5.93699 14.3196 6.58724 15.2785 7.06968C16.2404 7.54913 17.3701 7.78885 18.6766 7.78885C20.2767 7.78885 21.7091 7.41728 22.9676 6.67414C24.2261 5.931 25.209 4.87921 25.9192 3.51579C26.6294 2.15536 26.983 0.582182 26.983 -1.20375C26.983 -2.98969 26.6294 -4.62879 25.9192 -5.99222C25.209 -7.35264 24.2261 -8.39544 22.9676 -9.11461L22.9706 -9.11161ZM21.787 3.01837C20.8371 4.1151 19.5965 4.66646 18.0623 4.66646C16.528 4.66646 15.2935 4.11809 14.3556 3.01837C13.4176 1.92163 12.9472 0.489289 12.9472 -1.26968C12.9472 -3.02864 13.4176 -4.37409 14.3556 -5.43786C15.2935 -6.50163 16.528 -7.03501 18.0623 -7.03501C19.5965 -7.03501 20.8371 -6.49863 21.787 -5.42287C22.7369 -4.34712 23.2103 -2.94174 23.2103 -1.20076C23.2103 0.54023 22.7369 1.92163 21.787 3.02136V3.01837Z" fill="white"/>
<path d="M43.629 3.12025V-3.81074C43.629 -5.86936 42.9878 -7.44853 41.7083 -8.54526C40.4287 -9.642 38.6068 -10.1934 36.2516 -10.1934C34.0311 -10.1934 32.2362 -9.70792 30.8638 -8.73405C29.4914 -7.76017 28.7123 -6.39375 28.5295 -4.63179H32.1673C32.3051 -5.41089 32.7217 -6.03417 33.4198 -6.50163C34.118 -6.96909 35.005 -7.20581 36.0778 -7.20581C37.2914 -7.20581 38.2383 -6.92414 38.9275 -6.36379C39.6137 -5.80343 39.9583 -5.03033 39.9583 -4.04747V-2.9837H35.5324C33.0842 -2.9837 31.2204 -2.49826 29.9379 -1.52438C28.6554 -0.550508 28.0171 0.836889 28.0171 2.6468C28.0171 4.24695 28.6134 5.50549 29.803 6.42243C30.9926 7.33637 32.5718 7.79484 34.5375 7.79484C37.0756 7.79484 39.0114 6.78801 40.3358 4.77434C40.3358 5.68828 40.5876 6.38647 41.091 6.86891C41.5944 7.34836 42.4184 7.58808 43.5631 7.58808H45.5199V4.36081H44.8007C44.0216 4.36081 43.635 3.95029 43.635 3.12624L43.629 3.12025ZM39.9583 0.375422C39.9343 1.74784 39.4938 2.84756 38.6368 3.66861C37.7798 4.49266 36.5842 4.90319 35.05 4.90319C34.0431 4.90319 33.249 4.67545 32.6647 4.21698C32.0804 3.75851 31.7897 3.15321 31.7897 2.39808C31.7897 1.52909 32.0984 0.86985 32.7157 0.426362C33.3329 -0.0201216 34.2139 -0.241866 35.3586 -0.241866H39.9583V0.375422Z" fill="white"/>
<path d="M53.1424 -9.28507C52.3423 -8.81462 51.6891 -8.17036 51.1857 -7.34631L50.7751 -9.98926H47.4819V7.58242H51.1886V-1.23638C51.1886 -2.7706 51.5332 -4.03215 52.2195 -5.027C52.9057 -6.02185 54.0144 -6.51927 55.5486 -6.51927H57.1967V-9.98626H56.3727C55.0242 -9.98626 53.9485 -9.75253 53.1454 -9.28208L53.1424 -9.28507Z" fill="white"/>
<path d="M63.1368 3.89277C62.8611 3.6081 62.7262 3.11966 62.7262 2.43345V-6.72995H66.9813V-9.99018H62.7262V-14.8955H59.0195V2.81102C59.0195 4.43514 59.3971 5.63675 60.1522 6.41286C60.9073 7.18896 62.118 7.57851 63.79 7.57851H67.3589V4.31828H64.5451C63.8799 4.31828 63.4125 4.17444 63.1368 3.88977V3.89277Z" fill="white"/>
<path d="M81.0254 -1.27234C81.0254 0.513599 80.6299 1.90699 79.8418 2.91383C79.0537 3.92066 77.96 4.42408 76.5636 4.42408C75.1672 4.42408 74.1963 4.00157 73.5101 3.15355C72.8239 2.30852 72.4793 1.04998 72.4793 -0.622088V-9.98926H68.7396V-0.244524C68.7396 2.52427 69.3869 4.53195 70.6784 5.77851C71.9729 7.02507 73.66 7.64835 75.7396 7.64835C76.9981 7.64835 78.0439 7.40863 78.8799 6.92918C79.7159 6.44973 80.4411 5.77252 81.0584 4.90352V7.27079C81.0584 8.66717 80.6748 9.74293 79.9077 10.4981C79.1406 11.2532 78.0709 11.6307 76.6984 11.6307C74.3432 11.6307 72.9348 10.6569 72.4763 8.71512H68.7007C68.8595 10.6359 69.6206 12.1072 70.984 13.126C72.3445 14.1448 74.1484 14.6543 76.3898 14.6543C79.2035 14.6543 81.2981 13.986 82.6705 12.6466C84.0429 11.3071 84.7292 9.51819 84.7292 7.27678V-9.98926H81.0224V-1.27234H81.0254Z" fill="white"/>
<path d="M95.1718 3.60303L90.3324 -9.98926H86.353L92.8375 7.58242H97.3683L103.853 -9.98926H99.9423L95.1718 3.60303Z" fill="white"/>
<path d="M116.944 -9.16353C115.649 -9.84973 114.157 -10.1943 112.464 -10.1943C110.771 -10.1943 109.312 -9.82277 108.02 -9.07963C106.726 -8.33648 105.722 -7.2847 105 -5.92128C104.281 -4.56085 103.918 -2.97568 103.918 -1.16877C103.918 0.63814 104.29 2.18135 105.033 3.53279C105.776 4.88123 106.828 5.93002 108.191 6.67316C109.551 7.4163 111.149 7.78787 112.979 7.78787C115.083 7.78787 116.839 7.21553 118.247 6.07086C119.653 4.92618 120.519 3.46387 120.836 1.67794H117.13C116.878 2.6608 116.363 3.42192 115.586 3.9583C114.81 4.49468 113.848 4.76437 112.704 4.76437C111.262 4.76437 110.106 4.31788 109.237 3.42492C108.368 2.53195 107.888 1.32135 107.795 -0.212877V-0.419637H121.04C121.109 -0.899082 121.142 -1.36954 121.142 -1.82801C121.121 -3.52105 120.738 -4.99535 119.991 -6.25389C119.245 -7.51244 118.229 -8.48331 116.938 -9.16952L116.944 -9.16353ZM107.936 -3.12251C108.074 -4.35709 108.584 -5.34594 109.465 -6.09208C110.346 -6.83522 111.391 -7.20679 112.605 -7.20679C113.908 -7.20679 114.99 -6.84721 115.847 -6.12504C116.704 -5.40587 117.214 -4.40203 117.375 -3.12251H107.939H107.936Z" fill="white"/>
<path d="M134.121 -2.21585C133.09 -2.54846 131.823 -2.79418 130.312 -2.95299C129.192 -3.09084 128.38 -3.2107 127.876 -3.31258C127.373 -3.41446 126.956 -3.59725 126.624 -3.86095C126.291 -4.12464 126.126 -4.51719 126.126 -5.04458C126.126 -5.75476 126.459 -6.31511 127.121 -6.72563C127.786 -7.13616 128.655 -7.34292 129.728 -7.34292C130.801 -7.34292 131.697 -7.08522 132.404 -6.56981C133.114 -6.05441 133.513 -5.39817 133.605 -4.59809H137.207C137.093 -6.38103 136.344 -7.76543 134.96 -8.75129C133.576 -9.73415 131.775 -10.2256 129.554 -10.2256C128.206 -10.2256 126.998 -9.99785 125.934 -9.53938C124.871 -9.08091 124.035 -8.43665 123.429 -7.60062C122.824 -6.76459 122.518 -5.81169 122.518 -4.73593C122.518 -3.59126 122.821 -2.68331 123.429 -2.00909C124.035 -1.33487 124.835 -0.843433 125.832 -0.534791C126.827 -0.226148 128.092 0.0195684 129.626 0.202356C130.747 0.340198 131.577 0.472045 132.113 0.597899C132.653 0.723754 133.081 0.936507 133.402 1.23316C133.722 1.52982 133.881 1.97631 133.881 2.57262C133.881 3.2828 133.534 3.84914 132.835 4.27165C132.137 4.69416 131.229 4.90692 130.109 4.90692C128.85 4.90692 127.825 4.61625 127.037 4.03193C126.249 3.4476 125.817 2.69847 125.749 1.78453H122.18C122.225 3.66036 122.974 5.13166 124.427 6.19543C125.88 7.2592 127.783 7.79258 130.141 7.79258C131.538 7.79258 132.796 7.57084 133.917 7.12435C135.038 6.67787 135.919 6.03661 136.56 5.20358C137.201 4.36754 137.522 3.40266 137.522 2.30293C137.522 1.06836 137.213 0.0884886 136.596 -0.63068C135.979 -1.34985 135.155 -1.87724 134.124 -2.20985L134.121 -2.21585Z" fill="white"/>
<path d="M144.998 4.32127C144.333 4.32127 143.866 4.17744 143.59 3.89277C143.314 3.6081 143.179 3.11966 143.179 2.43345V-6.72995H147.434V-9.99018H143.179V-14.8955H139.473V2.81102C139.473 4.43514 139.85 5.63675 140.605 6.41286C141.36 7.18896 142.571 7.57851 144.243 7.57851H147.812V4.31828H144.998V4.32127Z" fill="white"/>
</g>
<g opacity="0.05" clip-path="url(#clip4_2043_1985)">
<path d="M1076.76 35.4972C1067.87 35.0777 1060.53 42.1585 1060.53 50.9533V66.0769C1060.53 66.7361 1061.07 67.2725 1061.73 67.2725H1065.39C1065.9 67.2725 1066.36 66.9429 1066.52 66.4514L1070.71 53.8031L1065.24 49.8296C1064.26 49.1195 1064.77 47.5733 1065.97 47.5733H1072.73L1074.82 41.1457C1075.2 39.998 1076.82 39.998 1077.19 41.1457L1079.28 47.5733H1086.04C1087.25 47.5733 1087.75 49.1195 1086.78 49.8296L1081.31 53.8031L1083.4 60.2306C1083.77 61.3783 1082.46 62.3342 1081.48 61.624L1076.01 57.6506L1073.2 66.1698C1074.67 66.4424 1079.6 67.1496 1084.55 63.8564C1084.56 63.8564 1084.57 63.8504 1084.58 63.8414C1088.94 60.9438 1091.74 55.8976 1091.47 50.2162C1091.1 42.2994 1084.68 35.8718 1076.76 35.4972Z" fill="white"/>
<path d="M1115.48 43.7165C1114.22 42.9973 1112.79 42.6348 1111.19 42.6348C1108.79 42.6348 1106.88 43.5727 1105.46 45.4485L1105.01 42.8415H1101.79V67.2753H1105.49V57.9411C1106.06 58.7651 1106.83 59.4154 1107.79 59.8978C1108.75 60.3773 1109.88 60.617 1111.19 60.617C1112.79 60.617 1114.22 60.2454 1115.48 59.5023C1116.74 58.7591 1117.72 57.7073 1118.43 56.3439C1119.14 54.9835 1119.49 53.4103 1119.49 51.6244C1119.49 49.8384 1119.14 48.1993 1118.43 46.8359C1117.72 45.4755 1116.74 44.4327 1115.48 43.7135L1115.48 43.7165ZM1114.3 55.8465C1113.35 56.9432 1112.11 57.4946 1110.57 57.4946C1109.04 57.4946 1107.81 56.9462 1106.87 55.8465C1105.93 54.7498 1105.46 53.3174 1105.46 51.5584C1105.46 49.7995 1105.93 48.454 1106.87 47.3903C1107.81 46.3265 1109.04 45.7931 1110.57 45.7931C1112.11 45.7931 1113.35 46.3295 1114.3 47.4053C1115.25 48.481 1115.72 49.8864 1115.72 51.6274C1115.72 53.3684 1115.25 54.7498 1114.3 55.8495V55.8465Z" fill="white"/>
<path d="M1136.14 55.9484V49.0174C1136.14 46.9588 1135.5 45.3796 1134.22 44.2829C1132.94 43.1861 1131.12 42.6348 1128.76 42.6348C1126.54 42.6348 1124.75 43.1202 1123.38 44.0941C1122 45.068 1121.22 46.4344 1121.04 48.1963H1124.68C1124.82 47.4172 1125.23 46.794 1125.93 46.3265C1126.63 45.859 1127.52 45.6223 1128.59 45.6223C1129.8 45.6223 1130.75 45.904 1131.44 46.4643C1132.13 47.0247 1132.47 47.7978 1132.47 48.7807V49.8444H1128.04C1125.6 49.8444 1123.73 50.3299 1122.45 51.3037C1121.17 52.2776 1120.53 53.665 1120.53 55.4749C1120.53 57.0751 1121.13 58.3336 1122.31 59.2506C1123.5 60.1645 1125.08 60.623 1127.05 60.623C1129.59 60.623 1131.52 59.6161 1132.85 57.6025C1132.85 58.5164 1133.1 59.2146 1133.6 59.697C1134.11 60.1765 1134.93 60.4162 1136.07 60.4162H1138.03V57.1889H1137.31C1136.53 57.1889 1136.15 56.7784 1136.15 55.9544L1136.14 55.9484ZM1132.47 53.2035C1132.45 54.576 1132.01 55.6757 1131.15 56.4967C1130.29 57.3208 1129.1 57.7313 1127.56 57.7313C1126.55 57.7313 1125.76 57.5036 1125.18 57.0451C1124.59 56.5866 1124.3 55.9813 1124.3 55.2262C1124.3 54.3572 1124.61 53.698 1125.23 53.2545C1125.84 52.808 1126.73 52.5863 1127.87 52.5863H1132.47V53.2035Z" fill="white"/>
<path d="M1145.65 43.5431C1144.85 44.0135 1144.2 44.6578 1143.7 45.4818L1143.29 42.8389H1139.99V60.4105H1143.7V51.5917C1143.7 50.0575 1144.04 48.796 1144.73 47.8011C1145.42 46.8063 1146.53 46.3089 1148.06 46.3089H1149.71V42.8419H1148.88C1147.54 42.8419 1146.46 43.0756 1145.66 43.546L1145.65 43.5431Z" fill="white"/>
<path d="M1155.65 56.7209C1155.37 56.4362 1155.24 55.9478 1155.24 55.2616V46.0982H1159.49V42.8379H1155.24V37.9326H1151.53V55.6391C1151.53 57.2633 1151.91 58.4649 1152.66 59.241C1153.42 60.0171 1154.63 60.4066 1156.3 60.4066H1159.87V57.1464H1157.06C1156.39 57.1464 1155.92 57.0026 1155.65 56.7179V56.7209Z" fill="white"/>
<path d="M1173.54 51.5558C1173.54 53.3417 1173.14 54.7351 1172.35 55.742C1171.56 56.7488 1170.47 57.2522 1169.07 57.2522C1167.68 57.2522 1166.71 56.8297 1166.02 55.9817C1165.34 55.1366 1164.99 53.8781 1164.99 52.206V42.8389H1161.25V52.5836C1161.25 55.3524 1161.9 57.3601 1163.19 58.6066C1164.48 59.8532 1166.17 60.4765 1168.25 60.4765C1169.51 60.4765 1170.56 60.2368 1171.39 59.7573C1172.23 59.2779 1172.95 58.6006 1173.57 57.7316V60.0989C1173.57 61.4953 1173.19 62.5711 1172.42 63.3262C1171.65 64.0813 1170.58 64.4589 1169.21 64.4589C1166.85 64.4589 1165.45 63.485 1164.99 61.5432H1161.21C1161.37 63.464 1162.13 64.9353 1163.5 65.9541C1164.86 66.973 1166.66 67.4824 1168.9 67.4824C1171.71 67.4824 1173.81 66.8141 1175.18 65.4747C1176.55 64.1352 1177.24 62.3463 1177.24 60.1049V42.8389H1173.53V51.5558H1173.54Z" fill="white"/>
<path d="M1187.68 56.4312L1182.84 42.8389H1178.86L1185.35 60.4105H1189.88L1196.36 42.8389H1192.45L1187.68 56.4312Z" fill="white"/>
<path d="M1209.46 43.6646C1208.16 42.9784 1206.67 42.6338 1204.98 42.6338C1203.28 42.6338 1201.82 43.0054 1200.53 43.7485C1199.24 44.4916 1198.23 45.5434 1197.51 46.9068C1196.79 48.2673 1196.43 49.8524 1196.43 51.6594C1196.43 53.4663 1196.8 55.0095 1197.54 56.3609C1198.29 57.7094 1199.34 58.7581 1200.7 59.5013C1202.06 60.2444 1203.66 60.616 1205.49 60.616C1207.59 60.616 1209.35 60.0437 1210.76 58.899C1212.16 57.7543 1213.03 56.292 1213.35 54.5061H1209.64C1209.39 55.4889 1208.87 56.25 1208.1 56.7864C1207.32 57.3228 1206.36 57.5925 1205.22 57.5925C1203.77 57.5925 1202.62 57.146 1201.75 56.253C1200.88 55.3601 1200.4 54.1495 1200.31 52.6152V52.4085H1213.55C1213.62 51.929 1213.65 51.4586 1213.65 51.0001C1213.63 49.3071 1213.25 47.8328 1212.5 46.5742C1211.76 45.3157 1210.74 44.3448 1209.45 43.6586L1209.46 43.6646ZM1200.45 49.7056C1200.59 48.471 1201.1 47.4822 1201.98 46.736C1202.86 45.9929 1203.9 45.6213 1205.12 45.6213C1206.42 45.6213 1207.5 45.9809 1208.36 46.7031C1209.22 47.4223 1209.73 48.4261 1209.89 49.7056H1200.45H1200.45Z" fill="white"/>
</g>
<g opacity="0.05" clip-path="url(#clip5_2043_1985)">
<path d="M845.023 159.819C836.135 159.4 828.797 166.481 828.797 175.276V190.399C828.797 191.058 829.333 191.595 829.992 191.595H833.654C834.17 191.595 834.628 191.265 834.79 190.774L838.973 178.125L833.504 174.152C832.528 173.442 833.031 171.896 834.239 171.896H840.999L843.087 165.468C843.462 164.32 845.086 164.32 845.461 165.468L847.549 171.896H854.309C855.517 171.896 856.02 173.442 855.044 174.152L849.575 178.125L851.663 184.553C852.038 185.701 850.723 186.656 849.746 185.946L844.28 181.973L841.463 190.492C842.932 190.765 847.861 191.472 852.82 188.179C852.829 188.179 852.835 188.173 852.841 188.164C857.201 185.266 860.003 180.22 859.739 174.538C859.365 166.622 852.946 160.194 845.023 159.819Z" fill="white"/>
<path d="M883.748 168.039C882.489 167.32 881.06 166.957 879.457 166.957C877.054 166.957 875.145 167.895 873.725 169.771L873.278 167.164H870.051V191.598H873.757V182.263C874.33 183.087 875.097 183.738 876.056 184.22C877.018 184.7 878.147 184.939 879.454 184.939C881.054 184.939 882.486 184.568 883.745 183.825C885.003 183.081 885.986 182.03 886.697 180.666C887.407 179.306 887.76 177.733 887.76 175.947C887.76 174.161 887.407 172.522 886.697 171.158C885.986 169.798 885.003 168.755 883.745 168.036L883.748 168.039ZM882.564 180.169C881.614 181.265 880.374 181.817 878.84 181.817C877.305 181.817 876.071 181.268 875.133 180.169C874.195 179.072 873.725 177.64 873.725 175.881C873.725 174.122 874.195 172.776 875.133 171.713C876.071 170.649 877.305 170.115 878.84 170.115C880.374 170.115 881.614 170.652 882.564 171.728C883.514 172.803 883.988 174.209 883.988 175.95C883.988 177.691 883.514 179.072 882.564 180.172V180.169Z" fill="white"/>
<path d="M904.406 180.271V173.34C904.406 171.281 903.765 169.702 902.486 168.605C901.206 167.508 899.384 166.957 897.029 166.957C894.808 166.957 893.014 167.442 891.641 168.416C890.269 169.39 889.49 170.757 889.307 172.519H892.945C893.082 171.74 893.499 171.116 894.197 170.649C894.895 170.181 895.782 169.945 896.855 169.945C898.069 169.945 899.016 170.226 899.705 170.787C900.391 171.347 900.736 172.12 900.736 173.103V174.167H896.31C893.862 174.167 891.998 174.652 890.715 175.626C889.433 176.6 888.794 177.987 888.794 179.797C888.794 181.397 889.391 182.656 890.58 183.573C891.77 184.487 893.349 184.945 895.315 184.945C897.853 184.945 899.789 183.938 901.113 181.925C901.113 182.839 901.365 183.537 901.868 184.019C902.372 184.499 903.196 184.738 904.34 184.738H906.297V181.511H905.578C904.799 181.511 904.412 181.101 904.412 180.277L904.406 180.271ZM900.736 177.526C900.712 178.898 900.271 179.998 899.414 180.819C898.557 181.643 897.362 182.054 895.827 182.054C894.82 182.054 894.026 181.826 893.442 181.367C892.858 180.909 892.567 180.304 892.567 179.548C892.567 178.679 892.876 178.02 893.493 177.577C894.11 177.13 894.991 176.909 896.136 176.909H900.736V177.526Z" fill="white"/>
<path d="M913.92 167.865C913.12 168.336 912.466 168.98 911.963 169.804L911.552 167.161H908.259V184.733H911.966V175.914C911.966 174.38 912.311 173.118 912.997 172.123C913.683 171.129 914.792 170.631 916.326 170.631H917.974V167.164H917.15C915.802 167.164 914.726 167.398 913.923 167.868L913.92 167.865Z" fill="white"/>
<path d="M923.914 181.043C923.638 180.758 923.504 180.27 923.504 179.584V170.42H927.759V167.16H923.504V162.255H919.797V179.961C919.797 181.586 920.174 182.787 920.93 183.563C921.685 184.339 922.895 184.729 924.567 184.729H928.136V181.469H925.322C924.657 181.469 924.19 181.325 923.914 181.04V181.043Z" fill="white"/>
<path d="M941.803 175.878C941.803 177.664 941.407 179.057 940.619 180.064C939.831 181.071 938.737 181.574 937.341 181.574C935.945 181.574 934.974 181.152 934.287 180.304C933.601 179.459 933.257 178.2 933.257 176.528V167.161H929.517V176.906C929.517 179.675 930.164 181.682 931.456 182.929C932.75 184.175 934.437 184.799 936.517 184.799C937.775 184.799 938.821 184.559 939.657 184.08C940.493 183.6 941.218 182.923 941.836 182.054V184.421C941.836 185.818 941.452 186.893 940.685 187.648C939.918 188.404 938.848 188.781 937.476 188.781C935.121 188.781 933.712 187.807 933.254 185.866H929.478C929.637 187.786 930.398 189.258 931.761 190.276C933.122 191.295 934.926 191.805 937.167 191.805C939.981 191.805 942.075 191.136 943.448 189.797C944.82 188.458 945.507 186.669 945.507 184.427V167.161H941.8V175.878H941.803Z" fill="white"/>
<path d="M955.949 180.753L951.11 167.161H947.13L953.615 184.733H958.146L964.63 167.161H960.72L955.949 180.753Z" fill="white"/>
<path d="M977.721 167.987C976.427 167.301 974.934 166.956 973.241 166.956C971.548 166.956 970.089 167.328 968.798 168.071C967.503 168.814 966.499 169.866 965.777 171.229C965.058 172.59 964.695 174.175 964.695 175.982C964.695 177.789 965.067 179.332 965.81 180.683C966.553 182.032 967.605 183.08 968.968 183.824C970.329 184.567 971.926 184.938 973.757 184.938C975.86 184.938 977.616 184.366 979.025 183.221C980.43 182.077 981.296 180.614 981.614 178.828H977.907C977.655 179.811 977.14 180.572 976.364 181.109C975.588 181.645 974.626 181.915 973.481 181.915C972.04 181.915 970.883 181.468 970.014 180.575C969.145 179.682 968.666 178.472 968.573 176.938V176.731H981.818C981.886 176.251 981.919 175.781 981.919 175.322C981.898 173.629 981.515 172.155 980.769 170.896C980.023 169.638 979.007 168.667 977.715 167.981L977.721 167.987ZM968.714 174.028C968.852 172.793 969.361 171.804 970.242 171.058C971.123 170.315 972.169 169.944 973.382 169.944C974.686 169.944 975.768 170.303 976.625 171.025C977.482 171.745 977.991 172.748 978.153 174.028H968.717H968.714Z" fill="white"/>
<path d="M994.898 174.935C993.867 174.602 992.6 174.356 991.09 174.197C989.969 174.06 989.157 173.94 988.653 173.838C988.15 173.736 987.733 173.553 987.401 173.289C987.068 173.026 986.903 172.633 986.903 172.106C986.903 171.396 987.236 170.835 987.898 170.425C988.564 170.014 989.433 169.807 990.505 169.807C991.578 169.807 992.474 170.065 993.181 170.581C993.891 171.096 994.29 171.752 994.383 172.552H997.985C997.871 170.769 997.122 169.385 995.737 168.399C994.353 167.416 992.552 166.925 990.332 166.925C988.983 166.925 987.775 167.153 986.712 167.611C985.648 168.069 984.812 168.714 984.207 169.55C983.601 170.386 983.296 171.339 983.296 172.414C983.296 173.559 983.598 174.467 984.207 175.141C984.812 175.816 985.612 176.307 986.61 176.616C987.605 176.924 988.869 177.17 990.403 177.353C991.524 177.491 992.354 177.622 992.891 177.748C993.43 177.874 993.858 178.087 994.179 178.384C994.5 178.68 994.658 179.127 994.658 179.723C994.658 180.433 994.311 181 993.613 181.422C992.915 181.845 992.007 182.057 990.886 182.057C989.627 182.057 988.602 181.767 987.814 181.182C987.026 180.598 986.595 179.849 986.526 178.935H982.957C983.002 180.811 983.751 182.282 985.204 183.346C986.658 184.41 988.561 184.943 990.919 184.943C992.315 184.943 993.574 184.721 994.694 184.275C995.815 183.828 996.696 183.187 997.337 182.354C997.979 181.518 998.299 180.553 998.299 179.453C998.299 178.219 997.991 177.239 997.373 176.52C996.756 175.801 995.932 175.273 994.901 174.941L994.898 174.935Z" fill="white"/>
<path d="M1005.78 181.472C1005.11 181.472 1004.64 181.328 1004.37 181.043C1004.09 180.758 1003.96 180.27 1003.96 179.584V170.42H1008.21V167.16H1003.96V162.255H1000.25V179.961C1000.25 181.586 1000.63 182.787 1001.38 183.563C1002.14 184.339 1003.35 184.729 1005.02 184.729H1008.59V181.469H1005.78V181.472Z" fill="white"/>
</g>
<g opacity="0.05" clip-path="url(#clip6_2043_1985)">
<path d="M563.073 171.37C554.185 170.951 546.847 178.032 546.847 186.826V201.95C546.847 202.609 547.383 203.146 548.042 203.146H551.704C552.219 203.146 552.678 202.816 552.84 202.324L557.023 189.676L551.554 185.703C550.577 184.993 551.081 183.446 552.288 183.446H559.049L561.137 177.019C561.512 175.871 563.136 175.871 563.51 177.019L565.599 183.446H572.359C573.567 183.446 574.07 184.993 573.093 185.703L567.625 189.676L569.713 196.104C570.088 197.251 568.772 198.207 567.795 197.497L562.33 193.524L559.513 202.043C560.981 202.315 565.911 203.023 570.87 199.729C570.879 199.729 570.885 199.723 570.891 199.714C575.251 196.817 578.053 191.771 577.789 186.089C577.414 178.172 570.996 171.745 563.073 171.37Z" fill="white"/>
<path d="M601.798 179.59C600.539 178.87 599.11 178.508 597.507 178.508C595.103 178.508 593.195 179.446 591.774 181.322L591.328 178.715H588.101V203.148H591.807V193.814C592.38 194.638 593.147 195.288 594.106 195.771C595.068 196.25 596.197 196.49 597.504 196.49C599.104 196.49 600.536 196.118 601.795 195.375C603.053 194.632 604.036 193.58 604.746 192.217C605.457 190.857 605.81 189.283 605.81 187.497C605.81 185.711 605.457 184.072 604.746 182.709C604.036 181.349 603.053 180.306 601.795 179.587L601.798 179.59ZM600.614 191.72C599.664 192.816 598.424 193.368 596.889 193.368C595.355 193.368 594.121 192.819 593.183 191.72C592.245 190.623 591.774 189.19 591.774 187.431C591.774 185.673 592.245 184.327 593.183 183.263C594.121 182.2 595.355 181.666 596.889 181.666C598.424 181.666 599.664 182.203 600.614 183.278C601.564 184.354 602.037 185.759 602.037 187.5C602.037 189.241 601.564 190.623 600.614 191.723V191.72Z" fill="white"/>
<path d="M622.456 191.821V184.89C622.456 182.832 621.815 181.253 620.535 180.156C619.256 179.059 617.434 178.508 615.079 178.508C612.858 178.508 611.063 178.993 609.691 179.967C608.319 180.941 607.539 182.307 607.357 184.069H610.994C611.132 183.29 611.549 182.667 612.247 182.2C612.945 181.732 613.832 181.495 614.905 181.495C616.119 181.495 617.065 181.777 617.755 182.337C618.441 182.898 618.785 183.671 618.785 184.654V185.717H614.36C611.911 185.717 610.048 186.203 608.765 187.177C607.483 188.151 606.844 189.538 606.844 191.348C606.844 192.948 607.441 194.207 608.63 195.124C609.82 196.038 611.399 196.496 613.365 196.496C615.903 196.496 617.839 195.489 619.163 193.476C619.163 194.389 619.415 195.088 619.918 195.57C620.422 196.05 621.246 196.289 622.39 196.289H624.347V193.062H623.628C622.849 193.062 622.462 192.651 622.462 191.827L622.456 191.821ZM618.785 189.077C618.761 190.449 618.321 191.549 617.464 192.37C616.607 193.194 615.411 193.604 613.877 193.604C612.87 193.604 612.076 193.377 611.492 192.918C610.908 192.46 610.617 191.854 610.617 191.099C610.617 190.23 610.926 189.571 611.543 189.128C612.16 188.681 613.041 188.459 614.186 188.459H618.785V189.077Z" fill="white"/>
<path d="M631.97 179.416C631.169 179.887 630.516 180.531 630.013 181.355L629.602 178.712H626.309V196.284H630.016V187.465C630.016 185.931 630.36 184.669 631.047 183.674C631.733 182.679 632.842 182.182 634.376 182.182H636.024V178.715H635.2C633.851 178.715 632.776 178.949 631.973 179.419L631.97 179.416Z" fill="white"/>
<path d="M641.964 192.594C641.688 192.309 641.553 191.821 641.553 191.135V181.971H645.808V178.711H641.553V173.806H637.847V191.512C637.847 193.136 638.224 194.338 638.979 195.114C639.734 195.89 640.945 196.28 642.617 196.28H646.186V193.019H643.372C642.707 193.019 642.24 192.876 641.964 192.591V192.594Z" fill="white"/>
<path d="M659.853 187.429C659.853 189.215 659.457 190.608 658.669 191.615C657.881 192.622 656.787 193.125 655.391 193.125C653.994 193.125 653.023 192.703 652.337 191.855C651.651 191.01 651.306 189.751 651.306 188.079V178.712H647.567V188.457C647.567 191.225 648.214 193.233 649.506 194.48C650.8 195.726 652.487 196.35 654.567 196.35C655.825 196.35 656.871 196.11 657.707 195.63C658.543 195.151 659.268 194.474 659.886 193.605V195.972C659.886 197.368 659.502 198.444 658.735 199.199C657.968 199.954 656.898 200.332 655.526 200.332C653.17 200.332 651.762 199.358 651.303 197.416H647.528C647.687 199.337 648.448 200.808 649.811 201.827C651.172 202.846 652.976 203.355 655.217 203.355C658.031 203.355 660.125 202.687 661.498 201.348C662.87 200.008 663.556 198.219 663.556 195.978V178.712H659.85V187.429H659.853Z" fill="white"/>
<path d="M673.999 192.304L669.16 178.712H665.18L671.665 196.284H676.195L682.68 178.712H678.769L673.999 192.304Z" fill="white"/>
<path d="M695.771 179.538C694.477 178.851 692.984 178.507 691.291 178.507C689.598 178.507 688.139 178.878 686.847 179.622C685.553 180.365 684.549 181.416 683.827 182.78C683.108 184.14 682.745 185.725 682.745 187.532C682.745 189.339 683.117 190.883 683.86 192.234C684.603 193.582 685.655 194.631 687.018 195.374C688.379 196.117 689.976 196.489 691.807 196.489C693.91 196.489 695.666 195.917 697.075 194.772C698.48 193.627 699.346 192.165 699.664 190.379H695.957C695.705 191.362 695.19 192.123 694.414 192.659C693.638 193.196 692.676 193.466 691.531 193.466C690.09 193.466 688.933 193.019 688.064 192.126C687.195 191.233 686.716 190.023 686.623 188.488V188.282H699.867C699.936 187.802 699.969 187.332 699.969 186.873C699.948 185.18 699.565 183.706 698.819 182.447C698.072 181.189 697.057 180.218 695.765 179.532L695.771 179.538ZM686.763 185.579C686.901 184.344 687.411 183.355 688.292 182.609C689.173 181.866 690.218 181.494 691.432 181.494C692.736 181.494 693.817 181.854 694.674 182.576C695.531 183.295 696.041 184.299 696.203 185.579H686.766H686.763Z" fill="white"/>
<path d="M712.948 186.485C711.917 186.153 710.65 185.907 709.139 185.748C708.019 185.61 707.207 185.49 706.703 185.389C706.2 185.287 705.783 185.104 705.451 184.84C705.118 184.577 704.953 184.184 704.953 183.657C704.953 182.946 705.286 182.386 705.948 181.976C706.613 181.565 707.482 181.358 708.555 181.358C709.628 181.358 710.524 181.616 711.231 182.131C711.941 182.647 712.34 183.303 712.433 184.103H716.034C715.921 182.32 715.171 180.936 713.787 179.95C712.403 178.967 710.602 178.476 708.381 178.476C707.033 178.476 705.825 178.703 704.761 179.162C703.698 179.62 702.862 180.265 702.256 181.101C701.651 181.937 701.345 182.889 701.345 183.965C701.345 185.11 701.648 186.018 702.256 186.692C702.862 187.366 703.662 187.858 704.66 188.166C705.654 188.475 706.919 188.721 708.453 188.904C709.574 189.041 710.404 189.173 710.94 189.299C711.48 189.425 711.908 189.638 712.229 189.934C712.549 190.231 712.708 190.677 712.708 191.274C712.708 191.984 712.361 192.55 711.663 192.973C710.964 193.395 710.056 193.608 708.936 193.608C707.677 193.608 706.652 193.317 705.864 192.733C705.076 192.149 704.645 191.4 704.576 190.486H701.007C701.052 192.362 701.801 193.833 703.254 194.897C704.708 195.96 706.61 196.494 708.969 196.494C710.365 196.494 711.624 196.272 712.744 195.826C713.865 195.379 714.746 194.738 715.387 193.905C716.028 193.069 716.349 192.104 716.349 191.004C716.349 189.77 716.04 188.79 715.423 188.07C714.806 187.351 713.982 186.824 712.951 186.491L712.948 186.485Z" fill="white"/>
<path d="M723.825 193.022C723.16 193.022 722.693 192.879 722.417 192.594C722.141 192.309 722.007 191.821 722.007 191.135V181.971H726.262V178.711H722.007V173.806H718.3V191.512C718.3 193.136 718.677 194.338 719.433 195.114C720.188 195.89 721.398 196.28 723.07 196.28H726.639V193.019H723.825V193.022Z" fill="white"/>
</g>
<g opacity="0.05" clip-path="url(#clip7_2043_1985)">
<path d="M839.059 72.9523C830.172 72.5328 822.833 79.6136 822.833 88.4084V103.532C822.833 104.191 823.369 104.728 824.029 104.728H827.69C828.206 104.728 828.664 104.398 828.826 103.907L833.009 91.2581L827.541 87.2847C826.564 86.5745 827.067 85.0283 828.275 85.0283H835.035L837.123 78.6008C837.498 77.4531 839.122 77.4531 839.497 78.6008L841.585 85.0283H848.346C849.553 85.0283 850.057 86.5745 849.08 87.2847L843.611 91.2581L845.7 97.6857C846.074 98.8334 844.759 99.7893 843.782 99.0791L838.316 95.1057L835.499 103.625C836.968 103.898 841.897 104.605 846.856 101.312C846.865 101.312 846.871 101.306 846.877 101.297C851.237 98.3989 854.039 93.3527 853.775 87.6713C853.401 79.7544 846.982 73.3269 839.059 72.9523Z" fill="white"/>
<path d="M877.784 81.1716C876.526 80.4524 875.096 80.0898 873.493 80.0898C871.09 80.0898 869.181 81.0278 867.761 82.9036L867.314 80.2966H864.087V104.73H867.794V95.3961C868.366 96.2202 869.133 96.8704 870.092 97.3529C871.054 97.8323 872.184 98.0721 873.49 98.0721C875.09 98.0721 876.523 97.7005 877.781 96.9573C879.04 96.2142 880.022 95.1624 880.733 93.799C881.443 92.4386 881.796 90.8654 881.796 89.0795C881.796 87.2935 881.443 85.6544 880.733 84.291C880.022 82.9306 879.04 81.8878 877.781 81.1686L877.784 81.1716ZM876.6 93.3016C875.651 94.3983 874.41 94.9497 872.876 94.9497C871.342 94.9497 870.107 94.4013 869.169 93.3016C868.231 92.2048 867.761 90.7725 867.761 89.0135C867.761 87.2546 868.231 85.9091 869.169 84.8453C870.107 83.7816 871.342 83.2482 872.876 83.2482C874.41 83.2482 875.651 83.7846 876.6 84.8603C877.55 85.9361 878.024 87.3415 878.024 89.0824C878.024 90.8234 877.55 92.2048 876.6 93.3046V93.3016Z" fill="white"/>
<path d="M898.443 93.4035V86.4725C898.443 84.4138 897.801 82.8347 896.522 81.7379C895.242 80.6412 893.42 80.0898 891.065 80.0898C888.845 80.0898 887.05 80.5753 885.677 81.5492C884.305 82.523 883.526 83.8895 883.343 85.6514H886.981C887.119 84.8723 887.535 84.249 888.233 83.7816C888.932 83.3141 889.818 83.0774 890.891 83.0774C892.105 83.0774 893.052 83.3591 893.741 83.9194C894.427 84.4798 894.772 85.2529 894.772 86.2357V87.2995H890.346C887.898 87.2995 886.034 87.7849 884.751 88.7588C883.469 89.7327 882.831 91.1201 882.831 92.93C882.831 94.5301 883.427 95.7887 884.616 96.7056C885.806 97.6196 887.385 98.078 889.351 98.078C891.889 98.078 893.825 97.0712 895.149 95.0575C895.149 95.9715 895.401 96.6697 895.904 97.1521C896.408 97.6316 897.232 97.8713 898.377 97.8713H900.333V94.644H899.614C898.835 94.644 898.449 94.2335 898.449 93.4094L898.443 93.4035ZM894.772 90.6586C894.748 92.031 894.307 93.1308 893.45 93.9518C892.593 94.7759 891.398 95.1864 889.863 95.1864C888.857 95.1864 888.063 94.9587 887.478 94.5002C886.894 94.0417 886.603 93.4364 886.603 92.6813C886.603 91.8123 886.912 91.1531 887.529 90.7096C888.146 90.2631 889.027 90.0413 890.172 90.0413H894.772V90.6586Z" fill="white"/>
<path d="M907.956 80.9981C907.156 81.4686 906.503 82.1128 905.999 82.9369L905.589 80.2939H902.295V97.8656H906.002V89.0468C906.002 87.5126 906.347 86.2511 907.033 85.2562C907.719 84.2614 908.828 83.7639 910.362 83.7639H912.01V80.2969H911.186C909.838 80.2969 908.762 80.5307 907.959 81.0011L907.956 80.9981Z" fill="white"/>
<path d="M917.95 94.176C917.675 93.8913 917.54 93.4029 917.54 92.7167V83.5533H921.795V80.293H917.54V75.3877H913.833V93.0942C913.833 94.7183 914.211 95.92 914.966 96.6961C915.721 97.4722 916.931 97.8617 918.603 97.8617H922.172V94.6015H919.359C918.693 94.6015 918.226 94.4576 917.95 94.173V94.176Z" fill="white"/>
<path d="M935.839 89.0109C935.839 90.7968 935.443 92.1902 934.655 93.197C933.867 94.2039 932.773 94.7073 931.377 94.7073C929.981 94.7073 929.01 94.2848 928.324 93.4367C927.637 92.5917 927.293 91.3332 927.293 89.6611V80.2939H923.553V90.0387C923.553 92.8075 924.2 94.8152 925.492 96.0617C926.786 97.3083 928.473 97.9316 930.553 97.9316C931.812 97.9316 932.857 97.6918 933.693 97.2124C934.529 96.7329 935.255 96.0557 935.872 95.1867V97.554C935.872 98.9504 935.488 100.026 934.721 100.781C933.954 101.536 932.884 101.914 931.512 101.914C929.157 101.914 927.748 100.94 927.29 98.9983H923.514C923.673 100.919 924.434 102.39 925.798 103.409C927.158 104.428 928.962 104.937 931.203 104.937C934.017 104.937 936.112 104.269 937.484 102.93C938.856 101.59 939.543 99.8014 939.543 97.56V80.2939H935.836V89.0109H935.839Z" fill="white"/>
<path d="M949.985 93.8862L945.146 80.2939H941.167L947.651 97.8656H952.182L958.666 80.2939H954.756L949.985 93.8862Z" fill="white"/>
<path d="M971.757 81.1197C970.463 80.4335 968.971 80.0889 967.278 80.0889C965.585 80.0889 964.125 80.4604 962.834 81.2036C961.539 81.9467 960.535 82.9985 959.813 84.3619C959.094 85.7224 958.731 87.3075 958.731 89.1144C958.731 90.9213 959.103 92.4646 959.846 93.816C960.589 95.1644 961.641 96.2132 963.005 96.9564C964.365 97.6995 965.962 98.0711 967.793 98.0711C969.897 98.0711 971.653 97.4987 973.061 96.3541C974.466 95.2094 975.332 93.7471 975.65 91.9611H971.943C971.691 92.944 971.176 93.7051 970.4 94.2415C969.624 94.7779 968.662 95.0476 967.517 95.0476C966.076 95.0476 964.919 94.6011 964.05 93.7081C963.181 92.8152 962.702 91.6046 962.609 90.0703V89.8636H975.854C975.923 89.3841 975.956 88.9137 975.956 88.4552C975.935 86.7622 975.551 85.2879 974.805 84.0293C974.059 82.7708 973.043 81.7999 971.751 81.1137L971.757 81.1197ZM962.75 87.1607C962.888 85.9261 963.397 84.9373 964.278 84.1911C965.159 83.448 966.205 83.0764 967.418 83.0764C968.722 83.0764 969.804 83.436 970.661 84.1582C971.518 84.8773 972.027 85.8812 972.189 87.1607H962.753H962.75Z" fill="white"/>
<path d="M988.934 88.0674C987.904 87.7347 986.636 87.489 985.126 87.3302C984.005 87.1924 983.193 87.0725 982.69 86.9706C982.186 86.8687 981.77 86.686 981.437 86.4223C981.104 86.1586 980.94 85.766 980.94 85.2386C980.94 84.5284 981.272 83.9681 981.934 83.5576C982.6 83.147 983.469 82.9403 984.541 82.9403C985.614 82.9403 986.51 83.198 987.217 83.7134C987.928 84.2288 988.326 84.885 988.419 85.6851H992.021C991.907 83.9022 991.158 82.5178 989.773 81.5319C988.389 80.549 986.588 80.0576 984.368 80.0576C983.019 80.0576 981.812 80.2854 980.748 80.7438C979.684 81.2023 978.848 81.8465 978.243 82.6826C977.637 83.5186 977.332 84.4715 977.332 85.5473C977.332 86.6919 977.634 87.5999 978.243 88.2741C978.848 88.9483 979.648 89.4398 980.646 89.7484C981.641 90.0571 982.905 90.3028 984.44 90.4856C985.56 90.6234 986.39 90.7552 986.927 90.8811C987.466 91.007 987.895 91.2197 988.215 91.5164C988.536 91.813 988.695 92.2595 988.695 92.8558C988.695 93.566 988.347 94.1323 987.649 94.5549C986.951 94.9774 986.043 95.1901 984.922 95.1901C983.663 95.1901 982.639 94.8995 981.851 94.3151C981.062 93.7308 980.631 92.9817 980.562 92.0677H976.993C977.038 93.9436 977.787 95.4149 979.241 96.4786C980.694 97.5424 982.597 98.0758 984.955 98.0758C986.351 98.0758 987.61 97.854 988.731 97.4076C989.851 96.9611 990.732 96.3198 991.374 95.4868C992.015 94.6507 992.335 93.6859 992.335 92.5861C992.335 91.3516 992.027 90.3717 991.409 89.6525C990.792 88.9334 989.968 88.406 988.937 88.0733L988.934 88.0674Z" fill="white"/>
<path d="M999.812 94.6045C999.147 94.6045 998.679 94.4606 998.403 94.176C998.128 93.8913 997.993 93.4029 997.993 92.7167V83.5533H1002.25V80.293H997.993V75.3877H994.286V93.0942C994.286 94.7183 994.664 95.92 995.419 96.6961C996.174 97.4722 997.385 97.8617 999.057 97.8617H1002.63V94.6015H999.812V94.6045Z" fill="white"/>
</g>
<g opacity="0.05" clip-path="url(#clip8_2043_1985)">
<path d="M16.2262 116.22C7.33852 115.8 0 122.881 0 131.676V146.8C0 147.459 0.53638 147.995 1.19562 147.995H4.85738C5.37279 147.995 5.83126 147.666 5.99307 147.174L10.1762 134.526L4.70756 130.552C3.73069 129.842 4.2341 128.296 5.44171 128.296H12.2019L14.2905 121.868C14.665 120.721 16.2892 120.721 16.6637 121.868L18.7523 128.296H25.5125C26.7201 128.296 27.2235 129.842 26.2467 130.552L20.778 134.526L22.8666 140.953C23.2411 142.101 21.9256 143.057 20.9488 142.347L15.4831 138.373L12.6664 146.892C14.1347 147.165 19.064 147.872 24.0232 144.579C24.0322 144.579 24.0382 144.573 24.0442 144.564C28.4042 141.666 31.2059 136.62 30.9422 130.939C30.5677 123.022 24.1491 116.594 16.2262 116.22Z" fill="white"/>
<path d="M54.9511 124.439C53.6925 123.72 52.2632 123.357 50.66 123.357C48.2568 123.357 46.348 124.295 44.9277 126.171L44.4812 123.564H41.2539V147.998H44.9606V138.664C45.533 139.488 46.3001 140.138 47.259 140.62C48.2209 141.1 49.3505 141.34 50.657 141.34C52.2572 141.34 53.6895 140.968 54.9481 140.225C56.2066 139.482 57.1895 138.43 57.8997 137.067C58.6098 135.706 58.9634 134.133 58.9634 132.347C58.9634 130.561 58.6098 128.922 57.8997 127.559C57.1895 126.198 56.2066 125.155 54.9481 124.436L54.9511 124.439ZM53.7674 136.569C52.8175 137.666 51.577 138.217 50.0427 138.217C48.5085 138.217 47.2739 137.669 46.336 136.569C45.3981 135.472 44.9277 134.04 44.9277 132.281C44.9277 130.522 45.3981 129.177 46.336 128.113C47.2739 127.049 48.5085 126.516 50.0427 126.516C51.577 126.516 52.8175 127.052 53.7674 128.128C54.7173 129.204 55.1908 130.609 55.1908 132.35C55.1908 134.091 54.7173 135.472 53.7674 136.572V136.569Z" fill="white"/>
<path d="M75.6095 136.671V129.74C75.6095 127.681 74.9682 126.102 73.6887 125.006C72.4092 123.909 70.5873 123.357 68.232 123.357C66.0116 123.357 64.2167 123.843 62.8443 124.817C61.4719 125.791 60.6928 127.157 60.51 128.919H64.1478C64.2856 128.14 64.7021 127.517 65.4003 127.049C66.0985 126.582 66.9855 126.345 68.0582 126.345C69.2718 126.345 70.2187 126.627 70.9079 127.187C71.5942 127.747 71.9388 128.52 71.9388 129.503V130.567H67.5129C65.0647 130.567 63.2009 131.053 61.9183 132.026C60.6358 133 59.9976 134.388 59.9976 136.198C59.9976 137.798 60.5939 139.056 61.7835 139.973C62.9731 140.887 64.5523 141.346 66.518 141.346C69.0561 141.346 70.9918 140.339 72.3163 138.325C72.3163 139.239 72.568 139.937 73.0714 140.42C73.5749 140.899 74.3989 141.139 75.5436 141.139H77.5003V137.912H76.7812C76.0021 137.912 75.6155 137.501 75.6155 136.677L75.6095 136.671ZM71.9388 133.926C71.9148 135.299 71.4743 136.398 70.6173 137.219C69.7603 138.043 68.5647 138.454 67.0304 138.454C66.0236 138.454 65.2295 138.226 64.6452 137.768C64.0609 137.309 63.7702 136.704 63.7702 135.949C63.7702 135.08 64.0788 134.421 64.6961 133.977C65.3134 133.531 66.1944 133.309 67.3391 133.309H71.9388V133.926Z" fill="white"/>
<path d="M85.1229 124.266C84.3228 124.736 83.6695 125.38 83.1661 126.204L82.7556 123.562H79.4624V141.133H83.1691V132.314C83.1691 130.78 83.5137 129.519 84.1999 128.524C84.8861 127.529 85.9949 127.032 87.5291 127.032H89.1772V123.565H88.3531C87.0047 123.565 85.9289 123.798 85.1259 124.269L85.1229 124.266Z" fill="white"/>
<path d="M95.1172 137.444C94.8416 137.159 94.7067 136.67 94.7067 135.984V126.821H98.9618V123.561H94.7067V118.655H91V136.362C91 137.986 91.3776 139.188 92.1327 139.964C92.8878 140.74 94.0984 141.129 95.7705 141.129H99.3394V137.869H96.5256C95.8604 137.869 95.3929 137.725 95.1172 137.441V137.444Z" fill="white"/>
<path d="M113.006 132.278C113.006 134.064 112.61 135.458 111.822 136.465C111.034 137.471 109.94 137.975 108.544 137.975C107.148 137.975 106.177 137.552 105.491 136.704C104.804 135.859 104.46 134.601 104.46 132.929V123.562H100.72V133.306C100.72 136.075 101.367 138.083 102.659 139.329C103.953 140.576 105.64 141.199 107.72 141.199C108.979 141.199 110.024 140.959 110.86 140.48C111.696 140.001 112.422 139.323 113.039 138.454V140.822C113.039 142.218 112.655 143.294 111.888 144.049C111.121 144.804 110.051 145.182 108.679 145.182C106.324 145.182 104.915 144.208 104.457 142.266H100.681C100.84 144.187 101.601 145.658 102.965 146.677C104.325 147.696 106.129 148.205 108.37 148.205C111.184 148.205 113.279 147.537 114.651 146.197C116.023 144.858 116.71 143.069 116.71 140.828V123.562H113.003V132.278H113.006Z" fill="white"/>
<path d="M127.152 137.154L122.313 123.562H118.333L124.818 141.133H129.349L135.833 123.562H131.923L127.152 137.154Z" fill="white"/>
<path d="M148.924 124.387C147.63 123.701 146.138 123.356 144.445 123.356C142.752 123.356 141.292 123.728 140.001 124.471C138.706 125.214 137.702 126.266 136.98 127.63C136.261 128.99 135.898 130.575 135.898 132.382C135.898 134.189 136.27 135.732 137.013 137.084C137.756 138.432 138.808 139.481 140.171 140.224C141.532 140.967 143.129 141.339 144.96 141.339C147.064 141.339 148.819 140.766 150.228 139.622C151.633 138.477 152.499 137.015 152.817 135.229H149.11C148.858 136.212 148.343 136.973 147.567 137.509C146.791 138.045 145.829 138.315 144.684 138.315C143.243 138.315 142.086 137.869 141.217 136.976C140.348 136.083 139.869 134.872 139.776 133.338V133.131H153.021C153.09 132.652 153.123 132.181 153.123 131.723C153.102 130.03 152.718 128.555 151.972 127.297C151.226 126.038 150.21 125.067 148.918 124.381L148.924 124.387ZM139.917 130.428C140.055 129.194 140.564 128.205 141.445 127.459C142.326 126.716 143.372 126.344 144.585 126.344C145.889 126.344 146.971 126.704 147.828 127.426C148.685 128.145 149.194 129.149 149.356 130.428H139.92H139.917Z" fill="white"/>
<path d="M166.101 131.335C165.071 131.002 163.803 130.757 162.293 130.598C161.172 130.46 160.36 130.34 159.857 130.238C159.353 130.136 158.937 129.954 158.604 129.69C158.271 129.426 158.107 129.034 158.107 128.506C158.107 127.796 158.439 127.236 159.101 126.825C159.767 126.415 160.636 126.208 161.708 126.208C162.781 126.208 163.677 126.466 164.384 126.981C165.095 127.496 165.493 128.153 165.586 128.953H169.188C169.074 127.17 168.325 125.785 166.94 124.799C165.556 123.817 163.755 123.325 161.535 123.325C160.186 123.325 158.979 123.553 157.915 124.011C156.851 124.47 156.015 125.114 155.41 125.95C154.804 126.786 154.499 127.739 154.499 128.815C154.499 129.96 154.801 130.867 155.41 131.542C156.015 132.216 156.815 132.707 157.813 133.016C158.808 133.325 160.072 133.57 161.607 133.753C162.727 133.891 163.557 134.023 164.094 134.149C164.633 134.275 165.062 134.487 165.382 134.784C165.703 135.081 165.862 135.527 165.862 136.123C165.862 136.834 165.514 137.4 164.816 137.822C164.118 138.245 163.21 138.458 162.089 138.458C160.83 138.458 159.806 138.167 159.018 137.583C158.229 136.998 157.798 136.249 157.729 135.335H154.16C154.205 137.211 154.954 138.682 156.408 139.746C157.861 140.81 159.764 141.343 162.122 141.343C163.518 141.343 164.777 141.122 165.898 140.675C167.018 140.229 167.899 139.587 168.541 138.754C169.182 137.918 169.502 136.953 169.502 135.854C169.502 134.619 169.194 133.639 168.576 132.92C167.959 132.201 167.135 131.674 166.104 131.341L166.101 131.335Z" fill="white"/>
<path d="M176.979 137.872C176.314 137.872 175.846 137.728 175.57 137.444C175.295 137.159 175.16 136.67 175.16 135.984V126.821H179.415V123.561H175.16V118.655H171.453V136.362C171.453 137.986 171.831 139.188 172.586 139.964C173.341 140.74 174.552 141.129 176.224 141.129H179.792V137.869H176.979V137.872Z" fill="white"/>
</g>
<g opacity="0.05" clip-path="url(#clip9_2043_1985)">
<path d="M174.385 33.9093C165.498 33.4898 158.159 40.5706 158.159 49.3655V64.489C158.159 65.1482 158.696 65.6846 159.355 65.6846H163.017C163.532 65.6846 163.99 65.355 164.152 64.8635L168.335 52.2152L162.867 48.2418C161.89 47.5316 162.393 45.9854 163.601 45.9854H170.361L172.45 39.5578C172.824 38.4101 174.448 38.4101 174.823 39.5578L176.911 45.9854H183.672C184.879 45.9854 185.383 47.5316 184.406 48.2418L178.937 52.2152L181.026 58.6427C181.4 59.7904 180.085 60.7463 179.108 60.0361L173.642 56.0627L170.826 64.5819C172.294 64.8545 177.223 65.5617 182.182 62.2685C182.191 62.2685 182.197 62.2625 182.203 62.2536C186.563 59.3559 189.365 54.3097 189.101 48.6283C188.727 40.7115 182.308 34.2839 174.385 33.9093Z" fill="white"/>
<path d="M213.11 42.1286C211.852 41.4095 210.422 41.0469 208.819 41.0469C206.416 41.0469 204.507 41.9848 203.087 43.8606L202.64 41.2536H199.413V65.6874H203.12V56.3532C203.692 57.1772 204.459 57.8275 205.418 58.3099C206.38 58.7894 207.51 59.0291 208.816 59.0291C210.416 59.0291 211.849 58.6575 213.107 57.9144C214.366 57.1712 215.349 56.1194 216.059 54.756C216.769 53.3956 217.123 51.8224 217.123 50.0365C217.123 48.2505 216.769 46.6114 216.059 45.248C215.349 43.8876 214.366 42.8448 213.107 42.1256L213.11 42.1286ZM211.927 54.2586C210.977 55.3553 209.736 55.9067 208.202 55.9067C206.668 55.9067 205.433 55.3583 204.495 54.2586C203.557 53.1619 203.087 51.7295 203.087 49.9706C203.087 48.2116 203.557 46.8661 204.495 45.8024C205.433 44.7386 206.668 44.2052 208.202 44.2052C209.736 44.2052 210.977 44.7416 211.927 45.8174C212.877 46.8931 213.35 48.2985 213.35 50.0395C213.35 51.7805 212.877 53.1619 211.927 54.2616V54.2586Z" fill="white"/>
<path d="M233.769 54.3605V47.4295C233.769 45.3709 233.127 43.7917 231.848 42.695C230.568 41.5982 228.746 41.0469 226.391 41.0469C224.171 41.0469 222.376 41.5323 221.003 42.5062C219.631 43.4801 218.852 44.8465 218.669 46.6084H222.307C222.445 45.8293 222.861 45.2061 223.559 44.7386C224.258 44.2711 225.145 44.0344 226.217 44.0344C227.431 44.0344 228.378 44.3161 229.067 44.8764C229.753 45.4368 230.098 46.2099 230.098 47.1928V48.2565H225.672C223.224 48.2565 221.36 48.742 220.078 49.7159C218.795 50.6897 218.157 52.0771 218.157 53.887C218.157 55.4872 218.753 56.7457 219.943 57.6627C221.132 58.5766 222.711 59.0351 224.677 59.0351C227.215 59.0351 229.151 58.0282 230.475 56.0146C230.475 56.9285 230.727 57.6267 231.231 58.1091C231.734 58.5886 232.558 58.8283 233.703 58.8283H235.66V55.601H234.94C234.161 55.601 233.775 55.1905 233.775 54.3665L233.769 54.3605ZM230.098 51.6157C230.074 52.9881 229.633 54.0878 228.776 54.9088C227.919 55.7329 226.724 56.1434 225.19 56.1434C224.183 56.1434 223.389 55.9157 222.804 55.4572C222.22 54.9987 221.929 54.3934 221.929 53.6383C221.929 52.7693 222.238 52.1101 222.855 51.6666C223.473 51.2201 224.354 50.9984 225.498 50.9984H230.098V51.6157Z" fill="white"/>
<path d="M243.282 41.9552C242.482 42.4256 241.829 43.0699 241.325 43.8939L240.915 41.251H237.622V58.8227H241.328V50.0039C241.328 48.4696 241.673 47.2081 242.359 46.2132C243.045 45.2184 244.154 44.721 245.688 44.721H247.336V41.254H246.512C245.164 41.254 244.088 41.4877 243.285 41.9582L243.282 41.9552Z" fill="white"/>
<path d="M253.276 55.133C253.001 54.8483 252.866 54.3599 252.866 53.6737V44.5103H257.121V41.2501H252.866V36.3447H249.159V54.0513C249.159 55.6754 249.537 56.877 250.292 57.6531C251.047 58.4292 252.258 58.8187 253.93 58.8187H257.499V55.5585H254.685C254.02 55.5585 253.552 55.4147 253.276 55.13V55.133Z" fill="white"/>
<path d="M271.165 49.9679C271.165 51.7538 270.77 53.1472 269.981 54.1541C269.193 55.1609 268.1 55.6643 266.703 55.6643C265.307 55.6643 264.336 55.2418 263.65 54.3938C262.964 53.5488 262.619 52.2902 262.619 50.6181V41.251H258.879V50.9957C258.879 53.7645 259.527 55.7722 260.818 57.0187C262.113 58.2653 263.8 58.8886 265.879 58.8886C267.138 58.8886 268.184 58.6489 269.02 58.1694C269.856 57.69 270.581 57.0128 271.198 56.1438V58.511C271.198 59.9074 270.814 60.9832 270.047 61.7383C269.28 62.4934 268.21 62.871 266.838 62.871C264.483 62.871 263.074 61.8971 262.616 59.9554H258.84C258.999 61.8761 259.76 63.3474 261.124 64.3662C262.484 65.3851 264.288 65.8945 266.529 65.8945C269.343 65.8945 271.438 65.2263 272.81 63.8868C274.183 62.5474 274.869 60.7584 274.869 58.517V41.251H271.162V49.9679H271.165Z" fill="white"/>
<path d="M285.311 54.8433L280.472 41.251H276.493L282.977 58.8227H287.508L293.992 41.251H290.082L285.311 54.8433Z" fill="white"/>
<path d="M307.084 42.0767C305.789 41.3905 304.297 41.0459 302.604 41.0459C300.911 41.0459 299.451 41.4175 298.16 42.1606C296.865 42.9038 295.862 43.9555 295.139 45.319C294.42 46.6794 294.058 48.2646 294.058 50.0715C294.058 51.8784 294.429 53.4216 295.172 54.773C295.915 56.1215 296.967 57.1703 298.331 57.9134C299.691 58.6565 301.288 59.0281 303.119 59.0281C305.223 59.0281 306.979 58.4558 308.387 57.3111C309.792 56.1664 310.658 54.7041 310.976 52.9182H307.269C307.018 53.901 306.502 54.6622 305.726 55.1985C304.95 55.7349 303.988 56.0046 302.843 56.0046C301.402 56.0046 300.245 55.5581 299.376 54.6652C298.507 53.7722 298.028 52.5616 297.935 51.0274V50.8206H311.18C311.249 50.3412 311.282 49.8707 311.282 49.4122C311.261 47.7192 310.877 46.2449 310.131 44.9863C309.385 43.7278 308.369 42.7569 307.078 42.0707L307.084 42.0767ZM298.076 48.1177C298.214 46.8831 298.723 45.8943 299.604 45.1482C300.485 44.405 301.531 44.0334 302.745 44.0334C304.048 44.0334 305.13 44.393 305.987 45.1152C306.844 45.8344 307.353 46.8382 307.515 48.1177H298.079H298.076Z" fill="white"/>
<path d="M324.261 49.0244C323.23 48.6918 321.962 48.4461 320.452 48.2872C319.331 48.1494 318.519 48.0295 318.016 47.9277C317.512 47.8258 317.096 47.643 316.763 47.3793C316.431 47.1156 316.266 46.723 316.266 46.1957C316.266 45.4855 316.598 44.9251 317.261 44.5146C317.926 44.1041 318.795 43.8973 319.868 43.8973C320.94 43.8973 321.836 44.155 322.544 44.6704C323.254 45.1858 323.652 45.8421 323.745 46.6421H327.347C327.233 44.8592 326.484 43.4748 325.1 42.4889C323.715 41.5061 321.914 41.0146 319.694 41.0146C318.345 41.0146 317.138 41.2424 316.074 41.7009C315.01 42.1593 314.174 42.8036 313.569 43.6396C312.964 44.4756 312.658 45.4285 312.658 46.5043C312.658 47.649 312.961 48.5569 313.569 49.2311C314.174 49.9054 314.974 50.3968 315.972 50.7054C316.967 51.0141 318.231 51.2598 319.766 51.4426C320.886 51.5804 321.716 51.7123 322.253 51.8381C322.792 51.964 323.221 52.1767 323.541 52.4734C323.862 52.7701 324.021 53.2165 324.021 53.8129C324.021 54.523 323.673 55.0894 322.975 55.5119C322.277 55.9344 321.369 56.1472 320.248 56.1472C318.99 56.1472 317.965 55.8565 317.177 55.2722C316.389 54.6878 315.957 53.9387 315.888 53.0248H312.319C312.364 54.9006 313.113 56.3719 314.567 57.4357C316.02 58.4994 317.923 59.0328 320.281 59.0328C321.678 59.0328 322.936 58.8111 324.057 58.3646C325.177 57.9181 326.058 57.2768 326.7 56.4438C327.341 55.6078 327.662 54.6429 327.662 53.5432C327.662 52.3086 327.353 51.3287 326.736 50.6096C326.118 49.8904 325.294 49.363 324.264 49.0304L324.261 49.0244Z" fill="white"/>
<path d="M335.138 55.5615C334.473 55.5615 334.005 55.4177 333.73 55.133C333.454 54.8483 333.319 54.3599 333.319 53.6737V44.5103H337.574V41.2501H333.319V36.3447H329.612V54.0513C329.612 55.6754 329.99 56.877 330.745 57.6531C331.5 58.4292 332.711 58.8187 334.383 58.8187H337.952V55.5585H335.138V55.5615Z" fill="white"/>
</g>
<g opacity="0.05" clip-path="url(#clip10_2043_1985)">
<path d="M377.319 -28.5731C368.431 -28.9926 361.093 -21.9118 361.093 -13.117V2.00655C361.093 2.66578 361.629 3.20216 362.288 3.20216H365.95C366.466 3.20216 366.924 2.87255 367.086 2.38111L371.269 -10.2673L365.8 -14.2407C364.823 -14.9508 365.327 -16.4971 366.534 -16.4971H373.295L375.383 -22.9246C375.758 -24.0723 377.382 -24.0723 377.757 -22.9246L379.845 -16.4971H386.605C387.813 -16.4971 388.316 -14.9508 387.339 -14.2407L381.871 -10.2673L383.959 -3.83969C384.334 -2.69202 383.018 -1.73613 382.042 -2.4463L376.576 -6.41971L373.759 2.09944C375.227 2.37212 380.157 3.07931 385.116 -0.213886C385.125 -0.213886 385.131 -0.219877 385.137 -0.228867C389.497 -3.12652 392.299 -8.17268 392.035 -13.8541C391.66 -21.771 385.242 -28.1985 377.319 -28.5731Z" fill="white"/>
<path d="M416.044 -20.3538C414.785 -21.073 413.356 -21.4355 411.753 -21.4355C409.35 -21.4355 407.441 -20.4976 406.02 -18.6218L405.574 -21.2288H402.347V3.20496H406.053V-6.12924C406.626 -5.3052 407.393 -4.65495 408.352 -4.17251C409.314 -3.69306 410.443 -3.45334 411.75 -3.45334C413.35 -3.45334 414.782 -3.82491 416.041 -4.56805C417.299 -5.31119 418.282 -6.36297 418.992 -7.7264C419.703 -9.08682 420.056 -10.66 420.056 -12.4459C420.056 -14.2319 419.703 -15.871 418.992 -17.2344C418.282 -18.5948 417.299 -19.6376 416.041 -20.3568L416.044 -20.3538ZM414.86 -8.22382C413.91 -7.12709 412.67 -6.57573 411.136 -6.57573C409.601 -6.57573 408.367 -7.12409 407.429 -8.22382C406.491 -9.32055 406.02 -10.7529 406.02 -12.5119C406.02 -14.2708 406.491 -15.6163 407.429 -16.68C408.367 -17.7438 409.601 -18.2772 411.136 -18.2772C412.67 -18.2772 413.91 -17.7408 414.86 -16.6651C415.81 -15.5893 416.284 -14.1839 416.284 -12.4429C416.284 -10.702 415.81 -9.32055 414.86 -8.22082V-8.22382Z" fill="white"/>
<path d="M474.099 -12.5145C474.099 -10.7286 473.703 -9.3352 472.915 -8.32836C472.127 -7.32153 471.033 -6.81811 469.637 -6.81811C468.24 -6.81811 467.27 -7.24062 466.583 -8.08864C465.897 -8.93366 465.553 -10.1922 465.553 -11.8643V-21.2314H461.813V-11.4867C461.813 -8.71791 462.46 -6.71023 463.752 -5.46368C465.046 -4.21712 466.733 -3.59384 468.813 -3.59384C470.071 -3.59384 471.117 -3.83356 471.953 -4.31301C472.789 -4.79245 473.514 -5.46967 474.132 -6.33866V-3.9714C474.132 -2.57501 473.748 -1.49926 472.981 -0.744133C472.214 0.010994 471.144 0.388557 469.772 0.388557C467.416 0.388557 466.008 -0.585316 465.55 -2.52707H461.774C461.933 -0.606291 462.694 0.865005 464.057 1.88383C465.418 2.90265 467.222 3.41206 469.463 3.41206C472.277 3.41206 474.371 2.74383 475.744 1.40438C477.116 0.0649319 477.802 -1.724 477.802 -3.96541V-21.2314H474.096V-12.5145H474.099Z" fill="white"/>
</g>
<g opacity="0.05" clip-path="url(#clip11_2043_1985)">
<path d="M278.319 151.427C269.431 151.007 262.093 158.088 262.093 166.883V182.007C262.093 182.666 262.629 183.202 263.288 183.202H266.95C267.466 183.202 267.924 182.873 268.086 182.381L272.269 169.733L266.8 165.759C265.823 165.049 266.327 163.503 267.534 163.503H274.295L276.383 157.075C276.758 155.928 278.382 155.928 278.757 157.075L280.845 163.503H287.605C288.813 163.503 289.316 165.049 288.339 165.759L282.871 169.733L284.959 176.16C285.334 177.308 284.018 178.264 283.042 177.554L277.576 173.58L274.759 182.099C276.227 182.372 281.157 183.079 286.116 179.786C286.125 179.786 286.131 179.78 286.137 179.771C290.497 176.873 293.299 171.827 293.035 166.146C292.66 158.229 286.242 151.801 278.319 151.427Z" fill="white"/>
<path d="M317.044 159.646C315.785 158.927 314.356 158.564 312.753 158.564C310.35 158.564 308.441 159.502 307.02 161.378L306.574 158.771H303.347V183.205H307.053V173.871C307.626 174.695 308.393 175.345 309.352 175.827C310.314 176.307 311.443 176.547 312.75 176.547C314.35 176.547 315.782 176.175 317.041 175.432C318.299 174.689 319.282 173.637 319.992 172.274C320.703 170.913 321.056 169.34 321.056 167.554C321.056 165.768 320.703 164.129 319.992 162.766C319.282 161.405 318.299 160.362 317.041 159.643L317.044 159.646ZM315.86 171.776C314.91 172.873 313.67 173.424 312.136 173.424C310.601 173.424 309.367 172.876 308.429 171.776C307.491 170.679 307.02 169.247 307.02 167.488C307.02 165.729 307.491 164.384 308.429 163.32C309.367 162.256 310.601 161.723 312.136 161.723C313.67 161.723 314.91 162.259 315.86 163.335C316.81 164.411 317.284 165.816 317.284 167.557C317.284 169.298 316.81 170.679 315.86 171.779V171.776Z" fill="white"/>
<path d="M337.702 171.878V164.947C337.702 162.888 337.061 161.309 335.782 160.213C334.502 159.116 332.68 158.564 330.325 158.564C328.104 158.564 326.309 159.05 324.937 160.024C323.565 160.998 322.786 162.364 322.603 164.126H326.241C326.378 163.347 326.795 162.724 327.493 162.256C328.191 161.789 329.078 161.552 330.151 161.552C331.365 161.552 332.312 161.834 333.001 162.394C333.687 162.954 334.032 163.727 334.032 164.71V165.774H329.606C327.157 165.774 325.294 166.26 324.011 167.233C322.729 168.207 322.09 169.595 322.09 171.405C322.09 173.005 322.687 174.263 323.876 175.18C325.066 176.094 326.645 176.553 328.611 176.553C331.149 176.553 333.085 175.546 334.409 173.532C334.409 174.446 334.661 175.144 335.164 175.627C335.668 176.106 336.492 176.346 337.636 176.346H339.593V173.119H338.874C338.095 173.119 337.708 172.708 337.708 171.884L337.702 171.878ZM334.032 169.133C334.008 170.506 333.567 171.605 332.71 172.426C331.853 173.25 330.657 173.661 329.123 173.661C328.116 173.661 327.322 173.433 326.738 172.975C326.154 172.516 325.863 171.911 325.863 171.156C325.863 170.287 326.172 169.628 326.789 169.184C327.406 168.738 328.287 168.516 329.432 168.516H334.032V169.133Z" fill="white"/>
<path d="M347.216 159.473C346.416 159.943 345.762 160.587 345.259 161.411L344.848 158.769H341.555V176.34H345.262V167.521C345.262 165.987 345.606 164.726 346.293 163.731C346.979 162.736 348.088 162.239 349.622 162.239H351.27V158.772H350.446C349.097 158.772 348.022 159.005 347.219 159.476L347.216 159.473Z" fill="white"/>
<path d="M357.21 172.651C356.934 172.366 356.799 171.877 356.799 171.191V162.028H361.055V158.768H356.799V153.862H353.093V171.569C353.093 173.193 353.47 174.395 354.225 175.171C354.981 175.947 356.191 176.336 357.863 176.336H361.432V173.076H358.618C357.953 173.076 357.486 172.932 357.21 172.648V172.651Z" fill="white"/>
<path d="M375.099 167.485C375.099 169.271 374.703 170.665 373.915 171.672C373.127 172.678 372.033 173.182 370.637 173.182C369.24 173.182 368.27 172.759 367.583 171.911C366.897 171.066 366.553 169.808 366.553 168.136V158.769H362.813V168.513C362.813 171.282 363.46 173.29 364.752 174.536C366.046 175.783 367.733 176.406 369.813 176.406C371.071 176.406 372.117 176.166 372.953 175.687C373.789 175.208 374.514 174.53 375.132 173.661V176.029C375.132 177.425 374.748 178.501 373.981 179.256C373.214 180.011 372.144 180.389 370.772 180.389C368.416 180.389 367.008 179.415 366.55 177.473H362.774C362.933 179.394 363.694 180.865 365.057 181.884C366.418 182.903 368.222 183.412 370.463 183.412C373.277 183.412 375.371 182.744 376.744 181.404C378.116 180.065 378.802 178.276 378.802 176.035V158.769H375.096V167.485H375.099Z" fill="white"/>
<path d="M389.245 172.361L384.406 158.769H380.426L386.911 176.34H391.442L397.926 158.769H394.016L389.245 172.361Z" fill="white"/>
<path d="M411.017 159.594C409.723 158.908 408.23 158.563 406.537 158.563C404.844 158.563 403.385 158.935 402.093 159.678C400.799 160.421 399.795 161.473 399.073 162.837C398.354 164.197 397.991 165.782 397.991 167.589C397.991 169.396 398.363 170.939 399.106 172.291C399.849 173.639 400.901 174.688 402.264 175.431C403.625 176.174 405.222 176.546 407.053 176.546C409.156 176.546 410.912 175.973 412.321 174.829C413.726 173.684 414.592 172.222 414.91 170.436H411.203C410.951 171.419 410.436 172.18 409.66 172.716C408.884 173.252 407.922 173.522 406.777 173.522C405.336 173.522 404.179 173.076 403.31 172.183C402.441 171.29 401.962 170.079 401.869 168.545V168.338H415.113C415.182 167.859 415.215 167.388 415.215 166.93C415.194 165.237 414.811 163.762 414.065 162.504C413.318 161.245 412.303 160.274 411.011 159.588L411.017 159.594ZM402.01 165.635C402.147 164.401 402.657 163.412 403.538 162.666C404.419 161.923 405.465 161.551 406.678 161.551C407.982 161.551 409.063 161.911 409.92 162.633C410.777 163.352 411.287 164.356 411.449 165.635H402.013H402.01Z" fill="white"/>
<path d="M428.194 166.542C427.163 166.209 425.896 165.964 424.386 165.805C423.265 165.667 422.453 165.547 421.949 165.445C421.446 165.343 421.029 165.161 420.697 164.897C420.364 164.633 420.199 164.241 420.199 163.713C420.199 163.003 420.532 162.443 421.194 162.032C421.859 161.622 422.728 161.415 423.801 161.415C424.874 161.415 425.77 161.673 426.477 162.188C427.187 162.703 427.586 163.36 427.679 164.16H431.281C431.167 162.377 430.418 160.992 429.033 160.007C427.649 159.024 425.848 158.532 423.627 158.532C422.279 158.532 421.071 158.76 420.008 159.218C418.944 159.677 418.108 160.321 417.502 161.157C416.897 161.993 416.592 162.946 416.592 164.022C416.592 165.167 416.894 166.075 417.502 166.749C418.108 167.423 418.908 167.914 419.906 168.223C420.901 168.532 422.165 168.777 423.699 168.96C424.82 169.098 425.65 169.23 426.186 169.356C426.726 169.482 427.154 169.694 427.475 169.991C427.796 170.288 427.954 170.734 427.954 171.33C427.954 172.041 427.607 172.607 426.909 173.029C426.21 173.452 425.302 173.665 424.182 173.665C422.923 173.665 421.898 173.374 421.11 172.79C420.322 172.205 419.891 171.456 419.822 170.542H416.253C416.298 172.418 417.047 173.889 418.5 174.953C419.954 176.017 421.856 176.55 424.215 176.55C425.611 176.55 426.87 176.329 427.99 175.882C429.111 175.436 429.992 174.794 430.633 173.961C431.275 173.125 431.595 172.16 431.595 171.061C431.595 169.826 431.287 168.846 430.669 168.127C430.052 167.408 429.228 166.881 428.197 166.548L428.194 166.542Z" fill="white"/>
<path d="M439.072 173.079C438.406 173.079 437.939 172.935 437.663 172.651C437.387 172.366 437.253 171.877 437.253 171.191V162.028H441.508V158.768H437.253V153.862H433.546V171.569C433.546 173.193 433.923 174.395 434.679 175.171C435.434 175.947 436.644 176.336 438.316 176.336H441.885V173.076H439.072V173.079Z" fill="white"/>
</g>
<g opacity="0.05" clip-path="url(#clip12_2043_1985)">
<path d="M638.319 74.0285C629.431 73.609 622.093 80.6898 622.093 89.4846V104.608C622.093 105.267 622.629 105.804 623.288 105.804H626.95C627.466 105.804 627.924 105.474 628.086 104.983L632.269 92.3343L626.8 88.3609C625.823 87.6507 626.327 86.1045 627.534 86.1045H634.295L636.383 79.6769C636.758 78.5293 638.382 78.5293 638.757 79.6769L640.845 86.1045H647.605C648.813 86.1045 649.316 87.6507 648.339 88.3609L642.871 92.3343L644.959 98.7619C645.334 99.9095 644.018 100.865 643.042 100.155L637.576 96.1819L634.759 104.701C636.227 104.974 641.157 105.681 646.116 102.388C646.125 102.388 646.131 102.382 646.137 102.373C650.497 99.475 653.299 94.4289 653.035 88.7474C652.66 80.8306 646.242 74.403 638.319 74.0285Z" fill="white"/>
<path d="M677.044 82.2478C675.785 81.5286 674.356 81.166 672.753 81.166C670.35 81.166 668.441 82.1039 667.02 83.9798L666.574 81.3728H663.347V105.807H667.053V96.4723C667.626 97.2964 668.393 97.9466 669.352 98.4291C670.314 98.9085 671.443 99.1482 672.75 99.1482C674.35 99.1482 675.782 98.7767 677.041 98.0335C678.299 97.2904 679.282 96.2386 679.992 94.8752C680.703 93.5147 681.056 91.9416 681.056 90.1556C681.056 88.3697 680.703 86.7306 679.992 85.3672C679.282 84.0067 678.299 82.9639 677.041 82.2448L677.044 82.2478ZM675.86 94.3777C674.91 95.4745 673.67 96.0258 672.136 96.0258C670.601 96.0258 669.367 95.4775 668.429 94.3777C667.491 93.281 667.02 91.8487 667.02 90.0897C667.02 88.3307 667.491 86.9853 668.429 85.9215C669.367 84.8577 670.601 84.3244 672.136 84.3244C673.67 84.3244 674.91 84.8607 675.86 85.9365C676.81 87.0123 677.284 88.4176 677.284 90.1586C677.284 91.8996 676.81 93.281 675.86 94.3807V94.3777Z" fill="white"/>
<path d="M697.702 94.4796V87.5486C697.702 85.49 697.061 83.9108 695.782 82.8141C694.502 81.7174 692.68 81.166 690.325 81.166C688.104 81.166 686.309 81.6515 684.937 82.6253C683.565 83.5992 682.786 84.9656 682.603 86.7276H686.241C686.378 85.9485 686.795 85.3252 687.493 84.8577C688.191 84.3903 689.078 84.1536 690.151 84.1536C691.365 84.1536 692.312 84.4352 693.001 84.9956C693.687 85.5559 694.032 86.329 694.032 87.3119V88.3757H689.606C687.157 88.3757 685.294 88.8611 684.011 89.835C682.729 90.8089 682.09 92.1963 682.09 94.0062C682.09 95.6063 682.687 96.8649 683.876 97.7818C685.066 98.6957 686.645 99.1542 688.611 99.1542C691.149 99.1542 693.085 98.1474 694.409 96.1337C694.409 97.0477 694.661 97.7458 695.164 98.2283C695.668 98.7077 696.492 98.9475 697.636 98.9475H699.593V95.7202H698.874C698.095 95.7202 697.708 95.3097 697.708 94.4856L697.702 94.4796ZM694.032 91.7348C694.008 93.1072 693.567 94.2069 692.71 95.028C691.853 95.852 690.657 96.2626 689.123 96.2626C688.116 96.2626 687.322 96.0348 686.738 95.5764C686.154 95.1179 685.863 94.5126 685.863 93.7575C685.863 92.8885 686.172 92.2292 686.789 91.7857C687.406 91.3393 688.287 91.1175 689.432 91.1175H694.032V91.7348Z" fill="white"/>
<path d="M707.216 82.0743C706.416 82.5448 705.762 83.189 705.259 84.0131L704.848 81.3701H701.555V98.9418H705.262V90.123C705.262 88.5888 705.606 87.3272 706.293 86.3324C706.979 85.3375 708.088 84.8401 709.622 84.8401H711.27V81.3731H710.446C709.097 81.3731 708.022 81.6068 707.219 82.0773L707.216 82.0743Z" fill="white"/>
<path d="M717.21 95.2521C716.934 94.9675 716.799 94.479 716.799 93.7928V84.6294H721.055V81.3692H716.799V76.4639H713.093V94.1704C713.093 95.7945 713.47 96.9961 714.225 97.7722C714.981 98.5483 716.191 98.9379 717.863 98.9379H721.432V95.6777H718.618C717.953 95.6777 717.486 95.5338 717.21 95.2491V95.2521Z" fill="white"/>
<path d="M735.099 90.087C735.099 91.873 734.703 93.2664 733.915 94.2732C733.127 95.28 732.033 95.7835 730.637 95.7835C729.24 95.7835 728.27 95.3609 727.583 94.5129C726.897 93.6679 726.553 92.4094 726.553 90.7373V81.3701H722.813V91.1149C722.813 93.8836 723.46 95.8913 724.752 97.1379C726.046 98.3844 727.733 99.0077 729.813 99.0077C731.071 99.0077 732.117 98.768 732.953 98.2886C733.789 97.8091 734.514 97.1319 735.132 96.2629V98.6302C735.132 100.027 734.748 101.102 733.981 101.857C733.214 102.613 732.144 102.99 730.772 102.99C728.416 102.99 727.008 102.016 726.55 100.074H722.774C722.933 101.995 723.694 103.467 725.057 104.485C726.418 105.504 728.222 106.014 730.463 106.014C733.277 106.014 735.371 105.345 736.744 104.006C738.116 102.666 738.802 100.878 738.802 98.6362V81.3701H735.096V90.087H735.099Z" fill="white"/>
<path d="M749.245 94.9624L744.406 81.3701H740.426L746.911 98.9418H751.442L757.926 81.3701H754.016L749.245 94.9624Z" fill="white"/>
<path d="M771.017 82.1958C769.723 81.5096 768.23 81.165 766.537 81.165C764.844 81.165 763.385 81.5366 762.093 82.2797C760.799 83.0229 759.795 84.0747 759.073 85.4381C758.354 86.7985 757.991 88.3837 757.991 90.1906C757.991 91.9975 758.363 93.5407 759.106 94.8922C759.849 96.2406 760.901 97.2894 762.264 98.0325C763.625 98.7757 765.222 99.1472 767.053 99.1472C769.156 99.1472 770.912 98.5749 772.321 97.4302C773.726 96.2856 774.592 94.8232 774.91 93.0373H771.203C770.951 94.0202 770.436 94.7813 769.66 95.3177C768.884 95.8541 767.922 96.1237 766.777 96.1237C765.336 96.1237 764.179 95.6773 763.31 94.7843C762.441 93.8913 761.962 92.6807 761.869 91.1465V90.9397H775.113C775.182 90.4603 775.215 89.9898 775.215 89.5314C775.194 87.8383 774.811 86.364 774.065 85.1055C773.318 83.8469 772.303 82.8761 771.011 82.1899L771.017 82.1958ZM762.01 88.2369C762.147 87.0023 762.657 86.0134 763.538 85.2673C764.419 84.5242 765.465 84.1526 766.678 84.1526C767.982 84.1526 769.063 84.5122 769.92 85.2343C770.777 85.9535 771.287 86.9573 771.449 88.2369H762.013H762.01Z" fill="white"/>
<path d="M788.194 89.1435C787.163 88.8109 785.896 88.5652 784.386 88.4064C783.265 88.2685 782.453 88.1487 781.949 88.0468C781.446 87.9449 781.029 87.7621 780.697 87.4984C780.364 87.2347 780.199 86.8422 780.199 86.3148C780.199 85.6046 780.532 85.0443 781.194 84.6337C781.859 84.2232 782.728 84.0165 783.801 84.0165C784.874 84.0165 785.77 84.2742 786.477 84.7896C787.187 85.305 787.586 85.9612 787.679 86.7613H791.281C791.167 84.9783 790.418 83.5939 789.033 82.6081C787.649 81.6252 785.848 81.1338 783.627 81.1338C782.279 81.1338 781.071 81.3615 780.008 81.82C778.944 82.2785 778.108 82.9227 777.502 83.7588C776.897 84.5948 776.592 85.5477 776.592 86.6234C776.592 87.7681 776.894 88.6761 777.502 89.3503C778.108 90.0245 778.908 90.5159 779.906 90.8246C780.901 91.1332 782.165 91.3789 783.699 91.5617C784.82 91.6996 785.65 91.8314 786.186 91.9573C786.726 92.0831 787.154 92.2959 787.475 92.5925C787.796 92.8892 787.954 93.3357 787.954 93.932C787.954 94.6422 787.607 95.2085 786.909 95.631C786.21 96.0535 785.302 96.2663 784.182 96.2663C782.923 96.2663 781.898 95.9756 781.11 95.3913C780.322 94.807 779.891 94.0578 779.822 93.1439H776.253C776.298 95.0197 777.047 96.491 778.5 97.5548C779.954 98.6186 781.856 99.152 784.215 99.152C785.611 99.152 786.87 98.9302 787.99 98.4837C789.111 98.0372 789.992 97.396 790.633 96.563C791.275 95.7269 791.595 94.762 791.595 93.6623C791.595 92.4277 791.287 91.4479 790.669 90.7287C790.052 90.0095 789.228 89.4821 788.197 89.1495L788.194 89.1435Z" fill="white"/>
<path d="M799.072 95.6806C798.406 95.6806 797.939 95.5368 797.663 95.2521C797.387 94.9675 797.253 94.479 797.253 93.7928V84.6294H801.508V81.3692H797.253V76.4639H793.546V94.1704C793.546 95.7945 793.923 96.9961 794.679 97.7722C795.434 98.5483 796.644 98.9379 798.316 98.9379H801.885V95.6777H799.072V95.6806Z" fill="white"/>
</g>
</g>
<defs>
<linearGradient id="paint0_linear_2043_1985" x1="0" y1="90" x2="1200" y2="90" gradientUnits="userSpaceOnUse">
<stop stop-color="#5869E9"/>
<stop offset="1" stop-color="#7381ED"/>
</linearGradient>
<clipPath id="clip0_2043_1985">
<rect width="1200" height="180" fill="white"/>
</clipPath>
<clipPath id="clip1_2043_1985">
<rect width="179.792" height="32" fill="white" transform="translate(405.465 73.502)"/>
</clipPath>
<clipPath id="clip2_2043_1985">
<rect width="179.792" height="32" fill="white" transform="translate(661.001 -19.8965)"/>
</clipPath>
<clipPath id="clip3_2043_1985">
<rect width="179.792" height="32" fill="white" transform="translate(-31.9805 -17.3496)"/>
</clipPath>
<clipPath id="clip4_2043_1985">
<rect width="179.792" height="32" fill="white" transform="translate(1060.53 35.4785)"/>
</clipPath>
<clipPath id="clip5_2043_1985">
<rect width="179.792" height="32" fill="white" transform="translate(828.797 159.801)"/>
</clipPath>
<clipPath id="clip6_2043_1985">
<rect width="179.792" height="32" fill="white" transform="translate(546.847 171.352)"/>
</clipPath>
<clipPath id="clip7_2043_1985">
<rect width="179.792" height="32" fill="white" transform="translate(822.833 72.9336)"/>
</clipPath>
<clipPath id="clip8_2043_1985">
<rect width="179.792" height="32" fill="white" transform="translate(0 116.201)"/>
</clipPath>
<clipPath id="clip9_2043_1985">
<rect width="179.792" height="32" fill="white" transform="translate(158.159 33.8906)"/>
</clipPath>
<clipPath id="clip10_2043_1985">
<rect width="179.792" height="32" fill="white" transform="translate(361.093 -28.5918)"/>
</clipPath>
<clipPath id="clip11_2043_1985">
<rect width="179.792" height="32" fill="white" transform="translate(262.093 151.408)"/>
</clipPath>
<clipPath id="clip12_2043_1985">
<rect width="179.792" height="32" fill="white" transform="translate(622.093 74.0098)"/>
</clipPath>
</defs>
</svg>
