<svg fill="none" xmlns="http://www.w3.org/2000/svg" viewBox="-26 -53.97 1257.45 287.97">
<rect width="1200" height="180" fill="url(#paint0_linear_863_1067)"/>
<g opacity="0.05">
<path d="M145.398 153.519C144.845 152.984 144.125 152.717 143.397 152.777C142.669 152.837 141.991 153.22 141.514 153.842L138.365 157.896C137.939 158.432 137.715 159.135 137.743 159.853C137.771 160.572 138.047 161.25 138.513 161.743C142.528 165.892 145.323 171.32 146.527 177.302C147.731 183.283 147.286 189.536 145.252 195.226L129.42 185.344C129.57 183.921 129.489 182.479 129.182 181.088C128.774 179.445 128.082 177.91 127.146 176.568C126.21 175.227 125.048 174.106 123.727 173.27C122.405 172.434 120.951 171.899 119.446 171.695C117.94 171.492 116.414 171.625 114.955 172.085C111.979 172.837 109.389 174.884 107.751 177.778C106.113 180.673 105.561 184.179 106.214 187.53C106.531 188.928 107.07 190.25 107.806 191.432L98.0055 208.76C93.6292 204.686 90.5146 199.154 89.1096 192.962C87.7046 186.77 88.0816 180.236 90.1865 174.301L90.583 173.217C90.7254 172.867 90.8001 172.486 90.8023 172.101C90.8046 171.715 90.7342 171.334 90.5959 170.981C90.4576 170.629 90.2545 170.313 90 170.055C89.7455 169.797 89.4453 169.602 89.1191 169.484L84.6579 167.718C84.0046 167.449 83.2853 167.469 82.6442 167.772C82.0031 168.075 81.4874 168.64 81.2006 169.352L80.7719 170.496C77.9312 178.443 77.3889 187.196 79.2223 195.51C81.3837 205.174 86.5854 213.629 93.8637 219.309L94.1953 219.574L98.4794 222.388C99.4052 222.752 100.417 222.729 101.329 222.323C102.241 221.917 102.992 221.155 103.446 220.176L116.503 197.024C117.808 197.088 119.113 196.92 120.372 196.527C121.668 196.169 122.904 195.572 124.027 194.76L146.411 208.662C147.131 209.089 147.965 209.203 148.755 208.982C149.545 208.76 150.234 208.219 150.692 207.461L151.404 206.162C156.725 196.765 158.525 185.383 156.414 174.498C154.738 166.401 150.893 159.079 145.398 153.519Z" fill="white"/>
<path opacity="0.4" d="M91.1626 161.058C90.5665 160.644 90.0603 160.085 89.6811 159.422C89.3019 158.759 89.0593 158.009 88.971 157.227C88.8827 156.445 88.9509 155.651 89.1708 154.902C89.3906 154.154 89.7565 153.47 90.2416 152.902C94.9048 146.643 101.326 142.36 108.445 140.762C115.4 138.429 122.852 138.818 129.584 141.866C130.249 142.11 130.856 142.518 131.362 143.061C131.868 143.603 132.26 144.267 132.508 145.002C132.756 145.737 132.854 146.526 132.796 147.309C132.737 148.093 132.523 148.852 132.169 149.53C131.549 150.702 130.589 151.598 129.45 152.066C128.312 152.535 127.064 152.547 125.919 152.102C121.125 149.811 115.765 149.503 110.788 151.231C105.669 152.302 101.064 155.41 97.8138 159.985C96.9891 161.007 95.8737 161.672 94.6598 161.868C93.4458 162.064 92.2091 161.778 91.1626 161.058Z" fill="white"/>
<path opacity="0.4" d="M127.753 227.986C123.614 229.469 119.237 229.92 114.927 229.307C114.232 229.234 113.561 228.987 112.96 228.586C112.36 228.185 111.846 227.639 111.456 226.987C111.066 226.336 110.809 225.595 110.704 224.819C110.599 224.042 110.649 223.249 110.849 222.497C111.199 221.189 111.946 220.062 112.959 219.31C113.973 218.558 115.188 218.23 116.394 218.384C119.426 218.82 122.505 218.464 125.394 217.343C128.295 216.846 131.046 215.565 133.411 213.61C134.412 212.838 135.622 212.486 136.831 212.614C138.039 212.742 139.169 213.344 140.024 214.313C140.515 214.872 140.889 215.546 141.121 216.287C141.352 217.028 141.434 217.818 141.362 218.599C141.289 219.38 141.063 220.134 140.701 220.805C140.338 221.476 139.848 222.049 139.265 222.481C135.843 225.263 131.909 227.145 127.753 227.986Z" fill="white"/>
</g>
<g opacity="0.05">
<path d="M47.2402 67.476C46.8184 66.8054 46.1774 66.3505 45.4578 66.2109C44.7382 66.0713 43.9988 66.2585 43.4017 66.7315L39.475 69.8089C38.9457 70.2127 38.5779 70.8334 38.4501 71.5383C38.3223 72.2433 38.4447 72.9765 38.7911 73.5812C41.7942 78.7002 43.3395 84.727 43.2213 90.8589C43.1031 96.9908 41.3269 102.937 38.1293 107.904L24.8931 94.0063C25.3444 92.6662 25.5761 91.2451 25.577 89.8121C25.5342 88.1073 25.1931 86.4288 24.5734 84.8724C23.9536 83.316 23.0673 81.9123 21.9651 80.7414C20.8629 79.5706 19.5664 78.6556 18.1497 78.0487C16.733 77.4419 15.2239 77.155 13.7086 77.2046C10.6596 77.1245 7.7064 78.4058 5.49476 80.7683C3.28312 83.1308 1.99294 86.3824 1.9063 89.8121C1.91255 91.2549 2.15174 92.6845 2.61222 94.0311L-10.624 108.177C-13.994 103.033 -15.8267 96.8182 -15.8584 90.4276C-15.8901 84.0371 -14.1192 77.7999 -10.8004 72.6133L-10.1828 71.6702C-9.96925 71.3688 -9.8149 71.0199 -9.72986 70.6465C-9.64482 70.2732 -9.63103 69.8838 -9.68938 69.504C-9.74773 69.1242 -9.8769 68.7626 -10.0684 68.443C-10.2599 68.1234 -10.5094 67.8531 -10.8004 67.6497L-14.7492 64.7212C-15.3255 64.2832 -16.0276 64.1063 -16.7148 64.226C-17.4021 64.3456 -18.0238 64.753 -18.4554 65.3665L-19.1172 66.3592C-23.5826 73.2977 -25.991 81.6429 -26 90.2092C-25.9809 100.174 -22.7519 109.794 -16.9112 117.285L-16.6464 117.633L-13.0947 121.529C-12.2747 122.135 -11.2882 122.388 -10.316 122.242C-9.34367 122.096 -8.45061 121.561 -7.80024 120.735L9.84801 101.824C11.1003 102.241 12.4031 102.434 13.7086 102.395C15.0438 102.4 16.3706 102.157 17.6353 101.675L36.3645 121.256C36.9712 121.867 37.7566 122.204 38.5705 122.204C39.3845 122.204 40.1699 121.867 40.7766 121.256L41.7472 120.189C48.9303 112.52 53.1254 101.966 53.4171 90.8296C53.5319 82.5172 51.3759 74.3656 47.2402 67.476Z" fill="white"/>
<path opacity="0.4" d="M-7.00641 60.0302C-7.4957 59.466 -7.86662 58.7858 -8.09203 58.0394C-8.31743 57.293 -8.39161 56.4994 -8.30913 55.7166C-8.22664 54.9338 -7.98959 54.1817 -7.61532 53.5153C-7.24105 52.8489 -6.73904 52.2851 -6.14605 51.8651C-0.275401 47.0613 6.87614 44.6537 14.1274 45.0402C21.3769 44.6696 28.5238 47.0756 34.4008 51.8651C34.9933 52.2824 35.4952 52.8439 35.8694 53.5081C36.2437 54.1724 36.4808 54.9226 36.5633 55.7035C36.6458 56.4845 36.5717 57.2763 36.3464 58.0208C36.121 58.7653 35.7502 59.4434 35.2612 60.0054C34.4073 60.9735 33.283 61.5811 32.0776 61.7258C30.8721 61.8704 29.6592 61.5433 28.6431 60.7996C24.4842 57.2721 19.35 55.5138 14.1494 55.836C8.95234 55.4824 3.81564 57.2442 -0.322132 60.7996C-1.34193 61.5659 -2.5673 61.9083 -3.78732 61.7679C-5.00733 61.6275 -6.14568 61.013 -7.00641 60.0302Z" fill="white"/>
<path opacity="0.4" d="M14.1064 134.93C9.77126 135.243 5.42767 134.489 1.37762 132.722C0.719071 132.461 0.120151 132.039 -0.375992 131.486C-0.872135 130.934 -1.25315 130.264 -1.49158 129.526C-1.73001 128.788 -1.81992 127.999 -1.75483 127.217C-1.68975 126.435 -1.47129 125.679 -1.11519 125.003C-0.494338 123.83 0.472792 122.939 1.61767 122.485C2.76255 122.032 4.01258 122.045 5.14994 122.522C7.99718 123.77 11.0622 124.263 14.1064 123.961C17.0283 124.268 19.9728 123.775 22.6879 122.522C23.8252 122.045 25.0753 122.032 26.2201 122.485C27.365 122.939 28.3322 123.83 28.953 125.003C29.3091 125.679 29.5276 126.435 29.5927 127.217C29.6577 127.999 29.5678 128.788 29.3294 129.526C29.091 130.264 28.71 130.934 28.2138 131.486C27.7177 132.039 27.1188 132.461 26.4602 132.722C22.5414 134.49 18.3195 135.245 14.1064 134.93Z" fill="white"/>
</g>
<g opacity="0.05">
<path d="M155.24 -18.024C154.818 -18.6946 154.177 -19.1495 153.458 -19.2891C152.738 -19.4287 151.999 -19.2415 151.402 -18.7685L147.475 -15.6911C146.946 -15.2873 146.578 -14.6666 146.45 -13.9617C146.322 -13.2567 146.445 -12.5235 146.791 -11.9188C149.794 -6.79982 151.34 -0.772955 151.221 5.35893C151.103 11.4908 149.327 17.4366 146.129 22.4043L132.893 8.5063C133.344 7.16617 133.576 5.74514 133.577 4.31208C133.534 2.60734 133.193 0.928801 132.573 -0.627588C131.954 -2.18398 131.067 -3.58771 129.965 -4.75855C128.863 -5.9294 127.566 -6.84441 126.15 -7.45128C124.733 -8.05815 123.224 -8.34498 121.709 -8.29539C118.66 -8.3755 115.706 -7.09422 113.495 -4.73169C111.283 -2.36916 109.993 0.882404 109.906 4.31208C109.913 5.75491 110.152 7.18447 110.612 8.53111L97.376 22.6773C94.006 17.5327 92.1733 11.3182 92.1416 4.92761C92.1099 -1.46294 93.8808 -7.70012 97.1996 -12.8867L97.8172 -13.8298C98.0308 -14.1312 98.1851 -14.4801 98.2701 -14.8535C98.3552 -15.2268 98.369 -15.6162 98.3106 -15.996C98.2523 -16.3758 98.1231 -16.7374 97.9316 -17.057C97.7401 -17.3766 97.4906 -17.6469 97.1996 -17.8503L93.2508 -20.7788C92.6745 -21.2168 91.9724 -21.3937 91.2852 -21.274C90.5979 -21.1544 89.9762 -20.747 89.5446 -20.1335L88.8828 -19.1408C84.4174 -12.2023 82.009 -3.85706 82 4.70916C82.0191 14.6742 85.2481 24.2937 91.0888 31.7854L91.3536 32.1329L94.9053 36.0293C95.7253 36.6348 96.7118 36.8878 97.684 36.7419C98.6563 36.5961 99.5494 36.0612 100.2 35.2351L117.848 16.3239C119.1 16.7409 120.403 16.9336 121.709 16.8947C123.044 16.9 124.371 16.6568 125.635 16.175L144.365 35.7563C144.971 36.3668 145.757 36.7043 146.571 36.7043C147.384 36.7043 148.17 36.3668 148.777 35.7563L149.747 34.6891C156.93 27.0199 161.125 16.4657 161.417 5.32961C161.532 -2.98276 159.376 -11.1344 155.24 -18.024Z" fill="white"/>
<path opacity="0.4" d="M122.106 49.4304C117.771 49.7427 113.428 48.9889 109.378 47.2217C108.719 46.9608 108.12 46.5388 107.624 45.9862C107.128 45.4336 106.747 44.764 106.508 44.0258C106.27 43.2876 106.18 42.499 106.245 41.717C106.31 40.935 106.529 40.1789 106.885 39.5033C107.506 38.33 108.473 37.4389 109.618 36.9854C110.763 36.5318 112.013 36.5446 113.15 37.0215C115.997 38.2704 119.062 38.763 122.106 38.4609C125.028 38.7684 127.973 38.2745 130.688 37.0215C131.825 36.5446 133.075 36.5318 134.22 36.9854C135.365 37.4389 136.332 38.33 136.953 39.5033C137.309 40.1789 137.528 40.935 137.593 41.717C137.658 42.499 137.568 43.2876 137.329 44.0258C137.091 44.764 136.71 45.4336 136.214 45.9862C135.718 46.5388 135.119 46.9608 134.46 47.2217C130.541 48.9901 126.319 49.745 122.106 49.4304Z" fill="white"/>
</g>
<g opacity="0.05">
<path d="M268.088 76.1456C267.823 75.3801 267.299 74.7642 266.631 74.4329C265.963 74.1017 265.205 74.0821 264.524 74.3785L260.052 76.2958C259.452 76.5435 258.961 77.0457 258.686 77.6949C258.41 78.3441 258.371 79.0889 258.577 79.7699C260.39 85.5541 260.594 91.8226 259.161 97.7401C257.727 103.658 254.725 108.943 250.554 112.893L240.7 95.8058C241.426 94.6283 241.956 93.3125 242.265 91.9223C242.591 90.2565 242.621 88.535 242.354 86.8562C242.087 85.1774 241.529 83.5741 240.711 82.1381C239.894 80.702 238.833 79.4613 237.588 78.4869C236.344 77.5125 234.942 76.8234 233.461 76.4592C230.52 75.5516 227.379 75.9911 224.725 77.6815C222.071 79.3719 220.119 82.1758 219.298 85.48C218.994 86.8817 218.918 88.3339 219.076 89.7658L203.191 99.8894C201.027 93.9805 200.585 87.4517 201.929 81.2424C203.272 75.033 206.332 69.4631 210.667 65.3338L211.469 64.5869C211.741 64.3525 211.966 64.056 212.129 63.7168C212.292 63.3777 212.389 63.0036 212.414 62.6192C212.439 62.2349 212.391 61.8488 212.274 61.4866C212.157 61.1244 211.973 60.7942 211.734 60.5177L208.533 56.6014C208.068 56.0196 207.425 55.6569 206.732 55.5859C206.039 55.515 205.349 55.7411 204.798 56.2189L203.942 57.002C198.117 62.5191 193.986 69.9609 192.135 78.2703C190.011 87.9445 191.075 98.157 195.131 107.016L195.314 107.425L197.922 112.172C198.587 112.983 199.49 113.497 200.465 113.62C201.44 113.743 202.421 113.467 203.23 112.843L224.421 99.2965C225.546 100.042 226.769 100.583 228.044 100.901C229.338 101.27 230.678 101.395 232.009 101.271L245.971 125.368C246.428 126.126 247.118 126.667 247.907 126.889C248.697 127.11 249.532 126.996 250.252 126.569L251.423 125.798C260.042 120.311 266.382 111.212 269.06 100.487C270.959 92.4524 270.62 83.956 268.088 76.1456Z" fill="white"/>
<path opacity="0.4" d="M217.056 54.1562C216.702 53.4755 216.489 52.7146 216.431 51.929C216.372 51.1435 216.471 50.3532 216.719 49.6161C216.968 48.879 217.359 48.2138 217.866 47.669C218.372 47.1243 218.981 46.7139 219.646 46.4678C226.376 43.4044 233.833 43.0148 240.785 45.3633C247.899 46.9767 254.316 51.2564 258.989 57.5031C259.474 58.0693 259.84 58.7506 260.061 59.497C260.281 60.2434 260.35 61.0358 260.262 61.8161C260.174 62.5963 259.932 63.3444 259.553 64.0054C259.174 64.6664 258.669 65.2235 258.073 65.6357C257.037 66.3427 255.815 66.6263 254.614 66.4385C253.413 66.2508 252.307 65.6033 251.481 64.6051C248.204 60.0505 243.601 56.9471 238.485 55.8444C233.518 54.0868 228.155 54.3983 223.376 56.7219C222.222 57.1879 220.959 57.1867 219.806 56.7184C218.652 56.2501 217.68 55.344 217.056 54.1562Z" fill="white"/>
<path opacity="0.4" d="M221.432 132.578C217.159 131.702 213.106 129.788 209.556 126.971C208.974 126.539 208.483 125.966 208.121 125.295C207.758 124.624 207.532 123.87 207.46 123.089C207.387 122.308 207.469 121.518 207.701 120.777C207.932 120.036 208.307 119.362 208.797 118.803C209.652 117.834 210.782 117.233 211.991 117.104C213.199 116.976 214.409 117.328 215.41 118.1C217.904 120.087 220.772 121.399 223.791 121.935C226.56 123.028 229.523 123.35 232.427 122.874C233.633 122.72 234.849 123.048 235.862 123.8C236.876 124.552 237.622 125.679 237.973 126.987C238.173 127.739 238.222 128.532 238.117 129.309C238.012 130.085 237.755 130.826 237.365 131.477C236.975 132.129 236.461 132.675 235.861 133.076C235.261 133.477 234.589 133.724 233.894 133.797C229.711 134.447 225.452 134.03 221.432 132.578Z" fill="white"/>
</g>
<g opacity="0.05">
<path d="M350.252 152.39C349.733 151.812 349.032 151.489 348.301 151.492C347.571 151.495 346.872 151.824 346.357 152.406L342.965 156.204C342.506 156.705 342.24 157.388 342.222 158.108C342.205 158.827 342.439 159.525 342.874 160.053C346.621 164.507 349.073 170.141 349.903 176.203C350.733 182.264 349.902 188.467 347.52 193.984L332.339 182.883C332.577 181.475 332.586 180.03 332.366 178.619C332.06 176.948 331.465 175.362 330.615 173.95C329.764 172.538 328.675 171.329 327.408 170.391C326.142 169.454 324.724 168.806 323.235 168.485C321.747 168.164 320.216 168.176 318.731 168.521C315.716 169.038 313.006 170.877 311.192 173.635C309.379 176.394 308.61 179.848 309.054 183.243C309.283 184.662 309.74 186.023 310.401 187.26L299.549 203.777C295.436 199.369 292.672 193.607 291.655 187.319C290.637 181.032 291.418 174.544 293.886 168.788L294.349 167.738C294.513 167.4 294.611 167.026 294.637 166.641C294.663 166.257 294.616 165.871 294.5 165.508C294.384 165.146 294.201 164.815 293.963 164.538C293.725 164.26 293.438 164.043 293.12 163.899L288.779 161.787C288.144 161.468 287.425 161.431 286.767 161.683C286.109 161.935 285.559 162.458 285.229 163.146L284.73 164.253C281.404 171.959 280.32 180.648 281.633 189.085C283.19 198.895 287.855 207.738 294.764 213.975L295.078 214.265L299.177 217.409C300.078 217.845 301.089 217.901 302.024 217.568C302.959 217.234 303.756 216.533 304.268 215.592L318.73 193.521C320.027 193.687 321.34 193.622 322.62 193.329C323.935 193.073 325.204 192.574 326.376 191.853L347.843 207.478C348.534 207.96 349.36 208.139 350.162 207.98C350.963 207.821 351.685 207.335 352.188 206.616L352.979 205.375C358.869 196.419 361.371 185.206 359.94 174.182C358.77 165.973 355.388 158.367 350.252 152.39Z" fill="white"/>
<path opacity="0.4" d="M295.682 155.656C295.113 155.196 294.643 154.599 294.306 153.908C293.968 153.217 293.773 152.45 293.733 151.663C293.694 150.876 293.811 150.089 294.077 149.359C294.342 148.63 294.75 147.977 295.269 147.447C300.309 141.569 306.98 137.801 314.181 136.765C321.263 134.984 328.673 135.957 335.2 139.526C335.848 139.821 336.429 140.276 336.9 140.857C337.371 141.438 337.72 142.131 337.922 142.884C338.124 143.637 338.173 144.431 338.066 145.208C337.959 145.985 337.698 146.726 337.304 147.375C336.612 148.495 335.599 149.313 334.434 149.691C333.269 150.069 332.024 149.984 330.909 149.45C326.268 146.788 320.941 146.06 315.869 147.393C310.696 148.06 305.91 150.798 302.383 155.108C301.497 156.062 300.344 156.639 299.12 156.739C297.897 156.839 296.681 156.456 295.682 155.656Z" fill="white"/>
<path opacity="0.4" d="M328.034 225.294C323.813 226.448 319.419 226.555 315.158 225.605C314.469 225.477 313.814 225.179 313.24 224.731C312.667 224.284 312.188 223.699 311.839 223.019C311.49 222.338 311.28 221.579 311.224 220.796C311.167 220.013 311.265 219.226 311.512 218.491C311.942 217.214 312.757 216.148 313.814 215.478C314.872 214.807 316.105 214.576 317.299 214.823C320.295 215.497 323.39 215.383 326.341 214.491C329.266 214.223 332.09 213.161 334.57 211.397C335.617 210.705 336.846 210.448 338.043 210.671C339.241 210.894 340.331 211.583 341.123 212.617C341.578 213.213 341.91 213.915 342.095 214.672C342.28 215.43 342.313 216.224 342.192 216.998C342.071 217.771 341.799 218.505 341.396 219.146C340.993 219.787 340.468 220.32 339.86 220.705C336.273 223.212 332.232 224.781 328.034 225.294Z" fill="white"/>
</g>
<g opacity="0.05">
<path d="M388.24 -18.024C387.818 -18.6946 387.177 -19.1495 386.458 -19.2891C385.738 -19.4287 384.999 -19.2415 384.402 -18.7685L380.475 -15.6911C379.946 -15.2873 379.578 -14.6666 379.45 -13.9617C379.322 -13.2567 379.445 -12.5235 379.791 -11.9188C382.794 -6.79982 384.34 -0.772955 384.221 5.35893C384.103 11.4908 382.327 17.4366 379.129 22.4043L365.893 8.5063C366.344 7.16617 366.576 5.74514 366.577 4.31208C366.534 2.60734 366.193 0.928801 365.573 -0.627588C364.954 -2.18398 364.067 -3.58771 362.965 -4.75855C361.863 -5.9294 360.566 -6.84441 359.15 -7.45128C357.733 -8.05815 356.224 -8.34498 354.709 -8.29539C351.66 -8.3755 348.706 -7.09422 346.495 -4.73169C344.283 -2.36916 342.993 0.882404 342.906 4.31208C342.913 5.75491 343.152 7.18447 343.612 8.53111L330.376 22.6773C327.006 17.5327 325.173 11.3182 325.142 4.92761C325.11 -1.46294 326.881 -7.70012 330.2 -12.8867L330.817 -13.8298C331.031 -14.1312 331.185 -14.4801 331.27 -14.8535C331.355 -15.2268 331.369 -15.6162 331.311 -15.996C331.252 -16.3758 331.123 -16.7374 330.932 -17.057C330.74 -17.3766 330.491 -17.6469 330.2 -17.8503L326.251 -20.7788C325.675 -21.2168 324.972 -21.3937 324.285 -21.274C323.598 -21.1544 322.976 -20.747 322.545 -20.1335L321.883 -19.1408C317.417 -12.2023 315.009 -3.85706 315 4.70916C315.019 14.6742 318.248 24.2937 324.089 31.7854L324.354 32.1329L327.905 36.0293C328.725 36.6348 329.712 36.8878 330.684 36.7419C331.656 36.5961 332.549 36.0612 333.2 35.2351L350.848 16.3239C352.1 16.7409 353.403 16.9336 354.709 16.8947C356.044 16.9 357.371 16.6568 358.635 16.175L377.365 35.7563C377.971 36.3668 378.757 36.7043 379.571 36.7043C380.384 36.7043 381.17 36.3668 381.777 35.7563L382.747 34.6891C389.93 27.0199 394.125 16.4657 394.417 5.32961C394.532 -2.98276 392.376 -11.1344 388.24 -18.024Z" fill="white"/>
<path opacity="0.4" d="M355.106 49.4304C350.771 49.7427 346.428 48.9889 342.378 47.2217C341.719 46.9608 341.12 46.5388 340.624 45.9862C340.128 45.4336 339.747 44.764 339.508 44.0258C339.27 43.2876 339.18 42.499 339.245 41.717C339.31 40.935 339.529 40.1789 339.885 39.5033C340.506 38.33 341.473 37.4389 342.618 36.9854C343.763 36.5318 345.013 36.5446 346.15 37.0215C348.997 38.2704 352.062 38.763 355.106 38.4609C358.028 38.7684 360.973 38.2745 363.688 37.0215C364.825 36.5446 366.075 36.5318 367.22 36.9854C368.365 37.4389 369.332 38.33 369.953 39.5033C370.309 40.1789 370.528 40.935 370.593 41.717C370.658 42.499 370.568 43.2876 370.329 44.0258C370.091 44.764 369.71 45.4336 369.214 45.9862C368.718 46.5388 368.119 46.9608 367.46 47.2217C363.541 48.9901 359.319 49.745 355.106 49.4304Z" fill="white"/>
</g>
<g opacity="0.05">
<path d="M467.747 77.0282C467.126 76.5963 466.378 76.4593 465.667 76.6471C464.956 76.8349 464.34 77.3323 463.955 78.0301L461.409 82.589C461.062 83.1933 460.939 83.9264 461.066 84.6315C461.194 85.3365 461.561 85.9576 462.09 86.362C466.632 89.754 470.148 94.6225 472.169 100.319C474.19 106.015 474.62 112.269 473.402 118.247L456.391 111.273C456.341 109.841 456.06 108.431 455.564 107.111C454.932 105.561 454.035 104.166 452.924 103.005C451.813 101.845 450.51 100.943 449.088 100.349C447.667 99.756 446.156 99.4837 444.641 99.5478C443.126 99.6119 441.637 100.011 440.26 100.723C437.425 101.99 435.152 104.467 433.937 107.614C432.721 110.761 432.663 114.321 433.775 117.516C434.281 118.842 434.998 120.052 435.89 121.09L428.619 139.929C423.73 136.675 419.885 131.76 417.636 125.892C415.387 120.023 414.851 113.503 416.105 107.27L416.346 106.131C416.437 105.759 416.458 105.37 416.407 104.989C416.355 104.608 416.233 104.244 416.047 103.92C415.862 103.596 415.617 103.32 415.33 103.11C415.043 102.9 414.719 102.76 414.381 102.701L409.729 101.741C409.046 101.591 408.338 101.737 407.747 102.149C407.156 102.562 406.725 103.21 406.541 103.964L406.277 105.169C404.576 113.519 405.258 122.259 408.225 130.149C411.703 139.313 418.017 146.748 425.995 151.077L426.359 151.281L430.982 153.306C431.947 153.503 432.943 153.302 433.787 152.741C434.632 152.179 435.268 151.294 435.58 150.248L445.257 125.082C446.554 124.916 447.821 124.52 449.009 123.911C450.24 123.329 451.377 122.521 452.373 121.522L476.415 131.314C477.185 131.609 478.025 131.575 478.774 131.217C479.524 130.859 480.129 130.203 480.476 129.374L480.999 127.965C484.947 117.748 485.143 106.189 481.544 95.8101C478.763 88.108 473.947 81.5521 467.747 77.0282Z" fill="white"/>
<path opacity="0.4" d="M415.227 94.0179C414.58 93.7136 414.003 93.2505 413.536 92.6625C413.069 92.0746 412.725 91.3767 412.529 90.6198C412.334 89.863 412.29 89.0665 412.404 88.2885C412.517 87.5106 412.783 86.7709 413.183 86.1237C416.918 79.1212 422.665 73.7614 429.474 70.9297C436.019 67.4019 443.433 66.475 450.506 68.3005C451.197 68.4241 451.854 68.7203 452.429 69.1673C453.004 69.6142 453.483 70.2006 453.83 70.8831C454.177 71.5657 454.384 72.3272 454.435 73.1115C454.486 73.8959 454.381 74.6831 454.126 75.4154C453.676 76.6819 452.852 77.7354 451.793 78.3984C450.733 79.0615 449.503 79.2935 448.31 79.0556C443.256 77.6366 437.919 78.275 433.244 80.8576C428.337 82.8166 424.221 86.6963 421.647 91.7879C420.974 92.9416 419.965 93.7954 418.794 94.2025C417.622 94.6095 416.36 94.5442 415.227 94.0179Z" fill="white"/>
<path opacity="0.4" d="M460.676 153.684C456.794 155.877 452.534 157.092 448.192 157.246C447.495 157.295 446.797 157.17 446.148 156.879C445.5 156.589 444.917 156.14 444.441 155.565C443.965 154.99 443.608 154.304 443.396 153.556C443.185 152.807 443.123 152.015 443.216 151.237C443.38 149.884 443.961 148.638 444.857 147.718C445.754 146.797 446.909 146.259 448.121 146.198C451.176 146.096 454.169 145.202 456.866 143.586C459.662 142.585 462.201 140.836 464.265 138.489C465.147 137.55 466.293 136.989 467.504 136.903C468.716 136.817 469.915 137.212 470.894 138.019C471.457 138.485 471.92 139.085 472.252 139.776C472.583 140.467 472.775 141.233 472.811 142.017C472.848 142.801 472.73 143.585 472.465 144.312C472.201 145.039 471.796 145.69 471.28 146.22C468.287 149.57 464.663 152.121 460.676 153.684Z" fill="white"/>
</g>
<g opacity="0.05">
<path d="M700.297 57.372C700.129 56.5725 699.687 55.8805 699.066 55.4479C698.445 55.0152 697.697 54.8772 696.986 55.064L692.321 56.2625C691.695 56.4139 691.148 56.8344 690.794 57.4341C690.441 58.0338 690.311 58.7653 690.43 59.4719C691.51 65.4838 690.936 71.723 688.785 77.3586C686.633 82.9942 683.007 87.7585 678.388 91.0169L670.743 72.5527C671.608 71.5003 672.296 70.2804 672.774 68.9521C673.302 67.3534 673.544 65.6534 673.488 63.9492C673.432 62.2449 673.077 60.5699 672.445 59.0198C671.813 57.4697 670.916 56.0749 669.804 54.9152C668.693 53.7555 667.389 52.8535 665.968 52.2609C663.167 50.9017 660.003 50.8451 657.165 52.1035C654.328 53.362 652.049 55.8331 650.827 58.9765C650.352 60.3169 650.098 61.7432 650.076 63.1858L633.094 70.7238C631.682 64.5336 632.052 57.9992 634.151 52.0606C636.249 46.122 639.968 41.0853 644.772 37.675L645.659 37.0609C645.957 36.8714 646.217 36.613 646.42 36.3027C646.623 35.9923 646.765 35.6371 646.838 35.2604C646.91 34.8836 646.911 34.4939 646.84 34.1169C646.768 33.7399 646.627 33.3841 646.425 33.0729L643.739 28.6935C643.35 28.0445 642.758 27.5846 642.081 27.4059C641.404 27.2272 640.692 27.3429 640.088 27.7299L639.144 28.3714C632.693 32.9228 627.681 39.6454 624.82 47.584C621.52 56.8315 621.311 67.1113 624.231 76.5191L624.361 76.9528L626.357 82.0623C626.915 82.9693 627.746 83.6195 628.696 83.8941C629.646 84.1686 630.652 84.049 631.53 83.5572L654.19 73.4606C655.213 74.375 656.356 75.1026 657.58 75.6168C658.816 76.1843 660.127 76.518 661.46 76.6043L672.305 102.653C672.665 103.475 673.28 104.118 674.035 104.461C674.79 104.805 675.63 104.823 676.396 104.512L677.652 103.932C686.865 99.8482 694.269 91.8305 698.248 81.6283C701.122 73.9695 701.838 65.5028 700.297 57.372Z" fill="white"/>
<path opacity="0.4" d="M652.479 27.6079C652.214 26.8786 652.096 26.0916 652.136 25.3045C652.175 24.5175 652.371 23.7504 652.708 23.0594C653.045 22.3684 653.515 21.7709 654.084 21.3107C654.653 20.8506 655.306 20.5394 655.996 20.4C663.039 18.42 670.471 19.2017 677.066 22.6159C683.911 25.3275 689.736 30.5702 693.59 37.4877C694.001 38.1244 694.279 38.8564 694.405 39.63C694.531 40.4036 694.501 41.1991 694.317 41.958C694.134 42.7169 693.801 43.4198 693.345 44.0151C692.888 44.6104 692.318 45.0829 691.677 45.3978C690.563 45.9357 689.319 46.0252 688.153 45.6513C686.987 45.2774 685.971 44.4629 685.277 43.3451C682.595 38.3218 678.421 34.5278 673.491 32.6349C668.79 30.1168 663.441 29.5856 658.421 31.1382C657.22 31.419 655.97 31.2201 654.885 30.5757C653.801 29.9314 652.95 28.8819 652.479 27.6079Z" fill="white"/>
<path opacity="0.4" d="M647.114 105.951C642.99 104.414 639.214 101.884 636.047 98.5388C635.524 98.0194 635.109 97.3757 634.833 96.6543C634.557 95.9328 634.426 95.1514 634.451 94.3665C634.476 93.5815 634.655 92.8125 634.976 92.1148C635.297 91.4172 635.751 90.8082 636.306 90.3319C637.272 89.5056 638.466 89.087 639.678 89.149C640.891 89.211 642.046 89.7497 642.941 90.6711C645.165 93.029 647.843 94.7774 650.766 95.7803C653.373 97.2968 656.268 98.0797 659.202 98.0622C660.416 98.0994 661.579 98.6143 662.489 99.5173C663.4 100.42 664 101.654 664.185 103.004C664.29 103.78 664.241 104.573 664.041 105.326C663.841 106.078 663.495 106.771 663.028 107.355C662.561 107.939 661.985 108.4 661.341 108.703C660.697 109.006 660.001 109.145 659.303 109.109C655.081 109.098 650.915 108.018 647.114 105.951Z" fill="white"/>
</g>
<g opacity="0.05">
<path d="M897.41 43.42C896.825 42.9289 896.09 42.719 895.367 42.8365C894.645 42.9539 893.993 43.389 893.555 44.0464L890.666 48.3383C890.273 48.9063 890.094 49.6245 890.166 50.3394C890.238 51.0542 890.556 51.709 891.051 52.1637C895.313 55.9881 898.439 61.1828 900.011 67.0557C901.582 72.9285 901.526 79.2008 899.85 85.037L883.444 76.4207C883.505 74.9892 883.335 73.5572 882.942 72.194C882.433 70.5876 881.648 69.1097 880.631 67.845C879.614 66.5802 878.385 65.5533 877.016 64.823C875.646 64.0926 874.161 63.6731 872.647 63.5884C871.133 63.5038 869.619 63.7556 868.192 64.3296C865.27 65.3133 862.813 67.5586 861.359 70.5743C859.904 73.5901 859.57 77.131 860.43 80.423C860.832 81.793 861.453 83.0694 862.26 84.1901L853.558 102.245C848.939 98.5242 845.489 93.2509 843.704 87.1842C841.918 81.1174 841.889 74.5699 843.621 68.4834L843.949 67.3717C844.07 67.0108 844.121 66.6254 844.099 66.2407C844.077 65.856 843.984 65.4809 843.824 65.14C843.664 64.7991 843.442 64.5001 843.172 64.2627C842.902 64.0253 842.59 63.8549 842.258 63.7627L837.698 62.3503C837.029 62.1341 836.313 62.2099 835.692 62.5626C835.072 62.9154 834.592 63.5189 834.35 64.2524L833.994 65.4266C831.652 73.578 831.654 82.352 833.999 90.5021C836.754 99.9727 842.467 107.999 850.08 113.093L850.427 113.332L854.875 115.803C855.822 116.094 856.829 115.991 857.714 115.515C858.599 115.038 859.301 114.219 859.693 113.207L871.283 89.086C872.588 89.0473 873.88 88.7776 875.111 88.2868C876.382 87.8276 877.577 87.1351 878.648 86.2372L901.839 98.349C902.584 98.7187 903.423 98.7666 904.197 98.4836C904.972 98.2007 905.626 97.6067 906.035 96.8152L906.665 95.4628C911.39 85.6717 912.481 74.1757 909.699 63.4833C907.525 55.5378 903.236 48.5346 897.41 43.42Z" fill="white"/>
<path opacity="0.4" d="M843.774 55.1956C843.153 54.829 842.614 54.3111 842.194 53.6796C841.775 53.0481 841.486 52.3191 841.35 51.5459C841.213 50.7728 841.232 49.9751 841.405 49.2112C841.578 48.4473 841.9 47.7365 842.349 47.131C846.613 40.5214 852.753 35.7455 859.756 33.5922C866.548 30.7195 874.006 30.5231 880.911 33.0352C881.59 33.226 882.221 33.5855 882.759 34.0872C883.298 34.5888 883.729 35.2199 884.022 35.9339C884.315 36.6479 884.462 37.4268 884.453 38.2132C884.443 38.9995 884.276 39.7734 883.966 40.4779C883.419 41.6955 882.517 42.6642 881.41 43.2208C880.304 43.7775 879.06 43.888 877.89 43.5339C872.965 41.6249 867.599 41.7376 862.742 43.8519C857.702 45.3224 853.301 48.7837 850.342 53.6035C849.583 54.6869 848.511 55.4386 847.312 55.7291C846.114 56.0197 844.862 55.831 843.774 55.1956Z" fill="white"/>
<path opacity="0.4" d="M884.424 119.093C880.387 120.897 876.049 121.69 871.712 121.417C871.014 121.398 870.328 121.205 869.705 120.852C869.081 120.498 868.535 119.994 868.105 119.375C867.676 118.756 867.374 118.037 867.221 117.271C867.068 116.504 867.068 115.709 867.221 114.943C867.489 113.611 868.164 112.428 869.128 111.598C870.093 110.769 871.285 110.346 872.498 110.405C875.549 110.603 878.599 110.005 881.411 108.66C884.275 107.937 886.939 106.443 889.177 104.308C890.128 103.459 891.313 103.012 892.527 103.045C893.74 103.079 894.905 103.59 895.818 104.49C896.342 105.009 896.757 105.652 897.034 106.373C897.311 107.094 897.442 107.875 897.418 108.66C897.394 109.445 897.215 110.214 896.895 110.913C896.575 111.611 896.122 112.22 895.567 112.697C892.326 115.741 888.518 117.927 884.424 119.093Z" fill="white"/>
</g>
<g opacity="0.05">
<path d="M1065.24 73.101C1064.82 72.4304 1064.18 71.9755 1063.46 71.8359C1062.74 71.6963 1062 71.8835 1061.4 72.3565L1057.48 75.4339C1056.95 75.8377 1056.58 76.4584 1056.45 77.1633C1056.32 77.8683 1056.44 78.6015 1056.79 79.2062C1059.79 84.3252 1061.34 90.352 1061.22 96.4839C1061.1 102.616 1059.33 108.562 1056.13 113.529L1042.89 99.6313C1043.34 98.2912 1043.58 96.8701 1043.58 95.4371C1043.53 93.7323 1043.19 92.0538 1042.57 90.4974C1041.95 88.941 1041.07 87.5373 1039.97 86.3664C1038.86 85.1956 1037.57 84.2806 1036.15 83.6737C1034.73 83.0669 1033.22 82.78 1031.71 82.8296C1028.66 82.7495 1025.71 84.0308 1023.49 86.3933C1021.28 88.7558 1019.99 92.0074 1019.91 95.4371C1019.91 96.8799 1020.15 98.3095 1020.61 99.6561L1007.38 113.802C1004.01 108.658 1002.17 102.443 1002.14 96.0526C1002.11 89.6621 1003.88 83.4249 1007.2 78.2383L1007.82 77.2952C1008.03 76.9938 1008.19 76.6449 1008.27 76.2715C1008.36 75.8982 1008.37 75.5088 1008.31 75.129C1008.25 74.7492 1008.12 74.3876 1007.93 74.068C1007.74 73.7484 1007.49 73.4781 1007.2 73.2747L1003.25 70.3462C1002.67 69.9082 1001.97 69.7313 1001.29 69.851C1000.6 69.9706 999.976 70.378 999.545 70.9915L998.883 71.9842C994.417 78.9227 992.009 87.2679 992 95.8342C992.019 105.799 995.248 115.419 1001.09 122.91L1001.35 123.258L1004.91 127.154C1005.73 127.76 1006.71 128.013 1007.68 127.867C1008.66 127.721 1009.55 127.186 1010.2 126.36L1027.85 107.449C1029.1 107.866 1030.4 108.059 1031.71 108.02C1033.04 108.025 1034.37 107.782 1035.64 107.3L1054.36 126.881C1054.97 127.492 1055.76 127.829 1056.57 127.829C1057.38 127.829 1058.17 127.492 1058.78 126.881L1059.75 125.814C1066.93 118.145 1071.13 107.591 1071.42 96.4546C1071.53 88.1422 1069.38 79.9906 1065.24 73.101Z" fill="white"/>
<path opacity="0.4" d="M1010.99 65.6552C1010.5 65.091 1010.13 64.4108 1009.91 63.6644C1009.68 62.918 1009.61 62.1244 1009.69 61.3416C1009.77 60.5588 1010.01 59.8067 1010.38 59.1403C1010.76 58.4739 1011.26 57.9101 1011.85 57.4901C1017.72 52.6863 1024.88 50.2787 1032.13 50.6652C1039.38 50.2946 1046.52 52.7006 1052.4 57.4901C1052.99 57.9074 1053.5 58.4689 1053.87 59.1331C1054.24 59.7974 1054.48 60.5476 1054.56 61.3285C1054.65 62.1095 1054.57 62.9013 1054.35 63.6458C1054.12 64.3903 1053.75 65.0684 1053.26 65.6304C1052.41 66.5985 1051.28 67.2061 1050.08 67.3508C1048.87 67.4954 1047.66 67.1683 1046.64 66.4246C1042.48 62.8971 1037.35 61.1388 1032.15 61.461C1026.95 61.1074 1021.82 62.8692 1017.68 66.4246C1016.66 67.1909 1015.43 67.5333 1014.21 67.3929C1012.99 67.2525 1011.85 66.638 1010.99 65.6552Z" fill="white"/>
<path opacity="0.4" d="M1032.11 140.555C1027.77 140.868 1023.43 140.114 1019.38 138.347C1018.72 138.086 1018.12 137.664 1017.62 137.111C1017.13 136.559 1016.75 135.889 1016.51 135.151C1016.27 134.413 1016.18 133.624 1016.25 132.842C1016.31 132.06 1016.53 131.304 1016.88 130.628C1017.51 129.455 1018.47 128.564 1019.62 128.11C1020.76 127.657 1022.01 127.67 1023.15 128.147C1026 129.395 1029.06 129.888 1032.11 129.586C1035.03 129.893 1037.97 129.4 1040.69 128.147C1041.83 127.67 1043.08 127.657 1044.22 128.11C1045.37 128.564 1046.33 129.455 1046.95 130.628C1047.31 131.304 1047.53 132.06 1047.59 132.842C1047.66 133.624 1047.57 134.413 1047.33 135.151C1047.09 135.889 1046.71 136.559 1046.21 137.111C1045.72 137.664 1045.12 138.086 1044.46 138.347C1040.54 140.115 1036.32 140.87 1032.11 140.555Z" fill="white"/>
</g>
<g opacity="0.05">
<path d="M1136.24 -31.524C1135.82 -32.1946 1135.18 -32.6495 1134.46 -32.7891C1133.74 -32.9287 1133 -32.7415 1132.4 -32.2685L1128.48 -29.1911C1127.95 -28.7873 1127.58 -28.1666 1127.45 -27.4617C1127.32 -26.7567 1127.44 -26.0235 1127.79 -25.4188C1130.79 -20.2998 1132.34 -14.273 1132.22 -8.14107C1132.1 -2.00918 1130.33 3.93663 1127.13 8.90429L1113.89 -4.9937C1114.34 -6.33383 1114.58 -7.75486 1114.58 -9.18792C1114.53 -10.8927 1114.19 -12.5712 1113.57 -14.1276C1112.95 -15.684 1112.07 -17.0877 1110.97 -18.2586C1109.86 -19.4294 1108.57 -20.3444 1107.15 -20.9513C1105.73 -21.5581 1104.22 -21.845 1102.71 -21.7954C1099.66 -21.8755 1096.71 -20.5942 1094.49 -18.2317C1092.28 -15.8692 1090.99 -12.6176 1090.91 -9.18792C1090.91 -7.74509 1091.15 -6.31553 1091.61 -4.96889L1078.38 9.17729C1075.01 4.03272 1073.17 -2.18183 1073.14 -8.57239C1073.11 -14.9629 1074.88 -21.2001 1078.2 -26.3867L1078.82 -27.3298C1079.03 -27.6312 1079.19 -27.9801 1079.27 -28.3535C1079.36 -28.7268 1079.37 -29.1162 1079.31 -29.496C1079.25 -29.8758 1079.12 -30.2374 1078.93 -30.557C1078.74 -30.8766 1078.49 -31.1469 1078.2 -31.3503L1074.25 -34.2788C1073.67 -34.7168 1072.97 -34.8937 1072.29 -34.774C1071.6 -34.6544 1070.98 -34.247 1070.54 -33.6335L1069.88 -32.6408C1065.42 -25.7023 1063.01 -17.3571 1063 -8.79084C1063.02 1.17418 1066.25 10.7937 1072.09 18.2854L1072.35 18.6329L1075.91 22.5293C1076.73 23.1348 1077.71 23.3878 1078.68 23.2419C1079.66 23.0961 1080.55 22.5612 1081.2 21.7351L1098.85 2.82392C1100.1 3.24094 1101.4 3.43357 1102.71 3.39473C1104.04 3.39998 1105.37 3.15679 1106.64 2.67501L1125.36 22.2563C1125.97 22.8668 1126.76 23.2043 1127.57 23.2043C1128.38 23.2043 1129.17 22.8668 1129.78 22.2563L1130.75 21.1891C1137.93 13.5199 1142.13 2.96565 1142.42 -8.17039C1142.53 -16.4828 1140.38 -24.6344 1136.24 -31.524Z" fill="white"/>
<path opacity="0.4" d="M1103.11 35.9304C1098.77 36.2427 1094.43 35.4889 1090.38 33.7217C1089.72 33.4608 1089.12 33.0388 1088.62 32.4862C1088.13 31.9336 1087.75 31.264 1087.51 30.5258C1087.27 29.7876 1087.18 28.999 1087.25 28.217C1087.31 27.435 1087.53 26.6789 1087.88 26.0033C1088.51 24.83 1089.47 23.9389 1090.62 23.4854C1091.76 23.0318 1093.01 23.0446 1094.15 23.5215C1097 24.7704 1100.06 25.263 1103.11 24.9609C1106.03 25.2684 1108.97 24.7745 1111.69 23.5215C1112.83 23.0446 1114.08 23.0318 1115.22 23.4854C1116.37 23.9389 1117.33 24.83 1117.95 26.0033C1118.31 26.6789 1118.53 27.435 1118.59 28.217C1118.66 28.999 1118.57 29.7876 1118.33 30.5258C1118.09 31.264 1117.71 31.9336 1117.21 32.4862C1116.72 33.0388 1116.12 33.4608 1115.46 33.7217C1111.54 35.4901 1107.32 36.245 1103.11 35.9304Z" fill="white"/>
</g>
<g opacity="0.05">
<path d="M1225.24 32.601C1224.82 31.9304 1224.18 31.4755 1223.46 31.3359C1222.74 31.1963 1222 31.3835 1221.4 31.8565L1217.48 34.9339C1216.95 35.3377 1216.58 35.9584 1216.45 36.6633C1216.32 37.3683 1216.44 38.1015 1216.79 38.7062C1219.79 43.8252 1221.34 49.852 1221.22 55.9839C1221.1 62.1158 1219.33 68.0616 1216.13 73.0293L1202.89 59.1313C1203.34 57.7912 1203.58 56.3701 1203.58 54.9371C1203.53 53.2323 1203.19 51.5538 1202.57 49.9974C1201.95 48.441 1201.07 47.0373 1199.97 45.8664C1198.86 44.6956 1197.57 43.7806 1196.15 43.1737C1194.73 42.5669 1193.22 42.28 1191.71 42.3296C1188.66 42.2495 1185.71 43.5308 1183.49 45.8933C1181.28 48.2558 1179.99 51.5074 1179.91 54.9371C1179.91 56.3799 1180.15 57.8095 1180.61 59.1561L1167.38 73.3023C1164.01 68.1577 1162.17 61.9432 1162.14 55.5526C1162.11 49.1621 1163.88 42.9249 1167.2 37.7383L1167.82 36.7952C1168.03 36.4938 1168.19 36.1449 1168.27 35.7715C1168.36 35.3982 1168.37 35.0088 1168.31 34.629C1168.25 34.2492 1168.12 33.8876 1167.93 33.568C1167.74 33.2484 1167.49 32.9781 1167.2 32.7747L1163.25 29.8462C1162.67 29.4082 1161.97 29.2313 1161.29 29.351C1160.6 29.4706 1159.98 29.878 1159.54 30.4915L1158.88 31.4842C1154.42 38.4227 1152.01 46.7679 1152 55.3342C1152.02 65.2992 1155.25 74.9187 1161.09 82.4104L1161.35 82.7579L1164.91 86.6543C1165.73 87.2598 1166.71 87.5128 1167.68 87.3669C1168.66 87.2211 1169.55 86.6862 1170.2 85.8601L1187.85 66.9489C1189.1 67.3659 1190.4 67.5586 1191.71 67.5197C1193.04 67.525 1194.37 67.2818 1195.64 66.8L1214.36 86.3813C1214.97 86.9918 1215.76 87.3293 1216.57 87.3293C1217.38 87.3293 1218.17 86.9918 1218.78 86.3813L1219.75 85.3141C1226.93 77.6449 1231.13 67.0907 1231.42 55.9546C1231.53 47.6422 1229.38 39.4906 1225.24 32.601Z" fill="white"/>
<path opacity="0.4" d="M1170.99 25.1552C1170.5 24.591 1170.13 23.9108 1169.91 23.1644C1169.68 22.418 1169.61 21.6244 1169.69 20.8416C1169.77 20.0588 1170.01 19.3067 1170.38 18.6403C1170.76 17.9739 1171.26 17.4101 1171.85 16.9901C1177.72 12.1863 1184.88 9.77874 1192.13 10.1652C1199.38 9.79464 1206.52 12.2006 1212.4 16.9901C1212.99 17.4074 1213.5 17.9689 1213.87 18.6331C1214.24 19.2974 1214.48 20.0476 1214.56 20.8285C1214.65 21.6095 1214.57 22.4013 1214.35 23.1458C1214.12 23.8903 1213.75 24.5684 1213.26 25.1304C1212.41 26.0985 1211.28 26.7061 1210.08 26.8508C1208.87 26.9954 1207.66 26.6683 1206.64 25.9246C1202.48 22.3971 1197.35 20.6388 1192.15 20.961C1186.95 20.6074 1181.82 22.3692 1177.68 25.9246C1176.66 26.6909 1175.43 27.0333 1174.21 26.8929C1172.99 26.7525 1171.85 26.138 1170.99 25.1552Z" fill="white"/>
<path opacity="0.4" d="M1192.11 100.055C1187.77 100.368 1183.43 99.6139 1179.38 97.8467C1178.72 97.5858 1178.12 97.1638 1177.62 96.6112C1177.13 96.0586 1176.75 95.389 1176.51 94.6508C1176.27 93.9126 1176.18 93.124 1176.25 92.342C1176.31 91.56 1176.53 90.8039 1176.88 90.1283C1177.51 88.955 1178.47 88.0639 1179.62 87.6104C1180.76 87.1568 1182.01 87.1696 1183.15 87.6465C1186 88.8954 1189.06 89.388 1192.11 89.0859C1195.03 89.3934 1197.97 88.8995 1200.69 87.6465C1201.83 87.1696 1203.08 87.1568 1204.22 87.6104C1205.37 88.0639 1206.33 88.955 1206.95 90.1283C1207.31 90.8039 1207.53 91.56 1207.59 92.342C1207.66 93.124 1207.57 93.9126 1207.33 94.6508C1207.09 95.389 1206.71 96.0586 1206.21 96.6112C1205.72 97.1638 1205.12 97.5858 1204.46 97.8467C1200.54 99.6151 1196.32 100.37 1192.11 100.055Z" fill="white"/>
</g>
<g opacity="0.05">
<path d="M589.671 171.437C589.382 170.683 588.839 170.088 588.161 169.783C587.483 169.478 586.725 169.488 586.054 169.811L581.644 171.903C581.052 172.174 580.577 172.695 580.322 173.355C580.067 174.015 580.051 174.76 580.278 175.433C582.27 181.143 582.667 187.399 581.419 193.369C580.17 199.34 577.333 204.74 573.288 208.851L562.909 192.161C563.598 190.956 564.088 189.62 564.353 188.218C564.626 186.541 564.603 184.819 564.284 183.152C563.966 181.485 563.358 179.904 562.497 178.501C561.635 177.098 560.536 175.9 559.262 174.975C557.989 174.05 556.566 173.416 555.074 173.11C552.107 172.319 548.981 172.881 546.381 174.675C543.781 176.469 541.918 179.347 541.2 182.682C540.939 184.095 540.909 185.549 541.111 186.974L525.549 197.715C523.204 191.894 522.56 185.387 523.71 179.129C524.86 172.87 527.744 167.184 531.949 162.887L532.728 162.109C532.992 161.864 533.208 161.559 533.36 161.213C533.512 160.868 533.598 160.49 533.611 160.105C533.624 159.72 533.564 159.336 533.436 158.979C533.308 158.621 533.114 158.299 532.867 158.032L529.545 154.244C529.063 153.68 528.409 153.343 527.714 153.299C527.02 153.256 526.336 153.509 525.801 154.008L524.97 154.824C519.32 160.566 515.422 168.166 513.83 176.543C512.007 186.295 513.388 196.459 517.716 205.153L517.911 205.555L520.665 210.197C521.355 210.981 522.273 211.459 523.251 211.544C524.229 211.629 525.202 211.315 525.99 210.659L546.748 196.289C547.896 196.99 549.135 197.483 550.419 197.75C551.724 198.068 553.067 198.14 554.393 197.965L569.094 221.499C569.574 222.238 570.28 222.752 571.076 222.942C571.873 223.132 572.703 222.986 573.409 222.531L574.556 221.714C583 215.892 589.054 206.55 591.397 195.726C593.045 187.622 592.443 179.144 589.671 171.437Z" fill="white"/>
<path opacity="0.4" d="M537.987 151.467C537.613 150.801 537.376 150.049 537.293 149.266C537.211 148.483 537.285 147.69 537.51 146.943C537.736 146.197 538.107 145.517 538.596 144.952C539.085 144.388 539.68 143.954 540.338 143.682C546.968 140.356 554.408 139.674 561.43 141.748C568.589 143.081 575.135 147.106 579.999 153.166C580.501 153.713 580.888 154.379 581.132 155.116C581.375 155.854 581.468 156.643 581.405 157.426C581.341 158.209 581.122 158.966 580.764 159.642C580.406 160.317 579.918 160.894 579.336 161.329C578.322 162.077 577.11 162.408 575.904 162.268C574.698 162.127 573.572 161.523 572.716 160.558C569.3 156.135 564.603 153.214 559.456 152.313C554.438 150.752 549.088 151.273 544.383 153.783C543.244 154.294 541.982 154.343 540.815 153.92C539.648 153.497 538.648 152.63 537.987 151.467Z" fill="white"/>
<path opacity="0.4" d="M544.795 229.669C540.497 228.96 536.387 227.207 532.752 224.531C532.156 224.122 531.648 223.569 531.265 222.912C530.882 222.256 530.633 221.512 530.536 220.734C530.44 219.956 530.497 219.164 530.706 218.414C530.914 217.664 531.267 216.976 531.74 216.398C532.564 215.396 533.675 214.75 534.879 214.574C536.082 214.399 537.303 214.704 538.327 215.436C540.881 217.324 543.788 218.522 546.822 218.939C549.623 219.923 552.595 220.129 555.482 219.538C556.683 219.338 557.908 219.618 558.944 220.329C559.98 221.04 560.761 222.138 561.151 223.431C561.375 224.175 561.449 224.966 561.368 225.746C561.287 226.526 561.053 227.277 560.684 227.943C560.314 228.609 559.818 229.175 559.23 229.6C558.643 230.024 557.979 230.297 557.287 230.398C553.127 231.211 548.858 230.962 544.795 229.669Z" fill="white"/>
</g>
<g opacity="0.05">
<path d="M746.068 135.346C745.427 134.951 744.674 134.858 743.973 135.088C743.271 135.317 742.68 135.85 742.327 136.57L739.997 141.272C739.679 141.896 739.59 142.636 739.75 143.332C739.91 144.029 740.305 144.627 740.852 145C745.546 148.12 749.284 152.775 751.567 158.344C753.85 163.914 754.57 170.134 753.632 176.176L736.32 170.212C736.203 168.785 735.858 167.394 735.3 166.105C734.598 164.594 733.637 163.254 732.473 162.16C731.31 161.067 729.966 160.242 728.519 159.734C727.073 159.225 725.551 159.042 724.041 159.195C722.531 159.348 721.063 159.835 719.72 160.627C716.949 162.058 714.794 164.666 713.726 167.881C712.659 171.095 712.767 174.653 714.025 177.779C714.593 179.072 715.365 180.239 716.304 181.223L709.919 200.465C704.886 197.503 700.817 192.821 698.298 187.093C695.78 181.365 694.941 174.885 695.903 168.587L696.09 167.435C696.165 167.059 696.168 166.669 696.099 166.291C696.03 165.914 695.89 165.557 695.69 165.245C695.489 164.932 695.232 164.671 694.936 164.478C694.639 164.285 694.309 164.165 693.969 164.126L689.278 163.441C688.59 163.332 687.89 163.519 687.319 163.965C686.748 164.412 686.348 165.085 686.199 165.849L685.991 167.067C684.681 175.506 685.768 184.194 689.098 191.898C692.998 200.845 699.649 207.899 707.818 211.752L708.191 211.933L712.901 213.684C713.874 213.824 714.86 213.565 715.677 212.954C716.494 212.344 717.088 211.422 717.351 210.359L725.844 184.658C727.132 184.416 728.378 183.946 729.536 183.267C730.738 182.614 731.836 181.741 732.785 180.684L757.249 189.047C758.032 189.296 758.869 189.212 759.601 188.811C760.332 188.41 760.907 187.719 761.214 186.871L761.671 185.433C765.138 174.998 764.796 163.443 760.719 153.29C757.583 145.762 752.469 139.499 746.068 135.346Z" fill="white"/>
<path opacity="0.4" d="M694.41 155.409C693.751 155.143 693.152 154.715 692.659 154.155C692.166 153.595 691.79 152.919 691.559 152.174C691.328 151.43 691.248 150.637 691.325 149.854C691.401 149.07 691.633 148.316 692.002 147.646C695.407 140.433 700.896 134.742 707.564 131.514C713.936 127.605 721.297 126.243 728.445 127.65C729.141 127.733 729.81 127.99 730.406 128.402C731.001 128.815 731.506 129.372 731.885 130.033C732.263 130.694 732.505 131.443 732.593 132.223C732.68 133.003 732.611 133.796 732.391 134.542C732 135.833 731.227 136.934 730.2 137.658C729.173 138.383 727.955 138.687 726.752 138.519C721.639 137.4 716.34 138.352 711.791 141.206C706.982 143.451 703.052 147.568 700.718 152.804C700.1 153.996 699.132 154.908 697.981 155.383C696.83 155.859 695.567 155.868 694.41 155.409Z" fill="white"/>
<path opacity="0.4" d="M742.571 212.315C738.796 214.733 734.599 216.198 730.27 216.607C729.576 216.697 728.874 216.613 728.212 216.361C727.551 216.109 726.948 215.695 726.446 215.15C725.944 214.604 725.556 213.939 725.31 213.204C725.063 212.469 724.965 211.682 725.022 210.899C725.123 209.538 725.645 208.261 726.497 207.288C727.349 206.316 728.478 205.711 729.686 205.579C732.732 205.297 735.678 204.228 738.297 202.455C741.043 201.291 743.497 199.395 745.449 196.93C746.285 195.94 747.404 195.312 748.61 195.155C749.815 194.998 751.032 195.322 752.047 196.07C752.63 196.502 753.121 197.074 753.485 197.745C753.848 198.415 754.074 199.169 754.148 199.95C754.221 200.731 754.139 201.52 753.909 202.262C753.678 203.003 753.304 203.678 752.814 204.237C749.981 207.759 746.48 210.52 742.571 212.315Z" fill="white"/>
</g>
<g opacity="0.05">
<path d="M939.24 166.476C938.818 165.805 938.177 165.35 937.458 165.211C936.738 165.071 935.999 165.259 935.402 165.731L931.475 168.809C930.946 169.213 930.578 169.833 930.45 170.538C930.322 171.243 930.445 171.976 930.791 172.581C933.794 177.7 935.34 183.727 935.221 189.859C935.103 195.991 933.327 201.937 930.129 206.904L916.893 193.006C917.344 191.666 917.576 190.245 917.577 188.812C917.534 187.107 917.193 185.429 916.573 183.872C915.954 182.316 915.067 180.912 913.965 179.741C912.863 178.571 911.566 177.656 910.15 177.049C908.733 176.442 907.224 176.155 905.709 176.205C902.66 176.125 899.706 177.406 897.495 179.768C895.283 182.131 893.993 185.382 893.906 188.812C893.913 190.255 894.152 191.684 894.612 193.031L881.376 207.177C878.006 202.033 876.173 195.818 876.142 189.428C876.11 183.037 877.881 176.8 881.2 171.613L881.817 170.67C882.031 170.369 882.185 170.02 882.27 169.647C882.355 169.273 882.369 168.884 882.311 168.504C882.252 168.124 882.123 167.763 881.932 167.443C881.74 167.123 881.491 166.853 881.2 166.65L877.251 163.721C876.675 163.283 875.972 163.106 875.285 163.226C874.598 163.346 873.976 163.753 873.545 164.366L872.883 165.359C868.417 172.298 866.009 180.643 866 189.209C866.019 199.174 869.248 208.794 875.089 216.285L875.354 216.633L878.905 220.529C879.725 221.135 880.712 221.388 881.684 221.242C882.656 221.096 883.549 220.561 884.2 219.735L901.848 200.824C903.1 201.241 904.403 201.434 905.709 201.395C907.044 201.4 908.371 201.157 909.635 200.675L928.365 220.256C928.971 220.867 929.757 221.204 930.571 221.204C931.384 221.204 932.17 220.867 932.777 220.256L933.747 219.189C940.93 211.52 945.125 200.966 945.417 189.83C945.532 181.517 943.376 173.366 939.24 166.476Z" fill="white"/>
<path opacity="0.4" d="M884.994 159.03C884.504 158.466 884.133 157.786 883.908 157.039C883.683 156.293 883.608 155.499 883.691 154.717C883.773 153.934 884.01 153.182 884.385 152.515C884.759 151.849 885.261 151.285 885.854 150.865C891.725 146.061 898.876 143.654 906.127 144.04C913.377 143.67 920.524 146.076 926.401 150.865C926.993 151.282 927.495 151.844 927.869 152.508C928.244 153.172 928.481 153.923 928.563 154.704C928.646 155.484 928.572 156.276 928.346 157.021C928.121 157.765 927.75 158.443 927.261 159.005C926.407 159.974 925.283 160.581 924.078 160.726C922.872 160.87 921.659 160.543 920.643 159.8C916.484 156.272 911.35 154.514 906.149 154.836C900.952 154.482 895.816 156.244 891.678 159.8C890.658 160.566 889.433 160.908 888.213 160.768C886.993 160.627 885.854 160.013 884.994 159.03Z" fill="white"/>
<path opacity="0.4" d="M906.106 233.93C901.771 234.243 897.428 233.489 893.378 231.722C892.719 231.461 892.12 231.039 891.624 230.486C891.128 229.934 890.747 229.264 890.508 228.526C890.27 227.788 890.18 226.999 890.245 226.217C890.31 225.435 890.529 224.679 890.885 224.003C891.506 222.83 892.473 221.939 893.618 221.485C894.763 221.032 896.013 221.045 897.15 221.522C899.997 222.77 903.062 223.263 906.106 222.961C909.028 223.268 911.973 222.775 914.688 221.522C915.825 221.045 917.075 221.032 918.22 221.485C919.365 221.939 920.332 222.83 920.953 224.003C921.309 224.679 921.528 225.435 921.593 226.217C921.658 226.999 921.568 227.788 921.329 228.526C921.091 229.264 920.71 229.934 920.214 230.486C919.718 231.039 919.119 231.461 918.46 231.722C914.541 233.49 910.319 234.245 906.106 233.93Z" fill="white"/>
</g>
<g opacity="0.05">
<path d="M1170.24 156.351C1169.82 155.68 1169.18 155.225 1168.46 155.086C1167.74 154.946 1167 155.134 1166.4 155.606L1162.48 158.684C1161.95 159.088 1161.58 159.708 1161.45 160.413C1161.32 161.118 1161.44 161.851 1161.79 162.456C1164.79 167.575 1166.34 173.602 1166.22 179.734C1166.1 185.866 1164.33 191.812 1161.13 196.779L1147.89 182.881C1148.34 181.541 1148.58 180.12 1148.58 178.687C1148.53 176.982 1148.19 175.304 1147.57 173.747C1146.95 172.191 1146.07 170.787 1144.97 169.616C1143.86 168.446 1142.57 167.531 1141.15 166.924C1139.73 166.317 1138.22 166.03 1136.71 166.08C1133.66 166 1130.71 167.281 1128.49 169.643C1126.28 172.006 1124.99 175.257 1124.91 178.687C1124.91 180.13 1125.15 181.559 1125.61 182.906L1112.38 197.052C1109.01 191.908 1107.17 185.693 1107.14 179.303C1107.11 172.912 1108.88 166.675 1112.2 161.488L1112.82 160.545C1113.03 160.244 1113.19 159.895 1113.27 159.522C1113.36 159.148 1113.37 158.759 1113.31 158.379C1113.25 157.999 1113.12 157.638 1112.93 157.318C1112.74 156.998 1112.49 156.728 1112.2 156.525L1108.25 153.596C1107.67 153.158 1106.97 152.981 1106.29 153.101C1105.6 153.221 1104.98 153.628 1104.54 154.241L1103.88 155.234C1099.42 162.173 1097.01 170.518 1097 179.084C1097.02 189.049 1100.25 198.669 1106.09 206.16L1106.35 206.508L1109.91 210.404C1110.73 211.01 1111.71 211.263 1112.68 211.117C1113.66 210.971 1114.55 210.436 1115.2 209.61L1132.85 190.699C1134.1 191.116 1135.4 191.309 1136.71 191.27C1138.04 191.275 1139.37 191.032 1140.64 190.55L1159.36 210.131C1159.97 210.742 1160.76 211.079 1161.57 211.079C1162.38 211.079 1163.17 210.742 1163.78 210.131L1164.75 209.064C1171.93 201.395 1176.13 190.841 1176.42 179.705C1176.53 171.392 1174.38 163.241 1170.24 156.351Z" fill="white"/>
<path opacity="0.4" d="M1115.99 148.905C1115.5 148.341 1115.13 147.661 1114.91 146.914C1114.68 146.168 1114.61 145.374 1114.69 144.592C1114.77 143.809 1115.01 143.057 1115.38 142.39C1115.76 141.724 1116.26 141.16 1116.85 140.74C1122.72 135.936 1129.88 133.529 1137.13 133.915C1144.38 133.545 1151.52 135.951 1157.4 140.74C1157.99 141.157 1158.5 141.719 1158.87 142.383C1159.24 143.047 1159.48 143.798 1159.56 144.579C1159.65 145.359 1159.57 146.151 1159.35 146.896C1159.12 147.64 1158.75 148.318 1158.26 148.88C1157.41 149.849 1156.28 150.456 1155.08 150.601C1153.87 150.745 1152.66 150.418 1151.64 149.675C1147.48 146.147 1142.35 144.389 1137.15 144.711C1131.95 144.357 1126.82 146.119 1122.68 149.675C1121.66 150.441 1120.43 150.783 1119.21 150.643C1117.99 150.502 1116.85 149.888 1115.99 148.905Z" fill="white"/>
<path opacity="0.4" d="M1137.11 223.805C1132.77 224.118 1128.43 223.364 1124.38 221.597C1123.72 221.336 1123.12 220.914 1122.62 220.361C1122.13 219.809 1121.75 219.139 1121.51 218.401C1121.27 217.663 1121.18 216.874 1121.25 216.092C1121.31 215.31 1121.53 214.554 1121.88 213.878C1122.51 212.705 1123.47 211.814 1124.62 211.36C1125.76 210.907 1127.01 210.92 1128.15 211.397C1131 212.645 1134.06 213.138 1137.11 212.836C1140.03 213.143 1142.97 212.65 1145.69 211.397C1146.83 210.92 1148.08 210.907 1149.22 211.36C1150.37 211.814 1151.33 212.705 1151.95 213.878C1152.31 214.554 1152.53 215.31 1152.59 216.092C1152.66 216.874 1152.57 217.663 1152.33 218.401C1152.09 219.139 1151.71 219.809 1151.21 220.361C1150.72 220.914 1150.12 221.336 1149.46 221.597C1145.54 223.365 1141.32 224.12 1137.11 223.805Z" fill="white"/>
</g>
<g opacity="0.05">
<path d="M581.24 -18.024C580.818 -18.6946 580.177 -19.1495 579.458 -19.2891C578.738 -19.4287 577.999 -19.2415 577.402 -18.7685L573.475 -15.6911C572.946 -15.2873 572.578 -14.6666 572.45 -13.9617C572.322 -13.2567 572.445 -12.5235 572.791 -11.9188C575.794 -6.79982 577.34 -0.772955 577.221 5.35893C577.103 11.4908 575.327 17.4366 572.129 22.4043L558.893 8.5063C559.344 7.16617 559.576 5.74514 559.577 4.31208C559.534 2.60734 559.193 0.928801 558.573 -0.627588C557.954 -2.18398 557.067 -3.58771 555.965 -4.75855C554.863 -5.9294 553.566 -6.84441 552.15 -7.45128C550.733 -8.05815 549.224 -8.34498 547.709 -8.29539C544.66 -8.3755 541.706 -7.09422 539.495 -4.73169C537.283 -2.36916 535.993 0.882404 535.906 4.31208C535.913 5.75491 536.152 7.18447 536.612 8.53111L523.376 22.6773C520.006 17.5327 518.173 11.3182 518.142 4.92761C518.11 -1.46294 519.881 -7.70012 523.2 -12.8867L523.817 -13.8298C524.031 -14.1312 524.185 -14.4801 524.27 -14.8535C524.355 -15.2268 524.369 -15.6162 524.311 -15.996C524.252 -16.3758 524.123 -16.7374 523.932 -17.057C523.74 -17.3766 523.491 -17.6469 523.2 -17.8503L519.251 -20.7788C518.675 -21.2168 517.972 -21.3937 517.285 -21.274C516.598 -21.1544 515.976 -20.747 515.545 -20.1335L514.883 -19.1408C510.417 -12.2023 508.009 -3.85706 508 4.70916C508.019 14.6742 511.248 24.2937 517.089 31.7854L517.354 32.1329L520.905 36.0293C521.725 36.6348 522.712 36.8878 523.684 36.7419C524.656 36.5961 525.549 36.0612 526.2 35.2351L543.848 16.3239C545.1 16.7409 546.403 16.9336 547.709 16.8947C549.044 16.9 550.371 16.6568 551.635 16.175L570.365 35.7563C570.971 36.3668 571.757 36.7043 572.571 36.7043C573.384 36.7043 574.17 36.3668 574.777 35.7563L575.747 34.6891C582.93 27.0199 587.125 16.4657 587.417 5.32961C587.532 -2.98276 585.376 -11.1344 581.24 -18.024Z" fill="white"/>
<path opacity="0.4" d="M548.106 49.4304C543.771 49.7427 539.428 48.9889 535.378 47.2217C534.719 46.9608 534.12 46.5388 533.624 45.9862C533.128 45.4336 532.747 44.764 532.508 44.0258C532.27 43.2876 532.18 42.499 532.245 41.717C532.31 40.935 532.529 40.1789 532.885 39.5033C533.506 38.33 534.473 37.4389 535.618 36.9854C536.763 36.5318 538.013 36.5446 539.15 37.0215C541.997 38.2704 545.062 38.763 548.106 38.4609C551.028 38.7684 553.973 38.2745 556.688 37.0215C557.825 36.5446 559.075 36.5318 560.22 36.9854C561.365 37.4389 562.332 38.33 562.953 39.5033C563.309 40.1789 563.528 40.935 563.593 41.717C563.658 42.499 563.568 43.2876 563.329 44.0258C563.091 44.764 562.71 45.4336 562.214 45.9862C561.718 46.5388 561.119 46.9608 560.46 47.2217C556.541 48.9901 552.319 49.745 548.106 49.4304Z" fill="white"/>
</g>
<g opacity="0.05">
<path d="M811.24 -21.399C810.818 -22.0696 810.177 -22.5245 809.458 -22.6641C808.738 -22.8037 807.999 -22.6165 807.402 -22.1435L803.475 -19.0661C802.946 -18.6623 802.578 -18.0416 802.45 -17.3367C802.322 -16.6317 802.445 -15.8985 802.791 -15.2938C805.794 -10.1748 807.34 -4.14795 807.221 1.98393C807.103 8.11582 805.327 14.0616 802.129 19.0293L788.893 5.1313C789.344 3.79117 789.576 2.37014 789.577 0.937078C789.534 -0.767664 789.193 -2.4462 788.573 -4.00259C787.954 -5.55898 787.067 -6.96271 785.965 -8.13355C784.863 -9.3044 783.566 -10.2194 782.15 -10.8263C780.733 -11.4331 779.224 -11.72 777.709 -11.6704C774.66 -11.7505 771.706 -10.4692 769.495 -8.10669C767.283 -5.74416 765.993 -2.4926 765.906 0.937078C765.913 2.37991 766.152 3.80947 766.612 5.15611L753.376 19.3023C750.006 14.1577 748.173 7.94317 748.142 1.55261C748.11 -4.83794 749.881 -11.0751 753.2 -16.2617L753.817 -17.2048C754.031 -17.5062 754.185 -17.8551 754.27 -18.2285C754.355 -18.6018 754.369 -18.9912 754.311 -19.371C754.252 -19.7508 754.123 -20.1124 753.932 -20.432C753.74 -20.7516 753.491 -21.0219 753.2 -21.2253L749.251 -24.1538C748.675 -24.5918 747.972 -24.7687 747.285 -24.649C746.598 -24.5294 745.976 -24.122 745.545 -23.5085L744.883 -22.5158C740.417 -15.5773 738.009 -7.23206 738 1.33416C738.019 11.2992 741.248 20.9187 747.089 28.4104L747.354 28.7579L750.905 32.6543C751.725 33.2598 752.712 33.5128 753.684 33.3669C754.656 33.2211 755.549 32.6862 756.2 31.8601L773.848 12.9489C775.1 13.3659 776.403 13.5586 777.709 13.5197C779.044 13.525 780.371 13.2818 781.635 12.8L800.365 32.3813C800.971 32.9918 801.757 33.3293 802.571 33.3293C803.384 33.3293 804.17 32.9918 804.777 32.3813L805.747 31.3141C812.93 23.6449 817.125 13.0907 817.417 1.95461C817.532 -6.35776 815.376 -14.5094 811.24 -21.399Z" fill="white"/>
<path opacity="0.4" d="M778.106 46.0554C773.771 46.3677 769.428 45.6139 765.378 43.8467C764.719 43.5858 764.12 43.1638 763.624 42.6112C763.128 42.0586 762.747 41.389 762.508 40.6508C762.27 39.9126 762.18 39.124 762.245 38.342C762.31 37.56 762.529 36.8039 762.885 36.1283C763.506 34.955 764.473 34.0639 765.618 33.6104C766.763 33.1568 768.013 33.1696 769.15 33.6465C771.997 34.8954 775.062 35.388 778.106 35.0859C781.028 35.3934 783.973 34.8995 786.688 33.6465C787.825 33.1696 789.075 33.1568 790.22 33.6104C791.365 34.0639 792.332 34.955 792.953 36.1283C793.309 36.8039 793.528 37.56 793.593 38.342C793.658 39.124 793.568 39.9126 793.329 40.6508C793.091 41.389 792.71 42.0586 792.214 42.6112C791.718 43.1638 791.119 43.5858 790.46 43.8467C786.541 45.6151 782.319 46.37 778.106 46.0554Z" fill="white"/>
</g>
<g opacity="0.05">
<path d="M994.24 -50.649C993.818 -51.3196 993.177 -51.7745 992.458 -51.9141C991.738 -52.0537 990.999 -51.8665 990.402 -51.3935L986.475 -48.3161C985.946 -47.9123 985.578 -47.2916 985.45 -46.5867C985.322 -45.8817 985.445 -45.1485 985.791 -44.5438C988.794 -39.4248 990.34 -33.398 990.221 -27.2661C990.103 -21.1342 988.327 -15.1884 985.129 -10.2207L971.893 -24.1187C972.344 -25.4588 972.576 -26.8799 972.577 -28.3129C972.534 -30.0177 972.193 -31.6962 971.573 -33.2526C970.954 -34.809 970.067 -36.2127 968.965 -37.3836C967.863 -38.5544 966.566 -39.4694 965.15 -40.0763C963.733 -40.6831 962.224 -40.97 960.709 -40.9204C957.66 -41.0005 954.706 -39.7192 952.495 -37.3567C950.283 -34.9942 948.993 -31.7426 948.906 -28.3129C948.913 -26.8701 949.152 -25.4405 949.612 -24.0939L936.376 -9.94771C933.006 -15.0923 931.173 -21.3068 931.142 -27.6974C931.11 -34.0879 932.881 -40.3251 936.2 -45.5117L936.817 -46.4548C937.031 -46.7562 937.185 -47.1051 937.27 -47.4785C937.355 -47.8518 937.369 -48.2412 937.311 -48.621C937.252 -49.0008 937.123 -49.3624 936.932 -49.682C936.74 -50.0016 936.491 -50.2719 936.2 -50.4753L932.251 -53.4038C931.675 -53.8418 930.972 -54.0187 930.285 -53.899C929.598 -53.7794 928.976 -53.372 928.545 -52.7585L927.883 -51.7658C923.417 -44.8273 921.009 -36.4821 921 -27.9158C921.019 -17.9508 924.248 -8.33133 930.089 -0.839558L930.354 -0.492107L933.905 3.40429C934.725 4.0098 935.712 4.26278 936.684 4.11694C937.656 3.9711 938.549 3.43618 939.2 2.61012L956.848 -16.3011C958.1 -15.8841 959.403 -15.6914 960.709 -15.7303C962.044 -15.725 963.371 -15.9682 964.635 -16.45L983.365 3.13129C983.971 3.74176 984.757 4.07925 985.571 4.07925C986.384 4.07925 987.17 3.74176 987.777 3.13129L988.747 2.06413C995.93 -5.60514 1000.13 -16.1593 1000.42 -27.2954C1000.53 -35.6078 998.376 -43.7594 994.24 -50.649Z" fill="white"/>
<path opacity="0.4" d="M961.106 16.8054C956.771 17.1177 952.428 16.3639 948.378 14.5967C947.719 14.3358 947.12 13.9138 946.624 13.3612C946.128 12.8086 945.747 12.139 945.508 11.4008C945.27 10.6626 945.18 9.87403 945.245 9.092C945.31 8.30996 945.529 7.55391 945.885 6.8783C946.506 5.70495 947.473 4.81387 948.618 4.36036C949.763 3.90684 951.013 3.91964 952.15 4.39651C954.997 5.64539 958.062 6.13798 961.106 5.83594C964.028 6.14341 966.973 5.6495 969.688 4.39651C970.825 3.91964 972.075 3.90684 973.22 4.36036C974.365 4.81387 975.332 5.70495 975.953 6.8783C976.309 7.55391 976.528 8.30996 976.593 9.092C976.658 9.87403 976.568 10.6626 976.329 11.4008C976.091 12.139 975.71 12.8086 975.214 13.3612C974.718 13.9138 974.119 14.3358 973.46 14.5967C969.541 16.3651 965.319 17.12 961.106 16.8054Z" fill="white"/>
</g>
<defs>
<linearGradient id="paint0_linear_863_1067" x1="0" y1="90" x2="1200" y2="90" gradientUnits="userSpaceOnUse">
<stop stop-color="#F13F81"/>
<stop offset="0.515" stop-color="#9B58D5"/>
<stop offset="1" stop-color="#5477FF"/>
</linearGradient>
</defs>
</svg>