<svg width="229" height="229" viewBox="0 0 229 229" fill="none" xmlns="http://www.w3.org/2000/svg">
<path d="M75.2032 175.885C75.2199 175.934 75.2388 175.984 75.2611 176.03C75.2879 176.101 75.3185 176.171 75.3508 176.24C75.3584 176.256 75.366 176.273 75.3754 176.289C75.4027 176.346 75.4301 176.404 75.461 176.458C75.4732 176.482 75.4854 176.506 75.4995 176.53C75.5142 176.559 75.5306 176.587 75.5451 176.614C75.5498 176.621 75.5544 176.629 75.5571 176.636C75.5761 176.669 75.5969 176.702 75.6178 176.734C75.6555 176.798 75.6949 176.86 75.7381 176.921C75.7567 176.95 75.775 176.977 75.7974 177.006C75.7999 177.012 75.8024 177.017 75.8069 177.022C75.8299 177.057 75.8545 177.089 75.8792 177.121C75.8816 177.125 75.886 177.13 75.8902 177.134C75.9174 177.172 75.9466 177.209 75.9774 177.245C75.982 177.252 75.9886 177.259 75.9932 177.266C76 177.275 76.0085 177.282 76.0152 177.291C76.0397 177.321 76.064 177.35 76.0902 177.378C76.1586 177.458 76.2286 177.534 76.3041 177.607C76.3389 177.644 76.3755 177.679 76.4159 177.714C76.4893 177.785 76.568 177.853 76.6504 177.918C76.676 177.94 76.7054 177.962 76.7349 177.984C76.7518 177.998 76.7706 178.011 76.7872 178.021C76.838 178.062 76.8903 178.1 76.942 178.131C76.9507 178.14 76.957 178.145 76.9651 178.148C77.0299 178.193 77.0962 178.235 77.1643 178.274C77.2037 178.299 77.2448 178.322 77.2857 178.343C77.3578 178.383 77.4314 178.42 77.5048 178.455C77.5334 178.47 77.562 178.484 77.5904 178.497L71.2363 175.859C69.7257 175.231 68.6105 173.741 68.408 171.777L63.5838 125.049L70.0452 127.731L74.8695 174.46L74.8721 174.485C74.8789 174.55 74.8875 174.613 74.896 174.676C74.8977 174.692 74.901 174.705 74.9026 174.72C74.9038 174.732 74.905 174.743 74.9081 174.754C74.9089 174.762 74.9115 174.768 74.9123 174.775C74.9187 174.836 74.9309 174.897 74.9429 174.956C74.9451 174.977 74.9492 174.998 74.9551 175.017C74.9655 175.079 74.9796 175.14 74.9935 175.198C74.9981 175.223 75.0045 175.248 75.0108 175.27C75.0212 175.314 75.0313 175.355 75.0436 175.398C75.0444 175.406 75.045 175.412 75.0495 175.417C75.0501 175.423 75.0526 175.429 75.0551 175.434C75.0674 175.477 75.0778 175.521 75.0916 175.56C75.0941 175.566 75.0945 175.569 75.097 175.575C75.098 175.584 75.0988 175.592 75.1056 175.601C75.1183 175.648 75.1327 175.693 75.149 175.738C75.1657 175.787 75.1827 175.837 75.2032 175.885Z" fill="#7C63AD"/>
<path d="M151.302 50.4576L157.642 53.0911C157.38 52.9909 157.107 52.9189 156.825 52.873C156.798 52.8681 156.772 52.8631 156.745 52.8601C156.745 52.8601 156.743 52.8596 156.741 52.8586C156.686 52.8509 156.629 52.8433 156.572 52.8396C156.564 52.8365 156.554 52.8356 156.545 52.8366C156.478 52.8281 156.41 52.8237 156.342 52.8212C156.275 52.8165 156.207 52.8159 156.14 52.8153L156.082 52.8156C155.724 52.8183 155.355 52.8649 154.983 52.9582L112.337 63.5909L105.875 60.9082L148.522 50.2755C149.512 50.028 150.468 50.1096 151.302 50.4576Z" fill="#58994D"/>
<path d="M112.337 63.5932L69.691 74.226C66.9077 74.9213 64.9085 77.9549 65.223 81.0029L70.0454 127.732L63.5839 125.049L58.7616 78.3202C58.447 75.2722 60.4462 72.2386 63.2297 71.5452L105.876 60.9105L112.337 63.5932Z" fill="#4254BC"/>
<path d="M124.794 149.056C125.223 149.034 125.664 148.969 126.107 148.858C126.162 148.845 126.217 148.831 126.363 148.789C126.397 148.779 126.437 148.767 126.482 148.755C128.414 148.164 130.068 146.784 131.182 145.015C131.22 144.959 131.253 144.903 131.288 144.847C131.348 144.752 131.403 144.655 131.459 144.556C131.462 144.552 131.464 144.546 131.467 144.542C131.506 144.472 131.545 144.4 131.582 144.33C131.59 144.316 131.598 144.299 131.606 144.283C132.505 142.572 132.906 140.581 132.632 138.602C132.543 137.959 132.382 137.35 132.16 136.787C132.117 136.667 132.07 136.552 132.015 136.438C131.99 136.38 131.965 136.325 131.937 136.268C131.92 136.227 131.9 136.187 131.878 136.146C131.844 136.076 131.807 136.006 131.771 135.937C131.73 135.86 131.687 135.783 131.642 135.708C131.611 135.651 131.576 135.597 131.544 135.542C131.499 135.47 131.451 135.397 131.405 135.325C131.347 135.24 131.288 135.157 131.225 135.074C131.209 135.051 131.193 135.027 131.173 135.004C131.113 134.923 131.05 134.843 130.985 134.764C130.901 134.663 130.813 134.564 130.722 134.467C130.687 134.428 130.65 134.389 130.611 134.351C130.568 134.307 130.524 134.263 130.479 134.221C130.393 134.135 130.303 134.054 130.207 133.975C129.036 132.963 127.537 132.408 125.911 132.457C125.861 132.456 125.811 132.458 125.761 132.461C125.749 132.462 125.738 132.462 125.726 132.463L125.695 132.466C125.695 132.466 125.684 132.465 125.678 132.466C125.641 132.468 125.603 132.47 125.565 132.476C125.505 132.478 125.446 132.484 125.381 132.493C125.34 132.497 125.298 132.502 125.254 132.508L125.224 132.512C125.069 132.53 124.922 132.553 124.776 132.584C124.744 132.591 124.712 132.6 124.68 132.609C124.674 132.61 124.669 132.611 124.663 132.611L124.659 132.612C124.589 132.625 124.515 132.64 124.436 132.658C123.047 133.004 121.793 133.753 120.759 134.766C120.671 134.849 120.585 134.938 120.501 135.026C120.402 135.131 120.305 135.238 120.21 135.351C120.169 135.398 120.127 135.445 120.088 135.495C120.052 135.538 120.016 135.582 119.98 135.627C119.918 135.703 119.857 135.783 119.797 135.863L117.73 115.841L136.002 111.285L135.998 111.282L136.002 111.281C135.925 111.212 135.85 111.143 135.773 111.069C135.699 110.996 135.625 110.918 135.553 110.841C134.569 109.771 133.877 108.29 133.618 106.178C133.594 105.841 133.587 105.569 133.589 105.325C133.59 105.137 133.599 104.95 133.615 104.764C133.823 102.176 135.115 99.7265 137.015 98.1305C137.943 97.3552 139.019 96.7812 140.189 96.4878C140.272 96.4675 140.353 96.4492 140.437 96.4308C142.831 95.9216 145.088 96.7436 146.597 98.4422C146.669 98.5217 146.738 98.6055 146.805 98.6914C146.841 98.7341 146.872 98.7773 146.906 98.8202C147.632 99.778 148.145 100.971 148.364 102.339L148.365 102.346C148.382 102.472 148.392 102.553 148.4 102.608C148.407 102.65 148.411 102.692 148.416 102.736C148.43 102.876 148.441 103.014 148.45 103.155C148.494 104.031 148.39 104.981 148.011 106.46C147.666 107.484 147.444 107.972 147.202 108.402C147.201 108.406 147.199 108.408 147.197 108.41C147.178 108.441 147.16 108.474 147.142 108.505L165.416 103.951L170.24 150.678C170.555 153.728 168.552 156.764 165.771 157.457L123.125 168.09L121.057 148.068C121.111 148.103 121.167 148.138 121.223 148.171C121.279 148.206 121.336 148.238 121.394 148.269C121.45 148.304 121.507 148.335 121.566 148.363C121.798 148.486 122.038 148.591 122.283 148.679C122.652 148.816 123.036 148.919 123.432 148.98C123.497 148.993 123.564 149.003 123.631 149.01C123.696 149.02 123.762 149.027 123.831 149.031C123.897 149.038 123.964 149.045 124.032 149.049C124.094 149.052 124.159 149.057 124.221 149.058C124.26 149.06 124.301 149.062 124.339 149.061C124.403 149.062 124.467 149.063 124.533 149.062C124.62 149.061 124.707 149.059 124.794 149.054L124.794 149.056Z" fill="#008560"/>
<path d="M125.713 132.464L125.726 132.463C125.788 132.46 125.85 132.459 125.911 132.457C127.556 132.427 129.043 132.98 130.207 133.975C130.299 134.054 130.391 134.136 130.479 134.221C130.524 134.263 130.567 134.307 130.611 134.351C130.648 134.389 130.687 134.428 130.722 134.467C130.813 134.564 130.901 134.663 130.985 134.764C131.05 134.843 131.112 134.922 131.173 135.004C131.193 135.027 131.209 135.051 131.225 135.074C131.288 135.157 131.347 135.24 131.404 135.325C131.451 135.397 131.499 135.47 131.544 135.542C131.576 135.597 131.611 135.651 131.642 135.708C131.687 135.783 131.73 135.86 131.771 135.937C131.807 136.007 131.844 136.076 131.878 136.146C131.9 136.187 131.92 136.227 131.937 136.268C131.965 136.325 131.99 136.38 132.015 136.438C132.066 136.553 132.115 136.669 132.16 136.787C132.443 137.518 132.624 138.324 132.688 139.189C132.817 140.966 132.408 142.739 131.606 144.283C131.598 144.299 131.59 144.316 131.582 144.33C131.543 144.402 131.506 144.472 131.467 144.542C131.464 144.546 131.462 144.552 131.459 144.556C131.403 144.653 131.346 144.75 131.288 144.847C131.253 144.903 131.22 144.959 131.182 145.015C130.054 146.778 128.371 148.161 126.363 148.789C126.217 148.831 126.162 148.845 126.107 148.858C125.664 148.969 125.223 149.034 124.794 149.056C124.707 149.061 124.62 149.063 124.533 149.064C124.469 149.065 124.404 149.066 124.339 149.063C124.299 149.064 124.26 149.062 124.221 149.06C124.159 149.059 124.094 149.054 124.032 149.051C123.964 149.047 123.897 149.04 123.831 149.033C123.762 149.027 123.696 149.02 123.631 149.012C123.564 149.003 123.497 148.993 123.432 148.982C123.036 148.917 122.652 148.816 122.283 148.681C122.037 148.591 121.798 148.484 121.566 148.365C121.507 148.335 121.45 148.304 121.394 148.271C121.336 148.24 121.281 148.207 121.223 148.173C121.167 148.14 121.111 148.105 121.057 148.07L123.125 168.091L80.4803 178.724C79.4556 178.979 78.4676 178.883 77.6127 178.506C77.6046 178.503 77.5985 178.5 77.5904 178.497C77.562 178.485 77.5334 178.47 77.5047 178.456C77.4314 178.421 77.3578 178.384 77.2857 178.343C77.2448 178.322 77.2037 178.3 77.1642 178.275C77.0962 178.235 77.0299 178.194 76.9651 178.148C76.957 178.145 76.9507 178.14 76.942 178.132C76.8903 178.1 76.838 178.063 76.7872 178.022C76.7706 178.012 76.7518 177.999 76.7349 177.985C76.7054 177.963 76.6777 177.939 76.6504 177.918C76.57 177.853 76.4912 177.786 76.4159 177.714C76.3774 177.68 76.3409 177.645 76.3041 177.608C76.2286 177.535 76.1586 177.459 76.0902 177.379C76.064 177.35 76.0397 177.322 76.0152 177.292C76.0019 177.276 75.9886 177.26 75.9774 177.245C75.9466 177.21 75.9174 177.172 75.8902 177.134C75.886 177.131 75.8815 177.126 75.8792 177.122C75.8545 177.09 75.8299 177.057 75.8069 177.023C75.8024 177.018 75.7999 177.012 75.7974 177.007C75.7769 176.978 75.7567 176.951 75.7381 176.922C75.6949 176.861 75.6555 176.799 75.6178 176.735C75.5969 176.702 75.578 176.669 75.5571 176.637C75.5544 176.629 75.5498 176.622 75.5451 176.615L75.5376 176.598C75.5237 176.576 75.5117 176.554 75.4995 176.531C75.4854 176.507 75.4732 176.483 75.461 176.459C75.43 176.404 75.4027 176.347 75.3754 176.29C75.366 176.273 75.3584 176.257 75.3508 176.24C75.3204 176.172 75.2898 176.101 75.2611 176.031C75.2405 175.983 75.2219 175.934 75.2032 175.886C75.1846 175.837 75.1659 175.789 75.149 175.739C75.1327 175.694 75.1183 175.649 75.1056 175.602C75.1007 175.593 75.098 175.585 75.097 175.576C75.0945 175.57 75.0941 175.566 75.0916 175.561C75.0795 175.519 75.0672 175.476 75.0551 175.435C75.0526 175.429 75.0501 175.424 75.0495 175.418C75.0469 175.412 75.0463 175.407 75.0436 175.399C75.0315 175.358 75.0213 175.316 75.0108 175.271C75.0045 175.248 74.9981 175.224 74.9935 175.199C74.9796 175.141 74.9655 175.08 74.9551 175.017C74.9492 174.999 74.9451 174.978 74.9429 174.957C74.9309 174.898 74.9206 174.837 74.9123 174.776C74.9114 174.768 74.9089 174.763 74.9081 174.755C74.9036 174.73 74.9008 174.703 74.896 174.677C74.8875 174.614 74.8789 174.551 74.8721 174.486L74.8695 174.461L70.0452 127.732L88.3178 123.176C88.2752 123.25 88.2329 123.326 88.1923 123.4C87.5736 124.534 87.1722 125.8 87.0426 127.109C87.0404 127.144 87.0364 127.18 87.0343 127.215C87.0338 127.228 87.0333 127.242 87.0306 127.254C87.0023 127.592 86.9915 127.932 87.0037 128.287C87.006 128.364 87.0083 128.441 87.0125 128.518L87.0135 128.528C87.0135 128.528 87.0153 128.545 87.0142 128.553C87.025 128.747 87.0434 128.941 87.0691 129.13L87.0705 129.144C87.0741 129.178 87.0777 129.213 87.0833 129.247C87.1055 129.403 87.1316 129.559 87.1592 129.711C87.171 129.768 87.1828 129.825 87.1963 129.88C87.2082 129.939 87.2202 129.997 87.2358 130.054C87.2478 130.113 87.2615 130.169 87.2791 130.225C87.3057 130.331 87.3359 130.434 87.368 130.538C87.3864 130.601 87.4087 130.667 87.429 130.731C87.4298 130.738 87.4323 130.744 87.4368 130.749C88.5675 134.137 91.7746 136.074 95.2729 135.199C95.3673 135.175 95.4634 135.15 95.5592 135.122C95.8712 135.031 96.1751 134.92 96.469 134.786C96.5265 134.763 96.5837 134.736 96.6409 134.708C96.6963 134.683 96.7499 134.658 96.8049 134.629C96.9103 134.581 97.0129 134.526 97.1134 134.469C97.117 134.467 97.1226 134.464 97.1262 134.462C97.1795 134.435 97.2305 134.404 97.2833 134.372C97.3364 134.343 97.3893 134.312 97.4399 134.278C97.491 134.247 97.5437 134.215 97.5945 134.182C97.638 134.154 97.6833 134.124 97.7267 134.095C97.7847 134.057 97.8405 134.017 97.8964 133.978C100.13 132.397 101.656 129.696 101.853 126.817C101.859 126.739 101.862 126.663 101.866 126.585C101.879 126.284 101.878 125.98 101.861 125.676C101.846 125.567 101.829 125.462 101.81 125.358L101.81 125.35C101.796 125.165 101.778 124.956 101.755 124.717C101.576 123.641 101.203 122.675 100.633 121.806C100.633 121.804 100.631 121.802 100.629 121.799C100.304 121.302 99.9118 120.836 99.4574 120.4L117.73 115.843L119.798 135.865C119.857 135.785 119.918 135.705 119.98 135.629C120.016 135.584 120.052 135.54 120.088 135.497C120.127 135.447 120.169 135.4 120.21 135.353C120.305 135.24 120.402 135.133 120.502 135.028C120.585 134.94 120.671 134.853 120.759 134.768C121.784 133.778 123.066 133.025 124.659 132.614L124.663 132.613C124.663 132.613 124.675 132.612 124.68 132.611C124.896 132.567 125.071 132.537 125.224 132.514L125.255 132.51C125.298 132.504 125.341 132.499 125.381 132.495C125.44 132.489 125.501 132.482 125.565 132.478C125.607 132.473 125.651 132.471 125.695 132.468L125.713 132.466L125.713 132.464Z" fill="#BB98F2"/>
<path d="M160.592 57.2227L165.414 103.952L147.145 108.506C147.163 108.475 147.179 108.444 147.198 108.413C147.199 108.411 147.201 108.409 147.202 108.405C147.481 107.909 147.721 107.386 147.911 106.841C147.946 106.712 147.98 106.586 148.011 106.463C148.067 106.294 148.125 106.112 148.19 105.913C148.408 105.023 148.502 104.093 148.45 103.157C148.441 103.017 148.43 102.879 148.416 102.739C148.411 102.695 148.407 102.653 148.4 102.611L148.392 102.534C148.384 102.473 148.375 102.41 148.365 102.349L148.364 102.341C148.159 100.978 147.644 99.7834 146.906 98.8229C146.874 98.7798 146.841 98.7368 146.805 98.6941C146.738 98.6082 146.669 98.5244 146.597 98.4449C145.041 96.6699 142.691 95.8596 140.188 96.4828C140.094 96.5063 139.998 96.5319 139.904 96.5611C138.846 96.8698 137.869 97.4141 137.015 98.1332C135.115 99.7292 133.823 102.179 133.615 104.767C133.6 104.952 133.59 105.139 133.589 105.327C133.583 105.57 133.587 105.814 133.603 106.058C133.608 106.1 133.612 106.14 133.618 106.18C133.627 106.303 133.637 106.434 133.65 106.576C133.857 108.301 134.55 109.76 135.553 110.843C135.625 110.921 135.699 110.998 135.773 111.072C135.848 111.145 135.921 111.215 135.998 111.285L117.73 115.84L115.664 95.8225L115.664 95.8187C114.494 97.3805 112.879 98.5592 111.026 99.0232C110.192 99.2309 109.377 99.2777 108.603 99.1868C108.536 99.1802 108.468 99.17 108.401 99.1596C106.462 98.8657 104.795 97.6892 103.784 95.919C103.751 95.8624 103.72 95.8056 103.689 95.747C103.597 95.5746 103.51 95.3958 103.429 95.2126C103.074 94.3979 102.847 93.4864 102.774 92.4949C102.514 88.9376 104.42 85.389 107.302 83.6744C107.4 83.6137 107.501 83.5586 107.603 83.5033C108.043 83.2673 108.505 83.0735 108.982 82.9285C109.105 82.8903 109.23 82.856 109.354 82.8235C111.209 82.3613 112.98 82.6981 114.404 83.6134L112.337 63.5939L154.983 52.9593C155.355 52.866 155.723 52.8195 156.081 52.8167C156.101 52.8147 156.12 52.8127 156.14 52.8164C156.207 52.817 156.275 52.8177 156.342 52.8223C156.41 52.8248 156.478 52.8293 156.545 52.8378C156.554 52.8368 156.564 52.8377 156.572 52.8407C156.629 52.8444 156.685 52.852 156.741 52.8598C156.741 52.8598 156.742 52.8603 156.745 52.8613C156.772 52.8642 156.798 52.8693 156.825 52.8741C157.107 52.92 157.38 52.992 157.642 53.0923C157.693 53.1121 157.743 53.132 157.794 53.1538C157.836 53.1706 157.879 53.1894 157.922 53.2101C158.17 53.3234 158.405 53.4613 158.626 53.6222C158.678 53.6593 158.728 53.6985 158.779 53.7377C158.836 53.7821 158.893 53.8303 158.947 53.8789C158.959 53.8872 158.97 53.8977 158.979 53.9065C159.024 53.9463 159.069 53.9862 159.11 54.0283C159.163 54.0788 159.215 54.1314 159.266 54.1862C159.318 54.2407 159.367 54.2976 159.415 54.3545C159.464 54.4113 159.512 54.4701 159.557 54.5293C159.604 54.5883 159.648 54.6515 159.691 54.7128C159.732 54.7724 159.771 54.8302 159.811 54.8919C159.813 54.8956 159.815 54.9011 159.818 54.9047C159.852 54.9573 159.883 55.0121 159.916 55.0667C159.935 55.0977 159.952 55.1308 159.969 55.1619C160 55.2168 160.029 55.2737 160.056 55.3309C160.086 55.3917 160.115 55.4525 160.143 55.5135C160.176 55.5894 160.21 55.6672 160.239 55.7454C160.268 55.8179 160.295 55.8925 160.321 55.9673C160.322 55.9788 160.329 55.9897 160.332 56.001C160.354 56.0645 160.375 56.132 160.393 56.1979C160.394 56.2055 160.399 56.2147 160.4 56.2224C160.418 56.2863 160.436 56.3521 160.451 56.4184C160.457 56.439 160.463 56.4597 160.467 56.4806C160.485 56.5523 160.5 56.6243 160.514 56.6984C160.529 56.7685 160.54 56.8389 160.549 56.9096C160.557 56.9418 160.562 56.976 160.566 57.0086C160.575 57.0793 160.584 57.1499 160.592 57.2227Z" fill="#80CD75"/>
<path d="M117.73 115.843L99.4575 120.4C99.912 120.836 100.304 121.302 100.629 121.799C100.631 121.802 100.633 121.804 100.634 121.806C101.156 122.665 101.554 123.781 101.81 125.35L101.811 125.358C101.864 125.993 101.874 126.327 101.866 126.585C101.863 126.663 101.859 126.739 101.854 126.817C101.657 129.696 100.13 132.397 97.8966 133.978C97.8406 134.017 97.7849 134.057 97.7268 134.095C97.6835 134.124 97.6382 134.154 97.5946 134.182C97.5438 134.214 97.4911 134.247 97.4401 134.278C97.3874 134.31 97.3363 134.341 97.2834 134.372C97.2305 134.402 97.1793 134.431 97.1263 134.462C97.1227 134.464 97.1172 134.467 97.1135 134.469C97.0109 134.524 96.9081 134.578 96.805 134.629C96.75 134.658 96.6965 134.683 96.641 134.708C96.5839 134.736 96.5267 134.763 96.4691 134.786C96.084 134.955 95.6823 135.094 95.2727 135.195C95.1915 135.215 95.1083 135.233 95.0269 135.252C91.6515 135.971 88.5499 134.042 87.4369 130.749C87.4325 130.744 87.4299 130.738 87.4291 130.731C87.407 130.667 87.3867 130.603 87.3682 130.538C87.3362 130.436 87.3058 130.331 87.2792 130.225C87.2636 130.169 87.2499 130.112 87.236 130.054C87.2204 129.997 87.2084 129.939 87.1964 129.88C87.1829 129.825 87.1711 129.768 87.1593 129.711C87.1317 129.559 87.1057 129.403 87.0834 129.247C87.0779 129.212 87.0742 129.178 87.0706 129.144L87.0692 129.13C87.0464 128.931 87.0281 128.739 87.0144 128.553C87.0155 128.545 87.0145 128.536 87.0137 128.528L87.0127 128.518C87.0086 128.443 87.0061 128.364 87.0038 128.287C86.9968 127.962 87.0037 127.623 87.0308 127.254C87.0334 127.242 87.0339 127.228 87.0344 127.215C87.1786 125.786 87.5843 124.523 88.1924 123.4C88.233 123.326 88.2754 123.25 88.3179 123.176L70.0454 127.732L65.223 81.0028C64.9085 77.9548 66.9076 74.9212 69.691 74.2259L112.337 63.5932L114.404 83.6127C112.98 82.6973 111.209 82.3605 109.354 82.8227C109.23 82.8552 109.106 82.8895 108.982 82.9277C108.505 83.0727 108.043 83.2665 107.603 83.5025C107.501 83.5578 107.4 83.613 107.302 83.6736C104.251 85.4719 102.306 89.2976 102.832 93.0825C102.937 93.848 103.142 94.5623 103.429 95.2119C103.509 95.3952 103.595 95.574 103.689 95.7462C103.72 95.8049 103.751 95.8616 103.784 95.9182C104.795 97.6884 106.462 98.8649 108.401 99.1589C108.468 99.1693 108.537 99.1794 108.603 99.186C109.274 99.2685 109.972 99.2435 110.686 99.1007C110.798 99.0793 110.909 99.054 111.019 99.027C112.879 98.5623 114.494 97.3836 115.664 95.8218L117.73 115.84L117.73 115.843Z" fill="#5D6DED"/>
<path d="M156.745 52.8604C156.772 52.8633 156.798 52.8683 156.825 52.8732" stroke="#191333" stroke-width="2.13333" stroke-linecap="round" stroke-linejoin="round"/>
<path d="M156.572 52.8398C156.629 52.8436 156.686 52.8512 156.741 52.8589" stroke="#191333" stroke-width="2.13333" stroke-linecap="round" stroke-linejoin="round"/>
<path d="M156.342 52.8203C156.41 52.8228 156.478 52.8273 156.545 52.8358" stroke="#191333" stroke-width="2.13333" stroke-linecap="round" stroke-linejoin="round"/>
<path d="M156.082 52.8164C156.101 52.8144 156.12 52.8124 156.14 52.8161" stroke="#191333" stroke-width="2.13333" stroke-linecap="round" stroke-linejoin="round"/>
<path d="M157.642 53.0918L151.302 50.4583C150.468 50.1103 149.512 50.0287 148.522 50.2761" stroke="#191333" stroke-width="2.13333" stroke-linecap="round" stroke-linejoin="round"/>
<path d="M157.922 53.2086C157.879 53.1879 157.836 53.1692 157.794 53.1523" stroke="#191333" stroke-width="2.13333" stroke-linecap="round" stroke-linejoin="round"/>
<path d="M158.947 53.8778C158.893 53.8292 158.836 53.781 158.779 53.7366C158.728 53.6974 158.678 53.6582 158.625 53.6211" stroke="#191333" stroke-width="2.13333" stroke-linecap="round" stroke-linejoin="round"/>
<path d="M159.811 54.8907C159.773 54.8307 159.732 54.7692 159.691 54.7115C159.648 54.6483 159.605 54.587 159.558 54.5281C159.513 54.4689 159.466 54.4099 159.415 54.3532C159.369 54.2962 159.318 54.2395 159.266 54.185C159.216 54.1302 159.164 54.0776 159.11 54.0271C159.069 53.9849 159.024 53.9451 158.979 53.9053" stroke="#191333" stroke-width="2.13333" stroke-linecap="round" stroke-linejoin="round"/>
<path d="M159.969 55.1605C159.952 55.1294 159.935 55.0963 159.916 55.0653C159.885 55.0105 159.853 54.9578 159.818 54.9033" stroke="#191333" stroke-width="2.13333" stroke-linecap="round" stroke-linejoin="round"/>
<path d="M160.143 55.5127C160.115 55.4517 160.086 55.3909 160.056 55.3301" stroke="#191333" stroke-width="2.13333" stroke-linecap="round" stroke-linejoin="round"/>
<path d="M160.32 55.966C160.295 55.8912 160.268 55.8166 160.239 55.7441" stroke="#191333" stroke-width="2.13333" stroke-linecap="round" stroke-linejoin="round"/>
<path d="M160.393 56.1969C160.375 56.1291 160.354 56.0635 160.332 56" stroke="#191333" stroke-width="2.13333" stroke-linecap="round" stroke-linejoin="round"/>
<path d="M160.451 56.4177C160.437 56.3514 160.418 56.2856 160.4 56.2217" stroke="#191333" stroke-width="2.13333" stroke-linecap="round" stroke-linejoin="round"/>
<path d="M160.565 57.0075C160.562 56.975 160.556 56.9407 160.549 56.9085C160.542 56.8358 160.529 56.7674 160.513 56.6973C160.5 56.6232 160.485 56.5513 160.467 56.4795" stroke="#191333" stroke-width="2.13333" stroke-linecap="round" stroke-linejoin="round"/>
<path d="M135.553 110.843C134.551 109.759 133.857 108.3 133.65 106.575C133.637 106.433 133.628 106.303 133.619 106.18C133.595 105.843 133.588 105.571 133.589 105.327" stroke="#191333" stroke-width="2.13333" stroke-linecap="round" stroke-linejoin="round"/>
<path d="M117.73 115.843L136.002 111.287L135.998 111.284C135.921 111.214 135.848 111.145 135.772 111.071" stroke="#191333" stroke-width="2.13333" stroke-linecap="round" stroke-linejoin="round"/>
<path d="M120.211 135.352C120.169 135.399 120.128 135.446 120.088 135.496C120.052 135.539 120.016 135.583 119.98 135.628" stroke="#191333" stroke-width="2.13333" stroke-linecap="round" stroke-linejoin="round"/>
<path d="M124.659 132.614C123.066 133.025 121.784 133.778 120.759 134.768C120.671 134.853 120.585 134.94 120.501 135.028" stroke="#191333" stroke-width="2.13333" stroke-linecap="round" stroke-linejoin="round"/>
<path d="M125.224 132.512C125.069 132.53 124.922 132.553 124.777 132.584C124.744 132.591 124.712 132.6 124.68 132.61" stroke="#191333" stroke-width="2.13333" stroke-linecap="round" stroke-linejoin="round"/>
<path d="M125.695 132.466C125.651 132.469 125.607 132.471 125.564 132.476C125.501 132.48 125.44 132.487 125.38 132.493" stroke="#191333" stroke-width="2.13333" stroke-linecap="round" stroke-linejoin="round"/>
<path d="M130.721 134.467C130.686 134.428 130.649 134.389 130.61 134.351C130.567 134.307 130.524 134.263 130.479 134.221C130.392 134.136 130.302 134.054 130.207 133.975C129.035 132.963 127.536 132.408 125.911 132.457C125.86 132.456 125.81 132.458 125.76 132.461C125.749 132.462 125.737 132.462 125.726 132.463" stroke="#191333" stroke-width="2.13333" stroke-linecap="round" stroke-linejoin="round"/>
<path d="M131.173 135.004C131.112 134.924 131.05 134.843 130.985 134.765" stroke="#191333" stroke-width="2.13333" stroke-linecap="round" stroke-linejoin="round"/>
<path d="M131.405 135.325C131.348 135.24 131.288 135.157 131.226 135.074" stroke="#191333" stroke-width="2.13333" stroke-linecap="round" stroke-linejoin="round"/>
<path d="M131.643 135.708C131.612 135.651 131.577 135.597 131.544 135.542" stroke="#191333" stroke-width="2.13333" stroke-linecap="round" stroke-linejoin="round"/>
<path d="M131.937 136.268C131.919 136.227 131.9 136.187 131.878 136.146" stroke="#191333" stroke-width="2.13333" stroke-linecap="round" stroke-linejoin="round"/>
<path d="M131.607 144.283C132.505 142.572 132.906 140.582 132.632 138.602C132.543 137.959 132.383 137.35 132.161 136.787C132.117 136.668 132.07 136.552 132.016 136.438" stroke="#191333" stroke-width="2.13333" stroke-linecap="round" stroke-linejoin="round"/>
<path d="M131.467 144.542C131.506 144.472 131.545 144.4 131.582 144.33" stroke="#191333" stroke-width="2.13333" stroke-linecap="round" stroke-linejoin="round"/>
<path d="M131.288 144.847C131.346 144.75 131.403 144.653 131.459 144.556" stroke="#191333" stroke-width="2.13333" stroke-linecap="round" stroke-linejoin="round"/>
<path d="M126.363 148.788C128.371 148.16 130.054 146.777 131.182 145.015" stroke="#191333" stroke-width="2.13333" stroke-linecap="round" stroke-linejoin="round"/>
<path d="M124.221 149.061C124.26 149.062 124.301 149.064 124.34 149.064C124.404 149.067 124.47 149.065 124.533 149.065" stroke="#191333" stroke-width="2.13333" stroke-linecap="round" stroke-linejoin="round"/>
<path d="M121.223 148.173C121.279 148.208 121.336 148.24 121.394 148.271C121.45 148.306 121.507 148.337 121.566 148.365C121.798 148.488 122.038 148.593 122.283 148.681C122.652 148.819 123.036 148.921 123.432 148.982C123.497 148.995 123.564 149.005 123.631 149.012C123.696 149.023 123.762 149.029 123.831 149.034" stroke="#191333" stroke-width="2.13333" stroke-linecap="round" stroke-linejoin="round"/>
<path d="M147.197 108.412C147.177 108.443 147.16 108.476 147.142 108.507L165.416 103.953L170.24 150.68C170.555 153.729 168.552 156.765 165.771 157.459L123.124 168.091" stroke="#191333" stroke-width="2.13333" stroke-linecap="round" stroke-linejoin="round"/>
<path d="M148.45 103.157C148.502 104.092 148.408 105.022 148.19 105.913C148.126 106.111 148.067 106.293 148.011 106.462C147.666 107.486 147.444 107.974 147.203 108.404" stroke="#191333" stroke-width="2.13333" stroke-linecap="round" stroke-linejoin="round"/>
<path d="M148.365 102.348C148.382 102.474 148.393 102.554 148.4 102.609" stroke="#191333" stroke-width="2.13333" stroke-linecap="round" stroke-linejoin="round"/>
<path d="M146.806 98.6934C146.841 98.7361 146.875 98.7791 146.906 98.8222C147.644 99.7826 148.159 100.978 148.364 102.341" stroke="#191333" stroke-width="2.13333" stroke-linecap="round" stroke-linejoin="round"/>
<path d="M137.015 98.1328C137.943 97.3576 139.019 96.7835 140.189 96.4902C140.272 96.4698 140.353 96.4516 140.437 96.4332C142.831 95.9239 145.088 96.746 146.597 98.4445" stroke="#191333" stroke-width="2.13333" stroke-linecap="round" stroke-linejoin="round"/>
<path d="M74.9081 174.755C74.905 174.743 74.9038 174.732 74.9026 174.72C74.901 174.705 74.8976 174.692 74.896 174.676C74.8875 174.613 74.8789 174.55 74.8721 174.485" stroke="#191333" stroke-width="2.13333" stroke-linecap="round" stroke-linejoin="round"/>
<path d="M74.9432 174.956C74.9312 174.897 74.919 174.837 74.9126 174.775" stroke="#191333" stroke-width="2.13333" stroke-linecap="round" stroke-linejoin="round"/>
<path d="M75.0436 175.399C75.0313 175.355 75.0211 175.314 75.0107 175.271" stroke="#191333" stroke-width="2.13333" stroke-linecap="round" stroke-linejoin="round"/>
<path d="M75.0916 175.56C75.0796 175.519 75.0673 175.476 75.0552 175.435" stroke="#191333" stroke-width="2.13333" stroke-linecap="round" stroke-linejoin="round"/>
<path d="M75.3508 176.24C75.3203 176.171 75.2897 176.101 75.261 176.031C75.2404 175.982 75.2218 175.934 75.2031 175.886C75.1845 175.837 75.1659 175.789 75.1489 175.738" stroke="#191333" stroke-width="2.13333" stroke-linecap="round" stroke-linejoin="round"/>
<path d="M75.5452 176.615L75.5376 176.598C75.5237 176.576 75.5117 176.554 75.4995 176.53" stroke="#191333" stroke-width="2.13333" stroke-linecap="round" stroke-linejoin="round"/>
<path d="M75.6178 176.735C75.5969 176.702 75.5761 176.67 75.5571 176.637" stroke="#191333" stroke-width="2.13333" stroke-linecap="round" stroke-linejoin="round"/>
<path d="M75.7971 177.006C75.7766 176.977 75.7563 176.95 75.7378 176.921" stroke="#191333" stroke-width="2.13333" stroke-linecap="round" stroke-linejoin="round"/>
<path d="M76.0153 177.291C76.0086 177.283 76.0001 177.276 75.9934 177.267C75.9887 177.259 75.9822 177.252 75.9775 177.245" stroke="#191333" stroke-width="2.13333" stroke-linecap="round" stroke-linejoin="round"/>
<path d="M76.7345 177.984C76.7051 177.962 76.6774 177.938 76.65 177.918C76.5696 177.853 76.4909 177.785 76.4156 177.714C76.3771 177.679 76.3405 177.644 76.3037 177.607" stroke="#191333" stroke-width="2.13333" stroke-linecap="round" stroke-linejoin="round"/>
<path d="M77.164 178.275C77.096 178.235 77.0297 178.194 76.9648 178.148" stroke="#191333" stroke-width="2.13333" stroke-linecap="round" stroke-linejoin="round"/>
<path d="M77.6126 178.505C77.6126 178.505 77.5984 178.499 77.5903 178.496" stroke="#191333" stroke-width="2.13333" stroke-linecap="round" stroke-linejoin="round"/>
<path d="M68.4077 171.777C68.6102 173.741 69.7254 175.231 71.236 175.859L77.5901 178.496" stroke="#191333" stroke-width="2.13333" stroke-linecap="round" stroke-linejoin="round"/>
<path d="M112.337 63.5911L105.875 60.9084L148.521 50.2757" stroke="#191333" stroke-width="2.13333" stroke-linecap="round" stroke-linejoin="round"/>
<path d="M112.337 63.5933L154.983 52.9587C155.355 52.8654 155.724 52.8189 156.082 52.8161L156.14 52.8158C156.207 52.8164 156.275 52.817 156.342 52.8217C156.41 52.8242 156.478 52.8286 156.545 52.8371C156.554 52.8361 156.564 52.837 156.572 52.8401C156.629 52.8438 156.686 52.8514 156.741 52.8591C156.741 52.8591 156.742 52.8596 156.745 52.8606C156.772 52.8636 156.798 52.8686 156.825 52.8735C157.107 52.9194 157.38 52.9914 157.642 53.0916C157.693 53.1115 157.743 53.1314 157.794 53.1532C157.836 53.17 157.879 53.1888 157.922 53.2094C158.17 53.3228 158.405 53.4607 158.626 53.6215C158.678 53.6586 158.728 53.6979 158.779 53.7371C158.836 53.7814 158.893 53.8296 158.947 53.8782C158.959 53.8866 158.97 53.8971 158.979 53.9059C159.024 53.9457 159.069 53.9855 159.11 54.0277C159.164 54.0782 159.216 54.1308 159.266 54.1856C159.318 54.2401 159.367 54.297 159.415 54.3538C159.464 54.4107 159.513 54.4695 159.557 54.5286C159.604 54.5876 159.648 54.6508 159.691 54.7121C159.732 54.7717 159.771 54.8296 159.811 54.8913C159.813 54.8949 159.815 54.9005 159.818 54.9041C159.852 54.9566 159.883 55.0115 159.916 55.0661C159.933 55.0973 159.952 55.1282 159.969 55.1613C160 55.2161 160.029 55.2731 160.056 55.3302C160.086 55.391 160.115 55.4518 160.143 55.5128C160.176 55.5887 160.21 55.6666 160.239 55.7448C160.268 55.8173 160.295 55.8919 160.321 55.9667C160.322 55.9782 160.329 55.9891 160.332 56.0004C160.354 56.0639 160.375 56.1314 160.393 56.1972C160.394 56.2049 160.399 56.2141 160.4 56.2217C160.418 56.2857 160.437 56.3515 160.451 56.4177C160.457 56.4384 160.463 56.4591 160.467 56.4799C160.485 56.5517 160.5 56.6237 160.514 56.6978C160.529 56.7678 160.54 56.8383 160.549 56.909C160.557 56.9411 160.562 56.9754 160.566 57.008C160.575 57.0786 160.584 57.1493 160.592 57.2221L165.414 103.951L147.145 108.505C147.163 108.474 147.18 108.443 147.198 108.412C147.199 108.41 147.201 108.408 147.203 108.404C147.482 107.908 147.721 107.385 147.912 106.84C147.946 106.711 147.98 106.585 148.011 106.462C148.39 104.983 148.494 104.033 148.45 103.157C148.441 103.016 148.43 102.878 148.416 102.738C148.411 102.694 148.407 102.652 148.4 102.61L148.392 102.533C148.384 102.472 148.375 102.409 148.365 102.348L148.364 102.341C148.145 100.973 147.632 99.7801 146.906 98.8223C146.873 98.7794 146.841 98.7362 146.805 98.6935C146.738 98.6076 146.669 98.5238 146.597 98.4442C145.042 96.6693 142.691 95.859 140.188 96.4822C140.094 96.5057 139.998 96.5313 139.904 96.5605C138.846 96.8692 137.869 97.4134 137.015 98.1325C135.115 99.7285 133.823 102.178 133.615 104.766C133.6 104.952 133.59 105.139 133.589 105.327C133.583 105.569 133.587 105.813 133.603 106.057C133.608 106.099 133.612 106.14 133.618 106.18C133.877 108.292 134.569 109.773 135.553 110.843C135.625 110.92 135.699 110.998 135.773 111.071C135.85 111.145 135.925 111.214 136.002 111.284L135.998 111.284L117.73 115.84" stroke="#191333" stroke-width="2.13333" stroke-linecap="round" stroke-linejoin="round"/>
<path d="M103.689 95.7452C103.597 95.5728 103.51 95.3941 103.429 95.2109C103.074 94.3961 102.847 93.4847 102.774 92.4931C102.514 88.9359 104.42 85.3873 107.302 83.6727" stroke="#191333" stroke-width="2.13333" stroke-linecap="round" stroke-linejoin="round"/>
<path d="M115.664 95.8219L115.664 95.818C114.494 97.3799 112.879 98.5586 111.026 99.0225C110.192 99.2302 109.378 99.2771 108.603 99.1861" stroke="#191333" stroke-width="2.13333" stroke-linecap="round" stroke-linejoin="round"/>
<path d="M87.0338 127.214C87.178 125.785 87.5836 124.523 88.1918 123.399" stroke="#191333" stroke-width="2.13333" stroke-linecap="round" stroke-linejoin="round"/>
<path d="M87.0126 128.518C87.0084 128.441 87.0061 128.364 87.0038 128.287C86.9916 127.932 87.0024 127.592 87.0307 127.254" stroke="#191333" stroke-width="2.13333" stroke-linecap="round" stroke-linejoin="round"/>
<path d="M87.0691 129.129C87.0463 128.93 87.0281 128.738 87.0143 128.552" stroke="#191333" stroke-width="2.13333" stroke-linecap="round" stroke-linejoin="round"/>
<path d="M87.429 130.731C87.4087 130.667 87.3864 130.601 87.368 130.538C87.3359 130.434 87.3057 130.331 87.2791 130.225C87.2634 130.169 87.2497 130.112 87.2358 130.054" stroke="#191333" stroke-width="2.13333" stroke-linecap="round" stroke-linejoin="round"/>
<path d="M96.4688 134.785C96.0836 134.954 95.6819 135.093 95.2723 135.194C95.1912 135.214 95.1079 135.232 95.0265 135.251C91.6512 135.969 88.5495 134.041 87.4365 130.748" stroke="#191333" stroke-width="2.13333" stroke-linecap="round" stroke-linejoin="round"/>
<path d="M97.1138 134.468C97.0111 134.523 96.9083 134.577 96.8053 134.628" stroke="#191333" stroke-width="2.13333" stroke-linecap="round" stroke-linejoin="round"/>
<path d="M97.4398 134.277C97.3871 134.31 97.3361 134.34 97.2831 134.371C97.2302 134.402 97.179 134.43 97.1261 134.461" stroke="#191333" stroke-width="2.13333" stroke-linecap="round" stroke-linejoin="round"/>
<path d="M101.811 125.357C101.864 125.992 101.874 126.326 101.866 126.584" stroke="#191333" stroke-width="2.13333" stroke-linecap="round" stroke-linejoin="round"/>
<path d="M100.633 121.806C101.203 122.675 101.576 123.641 101.755 124.717C101.78 124.956 101.796 125.165 101.809 125.35" stroke="#191333" stroke-width="2.13333" stroke-linecap="round" stroke-linejoin="round"/>
<path d="M112.337 63.5931L114.404 83.6126C112.98 82.6973 111.209 82.3605 109.354 82.8227C109.23 82.8552 109.106 82.8895 108.982 82.9277C108.505 83.0727 108.043 83.2665 107.603 83.5025C107.501 83.5578 107.4 83.6129 107.302 83.6736C104.251 85.4719 102.306 89.2976 102.832 93.0825C102.937 93.8479 103.142 94.5623 103.429 95.2119C103.509 95.3952 103.595 95.574 103.689 95.7462C103.72 95.8048 103.751 95.8616 103.784 95.9182C104.795 97.6884 106.462 98.8649 108.401 99.1588C108.468 99.1692 108.537 99.1794 108.603 99.186C109.274 99.2685 109.972 99.2435 110.686 99.1007C110.798 99.0793 110.909 99.054 111.019 99.027C112.879 98.5623 114.494 97.3836 115.664 95.8217L117.73 115.84L117.73 115.843L99.4575 120.4C99.912 120.836 100.304 121.302 100.629 121.798" stroke="#191333" stroke-width="2.13333" stroke-linecap="round" stroke-linejoin="round"/>
<path d="M74.8697 174.461L74.8723 174.486C74.8791 174.551 74.8877 174.614 74.8962 174.677C74.901 174.703 74.9038 174.73 74.9083 174.755C74.9091 174.763 74.9116 174.768 74.9125 174.776C74.9208 174.837 74.9311 174.898 74.9431 174.957C74.9453 174.978 74.9494 174.998 74.9553 175.017C74.9657 175.08 74.9798 175.141 74.9937 175.199C74.9983 175.224 75.0047 175.248 75.011 175.271C75.0215 175.316 75.0317 175.358 75.0438 175.399C75.0446 175.407 75.0452 175.412 75.0497 175.418C75.0503 175.424 75.0528 175.429 75.0553 175.435C75.0676 175.478 75.078 175.521 75.0918 175.561C75.0943 175.566 75.0947 175.57 75.0972 175.576C75.0982 175.585 75.099 175.593 75.1058 175.602C75.1185 175.649 75.1329 175.694 75.1492 175.739C75.1659 175.787 75.1829 175.838 75.2034 175.886C75.2201 175.934 75.239 175.985 75.2613 176.031C75.2881 176.102 75.3187 176.172 75.351 176.24C75.3586 176.257 75.3662 176.273 75.3756 176.29C75.4029 176.347 75.4302 176.404 75.4612 176.459C75.4734 176.483 75.4856 176.507 75.4997 176.531C75.5144 176.56 75.5308 176.587 75.5453 176.615C75.55 176.622 75.5546 176.629 75.5573 176.637C75.5782 176.669 75.5971 176.702 75.618 176.735C75.6557 176.799 75.6951 176.861 75.7383 176.922C75.7569 176.951 75.7752 176.978 75.7976 177.007C75.8001 177.012 75.8026 177.018 75.8071 177.023C75.8301 177.057 75.8547 177.09 75.8794 177.122C75.8818 177.126 75.8862 177.131 75.8904 177.134C75.9176 177.172 75.9468 177.21 75.9776 177.245C75.9888 177.26 76.0021 177.276 76.0154 177.292C76.0399 177.322 76.0642 177.35 76.0904 177.379C76.1588 177.459 76.2288 177.534 76.3043 177.608C76.3391 177.645 76.3757 177.68 76.4161 177.714C76.4895 177.786 76.5682 177.853 76.6506 177.918C76.6762 177.941 76.7056 177.963 76.7351 177.985C76.752 177.998 76.7708 178.012 76.7874 178.022C76.8382 178.063 76.8905 178.1 76.9422 178.131C76.9509 178.14 76.9572 178.145 76.9653 178.148C77.0301 178.194 77.0964 178.235 77.1645 178.275C77.2039 178.3 77.245 178.322 77.2859 178.343C77.358 178.384 77.4316 178.421 77.505 178.456C77.5336 178.47 77.5622 178.485 77.5906 178.497C77.5968 178.5 77.6008 178.502 77.607 178.505C77.6089 178.505 77.611 178.507 77.6129 178.506C78.4678 178.883 79.4558 178.979 80.4805 178.724L123.125 168.091L121.057 148.07C121.111 148.105 121.167 148.14 121.223 148.173C121.281 148.207 121.337 148.24 121.394 148.271C121.45 148.304 121.507 148.335 121.567 148.365C121.798 148.484 122.038 148.591 122.283 148.681C122.652 148.816 123.036 148.917 123.432 148.982C123.497 148.993 123.564 149.003 123.631 149.012C123.696 149.02 123.763 149.027 123.831 149.033C123.897 149.04 123.964 149.047 124.032 149.051C124.095 149.054 124.159 149.059 124.221 149.06C124.26 149.062 124.299 149.064 124.34 149.063C124.404 149.064 124.468 149.065 124.533 149.064C124.62 149.063 124.707 149.061 124.794 149.056C125.223 149.034 125.664 148.969 126.107 148.858C126.162 148.845 126.217 148.831 126.363 148.789C126.397 148.779 126.437 148.767 126.482 148.755C128.414 148.164 130.068 146.784 131.182 145.015C131.22 144.959 131.253 144.903 131.288 144.847C131.348 144.752 131.404 144.655 131.459 144.556C131.462 144.552 131.464 144.546 131.467 144.542C131.506 144.472 131.543 144.402 131.582 144.33C131.591 144.316 131.599 144.299 131.606 144.283C132.409 142.739 132.817 140.966 132.688 139.189C132.624 138.324 132.443 137.518 132.161 136.787C132.115 136.669 132.066 136.552 132.015 136.438C131.99 136.38 131.965 136.325 131.938 136.268C131.92 136.227 131.9 136.187 131.878 136.146C131.844 136.076 131.807 136.006 131.771 135.937C131.73 135.86 131.687 135.783 131.643 135.708C131.611 135.651 131.577 135.597 131.544 135.542C131.499 135.47 131.451 135.397 131.405 135.325C131.347 135.24 131.288 135.157 131.225 135.074C131.209 135.051 131.193 135.027 131.173 135.004C131.112 134.921 131.05 134.843 130.986 134.764C130.901 134.663 130.813 134.564 130.722 134.467C130.687 134.428 130.648 134.389 130.611 134.351C130.568 134.307 130.524 134.263 130.479 134.221C130.391 134.136 130.299 134.054 130.207 133.975C129.044 132.98 127.556 132.427 125.911 132.457C125.85 132.459 125.788 132.46 125.726 132.463L125.695 132.466C125.695 132.466 125.684 132.465 125.678 132.466C125.641 132.468 125.603 132.47 125.565 132.476C125.505 132.478 125.446 132.484 125.381 132.493C125.341 132.497 125.298 132.502 125.255 132.508L125.224 132.512C125.071 132.535 124.896 132.565 124.68 132.609C124.675 132.61 124.669 132.611 124.663 132.611L124.659 132.612C124.589 132.625 124.515 132.64 124.436 132.658C123.047 133.004 121.793 133.753 120.759 134.766C120.671 134.849 120.585 134.938 120.502 135.026C120.402 135.131 120.305 135.238 120.21 135.351C120.169 135.398 120.127 135.445 120.088 135.495C120.052 135.538 120.016 135.582 119.98 135.627C119.918 135.703 119.857 135.783 119.798 135.863L117.73 115.841" stroke="#191333" stroke-width="2.13333" stroke-linecap="round" stroke-linejoin="round"/>
<path d="M100.629 121.799C100.629 121.799 100.633 121.804 100.634 121.806C101.156 122.665 101.554 123.781 101.81 125.35L101.811 125.358C101.829 125.462 101.846 125.567 101.861 125.676C101.878 125.98 101.879 126.284 101.866 126.586C101.863 126.663 101.859 126.739 101.854 126.817C101.657 129.696 100.13 132.398 97.8966 133.978C97.8406 134.017 97.7849 134.058 97.7268 134.095C97.6835 134.125 97.6382 134.155 97.5946 134.182C97.5438 134.215 97.4911 134.247 97.4401 134.278C97.3895 134.312 97.3365 134.343 97.2834 134.372C97.2307 134.405 97.1797 134.435 97.1263 134.462C97.1227 134.464 97.1172 134.467 97.1135 134.469C97.013 134.526 96.9104 134.582 96.805 134.629C96.75 134.658 96.6965 134.683 96.641 134.709C96.5838 134.736 96.5267 134.763 96.4691 134.787C96.1752 134.92 95.8713 135.032 95.5594 135.122C95.4635 135.15 95.3674 135.176 95.2731 135.199C91.7747 136.074 88.5676 134.138 87.4369 130.749C87.4325 130.744 87.4299 130.739 87.4291 130.731C87.407 130.667 87.3867 130.604 87.3682 130.538C87.3362 130.437 87.3058 130.331 87.2792 130.226C87.2617 130.169 87.248 130.113 87.236 130.054C87.2204 129.998 87.2084 129.939 87.1964 129.88C87.1829 129.825 87.1711 129.768 87.1593 129.712C87.1317 129.56 87.1057 129.404 87.0834 129.247C87.0779 129.213 87.0742 129.178 87.0706 129.144L87.0692 129.13C87.0435 128.941 87.0251 128.748 87.0144 128.553C87.0155 128.545 87.0145 128.536 87.0137 128.528L87.0126 128.519C87.0086 128.443 87.0061 128.364 87.0038 128.287C86.9968 127.963 87.0037 127.623 87.0308 127.254C87.0334 127.242 87.0339 127.229 87.0344 127.215C87.0365 127.18 87.0406 127.145 87.0427 127.11C87.1723 125.8 87.5738 124.534 88.1924 123.4C88.233 123.326 88.2754 123.25 88.3179 123.176L70.0453 127.732" stroke="#191333" stroke-width="2.13333" stroke-linecap="round" stroke-linejoin="round"/>
<path d="M63.5838 125.049L68.408 171.777" stroke="#191333" stroke-width="2.13333" stroke-linecap="round" stroke-linejoin="round"/>
<path d="M74.8694 174.461L70.0452 127.732" stroke="#191333" stroke-width="2.13333" stroke-linecap="round" stroke-linejoin="round"/>
<path d="M69.6907 74.2259L112.337 63.5932L105.875 60.9105L63.2294 71.5451" stroke="#191333" stroke-width="2.13333" stroke-linecap="round" stroke-linejoin="round"/>
<path d="M65.2229 81.0025L70.0452 127.732L63.5838 125.049L58.7614 78.3198" stroke="#191333" stroke-width="2.13333" stroke-linecap="round" stroke-linejoin="round"/>
<path d="M58.7614 78.3205C58.4469 75.2725 60.4461 72.2389 63.2296 71.5455" stroke="#191333" stroke-width="2.13333" stroke-linecap="round" stroke-linejoin="round"/>
<path d="M65.2226 81.003C64.908 77.9551 66.9072 74.9215 69.6905 74.2261" stroke="#191333" stroke-width="2.13333" stroke-linecap="round" stroke-linejoin="round"/>
<path d="M39.0876 80.8608C37.9504 77.632 37.1164 76.9567 33.7218 76.5156C36.9505 75.3784 37.6258 74.5445 38.0669 71.1498C39.2022 74.3788 40.0381 75.0539 43.4327 75.495C40.204 76.6322 39.5286 77.4661 39.0876 80.8608Z" fill="#FFC85A"/>
<path d="M38.109 71.55C39.15 74.3609 40.0667 75.105 43.0324 75.5369C40.2215 76.5779 39.4774 77.4947 39.0455 80.4604C38.0045 77.6495 37.0878 76.9054 34.1221 76.4735C36.933 75.4325 37.6771 74.5157 38.109 71.55ZM38.0224 70.7264C37.5696 74.5619 36.9562 75.3216 33.2985 76.56C37.1339 77.0128 37.8917 77.6265 39.1321 81.284C39.5849 77.4485 40.1983 76.6888 43.856 75.4504C40.0206 74.9976 39.2628 74.3839 38.0224 70.7264Z" fill="black"/>
<path d="M50.7249 95.9698C49.6661 92.971 48.8827 92.3349 45.7295 91.9246C48.7285 90.8677 49.3644 90.0824 49.7747 86.9292C50.8316 89.9282 51.6167 90.5622 54.7701 90.9744C51.7713 92.0332 51.1352 92.8166 50.7249 95.9698Z" fill="#FFC85A"/>
<path d="M49.8164 87.3256C50.7796 89.9123 51.6432 90.6116 54.3736 91.016C51.7869 91.9792 51.0876 92.8428 50.6832 95.5732C49.72 92.9865 48.8564 92.2872 46.126 91.8828C48.7127 90.9196 49.412 90.056 49.8164 87.3256ZM49.7302 86.5058C49.306 90.0981 48.7318 90.8072 45.3062 91.969C48.8985 92.3931 49.6076 92.9673 50.7694 96.393C51.1935 92.8007 51.7678 92.0916 55.1934 90.9298C51.6011 90.5056 50.892 89.9314 49.7302 86.5058Z" fill="black"/>
<path d="M178.015 166.846C176.807 163.404 175.926 162.693 172.31 162.226C175.752 161.018 176.463 160.138 176.93 156.522C178.138 159.964 179.018 160.675 182.634 161.141C179.192 162.349 178.481 163.23 178.015 166.846Z" fill="#FFC85A"/>
<path d="M176.971 156.923C178.083 159.939 179.05 160.725 182.234 161.184C179.217 162.295 178.432 163.263 177.972 166.446C176.861 163.43 175.894 162.644 172.71 162.185C175.727 161.074 176.512 160.106 176.971 156.923ZM176.885 156.095C176.405 160.154 175.755 160.959 171.885 162.27C175.944 162.749 176.748 163.399 178.059 167.27C178.539 163.211 179.188 162.406 183.059 161.095C179 160.616 178.196 159.966 176.885 156.095Z" fill="black"/>
<path d="M63.8967 177.281C62.757 177.915 61.4694 178.562 60.2972 179.146C59.5738 179.486 58.5704 179.963 57.8827 180.347C56.6348 180.966 55.2427 181.19 53.8433 181.031C53.7687 181.021 53.7314 180.925 53.7837 180.869C54.425 180.135 55.1917 179.636 56.0251 179.2C56.8241 178.769 57.7391 178.668 58.5987 178.426C59.2436 178.242 60.5509 177.894 61.2021 177.732C62.0764 177.52 62.9504 177.305 63.8373 177.12C63.9299 177.099 63.9853 177.238 63.8969 177.282L63.8967 177.281Z" fill="black"/>
<path d="M72.3726 184.994C72.178 186.275 71.9038 187.682 71.6489 188.96C71.4748 189.736 71.2397 190.816 71.1237 191.591C70.8521 192.95 70.1778 194.181 69.1965 195.18C69.144 195.234 69.0438 195.202 69.0302 195.128C68.8411 194.176 68.9143 193.27 69.0791 192.35C69.2256 191.459 69.7052 190.679 70.0389 189.856C70.2875 189.237 70.8098 187.997 71.0806 187.385C71.4459 186.569 71.8092 185.75 72.2064 184.941C72.2456 184.854 72.3896 184.897 72.3726 184.994Z" fill="black"/>
<path d="M67.7772 181.626C66.121 183.557 64.2501 185.618 62.5014 187.479C62.0519 187.956 61.6263 188.458 61.1921 188.951C60.3184 189.943 59.2802 190.751 58.1773 191.479C57.6169 191.84 57.0368 192.18 56.3914 192.451C56.3174 192.484 56.233 192.4 56.2717 192.326C57.1954 190.539 58.4684 188.98 60.0099 187.708C60.9167 187.012 62.1689 185.955 63.0506 185.206C64.5247 183.994 66.1527 182.661 67.6575 181.501C67.6951 181.472 67.7502 181.48 67.7793 181.517C67.8042 181.552 67.8031 181.596 67.7774 181.628L67.7772 181.626Z" fill="black"/>
</svg>
