<svg width="242" height="241" viewBox="0 0 242 241" fill="none" xmlns="http://www.w3.org/2000/svg">
<path d="M151.73 78.3567C151.73 78.3567 151.723 78.3523 151.719 78.3501L147.868 76.1234C146.363 75.2523 144.357 75.4034 142.264 76.6056L110.801 94.6567C108.208 96.1456 105.76 99.0879 104.232 102.532C102.564 106.319 100.384 109.795 97.7413 112.848C95.2575 115.75 93.6069 119.406 93.3321 122.632C90.9466 150.832 95.5077 168.112 107.223 174.888L111.06 177.106C111.06 177.106 111.069 177.11 111.076 177.115C111.08 177.117 111.085 177.119 111.092 177.121C111.101 177.128 111.112 177.132 111.121 177.139C111.23 177.203 111.342 177.266 111.451 177.326C111.692 177.461 111.936 177.59 112.182 177.712C112.305 177.777 112.43 177.837 112.555 177.897C112.68 177.959 112.805 178.019 112.932 178.075C113.057 178.135 113.185 178.19 113.312 178.246C113.426 178.297 113.54 178.346 113.654 178.395C113.797 178.455 113.944 178.515 114.089 178.57C114.214 178.619 114.339 178.668 114.464 178.715C114.581 178.759 114.699 178.803 114.817 178.843C114.922 178.881 115.03 178.919 115.137 178.955C115.286 179.008 115.436 179.057 115.588 179.106C115.68 179.135 115.771 179.163 115.865 179.19C116.774 179.47 117.717 179.703 118.69 179.886C118.831 179.915 118.974 179.939 119.117 179.963C119.235 179.986 119.352 180.003 119.47 180.023C119.689 180.059 119.91 180.092 120.131 180.121C120.265 180.141 120.401 180.159 120.538 180.175C120.944 180.226 121.357 180.268 121.775 180.303C121.905 180.315 122.034 180.326 122.166 180.335L122.461 180.355C122.564 180.361 122.668 180.368 122.773 180.375C122.961 180.383 123.153 180.392 123.343 180.401C123.457 180.406 123.569 180.408 123.683 180.41C123.758 180.415 123.834 180.417 123.91 180.417C124.056 180.421 124.203 180.423 124.348 180.426C125.342 180.437 126.363 180.41 127.413 180.343C129.863 180.172 132.237 178.423 133.888 176.623C157.428 151.061 167.189 121.655 163.713 86.7167C163.702 86.5967 163.689 86.479 163.673 86.3634C163.673 86.3523 163.669 86.3434 163.669 86.3323C163.658 86.2501 163.644 86.1701 163.629 86.0901C163.622 86.0345 163.611 85.9812 163.6 85.9279C163.575 85.799 163.546 85.6723 163.512 85.5479C163.499 85.4834 163.481 85.4212 163.463 85.359C163.457 85.339 163.452 85.319 163.445 85.299C163.428 85.2412 163.41 85.1834 163.392 85.1279C163.376 85.0767 163.358 85.0256 163.34 84.9768C163.314 84.9012 163.285 84.8279 163.256 84.7568C163.229 84.6879 163.2 84.6212 163.168 84.5567C163.166 84.5523 163.164 84.5456 163.162 84.5412C163.135 84.479 163.106 84.4212 163.077 84.3634C162.988 84.1856 162.889 84.019 162.784 83.8612C162.755 83.8168 162.724 83.7723 162.693 83.7301C162.668 83.6923 162.641 83.6567 162.612 83.6212C162.599 83.6012 162.585 83.5834 162.568 83.5656C162.536 83.5234 162.503 83.4812 162.467 83.4412C162.458 83.4301 162.449 83.419 162.438 83.4079C162.389 83.3501 162.34 83.2967 162.286 83.2434C162.23 83.1856 162.174 83.1301 162.114 83.0745C162.099 83.059 162.081 83.0434 162.063 83.0279C162 82.9745 161.938 82.9212 161.871 82.8701C161.801 82.8145 161.728 82.7634 161.654 82.7145C161.647 82.7079 161.638 82.7034 161.63 82.699C161.569 82.6568 161.507 82.619 161.442 82.5812L161.408 82.5612C161.39 82.5501 161.373 82.5412 161.353 82.5301L157.535 80.3212C156.159 79.5256 154.824 79.9034 153.035 79.4701C152.936 79.3745 152.842 79.2745 152.751 79.1723C152.445 78.839 152.103 78.5679 151.73 78.3567ZM170.593 67.5034C177.593 118.546 160.745 156.87 130.444 187.981C129.387 189.063 127.911 190.115 126.401 190.303C110.227 192.277 99.7627 187.455 93.3098 178.372C93.0284 177.972 92.7514 177.563 92.4811 177.148C86.8926 168.406 84.7796 156.417 84.3686 144.288C84.3619 144.05 84.3552 143.815 84.3463 143.579C84.1609 136.768 84.4826 129.559 85.1504 122.203C85.1951 121.706 85.242 121.208 85.2911 120.71C85.338 120.212 85.3894 119.712 85.4408 119.212C85.5435 118.215 85.6507 117.212 85.7646 116.21C86.0684 113.692 87.5203 110.832 89.5149 109.123C94.5539 104.768 98.0808 99.2723 100.029 92.4545C100.826 89.7279 102.818 87.1967 104.947 85.9745L151.283 59.3767C151.505 59.2501 151.726 59.139 151.942 59.0434C152.052 58.9945 152.159 58.9501 152.266 58.9123C152.32 58.8923 152.373 58.8723 152.427 58.8545C152.784 58.7345 153.133 58.659 153.466 58.6279C153.517 58.6234 153.568 58.619 153.618 58.6168C153.678 58.6145 153.738 58.6123 153.798 58.6123C153.928 58.6123 154.053 58.619 154.176 58.6345C154.203 58.6368 154.23 58.639 154.254 58.6456C154.299 58.6501 154.346 58.659 154.388 58.6679C154.453 58.679 154.513 58.6923 154.576 58.7101C154.647 58.7279 154.719 58.7501 154.79 58.7768C154.837 58.7945 154.884 58.8123 154.929 58.8323C154.976 58.8501 155.02 58.8723 155.063 58.8945C155.085 58.9034 155.107 58.9145 155.127 58.9279C155.605 59.1856 155.992 59.6012 156.253 60.1768C157.102 62.1101 158.228 63.4856 159.624 64.319C159.702 64.3656 159.78 64.4101 159.86 64.4523C159.93 64.4901 160.001 64.5279 160.073 64.5612C160.162 64.6079 160.254 64.6501 160.347 64.6901C160.419 64.7234 160.495 64.7545 160.571 64.7834C160.752 64.8545 160.935 64.919 161.122 64.9745C161.207 65.0012 161.292 65.0234 161.379 65.0456C161.382 65.0479 161.384 65.0479 161.386 65.0479C161.473 65.0701 161.562 65.0923 161.652 65.1101C161.728 65.1279 161.806 65.1434 161.884 65.1568C161.927 65.1656 161.969 65.1723 162.011 65.179L162.139 65.199C162.206 65.2101 162.275 65.219 162.344 65.2256C162.364 65.2301 162.384 65.2323 162.405 65.2323C162.465 65.2412 162.525 65.2479 162.585 65.2501C162.639 65.2568 162.69 65.2612 162.744 65.2634C162.831 65.2723 162.916 65.2767 163.003 65.279C163.043 65.2812 163.086 65.2834 163.126 65.2834C163.22 65.2879 163.314 65.2879 163.407 65.2879C163.53 65.2879 163.655 65.2856 163.783 65.279C163.912 65.2745 164.044 65.2656 164.178 65.2545C164.415 65.2368 164.654 65.2101 164.9 65.1745C164.969 65.1656 165.038 65.1545 165.109 65.1434C165.226 65.1256 165.344 65.1034 165.462 65.0812C165.527 65.0701 165.594 65.0568 165.659 65.0412C165.847 65.0056 166.036 64.9634 166.229 64.9145C166.316 64.8945 166.405 64.8723 166.494 64.8479C166.599 64.8212 166.704 64.7923 166.811 64.7612C167.169 64.6568 167.508 64.6079 167.828 64.6123C167.872 64.6123 167.913 64.6145 167.955 64.6168C168.165 64.6279 168.364 64.6612 168.554 64.7167C168.581 64.7234 168.605 64.7323 168.63 64.7412C168.656 64.7479 168.683 64.7568 168.708 64.7679C168.786 64.7968 168.864 64.8279 168.938 64.8634C168.978 64.8834 169.016 64.9034 169.054 64.9234C169.063 64.9279 169.072 64.9345 169.079 64.9368C169.878 65.3901 170.423 66.2923 170.593 67.5034Z" fill="#80CD75"/>
<path d="M155.159 58.9436L151.234 56.6747C151.598 56.6014 151.971 56.5102 152.353 56.4014C153.236 56.1436 154.017 56.228 154.641 56.588L169.054 64.9236C169.016 64.9036 168.978 64.8836 168.938 64.8636C168.864 64.828 168.786 64.7947 168.708 64.768C168.683 64.7569 168.657 64.748 168.63 64.7414C168.605 64.7325 168.578 64.7236 168.554 64.7169C168.364 64.6614 168.165 64.628 167.955 64.6169C167.913 64.6147 167.87 64.6125 167.828 64.6125C167.509 64.608 167.169 64.6569 166.812 64.7614C166.704 64.7925 166.599 64.8214 166.494 64.848C166.405 64.8725 166.316 64.8947 166.229 64.9147C166.037 64.9636 165.847 65.0036 165.659 65.0414C165.594 65.0569 165.527 65.0702 165.463 65.0814C165.344 65.1036 165.226 65.1258 165.11 65.1436C165.038 65.1547 164.969 65.1658 164.9 65.1747C164.654 65.2102 164.415 65.2369 164.178 65.2547C164.044 65.2658 163.912 65.2747 163.783 65.2791C163.656 65.2858 163.53 65.288 163.408 65.288C163.314 65.288 163.22 65.288 163.126 65.2836C163.086 65.2836 163.044 65.2814 163.003 65.2791C162.916 65.2769 162.831 65.2725 162.744 65.2636C162.691 65.2614 162.639 65.2569 162.586 65.2502C162.525 65.2502 162.465 65.2414 162.405 65.2325C162.385 65.2325 162.364 65.2302 162.344 65.2258C162.275 65.2191 162.206 65.208 162.139 65.1991L162.012 65.1791C161.969 65.1725 161.927 65.1636 161.884 65.1569C161.806 65.1436 161.728 65.128 161.652 65.1102C161.563 65.0925 161.473 65.0702 161.386 65.048C161.384 65.048 161.382 65.048 161.379 65.0458C161.295 65.0236 161.207 65.0014 161.123 64.9747C160.935 64.9191 160.752 64.8547 160.571 64.7836C160.495 64.7547 160.421 64.7236 160.348 64.6902C160.254 64.6502 160.162 64.608 160.073 64.5614C160.001 64.528 159.93 64.4902 159.861 64.4525C159.78 64.4102 159.702 64.3658 159.624 64.3191C158.228 63.4858 157.102 62.1102 156.253 60.1769C155.992 59.6014 155.606 59.1858 155.128 58.928C155.139 58.9325 155.15 58.9369 155.159 58.9436Z" fill="#008560"/>
<path d="M163.713 86.7164C167.189 121.654 157.428 151.061 133.888 176.623C132.237 178.423 129.863 180.172 127.412 180.343C126.363 180.41 125.342 180.436 124.348 180.425C124.2 180.423 124.055 180.421 123.91 180.416C123.834 180.416 123.758 180.416 123.682 180.41C123.568 180.408 123.457 180.405 123.343 180.401C123.153 180.392 122.961 180.383 122.773 180.374C122.668 180.368 122.565 180.361 122.46 180.354L122.166 180.334C122.036 180.325 121.904 180.314 121.775 180.303C121.357 180.268 120.944 180.225 120.537 180.174C120.401 180.159 120.265 180.141 120.131 180.121C119.91 180.092 119.689 180.059 119.47 180.023C119.351 180.003 119.233 179.983 119.117 179.963C118.974 179.939 118.831 179.914 118.69 179.885C117.716 179.703 116.774 179.47 115.865 179.19C115.771 179.163 115.679 179.134 115.588 179.105C115.436 179.056 115.286 179.008 115.136 178.954C115.029 178.919 114.922 178.881 114.817 178.843C114.699 178.803 114.58 178.759 114.464 178.714C114.339 178.668 114.212 178.619 114.089 178.57C113.944 178.514 113.796 178.454 113.653 178.394C113.539 178.345 113.425 178.296 113.312 178.245C113.184 178.19 113.057 178.134 112.932 178.074C112.805 178.016 112.679 177.956 112.554 177.896C112.429 177.836 112.304 177.776 112.181 177.712C111.936 177.59 111.692 177.461 111.451 177.325C111.339 177.263 111.23 177.201 111.12 177.139C111.111 177.132 111.1 177.128 111.091 177.121C111.091 177.121 111.087 177.119 111.085 177.116C111.022 177.083 110.962 177.048 110.901 177.01C110.819 176.963 110.736 176.912 110.656 176.861C110.549 176.796 110.444 176.73 110.339 176.663C110.153 176.548 109.968 176.425 109.787 176.301C109.642 176.203 109.499 176.103 109.358 176.001C109.235 175.914 109.112 175.825 108.992 175.734C108.972 175.719 108.952 175.705 108.934 175.69C108.826 175.608 108.717 175.525 108.61 175.441C108.545 175.39 108.478 175.339 108.413 175.285C108.34 175.228 108.268 175.168 108.197 175.11C108.031 174.974 107.87 174.836 107.71 174.694C107.43 174.452 107.158 174.201 106.89 173.941C106.774 173.83 106.66 173.716 106.548 173.603C106.043 173.094 105.561 172.559 105.096 171.992C105.002 171.879 104.911 171.765 104.819 171.65C104.71 171.514 104.603 171.374 104.495 171.234C104.435 171.154 104.375 171.074 104.315 170.992C104.122 170.732 103.933 170.465 103.747 170.192C103.647 170.048 103.548 169.901 103.452 169.754C103.394 169.665 103.338 169.576 103.278 169.485C103.122 169.241 102.968 168.992 102.818 168.739L102.697 168.532C102.646 168.45 102.597 168.365 102.55 168.279C102.454 168.11 102.358 167.939 102.264 167.765C102.202 167.654 102.141 167.541 102.081 167.428C101.942 167.17 101.808 166.905 101.677 166.639C101.596 166.476 101.516 166.314 101.438 166.15C101.353 165.972 101.27 165.79 101.187 165.608C101.103 165.419 101.02 165.23 100.937 165.041C100.843 164.83 100.754 164.616 100.667 164.399C100.604 164.245 100.542 164.09 100.477 163.934C100.448 163.856 100.417 163.776 100.386 163.696C100.281 163.428 100.18 163.156 100.08 162.881C100.075 162.872 100.073 162.863 100.071 162.856C99.9746 162.59 99.8808 162.319 99.787 162.045C99.7803 162.028 99.7736 162.012 99.7691 161.994C99.7066 161.803 99.6418 161.61 99.5793 161.414C99.443 160.99 99.3112 160.559 99.1839 160.121C99.1214 159.901 99.0588 159.681 98.9963 159.456C98.936 159.234 98.8757 159.01 98.8176 158.783C98.7573 158.556 98.7014 158.328 98.6434 158.099C98.5317 157.639 98.4222 157.17 98.3195 156.696C98.2167 156.221 98.1185 155.739 98.0224 155.25C97.9532 154.883 97.8839 154.512 97.8192 154.139C97.7857 153.952 97.7544 153.763 97.7231 153.572C97.6918 153.383 97.6628 153.192 97.6315 153.001C97.5534 152.49 97.4774 151.972 97.4059 151.448C97.3546 151.056 97.3054 150.661 97.2563 150.263C97.2094 149.863 97.1647 149.461 97.1223 149.054C97.0597 148.443 97.0017 147.825 96.9503 147.196C96.9346 146.988 96.9168 146.776 96.9011 146.565C96.8989 146.552 96.8989 146.539 96.8989 146.525C96.8743 146.205 96.852 145.883 96.8319 145.559C96.8118 145.234 96.7917 144.908 96.7738 144.579C96.756 144.248 96.7403 143.916 96.7247 143.583C96.7225 143.568 96.7225 143.552 96.7225 143.536C96.6353 141.516 96.5996 139.414 96.6197 137.225C96.6309 136.039 96.6577 134.825 96.7001 133.59C96.7381 132.474 96.7895 131.339 96.8542 130.183C96.8766 129.763 96.9034 129.341 96.9302 128.916C96.9525 128.559 96.9749 128.199 97.0017 127.836C97.0374 127.303 97.0776 126.763 97.12 126.219C97.1535 125.776 97.1893 125.332 97.2273 124.885C97.502 121.656 99.1526 118.001 101.636 115.099C104.279 112.045 106.459 108.57 108.127 104.783C109.655 101.341 112.103 98.3987 114.696 96.9098L146.159 78.8587C147.428 78.1298 148.665 77.7853 149.778 77.8231C149.818 77.8253 149.856 77.8276 149.896 77.8298C149.909 77.8298 149.925 77.8298 149.938 77.832C149.983 77.8342 150.026 77.8387 150.068 77.8431C150.117 77.8476 150.168 77.852 150.22 77.8609C150.3 77.8698 150.376 77.8831 150.452 77.8964C150.49 77.9031 150.528 77.9098 150.566 77.9187C150.691 77.9453 150.814 77.9764 150.935 78.0142C150.993 78.032 151.051 78.052 151.109 78.072C151.187 78.0987 151.265 78.1298 151.341 78.1631C151.393 78.1853 151.442 78.2076 151.491 78.232C151.506 78.2387 151.522 78.2453 151.538 78.2542C151.6 78.2853 151.661 78.3164 151.719 78.3498C151.723 78.352 151.728 78.3542 151.73 78.3564C152.103 78.5676 152.445 78.8387 152.751 79.172C152.842 79.2742 152.936 79.3742 153.034 79.4698C153.535 79.9787 154.08 80.4142 154.667 80.772C154.794 80.8476 154.922 80.9231 155.053 80.992C155.12 81.0298 155.185 81.0631 155.25 81.0942C156.119 81.5409 156.874 81.7476 157.557 81.8542C157.56 81.8564 157.562 81.8564 157.564 81.8564C158.107 81.9542 158.674 82.0053 159.264 82.0076L159.282 82.0076C159.778 82.0431 160.249 82.0964 160.722 82.2542C160.783 82.2742 160.841 82.2964 160.899 82.3187C160.946 82.3364 160.997 82.3587 161.044 82.3787C161.149 82.4231 161.254 82.4742 161.352 82.5298C161.372 82.5409 161.39 82.5498 161.408 82.5609L161.442 82.5809C161.506 82.6164 161.569 82.6564 161.629 82.6987C161.638 82.7031 161.647 82.7076 161.654 82.7142C161.727 82.7631 161.799 82.8142 161.87 82.8698C161.935 82.9209 162 82.9742 162.062 83.0276C162.08 83.0431 162.098 83.0587 162.114 83.0742C162.174 83.1298 162.23 83.1853 162.286 83.2431C162.339 83.2964 162.389 83.3498 162.438 83.4076C162.449 83.4187 162.458 83.4298 162.467 83.4409C162.503 83.4809 162.536 83.5231 162.567 83.5653C162.585 83.5831 162.599 83.6009 162.612 83.6209C162.641 83.6564 162.668 83.692 162.692 83.7298C162.726 83.772 162.755 83.8164 162.784 83.8609C162.889 84.0187 162.987 84.1853 163.077 84.3631C163.106 84.4209 163.135 84.4809 163.161 84.5409C163.164 84.5453 163.166 84.552 163.168 84.5564C163.199 84.6209 163.228 84.6876 163.255 84.7564C163.284 84.8276 163.313 84.9009 163.34 84.9764C163.358 85.0253 163.374 85.0764 163.391 85.1276C163.412 85.1831 163.429 85.2409 163.445 85.2987C163.452 85.3187 163.456 85.3387 163.463 85.3587C163.481 85.4209 163.499 85.4831 163.512 85.5476C163.546 85.672 163.575 85.7987 163.599 85.9276C163.61 85.9809 163.622 86.0342 163.628 86.0898C163.644 86.1698 163.657 86.2498 163.668 86.332C163.668 86.3431 163.671 86.352 163.673 86.3631C163.689 86.4787 163.702 86.5964 163.713 86.7164Z" fill="#80CD75"/>
<path d="M161.352 82.5307C161.254 82.4751 161.149 82.424 161.044 82.3796C160.997 82.3574 160.948 82.3374 160.899 82.3196C160.841 82.2951 160.783 82.2729 160.722 82.2551C160.282 82.1018 159.8 82.0174 159.282 82.0085L159.264 82.0085C158.734 81.9707 158.178 81.9551 157.564 81.8574C157.562 81.8574 157.559 81.8574 157.557 81.8551C156.733 81.7085 155.965 81.4551 155.25 81.0951C155.185 81.0618 155.118 81.0285 155.053 80.9929C154.922 80.924 154.794 80.8485 154.667 80.7729C154.08 80.4151 153.535 79.9796 153.034 79.4707C154.823 79.904 156.159 79.5263 157.535 80.3218L161.352 82.5307Z" fill="#008560"/>
<path d="M155.158 58.9436C155.158 58.9436 155.138 58.9325 155.127 58.928C155.107 58.9169 155.085 58.9058 155.062 58.8947C155.02 58.8703 154.973 58.8503 154.928 58.8325C154.881 58.8103 154.839 58.7925 154.79 58.7769C154.718 58.7503 154.647 58.728 154.575 58.7103C154.513 58.6925 154.45 58.6791 154.388 58.668C154.343 58.6591 154.301 58.6503 154.254 58.6458C154.229 58.6391 154.202 58.6369 154.176 58.6347C154.053 58.6191 153.928 58.6125 153.798 58.6125C153.738 58.6125 153.677 58.6147 153.617 58.6169C153.568 58.6169 153.517 58.6236 153.465 58.628C153.132 58.6591 152.784 58.7347 152.427 58.8547C152.373 58.8725 152.319 58.8925 152.266 58.9125C152.159 58.9503 152.051 58.9947 151.942 59.0436C151.725 59.1391 151.504 59.2503 151.283 59.3769L104.947 85.9747C102.818 87.1969 100.826 89.728 100.028 92.4547C98.0805 99.2725 94.5536 104.768 89.5145 109.124C87.5199 110.832 86.0681 113.692 85.7643 116.21C85.6504 117.212 85.5432 118.215 85.4404 119.212C85.3891 119.708 85.3377 120.206 85.2908 120.71C85.2416 121.204 85.1947 121.701 85.1501 122.204C84.5358 128.899 84.1382 136.255 84.346 143.579C84.3549 143.815 84.3616 144.05 84.3683 144.288C84.7949 157.299 87.1134 168.83 92.4808 177.148C92.7511 177.564 93.028 177.972 93.3095 178.372C95.6615 181.726 98.5853 184.539 102.184 186.621L87.7232 178.261C67.3235 166.466 68.666 131.101 71.3039 107.85C71.6099 105.332 73.0595 102.472 75.0563 100.764C80.0954 96.408 83.6223 90.9147 85.57 84.0947C86.3651 81.368 88.3598 78.8369 90.4884 77.6147L136.823 51.0169C138.306 50.1658 139.726 50.0214 140.729 50.6014L151.234 56.6747L155.158 58.9436Z" fill="#008560"/>
<path d="M147.868 76.1239L151.719 78.3505C151.661 78.3172 151.6 78.2839 151.538 78.255C151.522 78.2461 151.507 78.2394 151.491 78.2328C151.442 78.2083 151.393 78.1861 151.341 78.1639C151.265 78.1305 151.187 78.0994 151.109 78.0728C151.051 78.0505 150.993 78.0328 150.935 78.015C150.814 77.9772 150.691 77.9461 150.566 77.9194C150.528 77.9105 150.49 77.9039 150.452 77.8972C150.376 77.8816 150.298 77.8705 150.22 77.8617C150.169 77.8528 150.117 77.8483 150.068 77.8439C150.026 77.8394 149.981 77.835 149.939 77.8328C149.925 77.8305 149.91 77.8305 149.896 77.8305C149.858 77.8283 149.818 77.8261 149.778 77.8239C148.666 77.7861 147.428 78.1305 146.159 78.8594L114.697 96.9105C112.103 98.3994 109.655 101.342 108.128 104.784C106.459 108.571 104.279 112.046 101.637 115.099C99.1529 118.002 97.5023 121.657 97.2275 124.886C97.1896 125.333 97.1538 125.777 97.1203 126.219C97.0779 126.764 97.0377 127.304 97.0019 127.837C96.9751 128.199 96.9506 128.559 96.9305 128.917C96.9014 129.342 96.8769 129.764 96.8545 130.184C96.7897 131.339 96.7384 132.475 96.7004 133.591C96.6557 134.828 96.6289 136.039 96.62 137.226C96.5999 139.415 96.6334 141.519 96.7227 143.537C96.7227 143.553 96.7227 143.568 96.725 143.584C96.7384 143.917 96.7562 144.251 96.7741 144.579C96.792 144.908 96.8098 145.235 96.8322 145.559C96.8523 145.884 96.8746 146.206 96.8992 146.526C96.8992 146.539 96.8992 146.553 96.9014 146.566C96.9171 146.777 96.9327 146.988 96.9506 147.197C97.0019 147.826 97.0578 148.444 97.1226 149.055C97.1628 149.462 97.2074 149.864 97.2566 150.264C97.3035 150.664 97.3526 151.057 97.4062 151.448C97.4755 151.973 97.5514 152.491 97.6318 153.002C97.6609 153.193 97.6899 153.384 97.7234 153.573C97.7547 153.764 97.7859 153.953 97.8194 154.139C97.8842 154.515 97.9512 154.884 98.0227 155.251C98.1165 155.739 98.2148 156.224 98.3198 156.697C98.4225 157.173 98.5297 157.639 98.6436 158.099C98.6995 158.331 98.7576 158.557 98.8179 158.784C98.8737 159.011 98.934 159.235 98.9966 159.457C99.0569 159.679 99.1194 159.902 99.1842 160.122C99.3093 160.559 99.4411 160.991 99.5795 161.415C99.6398 161.611 99.7046 161.804 99.7694 161.995C99.7739 162.013 99.7806 162.028 99.7873 162.046C99.8788 162.319 99.9726 162.588 100.071 162.857C100.073 162.864 100.075 162.873 100.08 162.882C100.178 163.157 100.281 163.428 100.386 163.697C100.417 163.777 100.448 163.857 100.477 163.935C100.54 164.093 100.603 164.246 100.667 164.399C100.754 164.617 100.844 164.831 100.938 165.042C101.018 165.233 101.103 165.422 101.188 165.608C101.27 165.791 101.353 165.973 101.438 166.151C101.516 166.315 101.596 166.477 101.677 166.639C101.809 166.906 101.943 167.171 102.081 167.428C102.141 167.542 102.202 167.655 102.264 167.766C102.358 167.939 102.452 168.111 102.55 168.279C102.597 168.366 102.646 168.451 102.698 168.533C102.736 168.602 102.778 168.671 102.818 168.739C102.968 168.993 103.122 169.242 103.278 169.486C103.336 169.577 103.395 169.666 103.453 169.755C103.549 169.904 103.647 170.048 103.747 170.193C103.933 170.466 104.123 170.733 104.315 170.993C104.375 171.075 104.435 171.155 104.496 171.235C104.603 171.375 104.71 171.515 104.82 171.651C104.911 171.766 105.003 171.879 105.097 171.993C105.561 172.559 106.044 173.095 106.548 173.604C106.66 173.717 106.774 173.831 106.89 173.942C107.158 174.202 107.431 174.453 107.71 174.695C107.871 174.837 108.032 174.975 108.197 175.111C108.268 175.171 108.34 175.228 108.413 175.286C108.478 175.339 108.545 175.391 108.61 175.442C108.717 175.526 108.824 175.608 108.934 175.691C108.952 175.706 108.972 175.719 108.992 175.735C109.113 175.826 109.235 175.915 109.358 176.002C109.501 176.104 109.644 176.204 109.787 176.302C109.968 176.426 110.153 176.548 110.339 176.664C110.444 176.733 110.549 176.797 110.656 176.862C110.736 176.913 110.819 176.964 110.902 177.011C110.953 177.042 111.007 177.073 111.06 177.106L107.223 174.888C95.5076 168.113 90.9466 150.833 93.3321 122.633C93.6068 119.406 95.2575 115.751 97.7413 112.848C100.384 109.795 102.564 106.319 104.232 102.533C105.76 99.0883 108.208 96.1461 110.801 94.6572L142.264 76.6061C144.357 75.4039 146.363 75.2528 147.868 76.1239Z" fill="#008560"/>
<path d="M151.234 56.6747C151.598 56.6014 151.971 56.5102 152.353 56.4014C153.236 56.1436 154.017 56.228 154.641 56.588L169.054 64.9236" stroke="#191333" stroke-width="2.46154" stroke-linecap="round" stroke-linejoin="round"/>
<path d="M160.073 64.5616C160.002 64.5282 159.93 64.4904 159.861 64.4527C159.78 64.4104 159.702 64.366 159.624 64.3193" stroke="#191333" stroke-width="2.46154" stroke-linecap="round" stroke-linejoin="round"/>
<path d="M160.571 64.7838C160.495 64.7549 160.419 64.7238 160.347 64.6904" stroke="#191333" stroke-width="2.46154" stroke-linecap="round" stroke-linejoin="round"/>
<path d="M161.379 65.0457C161.292 65.0235 161.207 65.0013 161.123 64.9746" stroke="#191333" stroke-width="2.46154" stroke-linecap="round" stroke-linejoin="round"/>
<path d="M161.652 65.1101C161.562 65.0923 161.473 65.0701 161.386 65.0479" stroke="#191333" stroke-width="2.46154" stroke-linecap="round" stroke-linejoin="round"/>
<path d="M162.011 65.1795C161.969 65.1728 161.926 65.1639 161.884 65.1572" stroke="#191333" stroke-width="2.46154" stroke-linecap="round" stroke-linejoin="round"/>
<path d="M162.344 65.2259C162.275 65.2192 162.206 65.2081 162.139 65.1992" stroke="#191333" stroke-width="2.46154" stroke-linecap="round" stroke-linejoin="round"/>
<path d="M162.744 65.2635C162.69 65.2613 162.639 65.2569 162.585 65.2502C162.525 65.2502 162.465 65.2413 162.404 65.2324" stroke="#191333" stroke-width="2.46154" stroke-linecap="round" stroke-linejoin="round"/>
<path d="M163.126 65.2837C163.086 65.2837 163.043 65.2815 163.003 65.2793" stroke="#191333" stroke-width="2.46154" stroke-linecap="round" stroke-linejoin="round"/>
<path d="M164.178 65.2539C164.044 65.265 163.912 65.2739 163.782 65.2783C163.655 65.285 163.53 65.2872 163.407 65.2872" stroke="#191333" stroke-width="2.46154" stroke-linecap="round" stroke-linejoin="round"/>
<path d="M165.462 65.0811C165.344 65.1033 165.226 65.1255 165.109 65.1433C165.038 65.1544 164.969 65.1655 164.899 65.1744" stroke="#191333" stroke-width="2.46154" stroke-linecap="round" stroke-linejoin="round"/>
<path d="M166.494 64.8477C166.405 64.8721 166.315 64.8943 166.228 64.9143C166.036 64.9632 165.846 65.0032 165.659 65.041" stroke="#191333" stroke-width="2.46154" stroke-linecap="round" stroke-linejoin="round"/>
<path d="M167.955 64.6168C167.913 64.6145 167.872 64.6123 167.828 64.6123" stroke="#191333" stroke-width="2.46154" stroke-linecap="round" stroke-linejoin="round"/>
<path d="M168.63 64.7412C168.605 64.7324 168.581 64.7235 168.554 64.7168" stroke="#191333" stroke-width="2.46154" stroke-linecap="round" stroke-linejoin="round"/>
<path d="M168.938 64.8631C168.864 64.8276 168.786 64.7942 168.708 64.7676" stroke="#191333" stroke-width="2.46154" stroke-linecap="round" stroke-linejoin="round"/>
<path d="M169.099 64.9476C169.099 64.9476 169.085 64.941 169.079 64.9365" stroke="#191333" stroke-width="2.46154" stroke-linecap="round" stroke-linejoin="round"/>
<path d="M136.823 51.0169C138.306 50.1658 139.726 50.0214 140.729 50.6014L151.234 56.6747L155.159 58.9436" stroke="#191333" stroke-width="2.46154" stroke-linecap="round" stroke-linejoin="round"/>
<path d="M151.942 59.0439C151.725 59.1395 151.504 59.2506 151.283 59.3773" stroke="#191333" stroke-width="2.46154" stroke-linecap="round" stroke-linejoin="round"/>
<path d="M152.427 58.8545C152.373 58.8723 152.32 58.8923 152.266 58.9123" stroke="#191333" stroke-width="2.46154" stroke-linecap="round" stroke-linejoin="round"/>
<path d="M154.176 58.6345C154.053 58.619 153.928 58.6123 153.799 58.6123C153.738 58.6123 153.678 58.6145 153.618 58.6168C153.569 58.6168 153.517 58.6234 153.466 58.6279" stroke="#191333" stroke-width="2.46154" stroke-linecap="round" stroke-linejoin="round"/>
<path d="M154.576 58.7109C154.513 58.6931 154.451 58.6798 154.388 58.6687C154.344 58.6598 154.301 58.6509 154.254 58.6465" stroke="#191333" stroke-width="2.46154" stroke-linecap="round" stroke-linejoin="round"/>
<path d="M155.19 58.9618C155.19 58.9618 155.17 58.9507 155.159 58.944C155.15 58.9373 155.138 58.9329 155.127 58.9285C155.107 58.9151 155.085 58.904 155.063 58.8951C155.02 58.8707 154.973 58.8507 154.929 58.8329C154.882 58.8107 154.839 58.7929 154.79 58.7773" stroke="#191333" stroke-width="2.46154" stroke-linecap="round" stroke-linejoin="round"/>
<path d="M136.823 51.0166L90.4888 77.6144" stroke="#191333" stroke-width="2.46154" stroke-linecap="round" stroke-linejoin="round"/>
<path d="M84.3456 143.579C84.1379 136.254 84.5355 128.899 85.1498 122.203C85.1944 121.701 85.2413 121.203 85.2905 120.71C85.3374 120.205 85.3887 119.707 85.4401 119.212" stroke="#191333" stroke-width="2.46154" stroke-linecap="round" stroke-linejoin="round"/>
<path d="M92.4807 177.148C86.8922 168.406 84.7791 156.417 84.3682 144.288" stroke="#191333" stroke-width="2.46154" stroke-linecap="round" stroke-linejoin="round"/>
<path d="M90.4884 77.6152C88.3598 78.8375 86.3651 81.3686 85.57 84.0952C83.6223 90.9152 80.0954 96.4086 75.0563 100.764C73.0595 102.473 71.6099 105.333 71.3039 107.851C68.666 131.102 67.3235 166.466 87.7232 178.262L102.184 186.622C98.5853 184.54 95.6615 181.726 93.3095 178.373" stroke="#191333" stroke-width="2.46154" stroke-linecap="round" stroke-linejoin="round"/>
<path d="M104.947 85.9745L151.283 59.3767C151.505 59.2501 151.726 59.139 151.942 59.0434C152.052 58.9945 152.159 58.9501 152.266 58.9123C152.32 58.8923 152.373 58.8723 152.427 58.8545C152.784 58.7345 153.133 58.659 153.466 58.6279C153.517 58.6234 153.568 58.619 153.618 58.6168C153.678 58.6145 153.738 58.6123 153.798 58.6123C153.928 58.6123 154.053 58.619 154.176 58.6345C154.203 58.6368 154.23 58.639 154.254 58.6456C154.299 58.6501 154.346 58.659 154.388 58.6679C154.453 58.679 154.513 58.6923 154.576 58.7101C154.647 58.7279 154.719 58.7501 154.79 58.7768C154.837 58.7945 154.884 58.8123 154.929 58.8323C154.976 58.8501 155.02 58.8723 155.063 58.8945C155.085 58.9056 155.107 58.9168 155.127 58.9279C155.605 59.1856 155.992 59.6012 156.253 60.1768C157.102 62.1101 158.228 63.4856 159.624 64.319C159.702 64.3656 159.78 64.4101 159.86 64.4523C159.93 64.4901 160.001 64.5279 160.073 64.5612C160.162 64.6079 160.254 64.6501 160.347 64.6901C160.421 64.7234 160.495 64.7545 160.571 64.7834C160.752 64.8545 160.935 64.919 161.122 64.9745C161.207 65.0012 161.294 65.0234 161.379 65.0456C161.382 65.0479 161.384 65.0479 161.386 65.0479C161.473 65.0701 161.562 65.0923 161.652 65.1101C161.728 65.1279 161.806 65.1434 161.884 65.1568C161.927 65.1656 161.969 65.1723 162.011 65.179L162.139 65.199C162.206 65.2101 162.275 65.219 162.344 65.2256C162.364 65.2301 162.384 65.2323 162.405 65.2323C162.465 65.2412 162.525 65.2479 162.585 65.2501C162.639 65.2568 162.69 65.2612 162.744 65.2634C162.831 65.2723 162.916 65.2767 163.003 65.279C163.043 65.2812 163.086 65.2834 163.126 65.2834C163.22 65.2879 163.314 65.2879 163.407 65.2879C163.53 65.2879 163.655 65.2856 163.783 65.279C163.912 65.2745 164.044 65.2656 164.178 65.2545C164.415 65.2368 164.654 65.2101 164.9 65.1745C164.969 65.1656 165.038 65.1545 165.109 65.1434C165.226 65.1256 165.344 65.1034 165.462 65.0812C165.527 65.0701 165.594 65.0568 165.659 65.0412C165.847 65.0056 166.036 64.9634 166.229 64.9145C166.316 64.8945 166.405 64.8723 166.494 64.8479C166.599 64.8212 166.704 64.7923 166.811 64.7612C167.169 64.6568 167.508 64.6079 167.828 64.6123C167.87 64.6123 167.913 64.6145 167.955 64.6168C168.165 64.6279 168.364 64.6612 168.554 64.7167C168.578 64.7234 168.605 64.7323 168.63 64.7412C168.656 64.7479 168.683 64.7568 168.708 64.7679C168.786 64.7968 168.864 64.8279 168.938 64.8634C168.978 64.8834 169.016 64.9034 169.054 64.9234C169.063 64.9279 169.072 64.9345 169.079 64.9368C169.878 65.3901 170.423 66.2923 170.593 67.5034C177.593 118.546 160.745 156.87 130.444 187.981C129.387 189.063 127.911 190.115 126.401 190.303C110.227 192.277 99.7627 187.455 93.3098 178.372C93.0284 177.972 92.7514 177.563 92.4811 177.148C87.1138 168.83 84.7953 157.299 84.3686 144.288C84.3619 144.05 84.3552 143.815 84.3463 143.579C84.1609 136.768 84.4826 129.559 85.1504 122.203C85.1951 121.706 85.242 121.208 85.2911 120.71C85.338 120.212 85.3894 119.712 85.4408 119.212C85.5435 118.215 85.6507 117.212 85.7646 116.21C86.0684 113.692 87.5203 110.832 89.5149 109.123C94.5539 104.768 98.0808 99.2723 100.029 92.4545C100.826 89.7279 102.818 87.1967 104.947 85.9745Z" stroke="#191333" stroke-width="2.46154" stroke-linecap="round" stroke-linejoin="round"/>
<path d="M159.282 82.0078C159.778 82.0434 160.249 82.0967 160.722 82.2545C160.783 82.2745 160.841 82.2967 160.899 82.3189C160.946 82.3367 160.997 82.3589 161.044 82.3789" stroke="#191333" stroke-width="2.46154" stroke-linecap="round" stroke-linejoin="round"/>
<path d="M157.564 81.8564C158.179 81.9542 158.735 81.9698 159.264 82.0076" stroke="#191333" stroke-width="2.46154" stroke-linecap="round" stroke-linejoin="round"/>
<path d="M155.054 80.9922C155.121 81.03 155.185 81.0633 155.25 81.0944C156.119 81.5411 156.874 81.7477 157.558 81.8544" stroke="#191333" stroke-width="2.46154" stroke-linecap="round" stroke-linejoin="round"/>
<path d="M161.352 82.5307L157.535 80.3218C156.159 79.5263 154.823 79.904 153.034 79.4707" stroke="#191333" stroke-width="2.46154" stroke-linecap="round" stroke-linejoin="round"/>
<path d="M161.63 82.6988C161.569 82.6566 161.507 82.6166 161.442 82.5811" stroke="#191333" stroke-width="2.46154" stroke-linecap="round" stroke-linejoin="round"/>
<path d="M162.063 83.0282C162 82.9748 161.935 82.9215 161.87 82.8704C161.799 82.8148 161.728 82.7637 161.654 82.7148" stroke="#191333" stroke-width="2.46154" stroke-linecap="round" stroke-linejoin="round"/>
<path d="M162.438 83.4085C162.389 83.3508 162.34 83.2974 162.286 83.2441C162.23 83.1863 162.175 83.1308 162.114 83.0752" stroke="#191333" stroke-width="2.46154" stroke-linecap="round" stroke-linejoin="round"/>
<path d="M162.567 83.5659C162.536 83.5236 162.503 83.4814 162.467 83.4414" stroke="#191333" stroke-width="2.46154" stroke-linecap="round" stroke-linejoin="round"/>
<path d="M162.784 83.8611C162.755 83.8167 162.726 83.7722 162.693 83.73C162.668 83.6922 162.641 83.6566 162.612 83.6211" stroke="#191333" stroke-width="2.46154" stroke-linecap="round" stroke-linejoin="round"/>
<path d="M163.162 84.5411C163.135 84.4788 163.106 84.4211 163.077 84.3633" stroke="#191333" stroke-width="2.46154" stroke-linecap="round" stroke-linejoin="round"/>
<path d="M163.256 84.7576C163.229 84.6887 163.2 84.6221 163.168 84.5576" stroke="#191333" stroke-width="2.46154" stroke-linecap="round" stroke-linejoin="round"/>
<path d="M163.445 85.2988C163.43 85.241 163.412 85.1832 163.392 85.1277C163.376 85.0766 163.358 85.0255 163.34 84.9766" stroke="#191333" stroke-width="2.46154" stroke-linecap="round" stroke-linejoin="round"/>
<path d="M163.669 86.3317C163.658 86.2495 163.644 86.1695 163.629 86.0895C163.622 86.034 163.611 85.9806 163.6 85.9273C163.575 85.7984 163.546 85.6717 163.513 85.5473C163.499 85.4828 163.481 85.4206 163.463 85.3584" stroke="#191333" stroke-width="2.46154" stroke-linecap="round" stroke-linejoin="round"/>
<path d="M163.713 86.7166C163.702 86.5966 163.688 86.4788 163.673 86.3633" stroke="#191333" stroke-width="2.46154" stroke-linecap="round" stroke-linejoin="round"/>
<path d="M123.911 180.417C124.056 180.421 124.203 180.424 124.348 180.426" stroke="#191333" stroke-width="2.46154" stroke-linecap="round" stroke-linejoin="round"/>
<path d="M123.343 180.401C123.457 180.406 123.569 180.408 123.683 180.41" stroke="#191333" stroke-width="2.46154" stroke-linecap="round" stroke-linejoin="round"/>
<path d="M122.46 180.354C122.565 180.361 122.668 180.368 122.773 180.374" stroke="#191333" stroke-width="2.46154" stroke-linecap="round" stroke-linejoin="round"/>
<path d="M121.774 180.304C121.904 180.315 122.034 180.326 122.165 180.335" stroke="#191333" stroke-width="2.46154" stroke-linecap="round" stroke-linejoin="round"/>
<path d="M120.131 180.121C120.265 180.141 120.401 180.159 120.537 180.174" stroke="#191333" stroke-width="2.46154" stroke-linecap="round" stroke-linejoin="round"/>
<path d="M118.69 179.886C118.831 179.915 118.974 179.939 119.117 179.964C119.233 179.984 119.352 180.004 119.47 180.024" stroke="#191333" stroke-width="2.46154" stroke-linecap="round" stroke-linejoin="round"/>
<path d="M115.588 179.105C115.679 179.134 115.771 179.163 115.865 179.19" stroke="#191333" stroke-width="2.46154" stroke-linecap="round" stroke-linejoin="round"/>
<path d="M114.817 178.843C114.922 178.881 115.03 178.918 115.137 178.954" stroke="#191333" stroke-width="2.46154" stroke-linecap="round" stroke-linejoin="round"/>
<path d="M114.089 178.57C114.212 178.619 114.339 178.668 114.464 178.715" stroke="#191333" stroke-width="2.46154" stroke-linecap="round" stroke-linejoin="round"/>
<path d="M112.182 177.712C112.304 177.776 112.43 177.836 112.555 177.896C112.68 177.956 112.805 178.016 112.932 178.074C113.057 178.134 113.185 178.19 113.312 178.245C113.426 178.296 113.54 178.345 113.654 178.394" stroke="#191333" stroke-width="2.46154" stroke-linecap="round" stroke-linejoin="round"/>
<path d="M111.121 177.139C111.23 177.201 111.34 177.263 111.451 177.325" stroke="#191333" stroke-width="2.46154" stroke-linecap="round" stroke-linejoin="round"/>
<path d="M151.538 78.2539C151.601 78.2828 151.661 78.3161 151.719 78.3495" stroke="#191333" stroke-width="2.46154" stroke-linecap="round" stroke-linejoin="round"/>
<path d="M151.341 78.1631C151.393 78.1853 151.442 78.2075 151.491 78.232" stroke="#191333" stroke-width="2.46154" stroke-linecap="round" stroke-linejoin="round"/>
<path d="M150.935 78.0146C150.993 78.0324 151.051 78.0502 151.109 78.0724" stroke="#191333" stroke-width="2.46154" stroke-linecap="round" stroke-linejoin="round"/>
<path d="M150.22 77.8613C150.3 77.8702 150.376 77.8835 150.452 77.8969C150.49 77.9035 150.528 77.9102 150.566 77.9191" stroke="#191333" stroke-width="2.46154" stroke-linecap="round" stroke-linejoin="round"/>
<path d="M149.938 77.832C149.981 77.8343 150.026 77.8387 150.068 77.8431" stroke="#191333" stroke-width="2.46154" stroke-linecap="round" stroke-linejoin="round"/>
<path d="M149.778 77.8242C149.818 77.8264 149.856 77.8287 149.896 77.8309" stroke="#191333" stroke-width="2.46154" stroke-linecap="round" stroke-linejoin="round"/>
<path d="M151.719 78.3505L147.868 76.1239C146.362 75.2528 144.357 75.4039 142.264 76.6061" stroke="#191333" stroke-width="2.46154" stroke-linecap="round" stroke-linejoin="round"/>
<path d="M151.763 78.3742C151.763 78.3742 151.741 78.3609 151.73 78.3564" stroke="#191333" stroke-width="2.46154" stroke-linecap="round" stroke-linejoin="round"/>
<path d="M142.264 76.6055L110.801 94.6566" stroke="#191333" stroke-width="2.46154" stroke-linecap="round" stroke-linejoin="round"/>
<path d="M97.1201 126.219C97.1536 125.777 97.1894 125.332 97.2273 124.886" stroke="#191333" stroke-width="2.46154" stroke-linecap="round" stroke-linejoin="round"/>
<path d="M96.8545 130.184C96.8768 129.764 96.9036 129.341 96.9304 128.917C96.9528 128.559 96.9751 128.199 97.0019 127.837" stroke="#191333" stroke-width="2.46154" stroke-linecap="round" stroke-linejoin="round"/>
<path d="M96.7225 143.537C96.6353 141.517 96.5996 139.414 96.6197 137.225C96.6309 136.039 96.6577 134.825 96.7001 133.59" stroke="#191333" stroke-width="2.46154" stroke-linecap="round" stroke-linejoin="round"/>
<path d="M96.8988 146.526C96.8743 146.206 96.8519 145.884 96.8318 145.56C96.8117 145.235 96.7916 144.908 96.7737 144.58C96.7559 144.248 96.7402 143.917 96.7246 143.584" stroke="#191333" stroke-width="2.46154" stroke-linecap="round" stroke-linejoin="round"/>
<path d="M97.7233 153.572C97.6921 153.383 97.663 153.192 97.6318 153.001C97.5536 152.49 97.4776 151.972 97.4062 151.448C97.3548 151.057 97.3057 150.661 97.2565 150.263C97.2096 149.863 97.1649 149.461 97.1225 149.054C97.06 148.443 97.0019 147.825 96.9505 147.197C96.9349 146.988 96.917 146.777 96.9014 146.565" stroke="#191333" stroke-width="2.46154" stroke-linecap="round" stroke-linejoin="round"/>
<path d="M99.7693 161.994C99.7067 161.803 99.642 161.61 99.5794 161.414C99.4432 160.99 99.3114 160.559 99.1841 160.121C99.1215 159.901 99.059 159.681 98.9965 159.456C98.9361 159.234 98.8758 159.01 98.8178 158.783C98.7575 158.556 98.7016 158.328 98.6435 158.099C98.5319 157.639 98.4224 157.17 98.3197 156.696C98.2169 156.221 98.1186 155.739 98.0226 155.25C97.9534 154.883 97.8841 154.512 97.8193 154.139" stroke="#191333" stroke-width="2.46154" stroke-linecap="round" stroke-linejoin="round"/>
<path d="M100.071 162.856C99.9747 162.589 99.8809 162.318 99.7871 162.045" stroke="#191333" stroke-width="2.46154" stroke-linecap="round" stroke-linejoin="round"/>
<path d="M100.386 163.697C100.281 163.429 100.181 163.157 100.08 162.882" stroke="#191333" stroke-width="2.46154" stroke-linecap="round" stroke-linejoin="round"/>
<path d="M100.667 164.399C100.604 164.246 100.542 164.09 100.477 163.935" stroke="#191333" stroke-width="2.46154" stroke-linecap="round" stroke-linejoin="round"/>
<path d="M101.188 165.609C101.103 165.42 101.02 165.231 100.938 165.042" stroke="#191333" stroke-width="2.46154" stroke-linecap="round" stroke-linejoin="round"/>
<path d="M101.676 166.638C101.596 166.476 101.516 166.314 101.438 166.149" stroke="#191333" stroke-width="2.46154" stroke-linecap="round" stroke-linejoin="round"/>
<path d="M102.55 168.279C102.454 168.11 102.358 167.939 102.264 167.766C102.202 167.654 102.141 167.541 102.081 167.428" stroke="#191333" stroke-width="2.46154" stroke-linecap="round" stroke-linejoin="round"/>
<path d="M102.818 168.739L102.698 168.532" stroke="#191333" stroke-width="2.46154" stroke-linecap="round" stroke-linejoin="round"/>
<path d="M103.747 170.193C103.647 170.049 103.549 169.902 103.453 169.755C103.394 169.666 103.339 169.577 103.278 169.486" stroke="#191333" stroke-width="2.46154" stroke-linecap="round" stroke-linejoin="round"/>
<path d="M104.496 171.234C104.436 171.154 104.375 171.074 104.315 170.992" stroke="#191333" stroke-width="2.46154" stroke-linecap="round" stroke-linejoin="round"/>
<path d="M105.097 171.992C105.003 171.878 104.911 171.765 104.82 171.649" stroke="#191333" stroke-width="2.46154" stroke-linecap="round" stroke-linejoin="round"/>
<path d="M107.709 174.696C107.43 174.453 107.158 174.202 106.89 173.942C106.773 173.831 106.66 173.718 106.548 173.604" stroke="#191333" stroke-width="2.46154" stroke-linecap="round" stroke-linejoin="round"/>
<path d="M108.413 175.286C108.339 175.228 108.268 175.17 108.196 175.11" stroke="#191333" stroke-width="2.46154" stroke-linecap="round" stroke-linejoin="round"/>
<path d="M108.934 175.69C108.827 175.608 108.717 175.526 108.61 175.441" stroke="#191333" stroke-width="2.46154" stroke-linecap="round" stroke-linejoin="round"/>
<path d="M109.787 176.302C109.642 176.204 109.499 176.104 109.358 176.002C109.235 175.915 109.112 175.826 108.992 175.735" stroke="#191333" stroke-width="2.46154" stroke-linecap="round" stroke-linejoin="round"/>
<path d="M110.656 176.861C110.549 176.796 110.444 176.73 110.339 176.663" stroke="#191333" stroke-width="2.46154" stroke-linecap="round" stroke-linejoin="round"/>
<path d="M111.085 177.117C111.022 177.084 110.962 177.049 110.901 177.011" stroke="#191333" stroke-width="2.46154" stroke-linecap="round" stroke-linejoin="round"/>
<path d="M111.092 177.122C111.092 177.122 111.087 177.119 111.085 177.117" stroke="#191333" stroke-width="2.46154" stroke-linecap="round" stroke-linejoin="round"/>
<path d="M111.076 177.115C111.076 177.115 111.08 177.117 111.085 177.117" stroke="#191333" stroke-width="2.46154" stroke-linecap="round" stroke-linejoin="round"/>
<path d="M110.801 94.6572C108.208 96.1461 105.76 99.0883 104.232 102.533C102.564 106.319 100.384 109.795 97.7413 112.848C95.2575 115.751 93.6068 119.406 93.3321 122.633C90.9466 150.833 95.5076 168.113 107.223 174.888L111.06 177.106" stroke="#191333" stroke-width="2.46154" stroke-linecap="round" stroke-linejoin="round"/>
<path d="M163.713 86.7164C167.189 121.654 157.428 151.061 133.888 176.623C132.237 178.423 129.863 180.172 127.413 180.343C126.363 180.41 125.342 180.436 124.348 180.425C124.201 180.423 124.055 180.421 123.91 180.416C123.834 180.416 123.758 180.416 123.682 180.41C123.569 180.408 123.457 180.405 123.343 180.401C123.153 180.392 122.961 180.383 122.773 180.374C122.668 180.368 122.563 180.361 122.461 180.354L122.166 180.334C122.036 180.325 121.904 180.314 121.775 180.303C121.357 180.268 120.944 180.225 120.537 180.174C120.401 180.159 120.265 180.141 120.131 180.121C119.91 180.092 119.689 180.059 119.47 180.023C119.351 180.003 119.235 179.985 119.117 179.963C118.974 179.939 118.831 179.914 118.69 179.885C117.716 179.703 116.774 179.47 115.865 179.19C115.771 179.163 115.679 179.134 115.588 179.105C115.436 179.056 115.286 179.008 115.137 178.954C115.029 178.919 114.922 178.881 114.817 178.843C114.699 178.803 114.58 178.759 114.464 178.714C114.339 178.668 114.214 178.619 114.089 178.57C113.944 178.514 113.796 178.454 113.653 178.394C113.54 178.345 113.426 178.296 113.312 178.245C113.184 178.19 113.057 178.134 112.932 178.074C112.805 178.019 112.68 177.959 112.555 177.896C112.429 177.836 112.304 177.776 112.182 177.712C111.936 177.59 111.692 177.461 111.451 177.325C111.342 177.265 111.23 177.203 111.121 177.139C111.112 177.132 111.1 177.128 111.092 177.121C111.085 177.119 111.08 177.116 111.076 177.114C111.069 177.11 111.065 177.108 111.06 177.105C111.007 177.072 110.953 177.041 110.902 177.01C110.819 176.963 110.736 176.912 110.656 176.861C110.549 176.796 110.444 176.732 110.339 176.663C110.153 176.548 109.968 176.425 109.787 176.301C109.644 176.203 109.501 176.103 109.358 176.001C109.235 175.914 109.113 175.825 108.992 175.734C108.972 175.719 108.952 175.705 108.934 175.69C108.824 175.608 108.717 175.525 108.61 175.441C108.545 175.39 108.478 175.339 108.413 175.285C108.34 175.228 108.268 175.168 108.197 175.11C108.031 174.974 107.871 174.836 107.71 174.694C107.431 174.452 107.158 174.201 106.89 173.941C106.774 173.83 106.66 173.716 106.548 173.603C106.044 173.094 105.561 172.559 105.096 171.992C105.003 171.879 104.911 171.765 104.82 171.65C104.71 171.514 104.603 171.374 104.496 171.234C104.435 171.154 104.375 171.074 104.315 170.992C104.123 170.732 103.933 170.465 103.747 170.192C103.647 170.048 103.549 169.903 103.453 169.754C103.394 169.665 103.336 169.576 103.278 169.485C103.122 169.241 102.968 168.992 102.818 168.739C102.778 168.67 102.736 168.601 102.698 168.532C102.646 168.45 102.597 168.365 102.55 168.279C102.452 168.11 102.358 167.939 102.264 167.765C102.202 167.654 102.141 167.541 102.081 167.428C101.943 167.17 101.809 166.905 101.677 166.639C101.596 166.476 101.516 166.314 101.438 166.15C101.353 165.972 101.27 165.79 101.188 165.608C101.103 165.421 101.018 165.232 100.937 165.041C100.844 164.83 100.754 164.616 100.667 164.399C100.602 164.245 100.54 164.092 100.477 163.934C100.448 163.856 100.417 163.776 100.386 163.696C100.281 163.428 100.178 163.156 100.08 162.881C100.075 162.872 100.073 162.863 100.071 162.856C99.9726 162.588 99.8787 162.319 99.7872 162.045C99.7805 162.028 99.7738 162.012 99.7693 161.994C99.7045 161.803 99.6397 161.61 99.5794 161.414C99.441 160.99 99.3092 160.559 99.1841 160.121C99.1193 159.901 99.0568 159.679 98.9965 159.456C98.9339 159.234 98.8736 159.01 98.8178 158.783C98.7575 158.556 98.6994 158.33 98.6436 158.099C98.5296 157.639 98.4224 157.172 98.3197 156.696C98.2147 156.223 98.1164 155.739 98.0226 155.25C97.9511 154.883 97.8841 154.514 97.8193 154.139C97.7858 153.952 97.7546 153.763 97.7233 153.572C97.6898 153.383 97.6608 153.192 97.6317 153.001C97.5513 152.49 97.4754 151.972 97.4061 151.448C97.3525 151.056 97.3034 150.663 97.2565 150.263C97.2073 149.863 97.1627 149.461 97.1225 149.054C97.0577 148.443 97.0018 147.825 96.9505 147.196C96.9326 146.988 96.917 146.776 96.9013 146.565C96.8991 146.552 96.8991 146.539 96.8991 146.525C96.8745 146.205 96.8522 145.883 96.8321 145.559C96.8098 145.234 96.7919 144.908 96.774 144.579C96.7561 144.25 96.7383 143.916 96.7249 143.583C96.7226 143.568 96.7226 143.552 96.7226 143.536C96.6333 141.519 96.5998 139.414 96.6199 137.225C96.6288 136.039 96.6556 134.828 96.7003 133.59C96.7383 132.474 96.7896 131.339 96.8544 130.183C96.8768 129.763 96.9013 129.341 96.9304 128.916C96.9505 128.559 96.975 128.199 97.0018 127.836C97.0376 127.303 97.0778 126.763 97.1202 126.219C97.1537 125.776 97.1895 125.332 97.2274 124.885C97.5022 121.656 99.1528 118.001 101.637 115.099C104.279 112.045 106.459 108.57 108.127 104.783C109.655 101.341 112.103 98.3987 114.697 96.9098L146.159 78.8587C147.428 78.1298 148.665 77.7853 149.778 77.8231C149.818 77.8253 149.858 77.8276 149.896 77.8298C149.91 77.8298 149.925 77.8298 149.939 77.832C149.983 77.8342 150.026 77.8387 150.068 77.8431C150.117 77.8476 150.169 77.852 150.22 77.8609C150.298 77.8698 150.376 77.8809 150.452 77.8964C150.49 77.9031 150.528 77.9098 150.566 77.9187C150.691 77.9453 150.814 77.9764 150.935 78.0142C150.993 78.032 151.051 78.052 151.109 78.072C151.187 78.0987 151.265 78.1298 151.341 78.1631C151.393 78.1853 151.442 78.2076 151.491 78.232C151.507 78.2387 151.522 78.2453 151.538 78.2542C151.6 78.2853 151.661 78.3164 151.719 78.3498C151.723 78.352 151.728 78.3542 151.73 78.3564C152.103 78.5676 152.445 78.8387 152.751 79.172C152.842 79.2742 152.936 79.3742 153.034 79.4698C153.535 79.9787 154.08 80.4142 154.667 80.772C154.794 80.8476 154.922 80.9231 155.054 80.992C155.118 81.0276 155.185 81.0609 155.25 81.0942C155.965 81.4542 156.733 81.7076 157.557 81.8542C157.56 81.8564 157.562 81.8564 157.564 81.8564C158.107 81.9542 158.674 82.0053 159.264 82.0076L159.282 82.0076C159.8 82.0164 160.282 82.1009 160.723 82.2542C160.783 82.272 160.841 82.2942 160.899 82.3187C160.948 82.3364 160.997 82.3564 161.044 82.3787C161.149 82.4231 161.254 82.4742 161.352 82.5298C161.372 82.5409 161.39 82.5498 161.408 82.5609L161.442 82.5809C161.507 82.6187 161.569 82.6564 161.629 82.6987C161.638 82.7031 161.647 82.7076 161.654 82.7142C161.728 82.7631 161.801 82.8142 161.871 82.8698C161.938 82.9209 162 82.9742 162.063 83.0276C162.081 83.0431 162.098 83.0587 162.114 83.0742C162.174 83.1298 162.23 83.1853 162.286 83.2431C162.34 83.2964 162.389 83.3498 162.438 83.4076C162.449 83.4187 162.458 83.4298 162.467 83.4409C162.503 83.4809 162.536 83.5231 162.567 83.5653C162.585 83.5831 162.599 83.6009 162.612 83.6209C162.641 83.6564 162.668 83.692 162.693 83.7298C162.724 83.772 162.755 83.8164 162.784 83.8609C162.889 84.0187 162.987 84.1853 163.077 84.3631C163.106 84.4209 163.135 84.4809 163.162 84.5409C163.164 84.5453 163.166 84.552 163.168 84.5564C163.2 84.6209 163.229 84.6876 163.255 84.7564C163.284 84.8276 163.314 84.9009 163.34 84.9764C163.358 85.0253 163.374 85.0764 163.392 85.1276C163.41 85.1831 163.427 85.2409 163.445 85.2987C163.452 85.3187 163.456 85.3387 163.463 85.3587C163.481 85.4209 163.499 85.4831 163.512 85.5476C163.546 85.672 163.575 85.7987 163.599 85.9276C163.611 85.9809 163.622 86.0342 163.628 86.0898C163.644 86.1698 163.657 86.2498 163.669 86.332C163.669 86.3431 163.671 86.352 163.673 86.3631C163.689 86.4787 163.702 86.5964 163.713 86.7164Z" stroke="#191333" stroke-width="2.46154" stroke-linecap="round" stroke-linejoin="round"/>
<path d="M172.168 179.89C171.531 177.294 170.89 176.654 168.281 176.023C170.89 175.39 171.533 174.752 172.168 172.156C172.804 174.752 173.445 175.392 176.054 176.023C173.445 176.656 172.802 177.294 172.168 179.89Z" fill="#FFC85A"/>
<path d="M172.167 172.6C172.75 174.747 173.45 175.443 175.607 176.023C173.45 176.603 172.75 177.298 172.167 179.445C171.584 177.298 170.885 176.603 168.728 176.023C170.883 175.443 171.584 174.747 172.167 172.6ZM172.167 171.667C171.466 174.758 170.897 175.325 167.79 176.023C170.897 176.72 171.464 177.287 172.167 180.378C172.869 177.287 173.438 176.723 176.545 176.023C173.438 175.325 172.871 174.758 172.167 171.667Z" fill="black"/>
<path d="M164.899 170.39C163.923 166.295 162.994 165.372 158.88 164.399C162.996 163.428 163.923 162.506 164.899 158.41C165.876 162.506 166.805 163.428 170.919 164.399C166.803 165.37 165.876 166.295 164.899 170.39Z" fill="#FFC85A"/>
<path d="M164.9 158.877C165.816 162.472 166.836 163.49 170.453 164.401C166.839 165.312 165.816 166.328 164.9 169.926C163.984 166.33 162.963 165.312 159.347 164.401C162.961 163.49 163.984 162.475 164.9 158.877ZM164.9 157.919C163.854 162.519 163.008 163.363 158.384 164.401C163.008 165.441 163.857 166.283 164.9 170.883C165.945 166.283 166.792 165.439 171.415 164.401C166.792 163.361 165.943 162.519 164.9 157.919Z" fill="black"/>
<path d="M72.8852 76.8087C72.2084 75.4643 71.5205 73.9465 70.904 72.5687C70.5466 71.7176 70.0441 70.5376 69.6331 69.7265C68.9764 68.2576 68.7865 66.6421 69.0434 65.0354C69.059 64.9487 69.173 64.9132 69.2355 64.9732C70.053 65.7487 70.5935 66.6576 71.0559 67.6398C71.516 68.5821 71.5875 69.6421 71.8265 70.6443C72.0074 71.3976 72.3469 72.9221 72.501 73.6798C72.7043 74.6998 72.9098 75.7176 73.0795 76.7465C73.0997 76.8554 72.9366 76.9109 72.8875 76.8087L72.8852 76.8087Z" fill="black"/>
<path d="M63.5269 86.1947C62.0505 85.908 60.4334 85.5213 58.9681 85.1635C58.0791 84.9235 56.8395 84.5991 55.946 84.428C54.3847 84.048 52.9932 83.2102 51.8808 82.028C51.8228 81.9636 51.863 81.8524 51.9478 81.8391C53.0602 81.6702 54.1078 81.7969 55.1643 82.0347C56.1895 82.248 57.0695 82.8391 58.0077 83.2636C58.7135 83.5813 60.1229 84.2458 60.8175 84.588C61.7467 85.0502 62.6759 85.5102 63.5939 86.0058C63.6922 86.0569 63.6364 86.2191 63.5269 86.1947Z" fill="black"/>
<path d="M67.6592 81.0666C65.506 79.0599 63.2076 76.8021 61.1393 74.6955C60.6077 74.1532 60.0493 73.6377 59.4976 73.1133C58.3897 72.0577 57.5074 70.8199 56.7167 69.511C56.3258 68.8466 55.9618 68.1621 55.6781 67.4044C55.6423 67.3177 55.7473 67.2244 55.83 67.2733C57.8536 68.4266 59.5981 69.9732 60.9963 71.811C61.758 72.891 62.9195 74.3866 63.7437 75.4399C65.0749 77.1999 66.5379 79.1421 67.8066 80.9355C67.8736 81.0266 67.7419 81.151 67.6547 81.0666L67.6592 81.0666Z" fill="black"/>
</svg>
