<svg width="285" height="285" viewBox="0 0 285 285" fill="none" xmlns="http://www.w3.org/2000/svg">
<path d="M153.046 125.208C145.929 123.695 136.054 120.571 131.245 113.088C124.393 102.428 131.423 86.4811 139.531 80.2939C139.531 80.2939 138.157 87.3354 142.135 90.9141C144.012 92.6034 145.828 91.7514 146.518 90.1192C147.153 88.6205 147.127 86.8703 146.899 85.227C146.261 80.6316 141.879 72.9642 144.703 65.0789C146.128 61.0994 148.356 58.2357 151.051 55.8505C153.696 53.5092 157.423 51.9955 161.775 50.3625C161.775 50.3625 158.257 53.9721 158.2 60.4393C158.172 63.7662 159.368 67.8462 162.189 71.6084C165.286 75.7357 168.252 78.8267 169.721 81.7061C172.008 86.1906 171.228 89.5054 171.228 89.5054C171.228 89.5054 173.587 85.0564 177.235 82.8374C180.102 81.0933 182.413 80.6644 185.688 80.8176C185.688 80.8176 180.424 85.4147 182.517 94.6061C183.328 98.1658 184.43 102.676 183.839 107.964C183.341 112.425 181.183 116.53 177.949 120.125C171.996 126.745 161.607 127.03 153.041 125.209L153.046 125.208Z" fill="#008560" stroke="black" stroke-width="1.23077" stroke-linecap="round" stroke-linejoin="round"/>
<path d="M174.758 104.771C174.248 102.55 173.643 100.663 173.687 99.1113C173.78 95.9028 175.437 94.542 175.437 94.542C172.849 94.4054 171.578 95.1484 170.129 96.5126C168.477 98.0674 167.235 101.302 167.235 101.302C168.026 98.9577 168.75 94.6951 167.679 91.0028C167.032 88.7683 165.665 86.4218 163.184 84.4698C160.063 82.0185 157.235 81.0517 155.553 78.6722C153.204 75.3511 153.722 72.4329 153.722 72.4329C153.722 72.4329 150.207 75.8956 150.53 81.2395C150.666 83.504 151.315 85.0142 152.304 88.464C154.175 94.9798 153.249 98.618 150.717 100.536C148.21 102.434 144.405 101.854 142.009 100.193C137.811 97.2858 137.798 92.2825 137.798 92.2825C136.347 95.6773 133.886 102.038 134.881 108.218C136.297 117.009 144.136 121.56 153.511 123.553C159.786 124.887 165.288 123.746 169.278 120.741C174.198 117.036 175.968 110.076 174.752 104.767L174.758 104.771Z" fill="#63AA57" stroke="black" stroke-width="1.23077" stroke-linecap="round" stroke-linejoin="round"/>
<path d="M153.679 120.025C152.112 119.692 149.45 118.756 148.1 116.567C147.098 114.943 146.494 111.746 149.077 108.06C149.077 108.06 148.409 110.69 149.863 111.782C150.554 112.302 151.55 112.514 152.277 111.987C152.97 111.486 153.185 110.687 153.225 109.623C153.245 109.089 153.193 108.535 153.204 107.733C153.225 106.147 153.611 104.964 154.235 103.824C154.947 102.524 155.689 101.802 156.799 101.073C157.683 100.491 158.975 100.047 160.338 99.5894C160.338 99.5894 158.474 101.91 159.018 104.986C159.25 106.297 160.209 107.677 161.359 109.276C163.461 112.194 163.513 115.902 161.657 118.19C160.112 120.095 157.354 120.808 153.676 120.027L153.679 120.025Z" fill="#80CD75" stroke="black" stroke-width="1.23077" stroke-linecap="round" stroke-linejoin="round"/>
<path d="M161.485 58.1415C162.167 54.931 164.1 51.5364 167.036 50.0681C169.266 48.9517 171.86 48.9328 174.344 48.7113C176.829 48.4897 179.486 47.939 181.17 46.0999C181.701 48.6369 179.945 51.1558 177.795 52.6026C175.643 54.049 172.717 54.7538 170.432 55.9811C168.446 57.0494 166.667 58.4388 165.236 60.1793C163.741 61.9993 163.047 63.6737 162.361 66.1406C161.414 64.7899 160.786 61.4281 161.485 58.1415Z" fill="#008560" stroke="black" stroke-width="1.23077" stroke-linecap="round" stroke-linejoin="round"/>
<path d="M166.097 66.6582C165.847 70.3786 167.987 74.1504 171.307 75.8466C169.494 73.3165 168.814 69.8778 169.302 66.8031C169.806 63.6297 171.361 61.1205 173.16 58.4927C171.327 58.6868 169.525 59.7874 168.427 61.0738C167.096 62.6334 166.236 64.6066 166.097 66.6582Z" fill="#008560" stroke="black" stroke-width="1.23077" stroke-linecap="round" stroke-linejoin="round"/>
<path d="M153.162 118.428C134.393 114.439 125.254 115.629 125.254 115.629L123.24 125.104L177.78 136.697L179.794 127.222C179.794 127.222 171.986 122.43 153.16 118.428L153.162 118.428Z" fill="#BB98F2" stroke="black" stroke-width="1.23077" stroke-linecap="round" stroke-linejoin="round"/>
<path d="M150.833 127.535C130.486 123.21 123.245 125.105 123.242 125.105C126.281 130.84 128.178 136.502 128.904 142.654L165.365 150.404C168.545 145.083 172.675 140.701 177.782 136.698C177.78 136.697 171.459 131.919 150.833 127.535Z" fill="#8A6DD1" stroke="black" stroke-width="1.23077" stroke-linecap="round" stroke-linejoin="round"/>
<path d="M149.668 134.863C132.251 131.161 126.653 132.848 126.653 132.848L124.856 141.303L169.69 150.833L171.487 142.377C171.487 142.377 167.136 138.576 149.668 134.863Z" fill="#BB98F2" stroke="black" stroke-width="1.23077" stroke-linecap="round" stroke-linejoin="round"/>
<path d="M147.948 142.714C131.067 139.125 124.859 141.304 124.859 141.304C129.904 152.264 130.042 163.939 129.037 177.827L121.808 236.449C121.434 239.943 123.323 243.044 126.549 243.73C129.892 244.44 132.767 242.35 133.845 239.001L151.198 182.222C155.366 169.797 160.626 158.796 169.693 150.834C169.693 150.834 164.829 146.302 147.948 142.714Z" fill="#8A6DD1" stroke="black" stroke-width="1.23077" stroke-linecap="round" stroke-linejoin="round"/>
<path d="M160.382 161.664C160.336 161.654 160.289 161.637 160.244 161.614C160.196 161.588 155.187 159.04 144.99 156.872C134.794 154.705 129.082 154.972 129.027 154.976C128.727 154.997 128.467 154.769 128.448 154.469C128.428 154.17 128.656 153.909 128.955 153.891C129.179 153.875 134.581 153.547 145.217 155.807C155.852 158.068 160.539 160.539 160.746 160.646C161.012 160.784 161.117 161.113 160.978 161.379C160.863 161.602 160.615 161.711 160.382 161.662L160.382 161.664Z" fill="#7C63AD" stroke="black" stroke-width="1.23077" stroke-linecap="round" stroke-linejoin="round"/>
<path d="M157.476 166.889C157.433 166.879 157.392 166.866 157.351 166.846C157.306 166.825 152.83 164.679 143.731 162.745C134.632 160.811 129.537 160.923 129.489 160.924C129.187 160.937 128.934 160.702 128.923 160.402C128.912 160.102 129.145 159.849 129.446 159.836C129.647 159.828 134.463 159.661 143.957 161.68C153.452 163.698 157.644 165.779 157.827 165.868C158.097 166 158.209 166.327 158.079 166.596C157.966 166.827 157.715 166.942 157.476 166.891L157.476 166.889Z" fill="#7C63AD" stroke="black" stroke-width="1.23077" stroke-linecap="round" stroke-linejoin="round"/>
<path d="M133.365 151.969C133.112 151.915 132.926 151.689 132.933 151.423C133.045 147.019 131.182 144.728 131.164 144.706C130.973 144.474 131.005 144.131 131.234 143.939C131.466 143.748 131.809 143.778 132.001 144.009C132.088 144.114 134.143 146.641 134.022 151.45C134.015 151.75 133.765 151.988 133.464 151.981C133.43 151.98 133.397 151.976 133.365 151.969Z" fill="#7C63AD" stroke="black" stroke-width="1.23077" stroke-linecap="round" stroke-linejoin="round"/>
<path d="M139.364 152.825C139.088 152.767 138.901 152.504 138.938 152.221C139.507 147.973 138.431 145.18 138.421 145.153C138.31 144.872 138.448 144.556 138.728 144.445C139.008 144.335 139.324 144.472 139.435 144.752C139.484 144.876 140.626 147.841 140.018 152.367C139.977 152.665 139.703 152.875 139.405 152.834C139.392 152.831 139.377 152.828 139.364 152.825Z" fill="#7C63AD" stroke="black" stroke-width="1.23077" stroke-linecap="round" stroke-linejoin="round"/>
<path d="M157.079 157.009C157.046 157.002 157.014 156.993 156.983 156.98C156.705 156.864 156.573 156.545 156.689 156.267C158.535 151.825 161.44 150.353 161.562 150.292C161.831 150.159 162.157 150.271 162.291 150.54C162.425 150.81 162.314 151.136 162.045 151.27C162.02 151.282 159.371 152.648 157.695 156.688C157.592 156.934 157.331 157.065 157.078 157.011L157.079 157.009Z" fill="#7C63AD" stroke="black" stroke-width="1.23077" stroke-linecap="round" stroke-linejoin="round"/>
<path d="M151.25 155.351C151.237 155.349 151.222 155.345 151.209 155.343C150.92 155.259 150.755 154.955 150.839 154.667C152.127 150.285 154.374 148.041 154.469 147.948C154.684 147.737 155.029 147.74 155.24 147.955C155.45 148.17 155.448 148.515 155.233 148.724C155.196 148.759 153.081 150.895 151.885 154.973C151.803 155.249 151.526 155.41 151.25 155.351Z" fill="#7C63AD" stroke="black" stroke-width="1.23077" stroke-linecap="round" stroke-linejoin="round"/>
<path d="M145.305 154.088C145.029 154.029 144.841 153.769 144.879 153.484C145.472 148.964 146.195 146.351 146.225 146.241C146.307 145.952 146.603 145.781 146.896 145.864C147.186 145.943 147.356 146.245 147.274 146.535C147.268 146.561 146.541 149.191 145.959 153.627C145.921 153.926 145.647 154.136 145.348 154.097C145.333 154.094 145.32 154.091 145.305 154.088Z" fill="#7C63AD" stroke="black" stroke-width="1.23077" stroke-linecap="round" stroke-linejoin="round"/>
<path d="M135.954 232.616C135.893 232.603 135.832 232.579 135.776 232.544C130.09 228.939 122.72 229.751 122.646 229.758C122.35 229.793 122.078 229.58 122.041 229.279C122.007 228.981 122.219 228.711 122.518 228.674C122.835 228.637 130.339 227.803 136.359 231.621C136.613 231.782 136.687 232.118 136.526 232.372C136.4 232.57 136.17 232.66 135.952 232.613L135.954 232.616Z" fill="#7C63AD" stroke="black" stroke-width="1.23077" stroke-linecap="round" stroke-linejoin="round"/>
<path d="M125.143 116.162C124.917 116.114 124.737 115.924 124.714 115.683C124.684 115.383 124.904 115.116 125.203 115.089C125.305 115.079 135.649 114.149 154.195 118.091C172.741 122.033 179.823 126.583 180.102 126.774C180.351 126.943 180.417 127.282 180.248 127.53C180.08 127.778 179.743 127.845 179.493 127.676C179.425 127.63 172.579 123.112 153.971 119.157C135.362 115.201 125.411 116.163 125.311 116.173C125.253 116.179 125.2 116.174 125.145 116.163L125.143 116.162Z" fill="#D3DBF2" stroke="black" stroke-width="1.23077" stroke-linecap="round" stroke-linejoin="round"/>
<path d="M126.543 133.38C126.326 133.334 126.15 133.156 126.117 132.924C126.076 132.627 126.283 132.35 126.58 132.309C126.915 132.262 134.969 131.182 149.784 134.331C164.6 137.48 171.494 141.738 171.779 141.916C172.033 142.077 172.11 142.411 171.951 142.666C171.79 142.921 171.456 142.999 171.201 142.839C171.133 142.795 164.161 138.5 149.558 135.396C134.955 132.292 126.814 133.377 126.733 133.386C126.667 133.395 126.604 133.393 126.543 133.38Z" fill="#D3DBF2" stroke="black" stroke-width="1.23077" stroke-linecap="round" stroke-linejoin="round"/>
<path d="M193.536 78.0741C193.435 73.6882 192.699 72.5527 188.732 70.6757C193.118 70.5742 194.253 69.8387 196.13 65.8711C196.232 70.257 196.967 71.3925 200.935 73.2695C196.549 73.371 195.413 74.1065 193.536 78.0741Z" fill="#FFC85A"/>
<path d="M196.033 66.3287C196.178 70.2104 196.989 71.4597 200.476 73.171C196.595 73.316 195.345 74.1273 193.634 77.6144C193.489 73.7327 192.678 72.4834 189.191 70.7721C193.072 70.6271 194.322 69.8158 196.033 66.3287ZM196.232 65.3897C194.183 69.8364 193.147 70.5112 188.249 70.5743C192.696 72.6236 193.37 73.6598 193.433 78.5578C195.483 74.1111 196.519 73.4363 201.417 73.3732C196.97 71.3239 196.295 70.2876 196.232 65.3897Z" fill="black"/>
<path d="M197.803 88.6562C197.717 85.4277 197.143 84.5448 194.229 83.1529C197.458 83.0667 198.341 82.4933 199.732 79.579C199.819 82.8074 200.392 83.6904 203.306 85.0823C200.078 85.1685 199.195 85.7419 197.803 88.6562Z" fill="#FFC85A"/>
<path d="M199.637 80.0253C199.767 82.7814 200.395 83.7487 202.86 84.9883C200.104 85.1181 199.137 85.7463 197.897 88.2113C197.768 85.4552 197.139 84.4879 194.674 83.2483C197.43 83.1185 198.398 82.4903 199.637 80.0253ZM199.834 79.1015C198.273 82.491 197.482 83.0045 193.751 83.052C197.14 84.613 197.654 85.4037 197.701 89.1351C199.262 85.7456 200.053 85.2321 203.784 85.1847C200.395 83.6236 199.881 82.8329 199.834 79.1015Z" fill="black"/>
<path d="M115.494 111.01C115.408 107.781 114.835 106.898 111.921 105.506C115.149 105.42 116.032 104.847 117.424 101.932C117.51 105.161 118.083 106.044 120.998 107.436C117.769 107.522 116.886 108.095 115.494 111.01Z" fill="#FFC85A"/>
<path d="M117.329 102.379C117.459 105.135 118.087 106.102 120.552 107.342C117.796 107.472 116.829 108.1 115.589 110.565C115.459 107.809 114.831 106.842 112.366 105.602C115.122 105.472 116.09 104.844 117.329 102.379ZM117.526 101.453C115.965 104.843 115.174 105.356 111.443 105.404C114.832 106.965 115.346 107.755 115.393 111.487C116.954 108.097 117.745 107.584 121.477 107.536C118.087 105.975 117.574 105.184 117.526 101.453Z" fill="black"/>
</svg>
