<svg width="212" height="211" viewBox="0 0 212 211" fill="none" xmlns="http://www.w3.org/2000/svg">
<path d="M172.984 176.986L142.741 178.571C154.169 177.972 157.163 171.618 157.163 171.618C157.163 171.618 158.803 177.729 172.984 176.986Z" fill="#492523" stroke="black" stroke-width="1.02564" stroke-linecap="round" stroke-linejoin="round"/>
<path d="M149.23 154.979C151.213 162.404 158.341 161.634 158.341 161.634C154.194 164.479 151.283 162.998 150.039 160.584C148.827 158.231 149.23 154.979 149.23 154.979Z" fill="#492523" stroke="black" stroke-width="1.02564" stroke-linecap="round" stroke-linejoin="round"/>
<path d="M137.39 157.872C139.525 158.784 141.508 158.571 141.508 158.571C139.499 159.95 137.793 160.275 136.437 159.966C135.764 160.748 134.83 161.231 133.825 161.445C131.316 161.979 128.372 160.791 128.372 160.791C131.129 160.798 133.014 159.874 134.293 158.704C133.979 158.364 133.712 157.976 133.496 157.559C132.328 155.289 132.715 152.15 132.715 152.15C133.339 154.48 134.485 155.972 135.75 156.925C136.286 157.331 136.844 157.637 137.39 157.872Z" fill="#492523" stroke="black" stroke-width="1.02564" stroke-linecap="round" stroke-linejoin="round"/>
<path d="M97.6128 166.808C99.5955 174.232 106.724 173.462 106.724 173.462C102.577 176.307 99.6658 174.826 98.4209 172.412C97.2091 170.059 97.6128 166.808 97.6128 166.808Z" fill="#492523" stroke="black" stroke-width="1.02564" stroke-linecap="round" stroke-linejoin="round"/>
<path d="M104.109 148.192C104.109 148.192 104.851 151.386 103.891 153.852C102.908 156.383 100.166 158.159 95.7439 155.765C95.7439 155.765 102.915 155.784 104.109 148.192Z" fill="#492523" stroke="black" stroke-width="1.02564" stroke-linecap="round" stroke-linejoin="round"/>
<path d="M83.4023 158.952C84.7965 159.982 86.7672 160.704 89.5103 160.408C89.5103 160.408 86.7049 161.898 84.1539 161.627C83.1324 161.52 82.1525 161.137 81.4015 160.429C80.085 160.88 78.3552 160.735 76.2123 159.574C76.2123 159.574 78.2068 159.577 80.2353 158.449C80.7531 158.158 81.2765 157.795 81.7669 157.335C82.9255 156.255 83.9094 154.649 84.2859 152.267C84.2859 152.267 84.9991 155.349 84.0744 157.728C83.9035 158.165 83.6793 158.581 83.4023 158.952Z" fill="#492523" stroke="black" stroke-width="1.02564" stroke-linecap="round" stroke-linejoin="round"/>
<path d="M66.7502 159.301C66.7502 159.301 67.3303 161.798 66.5797 163.729C65.8093 165.709 63.6659 167.097 60.2052 165.224C60.2052 165.224 65.8164 165.239 66.7502 159.301Z" fill="#492523" stroke="black" stroke-width="1.02564" stroke-linecap="round" stroke-linejoin="round"/>
<path d="M84.7298 181.611L53.3366 183.257C64.7645 182.658 67.7604 176.303 67.7604 176.303C67.7604 176.303 70.5472 182.355 84.7298 181.611Z" fill="#492523" stroke="black" stroke-width="1.02564" stroke-linecap="round" stroke-linejoin="round"/>
<path d="M172.858 161C177.284 160.768 181.06 164.151 181.291 168.555C181.522 172.958 178.12 176.717 173.694 176.949L172.984 176.986C158.803 177.729 157.163 171.618 157.163 171.618C157.163 171.618 154.169 177.972 142.741 178.571L84.7298 181.611C70.5472 182.355 67.7603 176.303 67.7603 176.303C67.7603 176.303 64.7644 182.658 53.3365 183.257L46.1467 183.633C41.7209 183.865 37.9444 180.482 37.7137 176.079C37.4829 171.676 40.8851 167.917 45.3109 167.685C45.3611 167.682 45.4096 167.683 45.4616 167.681C46.5685 163.586 50.2171 160.474 54.7061 160.239C54.7545 160.236 54.803 160.237 54.855 160.234C55.826 157.139 58.6531 154.817 62.0993 154.636C63.5008 154.563 64.8395 154.854 66.0192 155.421C67.3894 154.502 69.02 153.927 70.7933 153.834C71.1911 153.813 71.5829 153.821 71.9684 153.849C73.6579 151.197 76.5594 149.372 79.9473 149.182C80.7134 147.688 82.2347 146.627 84.0396 146.533C85.0638 146.479 86.0283 146.746 86.8407 147.239C88.8224 144.899 91.731 143.35 95.0452 143.176C95.7423 143.14 96.426 143.169 97.0976 143.252C99.1739 140.191 102.483 138.004 106.36 137.43C106.789 137.365 107.225 137.321 107.667 137.298C108.109 137.275 108.547 137.273 108.981 137.292C112.896 137.458 116.416 139.288 118.801 142.115C119.46 141.962 120.137 141.861 120.834 141.825C124.148 141.651 127.203 142.887 129.418 145.007C130.175 144.432 131.106 144.066 132.13 144.012C133.935 143.918 135.559 144.814 136.477 146.219C139.866 146.055 142.943 147.566 144.9 150.026C145.281 149.958 145.669 149.91 146.067 149.889C147.841 149.796 149.522 150.198 150.981 150.969C152.095 150.282 153.396 149.852 154.798 149.778C158.244 149.598 161.298 151.611 162.587 154.588C162.639 154.586 162.687 154.579 162.736 154.577C167.225 154.342 171.179 157.055 172.708 161.012C172.76 161.009 172.808 161.003 172.858 161ZM158.341 161.633C158.341 161.633 151.213 162.404 149.23 154.979C149.23 154.979 148.827 158.23 150.039 160.583C151.283 162.997 154.194 164.478 158.341 161.633ZM141.508 158.571C141.508 158.571 139.525 158.784 137.39 157.873C136.844 157.638 136.286 157.332 135.75 156.926C134.485 155.972 133.339 154.48 132.715 152.15C132.715 152.15 132.328 155.29 133.496 157.559C133.712 157.976 133.979 158.365 134.293 158.704C133.014 159.875 131.129 160.799 128.372 160.791C128.372 160.791 131.316 161.98 133.825 161.446C134.83 161.232 135.764 160.749 136.437 159.966C137.793 160.275 139.499 159.95 141.508 158.571ZM106.724 173.462C106.724 173.462 99.5954 174.232 97.6126 166.808C97.6126 166.808 97.209 170.059 98.4208 172.412C99.6656 174.826 102.576 176.307 106.724 173.462ZM103.892 153.852C104.851 151.385 104.109 148.192 104.109 148.192C102.915 155.783 95.7441 155.764 95.7441 155.764C100.166 158.158 102.908 156.383 103.892 153.852ZM89.5104 160.408C86.7673 160.704 84.7966 159.982 83.4024 158.952C83.6794 158.581 83.9036 158.165 84.0745 157.728C84.9992 155.348 84.286 152.267 84.286 152.267C83.9095 154.649 82.9256 156.254 81.767 157.335C81.2766 157.795 80.7532 158.158 80.2354 158.448C78.2069 159.576 76.2124 159.573 76.2124 159.573C78.3553 160.735 80.0851 160.88 81.4016 160.429C82.1526 161.137 83.1325 161.519 84.154 161.627C86.705 161.898 89.5104 160.408 89.5104 160.408ZM66.5795 163.729C67.3301 161.798 66.75 159.301 66.75 159.301C65.8162 165.24 60.205 165.224 60.205 165.224C63.6657 167.098 65.8091 165.709 66.5795 163.729Z" fill="#B7BDCD" stroke="black" stroke-width="1.02564" stroke-linecap="round" stroke-linejoin="round"/>
<path d="M153.211 44.3227C155.566 45.8646 159.904 45.6187 159.904 45.6187C157.306 46.988 152.804 45.8628 151.259 45.4116C151.92 45.0357 152.568 44.6735 153.209 44.3228L153.211 44.3227Z" fill="#63AA57" stroke="black" stroke-width="1.02564" stroke-linecap="round" stroke-linejoin="round"/>
<path d="M153.512 36.2931C153.46 36.4053 151.54 40.4576 152.234 43.1787C151.647 43.458 151.056 43.7448 150.464 44.041C150.674 42.2424 151.381 38.0626 153.512 36.2931Z" fill="#63AA57" stroke="black" stroke-width="1.02564" stroke-linecap="round" stroke-linejoin="round"/>
<path d="M146.124 48.4377C149.471 50.1686 154.769 49.8687 154.769 49.8687C151.642 51.5161 146.52 50.5532 143.829 49.8616C144.596 49.3782 145.364 48.9041 146.124 48.4377Z" fill="#63AA57" stroke="black" stroke-width="1.02564" stroke-linecap="round" stroke-linejoin="round"/>
<path d="M145.917 36.9495C145.917 36.9495 142.771 43.5027 144.404 47.2687C143.612 47.7144 142.825 48.1674 142.041 48.6276C142.039 48.6277 142.039 48.6295 142.037 48.6296L142.035 48.6297L142.024 48.6359C142.024 48.6359 142.022 48.636 142.021 48.6361L141.577 48.8577C141.577 48.8577 142.099 40.1128 145.917 36.9476L145.917 36.9495Z" fill="#63AA57" stroke="black" stroke-width="1.02564" stroke-linecap="round" stroke-linejoin="round"/>
<path d="M137.813 53.7714C141.911 56.8204 150.151 56.3533 150.151 56.3533C145.459 58.8282 137.28 56.7385 134.618 55.9508C135.669 55.2245 136.736 54.4954 137.813 53.7714Z" fill="#63AA57" stroke="black" stroke-width="1.02564" stroke-linecap="round" stroke-linejoin="round"/>
<path d="M138.742 39.6996C138.742 39.6996 135.184 47.1071 136.462 52.0359C135.361 52.7314 134.28 53.4316 133.228 54.1284C133.509 51.3543 134.676 43.0726 138.742 39.6996Z" fill="#63AA57" stroke="black" stroke-width="1.02564" stroke-linecap="round" stroke-linejoin="round"/>
<path d="M142.878 63.7615C138.084 65.2181 131.017 62.0967 128.169 60.6716C128.144 60.658 128.121 60.6462 128.1 60.6362C128.134 60.6122 128.166 60.5864 128.2 60.5623C129.088 59.8983 130.009 59.2233 130.954 58.5414C134.186 62.5963 142.878 63.7615 142.878 63.7615Z" fill="#63AA57" stroke="black" stroke-width="1.02564" stroke-linecap="round" stroke-linejoin="round"/>
<path d="M129.167 42.7845C129.12 42.9725 126.77 52.1024 129.9 56.3648C128.739 57.1637 127.628 57.9433 126.577 58.6956C126.399 57.1343 125.444 47.3189 129.167 42.7845Z" fill="#63AA57" stroke="black" stroke-width="1.02564" stroke-linecap="round" stroke-linejoin="round"/>
<path d="M136.734 69.466C131.841 70.4994 125.088 66.7941 122.366 65.1213C123.104 64.5114 123.893 63.873 124.727 63.2173C124.86 63.1232 124.993 63.0309 125.13 62.9385L125.132 62.9384C127.792 67.4646 136.734 69.466 136.734 69.466Z" fill="#63AA57" stroke="black" stroke-width="1.02564" stroke-linecap="round" stroke-linejoin="round"/>
<path d="M122.198 48.0972C122.198 48.0972 120.764 56.5153 123.568 60.8374C122.606 61.4905 121.676 62.179 120.776 62.9012C120.252 59.7169 119.402 52.1788 122.198 48.0972Z" fill="#63AA57" stroke="black" stroke-width="1.02564" stroke-linecap="round" stroke-linejoin="round"/>
<path d="M83.7528 81.1713C84.6607 81.7431 85.521 82.297 86.3283 82.8351C83.795 84.7852 77.4696 89.1741 72.4958 88.6578C72.4958 88.6578 81.2105 85.7236 83.3636 80.9284C83.4945 81.0087 83.6237 81.0909 83.7528 81.1713Z" fill="#63AA57" stroke="black" stroke-width="1.02564" stroke-linecap="round" stroke-linejoin="round"/>
<path d="M80.0516 78.9101C80.0882 78.9323 80.1247 78.9526 80.1594 78.9749C77.5213 80.669 70.748 84.5826 65.7884 83.6279C65.7884 83.6279 74.3118 81.5604 77.1023 77.1899C78.1129 77.7674 79.0974 78.3426 80.0516 78.9101Z" fill="#63AA57" stroke="black" stroke-width="1.02564" stroke-linecap="round" stroke-linejoin="round"/>
<path d="M69.7828 73.161C70.9311 73.7685 72.0685 74.3801 73.1874 74.9946C70.6223 76.0563 62.7072 78.9893 57.782 77.0185C57.782 77.0185 66.0258 76.6217 69.7828 73.161Z" fill="#63AA57" stroke="black" stroke-width="1.02564" stroke-linecap="round" stroke-linejoin="round"/>
<path d="M60.9617 68.7258C61.7664 69.1083 62.5792 69.5015 63.3924 69.9021C60.789 70.8711 55.7955 72.3641 52.5116 71.0527C52.5116 71.0527 57.814 70.7971 60.9617 68.7258Z" fill="#63AA57" stroke="black" stroke-width="1.02564" stroke-linecap="round" stroke-linejoin="round"/>
<path d="M53.4812 65.3755C54.1558 65.6572 54.8439 65.9494 55.5401 66.2522C54.053 66.8624 49.6893 68.4559 46.9611 67.3639C46.9611 67.3639 51.3005 67.155 53.4812 65.3755Z" fill="#63AA57" stroke="black" stroke-width="1.02564" stroke-linecap="round" stroke-linejoin="round"/>
<path d="M52.3428 57.4209C54.6488 58.9579 55.7893 63.0427 56.1857 64.8095C55.564 64.5769 54.9464 64.3515 54.333 64.1352C54.7391 61.3564 52.4061 57.527 52.3428 57.4209Z" fill="#63AA57" stroke="black" stroke-width="1.02564" stroke-linecap="round" stroke-linejoin="round"/>
<path d="M65.5249 68.6706L65.0458 68.4917C65.0458 68.4917 65.0401 68.4883 65.0382 68.4884C64.2115 68.1126 63.3795 67.7445 62.5479 67.3839C63.7779 63.4678 59.9644 57.2793 59.9644 57.2793C64.0916 60.0282 65.5249 68.6706 65.5249 68.6706Z" fill="#63AA57" stroke="black" stroke-width="1.02564" stroke-linecap="round" stroke-linejoin="round"/>
<path d="M67.3877 59.2646C71.7834 62.1923 73.8078 70.3049 74.3796 73.0361C73.2606 72.455 72.1137 71.8735 70.9444 71.2931C71.7001 66.2578 67.3877 59.2646 67.3877 59.2646Z" fill="#63AA57" stroke="black" stroke-width="1.02564" stroke-linecap="round" stroke-linejoin="round"/>
<path d="M77.2318 61.3318C81.4085 65.4522 81.4854 75.3136 81.4709 76.885C80.3471 76.2485 79.1606 75.5875 77.9213 74.9162C80.5897 70.3499 77.2991 61.5138 77.2318 61.3318Z" fill="#63AA57" stroke="black" stroke-width="1.02564" stroke-linecap="round" stroke-linejoin="round"/>
<path d="M84.7188 65.8861C87.9265 69.653 87.8692 77.2387 87.6802 80.4604C86.7119 79.838 85.7137 79.2505 84.6878 78.7016C87.0249 74.11 84.7188 65.8861 84.7188 65.8861Z" fill="#63AA57" stroke="black" stroke-width="1.02564" stroke-linecap="round" stroke-linejoin="round"/>
<path d="M129.168 42.7851C125.445 47.3195 126.399 57.1349 126.578 58.6962C125.796 59.2564 125.049 59.7999 124.341 60.3247C124.337 60.3268 124.332 60.3308 124.328 60.3328C124.072 60.4983 123.82 60.6654 123.568 60.8381C120.764 56.516 122.198 48.0979 122.198 48.0979C119.401 52.1795 120.251 59.7176 120.776 62.9019C119.457 63.9538 118.21 65.078 117.034 66.2616C116.721 65.6679 116.432 65.0618 116.171 64.4487C112.671 56.2688 113.503 46.6936 120.553 40.965C139.108 25.8936 171.534 35.9195 171.534 35.9195C158.509 47.5709 161.362 60.2259 147.149 73.3767C138.64 81.2551 127.374 79.7593 120.031 70.8054C119.453 70.1013 118.914 69.3712 118.419 68.6164L118.421 68.6163C119.465 67.5936 120.802 66.4146 122.367 65.1217C125.088 66.7945 131.841 70.4998 136.734 69.4664C136.734 69.4664 127.792 67.465 125.132 62.9388L125.13 62.9389C125.13 62.9389 125.12 62.9227 125.118 62.9136C126.063 62.176 127.059 61.4154 128.1 60.6377C128.121 60.6477 128.144 60.6595 128.169 60.673C131.017 62.0981 138.084 65.2196 142.878 63.763C142.878 63.763 134.186 62.5978 130.954 58.5429C132.141 57.687 133.367 56.8198 134.618 55.9512C137.28 56.7389 145.459 58.8286 150.151 56.3537C150.151 56.3537 141.911 56.8208 137.812 53.7718C139.799 52.442 141.819 51.127 143.829 49.8627C146.52 50.5543 151.642 51.5172 154.769 49.8698C154.769 49.8698 149.471 50.1697 146.124 48.4388C147.868 47.3719 149.589 46.3545 151.259 45.4122C152.803 45.8634 157.306 46.9886 159.903 45.6193C159.903 45.6193 155.566 45.8652 153.211 44.3233C154.961 43.3693 156.637 42.5082 158.199 41.7699C158.796 41.4883 158.324 40.5672 157.71 40.8052C155.937 41.4916 154.102 42.2925 152.234 43.1803C151.54 40.4592 153.459 36.4069 153.511 36.2948C151.38 38.0643 150.673 42.244 150.464 44.0427C148.455 45.0418 146.424 46.1292 144.404 47.2698C142.771 43.5038 145.917 36.9505 145.917 36.9505C142.1 40.1158 141.577 48.8606 141.577 48.8606L142.021 48.639C140.133 49.7467 138.267 50.8867 136.462 52.0364C135.184 47.1077 138.741 39.7002 138.741 39.7002C134.676 43.0732 133.509 51.3548 133.227 54.1289C132.083 54.8806 130.971 55.6306 129.9 56.3654C126.771 52.1029 129.12 42.973 129.168 42.7851Z" fill="#80CD75" stroke="black" stroke-width="1.02564" stroke-linecap="round" stroke-linejoin="round"/>
<path d="M118.411 68.6019C110.617 76.7209 106.384 87.7557 106.992 99.3509L107.819 115.133C107.546 109.923 106.37 104.915 104.413 100.285L104.371 99.4882C103.712 86.9037 108.414 74.9412 117.034 66.2596C118.21 65.0761 119.457 63.9518 120.776 62.8999C121.676 62.1778 122.605 61.4893 123.568 60.8361C123.82 60.6635 124.072 60.4963 124.328 60.3308C124.332 60.3288 124.337 60.3248 124.341 60.3228C125.049 59.7979 125.796 59.2544 126.578 58.6942C127.629 57.9419 128.74 57.1623 129.9 56.3634C130.971 55.6286 132.083 54.8786 133.227 54.127C134.279 53.4302 135.361 52.73 136.462 52.0345C138.267 50.8847 140.133 49.7447 142.021 48.637C142.022 48.6369 142.022 48.6369 142.024 48.6368L142.035 48.6307L142.037 48.6306C142.037 48.6306 142.039 48.6286 142.041 48.6285C142.825 48.1683 143.612 47.7154 144.404 47.2697C146.424 46.129 148.455 45.0417 150.464 44.0425C151.056 43.7463 151.647 43.4595 152.234 43.1802C154.102 42.2923 155.937 41.4915 157.71 40.8051C158.324 40.5671 158.796 41.4882 158.199 41.7698C156.637 42.5081 154.961 43.3692 153.211 44.3232L153.209 44.3233C152.568 44.674 151.919 45.0362 151.259 45.4121C149.59 46.3544 147.868 47.3718 146.124 48.4387C145.364 48.905 144.596 49.3792 143.829 49.8625C141.819 51.1269 139.799 52.4418 137.813 53.7717C136.736 54.4957 135.669 55.2248 134.618 55.9511C133.367 56.8197 132.141 57.6869 130.954 58.5428C130.009 59.2246 129.088 59.8997 128.2 60.5618C128.166 60.5877 128.134 60.6135 128.1 60.6376C127.06 61.4153 126.063 62.1759 125.118 62.9134L125.116 62.9135C124.985 63.015 124.856 63.1181 124.727 63.2176C123.893 63.8733 123.104 64.5117 122.367 65.1216C120.802 66.4145 119.465 67.5934 118.421 68.6143L118.411 68.6037L118.411 68.6019Z" fill="#63AA57" stroke="black" stroke-width="1.02564" stroke-linecap="round" stroke-linejoin="round"/>
<path d="M62.5476 67.3842C63.3791 67.7449 64.2111 68.113 65.0378 68.4887C65.0397 68.4886 65.0435 68.4903 65.0455 68.492C67.0444 69.3979 69.023 70.3401 70.9442 71.2927C72.1135 71.8731 73.2605 72.4546 74.3794 73.0357C75.5961 73.6673 76.7809 74.2951 77.9206 74.9159C79.1599 75.5872 80.3464 76.2482 81.4701 76.8847C82.304 77.3602 83.1036 77.8227 83.8614 78.2688C84.139 78.4101 84.415 78.5551 84.6874 78.7021C85.7134 79.251 86.7115 79.8385 87.6798 80.4609C89.1012 81.3711 90.4595 82.3569 91.7525 83.4129C97.3076 87.9432 101.643 93.7354 104.413 100.286C106.37 104.916 107.546 109.925 107.819 115.134L108.98 137.293C108.547 137.273 108.109 137.275 107.667 137.298C107.224 137.322 106.789 137.365 106.36 137.43L105.198 115.271C104.591 103.676 99.2279 93.1443 90.6276 85.8844C90.6259 85.8882 90.6225 85.894 90.6208 85.8978C89.4755 84.9916 88.0195 83.9553 86.328 82.8349C85.5207 82.2968 84.6604 81.7429 83.7525 81.1711C83.6234 81.0907 83.4942 81.0085 83.3633 80.9282C82.9817 80.6886 82.5925 80.4475 82.1959 80.205C81.9609 80.0615 81.7241 79.9163 81.4853 79.7712C81.0503 79.5084 80.6095 79.2422 80.1594 78.9747C80.1247 78.9524 80.0882 78.932 80.0516 78.9098C79.0974 78.3423 78.1129 77.7672 77.1022 77.1896C75.832 76.4607 74.5223 75.7263 73.1867 74.9952C72.0679 74.3807 70.9305 73.7691 69.7822 73.1617C67.6696 72.0448 65.5227 70.9482 63.3916 69.9028C62.5784 69.5022 61.7656 69.109 60.9609 68.7265C59.1162 67.8478 57.2982 67.0177 55.5395 66.2513C54.8434 65.9484 54.1552 65.6563 53.4806 65.3745C51.6399 64.6087 49.8838 63.9274 48.2528 63.3565C47.63 63.1388 48.0026 62.1735 48.6379 62.346C50.4738 62.8432 52.3843 63.4478 54.3327 64.1356C54.9461 64.352 55.5637 64.5774 56.1853 64.81C58.286 65.5937 60.4191 66.461 62.5476 67.3842Z" fill="#63AA57" stroke="black" stroke-width="1.02564" stroke-linecap="round" stroke-linejoin="round"/>
<path d="M52.3431 57.4211C52.4064 57.5272 54.7394 61.3566 54.3333 64.1354C52.3849 63.4475 50.4744 62.843 48.6385 62.3458C48.0032 62.1732 47.6307 63.1385 48.2534 63.3562C49.8844 63.9272 51.6405 64.6084 53.4812 65.3743C51.3005 67.1538 46.9611 67.3627 46.9611 67.3627C49.6893 68.4547 54.0531 66.8612 55.5402 66.2511C57.2988 67.0175 59.1168 67.8475 60.9615 68.7263C57.8138 70.7975 52.5114 71.0532 52.5114 71.0532C55.7953 72.3646 60.7888 70.8716 63.3922 69.9025C65.5233 70.948 67.6702 72.0445 69.7828 73.1614C66.0257 76.6221 57.782 77.0189 57.782 77.0189C62.7072 78.9897 70.6223 76.0566 73.1873 74.995C74.5229 75.7261 75.8326 76.4604 77.1028 77.1894C74.3124 81.5599 65.789 83.6274 65.789 83.6274C70.7485 84.5821 77.5219 80.6685 80.16 78.9744C80.6102 79.242 81.0509 79.5082 81.486 79.7709C81.7247 79.9161 81.9616 80.0613 82.1965 80.2047C82.5931 80.4473 82.9823 80.6883 83.3639 80.928C81.2108 85.7231 72.4961 88.6573 72.4961 88.6573C77.4699 89.1736 83.7953 84.7847 86.3286 82.8347C88.0201 83.9551 89.4761 84.9914 90.6214 85.8975C90.2068 86.7 89.7483 87.4824 89.2476 88.243C82.8805 97.9154 71.833 100.581 62.5465 93.6349C47.037 82.0418 48.5519 69.1578 34.3796 58.9318C34.3796 58.9318 65.5802 45.5713 85.6095 58.6206C93.2188 63.581 95.0479 73.0167 92.4217 81.5177C92.2258 82.1547 92.0018 82.7877 91.7531 83.4127C90.4601 82.3567 89.1018 81.3708 87.6804 80.4607C87.8695 77.2389 87.9267 69.6533 84.7191 65.8864C84.7191 65.8864 87.0252 74.1103 84.688 78.7019C84.4157 78.5548 84.1396 78.4098 83.862 78.2686C83.1042 77.8225 82.3046 77.36 81.4707 76.8845C81.4853 75.313 81.4084 65.4517 77.2316 61.3313C77.299 61.5132 80.5896 70.3494 77.9212 74.9157C76.7815 74.2948 75.5967 73.6671 74.38 73.0355C73.8082 70.3042 71.7838 62.1917 67.3881 59.264C67.3881 59.264 71.7005 66.2571 70.9449 71.2925C69.0236 70.3399 67.0451 69.3977 65.0461 68.4918L65.5252 68.6707C65.5252 68.6707 64.0918 60.0283 59.9646 57.2794C59.9646 57.2794 63.7781 63.4679 62.5482 67.384C60.4197 66.4608 58.2866 65.5934 56.1859 64.8097C55.7895 63.0429 54.6491 58.9581 52.3431 57.4211Z" fill="#80CD75" stroke="black" stroke-width="1.02564" stroke-linecap="round" stroke-linejoin="round"/>
<path d="M50.7244 100.202C49.791 97.045 49.0205 96.3547 45.7667 95.7613C48.9406 94.8309 49.6348 94.0639 50.233 90.8263C51.1646 93.9837 51.937 94.6739 55.1908 95.2674C52.0169 96.1977 51.3227 96.9647 50.7244 100.202Z" fill="#FFC85A"/>
<path d="M50.2534 91.2123C51.1152 93.9635 51.9621 94.724 54.8024 95.2872C52.0366 96.1461 51.2719 96.9891 50.7043 99.8153C49.8425 97.064 48.9955 96.3036 46.1553 95.7404C48.921 94.8815 49.6858 94.0385 50.2534 91.2123ZM50.2117 90.4171C49.5797 94.0774 48.949 94.7762 45.356 95.7823C49.0346 96.4091 49.7348 97.0363 50.7459 100.61C51.3779 96.9502 52.0086 96.2514 55.6017 95.2453C51.923 94.6184 51.2229 93.9913 50.2117 90.4171Z" fill="black"/>
<path d="M79.9095 119.159C79.2665 117.026 78.7051 116.522 76.5065 116.11C78.65 115.47 79.1575 114.911 79.5722 112.723C80.2152 114.855 80.7765 115.36 82.9751 115.771C80.8317 116.412 80.3242 116.971 79.9095 119.159Z" fill="#FFC85A"/>
<path d="M79.5912 113.093C80.1699 114.854 80.7821 115.402 82.603 115.791C80.8327 116.367 80.2812 116.977 79.8897 118.789C79.3109 117.027 78.6988 116.479 76.8779 116.091C78.6463 115.514 79.1997 114.904 79.5912 113.093ZM79.5505 112.316C79.1016 114.919 78.6523 115.415 76.0972 116.131C78.7132 116.577 79.2101 117.023 79.9304 119.565C80.3792 116.962 80.8286 116.468 83.3837 115.75C80.7677 115.304 80.2708 114.858 79.5505 112.316Z" fill="black"/>
<path d="M171.83 61.6366C170.961 58.704 170.237 58.0539 167.215 57.5021C170.163 56.6373 170.816 55.9151 171.373 52.9078C172.24 55.8405 172.966 56.4886 175.988 57.0423C173.04 57.9089 172.386 58.6293 171.83 61.6366Z" fill="#FFC85A"/>
<path d="M171.393 53.2901C172.191 55.8221 172.989 56.5369 175.604 57.0619C173.058 57.8573 172.34 58.6516 171.811 61.2532C171.012 58.7212 170.215 58.0064 167.6 57.4814C170.145 56.686 170.864 55.8917 171.393 53.2901ZM171.352 52.4986C170.76 55.9268 170.17 56.579 166.804 57.5231C170.25 58.1102 170.905 58.6971 171.852 62.0447C172.444 58.6165 173.034 57.9643 176.399 57.0202C172.954 56.4331 172.299 55.8462 171.352 52.4986Z" fill="black"/>
<path d="M128.491 96.424C127.5 93.0583 126.686 92.3314 123.22 91.7026C126.604 90.715 127.335 89.9052 127.968 86.4562C128.959 89.8219 129.773 90.5489 133.239 91.1776C129.856 92.1653 129.125 92.975 128.491 96.424Z" fill="#FFC85A"/>
<path d="M127.989 86.843C128.908 89.7952 129.802 90.5977 132.851 91.1982C129.883 92.114 129.076 93.0038 128.471 96.0378C127.552 93.0855 126.658 92.283 123.609 91.6825C126.577 90.7667 127.384 89.877 127.989 86.843ZM127.947 86.0459C127.278 89.9196 126.61 90.6592 122.808 91.7245C126.701 92.3884 127.444 93.0522 128.512 96.8348C129.182 92.9611 129.849 92.2215 133.652 91.1562C129.759 90.4924 129.016 89.8285 127.947 86.0459Z" fill="black"/>
<path d="M101.652 114.792C102.14 115.571 102.379 116.397 102.536 117.266C102.701 118.101 102.53 118.95 102.501 119.788C102.447 121.432 102.341 123.214 102.179 124.847C102.172 124.938 102.028 124.949 102.012 124.856C101.836 124.025 101.691 123.192 101.545 122.36C101.438 121.737 101.246 120.484 101.163 119.86C101.046 119.028 100.787 118.203 100.864 117.355C100.929 116.473 101.081 115.629 101.485 114.803C101.515 114.738 101.615 114.733 101.652 114.794L101.652 114.792Z" fill="black"/>
<path d="M109.555 95.9054C109.299 92.9778 109.647 90.0111 110.334 87.1582C110.476 86.5889 110.659 85.7782 110.895 85.2466C111.534 83.7018 112.571 82.2863 113.936 81.3006C114 81.2527 114.097 81.3199 114.071 81.3973C113.729 82.7208 113.249 83.8493 112.847 85.033C112.631 85.6136 112.395 86.1861 112.134 86.7505C111.313 88.4532 110.806 90.3008 110.373 92.1297C110.087 93.3685 109.864 94.6319 109.721 95.906C109.716 95.9526 109.674 95.9845 109.628 95.9795C109.588 95.9741 109.557 95.9424 109.553 95.9037L109.555 95.9054Z" fill="black"/>
</svg>
