<svg width="598" height="773" viewBox="0 0 598 773" fill="none" xmlns="http://www.w3.org/2000/svg">
<path d="M202.58 223.57L142.569 239.272L102.661 190.358L213.411 161.377L202.58 223.57Z" fill="#CBE4E8"/>
<path d="M265.929 310.086C271.867 324.635 263.712 340.128 250.464 348.583C231.105 360.936 194.208 371.993 194.208 371.993C184.586 378.363 179.955 358.746 172.677 344.816C149.632 300.694 125.743 262.429 125.743 262.429C119.804 247.88 124.416 239.919 138.965 233.981L195.242 212.222C209.791 206.283 226.399 213.263 232.338 227.812L265.925 310.094L265.929 310.086Z" fill="#AB5F41"/>
<path d="M211.651 311.967C215.417 326.345 237.779 345.641 252.157 341.875L354.643 302.363C369.021 298.597 377.633 283.895 373.867 269.517L363.327 229.247C359.561 214.869 344.861 206.263 330.481 210.023L214.18 229.906C199.8 233.666 197.35 257.317 201.109 271.692L211.649 311.961L211.651 311.967Z" fill="#AB5F41"/>
<path d="M457.694 524.608L462.408 537.97L465.402 552.331L467.705 566.796L469.211 581.37L469.364 596.03L467.737 610.604L464.533 624.897L459.363 638.589L452.924 651.756L444.217 663.565L433.952 674.009L423.105 683.876L410.915 692.049L398.14 699.264L384.762 705.275L371.058 710.481L357.229 715.337L343.055 719.096L329.268 722.409L315.421 725.515L305.674 726.521L301.313 726.97L287.192 728.411L272.996 727.996L258.919 726.299L245.118 723.061L231.834 718.124L219.462 711.193L208.342 702.428L198.378 692.38L189.372 681.436L181.782 669.432L175.591 656.655L170.055 643.594L165.342 630.204L161.425 616.557L159.159 602.654L157.428 588.679L157.32 574.597L157.276 560.514L158.365 546.474L159.43 532.437L161.088 518.454L162.956 504.507L164.805 490.548L166.817 476.606L169.226 462.728L171.938 448.911L174.778 435.119L177.846 421.376L180.699 407.586L184.01 393.898L187.234 380.187L190.541 366.507L193.947 352.844L197.735 339.212L208.125 332.05L218.627 325.108L228.831 317.855L240.766 325.174L252.316 333.378L264.067 341.272L275.918 349.028L287.483 357.207L298.625 365.963L310.273 374.029L321.597 382.535L332.578 391.481L343.51 400.48L354.641 409.24L358.807 412.692C358.807 412.692 358.807 412.692 358.822 412.712L365.545 418.283L376.127 427.692L386.497 437.339L396.983 446.86L406.871 457.004L416.535 467.345L426.049 477.825L435.114 488.706L443.704 499.978L451.195 512.01L457.7 524.605L457.694 524.608Z" fill="#CBE4E8"/>
<path d="M573.86 132.155L602.246 257.78L291.027 330.181L283.992 331.88L283.413 329.824L253.3 223.219L252.808 221.464L260.997 218.95L573.86 132.155Z" fill="#F2F2F2"/>
<path d="M607.5 114L623.245 262.535L292.917 337.175L291.027 330.181L290.221 327.2L261.757 221.774L260.997 218.949L258.916 211.243L607.5 114Z" fill="#80CD75"/>
<path d="M260.206 342.616C203.844 289.084 198.398 224.659 198.398 224.659L141.814 242.011C141.814 242.011 198.684 319.41 193.715 354.586C190.731 375.708 271.501 353.339 260.206 342.616Z" fill="#CBE4E8"/>
<path d="M195.971 299.77C201.283 309.421 197.771 321.558 188.116 326.878L154.943 345.144C145.288 350.464 133.155 346.944 127.835 337.289C122.515 327.635 126.035 315.501 135.689 310.181L168.857 291.917C178.514 286.603 190.645 290.117 195.965 299.772L195.971 299.77Z" fill="#AB5F41"/>
<path d="M222.73 330.679C228.042 340.33 224.53 352.467 214.876 357.787L181.703 376.053C172.048 381.373 159.914 377.853 154.594 368.199C149.275 358.544 152.794 346.41 162.449 341.09L195.616 322.826C205.274 317.512 217.405 321.026 222.725 330.681L222.73 330.679Z" fill="#AB5F41"/>
<path d="M173.641 266.995C178.955 276.652 175.441 288.783 165.786 294.103L132.619 312.367C122.962 317.682 110.828 314.162 105.51 304.512C100.196 294.855 103.71 282.724 113.365 277.404L146.532 259.14C156.184 253.828 168.321 257.34 173.635 266.997L173.641 266.995Z" fill="#AB5F41"/>
<path d="M158.422 232.899C162.571 243.109 157.66 254.749 147.451 258.903L112.376 273.17C102.165 277.319 90.526 272.408 86.3737 262.205C82.2247 251.994 87.1337 240.349 97.339 236.202L132.414 221.935C142.625 217.786 154.27 222.695 158.424 232.904L158.422 232.899Z" fill="#AB5F41"/>
<path d="M232.062 229.936C231.214 240.925 221.618 249.145 210.629 248.298L168.385 244.023C157.397 243.175 149.176 233.58 150.024 222.591C150.872 211.603 160.467 203.382 171.456 204.23L213.7 208.504C224.689 209.352 232.909 218.948 232.062 229.936Z" fill="#AB5F41"/>
<path d="M244.892 284.027C235.259 289.383 223.108 285.916 217.751 276.283L198.013 238.692C192.657 229.059 196.124 216.908 205.758 211.552C215.391 206.195 227.542 209.663 232.898 219.296L252.636 256.886C257.992 266.52 254.525 278.67 244.892 284.027Z" fill="#AB5F41"/>
<path d="M151.611 280.059C140.922 277.382 134.424 266.541 137.107 255.85L146.311 219.122C148.989 208.433 159.83 201.934 170.519 204.612C181.21 207.296 187.706 218.131 185.028 228.819L175.824 265.548C173.14 276.239 162.305 282.735 151.614 280.052L151.611 280.059Z" fill="#AB5F41"/>
<path d="M326.056 624.315C305.385 629.551 284.624 623.415 271.593 607.839L286.719 592.327C295.743 601.37 306.723 605.426 317.784 604.129L304.32 571.245L295.507 572C274.155 573.711 259.688 565.76 253.148 549.806C245.147 530.274 254.067 510.268 275.054 499.777L269.121 485.29L282.958 479.621L289.161 494.761C307.614 490.625 325.334 496.295 337.207 509.496L322.308 525.101C315.292 517.712 306.473 514.286 297.36 514.789L310.893 547.839L318.99 547.186C340.898 545.44 355.033 552.574 361.703 568.857C369.502 587.903 360.748 607.84 339.966 618.823L345.966 633.476L332.13 639.145L326.063 624.332L326.056 624.315ZM295.321 549.271L283.057 519.315C274.8 524.219 271.369 532.086 274.571 539.9C277.303 546.579 283.898 550.147 293.822 549.315L295.327 549.269L295.321 549.271ZM320.027 570.14L332.026 599.44C340.217 594.376 343.554 586.735 340.418 579.082C337.484 571.916 331.453 569.256 321.851 569.955L320.024 570.134L320.027 570.14Z" fill="#A5A5A5"/>
<path d="M326.056 624.315C305.385 629.551 284.624 623.415 271.593 607.839L286.719 592.327C295.743 601.37 306.723 605.426 317.784 604.129L304.32 571.245L295.507 572C274.155 573.711 259.688 565.76 253.148 549.806C245.147 530.274 254.067 510.268 275.054 499.777L269.121 485.29L282.958 479.621L289.161 494.761C307.614 490.625 325.334 496.295 337.207 509.496L322.308 525.101C315.292 517.712 306.473 514.286 297.36 514.789L310.893 547.839L318.99 547.186C340.898 545.44 355.033 552.574 361.703 568.857C369.502 587.903 360.748 607.84 339.966 618.823L345.966 633.476L332.13 639.145L326.063 624.332L326.056 624.315ZM295.321 549.271L283.057 519.315C274.8 524.219 271.369 532.086 274.571 539.9C277.303 546.579 283.898 550.147 293.822 549.315L295.327 549.269L295.321 549.271ZM320.027 570.14L332.026 599.44C340.217 594.376 343.554 586.735 340.418 579.082C337.484 571.916 331.453 569.256 321.851 569.955L320.024 570.134L320.027 570.14Z" fill="#F4F5EB"/>
<path d="M457.694 524.605L462.408 537.967L465.402 552.328L467.705 566.793L469.211 581.367L469.364 596.027L467.737 610.601L464.533 624.894L459.363 638.586L452.924 651.753L444.217 663.562L433.952 674.006L423.105 683.873L410.915 692.046L398.139 699.261L384.762 705.272L371.058 710.478L357.228 715.334L343.055 719.093L329.268 722.406L315.421 725.512L305.673 726.518C316.423 726.037 331.103 717.437 340.85 713.046C352.649 707.733 364.093 701.517 374.551 693.861C402.242 673.57 429.062 640.271 440.599 607.799C456.554 562.873 435.58 523.394 412.621 485.418C397.029 459.629 378.809 435.452 358.923 412.829C358.888 412.791 358.853 412.754 358.824 412.714L365.547 418.285L376.13 427.695L386.499 437.341L396.985 446.862L406.873 457.006L416.537 467.347L426.052 477.828L435.116 488.709L443.706 499.981L451.197 512.012L457.702 524.608L457.694 524.605Z" fill="#B0C9CD"/>
<path d="M216.403 424.638C216.403 424.638 168.909 472.709 190.1 547.468C190.1 547.468 181 477.459 216.403 424.638Z" fill="#B0C9CD"/>
</svg>
