<svg width="47" height="53" viewBox="0 0 47 53" fill="none" xmlns="http://www.w3.org/2000/svg">
<path d="M13.8913 1.44522C14.3453 1.84099 14.8081 2.22792 15.2681 2.61175C17.2248 4.24476 19.2203 5.82476 21.2456 7.35442C21.3233 7.41444 21.4039 7.47449 21.4818 7.53154C27.4449 12.011 35.5394 16.6933 38.6386 17.7709C40.502 18.417 44.5909 19.7791 45.7551 17.1547C46.5109 15.4516 45.0447 13.8807 43.9648 12.8601C41.7277 10.7501 38.5979 9.5685 35.8644 8.36478C32.6176 6.93211 15.1218 1.69236 13.8913 1.44819L13.8913 1.44522Z" fill="#BB98F2"/>
<path d="M12.127 17.2925C12.5216 17.7558 12.9225 18.2103 13.3263 18.6646C15.0347 20.5856 16.7843 22.4625 18.5753 24.2957C18.6442 24.3674 18.7132 24.4362 18.785 24.5081C24.0566 29.8773 31.4065 35.7795 34.3225 37.3312C36.0743 38.2635 39.9272 40.2517 41.4463 37.8347C42.4313 36.2656 41.2025 34.4818 40.2757 33.3031C38.3593 30.865 35.4267 29.2041 32.8942 27.5841C29.8822 25.6577 13.3143 17.7256 12.1326 17.2927L12.127 17.2925Z" fill="#BB98F2"/>
<path d="M1.6035 22.8657C1.8674 23.4212 2.14273 23.9742 2.41809 24.5242C3.58692 26.8562 4.80786 29.1597 6.07815 31.4288C6.12653 31.518 6.17785 31.6043 6.22624 31.6935C9.97396 38.3535 15.594 46.1073 18.0164 48.4218C19.4748 49.8124 22.6951 52.8096 24.7593 50.9023C26.1011 49.6649 25.3566 47.5981 24.7556 46.2005C23.5139 43.3104 21.101 40.8875 19.0589 38.6132C16.6349 35.9122 2.62981 23.6195 1.60057 22.8686L1.6035 22.8657Z" fill="#BB98F2"/>
</svg>
