<svg width="254" height="276" viewBox="0 0 254 276" fill="none" xmlns="http://www.w3.org/2000/svg">
<mask id="mask0_1904_2034" style="mask-type:alpha" maskUnits="userSpaceOnUse" x="30" y="8" width="180" height="267">
<path d="M170.104 268.978L171.033 274.871C188.126 264.06 202.645 250.879 207.543 235.298C213.63 216.148 201.909 198.549 187.73 186.729C179.448 179.718 169.909 174.292 159.771 170.487C156.934 169.408 152.826 167.862 150.039 166.742C115.663 152.779 80.6179 133.718 57.1618 104.343C33.1987 73.1987 39.1738 45.7153 73.7995 26.9662C81.2203 23.006 89.1418 20.1087 97.249 17.8608C95.6107 16.3439 93.9859 14.6155 93.2915 13.2075L84.7528 8.08398C82.3882 8.87414 80.0457 9.73029 77.7284 10.6562C48.4693 22.3554 22.6629 47.8409 32.4809 81.7436C46.2001 126.843 106.649 156.667 147.732 172.643C154.047 175.107 160.868 177.252 166.927 180.316C182.699 188.273 201.116 203.318 203.304 221.829C205.118 240.396 189.481 256.375 170.104 268.978Z" fill="#FBC333"/>
</mask>
<g mask="url(#mask0_1904_2034)">
<path d="M170.953 272.5C196.286 258 233.153 219.7 177.953 182.5C108.453 150.999 7.45249 101.999 40.9525 46.4993C64.1522 26.0993 93.1188 10.3333 99.9521 7.5" stroke="#FBC333" stroke-width="40"/>
</g>
</svg>
