<svg width="649" height="890" viewBox="0 0 649 890" fill="none" xmlns="http://www.w3.org/2000/svg">
<g clip-path="url(#clip0_1904_2040)">
<mask id="mask0_1904_2040" style="mask-type:alpha" maskUnits="userSpaceOnUse" x="125" y="268" width="616" height="534">
<path d="M314.72 284.969C251.536 286.456 188.444 290.886 125.597 297.635L143.164 278.021C181.399 274.518 219.748 271.734 258.232 270.104C319.046 267.388 380.003 267.24 440.817 270.299C464.32 271.436 487.876 273.006 511.252 276.301C744.673 309.949 772.137 497.843 715.657 694.52C705.839 728.598 694.025 762.121 679.869 794.651C678.892 796.862 677.956 798.974 676.864 801.302L656.496 791.373C664.451 774.964 671.638 758.02 678.189 740.974C704.128 672.528 722.739 599.974 722.56 526.504C721.81 402.176 657.64 322.669 535.873 297.317C504.387 290.365 472.189 288.141 440.005 286.576C398.412 284.412 356.332 284.055 314.72 284.969Z" fill="#FF6600"/>
</mask>
<g mask="url(#mask0_1904_2040)">
<path d="M120.227 284.105C405.064 248.729 889.129 245.043 672.356 805.955" stroke="#FF6600" stroke-width="106.759"/>
</g>
</g>
<defs>
<clipPath id="clip0_1904_2040">
<rect width="819.372" height="774" fill="white" transform="matrix(0.988551 -0.150884 -0.150884 -0.988551 116.896 889.385)"/>
</clipPath>
</defs>
</svg>
