<svg width="347" height="424" viewBox="0 0 347 424" fill="none" xmlns="http://www.w3.org/2000/svg">
<g clip-path="url(#clip0_863_3996)">
<path d="M-102.91 155.371C-82.6146 192.592 -42.187 236.558 -3.83309 254.724C29.0843 272.673 120.735 273.75 168.008 226.755C189.73 202.371 189.644 173.069 175.899 150.866C167.04 140.368 151.856 135.354 138.498 143.965C118.092 157.12 116.029 191.455 121.216 212.472C137.404 278.064 195.447 338.518 261.38 354.526" stroke="#FF9ECB" stroke-width="5.36748" stroke-linecap="round"/>
<path d="M212.029 366.147C223.796 364.699 250.552 360.561 263.433 355.603" stroke="#FF9ECB" stroke-width="5.36748" stroke-linecap="round"/>
<path d="M263.434 355.601C256.617 345.896 241.744 323.265 236.785 310.379" stroke="#FF9ECB" stroke-width="5.36748" stroke-linecap="round"/>
</g>
<defs>
<clipPath id="clip0_863_3996">
<rect width="413.282" height="374.046" fill="white" transform="translate(-110.062 52.1055) rotate(-7.18262)"/>
</clipPath>
</defs>
</svg>
