<svg width="69" height="70" viewBox="0 0 69 70" fill="none" xmlns="http://www.w3.org/2000/svg">
<path d="M30.3331 4.73875C30.811 -0.30875 38.189 -0.30875 38.6669 4.73875C39.032 8.59411 43.9987 9.92284 46.2455 6.76624C49.1872 2.63356 55.5767 6.31677 53.4629 10.9266C51.8483 14.4477 55.4842 18.0779 59.0108 16.4658C63.6279 14.3553 67.3169 20.7348 63.1777 23.6719C60.0162 25.9152 61.347 30.8741 65.2084 31.2386C70.2639 31.7157 70.2638 39.0821 65.2084 39.5593C61.347 39.9238 60.0162 44.8827 63.1777 47.126C67.3169 50.0631 63.6279 56.4425 59.0108 54.3321C55.4842 52.72 51.8483 56.3502 53.4629 59.8713C55.5767 64.4811 49.1872 68.1643 46.2455 64.0316C43.9987 60.8751 39.032 62.2038 38.6669 66.0591C38.189 71.1067 30.811 71.1066 30.3331 66.0591C29.968 62.2038 25.0013 60.8751 22.7544 64.0316C19.8128 68.1643 13.4233 64.4811 15.5371 59.8713C17.1517 56.3502 13.5158 52.72 9.98918 54.3321C5.37208 56.4425 1.68308 50.0631 5.82226 47.126C8.98382 44.8827 7.65299 39.9238 3.79158 39.5593C-1.26386 39.0821 -1.26386 31.7157 3.79158 31.2386C7.653 30.8741 8.98382 25.9152 5.82226 23.6718C1.68308 20.7348 5.37208 14.3553 9.98918 16.4658C13.5158 18.0779 17.1517 14.4477 15.5371 10.9266C13.4233 6.31677 19.8128 2.63356 22.7545 6.76624C25.0013 9.92284 29.968 8.5941 30.3331 4.73875Z" fill="#80CD75"/>
</svg>
